<?xml version="1.0" encoding="UTF-8"?>
<svg width="63.295mm" height="30.581mm" version="1.1" viewBox="0 0 63.295 30.581" xmlns="http://www.w3.org/2000/svg">
<g transform="translate(-21.045 -14.878)">
<g fill="#fff" fill-rule="evenodd" stroke-width=".3">
<path d="m54.785 17.297h29.404v25.094h-29.404z" stop-color="#000000"/>
<path d="m21.195 18.287h31.641v24.604h-31.641z" stop-color="#000000"/>
<path d="m22.195 17.287h31.641v24.604h-31.641z" stop-color="#000000"/>
<path d="m54.785 16.297h28.404v25.094h-28.404z" stop-color="#000000"/>
</g>
<g fill="none" stroke="#b3b3b3" stroke-linecap="round" stroke-linejoin="round" stroke-width=".3">
<path d="m51.8 42.891h-30.606v-24.635" stop-color="#000000" style="-inkscape-stroke:none;font-variation-settings:normal"/>
<path d="m84.189 17.256v25.135h-28.122" stop-color="#000000" style="-inkscape-stroke:none;font-variation-settings:normal"/>
<path d="m51.854 41.891h-29.659v-24.635" stop-color="#000000" style="-inkscape-stroke:none;font-variation-settings:normal"/>
<path d="m83.189 16.256v25.135h-27.034" stop-color="#000000" style="-inkscape-stroke:none;font-variation-settings:normal"/>
</g>
<path d="m23.195 16.256c2.5217 0 26.516-0.93945 29.655 0.87264 2.7945-2.7945 24.433-0.73325 29.329-2.0554l0.2093 23.742c-5.8471 3.3758-22.097-0.0411-29.539 2.8514-0.76745-0.52999-22.087-1.0236-29.503-0.62327z" fill="#fff" fill-rule="evenodd" stop-color="#000000" stroke="#4d4d4d" stroke-width=".3" style="-inkscape-stroke:none;font-variation-settings:normal"/>
<g fill="none">
<path d="m58.867 21.477c7.2496-0.86322 19.461 0.19028 23.312-0.84977" stop-color="#000000" style="-inkscape-stroke:none;font-variation-settings:normal"/>
<path d="m58.873 26.476c7.2514-0.86196 19.456 0.1907 23.306-0.84907" stop-color="#000000" style="-inkscape-stroke:none;font-variation-settings:normal"/>
<path d="m58.828 32.814c8.2051-1.0705 18.61 0.93963 23.56-1.9181" stop-color="#000000" style="-inkscape-stroke:none;font-variation-settings:normal"/>
<path d="m58.883 37.807c8.2054-1.0546 18.567 0.94037 23.505-1.9111" stop-color="#000000" style="-inkscape-stroke:none;font-variation-settings:normal"/>
<path d="m27.17 38.006c9.1425-0.14416 25.02 0.28494 25.68 0.74096" stop-color="#000000" style="-inkscape-stroke:none;font-variation-settings:normal"/>
<path d="m27.195 26.701c7.6215-0.18305 23.19-0.47381 25.675 0.96136" stop-color="#000000" style="-inkscape-stroke:none;font-variation-settings:normal"/>
</g>
<path d="m52.85 17.469v24.131" fill="#fff" fill-rule="evenodd" stop-color="#000000" stroke="#4d4d4d" stroke-width=".3" style="-inkscape-stroke:none;font-variation-settings:normal"/>
<g fill="#333" stroke-width="1px">
<path d="m31.959 23.859 0.03911 2.3189 0.42782-0.0072q0.15294-0.0026 0.21802 0.05628 0.06711 0.05675 0.06871 0.15182 0.0016 0.09301-0.06356 0.15406-0.06309 0.05895-0.21603 0.06153l-1.2793 0.02157q-0.15294 0.0026-0.22005-0.05418-0.06508-0.05886-0.06668-0.15393-0.0016-0.093 0.06152-0.15195 0.06513-0.06105 0.21807-0.06363l0.42782-0.0072-0.0298-1.7671-0.37654 0.10558q-0.09052 0.02633-0.13599 0.0271-0.0806 0.0014-0.14162-0.0617-0.05895-0.06309-0.06052-0.1561-0.0014-0.08474 0.04117-0.133 0.04257-0.05033 0.18041-0.08987zm2.2587 0.46011 0.0053 0.50433q0.23485-0.0769 0.42707-0.07892 0.39065-0.0041 0.65183 0.25979 0.26118 0.26391 0.26562 0.68557 0.0046 0.43406-0.25531 0.68486-0.25784 0.24871-0.79731 0.2544-0.4754 5e-3 -0.75426-0.17189-0.16229-0.10165-0.16371-0.236-8.94e-4 -0.08474 0.06046-0.14741 0.0634-0.06475 0.15021-0.06567 0.07234-7.63e-4 0.15783 0.06862 0.08546 0.06732 0.17876 0.09321 0.1327 0.03788 0.33939 0.0357 0.38445-0.0041 0.52372-0.12748 0.13924-0.1255 0.13656-0.37973-0.0026-0.2501-0.14056-0.39128-0.13585-0.1412-0.34875-0.13896-0.22943 0.0024-0.52137 0.15433-0.06577 0.03583-0.11538 0.03636-0.09095 9.59e-4 -0.15365-0.06453-0.06064-0.06551-0.06175-0.17092l-0.0129-1.2236 1.296-0.01366q0.15295-0.0016 0.21766 0.05765 0.06675 0.05718 0.06775 0.15226 9.81e-4 0.09301-0.06453 0.15365-0.06347 0.05855-0.21642 0.06016zm3.504 0.63368q2.98e-4 0.11989-0.08425 0.20072-0.08455 0.08083-0.23338 0.0812-0.14883 3.7e-4 -0.23378-0.08003t-0.08525-0.20029q-2.99e-4 -0.11989 0.08425-0.20072 0.08455-0.08083 0.23338-0.0812 0.14883-3.7e-4 0.23378 0.08003t0.08525 0.20029zm0.0076 1.387q2.99e-4 0.11989-0.08425 0.20072-0.08455 0.08083-0.23338 0.0812-0.14883 3.71e-4 -0.23378-0.08003-0.08495-0.0804-0.08525-0.20029-2.99e-4 -0.11989 0.08425-0.20072 0.08455-0.08083 0.23338-0.0812 0.14883-3.71e-4 0.23378 0.08003 0.08495 0.0804 0.08525 0.20029zm3.1282-2.4554-0.01332 1.6577q0.13435 0.0011 0.19795 0.06154 0.06361 0.05839 0.06286 0.1514-7.47e-4 0.09301-0.06737 0.15243-0.06456 0.05943-0.19684 0.05836l-0.0014 0.16949q0.13435 0.0011 0.19795 0.06154 0.06359 0.06046 0.06285 0.15347-7.48e-4 0.09301-0.06737 0.15242-0.06454 0.05736-0.2175 0.05613l-0.56842-0.0046q-0.15296-0.0012-0.21864-0.05964-0.06359-0.06046-0.06283-0.15554 7.48e-4 -0.09301 0.06529-0.15038 0.06663-0.05941 0.21958-0.05818l0.16536 0.0013 0.0014-0.16949-1.1513-0.0093 0.0028-0.35346 1.0288-1.7198zm-0.43705 1.6543 0.0084-1.0418-0.62227 1.0368zm2.2119 0.62398 0.92787 0.02096q0.07786-0.06027 0.14606-0.05873 0.09713 0.0022 0.15148 0.06752 0.05642 0.06537 0.05291 0.22036l-0.0046 0.20252-1.9301-0.04361 0.01013-0.44844q1.1662-0.91854 1.41-1.1839 0.12299-0.13575 0.12579-0.25974 0.0035-0.15499-0.13023-0.27586-0.1316-0.12289-0.35685-0.12798-0.22732-0.0051-0.38116 0.12371-0.08012 0.06849-0.13077 0.20587-0.03089 0.08614-0.0834 0.12217-0.05044 0.03608-0.12483 0.0344-0.08679-2e-3 -0.14946-0.0654-0.0606-0.0634-0.05873-0.14606 0.0028-0.12399 0.12066-0.30741 0.11993-0.18337 0.3415-0.29002 0.22364-0.1066 0.48196-0.10076 0.40091 0.0091 0.65165 0.2587 0.25079 0.24757 0.24299 0.59268-4e-3 0.17566-0.08177 0.32483-0.07569 0.14716-0.36065 0.40537-0.22377 0.20377-0.87038 0.7288z" aria-label=" 15:42"/>
<path d="m31.985 35.235-0.0039 2.3192 0.42788 7.19e-4q0.15296 2.57e-4 0.21694 0.06031 0.06605 0.05799 0.06589 0.15307-1.56e-4 0.09302-0.0664 0.15285-0.06418 0.05777-0.21714 0.05751l-1.2795-0.0022q-0.15296-2.57e-4 -0.21901-0.05825-0.06398-0.06005-0.06382-0.15514 1.57e-4 -0.09302 0.06433-0.15079 0.06625-0.05983 0.21921-0.05958l0.42788 7.19e-4 3e-3 -1.7673-0.37844 0.09858q-0.09099 0.02465-0.13647 0.02457-0.08061-1.35e-4 -0.14045-0.06432-0.05777-0.06418-0.05761-0.15719 1.42e-4 -0.08475 0.04363-0.13222 0.04349-0.04954 0.18205-0.08651zm2.2543 0.50377-0.0045 0.50434q0.23629-0.07233 0.42852-0.07063 0.39066 0.0035 0.64667 0.27238 0.25601 0.26892 0.25228 0.69059-0.0038 0.43406-0.26854 0.67978-0.26261 0.24367-0.80209 0.2389-0.4754-0.0042-0.75079-0.18648-0.16031-0.10477-0.15912-0.23913 7.5e-4 -0.08475 0.06331-0.14621 0.06464-0.06351 0.15146-0.06274 0.07234 6.39e-4 0.15647 0.07167 0.08414 0.06896 0.17692 0.09665 0.13194 0.04044 0.33864 0.04227 0.38446 0.0034 0.52609-0.11731 0.14165-0.12278 0.1439-0.37701 0.0022-0.2501-0.13295-0.39393-0.13309-0.14381-0.34599-0.14569-0.22943-2e-3 -0.52426 0.1442-0.06645 0.03455-0.11606 0.03411-0.09095-8.04e-4 -0.15237-0.0675-0.05936-0.06667-0.05843-0.17209l0.01082-1.2236 1.296 0.01146q0.15296 0.0014 0.2165 0.06186 0.06563 0.05846 0.06479 0.15354-8.22e-4 0.09301-0.0675 0.15237-0.06459 0.05731-0.21754 0.05596zm3.4889 0.69913q-0.0018 0.11988-0.08776 0.1992-0.08595 0.07933-0.23476 0.07709-0.14881-0.0022-0.23234-0.08413-0.08353-0.08188-0.08172-0.20176 0.0018-0.11988 0.08776-0.1992 0.08595-0.07933 0.23476-0.07709 0.14881 0.0022 0.23234 0.08413 0.08353 0.08188 0.08172 0.20176zm-0.01676 1.3869q-0.0018 0.11988-0.08776 0.1992-0.08595 0.07933-0.23476 0.07709-0.14881-0.0022-0.23234-0.08412-0.08353-0.08188-0.08172-0.20176 0.0018-0.11988 0.08776-0.1992 0.08595-0.07933 0.23476-0.07709 0.14881 0.0022 0.23234 0.08413 0.08353 0.08188 0.08172 0.20176zm3.1608-2.4085-0.03499 1.6574q0.13433 0.0028 0.19713 0.06412 0.06284 0.05922 0.06088 0.15221-2e-3 0.093-0.06936 0.15153-0.06533 0.05858-0.19759 0.05579l-0.0036 0.16946q0.13433 0.0028 0.19713 0.06412 0.0628 0.06128 0.06084 0.15428-2e-3 0.093-0.06936 0.15153-0.06529 0.05651-0.21821 0.05328l-0.56831-0.012q-0.15293-0.0032-0.21784-0.06249-0.0628-0.06128-0.06079-0.15635 2e-3 -0.093 0.06725-0.14951 0.0674-0.05853 0.22032-0.05531l0.16533 0.0035 0.0036-0.16946-1.1511-0.0243 0.0075-0.35339 1.0512-1.7063zm-0.45864 1.6485 0.02199-1.0416-0.63577 1.0286zm2.1989 0.64611 0.92775 0.02573q0.07817-0.05987 0.14636-0.05798 0.09712 0.0027 0.15113 0.06829 0.05608 0.06566 0.05178 0.22063l-0.0056 0.20249-1.9299-0.05352 0.01243-0.44838q1.1709-0.91254 1.416-1.1766 0.12368-0.13512 0.12712-0.25909 0.0043-0.15497-0.12881-0.27653-0.13098-0.12357-0.35621-0.12981-0.22729-0.0063-0.38179 0.12176-0.08047 0.06808-0.13183 0.2052-0.03133 0.08598-0.08402 0.12174-0.05062 0.03582-0.12501 0.03375-0.08678-0.0024-0.14912-0.06617-0.06027-0.06371-0.05798-0.14636 0.0034-0.12398 0.12224-0.30679 0.12087-0.18276 0.34299-0.28826 0.22418-0.10545 0.48247-0.09828 0.40086 0.01112 0.65031 0.26204 0.24951 0.24886 0.23994 0.59392-0.0049 0.17563-0.08344 0.32441-0.07644 0.14677-0.36272 0.40351-0.22482 0.20263-0.87412 0.72433z" aria-label=" 15:42"/>
<path d="m63.591 23.416 0.07583 2.318 0.42765-0.01399q0.15288-5e-3 0.21888 0.05282 0.068 0.05568 0.07111 0.15072 3e-3 0.09297-0.06111 0.15504-0.06215 0.05994-0.21503 0.06494l-1.2788 0.04183q-0.15288 5e-3 -0.22088-0.05068-0.066-0.05782-0.06911-0.15285-3e-3 -0.09297 0.05911-0.15291 0.06415-0.06208 0.21703-0.06708l0.42765-0.01399-0.05778-1.7664-0.37482 0.11153q-0.09009 0.02776-0.13554 0.02925-0.08057 0.0026-0.14258-0.05945-0.05994-0.06215-0.06298-0.15512-0.0028-0.0847 0.03906-0.13364 0.04176-0.051 0.17896-0.09272zm2.2989 0.44674 0.0046 0.50434q0.23495-0.07658 0.42718-0.07835 0.39066-0.0036 0.65148 0.26067 0.26082 0.26426 0.2647 0.68592 4e-3 0.43406-0.25623 0.68452-0.25818 0.24836-0.79765 0.25333-0.4754 0.0044-0.75403-0.1729-0.16217-0.10186-0.16341-0.23622-7.8e-4 -0.08475 0.06066-0.14732 0.06349-0.06467 0.1503-0.06547 0.07234-6.66e-4 0.15774 0.06883 0.08537 0.06743 0.17863 0.09344 0.13265 0.03805 0.33934 0.03615 0.38446-0.0035 0.52389-0.12678 0.13941-0.12531 0.13707-0.37955-0.0023-0.2501-0.14003-0.39147-0.13566-0.14138-0.34856-0.13942-0.22943 0.0021-0.52157 0.15363-0.06582 0.03575-0.11543 0.0362-0.09095 8.37e-4 -0.15356-0.06474-0.06055-0.06559-0.06152-0.17101l-0.01126-1.2236 1.296-0.01193q0.15296-0.0014 0.21758 0.05795 0.06668 0.05727 0.06755 0.15235 8.55e-4 0.09301-0.06474 0.15356-0.06354 0.05846-0.2165 0.05987zm3.5098 0.64905q-3.33e-4 0.11989-0.0853 0.20027-0.08497 0.08038-0.2338 0.07997-0.14883-4.13e-4 -0.23335-0.08126-0.08452-0.08085-0.08419-0.20074 3.33e-4 -0.11989 0.08531-0.20027 0.08497-0.08038 0.2338-0.07997 0.14883 4.13e-4 0.23335 0.08126 0.08452 0.08085 0.08419 0.20074zm2.88e-4 1.387q-3.33e-4 0.11989-0.0853 0.20027-0.08497 0.08038-0.2338 0.07997-0.14883-4.13e-4 -0.23335-0.08126-0.08453-0.08085-0.08419-0.20074 3.32e-4 -0.11989 0.0853-0.20027 0.08497-0.08038 0.2338-0.07997 0.14883 4.12e-4 0.23335 0.08126 0.08452 0.08085 0.08419 0.20074zm3.1162-2.4512-0.0088 1.6578q0.13436 7.16e-4 0.19812 0.061 0.06377 0.05822 0.06327 0.15123-4.96e-4 0.09302-0.06696 0.15261-0.0644 0.0596-0.19669 0.0589l-9.02e-4 0.1695q0.13436 7.15e-4 0.19812 0.061 0.06376 0.06029 0.06326 0.1533-4.96e-4 0.09302-0.06696 0.15261-0.06439 0.05754-0.21735 0.05672l-0.56843-3e-3q-0.15296-8.14e-4 -0.2188-0.05904-0.06376-0.06028-0.06325-0.15537 4.95e-4 -0.09302 0.06488-0.15055 0.06646-0.05959 0.21942-0.05878l0.16536 8.81e-4 9.03e-4 -0.1695-1.1513-0.0061 0.0019-0.35346 1.0241-1.7226zm-0.43257 1.6555 0.0055-1.0418-0.61946 1.0385zm2.2101 0.60099 0.9281-0.0026q0.07631-0.06223 0.14452-0.06242 0.09715-2.72e-4 0.15314 0.06365 0.05806 0.06392 0.05849 0.21894l5.69e-4 0.20257-1.9306 0.0054-0.0013-0.44855q1.1425-0.94786 1.3794-1.2193 0.1195-0.13883 0.11915-0.26285-4.36e-4 -0.15503-0.13719-0.27247-0.1347-0.11951-0.36-0.11888-0.22738 6.39e-4 -0.3779 0.13335-0.07835 0.0705-0.1255 0.20913-0.02869 0.0869-0.08027 0.12425-0.0495 0.03735-0.12392 0.03756-0.08682 2.44e-4 -0.15107-0.06159-0.06218-0.06184-0.06242-0.14452-3.48e-4 -0.12402 0.11282-0.31038 0.11523-0.18636 0.33402-0.2986 0.22086-0.11224 0.47924-0.11297 0.40101-0.0011 0.65801 0.24206 0.25699 0.24112 0.25796 0.58632 4.94e-4 0.1757-0.0735 0.3268-0.07193 0.14903-0.35024 0.4144-0.21852 0.20939-0.85159 0.75067z" aria-label=" 15:42"/>
</g>
<g stroke-width="1px">
<path d="m60.683 30.088-0.6388 0.06457-0.27298 1.4388-0.56238-1.3544-0.63529 0.06421 1.0774 2.4157 0.45628-0.04612zm2.042 1.6525-0.01229-0.23957c-0.02674-0.52142-0.34997-0.90048-0.89958-0.87229-0.49676 0.02548-0.83119 0.39234-0.79938 1.0124 0.04192 0.81737 0.53236 0.94411 0.95162 0.9226 0.35231-0.01807 0.53714-0.13352 0.72098-0.33723l-0.36298-0.32756c-0.09693 0.10741-0.18212 0.1683-0.38294 0.1786-0.21491 0.01102-0.34193-0.12376-0.34988-0.27878zm-0.59044-0.35475-0.5637 0.02891c-0.0023-0.0458 0.0022-0.09549 0.02412-0.1496 0.03126-0.07932 0.10515-0.15375 0.24255-0.1608 0.1374-7e-3 0.21853 0.05944 0.25773 0.13514 0.02737 0.05158 0.03695 0.10054 0.0393 0.14635zm2.737 1.0761-0.02067-1.2134c-0.0034-0.20105-0.03471-0.38046-0.19973-0.53995-0.10404-0.10055-0.24968-0.15805-0.42957-0.15498-0.15167 0.0026-0.32349 0.06549-0.4379 0.18388l-0.0026-0.1552-0.56436 0.0096 0.03233 1.8977 0.57847-0.0099-0.01935-1.1358c-0.0037-0.21869 0.15075-0.26366 0.22835-0.26498 0.0776-0.0013 0.23352 0.03836 0.23725 0.25705l0.01935 1.1358zm3.3174 0.02117 0.0055-0.52208-0.91011-0.0095 0.60635-0.62867c0.20329-0.20955 0.31413-0.3495 0.3169-0.61407 5e-3 -0.4727-0.33069-0.76198-0.79633-0.76686-0.43742-0.0046-0.81419 0.26311-0.81937 0.75697l0.57852 0.0061c2e-3 -0.19402 0.12954-0.24207 0.23537-0.24096 0.14816 0.0016 0.22477 0.09761 0.22332 0.23519-0.0011 0.10583-0.03705 0.16895-0.1298 0.26676l-0.92048 0.97818-0.0055 0.52208zm2.0914-0.732 0.01317-0.98769c0.0069-0.51854-0.38111-0.78831-0.79735-0.79386-0.41624-0.0055-0.81131 0.25379-0.81822 0.77233l-0.01316 0.98769c-0.0069 0.51854 0.38111 0.78831 0.79735 0.79386 0.41624 0.0055 0.81131-0.25379 0.81822-0.77233zm-0.57855-0.0042c-0.0024 0.17637-0.10926 0.25609-0.23272 0.25445-0.12346-0.0016-0.2282-0.08419-0.22585-0.26056l0.01321-0.99122c0.0024-0.17637 0.1093-0.25962 0.23276-0.25798 0.12346 0.0016 0.22816 0.08772 0.22581 0.26409zm3.8338-0.17756c-0.0024-0.37041-0.05303-0.55352-0.21291-0.72534-0.11367-0.1192-0.30498-0.24142-0.61189-0.2394-0.30691 2e-3 -0.49659 0.12674-0.60869 0.24742-0.15761 0.1739-0.20579 0.35766-0.20336 0.72807 0.0025 0.37394 0.05303 0.55352 0.21291 0.72534 0.11367 0.1192 0.30498 0.24142 0.61189 0.2394 0.30691-2e-3 0.49659-0.12674 0.60869-0.24742 0.15761-0.1739 0.20582-0.35414 0.20336-0.72807zm-0.57854 0.0038c0.0012 0.18697-0.0085 0.32109-0.08207 0.39566-0.03504 0.03551-0.08432 0.05347-0.15487 0.05393-0.07055 4.64e-4 -0.12006-0.01685-0.15557-0.05189-0.07457-0.07359-0.08603-0.20758-0.08726-0.39455-0.0012-0.18697 0.0085-0.32109 0.08207-0.39566 0.03505-0.03551 0.08432-0.05347 0.15487-0.05393 0.07055-4.63e-4 0.12006 0.01685 0.15557 0.0519 0.07457 0.0736 0.08603 0.20758 0.08726 0.39455zm2.473 0.66278-0.40546-0.3772c-0.07136 0.07671-0.13342 0.11778-0.22861 0.12122-0.07756 0.0028-0.13133-0.01997-0.18247-0.06754-0.06953-0.06809-0.10219-0.19046-0.10868-0.37026-0.0065-0.1798 0.01726-0.30421 0.08169-0.37714 0.04757-0.05114 0.09956-0.07773 0.17713-0.08053 0.09519-0.0034 0.16005 0.03305 0.23676 0.10441l0.3772-0.40546c-0.16072-0.14952-0.36838-0.23027-0.63279-0.22072-0.32787 0.01184-0.84807 0.17183-0.81816 1.0003 0.02992 0.82849 0.5603 0.95054 0.88817 0.9387 0.26441-0.0095 0.4657-0.10507 0.61522-0.26579zm1.3395 0.12653-0.03635-0.48547-0.18293 0.0137c-0.07739 0.0058-0.11925-0.03352-0.12478-0.1074l-0.05794-0.77394 0.29902-0.02239-0.03319-0.44326-0.29902 0.02239-0.04056-0.54176-0.57694 0.0432 0.04056 0.54176-0.17238 0.01291 0.03319 0.44326 0.17238-0.01291 0.0611 0.81616c0.01949 0.26033 0.21074 0.54671 0.62937 0.51536z" fill="#e62e6c" aria-label="Ven 20 oct"/>
<path d="m63.855 37.478-0.0025-0.09919q-0.15698 0.08873-0.34811 0.13491-0.19108 0.04824-0.34813 0.0522-0.34096 0.0086-0.55833-0.16581-0.21742-0.17648-0.22295-0.39552-0.0067-0.26656 0.25825-0.50069 0.26698-0.23625 0.74639-0.24833 0.19218-0.0048 0.44532 0.03013l-0.0026-0.10125q-0.0024-0.09505-0.08656-0.1529-0.0821-0.05789-0.31147-0.05211-0.18804 0.0047-0.4858 0.08669-0.11091 0.02968-0.1729 0.03124-0.08472 0.0021-0.14616-0.05628-0.05942-0.06053-0.06182-0.15559-0.0014-0.05373 0.01832-0.09351 0.01967-0.03978 0.0563-0.06345 0.03657-0.02574 0.15352-0.06177 0.15595-0.04735 0.31857-0.07627 0.16257-0.03098 0.29482-0.03431 0.39468-0.0099 0.61598 0.15609 0.22331 0.16392 0.23076 0.45942l0.02199 0.87202 0.07232-0.0018q0.15291-0.0039 0.21848 0.05446 0.06758 0.05619 0.06998 0.15125 0.0023 0.09299-0.06227 0.15458-0.0626 0.05947-0.21551 0.06333zm-0.01912-0.75837q-0.25542-0.04319-0.47032-0.03777-0.2583 0.0065-0.4411 0.13725-0.11369 0.08351-0.1116 0.16616 0.0015 0.05993 0.05824 0.09571 0.10504 0.06559 0.28482 0.06105 0.15291-0.0039 0.34358-0.06863 0.19273-0.06482 0.34097-0.17194zm2.0223-1.133-6.17e-4 0.14263q0.11618-0.09872 0.25489-0.14773 0.14077-0.049 0.30407-0.0483 0.3762 0.0016 0.5943 0.23615 0.17283 0.18678 0.17152 0.48857l-0.0034 0.78754q0.13436 5.81e-4 0.19818 0.0608 0.06383 0.05815 0.06342 0.15324-4.02e-4 0.09302-0.06681 0.15268-0.06433 0.0576-0.21729 0.05694l-0.3824-0.0017q-0.15296-6.61e-4 -0.21886-0.05882-0.06382-0.06022-0.06341-0.1553 4.02e-4 -0.09302 0.06473-0.15062 0.06434-0.05967 0.1987-0.05909l0.0035-0.79994q5.99e-4 -0.13849-0.07354-0.20289-0.09679-0.0831-0.29109-0.08394-0.14676-6.34e-4 -0.25863 0.05676-0.10979 0.05534-0.28009 0.23857l-0.0034 0.78754q0.1633 7.06e-4 0.2107 0.03192 0.10102 0.06245 0.1005 0.18234-4.02e-4 0.09302-0.06681 0.15268-0.06433 0.0576-0.21729 0.05694l-0.48162-0.0021q-0.15296-6.62e-4 -0.21886-0.05883-0.06382-0.06022-0.06341-0.1553 5e-4 -0.11575 0.09999-0.1794 0.04974-0.03079 0.21304-0.03008l0.0044-1.0294q-0.13436-5.81e-4 -0.19818-0.0608-0.06382-0.06022-0.06342-0.15324 4.02e-4 -0.09302 0.06473-0.15062 0.0664-0.05966 0.21936-0.059zm2.8239 0.0277-0.0019 0.14261q0.11707-0.09766 0.25622-0.14542 0.14121-0.04772 0.30449-0.04554 0.37617 5e-3 0.59214 0.24152 0.17113 0.18834 0.16709 0.4901l-0.01053 0.78748q0.13435 0.0018 0.19762 0.06259 0.0633 0.05873 0.06203 0.1538-0.0012 0.09301-0.06818 0.15206-0.06485 0.05702-0.2178 0.05497l-0.38237-0.0051q-0.15295-2e-3 -0.21831-0.0608-0.06327-0.0608-0.062-0.15587 0.0012-0.09301 0.06609-0.15002 0.06487-0.05908 0.19922-0.05729l0.0107-0.79988q0.0019-0.13848-0.0717-0.20355-0.09604-0.08397-0.29032-0.08657-0.14675-2e-3 -0.25913 0.05442-0.11029 0.05434-0.28223 0.23603l-0.01053 0.78748q0.16328 0.0022 0.21041 0.03382 0.10045 0.06336 0.09884 0.18324-0.0012 0.09301-0.06818 0.15206-0.06485 0.05701-0.2178 0.05497l-0.48158-0.0064q-0.15295-2e-3 -0.21832-0.0608-0.06327-0.0608-0.062-0.15587 0.0015-0.11574 0.10161-0.17849 0.05002-0.03034 0.2133-0.02816l0.01376-1.0293q-0.13435-0.0018-0.19762-0.06259-0.06327-0.0608-0.06203-0.1538 0.0012-0.09301 0.06609-0.15002 0.06694-0.05905 0.21989-0.05701zm4.1094 0.0349-0.0019 1.4531q0.13436 1.8e-4 0.19836 0.06021 0.064 0.06003 0.06387 0.15305-1.24e-4 0.09302-0.06635 0.15287-0.06416 0.05779-0.21712 0.05759l-0.40308-5.4e-4 1.3e-4 -0.09715q-0.18201 0.08244-0.34743 0.12356-0.16542 0.04112-0.31425 0.04092-0.20877-2.8e-4 -0.36162-0.0873-0.15284-0.08909-0.24152-0.24424-0.06393-0.11171-0.0637-0.27914l0.0012-0.91157-0.07235-9.7e-5q-0.15296-2.05e-4 -0.21903-0.05817-0.064-0.06003-0.06387-0.15512 1.24e-4 -0.09302 0.06428-0.15081 0.06623-0.05986 0.21919-0.05965l0.49609 6.65e-4 -0.0017 1.2609q-1.8e-4 0.13436 0.06381 0.19852 0.06606 0.0621 0.20042 0.06228 0.12816 1.72e-4 0.27498-0.04924 0.1489-0.05148 0.36612-0.18348l0.0012-0.86403-0.15296-2.05e-4q-0.15296-2.06e-4 -0.21903-0.05817-0.064-0.06003-0.06387-0.15512 1.25e-4 -0.09302 0.06428-0.15081 0.06623-0.05986 0.21919-0.05965zm2.0146-0.85145 0.08448 2.2556 0.50814-0.01903q0.15286-0.0057 0.21913 0.05178 0.06827 0.05536 0.07182 0.15038 0.0035 0.09295-0.06037 0.15533-0.06187 0.06024-0.21472 0.06596l-1.4397 0.05392q-0.15286 0.0057-0.22112-0.04964-0.06628-0.0575-0.06984-0.15252-0.0035-0.09295 0.05839-0.15319 0.06386-0.06238 0.21671-0.0681l0.50814-0.01903-0.06862-1.8322-0.34083 0.01277q-0.15079 0.0056-0.21906-0.04971-0.06834-0.05743-0.0719-0.15244-0.0035-0.09295 0.05839-0.15319 0.06386-0.06238 0.21671-0.0681zm3.6571 1.6429-1.7262 0.20511q0.08519 0.1564 0.26341 0.23723 0.18026 0.08058 0.46558 0.04668 0.234-0.0278 0.60999-0.17448 0.15523-0.06007 0.2168-0.06739 0.08416-0.01 0.1487 0.0427 0.06455 0.0527 0.07528 0.14301 0.0098 0.0821-0.04499 0.1469-0.07308 0.0857-0.38294 0.19329-0.31011 0.10554-0.60363 0.14041-0.50494 0.06-0.84263-0.18922-0.33564-0.24946-0.38514-0.66614-0.05268-0.44336 0.24076-0.75925 0.29525-0.31818 0.7222-0.36891 0.25658-0.03048 0.48078 0.03447 0.22626 0.06471 0.34338 0.15695 0.16584 0.13433 0.28889 0.34661 0.08422 0.14819 0.10861 0.35346zm-0.51594-0.36542q-0.11794-0.16917-0.28442-0.2389-0.16673-0.07178-0.38226-0.04617-0.21347 0.02536-0.35874 0.13421-0.14551 0.1068-0.22258 0.29913zm-0.46347-1.3604-0.41721 0.4305q-0.0632 0.06371-0.11042 0.06932-0.05747 0.0068-0.10316-0.02729-0.04363-0.03437-0.05046-0.09184-0.0078-0.06568 0.0665-0.14112l0.41926-0.43075q0.0632-0.06371 0.11041-0.06932 0.05747-0.0068 0.10111 0.02754 0.04569 0.03412 0.05227 0.08954 8e-3 0.06774-0.06831 0.14342z" fill="#333" aria-label=" annulé"/>
<path d="m60.377 20.459-0.15537-1.6437-0.61462 0.0581 0.15404 1.6296c0.02258 0.23882-0.10444 0.35714-0.29409 0.37506-0.13697 0.01295-0.20484-0.03025-0.28941-0.10021l-0.36605 0.43856c0.22296 0.18445 0.41574 0.23709 0.70725 0.20954 0.47062-0.04449 0.91436-0.37346 0.85825-0.967zm2.2275-0.03148-0.01304-0.23953c-0.02839-0.52134-0.35281-0.89937-0.90233-0.86944-0.49668 0.02705-0.82994 0.39496-0.79618 1.0149 0.0445 0.81723 0.53534 0.94242 0.95452 0.9196 0.35226-0.01918 0.53672-0.13522 0.71991-0.33951l-0.36401-0.32641c-0.09659 0.10772-0.18159 0.16887-0.38237 0.17981-0.21488 0.0117-0.34232-0.12268-0.35076-0.27767zm-0.59156-0.35288-0.56361 0.03069c-0.0025-0.04579 0.0019-0.09549 0.02365-0.14967 0.03101-0.07941 0.10466-0.15408 0.24204-0.16157 0.13738-0.0075 0.21871 0.05875 0.25816 0.13433 0.02754 0.0515 0.03727 0.10043 0.03976 0.14622zm2.721 1.0534-0.05232-1.8972-0.57833 0.01595 0.03132 1.1355c6e-3 0.21864-0.14797 0.26524-0.22555 0.26737-0.07758 0.0021-0.23391-0.0359-0.23994-0.25454l-0.03131-1.1355-0.57833 0.01595 0.03345 1.2131c0.0055 0.20101 0.03872 0.38008 0.2054 0.53782 0.10509 0.09945 0.25132 0.15541 0.43117 0.15045 0.15164-0.0042 0.32278-0.0689 0.43594-0.18848l0.0043 0.15516zm2.9635-0.02589-0.0095-2.5118-0.57855 0.0022-0.53446 0.46768 0.0023 0.61736 0.53446-0.46768 0.0071 1.8944zm2.4974-1.7193c0.0019-0.53269-0.38166-0.80922-0.83322-0.81081-0.45155-0.0016-0.83705 0.2722-0.83894 0.80489-0.0018 0.49741 0.36067 0.75975 0.66759 0.76084 0.0388 1.38e-4 0.09172 3.25e-4 0.14117-0.01714l-0.5009 0.98248 0.635 0.0022 0.50815-1.0389c0.14213-0.28878 0.22037-0.46489 0.22114-0.68361zm-0.57855-2e-3c-6.62e-4 0.18697-0.11743 0.28534-0.25854 0.28484-0.14111-4.99e-4 -0.25718-0.09969-0.25651-0.28666 6.62e-4 -0.18697 0.11743-0.28534 0.25854-0.28484 0.14111 5e-4 0.25718 0.09969 0.25651 0.28666zm3.8165 0.79628c0.0017-0.37041-0.04687-0.55408-0.20483-0.72766-0.11234-0.1205-0.30228-0.24484-0.60919-0.24623-0.30691-0.0014-0.49797 0.12121-0.6114 0.24064-0.15953 0.17214-0.20976 0.35535-0.21144 0.72577-0.0017 0.37394 0.04687 0.55408 0.20483 0.72766 0.11234 0.12046 0.30228 0.24479 0.60919 0.24619 0.30691 0.0014 0.49797-0.12121 0.6114-0.24064 0.15953-0.17214 0.20974-0.35183 0.21144-0.72577zm-0.57855-0.0026c-8.5e-4 0.18697-0.01204 0.32098-0.08646 0.39472-0.03544 0.03512-0.08491 0.05253-0.15546 0.05221-0.07055-3.21e-4 -0.11986-0.01818-0.15498-0.05362-0.07375-0.07442-0.08372-0.20852-0.08287-0.39549 8.51e-4 -0.18697 0.01204-0.32098 0.08646-0.39472 0.03544-0.03512 0.08491-0.05253 0.15546-0.05221 0.07055 3.21e-4 0.11986 0.01818 0.15498 0.05362 0.07375 0.07442 0.08372 0.20852 0.08287 0.39549zm2.4712 0.72835-0.39228-0.39096c-0.07395 0.07422-0.13738 0.11313-0.23263 0.1133-0.07761 1.38e-4 -0.13057-0.02446-0.18005-0.07376-0.06715-0.07044-0.0956-0.19386-0.09591-0.37377-3.2e-4 -0.17992 0.02768-0.30344 0.09458-0.37411 0.0493-0.04948 0.10217-0.07427 0.17978-0.0744 0.09525-1.7e-4 0.15882 0.03852 0.23303 0.11247l0.39088-0.39228c-0.1555-0.15495-0.36027-0.24278-0.62485-0.24231-0.32808 5.84e-4 -0.85347 0.14263-0.85199 0.97166 0.0015 0.82902 0.52736 0.9692 0.85545 0.96862 0.26458-4.71e-4 0.46904-0.08903 0.62398-0.24453zm1.3365 0.2069-0.0061-0.48679-0.18343 0.0023c-0.0776 9.79e-4 -0.11694-0.04086-0.11788-0.11494l-0.0098-0.77605 0.29984-0.0038-0.0056-0.44446-0.29984 0.0038-0.0069-0.54323-0.57851 0.0073 0.0069 0.54323-0.17285 0.0022 0.0056 0.44446 0.17285-0.0022 0.01033 0.81838c0.0033 0.26103 0.1764 0.55873 0.59617 0.55344z" fill="#e62e6c" aria-label="Jeu 19 oct"/>
</g>
<path d="m27.195 21.701c7.6215-0.18305 23.19-0.47381 25.675 0.96136" fill="none" stop-color="#000000" style="-inkscape-stroke:none;font-variation-settings:normal"/>
<path d="m52.85 17.129-0.0156 27.912c0.26542-0.52572 0.9874-1.2265 1.3238-1.5085l1.0971 0.91387-0.23317-28.225c-0.7327 0.19406-1.4712 0.31532-2.1721 0.90818z" fill="#e62e6c" fill-rule="evenodd" stop-color="#000000" stroke="#8c113a" stroke-linecap="round" stroke-linejoin="round" stroke-width=".3" style="-inkscape-stroke:none;font-variation-settings:normal"/>
<path d="m27.17 33.006c9.1425-0.14416 25.02 0.28494 25.68 0.74096" fill="none" stop-color="#000000" style="-inkscape-stroke:none;font-variation-settings:normal"/>
<path d="m29.051 21.658-0.01258-0.55019-1.0545 0.02412-0.04485-1.9609-0.6172 0.01411 0.05743 2.5111zm2.1302-0.04266-0.03716-1.8976-0.57844 0.01133 0.02224 1.1357c0.0043 0.21868-0.15008 0.26404-0.22768 0.26556-0.0776 0.0015-0.23362-0.03777-0.2379-0.25645l-0.02224-1.1357-0.57844 0.01133 0.02376 1.2133c0.0039 0.20104 0.03568 0.38037 0.2011 0.53944 0.10429 0.10028 0.25007 0.15741 0.42996 0.15389 0.15166-3e-3 0.32332-0.06632 0.43743-0.18499l3e-3 0.15519zm2.1862-0.03485-0.0186-1.2134c-0.0031-0.20106-0.03406-0.38052-0.1988-0.54029-0.10386-0.10072-0.2494-0.15847-0.4293-0.15572-0.15168 0.0023-0.3236 0.06494-0.43822 0.18313l-0.0024-0.1552-0.56438 0.0087 0.02909 1.8977 0.57849-0.0089-0.01741-1.1358c-0.0034-0.2187 0.1512-0.2634 0.2288-0.26459 0.0776-0.0012 0.23345 0.03876 0.23681 0.25746l0.01741 1.1358zm2.9504-0.02876-0.01805-2.5117-0.57854 0.0042-0.53286 0.46951 0.0044 0.61734 0.53286-0.46951 0.01362 1.8944zm2.4686-0.79256c-3.39e-4 -0.49741-0.36388-0.75822-0.67079-0.75801-0.0388 2.6e-5 -0.09172 6.2e-5 -0.1411 0.01774l0.49674-0.98459-0.635 4.33e-4 -0.50376 1.0375c-0.16558 0.33525-0.21838 0.50462-0.21825 0.68806 3.63e-4 0.53269 0.38508 0.8076 0.83663 0.80729 0.45156-3.08e-4 0.83589-0.27574 0.83553-0.80843zm-0.57855 3.95e-4c1.28e-4 0.18697-0.11622 0.28583-0.25733 0.28592-0.14111 9.7e-5 -0.2576-0.0986-0.25772-0.28557-1.28e-4 -0.18697 0.11622-0.28583 0.25733-0.28592s0.25759 0.0986 0.25772 0.28557zm3.8526-0.13367c0.0047-0.37039-0.04239-0.55444-0.19894-0.72929-0.11136-0.12136-0.30029-0.24723-0.60718-0.2511-0.30689-0.0039-0.49894 0.11718-0.61333 0.23569-0.16092 0.17084-0.21262 0.35365-0.2173 0.72403-0.0047 0.37391 0.04239 0.55444 0.19895 0.72929 0.11136 0.12136 0.30029 0.24723 0.60718 0.2511 0.30689 0.0039 0.49894-0.11718 0.61333-0.23569 0.16092-0.17084 0.21258-0.35012 0.2173-0.72403zm-0.57851-0.0073c-0.0024 0.18696-0.01464 0.32087-0.08965 0.39401-0.03572 0.03483-0.08533 0.05184-0.15588 0.05095-0.07055-8.91e-4 -0.11971-0.01915-0.15454-0.05487-0.07314-0.07501-0.08203-0.20919-0.07967-0.39615 0.0024-0.18696 0.01464-0.32087 0.08965-0.39401 0.03572-0.03483 0.08533-0.05184 0.15588-0.05095 0.07055 8.91e-4 0.11971 0.01915 0.15454 0.05487 0.07314 0.07501 0.08203 0.20919 0.07967 0.39615zm2.464 0.77601-0.38232-0.40063c-0.07579 0.07233-0.14018 0.10964-0.23541 0.10742-0.07759-0.0018-0.12992-0.02774-0.17814-0.07827-0.06536-0.0721-0.09069-0.1962-0.08648-0.37607 0.0042-0.17987 0.0353-0.30265 0.10396-0.37162 0.05053-0.04822 0.10401-0.07167 0.1816-0.06986 0.09522 0.0022 0.1578 0.0425 0.23013 0.1183l0.40062-0.38232c-0.15155-0.15881-0.35405-0.25176-0.61856-0.25794-0.32799-0.0077-0.85678 0.12112-0.87616 0.94992-0.01937 0.8288 0.50282 0.98216 0.83082 0.98982 0.26451 0.0062 0.47113-0.0772 0.62993-0.22876zm1.3273 0.26779 0.01699-0.48654-0.18333-0.0064c-0.07756-0.0027-0.11487-0.04637-0.11228-0.12041l0.02708-0.77564 0.29968 0.01046 0.01551-0.44423-0.29968-0.01046 0.01896-0.54295-0.5782-0.02019-0.01896 0.54295-0.17276-6e-3 -0.01551 0.44423 0.17276 6e-3 -0.02856 0.81794c-0.0091 0.2609 0.14966 0.56648 0.56921 0.58113z" fill="#e62e6c" stroke-width="1px" aria-label="Lun 16 oct"/>
<path d="m29.755 32.978-0.02328-2.5117-0.60675 0.0056-0.55415 1.1129-0.57468-1.1024-0.60675 0.0056 0.02328 2.5117 0.61733-0.0057-0.011148-1.2029 0.36204 0.61756 0.39509-0.0037 0.35054-0.62416 0.01115 1.2029zm2.0973-3.97e-4 -3.5e-4 -1.2312c-1.31e-4 -0.46214-0.293-0.68783-0.83628-0.68768-0.32103 9.1e-5 -0.49387 0.06717-0.68784 0.26125l0.35994 0.35973c0.0917-0.09175 0.1693-0.1341 0.29982-0.13414 0.20108-5.8e-5 0.28577 0.06342 0.28582 0.23628l1.4e-5 0.04939-0.37394 1.06e-4c-0.46214 1.31e-4 -0.65609 0.26477-0.65601 0.55052 5e-5 0.17639 0.05654 0.33512 0.16593 0.44445 0.10586 0.1058 0.26463 0.16926 0.45513 0.1692 0.20108-5.7e-5 0.3069-0.05653 0.42328-0.17298l4.4e-5 0.15522zm-0.57876-0.71244c2.8e-5 0.09878-0.01407 0.1517-0.05992 0.19404-0.05996 0.05293-0.11287 0.06706-0.20812 0.06709-0.14111 4e-5 -0.20816-0.06697-0.20818-0.15516-2.7e-5 -0.09525 0.06698-0.15524 0.20104-0.15528l0.27517-7.8e-5zm2.585-1.021c-0.12987-0.13118-0.25663-0.17768-0.4436-0.17863-0.19755-9.97e-4 -0.36382 0.08989-0.44891 0.17413l7.83e-4 -0.15522-0.56444-0.0028-0.0096 1.8979 0.57855 0.0029 0.0057-1.1359c0.0011-0.21519 0.15654-0.26027 0.23415-0.25988 0.09878 4.98e-4 0.15148 0.0431 0.20764 0.09983zm2.7357 1.7717 0.03111-2.5116-0.57851-0.0072-0.54195 0.45899-0.0076 0.61731 0.54195-0.45899-0.02346 1.8943zm2.5402-1.9497 0.0088-0.52204-1.7213-0.02908-0.01549 0.91709 0.55025 0.0093 0.0067-0.39505 0.53614 0.0091-0.81666 1.9762 0.63491 0.01073zm3.212 1.1125c0.0089-0.37031-0.03605-0.55489-0.19059-0.73152-0.10997-0.12263-0.29744-0.25065-0.60427-0.25803-0.30683-0.0074-0.50024 0.11147-0.61598 0.22866-0.16286 0.16899-0.21665 0.35119-0.22557 0.7215-9e-3 0.37384 0.03605 0.55489 0.19059 0.73152 0.10997 0.12263 0.29744 0.25065 0.60427 0.25803 0.30683 0.0074 0.50024-0.11147 0.61598-0.22866 0.16286-0.16899 0.21657-0.34767 0.22557-0.7215zm-0.57839-0.01392c-0.0045 0.18692-0.0183 0.32068-0.09415 0.39296-0.03612 0.03442-0.08591 0.05086-0.15645 0.04917-0.07053-0.0017-0.11948-0.02052-0.1539-0.05664-0.07228-0.07585-0.07963-0.21012-0.07513-0.39703 0.0045-0.18692 0.01831-0.32068 0.09415-0.39296 0.03612-0.03442 0.08592-0.05086 0.15645-0.04917 0.07053 0.0017 0.11948 0.02052 0.1539 0.05664 0.07228 0.07585 0.07963 0.21012 0.07513 0.39703zm2.4586 0.79431-0.38012-0.40272c-0.07619 0.07191-0.14078 0.10887-0.23599 0.10612-0.07758-0.0022-0.12976-0.02845-0.1777-0.07924-0.06496-0.07246-0.08961-0.19669-0.08442-0.37654 0.0052-0.17984 0.03697-0.30245 0.106-0.37104 0.05079-0.04794 0.1044-0.0711 0.18198-0.06886 0.09521 0.0027 0.15756 0.04337 0.22948 0.11956l0.40272-0.38012c-0.15068-0.15964-0.35266-0.2537-0.61713-0.26134-0.32795-0.0095-0.85744 0.11642-0.88136 0.9451-0.02392 0.82868 0.49743 0.9849 0.82537 0.99437 0.26447 0.0076 0.47154-0.07462 0.63118-0.2253zm1.3228 0.26638 0.01631-0.48656-0.18334-0.0061c-0.07757-0.0026-0.11493-0.04621-0.11245-0.12025l0.026-0.77567 0.29969 0.01005 0.01489-0.44425-0.29969-0.01004 0.0182-0.54297-0.57823-0.01938-0.0182 0.54297-0.17276-0.0058-0.01489 0.44425 0.17276 0.0058-0.02742 0.81798c-0.0087 0.26091 0.15045 0.56627 0.57002 0.58034z" fill="#e62e6c" stroke-width="1px" aria-label="Mar 17 oct"/>
</g>
</svg>
