<?xml version="1.0" encoding="UTF-8"?>
<svg width="63.295mm" height="30.581mm" version="1.1" viewBox="0 0 63.295 30.581" xmlns="http://www.w3.org/2000/svg">
<g transform="translate(-21.045 -14.878)">
<g fill="#fff" fill-rule="evenodd" stroke-width=".3">
<path d="m54.785 17.297h29.404v25.094h-29.404z" stop-color="#000000"/>
<path d="m21.195 18.287h31.641v24.604h-31.641z" stop-color="#000000"/>
<path d="m22.195 17.287h31.641v24.604h-31.641z" stop-color="#000000"/>
<path d="m54.785 16.297h28.404v25.094h-28.404z" stop-color="#000000"/>
</g>
<g fill="none" stroke="#b3b3b3" stroke-linecap="round" stroke-linejoin="round" stroke-width=".3">
<path d="m51.8 42.891h-30.606v-24.635" stop-color="#000000" style="-inkscape-stroke:none;font-variation-settings:normal"/>
<path d="m84.189 17.256v25.135h-28.122" stop-color="#000000" style="-inkscape-stroke:none;font-variation-settings:normal"/>
<path d="m51.854 41.891h-29.659v-24.635" stop-color="#000000" style="-inkscape-stroke:none;font-variation-settings:normal"/>
<path d="m83.189 16.256v25.135h-27.034" stop-color="#000000" style="-inkscape-stroke:none;font-variation-settings:normal"/>
</g>
<path d="m23.195 16.256c2.5217 0 26.516-0.93945 29.655 0.87264 2.7945-2.7945 24.433-0.73325 29.329-2.0554l0.2093 23.742c-5.8471 3.3758-22.097-0.0411-29.539 2.8514-0.76745-0.52999-22.087-1.0236-29.503-0.62327z" fill="#fff" fill-rule="evenodd" stop-color="#000000" stroke="#4d4d4d" stroke-width=".3" style="-inkscape-stroke:none;font-variation-settings:normal"/>
<g fill="none">
<path d="m58.867 21.477c7.2496-0.86322 19.461 0.19028 23.312-0.84977" stop-color="#000000" style="-inkscape-stroke:none;font-variation-settings:normal"/>
<path d="m58.873 26.476c7.2514-0.86196 19.456 0.1907 23.306-0.84907" stop-color="#000000" style="-inkscape-stroke:none;font-variation-settings:normal"/>
<path d="m58.828 32.814c8.2051-1.0705 18.61 0.93963 23.56-1.9181" stop-color="#000000" style="-inkscape-stroke:none;font-variation-settings:normal"/>
<path d="m58.883 37.807c8.2054-1.0546 18.567 0.94037 23.505-1.9111" stop-color="#000000" style="-inkscape-stroke:none;font-variation-settings:normal"/>
<path d="m27.17 38.006c9.1425-0.14416 25.02 0.28494 25.68 0.74096" stop-color="#000000" style="-inkscape-stroke:none;font-variation-settings:normal"/>
<path d="m27.195 26.701c7.6215-0.18305 23.19-0.47381 25.675 0.96136" stop-color="#000000" style="-inkscape-stroke:none;font-variation-settings:normal"/>
</g>
<path d="m52.85 17.469v24.131" fill="#fff" fill-rule="evenodd" stop-color="#000000" stroke="#4d4d4d" stroke-width=".3" style="-inkscape-stroke:none;font-variation-settings:normal"/>
<g fill="#333" stroke-width="1px">
<path d="m31.959 23.859 0.03911 2.3189 0.42782-0.0072q0.15294-0.0026 0.21802 0.05628 0.06711 0.05675 0.06871 0.15182 0.0016 0.09301-0.06356 0.15406-0.06309 0.05895-0.21603 0.06153l-1.2793 0.02157q-0.15294 0.0026-0.22005-0.05418-0.06508-0.05886-0.06668-0.15393-0.0016-0.093 0.06152-0.15195 0.06513-0.06105 0.21807-0.06363l0.42782-0.0072-0.0298-1.7671-0.37654 0.10558q-0.09052 0.02633-0.13599 0.0271-0.0806 0.0014-0.14162-0.0617-0.05895-0.06309-0.06052-0.1561-0.0014-0.08474 0.04117-0.133 0.04257-0.05033 0.18041-0.08987zm3.2319 0.02608 0.01748 1.6577q0.13435-0.0014 0.19906 0.05785 0.06469 0.0572 0.06567 0.15021 9.81e-4 0.09301-0.06453 0.15365-0.06344 0.06062-0.19573 0.06201l0.0018 0.16949q0.13435-0.0014 0.19906 0.05785 0.06471 0.05927 0.06569 0.15228 9.81e-4 0.09301-0.06453 0.15365-0.06346 0.05855-0.21642 0.06016l-0.56841 6e-3q-0.15295 0.0016-0.21971-0.05557-0.06471-0.05927-0.06571-0.15434-9.81e-4 -0.09301 0.06248-0.15156 0.06551-0.06064 0.21846-0.06225l0.16536-0.0017-0.0018-0.16949-1.1513 0.01214-0.0037-0.35345 0.99665-1.7387zm-0.40625 1.6622-0.01098-1.0417-0.6029 1.0482zm2.937-0.59444q2.98e-4 0.11989-0.08425 0.20072-0.08455 0.08083-0.23338 0.0812-0.14883 3.7e-4 -0.23378-0.08003t-0.08525-0.20029q-2.99e-4 -0.11989 0.08425-0.20072 0.08455-0.08083 0.23338-0.0812 0.14883-3.7e-4 0.23378 0.08003t0.08525 0.20029zm0.0076 1.387q2.99e-4 0.11989-0.08425 0.20072-0.08455 0.08083-0.23338 0.0812-0.14883 3.71e-4 -0.23378-0.08003-0.08495-0.0804-0.08525-0.20029-2.99e-4 -0.11989 0.08425-0.20072 0.08455-0.08083 0.23338-0.0812 0.14883-3.71e-4 0.23378 0.08003 0.08495 0.0804 0.08525 0.20029zm3.1015-1.1968q0.18707 0.12966 0.27872 0.2999 0.09167 0.16817 0.08999 0.37694-0.0018 0.2253-0.12738 0.41654-0.12348 0.18918-0.35785 0.28652-0.23435 0.09527-0.61261 0.09223-0.49194-4e-3 -0.73875-0.1589-0.13779-0.08793-0.13683-0.20781 7.31e-4 -0.09095 0.06117-0.15248 0.06253-0.06358 0.14934-0.06288 0.05994 4.82e-4 0.12369 0.04234 0.09045 0.06274 0.1709 0.08406 0.12379 0.02993 0.34082 0.03168 0.36999 3e-3 0.53611-0.09078 0.16614-0.09582 0.16755-0.27151 1e-3 -0.13022-0.09514-0.25089-0.0941-0.12272-0.2548-0.19016-0.09272-0.03795-0.31377-0.0542-0.10537-7e-3 -0.16278-0.06539-0.05533-0.06039-0.05463-0.1472 7.3e-4 -0.09095 0.06324-0.15246 0.06251-0.06151 0.15759-0.06075 0.21083 0.0017 0.22532-2.57e-4 0.08275-0.0076 0.16579-0.05241 0.08304-0.04481 0.13328-0.12296 0.05232-0.0802 0.053-0.16494 0.0011-0.13435-0.11802-0.23247-0.11702-0.10016-0.35472-0.10207-0.30591-0.0025-0.46857 0.17401-0.04796 0.05129-0.07701 0.06553-0.04359 0.02239-0.09733 0.02196-0.08681-6.97e-4 -0.14832-0.0632-0.06151-0.06251-0.06078-0.15346 0.0011-0.14262 0.19239-0.27545 0.27856-0.19414 0.69402-0.1908 0.39273 0.0032 0.62864 0.2283 0.23591 0.22514 0.23339 0.53933-0.0013 0.16329-0.07274 0.30535-0.07141 0.13999-0.21293 0.25875zm1.8015 1.0196 0.92787 0.02096q0.07786-0.06027 0.14606-0.05873 0.09713 0.0022 0.15148 0.06752 0.05642 0.06537 0.05291 0.22036l-0.0046 0.20252-1.9301-0.04361 0.01013-0.44844q1.1662-0.91854 1.41-1.1839 0.12299-0.13575 0.12579-0.25974 0.0035-0.15499-0.13023-0.27586-0.1316-0.12289-0.35685-0.12798-0.22732-0.0051-0.38116 0.12371-0.08012 0.06849-0.13077 0.20587-0.03089 0.08614-0.0834 0.12217-0.05044 0.03608-0.12483 0.0344-0.08679-2e-3 -0.14946-0.0654-0.0606-0.0634-0.05873-0.14606 0.0028-0.12399 0.12066-0.30741 0.11993-0.18337 0.3415-0.29002 0.22364-0.1066 0.48196-0.10076 0.40091 0.0091 0.65165 0.2587 0.25079 0.24757 0.24299 0.59268-4e-3 0.17566-0.08177 0.32483-0.07569 0.14716-0.36065 0.40537-0.22377 0.20377-0.87038 0.7288z" aria-label=" 14:32"/>
<path d="m31.985 35.235-0.0039 2.3192 0.42788 7.19e-4q0.15296 2.57e-4 0.21694 0.06031 0.06605 0.05799 0.06589 0.15307-1.56e-4 0.09302-0.0664 0.15285-0.06418 0.05777-0.21714 0.05751l-1.2795-0.0022q-0.15296-2.57e-4 -0.21901-0.05825-0.06398-0.06005-0.06382-0.15514 1.57e-4 -0.09302 0.06433-0.15079 0.06625-0.05983 0.21921-0.05958l0.42788 7.19e-4 3e-3 -1.7673-0.37844 0.09858q-0.09099 0.02465-0.13647 0.02457-0.08061-1.35e-4 -0.14045-0.06432-0.05777-0.06418-0.05761-0.15719 1.42e-4 -0.08475 0.04363-0.13222 0.04349-0.04954 0.18205-0.08651zm3.2357 0.08869-0.01466 1.6577q0.13435 0.0012 0.1979 0.0617 0.06356 0.05844 0.06274 0.15146-8.22e-4 0.09301-0.0675 0.15237-0.06461 0.05938-0.19689 0.05821l-0.0015 0.16949q0.13435 0.0012 0.1979 0.0617 0.06355 0.06051 0.06272 0.15352-8.23e-4 0.09301-0.0675 0.15237-0.064572 0.057298-0.21753 0.055945l-0.56842-5e-3q-0.15296-0.0014-0.21859-0.05981-0.06355-0.06051-0.0627-0.15559 8.23e-4 -0.09301 0.06541-0.15032 0.06667-0.05936 0.21963-0.05801l0.16536 0.0015 0.0015-0.16949-1.1513-0.01018 0.0031-0.35345 1.0302-1.719zm-0.43839 1.654 0.0092-1.0418-0.6231 1.0363zm2.9458-0.53975q-0.0018 0.11988-0.08776 0.1992-0.08595 0.07933-0.23476 0.07709-0.14881-0.0022-0.23234-0.08413-0.08353-0.08188-0.08172-0.20176 0.0018-0.11988 0.08776-0.1992 0.08595-0.07933 0.23476-0.07709 0.14881 0.0022 0.23234 0.08413 0.08353 0.08188 0.08172 0.20176zm-0.01676 1.3869q-0.0018 0.11988-0.08776 0.1992-0.08595 0.07933-0.23476 0.07709-0.14881-0.0022-0.23234-0.08412-0.08353-0.08188-0.08172-0.20176 0.0018-0.11988 0.08776-0.1992 0.08595-0.07933 0.23476-0.07709 0.14881 0.0022 0.23234 0.08413 0.08353 0.08188 0.08172 0.20176zm3.1177-1.1503q0.18536 0.1321 0.27478 0.30352 0.08946 0.16936 0.08506 0.37808-0.0048 0.22526-0.13281 0.41484-0.12594 0.18755-0.36156 0.28182-0.23558 0.0922-0.61376 0.08422-0.49185-0.01038-0.73661-0.16855-0.13663-0.08972-0.1341-0.20958 0.0019-0.09093 0.06316-0.15166 0.06335-0.06275 0.15015-0.06092 0.05993 0.0013 0.12312 0.04395 0.08962 0.06392 0.16978 0.08628 0.12338 0.03155 0.34038 0.03613 0.36992 0.0078 0.53726-0.08376 0.16738-0.09364 0.17109-0.2693 0.0027-0.1302-0.09185-0.25211-0.09249-0.12394-0.25229-0.19347-0.09221-0.03916-0.31303-0.0583-0.10526-0.0084-0.16191-0.06751-0.05453-0.06111-0.0527-0.14791 0.0019-0.09093 0.06523-0.15162 0.06331-0.06069 0.15837-0.05868 0.21079 0.0045 0.2253 0.0027 0.08284-0.0065 0.16646-0.05024 0.08362-0.04372 0.13488-0.1212 0.05337-0.07951 0.05515-0.16424 0.0028-0.13433-0.11498-0.23399-0.1157-0.10168-0.35336-0.1067-0.30586-0.0065-0.4708 0.16787-0.04862 0.05066-0.07786 0.06452-0.04388 0.02182-0.09761 0.02068-0.0868-0.0018-0.14749-0.06514-0.06069-0.06331-0.05877-0.15424 3e-3 -0.1426 0.19597-0.27291 0.28107-0.19048 0.69645-0.18171 0.39265 0.0083 0.6256 0.2365 0.23295 0.22821 0.22632 0.54233-0.0034 0.16326-0.07672 0.30437-0.07323 0.13904-0.21629 0.25594zm1.7834 1.0364 0.92775 0.02573q0.07817-0.05987 0.14636-0.05798 0.09712 0.0027 0.15113 0.06829 0.05608 0.06566 0.05178 0.22063l-0.0056 0.20249-1.9299-0.05352 0.01243-0.44838q1.1709-0.91254 1.416-1.1766 0.12368-0.13512 0.12712-0.25909 0.0043-0.15497-0.12881-0.27653-0.13098-0.12357-0.35621-0.12981-0.22729-0.0063-0.38179 0.12176-0.08047 0.06808-0.13183 0.2052-0.03133 0.08598-0.08402 0.12174-0.05062 0.03582-0.12501 0.03375-0.08678-0.0024-0.14912-0.06617-0.06027-0.06371-0.05798-0.14636 0.0034-0.12398 0.12224-0.30679 0.12087-0.18276 0.34299-0.28826 0.22418-0.10545 0.48247-0.09828 0.40086 0.01112 0.65031 0.26204 0.24951 0.24886 0.23994 0.59392-0.0049 0.17563-0.08344 0.32441-0.07644 0.14677-0.36272 0.40351-0.22482 0.20262-0.87412 0.72433z" aria-label=" 14:32"/>
<path d="m63.591 23.416 0.07583 2.318 0.42765-0.01399q0.15288-5e-3 0.21888 0.05282 0.068 0.05568 0.07111 0.15072 3e-3 0.09297-0.06111 0.15504-0.06215 0.05994-0.21503 0.06494l-1.2788 0.04183q-0.15288 5e-3 -0.22088-0.05068-0.066-0.05782-0.06911-0.15285-3e-3 -0.09297 0.05911-0.15291 0.06415-0.06208 0.21703-0.06708l0.42765-0.01399-0.05778-1.7664-0.37482 0.11153q-0.09009 0.02776-0.13554 0.02925-0.08057 0.0026-0.14258-0.05945-0.05994-0.06215-0.06298-0.15512-0.0028-0.0847 0.03906-0.13364 0.04176-0.051 0.17896-0.09272zm3.2727 0.01402 0.01525 1.6577q0.13435-0.0012 0.19898 0.05812 0.06461 0.05729 0.06546 0.1503 8.56e-4 0.09301-0.06473 0.15356-0.06353 0.06053-0.19581 0.06175l0.0016 0.16949q0.13435-0.0012 0.19898 0.05812 0.06463 0.05935 0.06548 0.15237 8.56e-4 0.09301-0.06474 0.15356-0.06354 0.05846-0.2165 0.05987l-0.56842 0.0052q-0.15296 0.0014-0.21963-0.05586-0.06463-0.05935-0.0655-0.15443-8.56e-4 -0.09301 0.06269-0.15148 0.06559-0.06055 0.21855-0.06196l0.16536-0.0015-0.0016-0.16949-1.1513 0.01059-0.0033-0.35345 0.99898-1.7373zm-0.40847 1.6616-0.0096-1.0418-0.6043 1.0474zm2.9445-0.57983q-3.33e-4 0.11989-0.0853 0.20027-0.08497 0.08038-0.2338 0.07997-0.14883-4.13e-4 -0.23335-0.08126-0.08452-0.08085-0.08419-0.20074 3.33e-4 -0.11989 0.08531-0.20027 0.08497-0.08038 0.2338-0.07997 0.14883 4.13e-4 0.23335 0.08126 0.08452 0.08085 0.08419 0.20074zm2.88e-4 1.387q-3.33e-4 0.11989-0.0853 0.20027-0.08497 0.08038-0.2338 0.07997-0.14883-4.13e-4 -0.23335-0.08126-0.08453-0.08085-0.08419-0.20074 3.32e-4 -0.11989 0.0853-0.20027 0.08497-0.08038 0.2338-0.07997 0.14883 4.12e-4 0.23335 0.08126 0.08452 0.08085 0.08419 0.20074zm3.0929-1.1924q0.18742 0.12916 0.27953 0.29915 0.09213 0.16792 0.09101 0.37669-0.0012 0.22531-0.12625 0.41688-0.12297 0.18952-0.35707 0.28749-0.23409 0.09591-0.61236 0.09389-0.49195-0.0026-0.73918-0.1569-0.13803-0.08755-0.13739-0.20744 4.84e-4 -0.09095 0.06076-0.15264 0.06235-0.06375 0.14917-0.06329 0.05994 3.19e-4 0.1238 0.042 0.09062 0.0625 0.17112 0.0836 0.12387 0.0296 0.34091 0.03075 0.37 2e-3 0.53587-0.09223 0.16588-0.09627 0.16682-0.27197 6.94e-4 -0.13022-0.09582-0.25063-0.09443-0.12246-0.25531-0.18946-0.09282-0.0377-0.31391-0.05335-0.10538-0.0068-0.16295-0.06495-0.05549-0.06024-0.05503-0.14706 4.85e-4 -0.09095 0.06283-0.15263 0.06234-0.06168 0.15742-0.06117 0.21084 0.0011 0.22532-8.67e-4 0.08272-0.0078 0.16565-0.05286 0.08292-0.04503 0.13295-0.12332 0.0521-0.08034 0.05256-0.16509 7.15e-4 -0.13436-0.11866-0.23214-0.11729-0.09984-0.355-0.10111-0.30592-0.0016-0.46809 0.17528-0.04782 0.05142-0.07683 0.06574-0.04353 0.02251-0.09727 0.02222-0.08682-4.62e-4 -0.1485-0.0628-0.06168-0.06234-0.0612-0.15329 7.6e-4 -0.14262 0.19164-0.27597 0.27803-0.19489 0.6935-0.19268 0.39274 0.0021 0.62925 0.2266 0.23652 0.2245 0.23484 0.53869-8.7e-4 0.1633-0.07191 0.30555-0.07103 0.14018-0.21222 0.25932zm1.8007 0.99776 0.9281-0.0026q0.07631-0.06223 0.14452-0.06242 0.09715-2.72e-4 0.15314 0.06365 0.05806 0.06392 0.05849 0.21894l5.69e-4 0.20257-1.9306 0.0054-0.0013-0.44855q1.1425-0.94786 1.3794-1.2193 0.1195-0.13883 0.11915-0.26285-4.36e-4 -0.15503-0.13719-0.27247-0.1347-0.11951-0.36-0.11888-0.22738 6.39e-4 -0.3779 0.13335-0.07835 0.0705-0.1255 0.20913-0.02869 0.0869-0.08027 0.12425-0.0495 0.03735-0.12392 0.03756-0.08682 2.44e-4 -0.15107-0.06159-0.06218-0.06184-0.06242-0.14452-3.48e-4 -0.12402 0.11282-0.31038 0.11523-0.18636 0.33402-0.2986 0.22086-0.11224 0.47924-0.11297 0.40101-0.0011 0.65801 0.24206 0.25699 0.24112 0.25796 0.58632 4.94e-4 0.1757-0.0735 0.3268-0.07193 0.14903-0.35024 0.4144-0.21852 0.20939-0.85159 0.75067z" aria-label=" 14:32"/>
</g>
<g stroke-width="1px">
<path d="m60.683 30.088-0.6388 0.06457-0.27298 1.4388-0.56238-1.3544-0.63529 0.06421 1.0774 2.4157 0.45628-0.04612zm2.042 1.6525-0.01229-0.23957c-0.02674-0.52142-0.34997-0.90048-0.89958-0.87229-0.49676 0.02548-0.83119 0.39234-0.79938 1.0124 0.04192 0.81737 0.53236 0.94411 0.95162 0.9226 0.35231-0.01807 0.53714-0.13352 0.72098-0.33723l-0.36298-0.32756c-0.09693 0.10741-0.18212 0.1683-0.38294 0.1786-0.21491 0.01102-0.34193-0.12376-0.34988-0.27878zm-0.59044-0.35475-0.5637 0.02891c-0.0023-0.0458 0.0022-0.09549 0.02412-0.1496 0.03126-0.07932 0.10515-0.15375 0.24255-0.1608 0.1374-7e-3 0.21853 0.05944 0.25773 0.13514 0.02737 0.05158 0.03695 0.10054 0.0393 0.14635zm2.737 1.0761-0.02067-1.2134c-0.0034-0.20105-0.03471-0.38046-0.19973-0.53995-0.10404-0.10055-0.24968-0.15805-0.42957-0.15498-0.15167 0.0026-0.32349 0.06549-0.4379 0.18388l-0.0026-0.1552-0.56436 0.0096 0.03233 1.8977 0.57847-0.0099-0.01935-1.1358c-0.0037-0.21869 0.15075-0.26366 0.22835-0.26498 0.0776-0.0013 0.23352 0.03836 0.23725 0.25705l0.01935 1.1358zm3.3174 0.02117 0.0055-0.52208-0.91011-0.0095 0.60635-0.62867c0.20329-0.20955 0.31413-0.3495 0.3169-0.61407 5e-3 -0.4727-0.33069-0.76198-0.79633-0.76686-0.43742-0.0046-0.81419 0.26311-0.81937 0.75697l0.57852 0.0061c2e-3 -0.19402 0.12954-0.24207 0.23537-0.24096 0.14816 0.0016 0.22477 0.09761 0.22332 0.23519-0.0011 0.10583-0.03705 0.16895-0.1298 0.26676l-0.92048 0.97818-0.0055 0.52208zm2.1667-0.30057 0.0073-0.55028-0.18696-0.0025 0.0044-0.33158-0.55028-0.0073-0.0044 0.33158-0.40566-0.0054 0.8542-1.6186-0.63494-0.0085-0.8542 1.6186-0.0073 0.55028 1.0406 0.01387-0.0044 0.33158 0.55028 0.0073 0.0044-0.33158zm3.2393 0.33491-0.0088-1.2135c-0.0015-0.20108-0.03097-0.38078-0.19442-0.54189-0.10304-0.10156-0.24811-0.16049-0.42802-0.15919-0.15169 0.0011-0.32411 0.06231-0.43969 0.17957l-0.0011-0.15522-0.56443 0.0041 0.0137 1.8979 0.57854-0.0042-0.0082-1.1359c-0.0016-0.21872 0.15333-0.26217 0.23094-0.26273 0.07761-5.6e-4 0.23313 0.04065 0.23471 0.25937l0.0082 1.1359zm2.0816-1.0217c-0.01506-0.37011-0.07186-0.55139-0.23751-0.71766-0.11767-0.11526-0.31303-0.23089-0.6197-0.21841-0.30666 0.01248-0.49198 0.14359-0.5999 0.26802-0.15159 0.17917-0.19348 0.36447-0.17842 0.73458 0.0152 0.37364 0.07186 0.5514 0.23751 0.71766 0.11767 0.11526 0.31303 0.23088 0.6197 0.2184 0.30666-0.01248 0.49198-0.14359 0.5999-0.26802 0.15159-0.17917 0.19362-0.36095 0.17842-0.73458zm-0.57808 0.02352c0.0076 0.18682 0.0025 0.32119-0.06854 0.39823-0.03381 0.03668-0.08244 0.05631-0.15294 0.05918-0.0705 0.0029-0.12056-0.01275-0.15724-0.04656-0.07703-0.07101-0.09306-0.20452-0.10066-0.39134-0.0076-0.18682-0.0025-0.32119 0.06853-0.39822 0.03381-0.03668 0.08245-0.05632 0.15294-0.05918 0.0705-0.0029 0.12056 0.01275 0.15724 0.04656 0.07703 0.07101 0.09306 0.20452 0.10066 0.39134zm2.5178-1.1467-0.60407 0.05727-0.21616 1.0092-0.40547-0.95022-0.60407 0.05727 0.87451 1.8235 0.439-0.04162z" fill="#e62e6c" aria-label="Ven 24 nov"/>
<path d="m63.62 34.74 0.05845 2.3185 0.42774-0.01078q0.15291-0.0039 0.21848 0.05446 0.06758 0.05619 0.06998 0.15125 0.0023 0.09299-0.06227 0.15458-0.0626 0.05947-0.21551 0.06333l-1.2791 0.03225q-0.15291 0.0039-0.2205-0.05234-0.06557-0.05831-0.06797-0.15336-0.0023-0.09299 0.06026-0.15246 0.06461-0.06159 0.21753-0.06545l0.42774-0.01078-0.04454-1.7668-0.37565 0.10872q-0.0903 0.02709-0.13576 0.02824-0.08059 2e-3 -0.14213-0.06052-0.05947-0.0626-0.06182-0.15559-0.0021-0.08472 0.04006-0.13334 0.04214-0.05069 0.17966-0.09137zm3.2912 0.05327-0.0072 1.6578q0.13436 5.81e-4 0.19818 0.0608 0.06383 0.05815 0.06343 0.15117-4.02e-4 0.09302-0.06681 0.15268-0.06434 0.05967-0.19663 0.05909l-7.32e-4 0.1695q0.13436 5.81e-4 0.19818 0.0608 0.06382 0.06022 0.06342 0.15324-4.02e-4 0.09302-0.06681 0.15267-0.06433 0.0576-0.21729 0.05694l-0.56844-0.0025q-0.15296-6.61e-4 -0.21886-0.05882-0.06382-0.06022-0.06341-0.1553 4.02e-4 -0.09302 0.06473-0.15062 0.06641-0.05966 0.21936-0.059l0.16536 7.14e-4 7.33e-4 -0.1695-1.1513-5e-3 0.0015-0.35346 1.0224-1.7237zm-0.43091 1.6559 0.0045-1.0418-0.61841 1.0391zm2.9457-0.54173q-0.0016 0.11988-0.08742 0.19935-0.08582 0.07948-0.23463 0.07749-0.14882-2e-3 -0.23248-0.08373-0.08366-0.08174-0.08206-0.20162 0.0016-0.11988 0.08742-0.19935 0.08582-0.07948 0.23464-0.07749 0.14881 2e-3 0.23248 0.08373 0.08366 0.08174 0.08206 0.20162zm-0.01441 1.3869q-0.0016 0.11988-0.08742 0.19935-0.08582 0.07947-0.23463 0.07748-0.14882-2e-3 -0.23248-0.08373-0.08366-0.08174-0.08206-0.20162t0.08742-0.19935q0.08582-0.07947 0.23463-0.07748 0.14882 2e-3 0.23248 0.08373 0.08366 0.08174 0.08206 0.20162zm3.0832-1.1846q0.18793 0.12841 0.28072 0.29803 0.09279 0.16756 0.09251 0.37633-3.02e-4 0.22531-0.12458 0.41738-0.12221 0.19001-0.35592 0.28891-0.23371 0.09684-0.61198 0.09633-0.49196-6.6e-4 -0.7398-0.15396-0.13838-0.087-0.13822-0.20689 1.22e-4 -0.09095 0.06015-0.15288 0.0621-0.064 0.14891-0.06388 0.05994 8e-5 0.12397 0.04151 0.09087 0.06213 0.17146 0.08291 0.12398 0.02911 0.34102 0.0294 0.37 4.96e-4 0.53549-0.09437 0.1655-0.09693 0.16573-0.27263 1.75e-4 -0.13022-0.09682-0.25024-0.09492-0.12208-0.25606-0.18845-0.09297-0.03733-0.31412-0.0521-0.10541-0.0063-0.16321-0.0643-0.05573-0.06002-0.05561-0.14684 1.22e-4 -0.09095 0.06222-0.15288 0.06209-0.06193 0.15718-0.0618 0.21084 2.82e-4 0.22531-0.0018 0.08269-0.0082 0.16544-0.05352 0.08274-0.04536 0.13246-0.12385 0.05179-0.08055 0.0519-0.1653 1.8e-4 -0.13436-0.11958-0.23167-0.11769-0.09938-0.3554-0.0997-0.30592-4.1e-4 -0.46739 0.17714-0.04761 0.05161-0.07657 0.06604-0.04344 0.02268-0.09718 0.02261-0.08682-1.17e-4 -0.14874-0.06221-0.06193-0.06209-0.06181-0.15304 1.91e-4 -0.14263 0.19054-0.27673 0.27725-0.196 0.69273-0.19544 0.39274 5.27e-4 0.63015 0.22409 0.23741 0.22356 0.23699 0.53775-2.19e-4 0.1633-0.07069 0.30583-0.07047 0.14046-0.21119 0.26017zm1.788 0.96638 0.92746-0.03474q0.07411-0.06483 0.14227-0.06738 0.09708-0.0036 0.15525 0.05831 0.06024 0.06187 0.06604 0.21679l0.0076 0.20243-1.9293 0.07226-0.01679-0.44824q1.109-0.98684 1.3364-1.2663 0.11462-0.14288 0.10998-0.26682-0.0058-0.15492-0.14654-0.26755-0.13875-0.11478-0.3639-0.10634-0.22722 0.0085-0.37306 0.14636-0.07586 0.07317-0.11819 0.21334-0.02567 0.08784-0.07592 0.12695-0.04818 0.03904-0.12254 0.04182-0.08676 0.0032-0.15311-0.05632-0.06429-0.05965-0.06738-0.14227-0.0046-0.12394 0.102-0.3141 0.10871-0.19024 0.32349-0.30998 0.21684-0.11982 0.47504-0.12949 0.40073-0.01501 0.66599 0.21914 0.26519 0.23208 0.27811 0.57704 0.0066 0.17558-0.06214 0.32915-0.06673 0.15143-0.33568 0.42627-0.21114 0.21683-0.82509 0.7797z" fill="#333" aria-label=" 14:32"/>
<path d="m60.377 20.459-0.15537-1.6437-0.61462 0.0581 0.15404 1.6296c0.02258 0.23882-0.10444 0.35714-0.29409 0.37506-0.13697 0.01295-0.20484-0.03025-0.28941-0.10021l-0.36605 0.43856c0.22296 0.18445 0.41574 0.23709 0.70725 0.20954 0.47062-0.04449 0.91436-0.37346 0.85825-0.967zm2.2275-0.03148-0.01304-0.23953c-0.02839-0.52134-0.35281-0.89937-0.90233-0.86944-0.49668 0.02705-0.82994 0.39496-0.79618 1.0149 0.0445 0.81723 0.53534 0.94242 0.95452 0.9196 0.35226-0.01918 0.53672-0.13522 0.71991-0.33951l-0.36401-0.32641c-0.09659 0.10772-0.18159 0.16887-0.38237 0.17981-0.21488 0.0117-0.34232-0.12268-0.35076-0.27767zm-0.59156-0.35288-0.56361 0.03069c-0.0025-0.04579 0.0019-0.09549 0.02365-0.14967 0.03101-0.07941 0.10466-0.15408 0.24204-0.16157 0.13738-0.0075 0.21871 0.05875 0.25816 0.13433 0.02754 0.0515 0.03727 0.10043 0.03976 0.14622zm2.721 1.0534-0.05232-1.8972-0.57833 0.01595 0.03132 1.1355c6e-3 0.21864-0.14797 0.26524-0.22555 0.26737-0.07758 0.0021-0.23391-0.0359-0.23994-0.25454l-0.03131-1.1355-0.57833 0.01595 0.03345 1.2131c0.0055 0.20101 0.03872 0.38008 0.2054 0.53782 0.10509 0.09945 0.25132 0.15541 0.43117 0.15045 0.15164-0.0042 0.32278-0.0689 0.43594-0.18848l0.0043 0.15516zm3.334-0.02728-2e-3 -0.52211-0.91016 0.0034 0.59732-0.63725c0.20028-0.21242 0.30911-0.35394 0.30812-0.61852-0.0018-0.47272-0.34152-0.75719-0.80718-0.75544-0.43744 0.0016-0.81036 0.27469-0.8085 0.76858l0.57855-0.0022c-7.31e-4 -0.19403 0.12608-0.24389 0.23191-0.24429 0.14817-5.58e-4 0.22614 0.0944 0.22665 0.23198 3.99e-4 0.10583-0.03464 0.16946-0.12599 0.26859l-0.90644 0.9912 2e-3 0.52211zm2.1165-0.74426c0.0011-0.29986-0.15009-0.45209-0.28734-0.54782 0.12729-0.08069 0.26182-0.21427 0.26279-0.48943 0.0015-0.43391-0.33956-0.74557-0.80522-0.74722-0.44802-0.0016-0.80887 0.28289-0.81054 0.7556l0.57855 2e-3c5.37e-4 -0.15169 0.1102-0.23597 0.23014-0.23555 0.11994 4.25e-4 0.22902 0.08195 0.22846 0.2407-4e-4 0.11289-0.06786 0.23612-0.24072 0.23551l-0.08114-2.88e-4 -0.0018 0.50094 0.08114 2.87e-4c0.15522 5.5e-4 0.26771 0.11384 0.26717 0.26553-6.37e-4 0.17992-0.10678 0.26773-0.25848 0.2672-0.14464-5.12e-4 -0.25721-0.0891-0.25659-0.26549l-0.57855-2e-3c-2e-3 0.56444 0.41702 0.78817 0.83329 0.78965 0.44097 0.0016 0.83695-0.24398 0.83881-0.76962zm3.2971 0.76971 0.0054-1.2135c8.91e-4 -0.20108-0.02653-0.38112-0.18809-0.54412-0.10188-0.10276-0.24625-0.16337-0.42616-0.16417-0.15169-6.72e-4 -0.32482 0.05853-0.44175 0.17443l6.88e-4 -0.15522-0.56444-0.0025-0.0084 1.8979 0.57855 0.0026 5e-3 -1.1359c9.68e-4 -0.21872 0.15638-0.26036 0.23399-0.26002s0.23264 0.04336 0.23168 0.26208l-5e-3 1.1359zm2.1178-0.95168c-0.0011-0.37041-0.05105-0.55371-0.21031-0.7261-0.11325-0.1196-0.30412-0.24251-0.61103-0.24159-0.30691 9.19e-4 -0.49704 0.12496-0.60957 0.24524-0.15823 0.17334-0.20707 0.35693-0.20596 0.72734 0.0011 0.37394 0.05105 0.55371 0.21031 0.7261 0.11325 0.1196 0.30412 0.24251 0.61103 0.24159s0.49704-0.12496 0.60957-0.24524c0.15823-0.17334 0.20708-0.3534 0.20596-0.72734zm-0.57855 0.0017c5.59e-4 0.18697-0.0096 0.32106-0.08348 0.39536-0.03517 0.03538-0.08451 0.05317-0.15506 0.05338-0.07056 2.11e-4 -0.12-0.01728-0.15538-0.05245-0.0743-0.07386-0.08529-0.20788-0.08585-0.39486s0.0096-0.32106 0.08348-0.39536c0.03517-0.03538 0.08451-0.05317 0.15506-0.05338 0.07055-2.11e-4 0.12 0.01728 0.15538 0.05245 0.0743 0.07386 0.08529 0.20788 0.08585 0.39486zm2.6298-0.98448-0.60667 0.01148-0.29176 0.98995-0.33254-0.97813-0.60667 0.01148 0.73429 1.8844 0.44089-0.0083z" fill="#e62e6c" aria-label="Jeu 23 nov"/>
</g>
<path d="m27.195 21.701c7.6215-0.18305 23.19-0.47381 25.675 0.96136" fill="none" stop-color="#000000" style="-inkscape-stroke:none;font-variation-settings:normal"/>
<path d="m52.85 17.129-0.0156 27.912c0.26542-0.52572 0.9874-1.2265 1.3238-1.5085l1.0971 0.91387-0.23317-28.225c-0.7327 0.19406-1.4712 0.31532-2.1721 0.90818z" fill="#e62e6c" fill-rule="evenodd" stop-color="#000000" stroke="#8c113a" stroke-linecap="round" stroke-linejoin="round" stroke-width=".3" style="-inkscape-stroke:none;font-variation-settings:normal"/>
<path d="m27.17 33.006c9.1425-0.14416 25.02 0.28494 25.68 0.74096" fill="none" stop-color="#000000" style="-inkscape-stroke:none;font-variation-settings:normal"/>
<path d="m29.051 21.658-0.01258-0.55019-1.0545 0.02412-0.04485-1.9609-0.6172 0.01411 0.05743 2.5111zm2.1302-0.04266-0.03716-1.8976-0.57844 0.01133 0.02224 1.1357c0.0043 0.21868-0.15008 0.26404-0.22768 0.26556-0.0776 0.0015-0.23362-0.03777-0.2379-0.25645l-0.02224-1.1357-0.57844 0.01133 0.02376 1.2133c0.0039 0.20104 0.03568 0.38037 0.2011 0.53944 0.10429 0.10028 0.25007 0.15741 0.42996 0.15389 0.15166-3e-3 0.32332-0.06632 0.43743-0.18499l3e-3 0.15519zm2.1862-0.03485-0.0186-1.2134c-0.0031-0.20106-0.03406-0.38052-0.1988-0.54029-0.10386-0.10072-0.2494-0.15847-0.4293-0.15572-0.15168 0.0023-0.3236 0.06494-0.43822 0.18313l-0.0024-0.1552-0.56438 0.0087 0.02909 1.8977 0.57849-0.0089-0.01741-1.1358c-0.0034-0.2187 0.1512-0.2634 0.2288-0.26459 0.0776-0.0012 0.23345 0.03876 0.23681 0.25746l0.01741 1.1358zm3.3208-0.03142-0.0038-0.5221-0.91014 0.0065 0.59514-0.63929c0.19956-0.21311 0.3079-0.355 0.306-0.61958-0.0034-0.47271-0.34411-0.75602-0.80976-0.75267-0.43743 0.0031-0.80941 0.27746-0.80586 0.77134l0.57854-0.0042c-0.0014-0.19402 0.12525-0.24432 0.23108-0.24508 0.14816-0.0011 0.22646 0.09362 0.22744 0.2312 7.61e-4 0.10583-0.03406 0.16958-0.12507 0.26902l-0.90304 0.99429 0.0038 0.5221zm2.0806-0.7652-6.74e-4 -0.98778c-3.54e-4 -0.51858-0.39212-0.7829-0.80839-0.78261-0.41628 2.84e-4 -0.80768 0.26513-0.80732 0.78372l6.74e-4 0.98778c3.54e-4 0.51858 0.39212 0.7829 0.80839 0.78261 0.41628-2.84e-4 0.80768-0.26513 0.80732-0.78372zm-0.57855 0.0039c1.2e-4 0.17639-0.10566 0.2576-0.22913 0.25768-0.12347 8.5e-5 -0.22936-0.08098-0.22948-0.25737l-6.77e-4 -0.9913c-1.21e-4 -0.17639 0.10566-0.26113 0.22913-0.26121s0.22936 0.08451 0.22948 0.2609zm3.911 0.78787 0.01564-1.2135c0.0026-0.20107-0.02331-0.38133-0.18348-0.54569-0.10098-0.10359-0.24483-0.16542-0.42473-0.16774-0.15168-2e-3 -0.3253 0.05578-0.44321 0.17069l2e-3 -0.15521-0.5644-0.0073-0.02446 1.8978 0.57851 0.0075 0.01464-1.1358c0.0028-0.2187 0.15857-0.25903 0.23618-0.25803 0.0776 1e-3 0.23227 0.04533 0.22945 0.26404l-0.01464 1.1358zm2.1423-0.89971c0.0092-0.3703-0.03563-0.55491-0.19005-0.73166-0.10988-0.12271-0.29726-0.25087-0.60408-0.25848-0.30682-0.0076-0.50032 0.1111-0.61615 0.2282-0.16299 0.16887-0.21691 0.35103-0.2261 0.72134-0.0093 0.37383 0.03563 0.55491 0.19005 0.73166 0.10988 0.12271 0.29726 0.25087 0.60408 0.25848 0.30682 0.0076 0.50032-0.1111 0.61615-0.2282 0.16299-0.16887 0.21682-0.34751 0.2261-0.72134zm-0.57838-0.01435c-0.0046 0.18691-0.01854 0.32067-0.09444 0.39289-0.03614 0.03439-0.08595 0.0508-0.15649 0.04905-0.07053-0.0017-0.11947-0.02061-0.15386-0.05675-0.07222-0.0759-0.07948-0.21017-0.07484-0.39709 0.0046-0.18691 0.01854-0.32067 0.09444-0.39289 0.03614-0.03439 0.08595-0.0508 0.15649-0.04905 0.07053 0.0018 0.11947 0.02061 0.15386 0.05675 0.07222 0.0759 0.07948 0.21017 0.07484 0.39709zm2.7169-0.85309-0.60628-0.02445-0.34985 0.97094-0.27406-0.9961-0.60628-0.02445 0.62145 1.9245 0.44061 0.01777z" fill="#e62e6c" stroke-width="1px" aria-label="Lun 20 nov"/>
<path d="m29.755 32.978-0.02328-2.5117-0.60675 0.0056-0.55415 1.1129-0.57468-1.1024-0.60675 0.0056 0.02328 2.5117 0.61733-0.0057-0.011148-1.2029 0.36204 0.61756 0.39509-0.0037 0.35054-0.62416 0.01115 1.2029zm2.0973-3.97e-4 -3.5e-4 -1.2312c-1.31e-4 -0.46214-0.293-0.68783-0.83628-0.68768-0.32103 9.1e-5 -0.49387 0.06717-0.68784 0.26125l0.35994 0.35973c0.0917-0.09175 0.1693-0.1341 0.29982-0.13414 0.20108-5.8e-5 0.28577 0.06342 0.28582 0.23628l1.4e-5 0.04939-0.37394 1.06e-4c-0.46214 1.31e-4 -0.65609 0.26477-0.65601 0.55052 5e-5 0.17639 0.05654 0.33512 0.16593 0.44445 0.10586 0.1058 0.26463 0.16926 0.45513 0.1692 0.20108-5.7e-5 0.3069-0.05653 0.42328-0.17298l4.4e-5 0.15522zm-0.57876-0.71244c2.8e-5 0.09878-0.01407 0.1517-0.05992 0.19404-0.05996 0.05293-0.11287 0.06706-0.20812 0.06709-0.14111 4e-5 -0.20816-0.06697-0.20818-0.15516-2.7e-5 -0.09525 0.06698-0.15524 0.20104-0.15528l0.27517-7.8e-5zm2.585-1.021c-0.12987-0.13118-0.25663-0.17768-0.4436-0.17863-0.19755-9.97e-4 -0.36382 0.08989-0.44891 0.17413l7.83e-4 -0.15522-0.56444-0.0028-0.0096 1.8979 0.57855 0.0029 0.0057-1.1359c0.0011-0.21519 0.15654-0.26027 0.23415-0.25988 0.09878 4.98e-4 0.15148 0.0431 0.20764 0.09983zm3.106 1.7763 0.0065-0.52207-0.9101-0.01127 0.60754-0.62752c0.20369-0.20916 0.31479-0.3489 0.31807-0.61347 0.0059-0.47268-0.32925-0.76261-0.79488-0.76838-0.43741-0.0054-0.81469 0.26157-0.82081 0.75542l0.57851 0.0072c0.0024-0.19401 0.13-0.24182 0.23583-0.24051 0.14816 0.0018 0.22458 0.09804 0.22288 0.23561-0.0013 0.10582-0.03737 0.16888-0.13031 0.26652l-0.92233 0.97643-0.0065 0.52207zm1.727 0.02819 0.04243-2.5114-0.57847-0.0098-0.54401 0.45654-0.01043 0.61727 0.54401-0.45654-0.032 1.8941zm3.6855 0.08014 0.02935-1.2132c0.0049-0.20102-0.019-0.38157-0.1773-0.54772-0.0998-0.10475-0.24295-0.1682-0.42281-0.17255-0.15165-0.0037-0.32591 0.05211-0.44511 0.16567l0.0038-0.15518-0.56428-0.01365-0.0459 1.8974 0.57838 0.01399 0.02747-1.1356c0.0053-0.21866 0.16149-0.25722 0.23908-0.25535 0.07759 0.0019 0.23174 0.04795 0.22645 0.26661l-0.02747 1.1356zm2.1536-0.88739c0.01091-0.37026-0.03306-0.55507-0.18665-0.73253-0.10931-0.12322-0.29609-0.25224-0.60287-0.26128-0.30678-9e-3 -0.50084 0.10877-0.61721 0.22534-0.16377 0.16811-0.21854 0.35002-0.22944 0.72028-0.01101 0.37378 0.03306 0.55507 0.18665 0.73253 0.10931 0.12322 0.29609 0.25224 0.60287 0.26128 0.30678 9e-3 0.50084-0.10877 0.61721-0.22534 0.16377-0.16811 0.21843-0.3465 0.22944-0.72028zm-0.5783-0.01703c-0.0055 0.18689-0.02003 0.32058-0.09626 0.39245-0.0363 0.03422-0.08619 0.0504-0.15671 0.04832-0.07053-0.0021-0.11937-0.02116-0.1536-0.05746-0.07187-0.07623-0.0785-0.21054-0.073-0.39743s0.02003-0.32058 0.09626-0.39245c0.0363-0.03422 0.08619-0.0504 0.15671-0.04832 0.07052 0.0021 0.11937 0.02116 0.1536 0.05746 0.07187 0.07623 0.0785 0.21054 0.073 0.39743zm2.7088-0.85817-0.60639-0.02156-0.34522 0.9726-0.2788-0.99478-0.60639-0.02156 0.63062 1.9216 0.44069 0.01567z" fill="#e62e6c" stroke-width="1px" aria-label="Mar 21 nov"/>
</g>
</svg>
