<?xml version="1.0" encoding="UTF-8" standalone="no"?>
<!-- Created with Inkscape (http://www.inkscape.org/) -->

<svg
 width="63.294758mm"
 height="30.580847mm"
 viewBox="0 0 63.294758 30.580847"
 version="1.1"
 id="svg8"
 inkscape:version="1.3 (1:1.3+202307231459+0e150ed6c4)"
 sodipodi:docname="planning-s41.svg"
 xmlns:inkscape="http://www.inkscape.org/namespaces/inkscape"
 xmlns:sodipodi="http://sodipodi.sourceforge.net/DTD/sodipodi-0.dtd"
 xmlns="http://www.w3.org/2000/svg"
 xmlns:svg="http://www.w3.org/2000/svg"
 xmlns:rdf="http://www.w3.org/1999/02/22-rdf-syntax-ns#"
 xmlns:cc="http://creativecommons.org/ns#"
 xmlns:dc="http://purl.org/dc/elements/1.1/">
<defs
 id="defs2" />
<sodipodi:namedview
 id="base"
 pagecolor="#ffffff"
 bordercolor="#666666"
 borderopacity="1.0"
 inkscape:pageopacity="0.0"
 inkscape:pageshadow="2"
 inkscape:zoom="2.2610619"
 inkscape:cx="242.364"
 inkscape:cy="166.73582"
 inkscape:document-units="mm"
 inkscape:current-layer="layer1"
 showgrid="false"
 inkscape:snap-intersection-paths="true"
 showguides="false"
 inkscape:guide-bbox="true"
 inkscape:pagecheckerboard="0"
 inkscape:snap-to-guides="false"
 inkscape:snap-text-baseline="true"
 inkscape:snap-smooth-nodes="true"
 inkscape:object-paths="true"
 borderlayer="true"
 inkscape:showpageshadow="false"
 inkscape:deskcolor="#d1d1d1">
<inkscape:grid
 type="xygrid"
 id="grid815"
 spacingx="5"
 spacingy="5"
 empspacing="2"
 originx="-21.044565"
 originy="-14.877939"
 units="mm"
 visible="false" />
<sodipodi:guide
 position="-11.044566,-251.54121"
 orientation="1,0"
 id="guide817"
 inkscape:locked="false"
 inkscape:label=""
 inkscape:color="rgb(0,0,255)" />
<sodipodi:guide
 position="178.95543,-251.54121"
 orientation="1,0"
 id="guide819"
 inkscape:locked="false"
 inkscape:label=""
 inkscape:color="rgb(0,0,255)" />
<sodipodi:guide
 position="-21.044566,-241.54121"
 orientation="0,1"
 id="guide821"
 inkscape:locked="false"
 inkscape:label=""
 inkscape:color="rgb(0,0,255)" />
<sodipodi:guide
 position="-21.044566,35.458785"
 orientation="0,1"
 id="guide825"
 inkscape:locked="false"
 inkscape:label=""
 inkscape:color="rgb(0,0,255)" />
</sodipodi:namedview>
<metadata
 id="metadata5">
<rdf:RDF>
<cc:Work
 rdf:about="">
<dc:format>image/svg+xml</dc:format>
<dc:type
 rdf:resource="http://purl.org/dc/dcmitype/StillImage" />
</cc:Work>
</rdf:RDF>
</metadata>
<g
 inkscape:label="Calque 1"
 inkscape:groupmode="layer"
 id="layer1"
 transform="translate(-21.044566,-14.877939)">
<rect
 style="color:#000000;overflow:visible;fill:#ffffff;fill-rule:evenodd;stroke:none;stroke-width:0.300001;-inkscape-stroke:none;stop-color:#000000"
 id="rect643"
 width="29.403961"
 height="25.094221"
 x="54.785362"
 y="17.296869" />
<rect
 style="color:#000000;overflow:visible;fill:#ffffff;fill-rule:evenodd;stroke:none;stroke-width:0.300001;-inkscape-stroke:none;stop-color:#000000"
 id="rect643-3"
 width="31.640577"
 height="24.60434"
 x="21.194567"
 y="18.286751" />
<rect
 style="color:#000000;overflow:visible;fill:#ffffff;fill-rule:evenodd;stroke:none;stroke-width:0.300001;-inkscape-stroke:none;stop-color:#000000"
 id="rect643-3-6"
 width="31.640577"
 height="24.60434"
 x="22.194567"
 y="17.286753" />
<rect
 style="color:#000000;overflow:visible;fill:#ffffff;fill-rule:evenodd;stroke:none;stroke-width:0.300001;-inkscape-stroke:none;stop-color:#000000"
 id="rect584"
 width="28.403963"
 height="25.094223"
 x="54.785362"
 y="16.296867" />
<path
 style="font-variation-settings:normal;overflow:visible;opacity:1;vector-effect:none;fill:none;fill-opacity:1;fill-rule:evenodd;stroke:#b3b3b3;stroke-width:0.3;stroke-linecap:round;stroke-linejoin:round;stroke-miterlimit:4;stroke-dasharray:none;stroke-dashoffset:0;stroke-opacity:1;-inkscape-stroke:none;stop-color:#000000;stop-opacity:1"
 d="M 51.800442,42.891092 H 21.194566 v -24.63496"
 id="path9825"
 sodipodi:nodetypes="ccc" />
<path
 style="font-variation-settings:normal;overflow:visible;opacity:1;vector-effect:none;fill:none;fill-opacity:1;fill-rule:evenodd;stroke:#b3b3b3;stroke-width:0.3;stroke-linecap:round;stroke-linejoin:round;stroke-miterlimit:4;stroke-dasharray:none;stroke-dashoffset:0;stroke-opacity:1;-inkscape-stroke:none;stop-color:#000000;stop-opacity:1"
 d="m 84.189322,17.256132 v 25.13496 h -28.12199"
 id="path9754" />
<path
 style="font-variation-settings:normal;overflow:visible;opacity:1;vector-effect:none;fill:none;fill-opacity:1;fill-rule:evenodd;stroke:#b3b3b3;stroke-width:0.3;stroke-linecap:round;stroke-linejoin:round;stroke-miterlimit:4;stroke-dasharray:none;stroke-dashoffset:0;stroke-opacity:1;-inkscape-stroke:none;stop-color:#000000;stop-opacity:1"
 d="M 51.854002,41.891092 H 22.194566 v -24.63496"
 id="path9829"
 sodipodi:nodetypes="ccc" />
<path
 style="font-variation-settings:normal;overflow:visible;opacity:1;vector-effect:none;fill:none;fill-opacity:1;fill-rule:evenodd;stroke:#b3b3b3;stroke-width:0.3;stroke-linecap:round;stroke-linejoin:round;stroke-miterlimit:4;stroke-dasharray:none;stroke-dashoffset:0;stroke-opacity:1;-inkscape-stroke:none;stop-color:#000000;stop-opacity:1"
 d="m 83.189322,16.256132 v 25.13496 h -27.03411"
 id="rect9531" />
<path
 id="path7114"
 style="font-variation-settings:normal;overflow:visible;opacity:1;vector-effect:none;fill:#ffffff;fill-opacity:1;fill-rule:evenodd;stroke:#4d4d4d;stroke-width:0.3;stroke-linecap:butt;stroke-linejoin:miter;stroke-miterlimit:4;stroke-dasharray:none;stroke-dashoffset:0;stroke-opacity:1;-inkscape-stroke:none;stop-color:#000000;stop-opacity:1"
 d="m 23.194566,16.256142 c 2.521696,0 26.516346,-0.93945 29.654976,0.87264 c 2.7945,-2.7945 24.43287,-0.73325 29.32935,-2.05543 l 0.2093,23.74208 c -5.84707,3.37581 -22.09734,-0.0411 -29.53865,2.85135 c -0.76745,-0.52999 -22.08712,-1.02358 -29.502796,-0.62327 z"
 sodipodi:nodetypes="ccccccc" />
<path
 d="m 58.866712,21.476872 c 7.24956,-0.86322 19.46053,0.19028 23.31218,-0.84977"
 style="font-variation-settings:normal;overflow:visible;opacity:1;vector-effect:none;fill:none;fill-opacity:1;fill-rule:evenodd;stroke:none;stroke-width:0.3;stroke-linecap:butt;stroke-linejoin:miter;stroke-miterlimit:4;stroke-dasharray:none;stroke-dashoffset:0;stroke-opacity:1;-inkscape-stroke:none;stop-color:#000000;stop-opacity:1"
 id="path7116"
 sodipodi:nodetypes="cc" />
<path
 d="m 58.872542,26.476172 c 7.25135,-0.86196 19.45573,0.1907 23.30635,-0.84907"
 style="font-variation-settings:normal;overflow:visible;opacity:1;vector-effect:none;fill:none;fill-opacity:1;fill-rule:evenodd;stroke:none;stroke-width:0.3;stroke-linecap:butt;stroke-linejoin:miter;stroke-miterlimit:4;stroke-dasharray:none;stroke-dashoffset:0;stroke-opacity:1;-inkscape-stroke:none;stop-color:#000000;stop-opacity:1"
 id="path7118"
 sodipodi:nodetypes="cc" />
<path
 d="m 58.828192,32.813702 c 8.20509,-1.07051 18.6102,0.93963 23.56,-1.91814"
 style="font-variation-settings:normal;overflow:visible;opacity:1;vector-effect:none;fill:none;fill-opacity:1;fill-rule:evenodd;stroke:none;stroke-width:0.3;stroke-linecap:butt;stroke-linejoin:miter;stroke-miterlimit:4;stroke-dasharray:none;stroke-dashoffset:0;stroke-opacity:1;-inkscape-stroke:none;stop-color:#000000;stop-opacity:1"
 id="path7120"
 sodipodi:nodetypes="cc" />
<path
 d="m 58.882772,37.806632 c 8.20543,-1.05456 18.56658,0.94037 23.50542,-1.91107"
 style="font-variation-settings:normal;overflow:visible;opacity:1;vector-effect:none;fill:none;fill-opacity:1;fill-rule:evenodd;stroke:none;stroke-width:0.3;stroke-linecap:butt;stroke-linejoin:miter;stroke-miterlimit:4;stroke-dasharray:none;stroke-dashoffset:0;stroke-opacity:1;-inkscape-stroke:none;stop-color:#000000;stop-opacity:1"
 id="path7122"
 sodipodi:nodetypes="cc" />
<path
 d="m 27.169662,38.005952 c 9.14246,-0.14416 25.01952,0.28494 25.67988,0.74096"
 style="font-variation-settings:normal;overflow:visible;opacity:1;vector-effect:none;fill:none;fill-opacity:1;fill-rule:evenodd;stroke:none;stroke-width:0.3;stroke-linecap:butt;stroke-linejoin:miter;stroke-miterlimit:4;stroke-dasharray:none;stroke-dashoffset:0;stroke-opacity:1;-inkscape-stroke:none;stop-color:#000000;stop-opacity:1"
 id="path7124"
 sodipodi:nodetypes="cc" />
<path
 d="m 27.194562,26.701242 c 7.62152,-0.18305 23.18953,-0.47381 25.67532,0.96136"
 style="font-variation-settings:normal;overflow:visible;opacity:1;vector-effect:none;fill:none;fill-opacity:1;fill-rule:evenodd;stroke:none;stroke-width:0.3;stroke-linecap:butt;stroke-linejoin:miter;stroke-miterlimit:4;stroke-dasharray:none;stroke-dashoffset:0;stroke-opacity:1;-inkscape-stroke:none;stop-color:#000000;stop-opacity:1"
 id="path7128"
 sodipodi:nodetypes="cc" />
<path
 style="font-variation-settings:normal;opacity:1;vector-effect:none;fill:#ffffff;fill-opacity:1;fill-rule:evenodd;stroke:#4d4d4d;stroke-width:0.3;stroke-linecap:butt;stroke-linejoin:miter;stroke-miterlimit:4;stroke-dasharray:none;stroke-dashoffset:0;stroke-opacity:1;-inkscape-stroke:none;stop-color:#000000;stop-opacity:1"
 d="m 52.849542,17.468722 v 24.13104"
 id="path7138"
 sodipodi:nodetypes="cc" />
<path
 d="m 31.958743,23.859246 l 0.03911,2.318906 l 0.42782,-0.0072 q 0.15294,-0.0026 0.218021,0.05628 q 0.06711,0.05675 0.06871,0.151825 q 0.0016,0.09301 -0.06356,0.154056 q -0.06309,0.05895 -0.216034,0.06153 l -1.279326,0.02157 q -0.15294,0.0026 -0.220052,-0.05418 q -0.06508,-0.05886 -0.06668,-0.153927 q -0.0016,-0.093 0.06152,-0.151954 q 0.06513,-0.06105 0.218066,-0.06363 l 0.42782,-0.0072 l -0.0298,-1.767081 l -0.376545,0.105583 q -0.09052,0.02633 -0.135988,0.0271 q -0.0806,0.0014 -0.14162,-0.0617 q -0.05895,-0.06309 -0.06052,-0.156098 q -0.0014,-0.08474 0.04117,-0.133004 q 0.04257,-0.05033 0.180411,-0.08987 z m 3.231885,0.02608 l 0.01748,1.657686 q 0.134351,-0.0014 0.199058,0.05785 q 0.06469,0.0572 0.06567,0.150211 q 9.81e-4,0.09301 -0.06453,0.153651 q -0.06344,0.06062 -0.195727,0.06201 l 0.0018,0.169489 q 0.134351,-0.0014 0.199058,0.05785 q 0.06471,0.05927 0.06569,0.152278 q 9.81e-4,0.09301 -0.06453,0.153651 q -0.06346,0.05855 -0.216419,0.06016 l -0.568409,0.006 q -0.152953,0.0016 -0.219706,-0.05557 q -0.06471,-0.05927 -0.06571,-0.154345 q -9.81e-4,-0.09301 0.06248,-0.151562 q 0.06551,-0.06064 0.218464,-0.06225 l 0.165355,-0.0017 l -0.0018,-0.169489 l -1.151286,0.01214 l -0.0037,-0.353447 l 0.99665,-1.738662 z m -0.406246,1.662153 l -0.01098,-1.041738 l -0.602898,1.048211 z m 2.937016,-0.594443 q 2.98e-4,0.119889 -0.08425,0.200715 q -0.08455,0.08083 -0.233376,0.0812 q -0.148827,3.7e-4 -0.233777,-0.08003 q -0.08495,-0.0804 -0.08525,-0.200293 q -2.99e-4,-0.119889 0.08425,-0.200715 q 0.08455,-0.08083 0.233376,-0.0812 q 0.148827,-3.7e-4 0.233777,0.08003 q 0.08495,0.0804 0.08525,0.200293 z m 0.0076,1.38698 q 2.99e-4,0.119889 -0.08425,0.200715 q -0.08455,0.08083 -0.233375,0.0812 q -0.148828,3.71e-4 -0.233778,-0.08003 q -0.08495,-0.0804 -0.08525,-0.200292 q -2.99e-4,-0.119889 0.08425,-0.200715 q 0.08455,-0.08083 0.233376,-0.0812 q 0.148828,-3.71e-4 0.233778,0.08003 q 0.08495,0.0804 0.08525,0.200293 z m 3.1015,-1.196759 q 0.187067,0.129665 0.278719,0.299905 q 0.09167,0.168174 0.08999,0.37694 q -0.0018,0.225301 -0.127375,0.416535 q -0.12348,0.189183 -0.357847,0.286521 q -0.23435,0.09527 -0.612609,0.09223 q -0.491944,-0.004 -0.738753,-0.158904 q -0.137791,-0.08793 -0.136828,-0.207811 q 7.31e-4,-0.09095 0.06117,-0.152476 q 0.06253,-0.06358 0.149338,-0.06288 q 0.05994,4.82e-4 0.123687,0.04234 q 0.09045,0.06274 0.170896,0.08406 q 0.123787,0.02993 0.340821,0.03168 q 0.369991,0.003 0.536114,-0.09078 q 0.16614,-0.09582 0.167551,-0.271513 q 0.001,-0.130221 -0.09514,-0.250887 q -0.0941,-0.122716 -0.254796,-0.190155 q -0.09272,-0.03795 -0.313767,-0.0542 q -0.105366,-0.007 -0.162777,-0.06539 q -0.05533,-0.06039 -0.05463,-0.147205 q 7.3e-4,-0.09095 0.06324,-0.152459 q 0.06251,-0.06151 0.15759,-0.06075 q 0.210833,0.0017 0.225318,-2.57e-4 q 0.08275,-0.0076 0.165791,-0.05241 q 0.08304,-0.04481 0.133284,-0.122956 q 0.05232,-0.0802 0.053,-0.164944 q 0.0011,-0.134354 -0.118025,-0.232466 q -0.117021,-0.100162 -0.354725,-0.102072 q -0.305914,-0.0025 -0.468567,0.174007 q -0.04796,0.05129 -0.07701,0.06553 q -0.04359,0.02239 -0.09733,0.02196 q -0.08681,-6.97e-4 -0.148325,-0.0632 q -0.06151,-0.06251 -0.06078,-0.153456 q 0.0011,-0.142622 0.192388,-0.275448 q 0.278555,-0.194138 0.69402,-0.1908 q 0.392727,0.0032 0.628637,0.228301 q 0.23591,0.225145 0.233386,0.539327 q -0.0013,0.163292 -0.07274,0.30535 q -0.07141,0.13999 -0.212926,0.258746 z m 1.801536,1.019636 l 0.927871,0.02096 q 0.07786,-0.06027 0.146058,-0.05873 q 0.09713,0.0022 0.151476,0.06752 q 0.05642,0.06537 0.05291,0.220359 l -0.0046,0.20252 l -1.930137,-0.04361 l 0.01013,-0.448437 q 1.166194,-0.918536 1.409962,-1.183882 q 0.122986,-0.135749 0.125788,-0.259741 q 0.0035,-0.15499 -0.130228,-0.275863 Q 43.259666,24.281099 43.034414,24.27601 q -0.227318,-0.0051 -0.381162,0.123713 q -0.08012,0.06849 -0.130774,0.205871 q -0.03089,0.08614 -0.0834,0.122171 q -0.05044,0.03608 -0.124833,0.0344 q -0.08679,-0.002 -0.149455,-0.0654 q -0.0606,-0.0634 -0.05873,-0.146058 q 0.0028,-0.123991 0.120663,-0.307411 q 0.119927,-0.183373 0.341501,-0.290016 q 0.22364,-0.106597 0.481956,-0.10076 q 0.400906,0.0091 0.651646,0.258698 q 0.250787,0.247573 0.242989,0.592683 q -0.004,0.175655 -0.08177,0.324831 q -0.07569,0.147156 -0.360648,0.405368 q -0.223767,0.20377 -0.870378,0.7288 z"
 id="text7158"
 style="font-weight:bold;font-size:4.23333px;line-height:4.0246px;font-family:'Courier New';-inkscape-font-specification:'Courier New Bold';letter-spacing:0.264583px;word-spacing:0.529167px;baseline-shift:baseline;fill:#333333;stroke-width:0.999999px"
 aria-label=" 14:32" />
<path
 d="m 31.984862,35.235476 l -0.0039,2.319233 l 0.42788,7.19e-4 q 0.152962,2.57e-4 0.216939,0.06031 q 0.06605,0.05799 0.06589,0.153073 q -1.56e-4,0.09302 -0.0664,0.15285 q -0.06418,0.05777 -0.217138,0.05751 l -1.279505,-0.0022 q -0.152962,-2.57e-4 -0.219011,-0.05825 q -0.06398,-0.06005 -0.06382,-0.155137 q 1.57e-4,-0.09302 0.06433,-0.150787 q 0.06625,-0.05983 0.219208,-0.05958 l 0.42788,7.19e-4 l 0.003,-1.76733 l -0.378437,0.09858 q -0.09099,0.02465 -0.136467,0.02457 q -0.08061,-1.35e-4 -0.140452,-0.06432 q -0.05777,-0.06418 -0.05761,-0.157193 q 1.42e-4,-0.08475 0.04363,-0.132218 q 0.04349,-0.04954 0.182047,-0.08651 z m 3.235702,0.08869 l -0.01466,1.657714 q 0.134353,0.0012 0.197899,0.0617 q 0.06356,0.05844 0.06274,0.151456 q -8.22e-4,0.09301 -0.0675,0.152371 q -0.06461,0.05938 -0.196892,0.05821 l -0.0015,0.169491 q 0.134353,0.0012 0.197899,0.0617 q 0.06355,0.06051 0.06272,0.153523 q -8.23e-4,0.09301 -0.0675,0.152371 Q 35.329198,38 35.176242,37.998647 l -0.568418,-0.005 q -0.152956,-0.0014 -0.218588,-0.05981 q -0.06355,-0.06051 -0.0627,-0.15559 q 8.23e-4,-0.09301 0.06541,-0.150322 q 0.06667,-0.05936 0.219629,-0.05801 l 0.165358,0.0015 l 0.0015,-0.169492 l -1.151305,-0.01018 l 0.0031,-0.353453 l 1.030165,-1.719016 z m -0.438389,1.653967 l 0.0092,-1.041756 l -0.623104,1.036327 z m 2.945832,-0.539751 q -0.0018,0.119876 -0.08776,0.199205 q -0.08595,0.07933 -0.234765,0.07709 q -0.148811,-0.0022 -0.232336,-0.08413 q -0.08353,-0.08188 -0.08172,-0.201758 q 0.0018,-0.119876 0.08776,-0.199205 q 0.08595,-0.07933 0.234765,-0.07709 q 0.148811,0.0022 0.232337,0.08413 q 0.08353,0.08188 0.08172,0.201758 z m -0.01676,1.386899 q -0.0018,0.119876 -0.08776,0.199205 q -0.08595,0.07933 -0.234765,0.07709 q -0.148811,-0.0022 -0.232336,-0.08412 q -0.08353,-0.08188 -0.08172,-0.201759 q 0.0018,-0.119875 0.08776,-0.199205 q 0.08595,-0.07933 0.234765,-0.07709 q 0.148811,0.0022 0.232336,0.08413 q 0.08353,0.08188 0.08172,0.201758 z m 3.117669,-1.150261 q 0.185355,0.132099 0.274775,0.303523 q 0.08946,0.169357 0.08506,0.378083 q -0.0048,0.225259 -0.132809,0.414835 q -0.125942,0.187553 -0.361562,0.281819 q -0.235575,0.0922 -0.613762,0.08422 q -0.49185,-0.01038 -0.736613,-0.168546 q -0.13663,-0.08972 -0.134099,-0.209583 q 0.0019,-0.09093 0.06316,-0.151663 q 0.06335,-0.06275 0.150148,-0.06092 q 0.05993,0.0013 0.123123,0.04395 q 0.08962,0.06392 0.169782,0.08628 q 0.123385,0.03155 0.340378,0.03613 q 0.36992,0.0078 0.537255,-0.08376 q 0.167378,-0.09364 0.171086,-0.269301 q 0.0027,-0.130195 -0.09185,-0.252108 q -0.09249,-0.123936 -0.252288,-0.19347 q -0.09221,-0.03916 -0.313032,-0.0583 q -0.105265,-0.0084 -0.161909,-0.06751 q -0.05453,-0.06111 -0.0527,-0.147906 q 0.0019,-0.09093 0.06523,-0.151619 q 0.06331,-0.06069 0.15837,-0.05868 q 0.210793,0.0045 0.225303,0.0027 q 0.08284,-0.0065 0.166462,-0.05024 q 0.08362,-0.04372 0.134879,-0.121204 q 0.05337,-0.07951 0.05515,-0.164237 q 0.0028,-0.134328 -0.114976,-0.233989 q -0.115702,-0.101683 -0.35336,-0.1067 q -0.305857,-0.0065 -0.470803,0.167868 q -0.04862,0.05066 -0.07786,0.06452 q -0.04388,0.02182 -0.09761,0.02068 q -0.0868,-0.0018 -0.147486,-0.06514 q -0.06069,-0.06331 -0.05877,-0.154237 q 0.003,-0.142595 0.195972,-0.27291 q 0.281069,-0.190481 0.696454,-0.181712 q 0.392653,0.0083 0.6256,0.236498 q 0.232947,0.22821 0.226316,0.542332 q -0.0034,0.163261 -0.07672,0.304373 q -0.07323,0.139045 -0.21629,0.255941 z m 1.783388,1.036371 l 0.927751,0.02573 q 0.07817,-0.05987 0.146357,-0.05798 q 0.09712,0.0027 0.151127,0.06829 q 0.05608,0.06566 0.05178,0.220628 l -0.0056,0.202494 l -1.929888,-0.05352 l 0.01243,-0.448379 q 1.170893,-0.912538 1.41602,-1.176629 q 0.123682,-0.135117 0.12712,-0.259092 q 0.0043,-0.15497 -0.12881,-0.276528 q -0.130984,-0.123568 -0.356207,-0.129813 q -0.227288,-0.0063 -0.381792,0.121755 q -0.08047,0.06808 -0.131829,0.205197 q -0.03133,0.08598 -0.08402,0.121741 q -0.05062,0.03582 -0.125007,0.03375 q -0.08678,-0.0024 -0.149118,-0.06617 q -0.06027,-0.06371 -0.05798,-0.146357 q 0.0034,-0.123976 0.122239,-0.306788 q 0.120868,-0.182755 0.342986,-0.288259 q 0.224184,-0.105447 0.482466,-0.09828 q 0.400855,0.01112 0.65031,0.262039 q 0.249513,0.248858 0.239944,0.593924 q -0.0049,0.175632 -0.08344,0.324406 q -0.07644,0.146766 -0.362724,0.403512 Q 43.2616,37.189687 42.612303,37.71139 Z"
 id="text7164"
 style="font-weight:bold;font-size:4.23333px;line-height:4.0246px;font-family:'Courier New';-inkscape-font-specification:'Courier New Bold';letter-spacing:0.264583px;word-spacing:0.529167px;baseline-shift:baseline;fill:#333333;stroke-width:0.999999px"
 aria-label=" 14:32" />
<path
 d="m 63.590611,23.415713 l 0.07583,2.317996 l 0.427652,-0.01399 q 0.15288,-0.005 0.218885,0.05282 q 0.068,0.05568 0.07111,0.150718 q 0.003,0.09297 -0.06111,0.155043 q -0.06215,0.05994 -0.215032,0.06494 l -1.278824,0.04183 q -0.15288,0.005 -0.220883,-0.05068 q -0.066,-0.05782 -0.06911,-0.152851 q -0.003,-0.09297 0.05911,-0.15291 q 0.06415,-0.06208 0.217031,-0.06708 l 0.427651,-0.01399 l -0.05778,-1.766388 l -0.374825,0.111534 q -0.09009,0.02776 -0.135542,0.02925 q -0.08057,0.0026 -0.14258,-0.05945 q -0.05994,-0.06215 -0.06298,-0.15512 q -0.0028,-0.0847 0.03906,-0.13364 q 0.04176,-0.051 0.178965,-0.09272 z m 3.272711,0.01402 l 0.01525,1.657708 q 0.134353,-0.0012 0.198981,0.05812 q 0.06461,0.05729 0.06546,0.150299 q 8.56e-4,0.09301 -0.06473,0.153564 q -0.06353,0.06053 -0.195811,0.06175 l 0.0016,0.169491 q 0.134353,-0.0012 0.198981,0.05812 q 0.06463,0.05935 0.06548,0.152366 q 8.56e-4,0.09301 -0.06474,0.153565 q -0.06354,0.05846 -0.216499,0.05987 l -0.568416,0.0052 q -0.152955,0.0014 -0.219631,-0.05586 q -0.06463,-0.05935 -0.0655,-0.154433 q -8.56e-4,-0.09301 0.06269,-0.151478 q 0.06559,-0.06055 0.218547,-0.06196 l 0.165358,-0.0015 l -0.0016,-0.169491 l -1.151301,0.01059 l -0.0033,-0.353451 l 0.998981,-1.737324 z m -0.408474,1.661608 l -0.0096,-1.041752 l -0.604304,1.0474 z m 2.944475,-0.579834 q -3.33e-4,0.119889 -0.0853,0.200269 q -0.08497,0.08038 -0.2338,0.07997 q -0.148828,-4.13e-4 -0.233353,-0.08126 q -0.08452,-0.08085 -0.08419,-0.200739 q 3.33e-4,-0.119889 0.08531,-0.200269 q 0.08497,-0.08038 0.2338,-0.07997 q 0.148827,4.13e-4 0.233353,0.08126 q 0.08452,0.08085 0.08419,0.200738 z m 2.88e-4,1.387001 q -3.33e-4,0.119889 -0.0853,0.200268 q -0.08497,0.08038 -0.2338,0.07997 q -0.148828,-4.13e-4 -0.233353,-0.08126 q -0.08453,-0.08085 -0.08419,-0.200739 q 3.32e-4,-0.119888 0.0853,-0.200268 q 0.08497,-0.08038 0.2338,-0.07997 q 0.148827,4.12e-4 0.233353,0.08126 q 0.08452,0.08085 0.08419,0.200739 z m 3.09293,-1.192427 q 0.187417,0.129158 0.27953,0.299149 q 0.09213,0.167925 0.09101,0.376694 q -0.0012,0.225306 -0.126246,0.416879 q -0.122967,0.189517 -0.35707,0.28749 q -0.234091,0.09591 -0.612357,0.09389 q -0.491952,-0.0026 -0.739181,-0.156901 q -0.138028,-0.08755 -0.137389,-0.20744 q 4.84e-4,-0.09095 0.06076,-0.152641 q 0.06235,-0.06375 0.149167,-0.06329 q 0.05994,3.19e-4 0.123802,0.042 q 0.09062,0.0625 0.171122,0.0836 q 0.123868,0.0296 0.340906,0.03075 q 0.369997,0.002 0.535866,-0.09223 q 0.165879,-0.09627 0.166815,-0.271966 q 6.94e-4,-0.130223 -0.09582,-0.250628 q -0.09443,-0.122461 -0.255309,-0.189465 q -0.09282,-0.0377 -0.313913,-0.05335 q -0.105385,-0.0068 -0.162954,-0.06495 q -0.05549,-0.06024 -0.05503,-0.147056 q 4.85e-4,-0.09095 0.06283,-0.15263 q 0.06234,-0.06168 0.157424,-0.06117 q 0.210837,0.0011 0.225317,-8.67e-4 q 0.08272,-0.0078 0.165648,-0.05286 q 0.08292,-0.04503 0.13295,-0.123317 q 0.0521,-0.08034 0.05256,-0.165087 q 7.15e-4,-0.134357 -0.118655,-0.232145 q -0.117292,-0.09984 -0.355,-0.101111 q -0.30592,-0.0016 -0.468094,0.175276 q -0.04782,0.05142 -0.07683,0.06574 q -0.04353,0.02251 -0.09727,0.02222 q -0.08682,-4.62e-4 -0.148496,-0.0628 q -0.06168,-0.06234 -0.0612,-0.153291 q 7.6e-4,-0.142624 0.191642,-0.275968 q 0.278027,-0.194892 0.6935,-0.19268 q 0.392735,0.0021 0.629254,0.226597 q 0.236519,0.224505 0.234845,0.538693 q -8.7e-4,0.163295 -0.07191,0.305546 q -0.07103,0.140183 -0.212224,0.259322 z m 1.800734,0.997758 l 0.928105,-0.0026 q 0.07631,-0.06223 0.144519,-0.06242 q 0.09715,-2.72e-4 0.153141,0.06365 q 0.05806,0.06392 0.05849,0.218945 l 5.69e-4,0.20257 l -1.930622,0.0054 l -0.0013,-0.44855 q 1.14249,-0.947858 1.37944,-1.219309 q 0.119499,-0.138829 0.119151,-0.262852 q -4.36e-4,-0.155028 -0.137192,-0.272467 q -0.134695,-0.119511 -0.360003,-0.118878 q -0.227375,6.39e-4 -0.377898,0.133354 q -0.07835,0.0705 -0.125503,0.209126 q -0.02869,0.0869 -0.08027,0.124249 q -0.0495,0.03735 -0.123918,0.03756 q -0.08682,2.44e-4 -0.151069,-0.06159 q -0.06218,-0.06184 -0.06242,-0.144519 q -3.48e-4,-0.124023 0.112817,-0.310376 q 0.115232,-0.18636 0.334025,-0.298596 q 0.220861,-0.112242 0.479242,-0.112968 q 0.401007,-0.0011 0.658006,0.242065 q 0.256993,0.241124 0.257963,0.586321 q 4.94e-4,0.175699 -0.0735,0.326803 q -0.07193,0.14903 -0.350236,0.414396 q -0.218521,0.209388 -0.851589,0.75067 z"
 id="text7176"
 style="font-weight:bold;font-size:4.23333px;line-height:4.0246px;font-family:'Courier New';-inkscape-font-specification:'Courier New Bold';letter-spacing:0.264583px;word-spacing:0.529167px;baseline-shift:baseline;fill:#333333;stroke-width:0.999999px"
 aria-label=" 14:32" />
<path
 style="font-weight:900;font-size:3.52777px;line-height:3.35383px;font-family:'DIN Pro';-inkscape-font-specification:'DIN Pro Heavy';letter-spacing:0.132292px;word-spacing:0.264583px;baseline-shift:baseline;fill:#e62e6c;stroke-width:0.999999px"
 d="m 60.682681,30.088036 l -0.638799,0.06457 l -0.272977,1.438796 l -0.562377,-1.354366 l -0.63529,0.06421 l 1.077407,2.415674 l 0.456285,-0.04612 z m 2.041963,1.652486 l -0.01229,-0.239573 c -0.02674,-0.521425 -0.349971,-0.900476 -0.899581,-0.872287 c -0.496763,0.02548 -0.831187,0.392339 -0.799384,1.012412 c 0.04192,0.817368 0.532362,0.944107 0.951616,0.922604 c 0.352314,-0.01807 0.537142,-0.133522 0.720976,-0.337233 l -0.362976,-0.327559 c -0.09693,0.107411 -0.182118,0.168299 -0.382937,0.178599 c -0.214911,0.01102 -0.341926,-0.123759 -0.349877,-0.278777 z m -0.590445,-0.354748 l -0.563702,0.02891 c -0.0023,-0.0458 0.0022,-0.09549 0.02412,-0.149599 c 0.03126,-0.07932 0.105151,-0.153754 0.242553,-0.160801 c 0.137403,-0.007 0.218526,0.05944 0.257733,0.135142 c 0.02737,0.05158 0.03695,0.100545 0.0393,0.146346 z m 2.736964,1.076072 l -0.02067,-1.213377 c -0.0034,-0.201054 -0.03471,-0.380463 -0.199728,-0.539952 C 64.546728,30.607969 64.401089,30.55047 64.221199,30.553535 c -0.151673,0.0026 -0.323487,0.06549 -0.437903,0.183875 l -0.0026,-0.155199 l -0.564361,0.0096 l 0.03233,1.897665 l 0.57847,-0.0099 l -0.01935,-1.135777 c -0.0037,-0.21869 0.150752,-0.263662 0.228352,-0.264984 c 0.0776,-0.0013 0.23352,0.03836 0.237246,0.257051 l 0.01935,1.135777 z m 2.947012,0.01728 l 0.02635,-2.511634 l -0.578523,-0.0061 l -0.541075,0.460016 l -0.0065,0.617326 l 0.541076,-0.460016 l -0.01987,1.894308 z m 2.493353,-0.717113 c 0.004,-0.299834 -0.145662,-0.453536 -0.281964,-0.550611 c 0.12807,-0.07944 0.2639,-0.211695 0.267567,-0.486837 c 0.0058,-0.433877 -0.332243,-0.748854 -0.797867,-0.75506 c -0.447987,-0.006 -0.811596,0.274957 -0.817896,0.747636 l 0.578503,0.0077 c 0.002,-0.151681 0.112501,-0.234882 0.232435,-0.233283 c 0.119933,0.0016 0.228203,0.08419 0.226087,0.242923 c -0.0015,0.112878 -0.07017,0.235446 -0.243017,0.233142 l -0.08113,-0.0011 l -0.0067,0.500899 l 0.08113,0.0011 c 0.155208,0.0021 0.266582,0.116452 0.26456,0.268132 c -0.0024,0.179901 -0.109397,0.266677 -0.261077,0.264655 c -0.144626,-0.0019 -0.256329,-0.09162 -0.253978,-0.267991 l -0.578503,-0.0077 c -0.0075,0.564393 0.409283,0.792218 0.825522,0.797766 c 0.440933,0.0059 0.839299,-0.23578 0.846304,-0.761371 z m 3.223686,-0.192747 c -0.0024,-0.370408 -0.05303,-0.553523 -0.212907,-0.725337 c -0.113674,-0.119201 -0.304981,-0.241418 -0.61189,-0.239402 c -0.30691,0.002 -0.496594,0.126736 -0.608692,0.247419 c -0.157611,0.1739 -0.205794,0.357664 -0.203361,0.728072 c 0.0025,0.373936 0.05303,0.553524 0.212908,0.725338 c 0.113674,0.1192 0.30498,0.241418 0.61189,0.239402 c 0.306909,-0.002 0.496593,-0.126736 0.608692,-0.24742 c 0.157611,-0.173899 0.205817,-0.354136 0.20336,-0.728072 z m -0.578542,0.0038 c 0.0012,0.186967 -0.0085,0.321089 -0.08207,0.395657 c -0.03504,0.03551 -0.08432,0.05347 -0.154871,0.05393 c -0.07055,4.64e-4 -0.120057,-0.01685 -0.155566,-0.05189 c -0.07457,-0.07359 -0.08603,-0.207578 -0.08726,-0.394546 c -0.0012,-0.186968 0.0085,-0.32109 0.08207,-0.395658 c 0.03505,-0.03551 0.08432,-0.05347 0.154871,-0.05393 c 0.07055,-4.63e-4 0.120058,0.01685 0.155566,0.0519 c 0.07457,0.0736 0.08603,0.207578 0.08726,0.394546 z m 2.472964,0.662785 l -0.405459,-0.377196 c -0.07136,0.07671 -0.13342,0.11778 -0.228607,0.121217 c -0.07756,0.0028 -0.131334,-0.01997 -0.182473,-0.06754 c -0.06953,-0.06809 -0.10219,-0.190464 -0.108682,-0.370263 c -0.0065,-0.179799 0.01726,-0.304209 0.08169,-0.377137 c 0.04757,-0.05114 0.09956,-0.07773 0.177126,-0.08053 c 0.09519,-0.0034 0.160046,0.03305 0.236755,0.104413 l 0.377196,-0.405459 c -0.160723,-0.149519 -0.368383,-0.230272 -0.632793,-0.220724 c -0.327869,0.01184 -0.848072,0.171827 -0.818155,1.000313 c 0.02992,0.828486 0.560305,0.950536 0.888174,0.938697 c 0.264411,-0.0095 0.465705,-0.105069 0.615225,-0.265791 z m 1.339481,0.126528 l -0.03635,-0.485474 l -0.182932,0.0137 c -0.07739,0.0058 -0.119252,-0.03352 -0.124783,-0.1074 l -0.05794,-0.773943 l 0.299023,-0.02239 l -0.03319,-0.443258 l -0.299023,0.02239 l -0.04056,-0.541761 l -0.57694,0.0432 l 0.04056,0.54176 l -0.172378,0.01291 l 0.03319,0.443259 l 0.172378,-0.01291 l 0.0611,0.816158 c 0.01949,0.260327 0.210739,0.546708 0.629371,0.515365 z"
 id="text7182"
 aria-label="Ven 13 oct" />
<path
 d="m 63.62047,34.740107 l 0.05845,2.3185 l 0.427745,-0.01078 q 0.152913,-0.0039 0.218483,0.05446 q 0.06758,0.05619 0.06998,0.151246 q 0.0023,0.09299 -0.06227,0.154581 q -0.0626,0.05947 -0.215513,0.06333 l -1.279101,0.03225 q -0.152914,0.0039 -0.220497,-0.05234 q -0.06557,-0.05831 -0.06797,-0.153365 q -0.0023,-0.09299 0.06026,-0.152462 q 0.06461,-0.06159 0.217528,-0.06545 l 0.427745,-0.01078 l -0.04454,-1.766771 l -0.37565,0.108721 q -0.0903,0.02709 -0.135758,0.02824 q -0.08059,0.002 -0.14213,-0.06052 q -0.05947,-0.0626 -0.06182,-0.155588 q -0.0021,-0.08472 0.04006,-0.133343 q 0.04214,-0.05069 0.179655,-0.09137 z m 3.291166,0.05327 l -0.0072,1.657763 q 0.134357,5.81e-4 0.198176,0.0608 q 0.06383,0.05815 0.06343,0.15117 q -4.02e-4,0.09302 -0.06681,0.152675 q -0.06434,0.05967 -0.196628,0.05909 l -7.32e-4,0.169497 q 0.134357,5.81e-4 0.198176,0.0608 q 0.06382,0.06022 0.06342,0.153238 q -4.02e-4,0.09302 -0.06681,0.152674 q -0.06433,0.0576 -0.217289,0.05694 l -0.568435,-0.0025 q -0.15296,-6.61e-4 -0.218855,-0.05882 q -0.06382,-0.06022 -0.06341,-0.155305 q 4.02e-4,-0.09302 0.06473,-0.150617 q 0.06641,-0.05966 0.219365,-0.059 l 0.165363,7.14e-4 l 7.33e-4,-0.169497 l -1.151339,-0.005 l 0.0015,-0.353463 l 1.022384,-1.723655 z m -0.430908,1.655931 l 0.0045,-1.041786 l -0.618413,1.039132 z m 2.94574,-0.541726 q -0.0016,0.119878 -0.08742,0.199353 q -0.08582,0.07948 -0.234634,0.07749 q -0.148815,-0.002 -0.232479,-0.08373 q -0.08366,-0.08174 -0.08206,-0.20162 q 0.0016,-0.119878 0.08742,-0.199353 q 0.08582,-0.07948 0.234635,-0.07749 q 0.148814,0.002 0.232478,0.08373 q 0.08366,0.08174 0.08206,0.20162 z m -0.01441,1.386925 q -0.0016,0.119879 -0.08742,0.199354 q -0.08582,0.07947 -0.234634,0.07748 q -0.148815,-0.002 -0.232478,-0.08373 q -0.08366,-0.08174 -0.08206,-0.201619 q 0.0016,-0.119879 0.08742,-0.199354 q 0.08582,-0.07947 0.234634,-0.07748 q 0.148815,0.002 0.232478,0.08373 q 0.08366,0.08174 0.08206,0.201619 z m 3.083191,-1.184635 q 0.18793,0.128409 0.28072,0.298032 q 0.09279,0.167557 0.09251,0.376329 q -3.02e-4,0.225309 -0.124583,0.417378 q -0.122211,0.190006 -0.355922,0.288911 q -0.233707,0.09684 -0.611978,0.09633 q -0.491959,-6.6e-4 -0.7398,-0.153955 q -0.138376,-0.087 -0.138215,-0.206891 q 1.22e-4,-0.09095 0.06015,-0.152881 q 0.0621,-0.064 0.148914,-0.06388 q 0.05994,8e-5 0.123968,0.04151 q 0.09087,0.06213 0.171455,0.08291 q 0.123984,0.02911 0.341025,0.0294 q 0.370002,4.96e-4 0.535494,-0.09437 q 0.165495,-0.09693 0.16573,-0.272629 q 1.75e-4,-0.130224 -0.09682,-0.250244 q -0.09492,-0.122084 -0.256062,-0.188446 q -0.09297,-0.03733 -0.314123,-0.0521 q -0.105411,-0.0063 -0.163211,-0.0643 q -0.05573,-0.06002 -0.05561,-0.146836 q 1.22e-4,-0.09095 0.06222,-0.152878 q 0.06209,-0.06193 0.157179,-0.0618 q 0.21084,2.82e-4 0.225312,-0.0018 q 0.08269,-0.0082 0.165436,-0.05352 q 0.08274,-0.04536 0.132458,-0.123846 q 0.05179,-0.08055 0.0519,-0.165295 q 1.8e-4,-0.134358 -0.119578,-0.23167 q -0.117689,-0.09938 -0.3554,-0.0997 q -0.305924,-4.1e-4 -0.467393,0.17714 q -0.04761,0.05161 -0.07657,0.06604 q -0.04344,0.02268 -0.09718,0.02261 q -0.08682,-1.17e-4 -0.148744,-0.06221 q -0.06193,-0.06209 -0.06181,-0.153045 q 1.91e-4,-0.142627 0.190541,-0.27673 q 0.277248,-0.195999 0.692726,-0.195441 q 0.39274,5.27e-4 0.630152,0.224087 q 0.237412,0.223561 0.23699,0.537753 q -2.19e-4,0.163297 -0.07069,0.30583 q -0.07047,0.140465 -0.211189,0.260166 z m 1.788007,0.966378 l 0.927457,-0.03474 q 0.07411,-0.06483 0.142272,-0.06738 q 0.09708,-0.0036 0.155253,0.05831 q 0.06024,0.06187 0.06604,0.216788 l 0.0076,0.202429 l -1.929278,0.07226 l -0.01679,-0.448237 q 1.108991,-0.986842 1.336401,-1.266334 q 0.114622,-0.142883 0.10998,-0.266819 q -0.0058,-0.154921 -0.146542,-0.267554 q -0.138752,-0.114777 -0.363903,-0.106344 q -0.227217,0.0085 -0.373055,0.146357 q -0.07586,0.07317 -0.118188,0.213345 q -0.02567,0.08784 -0.07592,0.126954 q -0.04818,0.03904 -0.122543,0.04182 q -0.08676,0.0032 -0.153111,-0.05632 q -0.06429,-0.05965 -0.06738,-0.142272 q -0.0046,-0.123936 0.102003,-0.314096 q 0.108711,-0.190237 0.323488,-0.30998 q 0.216842,-0.119821 0.475043,-0.129492 q 0.400728,-0.01501 0.665992,0.21914 q 0.265187,0.232083 0.278107,0.577039 q 0.0066,0.175577 -0.06214,0.329152 q -0.06673,0.151431 -0.33568,0.426273 q -0.211141,0.216827 -0.82509,0.779701 z"
 id="text7188"
 style="font-weight:bold;font-size:4.23333px;line-height:4.0246px;font-family:'Courier New';-inkscape-font-specification:'Courier New Bold';letter-spacing:0.264583px;word-spacing:0.529167px;baseline-shift:baseline;fill:#333333;stroke-width:0.999999px"
 aria-label=" 14:32" />
<path
 style="font-weight:900;font-size:3.52777px;line-height:3.35383px;font-family:'DIN Pro';-inkscape-font-specification:'DIN Pro Heavy';letter-spacing:0.132292px;word-spacing:0.264583px;baseline-shift:baseline;fill:#e62e6c;stroke-width:0.999999px"
 d="m 60.376646,20.459297 l -0.155371,-1.643669 l -0.61462,0.0581 l 0.154043,1.629621 c 0.02258,0.238824 -0.104437,0.357135 -0.294092,0.375062 c -0.136972,0.01295 -0.204838,-0.03025 -0.289408,-0.100209 l -0.366047,0.43856 c 0.222958,0.184447 0.41574,0.237094 0.707246,0.209539 c 0.470623,-0.04449 0.914355,-0.373455 0.858249,-0.967002 z m 2.22748,-0.03148 l -0.01304,-0.239534 c -0.02839,-0.521337 -0.352814,-0.899366 -0.902332,-0.869442 c -0.496679,0.02705 -0.829944,0.394962 -0.796183,1.014931 c 0.0445,0.817232 0.535341,0.942422 0.954524,0.919595 c 0.352255,-0.01918 0.536718,-0.135217 0.719909,-0.339508 L 62.202991,20.58745 c -0.09659,0.107717 -0.181586,0.168873 -0.382371,0.179807 c -0.214876,0.0117 -0.342316,-0.122679 -0.350756,-0.277671 z m -0.591562,-0.352883 l -0.563608,0.03069 c -0.0025,-0.04579 0.0019,-0.09549 0.02365,-0.149674 c 0.03101,-0.07941 0.104665,-0.154085 0.242045,-0.161566 c 0.137379,-0.0075 0.218712,0.05875 0.258157,0.134327 c 0.02754,0.0515 0.03727,0.100428 0.03976,0.146221 z m 2.721046,1.053389 l -0.05232,-1.897218 l -0.578334,0.01595 l 0.03132,1.13551 c 0.006,0.218639 -0.147967,0.265235 -0.225548,0.267374 c -0.07758,0.0021 -0.233912,-0.0359 -0.239941,-0.254537 l -0.03131,-1.13551 l -0.578334,0.01595 l 0.03345,1.213092 c 0.0055,0.201006 0.03872,0.380076 0.205404,0.537818 c 0.105087,0.09945 0.251323,0.155408 0.431171,0.150449 c 0.151637,-0.0042 0.322779,-0.0689 0.435941,-0.188478 l 0.0043,0.155163 z m 2.963547,-0.02589 l -0.0095,-2.511754 l -0.57855,0.0022 l -0.534463,0.467683 l 0.0023,0.617355 l 0.534463,-0.467682 l 0.0071,1.894399 z m 2.466576,0.0057 l 0.0018,-0.522107 l -0.910159,-0.0032 l 0.601966,-0.632871 c 0.201831,-0.210953 0.311691,-0.351675 0.312628,-0.616257 c 0.0017,-0.472718 -0.335978,-0.759665 -0.801641,-0.761314 c -0.437441,-0.0015 -0.812344,0.268764 -0.814093,0.762649 l 0.578551,0.002 c 6.87e-4,-0.194026 0.127861,-0.242965 0.233693,-0.24259 c 0.148166,5.25e-4 0.225439,0.09605 0.224952,0.233631 c -3.75e-4,0.105832 -0.03588,0.169207 -0.127948,0.267659 l -0.913657,0.984547 l -0.0018,0.522106 z m 3.268769,-0.930749 c 0.0017,-0.370412 -0.04687,-0.554079 -0.204831,-0.72766 C 73.115329,19.32927 72.925393,19.204933 72.61848,19.203537 c -0.306913,-0.0014 -0.497972,0.121208 -0.611405,0.240638 c -0.159534,0.172137 -0.209756,0.355354 -0.211441,0.725766 c -0.0017,0.37394 0.04687,0.554079 0.204831,0.72766 c 0.112342,0.120456 0.302278,0.244793 0.609191,0.246189 c 0.306913,0.0014 0.497972,-0.121208 0.611405,-0.240638 c 0.159534,-0.172137 0.209741,-0.351827 0.211441,-0.725766 z m -0.578548,-0.0026 c -8.5e-4,0.186969 -0.01204,0.320975 -0.08646,0.394721 c -0.03544,0.03512 -0.08491,0.05253 -0.15546,0.05221 c -0.07055,-3.21e-4 -0.119863,-0.01818 -0.15498,-0.05362 c -0.07375,-0.07442 -0.08372,-0.208522 -0.08287,-0.395491 c 8.51e-4,-0.18697 0.01204,-0.320976 0.08646,-0.394722 c 0.03544,-0.03512 0.08491,-0.05253 0.155461,-0.05221 c 0.07055,3.21e-4 0.119862,0.01818 0.154979,0.05362 c 0.07375,0.07442 0.08372,0.208522 0.08287,0.395492 z m 2.471241,0.72835 L 74.932916,20.51222 c -0.07395,0.07422 -0.137382,0.113133 -0.232632,0.113303 c -0.07761,1.38e-4 -0.130571,-0.02446 -0.180048,-0.07376 c -0.06715,-0.07044 -0.0956,-0.193858 -0.09591,-0.373774 c -3.2e-4,-0.179916 0.02768,-0.303438 0.09458,-0.374112 c 0.0493,-0.04948 0.102174,-0.07427 0.179784,-0.0744 c 0.09525,-1.7e-4 0.158819,0.03852 0.233034,0.112474 l 0.390885,-0.392279 C 75.16711,19.29472 74.962342,19.206891 74.69776,19.207361 c -0.328082,5.84e-4 -0.853468,0.142631 -0.851992,0.971655 c 0.0015,0.829025 0.527363,0.9692 0.855446,0.968616 c 0.264582,-4.71e-4 0.469035,-0.08903 0.623981,-0.244527 z m 1.336538,0.206903 l -0.0061,-0.486793 l -0.183429,0.0023 c -0.0776,9.79e-4 -0.116942,-0.04086 -0.117876,-0.114938 l -0.0098,-0.776048 l 0.299837,-0.0038 l -0.0056,-0.444464 l -0.299837,0.0038 l -0.0069,-0.543233 l -0.578508,0.0073 l 0.0069,0.543233 l -0.172847,0.0022 l 0.0056,0.444464 l 0.172847,-0.0022 l 0.01033,0.818378 c 0.0033,0.261034 0.176396,0.558734 0.596167,0.553438 z"
 id="text7194"
 aria-label="Jeu 12 oct" />
<path
 d="m 27.194562,21.701242 c 7.62152,-0.18305 23.18953,-0.47381 25.67532,0.96136"
 style="font-variation-settings:normal;overflow:visible;opacity:1;vector-effect:none;fill:none;fill-opacity:1;fill-rule:evenodd;stroke:none;stroke-width:0.3;stroke-linecap:butt;stroke-linejoin:miter;stroke-miterlimit:4;stroke-dasharray:none;stroke-dashoffset:0;stroke-opacity:1;-inkscape-stroke:none;stop-color:#000000;stop-opacity:1"
 id="path7130"
 sodipodi:nodetypes="cc" />
<path
 style="font-variation-settings:normal;opacity:1;vector-effect:none;fill:#e62e6c;fill-opacity:1;fill-rule:evenodd;stroke:#8c113a;stroke-width:0.3;stroke-linecap:round;stroke-linejoin:round;stroke-miterlimit:4;stroke-dasharray:none;stroke-dashoffset:0;stroke-opacity:1;-inkscape-stroke:none;stop-color:#000000;stop-opacity:1"
 d="m 52.849542,17.128782 l -0.0156,27.91155 c 0.265415,-0.525715 0.987405,-1.226465 1.323774,-1.508532 l 1.097056,0.913872 l -0.23317,-28.22507 c -0.7327,0.19406 -1.47121,0.31532 -2.17206,0.90818 z"
 id="path7258"
 sodipodi:nodetypes="cccccc" />
<path
 d="m 27.169662,33.005952 c 9.14246,-0.14416 25.01952,0.28494 25.67988,0.74096"
 style="font-variation-settings:normal;overflow:visible;opacity:1;vector-effect:none;fill:none;fill-opacity:1;fill-rule:evenodd;stroke:none;stroke-width:0.3;stroke-linecap:butt;stroke-linejoin:miter;stroke-miterlimit:4;stroke-dasharray:none;stroke-dashoffset:0;stroke-opacity:1;-inkscape-stroke:none;stop-color:#000000;stop-opacity:1"
 id="path10150"
 sodipodi:nodetypes="cc" />
<path
 d="m 29.051147,21.658175 l -0.01258,-0.550188 l -1.054528,0.02412 l -0.04485,-1.960928 l -0.617198,0.01411 l 0.05743,2.511116 z m 2.130204,-0.04266 l -0.03716,-1.897576 l -0.578444,0.01133 l 0.02224,1.135725 c 0.0043,0.218679 -0.150081,0.264044 -0.227677,0.265564 c -0.0776,0.0015 -0.233617,-0.03777 -0.237899,-0.256446 l -0.02224,-1.135724 l -0.578444,0.01133 l 0.02376,1.21332 c 0.0039,0.201045 0.03568,0.380374 0.201101,0.539443 c 0.104289,0.100282 0.250074,0.157411 0.429956,0.153888 c 0.151665,-0.003 0.323318,-0.06632 0.437432,-0.18499 l 0.003,0.155193 z m 2.18621,-0.03485 l -0.0186,-1.21341 c -0.0031,-0.201059 -0.03406,-0.380522 -0.198805,-0.540293 c -0.103861,-0.100725 -0.249402,-0.158473 -0.429297,-0.155716 c -0.151676,0.0023 -0.323597,0.06494 -0.438216,0.183127 l -0.0024,-0.155204 l -0.564377,0.0087 l 0.02909,1.897717 l 0.578487,-0.0089 l -0.01741,-1.135808 c -0.0034,-0.218696 0.151202,-0.263404 0.228804,-0.264593 c 0.0776,-0.0012 0.233454,0.03876 0.236807,0.257455 l 0.01741,1.135809 z m 3.333078,-1.756636 c -0.0038,-0.532679 -0.390324,-0.805074 -0.841866,-0.801829 c -0.451543,0.0032 -0.834083,0.281168 -0.830254,0.813848 c 0.0036,0.497403 0.368803,0.755839 0.675711,0.753633 c 0.0388,-2.79e-4 0.09172,-6.59e-4 0.14098,-0.01865 l -0.490328,0.987797 l 0.634982,-0.0046 l 0.496978,-1.044291 c 0.139028,-0.290284 0.215369,-0.467226 0.213797,-0.685942 z m -0.578539,0.0042 c 0.0013,0.186967 -0.11436,0.286578 -0.255467,0.287593 c -0.141107,0.001 -0.258231,-0.09692 -0.259575,-0.283891 c -0.0013,-0.186967 0.11436,-0.286579 0.255467,-0.287593 c 0.141107,-0.001 0.258231,0.09692 0.259575,0.283891 z m 3.832675,0.773927 c 0.0013,-0.370413 -0.04742,-0.554032 -0.205552,-0.727456 c -0.112461,-0.120345 -0.30252,-0.244494 -0.609434,-0.245586 c -0.306914,-0.0011 -0.497852,0.121701 -0.611166,0.241243 c -0.159364,0.172295 -0.209405,0.355562 -0.210723,0.725975 c -0.0013,0.373942 0.04742,0.554032 0.205551,0.727457 c 0.112462,0.120345 0.302521,0.244494 0.609435,0.245586 c 0.306914,0.0011 0.497851,-0.121702 0.611166,-0.241243 c 0.159364,-0.172295 0.209392,-0.352035 0.210723,-0.725976 z m -0.578551,-0.0021 c -6.65e-4,0.18697 -0.01172,0.320987 -0.08607,0.394806 c -0.0354,0.03515 -0.08485,0.05261 -0.155409,0.05236 c -0.07055,-2.51e-4 -0.11988,-0.01807 -0.155032,-0.05347 c -0.07382,-0.07435 -0.08393,-0.208439 -0.08326,-0.395409 c 6.66e-4,-0.186971 0.01173,-0.320988 0.08607,-0.394807 c 0.0354,-0.03515 0.08485,-0.05261 0.155409,-0.05236 c 0.07055,2.51e-4 0.119881,0.01807 0.155033,0.05347 c 0.07382,0.07435 0.08393,0.208438 0.08326,0.395409 z m 2.477667,0.749647 L 41.46698,20.953507 c -0.07496,0.0732 -0.138912,0.111249 -0.234155,0.11012 c -0.07761,-9.21e-4 -0.130226,-0.02624 -0.179025,-0.07621 c -0.06619,-0.07134 -0.09294,-0.195143 -0.09081,-0.375047 c 0.0021,-0.179904 0.03182,-0.303032 0.09968,-0.372788 c 0.04997,-0.0488 0.103176,-0.07286 0.180782,-0.07194 c 0.09524,0.0011 0.158278,0.04069 0.231477,0.115642 l 0.396199,-0.386911 c -0.15337,-0.157052 -0.35692,-0.247666 -0.621484,-0.250804 c -0.32806,-0.0039 -0.855334,0.130976 -0.865166,0.959944 c -0.0098,0.828967 0.514095,0.976302 0.842155,0.980193 c 0.264564,0.0031 0.470206,-0.08262 0.627258,-0.235994 z m 1.328376,0.248791 l 0.0099,-0.486731 l -0.183406,-0.0037 c -0.0776,-0.0016 -0.11553,-0.0447 -0.114021,-0.118765 l 0.01581,-0.775948 l 0.299799,0.0061 l 0.0091,-0.444407 l -0.299798,-0.0061 l 0.01107,-0.543164 l -0.578434,-0.01179 l -0.01107,0.543164 L 42.16837,19.7536 l -0.0091,0.444406 l 0.172825,0.0035 l -0.01667,0.818273 c -0.0053,0.261001 0.157869,0.564249 0.577587,0.572802 z"
 id="text7170"
 style="font-weight:900;font-size:3.52777px;line-height:3.35383px;font-family:'DIN Pro';-inkscape-font-specification:'DIN Pro Heavy';letter-spacing:0.132292px;word-spacing:0.264583px;baseline-shift:baseline;fill:#e62e6c;stroke-width:0.999999px"
 aria-label="Lun 9 oct" />
<path
 style="font-weight:900;font-size:3.52777px;line-height:3.35383px;font-family:'DIN Pro';-inkscape-font-specification:'DIN Pro Heavy';letter-spacing:0.132292px;word-spacing:0.264583px;baseline-shift:baseline;fill:#e62e6c;stroke-width:0.999999px"
 d="m 29.754754,32.977754 l -0.02328,-2.511665 l -0.60675,0.0056 l -0.554154,1.112904 l -0.574684,-1.102442 l -0.606751,0.0056 l 0.02328,2.511665 l 0.617333,-0.0057 L 28.0186,31.790823 l 0.362043,0.617559 l 0.395093,-0.0037 l 0.350536,-0.624163 l 0.01115,1.202918 z m 2.097324,-3.97e-4 l -3.5e-4,-1.231192 c -1.31e-4,-0.462138 -0.293,-0.687832 -0.836277,-0.687678 c -0.321027,9.1e-5 -0.493868,0.06717 -0.687841,0.261251 l 0.359935,0.35973 c 0.0917,-0.09175 0.169295,-0.134103 0.299822,-0.13414 c 0.201083,-5.8e-5 0.285768,0.06342 0.285817,0.236279 l 1.4e-5,0.04939 l -0.373944,1.06e-4 c -0.462138,1.31e-4 -0.65609,0.264769 -0.656009,0.550518 c 5e-5,0.176389 0.05654,0.335122 0.165932,0.444452 c 0.105863,0.105803 0.26463,0.169258 0.45513,0.169204 c 0.201083,-5.7e-5 0.3069,-0.05653 0.423283,-0.172981 l 4.4e-5,0.155222 z m -0.578757,-0.712445 c 2.8e-5,0.09878 -0.01407,0.151698 -0.05992,0.194044 c -0.05996,0.05293 -0.11287,0.06706 -0.208119,0.06709 c -0.141111,4e-5 -0.208158,-0.06697 -0.208183,-0.155163 c -2.7e-5,-0.09525 0.06698,-0.155241 0.201039,-0.155279 l 0.275166,-7.8e-5 z m 2.585041,-1.021005 C 33.728495,31.112723 33.601728,31.066223 33.414759,31.06528 c -0.197553,-9.97e-4 -0.363819,0.08989 -0.448911,0.174126 l 7.83e-4,-0.155219 l -0.564436,-0.0028 l -0.0096,1.897916 l 0.578547,0.0029 l 0.0057,-1.135928 c 0.0011,-0.215191 0.156536,-0.260269 0.234146,-0.259877 c 0.09878,4.98e-4 0.151479,0.0431 0.207638,0.09983 z m 2.735657,1.771708 l 0.03111,-2.511579 l -0.578509,-0.0072 l -0.541948,0.458988 l -0.0076,0.617312 l 0.541948,-0.458988 l -0.02346,1.894267 z m 2.466534,-0.723097 l 0.01668,-0.987635 c 0.0088,-0.518508 -0.378298,-0.789667 -0.794515,-0.796698 c -0.416218,-0.007 -0.812213,0.250899 -0.820973,0.769407 l -0.01668,0.987635 c -0.0088,0.518508 0.378298,0.789667 0.794515,0.796699 c 0.416218,0.007 0.812213,-0.2509 0.820973,-0.769408 z m -0.578532,-0.0062 c -0.003,0.176363 -0.110168,0.255703 -0.233622,0.253617 c -0.123454,-0.0021 -0.227902,-0.085 -0.224922,-0.261363 l 0.01674,-0.991162 c 0.003,-0.176364 0.110227,-0.259231 0.233682,-0.257145 c 0.123454,0.0021 0.227842,0.08853 0.224863,0.264891 z m 3.864155,-0.107829 c 0.0089,-0.370308 -0.03605,-0.554888 -0.19059,-0.731519 c -0.10997,-0.122626 -0.297443,-0.250646 -0.60427,-0.258032 c -0.306827,-0.0074 -0.500243,0.111467 -0.615985,0.228659 c -0.162864,0.168991 -0.216653,0.351193 -0.225566,0.721502 c -0.009,0.373835 0.03605,0.554888 0.19059,0.731519 c 0.10997,0.122626 0.297443,0.250646 0.60427,0.258032 c 0.306827,0.0074 0.500243,-0.111466 0.615985,-0.228659 c 0.162863,-0.168991 0.216567,-0.347666 0.225566,-0.721502 z m -0.578387,-0.01392 c -0.0045,0.186917 -0.0183,0.320679 -0.09415,0.392958 c -0.03612,0.03442 -0.08591,0.05086 -0.15645,0.04917 c -0.07053,-0.0017 -0.119485,-0.02052 -0.153904,-0.05664 c -0.07228,-0.07585 -0.07963,-0.210116 -0.07513,-0.397034 c 0.0045,-0.186917 0.01831,-0.320679 0.09415,-0.392958 c 0.03612,-0.03442 0.08592,-0.05086 0.156451,-0.04917 c 0.07053,0.0017 0.119485,0.02052 0.153903,0.05664 c 0.07228,0.07585 0.07963,0.210116 0.07513,0.397034 z m 2.458634,0.794312 l -0.380121,-0.402718 c -0.07619,0.07191 -0.140783,0.108872 -0.235993,0.106123 c -0.07758,-0.0022 -0.129761,-0.02845 -0.177704,-0.07924 c -0.06496,-0.07246 -0.08961,-0.196694 -0.08442,-0.376536 c 0.0052,-0.179841 0.03697,-0.302447 0.106,-0.371039 c 0.05079,-0.04794 0.104401,-0.0711 0.181979,-0.06886 c 0.09521,0.0027 0.157564,0.04337 0.229479,0.11956 l 0.402718,-0.380121 C 44.117683,31.346362 43.915702,31.252301 43.65123,31.244666 c -0.327946,-0.0095 -0.857437,0.116418 -0.881358,0.945099 c -0.02392,0.828681 0.497426,0.9849 0.825372,0.994367 c 0.264472,0.0076 0.471542,-0.07462 0.631179,-0.225298 z m 1.322815,0.266379 l 0.01631,-0.486559 l -0.183341,-0.0061 c -0.07757,-0.0026 -0.114933,-0.04621 -0.112451,-0.120251 l 0.026,-0.775674 l 0.299692,0.01005 l 0.01489,-0.44425 l -0.299692,-0.01004 l 0.0182,-0.542972 l -0.57823,-0.01938 l -0.0182,0.542972 l -0.172763,-0.0058 l -0.01489,0.44425 l 0.172764,0.0058 l -0.02742,0.817984 c -0.0087,0.260908 0.150448,0.566273 0.570017,0.580336 z"
 id="text7152"
 aria-label="Mar 10 oct" />
</g>
</svg>
