<?xml version="1.0" encoding="UTF-8"?>
<svg width="63.295mm" height="30.581mm" version="1.1" viewBox="0 0 63.295 30.581" xmlns="http://www.w3.org/2000/svg">
<g transform="translate(-21.045 -14.878)">
<g fill="#fff" fill-rule="evenodd">
<rect x="54.785" y="17.297" width="29.404" height="25.094" color="#000000" stop-color="#000000" style="-inkscape-stroke:none"/>
<rect x="21.195" y="18.287" width="31.641" height="24.604" color="#000000" stop-color="#000000" style="-inkscape-stroke:none"/>
<rect x="22.195" y="17.287" width="31.641" height="24.604" color="#000000" stop-color="#000000" style="-inkscape-stroke:none"/>
<rect x="54.785" y="16.297" width="28.404" height="25.094" color="#000000" stop-color="#000000" style="-inkscape-stroke:none"/>
</g>
<g fill="none" stroke="#b3b3b3" stroke-linecap="round" stroke-linejoin="round" stroke-width=".3">
<path d="m51.8 42.891h-30.606v-24.635" stop-color="#000000" style="-inkscape-stroke:none;font-variation-settings:normal"/>
<path d="m84.189 17.256v25.135h-28.122" stop-color="#000000" style="-inkscape-stroke:none;font-variation-settings:normal"/>
<path d="m51.854 41.891h-29.659v-24.635" stop-color="#000000" style="-inkscape-stroke:none;font-variation-settings:normal"/>
<path d="m83.189 16.256v25.135h-27.034" stop-color="#000000" style="-inkscape-stroke:none;font-variation-settings:normal"/>
</g>
<path d="m23.195 16.256c2.5217 0 26.516-0.93945 29.655 0.87264 2.7945-2.7945 24.433-0.73325 29.329-2.0554l0.2093 23.742c-5.8471 3.3758-22.097-0.0411-29.539 2.8514-0.76745-0.52999-22.087-1.0236-29.503-0.62327z" fill="#fff" fill-rule="evenodd" stop-color="#000000" stroke="#4d4d4d" stroke-width=".3" style="-inkscape-stroke:none;font-variation-settings:normal"/>
<g fill="none">
<path id="g" d="m58.867 21.477c7.2496-0.86322 19.461 0.19028 23.312-0.84977" stop-color="#000000" style="-inkscape-stroke:none;font-variation-settings:normal"/>
<path id="f" d="m58.873 26.476c7.2514-0.86196 19.456 0.1907 23.306-0.84907" stop-color="#000000" style="-inkscape-stroke:none;font-variation-settings:normal"/>
<path id="e" d="m58.828 32.814c8.2051-1.0705 18.61 0.93963 23.56-1.9181" stop-color="#000000" style="-inkscape-stroke:none;font-variation-settings:normal"/>
<path id="d" d="m58.883 37.807c8.2054-1.0546 18.567 0.94037 23.505-1.9111" stop-color="#000000" style="-inkscape-stroke:none;font-variation-settings:normal"/>
<path id="c" d="m27.17 38.006c9.1425-0.14416 25.02 0.28494 25.68 0.74096" stop-color="#000000" style="-inkscape-stroke:none;font-variation-settings:normal"/>
<path id="b" d="m27.195 26.701c7.6215-0.18305 23.19-0.47381 25.675 0.96136" stop-color="#000000" style="-inkscape-stroke:none;font-variation-settings:normal"/>
</g>
<path d="m52.85 17.469v24.131" fill="#fff" fill-rule="evenodd" stop-color="#000000" stroke="#4d4d4d" stroke-width=".3" style="-inkscape-stroke:none;font-variation-settings:normal"/>
<g fill="#333" font-family="'Courier New'" font-size="4.2333px" font-weight="bold" letter-spacing=".26458px" stroke-width="1px" word-spacing=".52917px">
<path d="m31.959 23.859 0.03911 2.3189 0.42782-0.0072q0.15294-0.0026 0.21802 0.05628 0.06711 0.05675 0.06871 0.15182 0.0016 0.093-0.06356 0.15405-0.06309 0.05895-0.21603 0.06153l-1.2793 0.02157q-0.15294 0.0026-0.22005-0.05418-0.06508-0.05885-0.06668-0.15392-0.0016-0.093 0.06152-0.15195 0.06512-0.06105 0.21806-0.06363l0.42782-0.0072-0.0298-1.7671-0.37654 0.10558q-0.09052 0.02633-0.13599 0.0271-0.0806 0.0014-0.14162-0.0617-0.05895-0.06309-0.06052-0.1561-0.0014-0.08474 0.04117-0.133 0.04256-0.05033 0.18041-0.08987zm2.2258 1.2646q0.1516-0.12976 0.28948-0.1891 0.13785-0.0614 0.29494-0.06306 0.33278-0.0035 0.58566 0.25842 0.25289 0.26193 0.25709 0.66085 0.0039 0.36998-0.22724 0.60187-0.2291 0.2298-0.62802 0.23401-0.33278 0.0035-0.54937-0.14924-0.2166-0.15275-0.32954-0.47404-0.11295-0.32128-0.11713-0.71814-5e-3 -0.47539 0.2087-0.79185 0.21369-0.31853 0.50537-0.49524t0.61825-0.18016q0.25837-0.0027 0.40205 0.09705 0.09373 0.06723 0.09484 0.17264 9.8e-4 0.09301-0.06035 0.15774-0.06135 0.06266-0.14816 0.06358-0.04961 5.23e-4 -0.14314-0.0481-0.05611-0.02835-0.10778-0.0278-0.20256 0.0021-0.41837 0.12017-0.21583 0.11597-0.37248 0.35534-0.1078 0.16651-0.15479 0.41506zm0.06892 0.65456q0.06876 0.24733 0.18133 0.3371 0.11464 0.08975 0.3234 0.08754 0.20876-0.0022 0.31922-0.11292 0.11253-0.11074 0.11054-0.29884-0.0023-0.21496-0.13399-0.3562-0.12965-0.14127-0.29087-0.13957-0.12815 0.0014-0.27357 0.12898-0.14336 0.12761-0.23606 0.3539zm3.4679-0.82536q2.98e-4 0.11989-0.08425 0.20071-0.08455 0.08083-0.23337 0.0812-0.14883 3.71e-4 -0.23378-0.08003-0.08495-0.0804-0.08525-0.20029-2.99e-4 -0.11989 0.08425-0.20071 0.08455-0.08083 0.23337-0.0812 0.14883-3.71e-4 0.23378 0.08003 0.08495 0.0804 0.08525 0.20029zm0.0076 1.387q2.99e-4 0.11989-0.08425 0.20071-0.08455 0.08083-0.23337 0.0812-0.14883 3.71e-4 -0.23378-0.08003-0.08495-0.0804-0.08525-0.20029-2.99e-4 -0.11989 0.08425-0.20071 0.08455-0.08083 0.23337-0.0812 0.14883-3.71e-4 0.23378 0.08003 0.08495 0.0804 0.08525 0.20029zm3.1015-1.1968q0.18706 0.12966 0.27872 0.2999 0.09167 0.16817 0.08999 0.37694-0.0018 0.2253-0.12737 0.41653-0.12348 0.18918-0.35784 0.28652-0.23435 0.09527-0.6126 0.09223-0.49194-4e-3 -0.73875-0.1589-0.13779-0.08793-0.13683-0.20781 7.3e-4 -0.09095 0.06117-0.15247 0.06252-0.06358 0.14934-0.06288 0.05994 4.82e-4 0.12369 0.04234 0.09045 0.06274 0.1709 0.08406 0.12379 0.02993 0.34082 0.03168 0.36999 3e-3 0.53611-0.09078 0.16614-0.09582 0.16755-0.27151 1e-3 -0.13022-0.09514-0.25088-0.0941-0.12272-0.25479-0.19015-0.09271-0.03795-0.31376-0.0542-0.10537-7e-3 -0.16278-0.06539-0.05533-0.06039-0.05463-0.1472 7.31e-4 -0.09095 0.06324-0.15246 0.06251-0.06151 0.15759-0.06075 0.21083 0.0017 0.22532-2.57e-4 0.08275-0.0076 0.16579-0.05241t0.13328-0.12296q0.05232-0.0802 0.053-0.16494 0.0011-0.13435-0.11802-0.23246-0.11702-0.10016-0.35472-0.10207-0.30591-0.0025-0.46856 0.17401-0.04796 0.05129-0.07701 0.06553-0.04359 0.02239-0.09733 0.02196-0.08681-6.98e-4 -0.14832-0.0632-0.06151-0.06251-0.06078-0.15345 0.0011-0.14262 0.19239-0.27545 0.27855-0.19414 0.69401-0.1908 0.39273 0.0032 0.62863 0.2283 0.23591 0.22514 0.23338 0.53932-0.0013 0.16329-0.07274 0.30535-0.07141 0.13999-0.21292 0.25874zm2.6756-0.78836-0.9692-0.0219q-0.01107 0.1238-0.06812 0.17834-0.05701 0.05247-0.14794 0.05042-0.09506-0.0021-0.15354-0.06756-0.05641-0.06537-0.05296-0.21829l0.0085-0.3761 1.8392 0.04155-0.0096 0.42364-0.73221 2.0262q-0.04629 0.12714-0.101 0.16933-0.0526 0.04016-0.12699 0.03848-0.08886-2e-3 -0.15152-0.06545-0.06059-0.0634-0.05877-0.14399 1e-3 -0.04546 0.03633-0.14391z" aria-label=" 16:37"/>
<path d="m31.985 35.236-0.0039 2.3192 0.42788 7.2e-4q0.15296 2.57e-4 0.21694 0.06031 0.06605 0.05799 0.06589 0.15307-1.56e-4 0.09302-0.0664 0.15285-0.06418 0.05777-0.21714 0.05751l-1.2795-0.0022q-0.15296-2.57e-4 -0.21901-0.05824-0.06398-0.06005-0.06382-0.15514 1.57e-4 -0.09302 0.06433-0.15079 0.06625-0.05983 0.21921-0.05958l0.42788 7.19e-4 3e-3 -1.7673-0.37844 0.09858q-0.09099 0.02465-0.13647 0.02457-0.08062-1.35e-4 -0.14045-0.06431-0.05777-0.06418-0.05761-0.15719 1.42e-4 -0.08475 0.04363-0.13222 0.04349-0.04954 0.18204-0.08651zm2.2058 1.3075q0.15409-0.1268 0.29309-0.18345 0.13902-0.05872 0.29611-0.05733 0.33278 0.0029 0.58054 0.26972 0.24776 0.26678 0.24424 0.66571-0.0033 0.36999-0.23887 0.59735-0.23351 0.22532-0.63243 0.22179-0.33278-0.0029-0.54637-0.15987-0.21359-0.15692-0.32029-0.48034-0.1067-0.32342-0.10319-0.72027 0.0042-0.4754 0.22401-0.78766 0.21983-0.31433 0.51487-0.48536t0.62162-0.16814q0.25837 0.0023 0.4001 0.10483 0.09241 0.06903 0.09148 0.17445-8.23e-4 0.09301-0.0634 0.15654-0.06256 0.06146-0.14937 0.06069-0.04961-4.38e-4 -0.14218-0.05087-0.05555-0.02943-0.10723-0.02989-0.20256-0.0018-0.42062 0.11204-0.21804 0.11176-0.37929 0.34806-0.11101 0.16439-0.16281 0.41198zm0.05622 0.65578q0.06395 0.24862 0.17476 0.34055 0.11288 0.09195 0.32164 0.0938 0.20876 0.0018 0.32135-0.10672 0.11465-0.10854 0.11632-0.29664 0.0019-0.21496-0.12706-0.35874-0.12689-0.14375-0.28811-0.14518-0.12815-0.0011-0.27602 0.12365-0.1458 0.1248-0.24287 0.34926zm3.4811-0.76033q-0.0018 0.11988-0.08776 0.1992-0.08595 0.07933-0.23476 0.07709-0.14881-0.0022-0.23234-0.08412-0.08353-0.08188-0.08172-0.20176 0.0018-0.11988 0.08776-0.1992 0.08595-0.07933 0.23476-0.07709 0.14881 0.0022 0.23234 0.08412 0.08353 0.08188 0.08172 0.20176zm-0.01676 1.3869q-0.0018 0.11988-0.08776 0.1992-0.08595 0.07933-0.23476 0.07709-0.14881-0.0022-0.23234-0.08412-0.08353-0.08188-0.08172-0.20176 0.0018-0.11988 0.08776-0.1992 0.08595-0.07933 0.23476-0.07709 0.14881 0.0022 0.23234 0.08412 0.08353 0.08188 0.08172 0.20176zm3.1176-1.1503q0.18535 0.1321 0.27477 0.30352 0.08946 0.16936 0.08506 0.37808-0.0048 0.22526-0.13281 0.41483-0.12594 0.18755-0.36156 0.28182-0.23557 0.0922-0.61376 0.08422-0.49185-0.01038-0.73661-0.16854-0.13663-0.08972-0.1341-0.20958 0.0019-0.09093 0.06316-0.15166 0.06335-0.06276 0.15015-0.06092 0.05993 0.0013 0.12312 0.04395 0.08962 0.06392 0.16978 0.08628 0.12338 0.03155 0.34038 0.03613 0.36992 0.0078 0.53725-0.08376 0.16738-0.09364 0.17108-0.2693 0.0027-0.13019-0.09185-0.25211-0.09249-0.12394-0.25229-0.19347-0.09221-0.03916-0.31303-0.0583-0.10526-0.0084-0.16191-0.06751-0.05453-0.06111-0.0527-0.1479 0.0019-0.09093 0.06523-0.15162 0.06331-0.06069 0.15837-0.05868 0.21079 0.0045 0.2253 0.0027 0.08284-0.0065 0.16646-0.05024 0.08362-0.04372 0.13488-0.1212 0.05337-0.07951 0.05515-0.16424 0.0028-0.13433-0.11498-0.23399-0.11571-0.1017-0.35337-0.10672-0.30585-0.0065-0.4708 0.16787-0.04862 0.05066-0.07786 0.06452-0.04388 0.02182-0.09761 0.02068-0.0868-0.0018-0.14748-0.06514-0.06069-0.06331-0.05877-0.15424 3e-3 -0.14259 0.19597-0.27291 0.28107-0.19048 0.69645-0.18171 0.39265 0.0083 0.6256 0.2365 0.23294 0.22821 0.22631 0.54233-0.0034 0.16326-0.07672 0.30437-0.07323 0.13904-0.21629 0.25594zm2.6667-0.76711-0.96907-0.02687q-0.0117 0.12375-0.06904 0.17799-0.05728 0.05217-0.14819 0.04965-0.09505-0.0026-0.15319-0.06835-0.05608-0.06566-0.05184-0.21856l0.01043-0.37606 1.839 0.05099-0.01174 0.42358-0.7426 2.0224q-0.04694 0.1269-0.10187 0.16881-0.0528 0.03989-0.12719 0.03783-0.08885-0.0025-0.15118-0.06623-0.06027-0.06371-0.05803-0.14429 0.0013-0.04546 0.03707-0.14372z" aria-label=" 16:37"/>
<path d="m63.591 23.416 0.07583 2.318 0.42765-0.01399q0.15288-5e-3 0.21888 0.05282 0.068 0.05568 0.07111 0.15072 3e-3 0.09297-0.06111 0.15504-0.06215 0.05994-0.21503 0.06494l-1.2788 0.04183q-0.15288 5e-3 -0.22088-0.05068-0.066-0.05782-0.06911-0.15285-3e-3 -0.09297 0.05911-0.15291 0.06415-0.06208 0.21703-0.06708l0.42765-0.01399-0.05778-1.7664-0.37482 0.11153q-0.09009 0.02776-0.13554 0.02925-0.08057 0.0026-0.14258-0.05945-0.05994-0.06215-0.06298-0.15512-0.0028-0.0847 0.03906-0.13364 0.04176-0.051 0.17896-0.09272zm2.265 1.2512q0.15178-0.12956 0.28973-0.18871 0.13793-0.06122 0.29502-0.06266 0.33278-0.0031 0.58532 0.25921 0.25254 0.26227 0.25621 0.66119 0.0034 0.36998-0.22805 0.60157-0.22941 0.2295-0.62833 0.23317-0.33278 0.0031-0.54917-0.14998-0.21639-0.15304-0.3289-0.47448-0.11252-0.32144-0.11617-0.71829-0.0044-0.4754 0.20976-0.79157 0.21412-0.31824 0.50603-0.49457 0.29191-0.17632 0.61849-0.17933 0.25837-0.0024 0.40192 0.09759 0.09364 0.06735 0.09461 0.17277 8.56e-4 0.09301-0.06056 0.15766-0.06144 0.06258-0.14825 0.06338-0.04961 4.56e-4 -0.14308-0.04829-0.05607-0.02842-0.10775-0.02795-0.20256 0.0019-0.41853 0.11961-0.21598 0.11568-0.37295 0.35484-0.10803 0.16636-0.15535 0.41486zm0.06804 0.65465q0.06843 0.24742 0.18088 0.33734 0.11452 0.0899 0.32328 0.08798 0.20876-0.0019 0.31937-0.1125 0.11267-0.1106 0.11094-0.29869-2e-3 -0.21496-0.13351-0.35638-0.12946-0.14144-0.29069-0.13996-0.12815 0.0012-0.27374 0.12861-0.14353 0.12742-0.23653 0.35359zm3.4757-0.81004q-3.32e-4 0.11989-0.0853 0.20027-0.08497 0.08038-0.2338 0.07997-0.14883-4.12e-4 -0.23335-0.08126-0.08452-0.08085-0.08419-0.20074 3.33e-4 -0.11989 0.08531-0.20027 0.08497-0.08038 0.2338-0.07997 0.14883 4.13e-4 0.23335 0.08126 0.08452 0.08085 0.08419 0.20074zm2.89e-4 1.387q-3.33e-4 0.11989-0.0853 0.20027-0.08497 0.08038-0.2338 0.07997-0.14883-4.13e-4 -0.23335-0.08126-0.08452-0.08085-0.08419-0.20074 3.33e-4 -0.11989 0.08531-0.20027 0.08497-0.08038 0.2338-0.07997 0.14883 4.13e-4 0.23335 0.08126 0.08452 0.08085 0.08419 0.20074zm3.0929-1.1924q0.18742 0.12916 0.27953 0.29915 0.09212 0.16792 0.09101 0.37669-0.0012 0.2253-0.12624 0.41688-0.12297 0.18952-0.35707 0.28749-0.23409 0.09591-0.61235 0.09389-0.49195-0.0026-0.73918-0.1569-0.13803-0.08755-0.13739-0.20744 4.85e-4 -0.09095 0.06076-0.15264 0.06235-0.06375 0.14917-0.06329 0.05994 3.19e-4 0.1238 0.042 0.09062 0.06249 0.17112 0.08359 0.12387 0.0296 0.3409 0.03075 0.37 2e-3 0.53586-0.09223 0.16588-0.09627 0.16681-0.27196 6.94e-4 -0.13022-0.09582-0.25063-0.09443-0.12246-0.25531-0.18946-0.09282-0.0377-0.31391-0.05335-0.10538-0.0068-0.16295-0.06495-0.05549-0.06024-0.05503-0.14706 4.85e-4 -0.09095 0.06283-0.15263 0.06234-0.06168 0.15742-0.06117 0.21084 0.0011 0.22532-8.67e-4 0.08272-0.0078 0.16565-0.05286 0.08292-0.04503 0.13295-0.12332 0.0521-0.08034 0.05256-0.16508 7.16e-4 -0.13436-0.11865-0.23214-0.11729-0.09984-0.355-0.10111-0.30592-0.0016-0.46809 0.17528-0.04782 0.05142-0.07683 0.06574-0.04353 0.02251-0.09727 0.02222-0.08681-4.62e-4 -0.14849-0.0628-0.06168-0.06234-0.0612-0.15329 7.6e-4 -0.14262 0.19164-0.27597 0.27802-0.19489 0.69349-0.19268 0.39273 0.0021 0.62925 0.2266 0.23652 0.2245 0.23484 0.53869-8.7e-4 0.16329-0.07191 0.30554-0.07103 0.14018-0.21222 0.25932zm2.6286-0.83184-0.96944 0.0027q-0.0079 0.12404-0.06357 0.18001-0.05566 0.0539-0.14661 0.05416-0.09508 2.67e-4 -0.15521-0.06364-0.05806-0.06391-0.05849-0.21688l-0.0011-0.3762 1.8397-0.0052 0.0012 0.42374-0.68052 2.0442q-0.04305 0.12828-0.09667 0.17184-0.05156 0.04149-0.12597 0.0417-0.08888 2.49e-4 -0.15314-0.06158-0.06218-0.06184-0.06241-0.14245-1.28e-4 -0.04547 0.03267-0.14478z" aria-label=" 16:37"/>
</g>
<g stroke-width="1px">
<path d="m60.683 30.088-0.63881 0.06456-0.27298 1.4388-0.56238-1.3544-0.6353 0.06421 1.0774 2.4157 0.45629-0.04612zm2.042 1.6525-0.01229-0.23958c-0.026741-0.52143-0.34997-0.90048-0.89959-0.8723-0.49677 0.02548-0.83119 0.39234-0.79939 1.0124 0.04192 0.81738 0.53237 0.94412 0.95162 0.92261 0.35232-0.01807 0.53715-0.13352 0.72098-0.33724l-0.36298-0.32756c-0.09693 0.10741-0.18212 0.1683-0.38294 0.1786-0.21491 0.01102-0.34193-0.12376-0.34988-0.27878zm-0.59045-0.35475-0.56371 0.02891c-0.0023-0.0458 0.0022-0.09549 0.02412-0.1496 0.03126-0.07932 0.10515-0.15376 0.24256-0.1608 0.1374-7e-3 0.21853 0.05944 0.25774 0.13514 0.02737 0.05158 0.03695 0.10055 0.0393 0.14635zm2.737 1.0761-0.02067-1.2134c-0.0034-0.20106-0.03471-0.38047-0.19973-0.53996-0.10403-0.10055-0.24967-0.15805-0.42957-0.15498-0.15167 0.0026-0.32349 0.06549-0.43791 0.18388l-0.0026-0.1552-0.56437 0.0096 0.03233 1.8977 0.57848-0.0099-0.01935-1.1358c-0.0037-0.21869 0.15075-0.26366 0.22835-0.26498 0.0776-0.0013 0.23352 0.03836 0.23725 0.25705l0.01935 1.1358zm2.947 0.01728 0.02635-2.5117-0.57853-0.0061-0.54108 0.46002-0.0065 0.61733 0.54108-0.46002-0.01987 1.8943zm2.4618-0.72812 0.01317-0.9877c0.0069-0.51854-0.38111-0.78832-0.79736-0.79387-0.41624-0.0055-0.81132 0.25379-0.81823 0.77234l-0.01317 0.9877c-0.0069 0.51854 0.38111 0.78832 0.79736 0.79387 0.41624 0.0055 0.81132-0.2538 0.81823-0.77234zm-0.57856-0.0042c-0.0024 0.17637-0.10926 0.2561-0.23272 0.25445-0.12346-0.0016-0.2282-0.08419-0.22585-0.26056l0.01321-0.99122c0.0024-0.17637 0.1093-0.25962 0.23277-0.25798 0.12346 0.0016 0.22816 0.08772 0.22581 0.26409zm3.8933 0.77053-0.0088-1.2135c-0.0015-0.20108-0.03097-0.38079-0.19442-0.54189-0.10304-0.10156-0.24811-0.16049-0.42802-0.15919-0.15169 0.0011-0.32412 0.06231-0.43969 0.17957l-0.0011-0.15522-0.56443 0.0041 0.0137 1.8979 0.57854-0.0042-0.0082-1.1359c-0.0016-0.21872 0.15333-0.26217 0.23094-0.26273 0.07761-5.6e-4 0.23313 0.04065 0.23471 0.25937l0.0082 1.1359zm2.0816-1.0218c-0.01506-0.37011-0.07186-0.5514-0.23751-0.71766-0.11767-0.11524-0.31304-0.23087-0.6197-0.21839-0.30666 0.01248-0.49199 0.14359-0.59991 0.26803-0.15159 0.17917-0.19348 0.36448-0.17842 0.73459 0.0152 0.37364 0.07187 0.5514 0.23751 0.71766 0.11767 0.11526 0.31304 0.23088 0.6197 0.21841 0.30666-0.01248 0.49199-0.14359 0.59991-0.26803 0.15159-0.17917 0.19363-0.36095 0.17842-0.73459zm-0.57808 0.02352c0.0076 0.18682 0.0025 0.3212-0.06853 0.39823-0.03381 0.03668-0.08245 0.05632-0.15294 0.05918-0.0705 0.0029-0.12056-0.01275-0.15725-0.04656-0.07703-0.07101-0.09306-0.20453-0.10066-0.39134s-0.0025-0.32119 0.06853-0.39823c0.03382-0.03668 0.08245-0.05631 0.15294-0.05918 0.0705-0.0029 0.12056 0.01275 0.15725 0.04656 0.07703 0.07101 0.09306 0.20453 0.10066 0.39134zm2.5178-1.1467-0.60407 0.05727-0.21616 1.0092-0.40547-0.95022-0.60407 0.05727 0.87453 1.8236 0.43901-0.04162z" fill="#e62e6c" aria-label="Ven 10 nov"/>
<path d="m62.891 37.393-0.20999 0.28237q-0.06192 0.08634-0.10469 0.11223-0.0407 0.02584-0.10063 0.02735-0.09092 0.0023-0.15654-0.05808-0.06557-0.05831-0.06786-0.14923-0.0018-0.07026 0.08623-0.18827l0.22595-0.30552q-0.29444-0.36063-0.30673-0.84829-0.01558-0.61785 0.4003-1.0171 0.33107-0.3185 0.75261-0.32913 0.34302-0.0086 0.63959 0.19064l0.16599-0.22336q0.06399-0.08639 0.10469-0.11223 0.04272-0.02796 0.10264-0.02947 0.08679-0.0022 0.15246 0.06025 0.06567 0.06244 0.06797 0.15336 0.0017 0.06819-0.08427 0.18408l-0.19393 0.26335q0.1174 0.14591 0.18894 0.35915 0.07149 0.21117 0.07738 0.44467 0.01516 0.60132-0.38424 0.99805-0.33489 0.331-0.76883 0.34195-0.30582 0.0077-0.58704-0.15682zm0.90632-1.9417q-0.18274-0.11325-0.37492-0.1084-0.29756 0.0075-0.52465 0.26756-0.22508 0.25793-0.21539 0.64228 0.0072 0.28516 0.14708 0.50288zm-0.65238 1.5982q0.16332 0.08066 0.32243 0.07665 0.29549-0.0074 0.52264-0.26544 0.22709-0.26005 0.21751-0.64027-0.0062-0.2459-0.11266-0.44998z" fill="#333" aria-label=" Ø"/>
<path d="m60.377 20.459-0.15537-1.6437-0.61463 0.0581 0.15404 1.6296c0.02258 0.23883-0.10444 0.35714-0.29409 0.37506-0.13697 0.01295-0.20484-0.03025-0.28941-0.10021l-0.36605 0.43856c0.22296 0.18445 0.41574 0.2371 0.70725 0.20954 0.47063-0.04449 0.91436-0.37346 0.85826-0.96701zm2.2275-0.03148-0.01304-0.23954c-0.02839-0.52134-0.35282-0.89938-0.90234-0.86945-0.49668 0.02705-0.82995 0.39496-0.79619 1.0149 0.0445 0.81724 0.53534 0.94243 0.95453 0.9196 0.35226-0.01918 0.53672-0.13522 0.71991-0.33951l-0.36401-0.32642c-0.09659 0.10772-0.18159 0.16888-0.38238 0.17981-0.21488 0.0117-0.34232-0.12268-0.35076-0.27767zm-0.59157-0.35289-0.56361 0.03069c-0.0025-0.04579 0.0019-0.09549 0.02365-0.14968 0.03101-0.07942 0.10467-0.15409 0.24205-0.16157 0.13738-0.0075 0.21871 0.05875 0.25816 0.13433 0.02754 0.0515 0.03727 0.10043 0.03976 0.14622zm2.7211 1.0534-0.05232-1.8972-0.57834 0.01595 0.03132 1.1355c6e-3 0.21864-0.14797 0.26524-0.22555 0.26738-0.07758 0.0021-0.23391-0.0359-0.23994-0.25454l-0.03131-1.1355-0.57834 0.01595 0.03345 1.2131c0.0055 0.20101 0.03872 0.38008 0.20541 0.53782 0.10509 0.09945 0.25132 0.15541 0.43118 0.15045 0.15164-0.0042 0.32278-0.0689 0.43594-0.18848l0.0043 0.15516zm3.3522-1.7525c-2e-3 -0.53269-0.38757-0.80641-0.83913-0.80471-0.45156 0.0017-0.83505 0.27832-0.83304 0.81101 0.0019 0.49742 0.36622 0.7571 0.67314 0.75595 0.03881-1.46e-4 0.09172-3.45e-4 0.14104-0.01817l-0.49371 0.98612 0.635-0.0024 0.50055-1.0426c0.14002-0.28981 0.21697-0.46649 0.21614-0.68521zm-0.57856 0.0022c7.05e-4 0.18697-0.11534 0.28619-0.25645 0.28672-0.14111 5.31e-4 -0.2579-0.09781-0.2586-0.28478-7.04e-4 -0.18697 0.11534-0.28619 0.25645-0.28672 0.14111-5.31e-4 0.2579 0.09781 0.2586 0.28478zm3.8768 1.7375 0.0066-1.2135c0.0011-0.20108-0.02616-0.38115-0.18756-0.5443-0.10175-0.10286-0.24606-0.16361-0.42598-0.16459-0.15169-8.21e-4 -0.32488 0.05822-0.44192 0.174l8.4e-4 -0.15522-0.56444-0.0031-0.01027 1.8979 0.57855 0.0031 0.0061-1.1359c0.0012-0.21872 0.15663-0.26021 0.23424-0.25979s0.2326 0.04359 0.23142 0.26231l-0.0061 1.1359zm2.1296-0.93788c0.0016-0.37042-0.04693-0.55408-0.20491-0.72764-0.11236-0.12044-0.30231-0.24476-0.60922-0.24612-0.30692-0.0014-0.49796 0.12126-0.61138 0.2407-0.15952 0.17216-0.20972 0.35538-0.21136 0.7258-0.0017 0.37394 0.04693 0.55408 0.20491 0.72764 0.11236 0.12044 0.30231 0.24476 0.60922 0.24613 0.30692 0.0014 0.49796-0.12126 0.61138-0.24071 0.15952-0.17216 0.2097-0.35185 0.21136-0.7258zm-0.57855-0.0026c-8.3e-4 0.18697-0.01201 0.32098-0.08642 0.39473-0.03543 0.03512-0.0849 0.05254-0.15546 0.05223-0.07055-3.13e-4 -0.11987-0.01817-0.15499-0.05361-0.07375-0.07441-0.08374-0.20852-0.08291-0.39549 8.3e-4 -0.18697 0.01201-0.32098 0.08642-0.39473 0.03543-0.03512 0.0849-0.05254 0.15546-0.05223 0.07055 3.13e-4 0.11986 0.01817 0.15499 0.05361 0.07375 0.07441 0.08374 0.20851 0.08291 0.39548zm2.6562-0.94883-0.60678 0.0015-0.308 0.98505-0.31642-0.98347-0.60678 0.0015 0.70322 1.8962 0.44097-0.0011z" fill="#e62e6c" aria-label="Jeu 9 nov"/>
</g>
<path id="a" d="m27.195 21.701c7.6215-0.18305 23.19-0.47381 25.675 0.96136" fill="none" stop-color="#000000" style="-inkscape-stroke:none;font-variation-settings:normal"/>
<path d="m52.85 17.129-0.0156 27.912c0.26542-0.52572 0.9874-1.2265 1.3238-1.5085l1.0971 0.91387-0.23317-28.225c-0.7327 0.19406-1.4712 0.31532-2.1721 0.90818z" fill="#e62e6c" fill-rule="evenodd" stop-color="#000000" stroke="#8c113a" stroke-linecap="round" stroke-linejoin="round" stroke-width=".3" style="-inkscape-stroke:none;font-variation-settings:normal"/>
<path id="h" d="m27.17 33.006c9.1425-0.14416 25.02 0.28494 25.68 0.74096" fill="none" stop-color="#000000" style="-inkscape-stroke:none;font-variation-settings:normal"/>
<path d="m29.052 21.658-0.01258-0.55019-1.0545 0.02412-0.04485-1.9609-0.6172 0.01412 0.05743 2.5111zm2.1302-0.04266-0.03716-1.8976-0.57845 0.01133 0.02224 1.1357c0.0043 0.21868-0.15008 0.26405-0.22768 0.26557-0.0776 0.0015-0.23362-0.03777-0.2379-0.25645l-0.02224-1.1357-0.57845 0.01133 0.02376 1.2133c0.0039 0.20105 0.03568 0.38038 0.2011 0.53945 0.10429 0.10028 0.25008 0.15741 0.42996 0.15389 0.15167-3e-3 0.32332-0.06632 0.43744-0.18499l3e-3 0.15519zm2.1862-0.03485-0.0186-1.2134c-0.0031-0.20106-0.03406-0.38052-0.1988-0.5403-0.10386-0.10072-0.24941-0.15847-0.4293-0.15571-0.15168 0.0023-0.3236 0.06494-0.43822 0.18313l-0.0024-0.1552-0.56438 0.0087 0.02909 1.8977 0.57849-0.0089-0.01741-1.1358c-0.0034-0.2187 0.1512-0.26341 0.22881-0.2646 0.0776-0.0012 0.23346 0.03876 0.23681 0.25746l0.01741 1.1358zm3.3187-0.81813c-0.0036-0.49741-0.3688-0.75585-0.67572-0.75364-0.03881 2.79e-4 -0.09172 6.59e-4 -0.14098 0.01865l0.49033-0.98781-0.63499 0.0046-0.49701 1.0408c-0.16339 0.33632-0.21509 0.50604-0.21377 0.68948 0.0038 0.53268 0.39033 0.80508 0.84187 0.80184 0.45155-0.0032 0.83409-0.28117 0.83026-0.81386zm-0.57854 0.0042c0.0013 0.18697-0.11436 0.28658-0.25547 0.2876-0.14111 1e-3 -0.25823-0.09693-0.25958-0.28389-0.0013-0.18697 0.11436-0.28658 0.25547-0.2876 0.14111-1e-3 0.25823 0.09692 0.25958 0.28389zm3.8967 0.78474 0.0046-1.2136c7.57e-4 -0.20108-0.02679-0.38111-0.18846-0.54399-0.10192-0.10269-0.24633-0.16321-0.42625-0.16388-0.15169-5.71e-4 -0.32478 0.05875-0.44164 0.17473l5.84e-4 -0.15522-0.56444-0.0021-0.0071 1.8979 0.57856 0.0022 0.0043-1.1359c8.24e-4 -0.21872 0.1562-0.26047 0.23382-0.26018 0.07761 2.92e-4 0.23267 0.04321 0.23185 0.26193l-0.0043 1.1359zm2.1375-0.9241c0.0048-0.37039-0.04222-0.55446-0.19872-0.72936-0.11133-0.12143-0.30022-0.24736-0.60711-0.25133-0.30689-4e-3 -0.49898 0.11703-0.61341 0.2355-0.16097 0.17079-0.21273 0.35359-0.21752 0.72397-0.0048 0.37392 0.04222 0.55446 0.19872 0.72936 0.11133 0.1214 0.30022 0.24732 0.60711 0.25129 0.30689 4e-3 0.49898-0.11703 0.61341-0.2355 0.16097-0.17079 0.21269-0.35006 0.21752-0.72397zm-0.57851-0.0075c-0.0024 0.18696-0.01473 0.32087-0.08977 0.39399-0.03573 0.03482-0.08534 0.05182-0.1559 0.0509-0.07055-9.13e-4 -0.11971-0.01919-0.15453-0.05492-0.07312-0.07504-0.08197-0.20922-0.07955-0.39618 0.0024-0.18696 0.01474-0.32087 0.08977-0.39398 0.03573-0.03482 0.08535-0.05182 0.1559-0.0509 0.07055 9.13e-4 0.11971 0.01919 0.15453 0.05492 0.07312 0.07504 0.08197 0.20922 0.07955 0.39618zm2.6956-0.89314-0.6066-0.01469-0.33418 0.97645-0.29006-0.99157-0.6066-0.01469 0.65235 1.9143 0.44085 0.01068z" fill="#e62e6c" stroke-width="1px" aria-label="Lun 6 nov"/>
<path d="m29.755 32.978-0.02328-2.5117-0.60676 0.0056-0.55416 1.1129-0.57469-1.1024-0.60676 0.0056 0.02328 2.5117 0.61734-0.0057-0.01115-1.2029 0.36205 0.61756 0.3951-0.0037 0.35054-0.62417 0.01115 1.2029zm2.0973-3.93e-4 -3.5e-4 -1.2312c-1.31e-4 -0.46214-0.293-0.68784-0.83628-0.68768-0.32103 9.1e-5 -0.49387 0.06717-0.68785 0.26125l0.35994 0.35973c0.0917-0.09175 0.1693-0.1341 0.29982-0.13414 0.20108-5.7e-5 0.28577 0.06342 0.28582 0.23628l1.4e-5 0.04939-0.37395 1.06e-4c-0.46214 1.31e-4 -0.6561 0.26477-0.65601 0.55052 5e-5 0.17639 0.05654 0.33512 0.16593 0.44446 0.10586 0.1058 0.26463 0.16926 0.45514 0.1692 0.20108-5.7e-5 0.3069-0.05653 0.42329-0.17298l4.4e-5 0.15522zm-0.57876-0.71245c2.8e-5 0.09878-0.01407 0.1517-0.05992 0.19405-0.05996 0.05293-0.11287 0.06706-0.20812 0.06709-0.14111 4e-5 -0.20816-0.06697-0.20818-0.15516-2.7e-5 -0.09525 0.06698-0.15524 0.20104-0.15528l0.27517-7.8e-5zm2.5851-1.021c-0.12987-0.13118-0.25664-0.17769-0.44361-0.17863-0.19756-9.96e-4 -0.36382 0.08989-0.44892 0.17413l7.83e-4 -0.15522-0.56444-0.0028-0.0096 1.8979 0.57855 0.0029 0.0057-1.1359c0.0011-0.21519 0.15654-0.26027 0.23415-0.25988 0.09878 4.98e-4 0.15148 0.0431 0.20764 0.09983zm3.1695-0.21274 0.0065-0.52208-1.7214-0.02132-0.01136 0.91716 0.5503 0.0068 0.0049-0.39508 0.53618 0.0066-0.80776 1.9798 0.63496 0.0079zm3.2532 2.0478 0.02368-1.2133c0.0039-0.20105-0.02078-0.38148-0.17986-0.5469-0.10029-0.10428-0.24373-0.16707-0.42362-0.17058-0.15167-3e-3 -0.32567 0.05363-0.44433 0.16775l3e-3 -0.15519-0.56434-0.01101-0.03703 1.8976 0.57845 0.01129 0.02217-1.1357c0.0043-0.21868 0.16029-0.25798 0.23788-0.25646 0.0776 0.0015 0.23196 0.04687 0.2277 0.26555l-0.02217 1.1357zm2.1472-0.89845c9e-3 -0.37031-0.03597-0.5549-0.19048-0.73155-0.10995-0.12264-0.29741-0.25069-0.60424-0.25812-0.30683-0.0074-0.50026 0.11139-0.61602 0.22857-0.16289 0.16897-0.2167 0.35116-0.22567 0.72148-0.0091 0.37384 0.03597 0.5549 0.19048 0.73155 0.10995 0.12264 0.29741 0.25069 0.60424 0.25812 0.30683 0.0074 0.50026-0.1114 0.61602-0.22857 0.16289-0.16897 0.21662-0.34764 0.22567-0.72147zm-0.57839-0.01401c-0.0045 0.18692-0.01835 0.32068-0.09421 0.39295-0.03612 0.03441-0.08592 0.05085-0.15646 0.04914-0.07053-0.0017-0.11948-0.02054-0.1539-0.05666-0.07227-0.07585-0.0796-0.21013-0.07508-0.39705 0.0045-0.18692 0.01835-0.32068 0.09421-0.39295 0.03612-0.03441 0.08592-0.05085 0.15646-0.04914 0.07054 0.0017 0.11948 0.02054 0.1539 0.05666 0.07227 0.07586 0.0796 0.21013 0.07508 0.39705zm2.6996-0.87444-0.60652-0.01772-0.33905 0.97477-0.2851-0.993-0.60652-0.01772 0.64279 1.9175 0.44079 0.01288z" fill="#e62e6c" stroke-width="1px" aria-label="Mar 7 nov"/>
</g>
</svg>
