<?xml version="1.0" encoding="UTF-8" standalone="no"?>
<!-- Created with Inkscape (http://www.inkscape.org/) -->

<svg
 width="63.294758mm"
 height="30.580847mm"
 viewBox="0 0 63.294758 30.580847"
 version="1.1"
 id="svg8"
 xmlns="http://www.w3.org/2000/svg"
 xmlns:svg="http://www.w3.org/2000/svg"
 xmlns:rdf="http://www.w3.org/1999/02/22-rdf-syntax-ns#"
 xmlns:cc="http://creativecommons.org/ns#"
 xmlns:dc="http://purl.org/dc/elements/1.1/">
<defs
 id="defs2" />
<metadata
 id="metadata5">
<rdf:RDF>
<cc:Work
 rdf:about="">
<dc:format>image/svg+xml</dc:format>
<dc:type
 rdf:resource="http://purl.org/dc/dcmitype/StillImage" />
</cc:Work>
</rdf:RDF>
</metadata>
<g
 id="layer1"
 transform="translate(-21.044566,-14.877939)">
<path
 id="rect643"
 style="overflow:visible;fill:#ffffff;fill-rule:evenodd;stroke-width:0.300001;stop-color:#000000"
 d="M 54.785362,17.296869 H 84.189323 V 42.39109 H 54.785362 Z" />
<path
 id="rect643-3"
 style="overflow:visible;fill:#ffffff;fill-rule:evenodd;stroke-width:0.300001;stop-color:#000000"
 d="M 21.194567,18.286751 H 52.835144 V 42.89109 H 21.194567 Z" />
<path
 id="rect643-3-6"
 style="overflow:visible;fill:#ffffff;fill-rule:evenodd;stroke-width:0.300001;stop-color:#000000"
 d="M 22.194567,17.286753 H 53.835144 V 41.891092 H 22.194567 Z" />
<path
 id="rect584"
 style="overflow:visible;fill:#ffffff;fill-rule:evenodd;stroke-width:0.300001;stop-color:#000000"
 d="M 54.785362,16.296867 H 83.189325 V 41.39109 H 54.785362 Z" />
<path
 style="font-variation-settings:normal;overflow:visible;opacity:1;vector-effect:none;fill:none;fill-opacity:1;fill-rule:evenodd;stroke:#b3b3b3;stroke-width:0.3;stroke-linecap:round;stroke-linejoin:round;stroke-miterlimit:4;stroke-dasharray:none;stroke-dashoffset:0;stroke-opacity:1;-inkscape-stroke:none;stop-color:#000000;stop-opacity:1"
 d="M 51.800442,42.891092 H 21.194566 v -24.63496"
 id="path9825" />
<path
 style="font-variation-settings:normal;overflow:visible;opacity:1;vector-effect:none;fill:none;fill-opacity:1;fill-rule:evenodd;stroke:#b3b3b3;stroke-width:0.3;stroke-linecap:round;stroke-linejoin:round;stroke-miterlimit:4;stroke-dasharray:none;stroke-dashoffset:0;stroke-opacity:1;-inkscape-stroke:none;stop-color:#000000;stop-opacity:1"
 d="m 84.189322,17.256132 v 25.13496 h -28.12199"
 id="path9754" />
<path
 style="font-variation-settings:normal;overflow:visible;opacity:1;vector-effect:none;fill:none;fill-opacity:1;fill-rule:evenodd;stroke:#b3b3b3;stroke-width:0.3;stroke-linecap:round;stroke-linejoin:round;stroke-miterlimit:4;stroke-dasharray:none;stroke-dashoffset:0;stroke-opacity:1;-inkscape-stroke:none;stop-color:#000000;stop-opacity:1"
 d="M 51.854002,41.891092 H 22.194566 v -24.63496"
 id="path9829" />
<path
 style="font-variation-settings:normal;overflow:visible;opacity:1;vector-effect:none;fill:none;fill-opacity:1;fill-rule:evenodd;stroke:#b3b3b3;stroke-width:0.3;stroke-linecap:round;stroke-linejoin:round;stroke-miterlimit:4;stroke-dasharray:none;stroke-dashoffset:0;stroke-opacity:1;-inkscape-stroke:none;stop-color:#000000;stop-opacity:1"
 d="m 83.189322,16.256132 v 25.13496 h -27.03411"
 id="rect9531" />
<path
 id="path7114"
 style="font-variation-settings:normal;overflow:visible;opacity:1;vector-effect:none;fill:#ffffff;fill-opacity:1;fill-rule:evenodd;stroke:#4d4d4d;stroke-width:0.3;stroke-linecap:butt;stroke-linejoin:miter;stroke-miterlimit:4;stroke-dasharray:none;stroke-dashoffset:0;stroke-opacity:1;-inkscape-stroke:none;stop-color:#000000;stop-opacity:1"
 d="m 23.194566,16.256142 c 2.521696,0 26.516346,-0.93945 29.654976,0.87264 c 2.7945,-2.7945 24.43287,-0.73325 29.32935,-2.05543 l 0.2093,23.74208 c -5.84707,3.37581 -22.09734,-0.0411 -29.53865,2.85135 c -0.76745,-0.52999 -22.08712,-1.02358 -29.502796,-0.62327 z" />
<path
 d="m 56.866712,21.476872 c 7.24956,-0.86322 21.46053,0.19028 25.31218,-0.84977"
 style="font-variation-settings:normal;overflow:visible;opacity:1;vector-effect:none;fill:none;fill-opacity:1;fill-rule:evenodd;stroke:none;stroke-width:0.3;stroke-linecap:butt;stroke-linejoin:miter;stroke-miterlimit:4;stroke-dasharray:none;stroke-dashoffset:0;stroke-opacity:1;-inkscape-stroke:none;stop-color:#000000;stop-opacity:1"
 id="path7116" />
<path
 d="m 56.872542,26.476172 c 7.25135,-0.86196 21.45573,0.1907 25.30635,-0.84907"
 style="font-variation-settings:normal;overflow:visible;opacity:1;vector-effect:none;fill:none;fill-opacity:1;fill-rule:evenodd;stroke:none;stroke-width:0.3;stroke-linecap:butt;stroke-linejoin:miter;stroke-miterlimit:4;stroke-dasharray:none;stroke-dashoffset:0;stroke-opacity:1;-inkscape-stroke:none;stop-color:#000000;stop-opacity:1"
 id="path7118" />
<path
 d="m 56.828192,32.813702 c 8.20509,-1.07051 20.6102,0.93963 25.56,-1.91814"
 style="font-variation-settings:normal;overflow:visible;opacity:1;vector-effect:none;fill:none;fill-opacity:1;fill-rule:evenodd;stroke:none;stroke-width:0.3;stroke-linecap:butt;stroke-linejoin:miter;stroke-miterlimit:4;stroke-dasharray:none;stroke-dashoffset:0;stroke-opacity:1;-inkscape-stroke:none;stop-color:#000000;stop-opacity:1"
 id="path7120" />
<path
 d="m 56.882772,37.806632 c 8.20543,-1.05456 20.56658,0.94037 25.50542,-1.91107"
 style="font-variation-settings:normal;overflow:visible;opacity:1;vector-effect:none;fill:none;fill-opacity:1;fill-rule:evenodd;stroke:none;stroke-width:0.3;stroke-linecap:butt;stroke-linejoin:miter;stroke-miterlimit:4;stroke-dasharray:none;stroke-dashoffset:0;stroke-opacity:1;-inkscape-stroke:none;stop-color:#000000;stop-opacity:1"
 id="path7122" />
<path
 d="m 27.169662,38.005952 c 9.14246,-0.14416 25.01952,0.28494 25.67988,0.74096"
 style="font-variation-settings:normal;overflow:visible;opacity:1;vector-effect:none;fill:none;fill-opacity:1;fill-rule:evenodd;stroke:none;stroke-width:0.3;stroke-linecap:butt;stroke-linejoin:miter;stroke-miterlimit:4;stroke-dasharray:none;stroke-dashoffset:0;stroke-opacity:1;-inkscape-stroke:none;stop-color:#000000;stop-opacity:1"
 id="path7124" />
<path
 d="m 27.194562,26.701242 c 7.62152,-0.18305 23.18953,-0.47381 25.67532,0.96136"
 style="font-variation-settings:normal;overflow:visible;opacity:1;vector-effect:none;fill:none;fill-opacity:1;fill-rule:evenodd;stroke:none;stroke-width:0.3;stroke-linecap:butt;stroke-linejoin:miter;stroke-miterlimit:4;stroke-dasharray:none;stroke-dashoffset:0;stroke-opacity:1;-inkscape-stroke:none;stop-color:#000000;stop-opacity:1"
 id="path7128" />
<path
 style="font-variation-settings:normal;opacity:1;vector-effect:none;fill:#ffffff;fill-opacity:1;fill-rule:evenodd;stroke:#4d4d4d;stroke-width:0.3;stroke-linecap:butt;stroke-linejoin:miter;stroke-miterlimit:4;stroke-dasharray:none;stroke-dashoffset:0;stroke-opacity:1;-inkscape-stroke:none;stop-color:#000000;stop-opacity:1"
 d="m 52.849542,17.468722 v 24.13104"
 id="path7138" />
<g
 aria-label=" ??:??"
 id="text7158"
 style="font-weight:bold;font-size:4.23333px;line-height:4.0246px;font-family:'Courier New';-inkscape-font-specification:'Courier New Bold';letter-spacing:0.264583px;word-spacing:0.529167px;baseline-shift:baseline;opacity:1;vector-effect:none;fill:#333333;stroke-width:0.999999px;stop-color:#000000;stop-opacity:1">
<path
 d="m 31.988508,25.62426 q -0.01038,0.120081 -0.06731,0.17686 q -0.0549,0.05468 -0.1417,0.05614 q -0.093,0.0016 -0.154021,-0.06149 q -0.05898,-0.06516 -0.06156,-0.218101 l -0.004,-0.237677 q 0.498982,-0.200679 0.600577,-0.305759 q 0.101596,-0.105081 0.09978,-0.212553 q -0.0025,-0.150873 -0.12633,-0.258355 q -0.121719,-0.107517 -0.342863,-0.103788 q -0.233544,0.0039 -0.448742,0.11507 l 0.001,0.062 q 0.0025,0.150873 -0.05628,0.21802 q -0.05679,0.06505 -0.151859,0.06665 q -0.09301,0.0016 -0.154021,-0.06149 q -0.05895,-0.06309 -0.06153,-0.216035 l -0.0058,-0.341015 q 0.321903,-0.158413 0.500874,-0.211047 q 0.178972,-0.05263 0.371181,-0.05588 q 0.400952,-0.0068 0.646666,0.220638 q 0.245715,0.2274 0.251605,0.576682 q 0.0042,0.248012 -0.13963,0.424094 q -0.141745,0.176048 -0.556129,0.36703 z m 0.102672,0.816939 q 0.0016,0.09714 -0.06759,0.160326 q -0.06719,0.06109 -0.2284,0.06381 q -0.161207,0.0027 -0.232488,-0.05603 q -0.06925,-0.06085 -0.07089,-0.157991 q -0.0016,-0.09714 0.06555,-0.158224 q 0.06716,-0.06315 0.230431,-0.06591 q 0.161208,-0.0027 0.230456,0.05813 q 0.07128,0.05875 0.07292,0.155889 z"
 id="path382" />
<path
 d="m 34.803398,25.586554 q -0.01114,0.120013 -0.06842,0.176431 q -0.05524,0.05433 -0.142053,0.05524 q -0.09301,9.81e-4 -0.153629,-0.06246 q -0.05857,-0.06553 -0.06018,-0.218486 l -0.0025,-0.237698 q 0.50024,-0.197521 0.602497,-0.301958 q 0.102258,-0.104436 0.101125,-0.211917 q -0.0016,-0.150887 -0.124696,-0.259149 q -0.121037,-0.108284 -0.3422,-0.105952 q -0.233564,0.0025 -0.44946,0.112231 l 6.54e-4,0.06201 q 0.0016,0.150886 -0.05765,0.21766 q -0.0572,0.06469 -0.152278,0.06569 q -0.09301,9.81e-4 -0.153629,-0.06246 q -0.05855,-0.06347 -0.06016,-0.216418 l -0.0036,-0.341045 q 0.322897,-0.156375 0.502198,-0.207878 q 0.179301,-0.0515 0.371527,-0.05353 q 0.400986,-0.0042 0.645259,0.22472 q 0.244273,0.228948 0.247955,0.578261 q 0.0026,0.248033 -0.142307,0.423203 q -0.142855,0.175148 -0.558438,0.363508 z m 0.09751,0.817572 q 0.001,0.09715 -0.0686,0.159895 q -0.06758,0.06066 -0.228798,0.06236 q -0.161221,0.0017 -0.232129,-0.0575 q -0.06886,-0.06129 -0.06989,-0.158436 q -0.001,-0.09715 0.06655,-0.157806 q 0.06756,-0.06273 0.230843,-0.06445 q 0.161222,-0.0017 0.230084,0.05959 q 0.07091,0.0592 0.07193,0.156347 z"
 id="path384" />
<path
 d="m 37.721398,24.953035 q 2.98e-4,0.119889 -0.08425,0.200715 q -0.08455,0.08083 -0.233376,0.0812 q -0.148827,3.7e-4 -0.233777,-0.08003 q -0.08495,-0.0804 -0.08525,-0.200293 q -2.99e-4,-0.119889 0.08425,-0.200715 q 0.08455,-0.08083 0.233376,-0.0812 q 0.148827,-3.7e-4 0.233777,0.08003 q 0.08495,0.0804 0.08525,0.200293 z m 0.0076,1.38698 q 2.99e-4,0.119889 -0.08425,0.200715 q -0.08455,0.08083 -0.233375,0.0812 q -0.148828,3.71e-4 -0.233778,-0.08003 q -0.08495,-0.0804 -0.08525,-0.200292 q -2.99e-4,-0.119889 0.08425,-0.200715 q 0.08455,-0.08083 0.233376,-0.0812 q 0.148828,-3.71e-4 0.233778,0.08003 q 0.08495,0.0804 0.08525,0.200293 z"
 id="path386" />
<path
 d="m 40.438372,25.578335 q -0.01337,0.119786 -0.07169,0.175129 q -0.05624,0.05329 -0.143054,0.0526 q -0.09302,-7.47e-4 -0.152442,-0.06531 q -0.05735,-0.06661 -0.05612,-0.219565 l 0.0019,-0.237704 q 0.503823,-0.188194 0.608003,-0.290713 q 0.10418,-0.102519 0.105044,-0.210003 q 0.0012,-0.15089 -0.11986,-0.26142 q -0.119005,-0.110514 -0.340173,-0.112291 q -0.233569,-0.0019 -0.451467,0.103863 l -4.98e-4,0.06201 q -0.0012,0.15089 -0.06169,0.216552 q -0.05839,0.06361 -0.153472,0.06285 q -0.09301,-7.47e-4 -0.152442,-0.06531 q -0.05736,-0.06454 -0.05613,-0.217499 l 0.0027,-0.341053 q 0.325746,-0.150349 0.505973,-0.198512 q 0.180226,-0.04816 0.372456,-0.04662 q 0.400996,0.0032 0.640974,0.236668 q 0.239977,0.233446 0.23717,0.582767 q -0.002,0.248039 -0.150144,0.420487 q -0.146085,0.172464 -0.565095,0.353071 z m 0.0823,0.819242 q -7.81e-4,0.09715 -0.07156,0.158593 q -0.06869,0.05939 -0.229917,0.0581 q -0.161225,-0.0013 -0.231021,-0.0618 q -0.06771,-0.06256 -0.06693,-0.159706 q 7.8e-4,-0.09715 0.06947,-0.156543 q 0.06871,-0.06146 0.232001,-0.06015 q 0.161225,0.0013 0.228937,0.06385 q 0.0698,0.06051 0.06902,0.157656 z"
 id="path388" />
<path
 d="m 43.256229,25.622883 q -0.01511,0.119578 -0.07423,0.174067 q -0.05701,0.05247 -0.143805,0.05051 q -0.09299,-0.0021 -0.151475,-0.06752 q -0.05637,-0.06744 -0.05291,-0.220359 l 0.0054,-0.237651 q 0.506508,-0.180841 0.612169,-0.281833 q 0.105661,-0.100992 0.108089,-0.208452 q 0.0034,-0.150856 -0.116042,-0.263137 q -0.117384,-0.112234 -0.338503,-0.11723 q -0.233517,-0.0053 -0.452931,0.09728 l -0.0014,0.062 q -0.0034,0.150856 -0.06483,0.215631 q -0.05931,0.06275 -0.154371,0.06061 q -0.09299,-0.0021 -0.151475,-0.06752 q -0.05642,-0.06537 -0.05296,-0.218293 l 0.0077,-0.340977 q 0.3279,-0.145593 0.508809,-0.191127 q 0.180908,-0.04554 0.373096,-0.04119 q 0.400906,0.0091 0.63746,0.245971 q 0.236555,0.236914 0.228664,0.586158 q -0.0056,0.247983 -0.156248,0.418256 q -0.148579,0.17032 -0.570173,0.34481 z m 0.07037,0.820353 q -0.0022,0.09713 -0.07386,0.157535 q -0.06955,0.05839 -0.230739,0.05475 q -0.161189,-0.0036 -0.230097,-0.06516 q -0.06679,-0.06354 -0.0646,-0.160664 q 0.0022,-0.09713 0.07174,-0.155515 q 0.0696,-0.06046 0.232852,-0.05677 q 0.16119,0.0036 0.227984,0.06718 q 0.06891,0.06152 0.06671,0.158644 z"
 id="path390" />
</g>
<g
 aria-label=" ??:??"
 id="text7164"
 style="font-weight:bold;font-size:4.23333px;line-height:4.0246px;font-family:'Courier New';-inkscape-font-specification:'Courier New Bold';letter-spacing:0.264583px;word-spacing:0.529167px;baseline-shift:baseline;opacity:1;vector-effect:none;fill:#333333;stroke-width:0.999999px;stop-color:#000000;stop-opacity:1">
<path
 d="m 31.981894,37.000739 q -0.0126,0.119868 -0.07058,0.175581 q -0.0559,0.05365 -0.142717,0.0535 q -0.09302,-1.57e-4 -0.152854,-0.06434 q -0.05777,-0.06624 -0.05751,-0.219205 l 3.99e-4,-0.237711 q 0.502617,-0.191392 0.606144,-0.29457 q 0.103526,-0.103179 0.103707,-0.210666 q 2.54e-4,-0.150895 -0.121518,-0.260654 q -0.119705,-0.109755 -0.34088,-0.110127 q -0.233577,-3.93e-4 -0.450798,0.106729 l -1.04e-4,0.06201 q -2.54e-4,0.150895 -0.06031,0.21694 q -0.05799,0.06398 -0.153069,0.06382 q -0.09302,-1.56e-4 -0.152855,-0.06434 q -0.05777,-0.06418 -0.05751,-0.217138 l 5.73e-4,-0.341063 q 0.324785,-0.152417 0.504702,-0.201723 q 0.179917,-0.04931 0.372153,-0.04898 q 0.401008,6.74e-4 0.642464,0.232591 q 0.241456,0.231916 0.240868,0.581248 q -4.17e-4,0.248046 -0.147469,0.421432 q -0.144986,0.173389 -0.56284,0.356655 z m 0.08751,0.818702 q -1.63e-4,0.09715 -0.07055,0.159045 q -0.06831,0.05983 -0.229544,0.05956 q -0.16123,-2.71e-4 -0.231409,-0.06033 q -0.06811,-0.06213 -0.06795,-0.159278 q 1.63e-4,-0.09715 0.06848,-0.156981 q 0.06832,-0.0619 0.231614,-0.06162 q 0.16123,2.71e-4 0.229339,0.0624 q 0.07018,0.06006 0.07001,0.157214 z"
 id="path393" />
<path
 d="m 34.80043,37.017569 q -0.01346,0.119774 -0.07183,0.175071 q -0.05628,0.05325 -0.143097,0.05248 q -0.09301,-8.22e-4 -0.152389,-0.06543 q -0.05729,-0.06665 -0.05594,-0.219611 l 0.0021,-0.237702 q 0.503975,-0.187787 0.608237,-0.290222 q 0.104263,-0.102434 0.105213,-0.209917 q 0.0013,-0.150889 -0.119648,-0.261517 q -0.118916,-0.11061 -0.340082,-0.112566 q -0.233568,-0.0021 -0.451551,0.103498 l -5.48e-4,0.06201 q -0.0013,0.150889 -0.06186,0.216502 q -0.05844,0.06356 -0.153523,0.06272 q -0.09301,-8.23e-4 -0.152389,-0.06543 q -0.05731,-0.06459 -0.05596,-0.217544 l 0.003,-0.341051 q 0.325868,-0.150086 0.506133,-0.198103 q 0.180265,-0.04802 0.372494,-0.04632 q 0.400993,0.0035 0.640782,0.237186 q 0.239789,0.23364 0.2367,0.582959 q -0.0022,0.248037 -0.150484,0.420365 q -0.146224,0.172346 -0.56538,0.352615 z m 0.08164,0.819308 q -8.59e-4,0.09715 -0.07169,0.158535 q -0.06874,0.05934 -0.229964,0.05791 q -0.161224,-0.0014 -0.230971,-0.06199 q -0.06766,-0.06261 -0.0668,-0.15976 q 8.59e-4,-0.09715 0.0696,-0.156487 q 0.06876,-0.06141 0.232049,-0.05996 q 0.161224,0.0014 0.228886,0.06404 q 0.06975,0.06056 0.06889,0.157712 z"
 id="path395" />
<path
 d="m 37.728007,36.438381 q -0.0018,0.119876 -0.08776,0.199205 q -0.08595,0.07933 -0.234765,0.07709 q -0.148811,-0.0022 -0.232336,-0.08413 q -0.08353,-0.08188 -0.08172,-0.201758 q 0.0018,-0.119876 0.08776,-0.199205 q 0.08595,-0.07933 0.234765,-0.07709 q 0.148811,0.0022 0.232337,0.08413 q 0.08353,0.08188 0.08172,0.201758 z m -0.01676,1.386899 q -0.0018,0.119876 -0.08776,0.199205 q -0.08595,0.07933 -0.234765,0.07709 q -0.148811,-0.0022 -0.232336,-0.08412 q -0.08353,-0.08188 -0.08172,-0.201759 q 0.0018,-0.119875 0.08776,-0.199205 q 0.08595,-0.07933 0.234765,-0.07709 q 0.148811,0.0022 0.232336,0.08413 q 0.08353,0.08188 0.08172,0.201758 z"
 id="path397" />
<path
 d="m 40.431146,37.104935 q -0.01493,0.119601 -0.07397,0.174178 q -0.05693,0.05255 -0.143729,0.05072 q -0.093,-0.002 -0.151576,-0.06729 q -0.05647,-0.06735 -0.05324,-0.220281 l 0.005,-0.237658 q 0.50624,-0.181592 0.611751,-0.282741 q 0.105511,-0.101148 0.107779,-0.208611 q 0.0032,-0.150861 -0.116432,-0.262965 q -0.11755,-0.11206 -0.338676,-0.116728 q -0.233525,-0.0049 -0.452786,0.09795 l -0.0013,0.062 q -0.0032,0.150862 -0.06451,0.215728 q -0.05922,0.06284 -0.15428,0.06084 q -0.093,-0.002 -0.151576,-0.06729 q -0.05651,-0.06529 -0.05328,-0.218214 l 0.0072,-0.340988 q 0.327684,-0.146079 0.508525,-0.191882 q 0.180841,-0.0458 0.373034,-0.04174 q 0.40092,0.0085 0.637825,0.245026 q 0.236906,0.236563 0.229533,0.585818 q -0.0052,0.247991 -0.155628,0.418488 q -0.148327,0.17054 -0.569662,0.345654 z m 0.07159,0.820248 q -0.0021,0.09713 -0.07362,0.157644 q -0.06946,0.05849 -0.230657,0.05509 q -0.161194,-0.0034 -0.230193,-0.06482 q -0.06689,-0.06344 -0.06484,-0.160568 q 0.0021,-0.09713 0.07151,-0.155621 q 0.06951,-0.06056 0.232767,-0.05711 q 0.161194,0.0034 0.228083,0.06684 q 0.069,0.06141 0.06695,0.158545 z"
 id="path399" />
<path
 d="m 43.239272,37.174592 q -0.01572,0.1195 -0.07512,0.173685 q -0.05728,0.05217 -0.144062,0.04977 q -0.09298,-0.0026 -0.151127,-0.06829 q -0.05602,-0.06772 -0.05178,-0.220628 l 0.0066,-0.23762 q 0.507431,-0.178239 0.613609,-0.278688 q 0.106177,-0.100448 0.109157,-0.207893 q 0.0042,-0.150837 -0.11469,-0.26373 q -0.116806,-0.112835 -0.337896,-0.118966 q -0.233488,-0.0065 -0.453425,0.09495 l -0.0017,0.06199 q -0.0042,0.150837 -0.06594,0.215296 q -0.05963,0.06245 -0.15468,0.05981 q -0.09298,-0.0026 -0.151127,-0.06829 q -0.05608,-0.06566 -0.05184,-0.218561 l 0.0095,-0.340933 q 0.328643,-0.143908 0.509783,-0.188513 q 0.18114,-0.04461 0.373302,-0.03928 q 0.400855,0.01112 0.63619,0.249241 q 0.235335,0.238125 0.225652,0.587323 q -0.0069,0.247952 -0.158393,0.417449 q -0.149452,0.169555 -0.571936,0.341878 z m 0.06616,0.820704 q -0.0027,0.09711 -0.07466,0.157154 q -0.06985,0.05803 -0.231016,0.05356 q -0.161169,-0.0045 -0.22976,-0.06634 q -0.06647,-0.06388 -0.06377,-0.160993 q 0.0027,-0.09711 0.07254,-0.155145 q 0.0699,-0.0601 0.23314,-0.05557 q 0.161168,0.0045 0.227636,0.06835 q 0.06859,0.06187 0.0659,0.158984 z"
 id="path401" />
</g>
<g
 aria-label=" ??:??"
 id="text7176"
 style="font-weight:bold;font-size:4.23333px;line-height:4.0246px;font-family:'Courier New';-inkscape-font-specification:'Courier New Bold';letter-spacing:0.264583px;word-spacing:0.529167px;baseline-shift:baseline;opacity:1;vector-effect:none;fill:#333333;stroke-width:0.999999px;stop-color:#000000;stop-opacity:1">
<path
 d="m 61.648336,25.185963 q -0.0085,0.120228 -0.06454,0.177888 q -0.05404,0.05553 -0.140808,0.05834 q -0.09297,0.003 -0.154961,-0.05908 q -0.05999,-0.06423 -0.06496,-0.217114 l -0.0077,-0.237586 q 0.495791,-0.208437 0.595735,-0.315089 q 0.09994,-0.106653 0.09646,-0.214083 q -0.0049,-0.150815 -0.130345,-0.256354 q -0.123381,-0.105605 -0.34444,-0.09843 q -0.233454,0.0076 -0.446892,0.122055 l 0.002,0.06198 q 0.0049,0.150815 -0.05287,0.218872 q -0.05577,0.06592 -0.150802,0.06901 q -0.09297,0.003 -0.154961,-0.05908 q -0.05993,-0.06217 -0.06489,-0.215048 l -0.01107,-0.340884 q 0.319393,-0.163414 0.497522,-0.218834 q 0.178129,-0.05542 0.370264,-0.06166 q 0.400797,-0.01302 0.650029,0.210525 q 0.249232,0.223539 0.260569,0.572687 q 0.0081,0.247916 -0.132998,0.426221 q -0.138983,0.178237 -0.550338,0.375659 z m 0.115402,0.815238 q 0.0032,0.0971 -0.06508,0.16136 q -0.06623,0.06213 -0.227377,0.06736 q -0.161145,0.0052 -0.233334,-0.0524 q -0.07019,-0.05976 -0.07334,-0.156865 q -0.0032,-0.0971 0.06308,-0.159228 q 0.06616,-0.06419 0.229375,-0.06949 q 0.161146,-0.0052 0.231335,0.05453 q 0.07219,0.05763 0.07534,0.154733 z"
 id="path404" />
<path
 d="m 64.469259,25.134046 q -0.01112,0.120015 -0.0684,0.17644 q -0.05523,0.05434 -0.142045,0.05526 q -0.09301,9.93e-4 -0.153637,-0.06244 q -0.05858,-0.06552 -0.06021,-0.218478 l -0.0025,-0.237698 q 0.500214,-0.197587 0.602457,-0.302037 q 0.102244,-0.10445 0.101096,-0.211931 q -0.0016,-0.150887 -0.124729,-0.259132 q -0.121052,-0.108268 -0.342214,-0.105907 q -0.233564,0.0025 -0.449445,0.112291 l 6.62e-4,0.06201 q 0.0016,0.150887 -0.05763,0.217669 q -0.05719,0.06469 -0.152269,0.06571 q -0.09301,9.93e-4 -0.153638,-0.06244 q -0.05856,-0.06346 -0.06019,-0.21641 l -0.0036,-0.341045 q 0.322877,-0.156418 0.502171,-0.207944 q 0.179294,-0.05153 0.371519,-0.05358 q 0.400986,-0.0043 0.645289,0.224634 q 0.244303,0.228915 0.248032,0.578228 q 0.0026,0.248032 -0.142251,0.423222 q -0.142832,0.175167 -0.55839,0.363582 z m 0.09762,0.817559 q 0.001,0.09715 -0.06858,0.159904 q -0.06757,0.06067 -0.22879,0.06239 q -0.161221,0.0017 -0.232137,-0.05747 q -0.06887,-0.06128 -0.06991,-0.158426 q -0.001,-0.09715 0.06653,-0.157816 q 0.06755,-0.06274 0.230835,-0.06448 q 0.161221,-0.0017 0.230092,0.05956 q 0.07092,0.05919 0.07195,0.156337 z"
 id="path406" />
<path
 d="m 67.395472,24.509491 q -1.04e-4,0.119889 -0.08492,0.200431 q -0.08482,0.08054 -0.233647,0.08041 q -0.148828,-1.29e-4 -0.233507,-0.08082 q -0.08468,-0.08069 -0.08458,-0.200577 q 1.04e-4,-0.119889 0.08492,-0.200431 q 0.08482,-0.08054 0.233647,-0.08041 q 0.148827,1.29e-4 0.233507,0.08082 q 0.08468,0.08069 0.08458,0.200578 z m 0.0029,1.386997 q -1.03e-4,0.119889 -0.08492,0.200431 q -0.08482,0.08054 -0.233647,0.08041 q -0.148828,-1.29e-4 -0.233508,-0.08082 q -0.08468,-0.08069 -0.08458,-0.200578 q 1.03e-4,-0.119889 0.08492,-0.200431 q 0.08482,-0.08054 0.233647,-0.08041 q 0.148828,1.29e-4 0.233508,0.08082 q 0.08468,0.08069 0.08458,0.200578 z"
 id="path408" />
<path
 d="m 70.104051,25.136856 q -0.01301,0.119825 -0.07116,0.175344 q -0.05608,0.05346 -0.142895,0.05302 q -0.09302,-4.69e-4 -0.152638,-0.06485 q -0.05754,-0.06644 -0.05677,-0.219397 l 0.0012,-0.237708 q 0.503257,-0.189703 0.607129,-0.292534 q 0.103872,-0.10283 0.104414,-0.210316 q 7.6e-4,-0.150893 -0.120643,-0.26106 Q 70.153343,23.969203 69.93217,23.968089 q -0.233574,-0.0012 -0.451154,0.105215 l -3.12e-4,0.06201 q -7.6e-4,0.150893 -0.06104,0.216736 q -0.0582,0.06379 -0.153283,0.06331 q -0.09302,-4.68e-4 -0.152638,-0.06485 q -0.05755,-0.06437 -0.05678,-0.21733 l 0.0017,-0.34106 q 0.325295,-0.151325 0.505376,-0.200028 q 0.180082,-0.0487 0.372315,-0.04773 q 0.401004,0.002 0.64168,0.234747 q 0.240676,0.232725 0.238916,0.582053 q -0.0012,0.248044 -0.148884,0.420935 q -0.145567,0.172901 -0.564033,0.354763 z m 0.08476,0.818992 q -4.9e-4,0.09715 -0.07108,0.158807 q -0.06851,0.0596 -0.229743,0.05879 q -0.161228,-8.13e-4 -0.231205,-0.06111 q -0.0679,-0.06235 -0.06741,-0.159505 q 4.9e-4,-0.09715 0.069,-0.15675 q 0.06852,-0.06167 0.231819,-0.06085 q 0.161229,8.13e-4 0.229128,0.06317 q 0.06998,0.0603 0.06949,0.157449 z"
 id="path410" />
<path
 d="m 72.903825,25.148706 q -0.01265,0.119864 -0.07064,0.175556 q -0.05592,0.05363 -0.142736,0.05345 q -0.09302,-1.91e-4 -0.152831,-0.06439 q -0.05774,-0.06626 -0.05743,-0.219227 l 4.87e-4,-0.23771 q 0.502688,-0.191206 0.606252,-0.294347 q 0.103565,-0.103141 0.103785,-0.210628 q 3.09e-4,-0.150894 -0.121422,-0.260698 q -0.119664,-0.109799 -0.340839,-0.110253 q -0.233577,-4.79e-4 -0.450837,0.106563 l -1.27e-4,0.06201 q -3.1e-4,0.150894 -0.06039,0.216917 q -0.05801,0.06396 -0.153093,0.06377 q -0.09302,-1.91e-4 -0.15283,-0.06439 q -0.05775,-0.0642 -0.05743,-0.217159 l 6.99e-4,-0.341064 q 0.324841,-0.152296 0.504776,-0.201537 q 0.179935,-0.04924 0.372171,-0.04885 q 0.401008,8.22e-4 0.642378,0.232827 q 0.241371,0.232006 0.240655,0.581338 q -5.09e-4,0.248046 -0.147626,0.421377 q -0.145049,0.173336 -0.562971,0.356447 z m 0.08721,0.818735 q -2e-4,0.09715 -0.07061,0.159019 q -0.06834,0.0598 -0.229566,0.05947 q -0.16123,-3.31e-4 -0.231387,-0.06042 q -0.06809,-0.06215 -0.06789,-0.159303 q 1.99e-4,-0.09715 0.06853,-0.156956 q 0.06834,-0.06187 0.231637,-0.06154 q 0.16123,3.31e-4 0.229316,0.06248 q 0.07016,0.06009 0.06996,0.15724 z"
 id="path412" />
</g>
<g
 aria-label="Ven 30 juin"
 id="text7182"
 style="font-size:3.52777px;line-height:3.35383px;font-family:'Arial Black';-inkscape-font-specification:'Arial Black, ';letter-spacing:0.132292px;word-spacing:0.264583px;baseline-shift:baseline;opacity:1;vector-effect:none;fill:#e62e6c;stroke-width:0.999999px;stop-color:#000000;stop-opacity:1">
<path
 d="m 56.605975,30.273259 l 0.813201,-0.07317 l 0.72901,1.75903 l 0.394717,-1.860141 l 0.789182,-0.07101 l -0.706991,2.599065 l -0.842366,0.07579 z"
 style="baseline-shift:baseline;vector-effect:none;stop-color:#000000;stop-opacity:1"
 id="path415" />
<path
 d="m 61.90762,31.732513 l -1.404759,0.04847 q 0.02476,0.168056 0.09991,0.248194 q 0.105669,0.11528 0.269213,0.109636 q 0.103291,-0.0036 0.194471,-0.05842 q 0.05568,-0.03467 0.118248,-0.11956 l 0.692527,0.03988 q -0.148875,0.280909 -0.368514,0.409138 q -0.219699,0.126507 -0.638028,0.140942 q -0.363241,0.01253 -0.57505,-0.08185 q -0.211868,-0.0961 -0.357252,-0.313427 q -0.143723,-0.219105 -0.154118,-0.520371 q -0.01479,-0.428658 0.249781,-0.703217 q 0.266295,-0.274619 0.750042,-0.291312 q 0.392507,-0.01354 0.623846,0.0974 q 0.231339,0.110943 0.357906,0.332364 q 0.126567,0.22142 0.139042,0.582939 z M 61.183328,31.42141 q -0.02767,-0.202427 -0.120217,-0.287135 q -0.09083,-0.08477 -0.235435,-0.07978 q -0.166987,0.0058 -0.262261,0.141764 q -0.06085,0.08483 -0.07242,0.24897 z"
 style="baseline-shift:baseline;vector-effect:none;stop-color:#000000;stop-opacity:1"
 id="path417" />
<path
 d="m 62.377794,30.640916 l 0.652836,-0.0035 l 0.0016,0.297996 q 0.145449,-0.183361 0.294898,-0.261667 q 0.149441,-0.08003 0.364756,-0.08117 q 0.291105,-0.0015 0.455665,0.17157 q 0.166272,0.171378 0.168184,0.533108 l 0.0061,1.1627 l -0.704511,0.0037 l -0.0053,-1.005952 q -9.11e-4,-0.172252 -0.06502,-0.242539 q -0.06412,-0.07201 -0.179525,-0.0714 q -0.127466,6.73e-4 -0.206192,0.09755 q -0.07873,0.09688 -0.07741,0.346646 l 0.0046,0.878485 l -0.701066,0.0037 z"
 style="baseline-shift:baseline;vector-effect:none;stop-color:#000000;stop-opacity:1"
 id="path419" />
<path
 d="m 67.082504,30.693279 l -0.661675,-0.126967 q 0.08656,-0.315912 0.322873,-0.48184 q 0.238037,-0.165907 0.668641,-0.160634 q 0.494333,0.0061 0.712545,0.193051 q 0.218213,0.186999 0.214796,0.46603 q -0.002,0.163629 -0.09319,0.295158 q -0.09119,0.131529 -0.273266,0.229215 q 0.145962,0.03796 0.22288,0.08714 q 0.124787,0.07905 0.192123,0.207351 q 0.06908,0.126601 0.06693,0.302287 q -0.0027,0.220469 -0.12059,0.422301 q -0.11787,0.20011 -0.336244,0.307687 q -0.218353,0.105854 -0.571448,0.10153 q -0.344483,-0.0042 -0.543292,-0.08762 q -0.197086,-0.08338 -0.324369,-0.239979 q -0.12554,-0.1583 -0.191547,-0.395115 l 0.702162,-0.08443 q 0.03874,0.212363 0.123852,0.296094 q 0.08685,0.08203 0.2212,0.08367 q 0.141238,0.0017 0.235514,-0.100476 q 0.096,-0.102185 0.09811,-0.274426 q 0.0022,-0.175687 -0.08796,-0.27326 q -0.08838,-0.09755 -0.243401,-0.09945 q -0.08268,-0.001 -0.227865,0.03855 l 0.04231,-0.50078 q 0.05846,0.0093 0.09118,0.0097 q 0.137793,0.0017 0.230157,-0.08504 q 0.09409,-0.0867 0.09556,-0.207273 q 0.0014,-0.115402 -0.06664,-0.185142 q -0.06805,-0.06974 -0.188621,-0.07122 q -0.124014,-0.0015 -0.202451,0.07332 q -0.07842,0.07312 -0.108273,0.260521 z"
 style="baseline-shift:baseline;vector-effect:none;stop-color:#000000;stop-opacity:1"
 id="path421" />
<path
 d="m 68.877493,31.239807 q 0.0051,-0.720005 0.265531,-1.005828 q 0.262141,-0.28581 0.792671,-0.282042 q 0.25493,0.0018 0.418115,0.0667 q 0.163197,0.06317 0.265826,0.165534 q 0.10264,0.100639 0.16041,0.213017 q 0.05951,0.110668 0.09463,0.25906 q 0.06862,0.282992 0.06644,0.589597 q -0.0049,0.687278 -0.239682,1.004289 q -0.234801,0.317011 -0.803226,0.312974 q -0.318663,-0.0023 -0.514306,-0.105285 q -0.195643,-0.103022 -0.319991,-0.300281 q -0.0903,-0.14017 -0.140264,-0.381688 q -0.04823,-0.243227 -0.04615,-0.536052 z m 0.695878,0.0067 q -0.0034,0.4823 0.07972,0.660317 q 0.08488,0.176307 0.246792,0.177457 q 0.106795,7.58e-4 0.184834,-0.07276 q 0.07977,-0.07523 0.117096,-0.236885 q 0.03905,-0.161646 0.04148,-0.504424 q 0.0036,-0.50297 -0.08133,-0.675832 q -0.08317,-0.174572 -0.253694,-0.175783 q -0.173973,-0.0012 -0.252745,0.175632 q -0.07876,0.175144 -0.08215,0.652277 z"
 style="baseline-shift:baseline;vector-effect:none;stop-color:#000000;stop-opacity:1"
 id="path423" />
<path
 d="m 72.961315,29.986346 l 0.702616,-0.01597 l 0.01096,0.482188 l -0.702617,0.01597 z m 0.01581,0.695728 l 0.702616,-0.01597 l 0.04031,1.773762 q 0.0077,0.339254 -0.03902,0.481601 q -0.04501,0.142308 -0.175615,0.233149 q -0.130605,0.09084 -0.376865,0.09644 q -0.203208,0.0046 -0.505945,-0.04881 l 0.09346,-0.512129 q 0.08477,0.0153 0.124382,0.0144 q 0.08955,-0.002 0.134637,-0.06509 q 0.04513,-0.06133 0.04098,-0.243873 z"
 style="baseline-shift:baseline;vector-effect:none;stop-color:#000000;stop-opacity:1"
 id="path425" />
<path
 d="m 76.223611,32.378167 l -0.653544,0.03658 l -0.01656,-0.295814 q -0.135983,0.190487 -0.281278,0.276255 q -0.143575,0.08567 -0.360276,0.0978 q -0.288936,0.01617 -0.463668,-0.146571 q -0.173109,-0.164559 -0.193229,-0.524008 l -0.06508,-1.16262 l 0.70342,-0.03937 l 0.05622,1.004393 q 0.0096,0.171985 0.07731,0.240657 q 0.06768,0.06867 0.182907,0.06222 q 0.12555,-0.007 0.199272,-0.107767 q 0.07544,-0.100836 0.06148,-0.350215 l -0.04919,-0.878844 l 0.69998,-0.03918 z"
 style="baseline-shift:baseline;vector-effect:none;stop-color:#000000;stop-opacity:1"
 id="path427" />
<path
 d="m 76.540831,29.80963 l 0.697197,-0.07364 l 0.05012,0.474505 l -0.697197,0.07364 z m 0.0731,0.692058 l 0.697197,-0.07364 l 0.192154,1.819222 l -0.697197,0.07364 z"
 style="baseline-shift:baseline;vector-effect:none;stop-color:#000000;stop-opacity:1"
 id="path429" />
<path
 d="m 77.740107,30.399927 l 0.641417,-0.121609 l 0.05551,0.292784 q 0.109841,-0.206667 0.24264,-0.310741 q 0.132479,-0.105765 0.344028,-0.145874 q 0.286015,-0.05423 0.4792,0.08622 q 0.194557,0.138436 0.261939,0.493839 l 0.216586,1.142367 l -0.69219,0.131235 l -0.187386,-0.988359 q -0.03209,-0.169239 -0.107861,-0.226756 q -0.07609,-0.05921 -0.189486,-0.03771 q -0.125237,0.02374 -0.185119,0.133278 q -0.05988,0.109534 -0.01336,0.354932 l 0.163643,0.863121 l -0.688805,0.130593 z"
 style="baseline-shift:baseline;vector-effect:none;stop-color:#000000;stop-opacity:1"
 id="path431" />
</g>
<g
 aria-label=" ??:??"
 id="text7188"
 style="font-weight:bold;font-size:4.23333px;line-height:4.0246px;font-family:'Courier New';-inkscape-font-specification:'Courier New Bold';letter-spacing:0.264583px;word-spacing:0.529167px;baseline-shift:baseline;opacity:1;vector-effect:none;fill:#333333;stroke-width:0.999999px;stop-color:#000000;stop-opacity:1">
<path
 d="m 61.663536,36.508796 q -0.0093,0.12017 -0.06571,0.177459 q -0.0544,0.05517 -0.141188,0.05742 q -0.09299,0.0024 -0.154569,-0.0601 q -0.05957,-0.06463 -0.06353,-0.217537 l -0.0062,-0.237632 q 0.497153,-0.205168 0.597797,-0.31116 q 0.100644,-0.105992 0.09786,-0.213443 q -0.0039,-0.150845 -0.128654,-0.257206 Q 61.676712,35.340177 61.455611,35.3459 q -0.233499,0.006 -0.447686,0.11911 l 0.0016,0.06199 q 0.0039,0.150844 -0.05431,0.218519 q -0.0562,0.06556 -0.151253,0.06802 q -0.09299,0.0024 -0.154569,-0.0601 q -0.05952,-0.06256 -0.06347,-0.215471 l -0.0088,-0.34095 q 0.320461,-0.161307 0.498951,-0.215553 q 0.17849,-0.05425 0.370662,-0.05922 q 0.400875,-0.01038 0.648629,0.2148 q 0.247755,0.225175 0.256793,0.57439 q 0.0064,0.247964 -0.135802,0.425336 q -0.140153,0.177318 -0.552798,0.372028 z m 0.110032,0.81598 q 0.0025,0.09712 -0.06614,0.160928 q -0.06664,0.06169 -0.227815,0.06586 q -0.161177,0.0042 -0.232984,-0.05393 q -0.06979,-0.06023 -0.07231,-0.157345 q -0.0025,-0.09712 0.06412,-0.158809 q 0.06659,-0.06376 0.229829,-0.06798 q 0.161176,-0.0042 0.23097,0.05606 q 0.07181,0.05811 0.07432,0.155225 z"
 id="path434" />
<path
 d="m 64.496151,36.48671 q -0.01259,0.119869 -0.07056,0.175586 q -0.0559,0.05365 -0.142713,0.05352 q -0.09302,-1.49e-4 -0.152859,-0.06432 q -0.05777,-0.06624 -0.05753,-0.2192 l 3.81e-4,-0.237711 q 0.502602,-0.191431 0.606121,-0.294618 q 0.103518,-0.103187 0.10369,-0.210674 q 2.42e-4,-0.150895 -0.121539,-0.260644 q -0.119713,-0.109746 -0.340888,-0.1101 q -0.233577,-3.75e-4 -0.450789,0.106764 l -1e-4,0.06201 q -2.42e-4,0.150895 -0.06029,0.216944 q -0.05798,0.06399 -0.153065,0.06383 q -0.09302,-1.49e-4 -0.152859,-0.06432 q -0.05777,-0.06417 -0.05753,-0.217133 l 5.47e-4,-0.341064 q 0.324772,-0.152442 0.504685,-0.201763 q 0.179914,-0.04932 0.372149,-0.04901 q 0.401009,6.43e-4 0.642483,0.23254 q 0.241474,0.231898 0.240914,0.58123 q -3.97e-4,0.248046 -0.147436,0.421443 q -0.144972,0.173401 -0.562812,0.3567 z m 0.08757,0.818695 q -1.56e-4,0.09715 -0.07054,0.15905 q -0.06831,0.05984 -0.229539,0.05958 q -0.16123,-2.58e-4 -0.231414,-0.06031 q -0.06811,-0.06212 -0.06796,-0.159273 q 1.56e-4,-0.09715 0.06846,-0.156986 q 0.06831,-0.0619 0.231609,-0.06164 q 0.16123,2.58e-4 0.229344,0.06238 q 0.07018,0.06006 0.07003,0.157209 z"
 id="path436" />
<path
 d="m 67.422396,35.898443 q -0.0014,0.11988 -0.08714,0.199477 q -0.08571,0.0796 -0.234525,0.07782 q -0.148817,-0.0018 -0.232596,-0.0834 q -0.08378,-0.08162 -0.08235,-0.201504 q 0.0014,-0.11988 0.08714,-0.199476 q 0.08571,-0.0796 0.234525,-0.07782 q 0.148817,0.0018 0.232597,0.0834 q 0.08378,0.08162 0.08235,0.201504 z m -0.01245,1.386944 q -0.0014,0.119881 -0.08714,0.199477 q -0.08571,0.0796 -0.234524,0.07782 q -0.148817,-0.0018 -0.232597,-0.0834 q -0.08378,-0.08162 -0.08235,-0.201503 q 0.0014,-0.119881 0.08714,-0.199477 q 0.08571,-0.0796 0.234525,-0.07782 q 0.148817,0.0018 0.232596,0.0834 q 0.08378,0.08162 0.08235,0.201503 z"
 id="path438" />
<path
 d="m 70.11548,36.543836 q -0.01325,0.119799 -0.07152,0.175199 q -0.05619,0.05335 -0.143002,0.05274 q -0.09302,-6.56e-4 -0.152507,-0.06516 q -0.05741,-0.06655 -0.05633,-0.219511 l 0.0017,-0.237705 q 0.503638,-0.188688 0.607718,-0.291309 q 0.104079,-0.102621 0.104837,-0.210105 q 0.0011,-0.150892 -0.120115,-0.261303 q -0.119114,-0.110397 -0.340283,-0.111958 q -0.233572,-0.0016 -0.451365,0.104305 l -4.38e-4,0.06201 q -0.0011,0.150891 -0.06147,0.216612 q -0.05833,0.06367 -0.153411,0.063 q -0.09301,-6.56e-4 -0.152506,-0.06516 q -0.05742,-0.06449 -0.05634,-0.217444 l 0.0024,-0.341056 q 0.325598,-0.150668 0.505778,-0.199008 q 0.180179,-0.04834 0.37241,-0.04698 q 0.400999,0.0028 0.641205,0.23604 q 0.240207,0.233211 0.237742,0.582534 q -0.0018,0.248041 -0.149732,0.420634 q -0.145916,0.172607 -0.564748,0.353625 z m 0.08311,0.819161 q -6.85e-4,0.09715 -0.0714,0.158663 q -0.06863,0.05946 -0.22986,0.05832 q -0.161227,-0.0011 -0.231082,-0.06158 q -0.06777,-0.06249 -0.06709,-0.159641 q 6.85e-4,-0.09715 0.06932,-0.156611 q 0.06865,-0.06153 0.231942,-0.06038 q 0.161227,0.0011 0.229,0.06363 q 0.06985,0.06044 0.06917,0.157589 z"
 id="path440" />
<path
 d="m 72.8958,36.534449 q -0.01061,0.120061 -0.06764,0.176732 q -0.055,0.05457 -0.141806,0.05587 q -0.09301,0.0014 -0.153904,-0.06178 q -0.05886,-0.06527 -0.06115,-0.218217 l -0.0036,-0.237685 q 0.49936,-0.199735 0.601153,-0.304624 q 0.101794,-0.104889 0.100185,-0.212364 q -0.0023,-0.150878 -0.125843,-0.258593 q -0.121516,-0.107747 -0.342666,-0.104435 q -0.233551,0.0035 -0.448958,0.114222 l 9.28e-4,0.06201 q 0.0023,0.150878 -0.05669,0.217914 q -0.05691,0.06494 -0.151985,0.06636 q -0.09301,0.0014 -0.153905,-0.06178 q -0.05883,-0.06321 -0.06112,-0.21615 l -0.0051,-0.341026 q 0.322201,-0.157804 0.501272,-0.2101 q 0.17907,-0.0523 0.371285,-0.05517 q 0.400964,-0.006 0.646249,0.221859 q 0.245284,0.227863 0.250515,0.577156 q 0.0037,0.248019 -0.140431,0.42383 q -0.142078,0.175779 -0.556821,0.365979 z m 0.101129,0.817131 q 0.0015,0.09714 -0.06789,0.160198 q -0.06731,0.06096 -0.228519,0.06337 q -0.161213,0.0024 -0.232382,-0.05647 q -0.06913,-0.06098 -0.07059,-0.158124 q -0.0015,-0.09714 0.06585,-0.1581 q 0.06728,-0.06303 0.230556,-0.06547 q 0.161212,-0.0024 0.230346,0.05857 q 0.07117,0.05888 0.07262,0.156026 z"
 id="path442" />
</g>
<g
 aria-label="Jeu 29 juin"
 id="text7194"
 style="font-size:3.52777px;line-height:3.35383px;font-family:'Arial Black';-inkscape-font-specification:'Arial Black, ';letter-spacing:0.132292px;word-spacing:0.264583px;baseline-shift:baseline;opacity:1;vector-effect:none;fill:#e62e6c;stroke-width:0.999999px;stop-color:#000000;stop-opacity:1">
<path
 d="m 57.946218,18.831538 l 0.779085,-0.06785 l 0.11912,1.36769 q 0.03751,0.430728 -0.02013,0.662256 q -0.05593,0.231379 -0.273992,0.407716 q -0.21635,0.176188 -0.57672,0.207575 q -0.380962,0.03318 -0.599287,-0.05155 q -0.218326,-0.08473 -0.350489,-0.27206 Q 56.89321,20.896113 56.847209,20.606179 l 0.73423,-0.165963 q 0.01621,0.166307 0.05069,0.24457 q 0.03448,0.07826 0.104026,0.122349 q 0.04746,0.02872 0.129827,0.02154 q 0.13042,-0.01136 0.182112,-0.112689 q 0.05326,-0.103195 0.03323,-0.333146 z"
 style="baseline-shift:baseline;vector-effect:none;stop-color:#000000;stop-opacity:1"
 id="path445" />
<path
 d="M 61.548544,20.419243 L 60.144262,20.48 q 0.02623,0.167832 0.10208,0.24731 q 0.106673,0.114351 0.270162,0.107278 q 0.103256,-0.0045 0.193953,-0.06012 q 0.05538,-0.03515 0.117197,-0.120589 l 0.69285,0.03382 q -0.146413,0.2822 -0.364923,0.412345 q -0.218583,0.128423 -0.63677,0.146516 q -0.363117,0.01571 -0.575743,-0.07681 q -0.212701,-0.09425 -0.35998,-0.310291 q -0.145634,-0.217839 -0.158664,-0.519003 q -0.01854,-0.428512 0.243623,-0.705375 q 0.263883,-0.276937 0.747465,-0.297859 q 0.392373,-0.01698 0.624674,0.09194 q 0.232301,0.108916 0.360799,0.329221 q 0.128499,0.220305 0.144134,0.581701 z m -0.726985,-0.304757 q -0.02944,-0.202177 -0.122723,-0.286073 q -0.09157,-0.08397 -0.236124,-0.07772 q -0.16693,0.0072 -0.261011,0.144053 q -0.0601,0.08536 -0.07024,0.249593 z"
 style="baseline-shift:baseline;vector-effect:none;stop-color:#000000;stop-opacity:1"
 id="path447" />
<path
 d="m 63.962512,21.11387 l -0.65445,0.01236 L 63.30247,20.83 q -0.142944,0.18532 -0.291315,0.26565 q -0.14665,0.0803 -0.363651,0.08439 q -0.289336,0.0055 -0.457922,-0.163641 q -0.166896,-0.170858 -0.173691,-0.530805 l -0.02198,-1.164232 l 0.704395,-0.0133 l 0.01899,1.005786 q 0.0033,0.172224 0.06834,0.243355 q 0.06509,0.07113 0.180478,0.06895 q 0.125724,-0.0024 0.203126,-0.100315 q 0.07912,-0.09797 0.07441,-0.347697 l -0.01661,-0.880063 l 0.700951,-0.01323 z"
 style="baseline-shift:baseline;vector-effect:none;stop-color:#000000;stop-opacity:1"
 id="path449" />
<path
 d="m 68.081701,21.103781 l -2.104948,-0.0018 q 0.03644,-0.31175 0.219267,-0.585477 q 0.184549,-0.275448 0.689576,-0.648806 q 0.308532,-0.228833 0.394761,-0.347615 q 0.08623,-0.118781 0.08632,-0.225579 q 9.9e-5,-0.11541 -0.08596,-0.196444 q -0.08433,-0.08275 -0.213524,-0.08287 q -0.134358,-1.15e-4 -0.220558,0.08421 q -0.08448,0.08433 -0.113944,0.297903 l -0.702749,-0.05745 q 0.0416,-0.296242 0.151981,-0.461511 q 0.110386,-0.166992 0.310277,-0.25467 q 0.201615,-0.0894 0.556459,-0.08909 q 0.370346,3.18e-4 0.575256,0.0849 q 0.206633,0.08458 0.323615,0.260383 q 0.118706,0.174079 0.118519,0.391119 q -1.99e-4,0.230821 -0.13646,0.440854 q -0.134539,0.210035 -0.491322,0.46122 q -0.211999,0.146234 -0.284396,0.204738 q -0.07068,0.05851 -0.167219,0.153162 l 1.095538,9.43e-4 z"
 style="baseline-shift:baseline;vector-effect:none;stop-color:#000000;stop-opacity:1"
 id="path451" />
<path
 d="m 68.550365,20.540083 l 0.698055,-0.08441 q 0.02684,0.146551 0.092,0.207162 q 0.06516,0.06061 0.159897,0.06108 q 0.168807,8.32e-4 0.264387,-0.16923 q 0.06952,-0.125404 0.105978,-0.53175 q -0.126382,0.128569 -0.259313,0.188203 q -0.132932,0.05963 -0.306907,0.05878 q -0.339337,-0.0017 -0.57241,-0.243983 q -0.231351,-0.242301 -0.229533,-0.610921 q 0.0012,-0.251488 0.121115,-0.457604 q 0.119874,-0.206117 0.328817,-0.310162 q 0.208953,-0.105769 0.524174,-0.104213 q 0.378955,0.0019 0.607405,0.133911 q 0.228458,0.13032 0.363135,0.415207 q 0.136409,0.283174 0.134114,0.748255 q -0.0034,0.683842 -0.292607,1.001089 q -0.289225,0.315525 -0.799092,0.31301 q -0.301442,-0.0015 -0.475076,-0.07125 q -0.173627,-0.07148 -0.288373,-0.206408 q -0.114746,-0.134927 -0.175763,-0.336768 z m 1.29745,-1.120156 q 0.001,-0.20498 -0.10177,-0.320899 q -0.102774,-0.117642 -0.250911,-0.118373 q -0.139524,-6.88e-4 -0.233059,0.103927 q -0.09181,0.104624 -0.09285,0.314771 q -0.001,0.211871 0.09314,0.324302 q 0.09591,0.11244 0.238879,0.113145 q 0.148137,7.31e-4 0.246856,-0.107303 q 0.09872,-0.108035 0.09971,-0.30957 z"
 style="baseline-shift:baseline;vector-effect:none;stop-color:#000000;stop-opacity:1"
 id="path453" />
<path
 d="m 72.677137,18.600894 l 0.702797,9.9e-4 l -6.8e-4,0.482312 l -0.702797,-9.91e-4 z m -9.81e-4,0.695907 l 0.702797,9.91e-4 l -0.0025,1.774218 q -4.78e-4,0.339341 -0.05063,0.480519 q -0.04843,0.14118 -0.18119,0.228843 q -0.132759,0.08766 -0.379083,0.08732 q -0.20326,-2.86e-4 -0.50462,-0.061 l 0.105794,-0.509724 q 0.08438,0.01734 0.123999,0.0174 q 0.08957,1.26e-4 0.136168,-0.06182 q 0.04659,-0.06022 0.04685,-0.242813 z"
 style="baseline-shift:baseline;vector-effect:none;stop-color:#000000;stop-opacity:1"
 id="path455" />
<path
 d="m 75.884985,21.116138 l -0.654551,0.0045 l -0.002,-0.296271 q -0.145161,0.183589 -0.294488,0.262129 q -0.147604,0.07853 -0.364639,0.08001 q -0.289381,0.002 -0.455921,-0.169133 q -0.164831,-0.172852 -0.167298,-0.532855 l -0.008,-1.164412 l 0.704504,-0.0048 l 0.0069,1.005942 q 0.0012,0.172251 0.06541,0.244159 q 0.06423,0.07191 0.179636,0.07112 q 0.125743,-8.62e-4 0.204317,-0.09786 q 0.0803,-0.09701 0.07859,-0.346778 l -0.006,-0.880199 l 0.701059,-0.0048 z"
 style="baseline-shift:baseline;vector-effect:none;stop-color:#000000;stop-opacity:1"
 id="path457" />
<path
 d="m 76.404641,18.580862 l 0.700916,-0.01495 l 0.01018,0.477036 l -0.700916,0.01495 z m 0.01484,0.695749 l 0.700916,-0.01495 l 0.03902,1.828926 l -0.700916,0.01495 z"
 style="baseline-shift:baseline;vector-effect:none;stop-color:#000000;stop-opacity:1"
 id="path459" />
<path
 d="m 77.651771,19.256269 l 0.652017,-0.03286 l 0.015,0.297622 q 0.137041,-0.189727 0.282811,-0.274685 q 0.145684,-0.08668 0.360729,-0.09752 q 0.290741,-0.01465 0.462931,0.15087 q 0.173824,0.163714 0.19203,0.524989 l 0.05852,1.161244 l -0.703628,0.03546 l -0.05063,-1.004691 q -0.0087,-0.172036 -0.07588,-0.239363 q -0.0673,-0.06905 -0.182559,-0.06324 q -0.127306,0.0064 -0.201588,0.106743 q -0.07428,0.100328 -0.06171,0.349781 l 0.04421,0.877384 l -0.700187,0.03528 z"
 style="baseline-shift:baseline;vector-effect:none;stop-color:#000000;stop-opacity:1"
 id="path461" />
</g>
<path
 d="m 27.194562,21.701242 c 7.62152,-0.18305 23.18953,-0.47381 25.67532,0.96136"
 style="font-variation-settings:normal;overflow:visible;opacity:1;vector-effect:none;fill:none;fill-opacity:1;fill-rule:evenodd;stroke:none;stroke-width:0.3;stroke-linecap:butt;stroke-linejoin:miter;stroke-miterlimit:4;stroke-dasharray:none;stroke-dashoffset:0;stroke-opacity:1;-inkscape-stroke:none;stop-color:#000000;stop-opacity:1"
 id="path7130" />
<path
 style="font-variation-settings:normal;opacity:1;vector-effect:none;fill:#e62e6c;fill-opacity:1;fill-rule:evenodd;stroke:#8c113a;stroke-width:0.3;stroke-linecap:round;stroke-linejoin:round;stroke-miterlimit:4;stroke-dasharray:none;stroke-dashoffset:0;stroke-opacity:1;-inkscape-stroke:none;stop-color:#000000;stop-opacity:1"
 d="m 52.849542,17.128782 l -0.0156,27.91155 c 0.265415,-0.525715 0.987405,-1.226465 1.323774,-1.508532 l 1.097056,0.913872 l -0.23317,-28.22507 c -0.7327,0.19406 -1.47121,0.31532 -2.17206,0.90818 z"
 id="path7258" />
<path
 d="m 27.169662,33.005952 c 9.14246,-0.14416 25.01952,0.28494 25.67988,0.74096"
 style="font-variation-settings:normal;overflow:visible;opacity:1;vector-effect:none;fill:none;fill-opacity:1;fill-rule:evenodd;stroke:none;stroke-width:0.3;stroke-linecap:butt;stroke-linejoin:miter;stroke-miterlimit:4;stroke-dasharray:none;stroke-dashoffset:0;stroke-opacity:1;-inkscape-stroke:none;stop-color:#000000;stop-opacity:1"
 id="path10150" />
<g
 aria-label="Lun 26 juin"
 id="text7170"
 style="font-size:3.52777px;line-height:3.35383px;font-family:'Arial Black';-inkscape-font-specification:'Arial Black, ';letter-spacing:0.132292px;word-spacing:0.264583px;baseline-shift:baseline;opacity:1;vector-effect:none;fill:#e62e6c;stroke-width:0.999999px;stop-color:#000000;stop-opacity:1">
<path
 d="m 27.322116,19.171599 l 0.780113,-0.01766 l 0.04308,1.902924 l 1.217526,-0.02757 l 0.01407,0.621679 l -1.997639,0.04523 z"
 id="path464" />
<path
 d="m 31.807429,21.604309 l -0.654452,0.01224 l -0.0055,-0.296226 q -0.142976,0.185296 -0.291361,0.2656 q -0.146664,0.08027 -0.363666,0.08433 q -0.289337,0.0054 -0.457894,-0.163719 q -0.166867,-0.170886 -0.1736,-0.530835 l -0.02178,-1.164236 l 0.704397,-0.01318 l 0.01881,1.00579 q 0.0032,0.172224 0.0683,0.243367 q 0.06508,0.07114 0.180466,0.06898 q 0.125724,-0.0024 0.203143,-0.100279 q 0.07914,-0.09796 0.07447,-0.347685 l -0.01646,-0.880066 l 0.700953,-0.01311 z"
 id="path466" />
<path
 d="m 32.341935,19.765789 l 0.652784,-0.0089 l 0.004,0.297973 q 0.143925,-0.18456 0.29272,-0.264101 q 0.148773,-0.08126 0.364071,-0.08419 q 0.291083,-0.0039 0.457071,0.16779 q 0.167686,0.169994 0.172595,0.531695 l 0.01578,1.16261 l -0.704455,0.0096 l -0.01365,-1.005873 q -0.0023,-0.172238 -0.06702,-0.241991 q -0.06471,-0.07147 -0.18011,-0.06991 q -0.127457,0.0017 -0.205378,0.09926 q -0.07792,0.09753 -0.07453,0.347274 l 0.01192,0.878417 l -0.70101,0.0095 z"
 id="path468" />
<path
 d="m 38.418834,21.544961 l -2.104942,0.0053 q 0.03538,-0.311871 0.21728,-0.586217 q 0.183613,-0.276072 0.687371,-0.651141 q 0.307754,-0.229878 0.39358,-0.348951 q 0.08583,-0.119074 0.08556,-0.225871 q -2.92e-4,-0.11541 -0.08662,-0.196151 q -0.08461,-0.08247 -0.213804,-0.08214 q -0.134358,3.4e-4 -0.220271,0.08496 q -0.08419,0.08462 -0.112934,0.298287 l -0.702939,-0.05506 q 0.04059,-0.296382 0.150415,-0.462025 q 0.109819,-0.167365 0.309411,-0.25572 q 0.20131,-0.09008 0.556153,-0.09098 q 0.370346,-9.37e-4 0.575542,0.08295 q 0.206918,0.08388 0.324495,0.259284 q 0.119296,0.173675 0.119846,0.390715 q 5.84e-4,0.23082 -0.134965,0.441314 q -0.133826,0.21049 -0.489754,0.462883 q -0.211502,0.146953 -0.2837,0.205702 q -0.07048,0.05874 -0.166698,0.153729 l 1.095534,-0.0028 z"
 id="path470" />
<path
 d="m 40.896744,19.601761 l -0.698185,0.08151 q -0.02659,-0.146596 -0.09165,-0.207317 q -0.06333,-0.06071 -0.158071,-0.06134 q -0.170528,-0.0011 -0.266407,0.170495 q -0.06972,0.123564 -0.10514,0.529859 q 0.126587,-0.126633 0.259619,-0.186043 q 0.133043,-0.06113 0.307017,-0.05998 q 0.337611,0.0022 0.568552,0.244926 q 0.232665,0.242702 0.230213,0.61304 q -0.0017,0.249764 -0.121875,0.455678 q -0.118499,0.205925 -0.329352,0.311329 q -0.209119,0.103693 -0.524338,0.101606 q -0.378951,-0.0025 -0.607189,-0.133214 q -0.228238,-0.130705 -0.364168,-0.414108 q -0.134196,-0.285114 -0.131106,-0.751914 q 0.0045,-0.683835 0.294285,-0.998871 q 0.289768,-0.316759 0.79963,-0.313384 q 0.301438,0.002 0.474944,0.07377 q 0.175239,0.07006 0.289758,0.205183 q 0.114518,0.135119 0.17346,0.338774 z m -1.299327,1.116244 q -0.0014,0.204978 0.101218,0.322792 q 0.102586,0.116093 0.252444,0.117085 q 0.137801,9.12e-4 0.231512,-0.103545 q 0.09371,-0.104457 0.09509,-0.31288 q 0.0014,-0.213591 -0.0943,-0.326192 q -0.09572,-0.112602 -0.238687,-0.113549 q -0.146413,-9.69e-4 -0.247037,0.106887 q -0.0989,0.107868 -0.100236,0.309402 z"
 id="path472" />
<path
 d="m 43.06999,19.070354 l 0.702587,0.01723 l -0.01183,0.482168 l -0.702587,-0.01723 z m -0.01706,0.695699 l 0.702587,0.01723 l -0.0435,1.773687 q -0.0083,0.339239 -0.06172,0.47922 q -0.05168,0.140024 -0.18643,0.224595 q -0.13475,0.08457 -0.381,0.07853 q -0.203199,-0.005 -0.503075,-0.07264 l 0.117545,-0.507143 q 0.08396,0.01929 0.123563,0.02026 q 0.08955,0.0022 0.137561,-0.05866 q 0.04797,-0.05913 0.05245,-0.241665 z"
 id="path474" />
<path
 d="m 46.214281,21.700467 l -0.654063,-0.02566 l 0.01162,-0.296049 q -0.153463,0.176708 -0.306248,0.248288 q -0.151064,0.07165 -0.367937,0.06314 Q 44.608484,21.678835 44.45,21.50023 q -0.156695,-0.180259 -0.14258,-0.539994 l 0.04565,-1.163544 l 0.703979,0.02762 l -0.03944,1.005192 q -0.0068,0.172122 0.0541,0.246912 q 0.06085,0.07479 0.17617,0.07932 q 0.125649,0.0049 0.208607,-0.08835 q 0.08468,-0.09321 0.09447,-0.342791 l 0.03451,-0.879543 l 0.700537,0.02749 z"
 id="path476" />
<path
 d="m 46.947137,19.21291 l 0.699833,0.04172 l -0.0284,0.476299 l -0.699833,-0.04172 z m -0.04142,0.694674 l 0.699833,0.04172 l -0.108872,1.826099 l -0.699832,-0.04172 z"
 id="path478" />
<path
 d="m 48.249071,19.983398 l 0.649949,0.06141 l -0.02803,0.296679 q 0.162942,-0.168008 0.31943,-0.231083 q 0.15665,-0.06479 0.371013,-0.04454 q 0.289819,0.02738 0.436371,0.21598 q 0.148428,0.187046 0.114403,0.547176 l -0.109367,1.157562 l -0.701397,-0.06627 l 0.09462,-1.001506 q 0.0162,-0.171491 -0.04061,-0.247797 q -0.05665,-0.07802 -0.171545,-0.08888 q -0.126903,-0.01199 -0.214863,0.07659 q -0.08796,0.08858 -0.111452,0.337243 l -0.08263,0.874603 L 48.077,21.80463 Z"
 id="path480" />
</g>
<g
 aria-label="Mar 27 juin"
 id="text7152"
 style="font-size:3.52777px;line-height:3.35383px;font-family:'Arial Black';-inkscape-font-specification:'Arial Black, ';letter-spacing:0.132292px;word-spacing:0.264583px;baseline-shift:baseline;opacity:1;vector-effect:none;fill:#e62e6c;stroke-width:0.999999px;stop-color:#000000;stop-opacity:1">
<path
 d="m 27.393924,30.473134 l 1.026601,-0.0086 l 0.408981,1.533153 l 0.381639,-1.539745 l 1.023155,-0.0085 l 0.02105,2.525162 l -0.637319,0.0053 l -0.01606,-1.925737 l -0.478298,1.929859 l -0.577032,0.0048 l -0.508686,-1.92163 l 0.01605,1.925738 l -0.639041,0.0053 z"
 style="baseline-shift:baseline;vector-effect:none;stop-color:#000000;stop-opacity:1"
 id="path483" />
<path
 d="m 31.474967,31.740784 l -0.669942,-0.07183 q 0.03821,-0.175631 0.109014,-0.275412 q 0.07253,-0.1015 0.20702,-0.175329 q 0.09656,-0.05323 0.265419,-0.08221 q 0.168862,-0.02898 0.365232,-0.02863 q 0.315225,5.65e-4 0.506362,0.03708 q 0.19114,0.03479 0.318408,0.146987 q 0.08943,0.07768 0.140853,0.220739 q 0.05142,0.141341 0.05119,0.270531 l -0.0014,0.807872 q -2.31e-4,0.129191 0.01514,0.203288 q 0.0171,0.07238 0.07201,0.186164 l -0.658011,-0.0012 q -0.03949,-0.0707 -0.05148,-0.106891 q -0.01199,-0.03792 -0.02391,-0.117176 q -0.138041,0.132389 -0.274224,0.188989 q -0.18617,0.07546 -0.432493,0.07502 q -0.327283,-5.87e-4 -0.497543,-0.152476 Q 30.74803,32.714443 30.748428,32.492235 q 3.73e-4,-0.208427 0.122915,-0.342566 q 0.122541,-0.13414 0.451664,-0.199006 q 0.394603,-0.07853 0.511792,-0.109326 q 0.117191,-0.03252 0.248197,-0.08396 q 2.32e-4,-0.129191 -0.05307,-0.180963 q -0.05331,-0.05177 -0.187664,-0.05201 q -0.172254,-3.09e-4 -0.25848,0.05466 q -0.06726,0.04294 -0.10881,0.161724 z m 0.607396,0.369714 q -0.144786,0.05142 -0.301608,0.09075 q -0.213697,0.05646 -0.27064,0.111481 q -0.05867,0.05674 -0.0588,0.129085 q -1.48e-4,0.08268 0.0566,0.136183 q 0.05847,0.05178 0.170439,0.05198 q 0.117133,2.1e-4 0.217142,-0.05645 q 0.101732,-0.05666 0.143218,-0.137547 q 0.04321,-0.08261 0.04345,-0.213518 z"
 style="baseline-shift:baseline;vector-effect:none;stop-color:#000000;stop-opacity:1"
 id="path485" />
<path
 d="m 33.343138,31.154445 l 0.656272,0.0048 l -0.0022,0.299715 q 0.09615,-0.193955 0.19658,-0.265575 q 0.102164,-0.07333 0.250299,-0.07226 q 0.155025,0.0011 0.338633,0.09892 l -0.22066,0.497949 q -0.123645,-0.05258 -0.19599,-0.0531 q -0.1378,-0.001 -0.214414,0.112135 q -0.10968,0.159405 -0.112867,0.598642 l -0.0044,0.613209 l -0.704502,-0.0051 z"
 style="baseline-shift:baseline;vector-effect:none;stop-color:#000000;stop-opacity:1"
 id="path487" />
<path
 d="m 38.587329,33.045642 l -2.104697,-0.03253 q 0.04099,-0.311184 0.227787,-0.582214 q 0.188549,-0.272726 0.69897,-0.638675 q 0.311839,-0.224306 0.399793,-0.341816 q 0.08795,-0.117511 0.0896,-0.224296 q 0.0018,-0.115396 -0.08308,-0.197677 q -0.08312,-0.08398 -0.212292,-0.08597 q -0.134342,-0.0021 -0.221764,0.08099 q -0.0857,0.08309 -0.118279,0.296208 l -0.701836,-0.0677 q 0.04592,-0.295604 0.1587,-0.459245 q 0.112812,-0.165363 0.31396,-0.250114 q 0.202898,-0.08645 0.5577,-0.08096 q 0.370303,0.0057 0.573956,0.09328 q 0.205377,0.08759 0.319781,0.265077 q 0.116153,0.175793 0.112799,0.392808 q -0.0036,0.230793 -0.142879,0.438815 q -0.13759,0.208049 -0.498,0.454001 q -0.214111,0.143125 -0.287354,0.200566 q -0.07152,0.05747 -0.169436,0.150706 l 1.095407,0.01693 z"
 style="baseline-shift:baseline;vector-effect:none;stop-color:#000000;stop-opacity:1"
 id="path489" />
<path
 d="m 39.088546,30.529055 l 2.047662,0.04259 l -0.0099,0.473598 q -0.271951,0.235552 -0.456896,0.512541 q -0.224085,0.336476 -0.358508,0.752349 q -0.106656,0.323413 -0.15034,0.767017 l -0.699202,-0.01454 q 0.09552,-0.616541 0.281611,-1.031339 q 0.186088,-0.414798 0.580054,-0.883852 l -1.246853,-0.02593 z"
 style="baseline-shift:baseline;vector-effect:none;stop-color:#000000;stop-opacity:1"
 id="path491" />
<path
 d="m 43.251354,30.626664 l 0.702502,0.02041 l -0.01401,0.482109 l -0.702502,-0.02041 z m -0.02021,0.695614 l 0.702502,0.02041 l -0.05153,1.773472 q -0.0099,0.339198 -0.06389,0.478936 q -0.05231,0.139788 -0.187445,0.223749 q -0.135131,0.08396 -0.381351,0.07681 q -0.203175,-0.0059 -0.502742,-0.07492 l 0.11984,-0.506606 q 0.08387,0.01967 0.12347,0.02082 q 0.08953,0.0026 0.137825,-0.05803 q 0.04824,-0.05891 0.05354,-0.241425 z"
 style="baseline-shift:baseline;vector-effect:none;stop-color:#000000;stop-opacity:1"
 id="path493" />
<path
 d="m 46.386322,33.254669 l -0.654171,-0.02274 l 0.01029,-0.296099 q -0.152673,0.177392 -0.305137,0.249653 q -0.150742,0.07232 -0.367652,0.06478 q -0.289213,-0.01006 -0.448492,-0.187952 q -0.157497,-0.179558 -0.144988,-0.539352 l 0.04046,-1.163736 l 0.704095,0.02448 l -0.03495,1.005358 q -0.006,0.172151 0.0552,0.246669 q 0.06118,0.07452 0.176522,0.07853 q 0.12567,0.0044 0.208211,-0.08928 q 0.08426,-0.09359 0.09294,-0.34321 l 0.03059,-0.879688 l 0.700652,0.02436 z"
 style="baseline-shift:baseline;vector-effect:none;stop-color:#000000;stop-opacity:1"
 id="path495" />
<path
 d="m 47.082978,30.756068 l 0.700454,0.0295 l -0.02008,0.476722 l -0.700455,-0.0295 z m -0.02929,0.695292 l 0.700454,0.0295 l -0.07698,1.827721 l -0.700454,-0.0295 z"
 style="baseline-shift:baseline;vector-effect:none;stop-color:#000000;stop-opacity:1"
 id="path497" />
<path
 d="m 48.364182,31.504847 l 0.651883,0.0354 l -0.01616,0.297562 q 0.156102,-0.174381 0.309947,-0.243655 q 0.153937,-0.07099 0.368939,-0.05932 q 0.290681,0.01579 0.444647,0.198382 q 0.15578,0.180968 0.136164,0.54217 l -0.06305,1.161006 l -0.703484,-0.0382 l 0.05455,-1.004485 q 0.0093,-0.172001 -0.05047,-0.245978 q -0.05972,-0.0757 -0.174957,-0.08196 q -0.127281,-0.0069 -0.211633,0.08511 q -0.08435,0.09202 -0.0979,0.341425 l -0.04764,0.877205 l -0.700044,-0.03802 z"
 style="baseline-shift:baseline;vector-effect:none;stop-color:#000000;stop-opacity:1"
 id="path499" />
</g>
</g>
</svg>
