<?xml version="1.0" encoding="UTF-8"?>
<svg width="63.295mm" height="30.581mm" version="1.1" viewBox="0 0 63.295 30.581" xmlns="http://www.w3.org/2000/svg">
<g transform="translate(-21.045 -14.878)">
<g fill="#fff" fill-rule="evenodd" stroke-width=".3">
<path d="m54.785 17.297h29.404v25.094h-29.404z" stop-color="#000000"/>
<path d="m21.195 18.287h31.641v24.604h-31.641z" stop-color="#000000"/>
<path d="m22.195 17.287h31.641v24.604h-31.641z" stop-color="#000000"/>
<path d="m54.785 16.297h28.404v25.094h-28.404z" stop-color="#000000"/>
</g>
<g fill="none" stroke="#b3b3b3" stroke-linecap="round" stroke-linejoin="round" stroke-width=".3">
<path d="m51.8 42.891h-30.606v-24.635" stop-color="#000000" style="-inkscape-stroke:none;font-variation-settings:normal"/>
<path d="m84.189 17.256v25.135h-28.122" stop-color="#000000" style="-inkscape-stroke:none;font-variation-settings:normal"/>
<path d="m51.854 41.891h-29.659v-24.635" stop-color="#000000" style="-inkscape-stroke:none;font-variation-settings:normal"/>
<path d="m83.189 16.256v25.135h-27.034" stop-color="#000000" style="-inkscape-stroke:none;font-variation-settings:normal"/>
</g>
<path d="m23.195 16.256c2.5217 0 26.516-0.93945 29.655 0.87264 2.7945-2.7945 24.433-0.73325 29.329-2.0554l0.2093 23.742c-5.8471 3.3758-22.097-0.0411-29.539 2.8514-0.76745-0.52999-22.087-1.0236-29.503-0.62327z" fill="#fff" fill-rule="evenodd" stop-color="#000000" stroke="#4d4d4d" stroke-width=".3" style="-inkscape-stroke:none;font-variation-settings:normal"/>
<g fill="none">
<path d="m58.867 21.477c7.2496-0.86322 19.461 0.19028 23.312-0.84977" stop-color="#000000" style="-inkscape-stroke:none;font-variation-settings:normal"/>
<path d="m58.873 26.476c7.2514-0.86196 19.456 0.1907 23.306-0.84907" stop-color="#000000" style="-inkscape-stroke:none;font-variation-settings:normal"/>
<path d="m58.828 32.814c8.2051-1.0705 18.61 0.93963 23.56-1.9181" stop-color="#000000" style="-inkscape-stroke:none;font-variation-settings:normal"/>
<path d="m58.883 37.807c8.2054-1.0546 18.567 0.94037 23.505-1.9111" stop-color="#000000" style="-inkscape-stroke:none;font-variation-settings:normal"/>
<path d="m27.17 38.006c9.1425-0.14416 25.02 0.28494 25.68 0.74096" stop-color="#000000" style="-inkscape-stroke:none;font-variation-settings:normal"/>
<path d="m27.195 26.701c7.6215-0.18305 23.19-0.47381 25.675 0.96136" stop-color="#000000" style="-inkscape-stroke:none;font-variation-settings:normal"/>
</g>
<path d="m52.85 17.469v24.131" fill="#fff" fill-rule="evenodd" stop-color="#000000" stroke="#4d4d4d" stroke-width=".3" style="-inkscape-stroke:none;font-variation-settings:normal"/>
<g fill="#333" stroke-width="1px">
<path d="m31.959 23.859 0.03911 2.3189 0.42782-0.0072q0.15294-0.0026 0.21802 0.05628 0.06711 0.05675 0.06871 0.15182 0.0016 0.09301-0.06356 0.15406-0.06309 0.05895-0.21603 0.06153l-1.2793 0.02157q-0.15294 0.0026-0.22005-0.05418-0.06508-0.05886-0.06668-0.15393-0.0016-0.093 0.06152-0.15195 0.06513-0.06105 0.21807-0.06363l0.42782-0.0072-0.0298-1.7671-0.37654 0.10558q-0.09052 0.02633-0.13599 0.0271-0.0806 0.0014-0.14162-0.0617-0.05895-0.06309-0.06052-0.1561-0.0014-0.08474 0.04117-0.133 0.04257-0.05033 0.18041-0.08987zm2.2587 0.46011 0.0053 0.50433q0.23485-0.0769 0.42707-0.07892 0.39065-0.0041 0.65183 0.25979 0.26118 0.26391 0.26562 0.68557 0.0046 0.43406-0.25531 0.68486-0.25784 0.24871-0.79731 0.2544-0.4754 5e-3 -0.75426-0.17189-0.16229-0.10165-0.16371-0.236-8.94e-4 -0.08474 0.06046-0.14741 0.0634-0.06475 0.15021-0.06567 0.07234-7.63e-4 0.15783 0.06862 0.08546 0.06732 0.17876 0.09321 0.1327 0.03788 0.33939 0.0357 0.38445-0.0041 0.52372-0.12748 0.13924-0.1255 0.13656-0.37973-0.0026-0.2501-0.14056-0.39128-0.13585-0.1412-0.34875-0.13896-0.22943 0.0024-0.52137 0.15433-0.06577 0.03583-0.11538 0.03636-0.09095 9.59e-4 -0.15365-0.06453-0.06064-0.06551-0.06175-0.17092l-0.0129-1.2236 1.296-0.01366q0.15295-0.0016 0.21766 0.05765 0.06675 0.05718 0.06775 0.15226 9.81e-4 0.09301-0.06453 0.15365-0.06347 0.05855-0.21642 0.06016zm3.504 0.63368q2.98e-4 0.11989-0.08425 0.20072-0.08455 0.08083-0.23338 0.0812-0.14883 3.7e-4 -0.23378-0.08003t-0.08525-0.20029q-2.99e-4 -0.11989 0.08425-0.20072 0.08455-0.08083 0.23338-0.0812 0.14883-3.7e-4 0.23378 0.08003t0.08525 0.20029zm0.0076 1.387q2.99e-4 0.11989-0.08425 0.20072-0.08455 0.08083-0.23338 0.0812-0.14883 3.71e-4 -0.23378-0.08003-0.08495-0.0804-0.08525-0.20029-2.99e-4 -0.11989 0.08425-0.20072 0.08455-0.08083 0.23338-0.0812 0.14883-3.71e-4 0.23378 0.08003 0.08495 0.0804 0.08525 0.20029zm3.1282-2.4554-0.01332 1.6577q0.13435 0.0011 0.19795 0.06154 0.06361 0.05839 0.06286 0.1514-7.47e-4 0.09301-0.06737 0.15243-0.06456 0.05943-0.19684 0.05836l-0.0014 0.16949q0.13435 0.0011 0.19795 0.06154 0.06359 0.06046 0.06285 0.15347-7.48e-4 0.09301-0.06737 0.15242-0.06454 0.05736-0.2175 0.05613l-0.56842-0.0046q-0.15296-0.0012-0.21864-0.05964-0.06359-0.06046-0.06283-0.15554 7.48e-4 -0.09301 0.06529-0.15038 0.06663-0.05941 0.21958-0.05818l0.16536 0.0013 0.0014-0.16949-1.1513-0.0093 0.0028-0.35346 1.0288-1.7198zm-0.43705 1.6543 0.0084-1.0418-0.62227 1.0368zm2.2119 0.62398 0.92787 0.02096q0.07786-0.06027 0.14606-0.05873 0.09713 0.0022 0.15148 0.06752 0.05642 0.06537 0.05291 0.22036l-0.0046 0.20252-1.9301-0.04361 0.01013-0.44844q1.1662-0.91854 1.41-1.1839 0.12299-0.13575 0.12579-0.25974 0.0035-0.15499-0.13023-0.27586-0.1316-0.12289-0.35685-0.12798-0.22732-0.0051-0.38116 0.12371-0.08012 0.06849-0.13077 0.20587-0.03089 0.08614-0.0834 0.12217-0.05044 0.03608-0.12483 0.0344-0.08679-2e-3 -0.14946-0.0654-0.0606-0.0634-0.05873-0.14606 0.0028-0.12399 0.12066-0.30741 0.11993-0.18337 0.3415-0.29002 0.22364-0.1066 0.48196-0.10076 0.40091 0.0091 0.65165 0.2587 0.25079 0.24757 0.24299 0.59268-4e-3 0.17566-0.08177 0.32483-0.07569 0.14716-0.36065 0.40537-0.22377 0.20377-0.87038 0.7288z" aria-label=" 15:42"/>
<path d="m31.985 35.235-0.0039 2.3192 0.42788 7.19e-4q0.15296 2.57e-4 0.21694 0.06031 0.06605 0.05799 0.06589 0.15307-1.56e-4 0.09302-0.0664 0.15285-0.06418 0.05777-0.21714 0.05751l-1.2795-0.0022q-0.15296-2.57e-4 -0.21901-0.05825-0.06398-0.06005-0.06382-0.15514 1.57e-4 -0.09302 0.06433-0.15079 0.06625-0.05983 0.21921-0.05958l0.42788 7.19e-4 3e-3 -1.7673-0.37844 0.09858q-0.09099 0.02465-0.13647 0.02457-0.08061-1.35e-4 -0.14045-0.06432-0.05777-0.06418-0.05761-0.15719 1.42e-4 -0.08475 0.04363-0.13222 0.04349-0.04954 0.18205-0.08651zm2.2543 0.50377-0.0045 0.50434q0.23629-0.07233 0.42852-0.07063 0.39066 0.0035 0.64667 0.27238 0.25601 0.26892 0.25228 0.69059-0.0038 0.43406-0.26854 0.67978-0.26261 0.24367-0.80209 0.2389-0.4754-0.0042-0.75079-0.18648-0.16031-0.10477-0.15912-0.23913 7.5e-4 -0.08475 0.06331-0.14621 0.06464-0.06351 0.15146-0.06274 0.07234 6.39e-4 0.15647 0.07167 0.08414 0.06896 0.17692 0.09665 0.13194 0.04044 0.33864 0.04227 0.38446 0.0034 0.52609-0.11731 0.14165-0.12278 0.1439-0.37701 0.0022-0.2501-0.13295-0.39393-0.13309-0.14381-0.34599-0.14569-0.22943-2e-3 -0.52426 0.1442-0.06645 0.03455-0.11606 0.03411-0.09095-8.04e-4 -0.15237-0.0675-0.05936-0.06667-0.05843-0.17209l0.01082-1.2236 1.296 0.01146q0.15296 0.0014 0.2165 0.06186 0.06563 0.05846 0.06479 0.15354-8.22e-4 0.09301-0.0675 0.15237-0.06459 0.05731-0.21754 0.05596zm3.4889 0.69913q-0.0018 0.11988-0.08776 0.1992-0.08595 0.07933-0.23476 0.07709-0.14881-0.0022-0.23234-0.08413-0.08353-0.08188-0.08172-0.20176 0.0018-0.11988 0.08776-0.1992 0.08595-0.07933 0.23476-0.07709 0.14881 0.0022 0.23234 0.08413 0.08353 0.08188 0.08172 0.20176zm-0.01676 1.3869q-0.0018 0.11988-0.08776 0.1992-0.08595 0.07933-0.23476 0.07709-0.14881-0.0022-0.23234-0.08412-0.08353-0.08188-0.08172-0.20176 0.0018-0.11988 0.08776-0.1992 0.08595-0.07933 0.23476-0.07709 0.14881 0.0022 0.23234 0.08413 0.08353 0.08188 0.08172 0.20176zm3.1608-2.4085-0.03499 1.6574q0.13433 0.0028 0.19713 0.06412 0.06284 0.05922 0.06088 0.15221-2e-3 0.093-0.06936 0.15153-0.06533 0.05858-0.19759 0.05579l-0.0036 0.16946q0.13433 0.0028 0.19713 0.06412 0.0628 0.06128 0.06084 0.15428-2e-3 0.093-0.06936 0.15153-0.06529 0.05651-0.21821 0.05328l-0.56831-0.012q-0.15293-0.0032-0.21784-0.06249-0.0628-0.06128-0.06079-0.15635 2e-3 -0.093 0.06725-0.14951 0.0674-0.05853 0.22032-0.05531l0.16533 0.0035 0.0036-0.16946-1.1511-0.0243 0.0075-0.35339 1.0512-1.7063zm-0.45864 1.6485 0.02199-1.0416-0.63577 1.0286zm2.1989 0.64611 0.92775 0.02573q0.07817-0.05987 0.14636-0.05798 0.09712 0.0027 0.15113 0.06829 0.05608 0.06566 0.05178 0.22063l-0.0056 0.20249-1.9299-0.05352 0.01243-0.44838q1.1709-0.91254 1.416-1.1766 0.12368-0.13512 0.12712-0.25909 0.0043-0.15497-0.12881-0.27653-0.13098-0.12357-0.35621-0.12981-0.22729-0.0063-0.38179 0.12176-0.08047 0.06808-0.13183 0.2052-0.03133 0.08598-0.08402 0.12174-0.05062 0.03582-0.12501 0.03375-0.08678-0.0024-0.14912-0.06617-0.06027-0.06371-0.05798-0.14636 0.0034-0.12398 0.12224-0.30679 0.12087-0.18276 0.34299-0.28826 0.22418-0.10545 0.48247-0.09828 0.40086 0.01112 0.65031 0.26204 0.24951 0.24886 0.23994 0.59392-0.0049 0.17563-0.08344 0.32441-0.07644 0.14677-0.36272 0.40351-0.22482 0.20263-0.87412 0.72433z" aria-label=" 15:42"/>
<path d="m63.591 23.416 0.07583 2.318 0.42765-0.01399q0.15288-5e-3 0.21888 0.05282 0.068 0.05568 0.07111 0.15072 3e-3 0.09297-0.06111 0.15504-0.06215 0.05994-0.21503 0.06494l-1.2788 0.04183q-0.15288 5e-3 -0.22088-0.05068-0.066-0.05782-0.06911-0.15285-3e-3 -0.09297 0.05911-0.15291 0.06415-0.06208 0.21703-0.06708l0.42765-0.01399-0.05778-1.7664-0.37482 0.11153q-0.09009 0.02776-0.13554 0.02925-0.08057 0.0026-0.14258-0.05945-0.05994-0.06215-0.06298-0.15512-0.0028-0.0847 0.03906-0.13364 0.04176-0.051 0.17896-0.09272zm2.2989 0.44674 0.0046 0.50434q0.23495-0.07658 0.42718-0.07835 0.39066-0.0036 0.65148 0.26067 0.26082 0.26426 0.2647 0.68592 4e-3 0.43406-0.25623 0.68452-0.25818 0.24836-0.79765 0.25333-0.4754 0.0044-0.75403-0.1729-0.16217-0.10186-0.16341-0.23622-7.8e-4 -0.08475 0.06066-0.14732 0.06349-0.06467 0.1503-0.06547 0.07234-6.66e-4 0.15774 0.06883 0.08537 0.06743 0.17863 0.09344 0.13265 0.03805 0.33934 0.03615 0.38446-0.0035 0.52389-0.12678 0.13941-0.12531 0.13707-0.37955-0.0023-0.2501-0.14003-0.39147-0.13566-0.14138-0.34856-0.13942-0.22943 0.0021-0.52157 0.15363-0.06582 0.03575-0.11543 0.0362-0.09095 8.37e-4 -0.15356-0.06474-0.06055-0.06559-0.06152-0.17101l-0.01126-1.2236 1.296-0.01193q0.15296-0.0014 0.21758 0.05795 0.06668 0.05727 0.06755 0.15235 8.55e-4 0.09301-0.06474 0.15356-0.06354 0.05846-0.2165 0.05987zm3.5098 0.64905q-3.33e-4 0.11989-0.0853 0.20027-0.08497 0.08038-0.2338 0.07997-0.14883-4.13e-4 -0.23335-0.08126-0.08452-0.08085-0.08419-0.20074 3.33e-4 -0.11989 0.08531-0.20027 0.08497-0.08038 0.2338-0.07997 0.14883 4.13e-4 0.23335 0.08126 0.08452 0.08085 0.08419 0.20074zm2.88e-4 1.387q-3.33e-4 0.11989-0.0853 0.20027-0.08497 0.08038-0.2338 0.07997-0.14883-4.13e-4 -0.23335-0.08126-0.08453-0.08085-0.08419-0.20074 3.32e-4 -0.11989 0.0853-0.20027 0.08497-0.08038 0.2338-0.07997 0.14883 4.12e-4 0.23335 0.08126 0.08452 0.08085 0.08419 0.20074zm3.1162-2.4512-0.0088 1.6578q0.13436 7.16e-4 0.19812 0.061 0.06377 0.05822 0.06327 0.15123-4.96e-4 0.09302-0.06696 0.15261-0.0644 0.0596-0.19669 0.0589l-9.02e-4 0.1695q0.13436 7.15e-4 0.19812 0.061 0.06376 0.06029 0.06326 0.1533-4.96e-4 0.09302-0.06696 0.15261-0.06439 0.05754-0.21735 0.05672l-0.56843-3e-3q-0.15296-8.14e-4 -0.2188-0.05904-0.06376-0.06028-0.06325-0.15537 4.95e-4 -0.09302 0.06488-0.15055 0.06646-0.05959 0.21942-0.05878l0.16536 8.81e-4 9.03e-4 -0.1695-1.1513-0.0061 0.0019-0.35346 1.0241-1.7226zm-0.43257 1.6555 0.0055-1.0418-0.61946 1.0385zm2.2101 0.60099 0.9281-0.0026q0.07631-0.06223 0.14452-0.06242 0.09715-2.72e-4 0.15314 0.06365 0.05806 0.06392 0.05849 0.21894l5.69e-4 0.20257-1.9306 0.0054-0.0013-0.44855q1.1425-0.94786 1.3794-1.2193 0.1195-0.13883 0.11915-0.26285-4.36e-4 -0.15503-0.13719-0.27247-0.1347-0.11951-0.36-0.11888-0.22738 6.39e-4 -0.3779 0.13335-0.07835 0.0705-0.1255 0.20913-0.02869 0.0869-0.08027 0.12425-0.0495 0.03735-0.12392 0.03756-0.08682 2.44e-4 -0.15107-0.06159-0.06218-0.06184-0.06242-0.14452-3.48e-4 -0.12402 0.11282-0.31038 0.11523-0.18636 0.33402-0.2986 0.22086-0.11224 0.47924-0.11297 0.40101-0.0011 0.65801 0.24206 0.25699 0.24112 0.25796 0.58632 4.94e-4 0.1757-0.0735 0.3268-0.07193 0.14903-0.35024 0.4144-0.21852 0.20939-0.85159 0.75067z" aria-label=" 15:42"/>
</g>
<g stroke-width="1px">
<g fill="#e62e6c" aria-label="Ven 1er déc">
<path d="m60.683 30.088-0.6388 0.06457-0.27298 1.4388-0.56238-1.3544-0.63529 0.06421 1.0774 2.4157 0.45628-0.04612zm2.042 1.6525-0.01229-0.23957c-0.02674-0.52142-0.34997-0.90048-0.89958-0.87229-0.49676 0.02548-0.83119 0.39234-0.79938 1.0124 0.04192 0.81737 0.53236 0.94411 0.95162 0.9226 0.35231-0.01807 0.53714-0.13352 0.72098-0.33723l-0.36298-0.32756c-0.09693 0.10741-0.18212 0.1683-0.38294 0.1786-0.21491 0.01102-0.34193-0.12376-0.34988-0.27878zm-0.59044-0.35475-0.5637 0.02891c-0.0023-0.0458 0.0022-0.09549 0.02412-0.1496 0.03126-0.07932 0.10515-0.15375 0.24255-0.1608 0.1374-7e-3 0.21853 0.05944 0.25773 0.13514 0.02737 0.05158 0.03695 0.10054 0.0393 0.14635zm2.737 1.0761-0.02067-1.2134c-0.0034-0.20105-0.03471-0.38046-0.19973-0.53995-0.10404-0.10055-0.24968-0.15805-0.42957-0.15498-0.15167 0.0026-0.32349 0.06549-0.4379 0.18388l-0.0026-0.1552-0.56436 0.0096 0.03233 1.8977 0.57847-0.0099-0.01935-1.1358c-0.0037-0.21869 0.15075-0.26366 0.22835-0.26498 0.0776-0.0013 0.23352 0.03836 0.23725 0.25705l0.01935 1.1358zm2.947 0.01728 0.02635-2.5116-0.57852-0.0061-0.54108 0.46002-0.0065 0.61733 0.54108-0.46002-0.01987 1.8943z" stop-color="#000000"/>
<path d="m69.702 30.599 0.0022-0.15591c0.0047-0.33934-0.18891-0.59887-0.54659-0.60384-0.32329-0.0045-0.55572 0.21932-0.56132 0.62286-0.0074 0.53194 0.30537 0.63489 0.57821 0.63867 0.22928 0.0032 0.35405-0.06388 0.48191-0.18824l-0.22162-0.22782c-0.06741 0.06557-0.12524 0.10146-0.25594 0.09965-0.13986-0.0019-0.21655-0.09474-0.21515-0.19562zm-0.36797-0.25507-0.36685-0.0051c4.14e-4 -0.02981 0.0054-0.06184 0.02197-0.09601 0.02363-0.05012 0.07471-0.09528 0.16413-0.09404 0.08942 0.0012 0.13923 0.0478 0.16145 0.09856 0.01557 0.03461 0.01971 0.06678 0.0193 0.09659zm1.6776-0.367c-0.0839-0.08577-0.16612-0.11649-0.28764-0.11782-0.1284-0.0014-0.23683 0.05702-0.29246 0.11144l0.0011-0.10089-0.36687-4e-3 -0.01357 1.2336 0.37604 0.0041 0.0081-0.73832c0.0015-0.13987 0.10276-0.16857 0.1532-0.16801 0.0642 7.07e-4 0.09829 0.0286 0.13458 0.06569z" baseline-shift="super"/>
<path d="m74.083 32.507-0.03462-2.5115-0.5785 8e-3 0.01036 0.75134c-0.10728-0.10439-0.23853-0.1555-0.42548-0.15293-0.18343 0.0025-0.34486 0.06473-0.45266 0.17912-0.17384 0.18586-0.17343 0.47163-0.16891 0.79968 0.0045 0.32805 0.01199 0.61373 0.19089 0.79472 0.11091 0.11137 0.27752 0.16905 0.46095 0.16652 0.19754-0.0027 0.32017-0.06439 0.43497-0.1824l0.0021 0.15521zm-0.59158-0.94091c0.0038 0.27514-0.01852 0.44832-0.23369 0.45129-0.21517 3e-3 -0.24225-0.16954-0.24604-0.44468-0.0038-0.27514 0.01852-0.44832 0.23369-0.45129 0.21517-3e-3 0.24225 0.16954 0.24604 0.44468zm2.7392 0.08075-0.01265-0.23955c-0.027533-0.52139-0.35133-0.89995-0.9009-0.87093-0.49672 0.02623-0.83059 0.3936-0.79785 1.0136 0.04316 0.8173 0.53379 0.9433 0.95301 0.92116 0.35229-0.0186 0.53694-0.13433 0.72046-0.33832l-0.36347-0.32701c-0.09677 0.10756-0.18186 0.16858-0.38267 0.17918-0.2149 0.01135-0.34211-0.12324-0.3503-0.27825zm-0.59098-0.35386-0.56366 0.02977c-0.0024-0.0458 2e-3 -0.09549 0.02389-0.14963 0.03114-0.07936 0.10492-0.15391 0.24231-0.16117 0.13739-0.0073 0.21862 0.05911 0.25794 0.13475 0.02745 0.05154 0.0371 0.10049 0.03952 0.14629zm0.18123-1.6523-0.539 0.02846-0.1955 0.64621 0.41218-0.02177zm2.2941 2.3499-0.43292-0.34533c-0.06533 0.0819-0.1241 0.12757-0.21875 0.13822-0.07712 0.0087-0.13247-0.0099-0.18707-0.0535-0.0745-0.06262-0.11635-0.18216-0.13647-0.36095-0.02012-0.17879-0.0059-0.30464 0.05283-0.38225 0.04356-0.0546 0.09338-0.08506 0.1705-0.09374 0.09465-0.01065 0.16209 0.02081 0.244 0.08614l0.34533-0.43292c-0.17161-0.13689-0.3848-0.20165-0.64772-0.17206-0.32602 0.03669-0.83258 0.2357-0.73987 1.0595 0.09271 0.82382 0.63084 0.90527 0.95686 0.86858 0.26292-0.02959 0.45639-0.14011 0.59328-0.31172z" stop-color="#000000"/>
</g>
<path d="m63.62 34.74 0.05845 2.3185 0.42774-0.01078q0.15291-0.0039 0.21848 0.05446 0.06758 0.05619 0.06998 0.15125 0.0023 0.09299-0.06227 0.15458-0.0626 0.05947-0.21551 0.06333l-1.2791 0.03225q-0.15291 0.0039-0.2205-0.05234-0.06557-0.05831-0.06797-0.15336-0.0023-0.09299 0.06026-0.15246 0.06461-0.06159 0.21753-0.06545l0.42774-0.01078-0.04454-1.7668-0.37565 0.10872q-0.0903 0.02709-0.13576 0.02824-0.08059 2e-3 -0.14213-0.06052-0.05947-0.0626-0.06182-0.15559-0.0021-0.08472 0.04006-0.13334 0.04214-0.05069 0.17966-0.09137zm2.3116 0.47279-0.0022 0.50436q0.23596-0.07339 0.4282-0.07256 0.39067 0.0017 0.6479 0.26945 0.25723 0.26776 0.2554 0.68944-0.0019 0.43408-0.26546 0.68099-0.26151 0.24485-0.80101 0.24252-0.47542-0.0021-0.75162-0.18308-0.16078-0.10405-0.1602-0.23841 3.67e-4 -0.08475 0.06265-0.14649 0.06436-0.0638 0.15117-0.06343 0.07235 3.12e-4 0.15679 0.07096 0.08445 0.06858 0.17736 0.09585 0.13212 0.03985 0.33882 0.04074 0.38447 0.0017 0.52555-0.11968 0.1411-0.12342 0.14219-0.37766 0.0011-0.25011-0.13473-0.39333-0.13374-0.14321-0.34665-0.14413-0.22944-9.92e-4 -0.5236 0.14657-0.0663 0.03485-0.11591 0.03464-0.09095-3.93e-4 -0.15268-0.06681-0.05966-0.0664-0.0592-0.17182l0.0053-1.2237 1.296 0.0056q0.15296 6.61e-4 0.21678 0.06088 0.06589 0.05816 0.06548 0.15325-4.02e-4 0.09302-0.06681 0.15268-0.06433 0.0576-0.21729 0.05694zm3.4944 0.69469q-0.0016 0.11988-0.08742 0.19935-0.08582 0.07948-0.23463 0.07749-0.14882-2e-3 -0.23248-0.08373-0.08366-0.08174-0.08206-0.20162 0.0016-0.11988 0.08742-0.19935 0.08582-0.07948 0.23464-0.07749 0.14881 2e-3 0.23248 0.08373 0.08366 0.08174 0.08206 0.20162zm-0.01441 1.3869q-0.0016 0.11988-0.08742 0.19935-0.08582 0.07947-0.23463 0.07748-0.14882-2e-3 -0.23248-0.08373-0.08366-0.08174-0.08206-0.20162t0.08742-0.19935q0.08582-0.07947 0.23463-0.07748 0.14882 2e-3 0.23248 0.08373 0.08366 0.08174 0.08206 0.20162zm3.1014-2.4434-0.0022 1.6578q0.13436 1.8e-4 0.19836 0.06021 0.064 0.05796 0.06388 0.15098-1.25e-4 0.09302-0.06635 0.15287-0.06416 0.05986-0.19645 0.05968l-2.27e-4 0.1695q0.13436 1.8e-4 0.19836 0.06021 0.064 0.06003 0.06387 0.15305-1.25e-4 0.09302-0.06635 0.15287-0.06416 0.05779-0.21712 0.05759l-0.56844-7.63e-4q-0.15296-2.05e-4 -0.21903-0.05817-0.064-0.06003-0.06387-0.15512 1.25e-4 -0.09302 0.06428-0.15081 0.06623-0.05986 0.21919-0.05965l0.16536 2.22e-4 2.27e-4 -0.1695-1.1513-0.0015 4.74e-4 -0.35347 1.0172-1.7267zm-0.42597 1.6572 0.0014-1.0418-0.61531 1.041zm2.1958 0.56798 0.92746-0.03474q0.07411-0.06483 0.14227-0.06738 0.09708-0.0036 0.15525 0.05831 0.06024 0.06187 0.06604 0.21679l0.0076 0.20243-1.9293 0.07226-0.01679-0.44824q1.109-0.98684 1.3364-1.2663 0.11462-0.14288 0.10998-0.26682-0.0058-0.15492-0.14654-0.26755-0.13875-0.11478-0.3639-0.10634-0.22722 0.0085-0.37306 0.14636-0.07586 0.07317-0.11819 0.21334-0.02567 0.08784-0.07592 0.12695-0.04818 0.03904-0.12254 0.04182-0.08676 0.0032-0.15311-0.05632-0.06429-0.05965-0.06738-0.14227-0.0046-0.12394 0.102-0.3141 0.10871-0.19024 0.32349-0.30998 0.21684-0.11982 0.47504-0.12949 0.40073-0.01501 0.66599 0.21914 0.26519 0.23208 0.27811 0.57704 0.0066 0.17558-0.06214 0.32915-0.06673 0.15143-0.33568 0.42627-0.21114 0.21683-0.82509 0.7797z" fill="#333" aria-label=" 15:42"/>
<path d="m60.377 20.459-0.15537-1.6437-0.61462 0.0581 0.15404 1.6296c0.02258 0.23882-0.10444 0.35714-0.29409 0.37506-0.13697 0.01295-0.20484-0.03025-0.28941-0.10021l-0.36605 0.43856c0.22296 0.18445 0.41574 0.23709 0.70725 0.20954 0.47062-0.04449 0.91436-0.37346 0.85825-0.967zm2.2275-0.03148-0.01304-0.23953c-0.02839-0.52134-0.35281-0.89937-0.90233-0.86944-0.49668 0.02705-0.82994 0.39496-0.79618 1.0149 0.0445 0.81723 0.53534 0.94242 0.95452 0.9196 0.35226-0.01918 0.53672-0.13522 0.71991-0.33951l-0.36401-0.32641c-0.09659 0.10772-0.18159 0.16887-0.38237 0.17981-0.21488 0.0117-0.34232-0.12268-0.35076-0.27767zm-0.59156-0.35288-0.56361 0.03069c-0.0025-0.04579 0.0019-0.09549 0.02365-0.14967 0.03101-0.07941 0.10466-0.15408 0.24204-0.16157 0.13738-0.0075 0.21871 0.05875 0.25816 0.13433 0.02754 0.0515 0.03727 0.10043 0.03976 0.14622zm2.721 1.0534-0.05232-1.8972-0.57833 0.01595 0.03132 1.1355c6e-3 0.21864-0.14797 0.26524-0.22555 0.26737-0.07758 0.0021-0.23391-0.0359-0.23994-0.25454l-0.03131-1.1355-0.57833 0.01595 0.03345 1.2131c0.0055 0.20101 0.03872 0.38008 0.2054 0.53782 0.10509 0.09945 0.25132 0.15541 0.43117 0.15045 0.15164-0.0042 0.32278-0.0689 0.43594-0.18848l0.0043 0.15516zm3.3488-0.77876c-0.0011-0.29986-0.15339-0.45098-0.29134-0.54571 0.12669-0.08162 0.26024-0.21618 0.25921-0.49134-0.0016-0.43391-0.345-0.74306-0.81066-0.74131-0.44802 0.0017-0.80678 0.28879-0.805 0.76151l0.57855-0.0022c-5.71e-4 -0.15169 0.10847-0.23677 0.22841-0.23722 0.11994-4.51e-4 0.22961 0.08028 0.23021 0.23902 4.26e-4 0.11289-0.06614 0.23661-0.239 0.23726l-0.08114 3.05e-4 0.0019 0.50094 0.08114-3.05e-4c0.15522-5.85e-4 0.26853 0.11188 0.26911 0.26357 6.77e-4 0.17992-0.10482 0.26851-0.25652 0.26908-0.14464 5.45e-4 -0.25786-0.08722-0.25852-0.26361l-0.57855 0.0022c0.0021 0.56444 0.42276 0.78511 0.83904 0.78354 0.44097-0.0017 0.83514-0.25009 0.83316-0.77572zm2.0699-0.0035 0.0035-0.98777c0.0018-0.51858-0.38881-0.78455-0.80508-0.78602-0.41628-0.0015-0.80879 0.26172-0.81063 0.7803l-0.0035 0.98777c-0.0018 0.51858 0.38881 0.78455 0.80508 0.78602 0.41628 0.0015 0.80879-0.26172 0.81063-0.7803zm-0.57856 0.0015c-6.25e-4 0.17639-0.10674 0.25715-0.23022 0.25671s-0.22902-0.08195-0.22839-0.25834l0.0035-0.9913c6.24e-4 -0.17639 0.10676-0.26068 0.23023-0.26024s0.229 0.08548 0.22838 0.26186zm3.9074 0.77893 0.0054-1.2135c8.91e-4 -0.20108-0.02653-0.38112-0.18809-0.54412-0.10188-0.10275-0.24625-0.16336-0.42616-0.16416-0.15169-6.72e-4 -0.32482 0.05853-0.44175 0.17443l6.88e-4 -0.15522-0.56444-0.0025-0.0084 1.8979 0.57855 0.0026 5e-3 -1.1359c9.68e-4 -0.21872 0.15638-0.26036 0.23399-0.26002s0.23264 0.04336 0.23168 0.26208l-5e-3 1.1359zm2.1178-0.95168c-0.0011-0.37041-0.05105-0.55371-0.21031-0.7261-0.11325-0.1196-0.30412-0.24251-0.61103-0.24159-0.30691 9.19e-4 -0.49704 0.12496-0.60957 0.24524-0.15823 0.17334-0.20707 0.35693-0.20596 0.72734 0.0011 0.37394 0.05105 0.55371 0.21031 0.7261 0.11325 0.1196 0.30412 0.24251 0.61103 0.24159s0.49704-0.12496 0.60957-0.24524c0.15823-0.17334 0.20708-0.3534 0.20596-0.72734zm-0.57855 0.0017c5.59e-4 0.18697-0.0096 0.32106-0.08348 0.39536-0.03517 0.03538-0.08451 0.05317-0.15506 0.05338-0.07056 2.11e-4 -0.12-0.01728-0.15538-0.05245-0.0743-0.07386-0.08529-0.20788-0.08585-0.39486s0.0096-0.32106 0.08348-0.39536c0.03517-0.03538 0.08451-0.05317 0.15506-0.05338 0.07055-2.11e-4 0.12 0.01728 0.15538 0.05245 0.0743 0.07386 0.08529 0.20788 0.08585 0.39486zm2.6298-0.98448-0.60667 0.01148-0.29176 0.98995-0.33254-0.97813-0.60667 0.01148 0.73429 1.8844 0.44089-0.0083z" fill="#e62e6c" aria-label="Jeu 30 nov"/>
</g>
<path d="m27.195 21.701c7.6215-0.18305 23.19-0.47381 25.675 0.96136" fill="none" stop-color="#000000" style="-inkscape-stroke:none;font-variation-settings:normal"/>
<path d="m52.85 17.129-0.0156 27.912c0.26542-0.52572 0.9874-1.2265 1.3238-1.5085l1.0971 0.91387-0.23317-28.225c-0.7327 0.19406-1.4712 0.31532-2.1721 0.90818z" fill="#e62e6c" fill-rule="evenodd" stop-color="#000000" stroke="#8c113a" stroke-linecap="round" stroke-linejoin="round" stroke-width=".3" style="-inkscape-stroke:none;font-variation-settings:normal"/>
<path d="m27.17 33.006c9.1425-0.14416 25.02 0.28494 25.68 0.74096" fill="none" stop-color="#000000" style="-inkscape-stroke:none;font-variation-settings:normal"/>
<path d="m29.051 21.658-0.01258-0.55019-1.0545 0.02412-0.04485-1.9609-0.6172 0.01411 0.05743 2.5111zm2.1302-0.04266-0.03716-1.8976-0.57844 0.01133 0.02224 1.1357c0.0043 0.21868-0.15008 0.26404-0.22768 0.26556-0.0776 0.0015-0.23362-0.03777-0.2379-0.25645l-0.02224-1.1357-0.57844 0.01133 0.02376 1.2133c0.0039 0.20104 0.03568 0.38037 0.2011 0.53944 0.10429 0.10028 0.25007 0.15741 0.42996 0.15389 0.15166-3e-3 0.32332-0.06632 0.43743-0.18499l3e-3 0.15519zm2.1862-0.03485-0.0186-1.2134c-0.0031-0.20106-0.03406-0.38052-0.1988-0.54029-0.10386-0.10072-0.2494-0.15847-0.4293-0.15572-0.15168 0.0023-0.3236 0.06494-0.43822 0.18313l-0.0024-0.1552-0.56438 0.0087 0.02909 1.8977 0.57849-0.0089-0.01741-1.1358c-0.0034-0.2187 0.1512-0.2634 0.2288-0.26459 0.0776-0.0012 0.23345 0.03876 0.23681 0.25746l0.01741 1.1358zm3.3208-0.03142-0.0038-0.5221-0.91014 0.0065 0.59514-0.63929c0.19956-0.21311 0.3079-0.355 0.306-0.61958-0.0034-0.47271-0.34411-0.75602-0.80976-0.75267-0.43743 0.0031-0.80941 0.27746-0.80586 0.77134l0.57854-0.0042c-0.0014-0.19402 0.12525-0.24432 0.23108-0.24508 0.14816-0.0011 0.22646 0.09362 0.22744 0.2312 7.61e-4 0.10583-0.03406 0.16958-0.12507 0.26902l-0.90304 0.99429 0.0038 0.5221zm2.1326-1.9929-3.57e-4 -0.52211-1.7216 0.0012 6.26e-4 0.91722 0.55033-3.75e-4 -2.7e-4 -0.39511 0.53622-3.66e-4 -0.78181 1.9902 0.635-4.33e-4zm3.2804 2.0195 0.01564-1.2135c0.0026-0.20107-0.02331-0.38133-0.18348-0.54569-0.10098-0.10362-0.24483-0.16545-0.42473-0.16777-0.15168-2e-3 -0.3253 0.05578-0.44321 0.17069l2e-3 -0.15521-0.5644-0.0073-0.02446 1.8978 0.57851 0.0075 0.01464-1.1358c0.0028-0.2187 0.15857-0.25903 0.23618-0.25803 0.0776 1e-3 0.23227 0.04533 0.22945 0.26404l-0.01464 1.1358zm2.1423-0.89971c0.0092-0.3703-0.03563-0.55491-0.19005-0.73166-0.10988-0.12271-0.29726-0.25087-0.60408-0.25848-0.30682-0.0076-0.50032 0.1111-0.61615 0.2282-0.16299 0.16887-0.21691 0.35103-0.2261 0.72134-0.0093 0.37383 0.03563 0.55491 0.19005 0.73166 0.10988 0.12271 0.29726 0.25087 0.60408 0.25848 0.30682 0.0076 0.50032-0.1111 0.61615-0.2282 0.16299-0.16887 0.21682-0.34751 0.2261-0.72134zm-0.57838-0.01435c-0.0046 0.18691-0.01854 0.32067-0.09444 0.39289-0.03614 0.03439-0.08595 0.0508-0.15649 0.04905-0.07053-0.0017-0.11947-0.02061-0.15386-0.05675-0.07222-0.0759-0.07948-0.21017-0.07484-0.39709 0.0046-0.18691 0.01854-0.32067 0.09444-0.39289 0.03614-0.03439 0.08595-0.0508 0.15649-0.04905 0.07053 0.0018 0.11947 0.02061 0.15386 0.05675 0.07222 0.0759 0.07948 0.21017 0.07484 0.39709zm2.7169-0.85309-0.60628-0.02445-0.34985 0.97094-0.27406-0.9961-0.60628-0.02445 0.62145 1.9245 0.44061 0.01777z" fill="#e62e6c" stroke-width="1px" aria-label="Lun 27 nov"/>
<path d="m29.755 32.978-0.02328-2.5117-0.60675 0.0056-0.55415 1.1129-0.57468-1.1024-0.60675 0.0056 0.02328 2.5117 0.61733-0.0057-0.011148-1.2029 0.36204 0.61756 0.39509-0.0037 0.35054-0.62416 0.01115 1.2029zm2.0973-3.97e-4 -3.5e-4 -1.2312c-1.31e-4 -0.46214-0.293-0.68783-0.83628-0.68768-0.32103 9.1e-5 -0.49387 0.06717-0.68784 0.26125l0.35994 0.35973c0.0917-0.09175 0.1693-0.1341 0.29982-0.13414 0.20108-5.8e-5 0.28577 0.06342 0.28582 0.23628l1.4e-5 0.04939-0.37394 1.06e-4c-0.46214 1.31e-4 -0.65609 0.26477-0.65601 0.55052 5e-5 0.17639 0.05654 0.33512 0.16593 0.44445 0.10586 0.1058 0.26463 0.16926 0.45513 0.1692 0.20108-5.7e-5 0.3069-0.05653 0.42328-0.17298l4.4e-5 0.15522zm-0.57876-0.71244c2.8e-5 0.09878-0.01407 0.1517-0.05992 0.19404-0.05996 0.05293-0.11287 0.06706-0.20812 0.06709-0.14111 4e-5 -0.20816-0.06697-0.20818-0.15516-2.7e-5 -0.09525 0.06698-0.15524 0.20104-0.15528l0.27517-7.8e-5zm2.585-1.021c-0.12987-0.13118-0.25663-0.17768-0.4436-0.17863-0.19755-9.97e-4 -0.36382 0.08989-0.44891 0.17413l7.83e-4 -0.15522-0.56444-0.0028-0.0096 1.8979 0.57855 0.0029 0.0057-1.1359c0.0011-0.21519 0.15654-0.26027 0.23415-0.25988 0.09878 4.98e-4 0.15148 0.0431 0.20764 0.09983zm3.106 1.7763 0.0065-0.52207-0.9101-0.01127 0.60754-0.62752c0.20369-0.20916 0.31479-0.3489 0.31807-0.61347 0.0059-0.47268-0.32925-0.76261-0.79488-0.76838-0.43741-0.0054-0.81469 0.26157-0.82081 0.75542l0.57851 0.0072c0.0024-0.19401 0.13-0.24182 0.23583-0.24051 0.14816 0.0018 0.22458 0.09804 0.22288 0.23561-0.0013 0.10582-0.03737 0.16888-0.13031 0.26652l-0.92233 0.97643-0.0065 0.52207zm2.1312-0.71651c0.0053-0.31393-0.17914-0.46523-0.27306-0.54444 0.08943-0.07258 0.2613-0.2214 0.26589-0.493 8e-3 -0.47618-0.37543-0.75081-0.80575-0.75808-0.43033-0.0073-0.82286 0.25425-0.8309 0.73043-0.0046 0.2716 0.16216 0.42613 0.24909 0.5017-0.09655 0.07599-0.286 0.22098-0.2913 0.5349-0.0088 0.52204 0.3679 0.77891 0.82997 0.78671 0.46207 0.0078 0.84725-0.2362 0.85607-0.75823zm-0.57823-0.02388c-0.0024 0.14462-0.1244 0.26252-0.26901 0.26008-0.14462-0.0024-0.26252-0.1244-0.26008-0.26901 0.0024-0.14462 0.1244-0.26252 0.26901-0.26008 0.14462 0.0024 0.26252 0.1244 0.26008 0.26901zm-0.0077-1.0057c-0.0023 0.13404-0.10987 0.23807-0.24391 0.2358-0.13404-0.0023-0.23807-0.10987-0.2358-0.24391 0.0023-0.13404 0.10987-0.23807 0.24391-0.2358 0.13404 0.0023 0.23807 0.10987 0.2358 0.24391zm3.8672 1.8544 0.02935-1.2132c0.0049-0.20102-0.019-0.38157-0.1773-0.54772-0.0998-0.10475-0.24295-0.1682-0.42281-0.17255-0.15165-0.0037-0.32591 0.05211-0.44511 0.16567l0.0038-0.15518-0.56428-0.01365-0.0459 1.8974 0.57838 0.01399 0.02747-1.1356c0.0053-0.21866 0.16149-0.25722 0.23908-0.25535 0.07759 0.0019 0.23174 0.04795 0.22645 0.26661l-0.02747 1.1356zm2.1536-0.88739c0.01091-0.37026-0.03306-0.55507-0.18665-0.73253-0.10931-0.12322-0.29609-0.25224-0.60287-0.26128-0.30678-9e-3 -0.50084 0.10877-0.61721 0.22534-0.16377 0.16811-0.21854 0.35002-0.22944 0.72028-0.01101 0.37378 0.03306 0.55507 0.18665 0.73253 0.10931 0.12322 0.29609 0.25224 0.60287 0.26128 0.30678 9e-3 0.50084-0.10877 0.61721-0.22534 0.16377-0.16811 0.21843-0.3465 0.22944-0.72028zm-0.5783-0.01703c-0.0055 0.18689-0.02003 0.32058-0.09626 0.39245-0.0363 0.03422-0.08619 0.0504-0.15671 0.04832-0.07053-0.0021-0.11937-0.02116-0.1536-0.05746-0.07187-0.07623-0.0785-0.21054-0.073-0.39743s0.02003-0.32058 0.09626-0.39245c0.0363-0.03422 0.08619-0.0504 0.15671-0.04832 0.07052 0.0021 0.11937 0.02116 0.1536 0.05746 0.07187 0.07623 0.0785 0.21054 0.073 0.39743zm2.7088-0.85817-0.60639-0.02156-0.34522 0.9726-0.2788-0.99478-0.60639-0.02156 0.63062 1.9216 0.44069 0.01567z" fill="#e62e6c" stroke-width="1px" aria-label="Mar 28 nov"/>
</g>
</svg>
