<?xml version="1.0" encoding="UTF-8"?>
<svg width="63.295mm" height="30.581mm" version="1.1" viewBox="0 0 63.295 30.581" xmlns="http://www.w3.org/2000/svg">
<g transform="translate(-21.045 -14.878)">
<g fill="#fff" fill-rule="evenodd" stroke-width=".3">
<path d="m54.785 17.297h29.404v25.094h-29.404z" stop-color="#000000"/>
<path d="m21.195 18.287h31.641v24.604h-31.641z" stop-color="#000000"/>
<path d="m22.195 17.287h31.641v24.604h-31.641z" stop-color="#000000"/>
<path d="m54.785 16.297h28.404v25.094h-28.404z" stop-color="#000000"/>
</g>
<g fill="none" stroke="#b3b3b3" stroke-linecap="round" stroke-linejoin="round" stroke-width=".3">
<path d="m51.8 42.891h-30.606v-24.635" stop-color="#000000" style="-inkscape-stroke:none;font-variation-settings:normal"/>
<path d="m84.189 17.256v25.135h-28.122" stop-color="#000000" style="-inkscape-stroke:none;font-variation-settings:normal"/>
<path d="m51.854 41.891h-29.659v-24.635" stop-color="#000000" style="-inkscape-stroke:none;font-variation-settings:normal"/>
<path d="m83.189 16.256v25.135h-27.034" stop-color="#000000" style="-inkscape-stroke:none;font-variation-settings:normal"/>
</g>
<path d="m23.195 16.256c2.5217 0 26.516-0.93945 29.655 0.87264 2.7945-2.7945 24.433-0.73325 29.329-2.0554l0.2093 23.742c-5.8471 3.3758-22.097-0.0411-29.539 2.8514-0.76745-0.52999-22.087-1.0236-29.503-0.62327z" fill="#fff" fill-rule="evenodd" stop-color="#000000" stroke="#4d4d4d" stroke-width=".3" style="-inkscape-stroke:none;font-variation-settings:normal"/>
<g fill="none">
<path d="m56.867 21.477c7.2496-0.86322 21.461 0.19028 25.312-0.84977" stop-color="#000000" style="-inkscape-stroke:none;font-variation-settings:normal"/>
<path d="m56.873 26.476c7.2514-0.86196 21.456 0.1907 25.306-0.84907" stop-color="#000000" style="-inkscape-stroke:none;font-variation-settings:normal"/>
<path d="m56.828 32.814c8.2051-1.0705 20.61 0.93963 25.56-1.9181" stop-color="#000000" style="-inkscape-stroke:none;font-variation-settings:normal"/>
<path d="m56.883 37.807c8.2054-1.0546 20.567 0.94037 25.505-1.9111" stop-color="#000000" style="-inkscape-stroke:none;font-variation-settings:normal"/>
<path d="m27.17 38.006c9.1425-0.14416 25.02 0.28494 25.68 0.74096" stop-color="#000000" style="-inkscape-stroke:none;font-variation-settings:normal"/>
<path d="m27.195 26.701c7.6215-0.18305 23.19-0.47381 25.675 0.96136" stop-color="#000000" style="-inkscape-stroke:none;font-variation-settings:normal"/>
</g>
<path d="m52.85 17.469v24.131" fill="#fff" fill-rule="evenodd" stop-color="#000000" stroke="#4d4d4d" stroke-width=".3" style="-inkscape-stroke:none;font-variation-settings:normal"/>
<g fill="#333" stroke-width="1px">
<g stop-color="#000000" aria-label=" ??:??">
<path d="m31.989 25.624q-0.01038 0.12008-0.06731 0.17686-0.0549 0.05468-0.1417 0.05614-0.093 0.0016-0.15402-0.06149-0.05898-0.06516-0.06156-0.2181l-4e-3 -0.23768q0.49898-0.20068 0.60058-0.30576 0.1016-0.10508 0.09978-0.21255-0.0025-0.15087-0.12633-0.25836-0.12172-0.10752-0.34286-0.10379-0.23354 0.0039-0.44874 0.11507l1e-3 0.062q0.0025 0.15087-0.05628 0.21802-0.05679 0.06505-0.15186 0.06665-0.09301 0.0016-0.15402-0.06149-0.05895-0.06309-0.06153-0.21604l-0.0058-0.34102q0.3219-0.15841 0.50087-0.21105 0.17897-0.05263 0.37118-0.05588 0.40095-0.0068 0.64667 0.22064 0.24572 0.2274 0.2516 0.57668 0.0042 0.24801-0.13963 0.42409-0.14174 0.17605-0.55613 0.36703zm0.10267 0.81694q0.0016 0.09714-0.06759 0.16033-0.06719 0.06109-0.2284 0.06381-0.16121 0.0027-0.23249-0.05603-0.06925-0.06085-0.07089-0.15799-0.0016-0.09714 0.06555-0.15822 0.06716-0.06315 0.23043-0.06591 0.16121-0.0027 0.23046 0.05813 0.07128 0.05875 0.07292 0.15589z"/>
<path d="m34.803 25.587q-0.01114 0.12001-0.06842 0.17643-0.05524 0.05433-0.14205 0.05524-0.09301 9.81e-4 -0.15363-0.06246-0.05857-0.06553-0.06018-0.21849l-0.0025-0.2377q0.50024-0.19752 0.6025-0.30196 0.10226-0.10444 0.10112-0.21192-0.0016-0.15089-0.1247-0.25915-0.12104-0.10828-0.3422-0.10595-0.23356 0.0025-0.44946 0.11223l6.54e-4 0.06201q0.0016 0.15089-0.05765 0.21766-0.0572 0.06469-0.15228 0.06569-0.09301 9.81e-4 -0.15363-0.06246-0.05855-0.06347-0.06016-0.21642l-0.0036-0.34104q0.3229-0.15638 0.5022-0.20788 0.1793-0.0515 0.37153-0.05353 0.40099-0.0042 0.64526 0.22472 0.24427 0.22895 0.24796 0.57826 0.0026 0.24803-0.14231 0.4232-0.14286 0.17515-0.55844 0.36351zm0.09751 0.81757q1e-3 0.09715-0.0686 0.1599-0.06758 0.06066-0.2288 0.06236-0.16122 0.0017-0.23213-0.0575-0.06886-0.06129-0.06989-0.15844-1e-3 -0.09715 0.06655-0.15781 0.06756-0.06273 0.23084-0.06445 0.16122-0.0017 0.23008 0.05959 0.07091 0.0592 0.07193 0.15635z"/>
<path d="m37.721 24.953q2.98e-4 0.11989-0.08425 0.20072-0.08455 0.08083-0.23338 0.0812-0.14883 3.7e-4 -0.23378-0.08003t-0.08525-0.20029q-2.99e-4 -0.11989 0.08425-0.20072 0.08455-0.08083 0.23338-0.0812 0.14883-3.7e-4 0.23378 0.08003t0.08525 0.20029zm0.0076 1.387q2.99e-4 0.11989-0.08425 0.20072-0.08455 0.08083-0.23338 0.0812-0.14883 3.71e-4 -0.23378-0.08003-0.08495-0.0804-0.08525-0.20029-2.99e-4 -0.11989 0.08425-0.20072 0.08455-0.08083 0.23338-0.0812 0.14883-3.71e-4 0.23378 0.08003 0.08495 0.0804 0.08525 0.20029z"/>
<path d="m40.438 25.578q-0.01337 0.11979-0.07169 0.17513-0.05624 0.05329-0.14305 0.0526-0.09302-7.47e-4 -0.15244-0.06531-0.05735-0.06661-0.05612-0.21956l0.0019-0.2377q0.50382-0.18819 0.608-0.29071t0.10504-0.21q0.0012-0.15089-0.11986-0.26142-0.119-0.11051-0.34017-0.11229-0.23357-0.0019-0.45147 0.10386l-4.98e-4 0.06201q-0.0012 0.15089-0.06169 0.21655-0.05839 0.06361-0.15347 0.06285-0.09301-7.47e-4 -0.15244-0.06531-0.05736-0.06454-0.05613-0.2175l0.0027-0.34105q0.32575-0.15035 0.50597-0.19851 0.18023-0.04816 0.37246-0.04662 0.401 0.0032 0.64097 0.23667 0.23998 0.23345 0.23717 0.58277-2e-3 0.24804-0.15014 0.42049-0.14608 0.17246-0.5651 0.35307zm0.0823 0.81924q-7.81e-4 0.09715-0.07156 0.15859-0.06869 0.05939-0.22992 0.0581-0.16122-0.0013-0.23102-0.0618-0.06771-0.06256-0.06693-0.15971 7.8e-4 -0.09715 0.06947-0.15654 0.06871-0.06146 0.232-0.06015 0.16122 0.0013 0.22894 0.06385 0.0698 0.06051 0.06902 0.15766z"/>
<path d="m43.256 25.623q-0.01511 0.11958-0.07423 0.17407-0.05701 0.05247-0.1438 0.05051-0.09299-0.0021-0.15148-0.06752-0.05637-0.06744-0.05291-0.22036l0.0054-0.23765q0.50651-0.18084 0.61217-0.28183t0.10809-0.20845q0.0034-0.15086-0.11604-0.26314-0.11738-0.11223-0.3385-0.11723-0.23352-0.0053-0.45293 0.09728l-0.0014 0.062q-0.0034 0.15086-0.06483 0.21563-0.05931 0.06275-0.15437 0.06061-0.09299-0.0021-0.15148-0.06752-0.05642-0.06537-0.05296-0.21829l0.0077-0.34098q0.3279-0.14559 0.50881-0.19113 0.18091-0.04554 0.3731-0.04119 0.40091 0.0091 0.63746 0.24597 0.23656 0.23691 0.22866 0.58616-0.0056 0.24798-0.15625 0.41826-0.14858 0.17032-0.57017 0.34481zm0.07037 0.82035q-0.0022 0.09713-0.07386 0.15754-0.06955 0.05839-0.23074 0.05475-0.16119-0.0036-0.2301-0.06516-0.06679-0.06354-0.0646-0.16066 0.0022-0.09713 0.07174-0.15552 0.0696-0.06046 0.23285-0.05677 0.16119 0.0036 0.22798 0.06718 0.06891 0.06152 0.06671 0.15864z"/>
</g>
<g stop-color="#000000" aria-label=" 14:30">
<path d="m31.985 35.235-0.0039 2.3192 0.42788 7.19e-4q0.15296 2.57e-4 0.21694 0.06031 0.06605 0.05799 0.06589 0.15307-1.56e-4 0.09302-0.0664 0.15285-0.06418 0.05777-0.21714 0.05751l-1.2795-0.0022q-0.15296-2.57e-4 -0.21901-0.05825-0.06398-0.06005-0.06382-0.15514 1.57e-4 -0.09302 0.06433-0.15079 0.06625-0.05983 0.21921-0.05958l0.42788 7.19e-4 3e-3 -1.7673-0.37844 0.09858q-0.09099 0.02465-0.13647 0.02457-0.08061-1.35e-4 -0.14045-0.06432-0.05777-0.06418-0.05761-0.15719 1.42e-4 -0.08475 0.04363-0.13222 0.04349-0.04954 0.18205-0.08651z"/>
<path d="m35.221 35.324-0.01466 1.6577q0.13435 0.0012 0.1979 0.0617 0.06356 0.05844 0.06274 0.15146-8.22e-4 0.09301-0.0675 0.15237-0.06461 0.05938-0.19689 0.05821l-0.0015 0.16949q0.13435 0.0012 0.1979 0.0617 0.06355 0.06051 0.06272 0.15352-8.23e-4 0.09301-0.0675 0.15237-0.064572 0.057299-0.21753 0.055946l-0.56842-5e-3q-0.15296-0.0014-0.21859-0.05981-0.06355-0.06051-0.0627-0.15559 8.23e-4 -0.09301 0.06541-0.15032 0.06667-0.05936 0.21963-0.05801l0.16536 0.0015 0.0015-0.16949-1.1513-0.01018 0.0031-0.35345 1.0302-1.719zm-0.43839 1.654 0.0092-1.0418-0.6231 1.0363z"/>
<path d="m37.728 36.438q-0.0018 0.11988-0.08776 0.1992-0.08595 0.07933-0.23476 0.07709-0.14881-0.0022-0.23234-0.08413-0.08353-0.08188-0.08172-0.20176 0.0018-0.11988 0.08776-0.1992 0.08595-0.07933 0.23476-0.07709 0.14881 0.0022 0.23234 0.08413 0.08353 0.08188 0.08172 0.20176zm-0.01676 1.3869q-0.0018 0.11988-0.08776 0.1992-0.08595 0.07933-0.23476 0.07709-0.14881-0.0022-0.23234-0.08412-0.08353-0.08188-0.08172-0.20176 0.0018-0.11988 0.08776-0.1992 0.08595-0.07933 0.23476-0.07709 0.14881 0.0022 0.23234 0.08413 0.08353 0.08188 0.08172 0.20176z"/>
<path d="m40.829 36.675q0.18536 0.1321 0.27478 0.30352 0.08946 0.16936 0.08506 0.37808-0.0048 0.22526-0.13281 0.41484-0.12594 0.18755-0.36156 0.28182-0.23558 0.0922-0.61376 0.08422-0.49185-0.01038-0.73661-0.16855-0.13663-0.08972-0.1341-0.20958 0.0019-0.09093 0.06316-0.15166 0.06335-0.06275 0.15015-0.06092 0.05993 0.0013 0.12312 0.04395 0.08962 0.06392 0.16978 0.08628 0.12338 0.03155 0.34038 0.03613 0.36992 0.0078 0.53726-0.08376 0.16738-0.09364 0.17109-0.2693 0.0027-0.1302-0.09185-0.25211-0.09249-0.12394-0.25229-0.19347-0.09221-0.03916-0.31303-0.0583-0.10526-0.0084-0.16191-0.06751-0.05453-0.06111-0.0527-0.14791 0.0019-0.09093 0.06523-0.15162 0.06331-0.06069 0.15837-0.05868 0.21079 0.0045 0.2253 0.0027 0.08284-0.0065 0.16646-0.05024 0.08362-0.04372 0.13488-0.1212 0.05337-0.07951 0.05515-0.16424 0.0028-0.13433-0.11498-0.23399-0.1157-0.10168-0.35336-0.1067-0.30586-0.0065-0.4708 0.16787-0.04862 0.05066-0.07786 0.06452-0.04388 0.02182-0.09761 0.02068-0.0868-0.0018-0.14749-0.06514-0.06069-0.06331-0.05877-0.15424 3e-3 -0.1426 0.19597-0.27291 0.28107-0.19048 0.69645-0.18171 0.39265 0.0083 0.6256 0.2365 0.23295 0.22821 0.22632 0.54233-0.0034 0.16326-0.07672 0.30437-0.07323 0.13904-0.21629 0.25594z"/>
<path d="m43.965 36.599-0.01289 0.46491q-0.01146 0.41325-0.26163 0.78473-0.24811 0.37154-0.69235 0.35922-0.25622-0.0071-0.43082-0.12361-0.17248-0.11852-0.32322-0.4246-0.14861-0.3081-0.13922-0.64696l0.01289-0.46491q0.0114-0.41119 0.25951-0.78272 0.24816-0.3736 0.69241-0.36128 0.25415 7e-3 0.42669 0.1235 0.1746 0.11651 0.32528 0.42466 0.1528 0.30614 0.14335 0.64708zm-0.42565-0.0118q0.0096-0.34507-0.17543-0.60868-0.10556-0.14561-0.30392-0.15111-0.19216-0.0053-0.31843 0.14833-0.19049 0.23252-0.20023 0.58378l-0.01289 0.46491q-0.0096 0.34713 0.1775 0.60873 0.10349 0.14555 0.30392 0.15111 0.1901 0.0053 0.31636-0.14838 0.19049-0.23252 0.20023-0.58378z"/>
</g>
<g stop-color="#000000" aria-label=" 15:30">
<path d="m61.591 23.422 0.07527 2.318 0.42766-0.01389q0.15288-5e-3 0.21887 0.05287 0.06799 0.0557 0.07107 0.15073 3e-3 0.09297-0.06115 0.15503-0.06217 0.05993-0.21505 0.06489l-1.2788 0.04153q-0.15288 5e-3 -0.22087-0.05074-0.06599-0.05783-0.06908-0.15287-3e-3 -0.09297 0.05915-0.1529 0.06417-0.06206 0.21705-0.06702l0.42766-0.01389-0.05736-1.7664-0.37485 0.11144q-0.0901 0.02774-0.13555 0.02922-0.08057 0.0026-0.14257-0.05948-0.05993-0.06217-0.06294-0.15514-0.0028-0.0847 0.03909-0.13363 0.04178-0.05099 0.17899-0.09267z"/>
<path d="m63.883 23.867 0.0054 0.50433q0.23484-0.07692 0.42706-0.07898 0.39065-0.0042 0.65186 0.25971 0.26121 0.26388 0.26572 0.68553 0.0046 0.43406-0.25522 0.68489-0.25781 0.24875-0.79728 0.2545-0.4754 0.0051-0.75428-0.17179-0.16232-0.10163-0.16376-0.23598-9.05e-4 -0.08474 0.06044-0.14742 0.06339-0.06476 0.1502-0.06569 0.07234-7.73e-4 0.15784 0.0686 0.08547 0.0673 0.17877 0.09318 0.1327 0.03786 0.3394 0.03565 0.38445-0.0041 0.5237-0.12755 0.13923-0.12552 0.13651-0.37975-0.0027-0.2501-0.14061-0.39126-0.13587-0.14118-0.34877-0.13891-0.22943 0.0024-0.52135 0.1544-0.06577 0.03584-0.11537 0.03637-0.09095 9.71e-4 -0.15366-0.06451-0.06065-0.0655-0.06177-0.17092l-0.01306-1.2236 1.296-0.01384q0.15295-0.0016 0.21767 0.05762 0.06676 0.05717 0.06777 0.15225 9.93e-4 0.09301-0.06451 0.15366-0.06346 0.05856-0.21641 0.06019z"/>
<path d="m67.395 24.509q-1.04e-4 0.11989-0.08492 0.20043-0.08482 0.08054-0.23365 0.08041-0.14883-1.29e-4 -0.23351-0.08082-0.08468-0.08069-0.08458-0.20058 1.04e-4 -0.11989 0.08492-0.20043 0.08482-0.08054 0.23365-0.08041 0.14883 1.29e-4 0.23351 0.08082 0.08468 0.08069 0.08458 0.20058zm0.0029 1.387q-1.03e-4 0.11989-0.08492 0.20043-0.08482 0.08054-0.23365 0.08041-0.14883-1.29e-4 -0.23351-0.08082-0.08468-0.08069-0.08458-0.20058 1.03e-4 -0.11989 0.08492-0.20043 0.08482-0.08054 0.23365-0.08041 0.14883 1.29e-4 0.23351 0.08082 0.08468 0.08069 0.08458 0.20058z"/>
<path d="m70.495 24.701q0.18745 0.1291 0.27962 0.29907 0.09217 0.1679 0.09112 0.37667-0.0011 0.22531-0.12612 0.41692-0.12291 0.18955-0.35699 0.28759-0.23406 0.09597-0.61233 0.09407-0.49195-0.0025-0.73923-0.15669-0.13805-0.08751-0.13745-0.2074 4.58e-4 -0.09095 0.06072-0.15266 0.06233-0.06377 0.14915-0.06333 0.05994 3.02e-4 0.12381 0.04197 0.09064 0.06247 0.17115 0.08355 0.12388 0.02956 0.34091 0.03066 0.37 0.0019 0.53584-0.09239 0.16585-0.09632 0.16674-0.27201 6.56e-4 -0.13022-0.09589-0.2506-0.09447-0.12243-0.25536-0.18939-0.09283-0.03768-0.31393-0.05326-0.10539-0.0067-0.16297-0.0649-0.05551-0.06022-0.05507-0.14704 4.58e-4 -0.09095 0.06278-0.15265 0.06232-0.0617 0.15741-0.06122 0.21084 0.0011 0.22532-9.32e-4 0.08272-0.0079 0.16563-0.05291 0.08291-0.04506 0.13291-0.12336 0.05208-0.08035 0.05251-0.1651 6.77e-4 -0.13436-0.11872-0.23211-0.11732-0.09981-0.35503-0.10101-0.30592-0.0015-0.46804 0.17541-0.0478 0.05144-0.07681 0.06576-0.04352 0.02252-0.09727 0.02225-0.08682-4.37e-4 -0.14851-0.06276-0.0617-0.06232-0.06124-0.15327 7.18e-4 -0.14262 0.19156-0.27602 0.27797-0.19497 0.69344-0.19288 0.39274 2e-3 0.62932 0.22642 0.23658 0.22444 0.235 0.53862-8.23e-4 0.1633-0.07182 0.30557-0.07099 0.1402-0.21215 0.25938z"/>
<path d="m73.614 24.555-9.53e-4 0.46509q-8.48e-4 0.41341-0.2414 0.79119-0.23849 0.37778-0.6829 0.37687-0.25632-5.26e-4 -0.43385-0.11251-0.17547-0.11405-0.33401-0.41616-0.15647-0.30418-0.15578-0.64318l9.54e-4 -0.46509q8.43e-4 -0.41134 0.23933-0.78913 0.23849-0.37985 0.68291-0.37894 0.25425 5.21e-4 0.42972 0.1125 0.17754 0.11198 0.33608 0.41617 0.16061 0.30212 0.15991 0.64318zm-0.42581-8.73e-4q7.07e-4 -0.3452-0.191-0.60397-0.10926-0.14285-0.3077-0.14326-0.19224-3.94e-4 -0.31451 0.15645-0.18446 0.23733-0.18518 0.58873l-9.53e-4 0.46509q-7.12e-4 0.34726 0.19306 0.60398 0.10719 0.14285 0.3077 0.14326 0.19017 3.9e-4 0.31245-0.15646 0.18446-0.23733 0.18518-0.58873z"/>
</g>
</g>
<g stroke-width="1px">
<g fill="#e62e6c" stop-color="#000000" aria-label="Ven 23 juin">
<path d="m56.606 30.273 0.8132-0.07317 0.72901 1.759 0.39472-1.8601 0.78918-0.07101-0.70699 2.5991-0.84237 0.07579z" stop-color="#000000"/>
<path d="m61.908 31.733-1.4048 0.04847q0.02476 0.16806 0.09991 0.24819 0.10567 0.11528 0.26921 0.10964 0.10329-0.0036 0.19447-0.05842 0.05568-0.03467 0.11825-0.11956l0.69253 0.03988q-0.14888 0.28091-0.36851 0.40914-0.2197 0.12651-0.63803 0.14094-0.36324 0.01253-0.57505-0.08185-0.21187-0.0961-0.35725-0.31343-0.14372-0.2191-0.15412-0.52037-0.01479-0.42866 0.24978-0.70322 0.2663-0.27462 0.75004-0.29131 0.39251-0.01354 0.62385 0.0974 0.23134 0.11094 0.35791 0.33236 0.12657 0.22142 0.13904 0.58294zm-0.72429-0.3111q-0.02767-0.20243-0.12022-0.28714-0.09083-0.08477-0.23544-0.07978-0.16699 0.0058-0.26226 0.14176-0.06085 0.08483-0.07242 0.24897z" stop-color="#000000"/>
<path d="m62.378 30.641 0.65284-0.0035 0.0016 0.298q0.14545-0.18336 0.2949-0.26167 0.14944-0.08003 0.36476-0.08117 0.2911-0.0015 0.45566 0.17157 0.16627 0.17138 0.16818 0.53311l0.0061 1.1627-0.70451 0.0037-0.0053-1.006q-9.11e-4 -0.17225-0.06502-0.24254-0.06412-0.07201-0.17952-0.0714-0.12747 6.73e-4 -0.20619 0.09755-0.07873 0.09688-0.07741 0.34665l0.0046 0.87848-0.70107 0.0037z" stop-color="#000000"/>
<path d="m68.433 32.505-2.1048-0.02578q0.03999-0.31131 0.22592-0.58294 0.18767-0.27333 0.69692-0.64091 0.31112-0.22531 0.39869-0.3431 0.08758-0.11779 0.08888-0.22458 0.0014-0.1154-0.08372-0.19741-0.08339-0.08371-0.21257-0.08529-0.13435-0.0016-0.2215 0.0817-0.08543 0.08336-0.11733 0.29659l-0.70205-0.06545q0.04497-0.29575 0.15722-0.45975 0.11228-0.16572 0.31316-0.25112 0.20262-0.0871 0.55744-0.08275 0.37032 0.0045 0.57425 0.09144 0.20566 0.08693 0.32063 0.26405 0.11672 0.17542 0.11406 0.39244-0.0028 0.2308-0.14147 0.43927-0.13692 0.20849-0.49654 0.4556-0.21365 0.14381-0.28671 0.20149-0.07134 0.0577-0.16895 0.15125l1.0955 0.01342z" stop-color="#000000"/>
<path d="m69.562 30.723-0.66232-0.12356q0.08493-0.31635 0.32039-0.48349 0.23718-0.16713 0.66781-0.16407 0.49436 0.0035 0.71353 0.18938 0.21917 0.18587 0.21719 0.46492-0.0012 0.16364-0.09167 0.29563-0.09051 0.132-0.27208 0.23062 0.14616 0.03721 0.22333 0.08599 0.12519 0.07841 0.19319 0.20636 0.06973 0.12624 0.06848 0.30194-0.0016 0.22048-0.11842 0.42292-0.11684 0.20071-0.33466 0.30941-0.2178 0.10698-0.57092 0.10447-0.3445-0.0024-0.54374-0.08482-0.19751-0.08236-0.3256-0.23831-0.12635-0.15765-0.19358-0.39412l0.70172-0.08804q0.03983 0.21216 0.12537 0.29545 0.08727 0.08158 0.22163 0.08254 0.14124 1e-3 0.23499-0.10169 0.09547-0.10268 0.09669-0.27493 0.0012-0.1757-0.08936-0.2728-0.08888-0.0971-0.24391-0.0982-0.08268-5.88e-4 -0.22766 0.03973l0.03973-0.50099q0.0585 9e-3 0.09123 0.0093 0.1378 9.79e-4 0.22972-0.08622 0.09364-0.08719 0.09449-0.20776 8.2e-4 -0.11541-0.06759-0.1848-0.06841-0.06939-0.18899-0.07025-0.12402-8.81e-4 -0.20207 0.07436-0.07804 0.07352-0.10693 0.26107z" stop-color="#000000"/>
<path d="m72.961 29.986 0.70262-0.01597 0.01096 0.48219-0.70262 0.01597zm0.01581 0.69573 0.70262-0.01597 0.04031 1.7738q0.0077 0.33925-0.03902 0.4816-0.04501 0.14231-0.17562 0.23315-0.1306 0.09084-0.37686 0.09644-0.20321 0.0046-0.50594-0.04881l0.09346-0.51213q0.08477 0.0153 0.12438 0.0144 0.08955-2e-3 0.13464-0.06509 0.04513-0.06133 0.04098-0.24387z" stop-color="#000000"/>
<path d="m76.224 32.378-0.65354 0.03658-0.01656-0.29581q-0.13598 0.19049-0.28128 0.27626-0.14358 0.08567-0.36028 0.0978-0.28894 0.01617-0.46367-0.14657-0.17311-0.16456-0.19323-0.52401l-0.06508-1.1626 0.70342-0.03937 0.05622 1.0044q0.0096 0.17198 0.07731 0.24066 0.06768 0.06867 0.18291 0.06222 0.12555-7e-3 0.19927-0.10777 0.07544-0.10084 0.06148-0.35022l-0.04919-0.87884 0.69998-0.03918z" stop-color="#000000"/>
<path d="m76.541 29.81 0.6972-0.07364 0.05012 0.4745-0.6972 0.07364zm0.0731 0.69206 0.6972-0.07364 0.19215 1.8192-0.6972 0.07364z" stop-color="#000000"/>
<path d="m77.74 30.4 0.64142-0.12161 0.05551 0.29278q0.10984-0.20667 0.24264-0.31074 0.13248-0.10576 0.34403-0.14587 0.28602-0.05423 0.4792 0.08622 0.19456 0.13844 0.26194 0.49384l0.21659 1.1424-0.69219 0.13124-0.18739-0.98836q-0.03209-0.16924-0.10786-0.22676-0.07609-0.05921-0.18949-0.03771-0.12524 0.02374-0.18512 0.13328-0.05988 0.10953-0.01336 0.35493l0.16364 0.86312-0.6888 0.13059z" stop-color="#000000"/>
</g>
<g fill="#333" stop-color="#000000" aria-label=" 13:30">
<path d="m61.618 34.744 0.06001 2.3185 0.42774-0.01107q0.15291-4e-3 0.21852 0.05431 0.06762 0.05615 0.07008 0.1512 0.0024 0.09299-0.06217 0.15462-0.06256 0.05952-0.21547 0.06347l-1.2791 0.0331q-0.15291 4e-3 -0.22053-0.05219-0.06561-0.05827-0.06807-0.15332-0.0024-0.09299 0.06015-0.1525 0.06457-0.06164 0.21748-0.06559l0.42774-0.01107-0.04573-1.7667-0.37558 0.10897q-0.09028 0.02715-0.13574 0.02833-0.08059 0.0021-0.14217-0.06042-0.05952-0.06256-0.06192-0.15555-0.0022-0.08472 0.03997-0.13337 0.04211-0.05072 0.17959-0.09149z"/>
<path d="m64.885 36.049q0.1879 0.12846 0.28064 0.29811 0.09275 0.16758 0.09241 0.37635-3.61e-4 0.22531-0.12469 0.41735-0.12226 0.18997-0.356 0.28882-0.23373 0.09678-0.612 0.09617-0.49196-7.88e-4 -0.73976-0.15415-0.13835-0.08704-0.13816-0.20693 1.46e-4 -0.09095 0.06019-0.15286 0.06211-0.06398 0.14893-0.06384 0.05994 9.6e-5 0.12396 0.04154 0.09085 0.06216 0.17143 0.08296 0.12398 0.02914 0.34102 0.02949 0.37 5.93e-4 0.53552-0.09423 0.16552-0.09689 0.1658-0.27259 2.13e-4 -0.13023-0.096746-0.25027-0.09489-0.12211-0.25601-0.18851-0.09296-0.03736-0.31411-0.05218-0.10541-0.0064-0.16319-0.06434-0.05571-0.06003-0.05557-0.14685 1.45e-4 -0.09095 0.06226-0.15286 0.06211-0.06191 0.1572-0.06176 0.21084 3.38e-4 0.22531-0.0017 0.0827-0.0081 0.16545-0.05348 0.08276-0.04534 0.13249-0.12381 0.05181-0.08053 0.05194-0.16528 2.15e-4 -0.13436-0.11952-0.2317-0.11766-0.09941-0.35537-0.09979-0.30592-4.9e-4 -0.46744 0.17702-0.04762 0.0516-0.07659 0.06602-0.04345 0.02267-0.09719 0.02258-0.08682-1.39e-4 -0.14873-0.06225-0.06191-0.06211-0.06177-0.15306 2.29e-4 -0.14263 0.19061-0.27668 0.2773-0.19593 0.69278-0.19526 0.39274 6.3e-4 0.63009 0.22425 0.23735 0.22362 0.23685 0.53782-2.61e-4 0.1633-0.07077 0.30581-0.0705 0.14045-0.21126 0.26011z"/>
<path d="m67.422 35.898q-0.0014 0.11988-0.08714 0.19948-0.08571 0.0796-0.23452 0.07782-0.14882-0.0018-0.2326-0.0834-0.08378-0.08162-0.08235-0.2015 0.0014-0.11988 0.08714-0.19948 0.08571-0.0796 0.23452-0.07782 0.14882 0.0018 0.2326 0.0834 0.08378 0.08162 0.08235 0.2015zm-0.01245 1.3869q-0.0014 0.11988-0.08714 0.19948-0.08571 0.0796-0.23452 0.07782-0.14882-0.0018-0.2326-0.0834-0.08378-0.08162-0.08235-0.2015 0.0014-0.11988 0.08714-0.19948 0.08571-0.0796 0.23452-0.07782 0.14882 0.0018 0.2326 0.0834 0.08378 0.08162 0.08235 0.2015z"/>
<path d="m70.507 36.108q0.18719 0.12948 0.27901 0.29963 0.09183 0.16808 0.09036 0.37685-0.0016 0.2253-0.12697 0.41666-0.1233 0.1893-0.35757 0.28687-0.23426 0.0955-0.61252 0.09283-0.49195-0.0035-0.73891-0.15818-0.13788-0.08779-0.13703-0.20768 6.41e-4 -0.09095 0.06102-0.15254 0.06246-0.06364 0.14928-0.06303 0.05994 4.23e-4 0.12373 0.04221 0.09051 0.06265 0.17098 0.08389 0.12382 0.02981 0.34085 0.03134 0.36999 0.0026 0.53602-0.09131 0.16605-0.09598 0.16728-0.27168 9.19e-4 -0.13022-0.09538-0.25079-0.09422-0.12262-0.25498-0.18991-0.09275-0.03786-0.31382-0.05389-0.10537-0.0069-0.16284-0.06523-0.05539-0.06034-0.05477-0.14715 6.42e-4 -0.09095 0.06309-0.15252 0.06245-0.06157 0.15753-0.0609 0.21084 0.0015 0.22532-4.78e-4 0.08274-0.0077 0.16574-0.05257 0.083-0.04489 0.13316-0.12309 0.05224-0.08025 0.05284-0.165 9.48e-4 -0.13436-0.11825-0.23235-0.11712-0.10005-0.35482-0.10172-0.30592-0.0022-0.4684 0.17447-0.04791 0.05134-0.07695 0.0656-0.04357 0.02243-0.09731 0.02205-0.08681-6.12e-4 -0.14839-0.06306-0.06157-0.06245-0.06093-0.1534 1e-3 -0.14262 0.19212-0.27564 0.27836-0.19441 0.69383-0.19148 0.39273 0.0028 0.62886 0.22768 0.23613 0.22491 0.23391 0.5391-0.0012 0.16329-0.07244 0.30542-0.07127 0.14006-0.21267 0.25896z"/>
<path d="m73.596 35.929 7e-3 0.46504q0.0062 0.41336-0.2279 0.79518-0.23202 0.38179-0.67639 0.38844-0.25629 0.0038-0.4357-0.10511-0.17738-0.11104-0.34105-0.41042-0.16163-0.30147-0.1667-0.64043l-7e-3 -0.46504q-0.0062-0.4113 0.22586-0.79309 0.23199-0.38386 0.67636-0.39051 0.25422-0.0038 0.43157 0.10517 0.17942 0.10895 0.34311 0.41039 0.16573 0.29934 0.17084 0.64037zm-0.42577 0.0064q-0.0052-0.34516-0.20125-0.60063-0.11168-0.141-0.31009-0.13802-0.19222 0.0029-0.31181 0.16178-0.18039 0.24044-0.17513 0.5918l7e-3 0.46504q0.0052 0.34723 0.20332 0.6006 0.10961 0.141 0.31009 0.138 0.19015-0.0028 0.30974-0.16175 0.18039-0.24044 0.17513-0.5918z"/>
</g>
<g fill="#e62e6c" stop-color="#000000" aria-label="Jeu 22 juin">
<path d="m57.946 18.832 0.77908-0.06785 0.11912 1.3677q0.03751 0.43073-0.02013 0.66226-0.05593 0.23138-0.27399 0.40772-0.21635 0.17619-0.57672 0.20758-0.38096 0.03318-0.59929-0.05155-0.21833-0.08473-0.35049-0.27206-0.1306-0.1892-0.1766-0.47914l0.73423-0.16596q0.01621 0.16631 0.05069 0.24457 0.03448 0.07826 0.10403 0.12235 0.04746 0.02872 0.12983 0.02154 0.13042-0.01136 0.18211-0.11269 0.05326-0.1032 0.03323-0.33315z" stop-color="#000000"/>
<path d="m61.549 20.419-1.4043 0.060757q0.02623 0.16783 0.10208 0.24731 0.10667 0.11435 0.27016 0.10728 0.10326-0.0045 0.19395-0.06012 0.05538-0.03515 0.1172-0.12059l0.69285 0.03382q-0.14641 0.2822-0.36492 0.41234-0.21858 0.12842-0.63677 0.14652-0.36312 0.01571-0.57574-0.07681-0.2127-0.09425-0.35998-0.31029-0.14563-0.21784-0.15866-0.519-0.01854-0.42851 0.24362-0.70538 0.26388-0.27694 0.74746-0.29786 0.39237-0.01698 0.62467 0.09194 0.2323 0.10892 0.3608 0.32922 0.1285 0.2203 0.14413 0.5817zm-0.72698-0.30476q-0.02944-0.20218-0.12272-0.28607-0.09157-0.08397-0.23612-0.07772-0.16693 0.0072-0.26101 0.14405-0.0601 0.08536-0.07024 0.24959z" stop-color="#000000"/>
<path d="m63.963 21.114-0.65445 0.01236-0.005592-0.29623q-0.14294 0.18532-0.29132 0.26565-0.14665 0.0803-0.36365 0.08439-0.28934 0.0055-0.45792-0.16364-0.1669-0.17086-0.17369-0.5308l-0.02198-1.1642 0.7044-0.0133 0.01899 1.0058q0.0033 0.17222 0.06834 0.24336 0.06509 0.07113 0.18048 0.06895 0.12572-0.0024 0.20313-0.10032 0.07912-0.09797 0.07441-0.3477l-0.01661-0.88006 0.70095-0.01323z" stop-color="#000000"/>
<path d="m68.082 21.104-2.1049-0.0018q0.03644-0.31175 0.21927-0.58548 0.18455-0.27545 0.68958-0.64881 0.30853-0.22883 0.39476-0.34762 0.08623-0.11878 0.08632-0.22558 9.9e-5 -0.11541-0.08596-0.19644-0.08433-0.08275-0.21352-0.08287-0.13436-1.15e-4 -0.22056 0.08421-0.08448 0.08433-0.11394 0.2979l-0.70275-0.05745q0.0416-0.29624 0.15198-0.46151 0.11039-0.16699 0.31028-0.25467 0.20162-0.0894 0.55646-0.08909 0.37035 3.18e-4 0.57526 0.0849 0.20663 0.08458 0.32362 0.26038 0.11871 0.17408 0.11852 0.39112-1.99e-4 0.23082-0.13646 0.44085-0.13454 0.21004-0.49132 0.46122-0.212 0.14623-0.2844 0.20474-0.07068 0.05851-0.16722 0.15316l1.0955 9.43e-4z" stop-color="#000000"/>
<path d="m70.57 21.117-2.1049-0.01038q0.03771-0.3116 0.22165-0.58458 0.18567-0.2747 0.69221-0.64599 0.30946-0.22757 0.39617-0.346 0.08671-0.11843 0.08724-0.22522 5.69e-4 -0.11541-0.08516-0.19679-0.084-0.0831-0.21318-0.08374-0.13436-6.62e-4 -0.2209 0.08332-0.08482 0.08399-0.11516 0.29744l-0.70251-0.06031q0.0428-0.29607 0.15386-0.46089 0.11107-0.16654 0.31131-0.2534 0.20198-0.08858 0.55682-0.08683 0.37034 0.0018 0.57491 0.08724 0.20629 0.08542 0.32255 0.2617 0.118 0.17456 0.11692 0.3916-0.0011 0.23082-0.13826 0.44029-0.13539 0.20949-0.49319 0.45922-0.21259 0.14537-0.28523 0.20358-0.07091 0.05822-0.16784 0.15248l1.0955 0.0054z" stop-color="#000000"/>
<path d="m72.677 18.601 0.7028 9.9e-4 -6.8e-4 0.48231-0.7028-9.91e-4zm-9.81e-4 0.69591 0.7028 9.91e-4 -0.0025 1.7742q-4.78e-4 0.33934-0.05063 0.48052-0.04843 0.14118-0.18119 0.22884-0.13276 0.08766-0.37908 0.08732-0.20326-2.86e-4 -0.50462-0.061l0.10579-0.50972q0.08438 0.01734 0.124 0.0174 0.08957 1.26e-4 0.13617-0.06182 0.04659-0.06022 0.04685-0.24281z" stop-color="#000000"/>
<path d="m75.885 21.116-0.65455 0.0045-2e-3 -0.29627q-0.14516 0.18359-0.29449 0.26213-0.1476 0.07853-0.36464 0.08001-0.28938 2e-3 -0.45592-0.16913-0.16483-0.17285-0.1673-0.53286l-8e-3 -1.1644 0.7045-0.0048 0.0069 1.0059q0.0012 0.17225 0.06541 0.24416 0.06423 0.07191 0.17964 0.07112 0.12574-8.62e-4 0.20432-0.09786 0.0803-0.09701 0.07859-0.34678l-6e-3 -0.8802 0.70106-0.0048z" stop-color="#000000"/>
<path d="m76.405 18.581 0.70092-0.01495 0.01018 0.47704-0.70092 0.01495zm0.01484 0.69575 0.70092-0.01495 0.03902 1.8289-0.70092 0.01495z" stop-color="#000000"/>
<path d="m77.652 19.256 0.65202-0.03286 0.015 0.29762q0.13704-0.18973 0.28281-0.27468 0.14568-0.08668 0.36073-0.09752 0.29074-0.01465 0.46293 0.15087 0.17382 0.16371 0.19203 0.52499l0.05852 1.1612-0.70363 0.03546-0.05063-1.0047q-0.0087-0.17204-0.07588-0.23936-0.0673-0.06905-0.18256-0.06324-0.12731 0.0064-0.20159 0.10674-0.07428 0.10033-0.06171 0.34978l0.04421 0.87738-0.70019 0.03528z" stop-color="#000000"/>
</g>
</g>
<path d="m27.195 21.701c7.6215-0.18305 23.19-0.47381 25.675 0.96136" fill="none" stop-color="#000000" style="-inkscape-stroke:none;font-variation-settings:normal"/>
<path d="m52.85 17.129-0.0156 27.912c0.26542-0.52572 0.9874-1.2265 1.3238-1.5085l1.0971 0.91387-0.23317-28.225c-0.7327 0.19406-1.4712 0.31532-2.1721 0.90818z" fill="#e62e6c" fill-rule="evenodd" stop-color="#000000" stroke="#8c113a" stroke-linecap="round" stroke-linejoin="round" stroke-width=".3" style="-inkscape-stroke:none;font-variation-settings:normal"/>
<path d="m27.17 33.006c9.1425-0.14416 25.02 0.28494 25.68 0.74096" fill="none" stop-color="#000000" style="-inkscape-stroke:none;font-variation-settings:normal"/>
<g fill="#e62e6c" stop-color="#000000" stroke-width="1px" aria-label="Lun 19 juin">
<path d="m27.322 19.172 0.78011-0.01766 0.04308 1.9029 1.2175-0.02757 0.01407 0.62168-1.9976 0.04523z"/>
<path d="m31.807 21.604-0.65445 0.01224-0.0055-0.29623q-0.14298 0.1853-0.29136 0.2656-0.14666 0.08027-0.36367 0.08433-0.28934 0.0054-0.45789-0.16372-0.16687-0.17089-0.1736-0.53084l-0.02178-1.1642 0.7044-0.01318 0.01881 1.0058q0.0032 0.17222 0.0683 0.24337 0.06508 0.07114 0.18047 0.06898 0.12572-0.0024 0.20314-0.10028 0.07914-0.09796 0.07447-0.34768l-0.01646-0.88007 0.70095-0.01311z"/>
<path d="m32.342 19.766 0.65278-0.0089 4e-3 0.29797q0.14392-0.18456 0.29272-0.2641 0.14877-0.08126 0.36407-0.08419 0.29108-0.0039 0.45707 0.16779 0.16769 0.16999 0.1726 0.5317l0.01578 1.1626-0.70446 0.0096-0.01365-1.0059q-0.0023-0.17224-0.06702-0.24199-0.06471-0.07147-0.18011-0.06991-0.12746 0.0017-0.20538 0.09926-0.07792 0.09753-0.07453 0.34727l0.01192 0.87842-0.70101 0.0095z"/>
<path d="m37.949 18.978 0.0065 2.5683-0.70969 0.0018-0.0043-1.6829q-0.17192 0.13135-0.33364 0.21272-0.15999 0.08136-0.40268 0.15605l-0.0015-0.57533q0.358-0.11632 0.55568-0.27874t0.30905-0.40041z"/>
<path d="m38.888 20.979 0.6982-0.08323q0.02659 0.1466 0.09165 0.20732 0.06506 0.06072 0.15979 0.06135 0.16881 0.0011 0.26467-0.16878 0.06973-0.12529 0.10687-0.53157-0.1266 0.12836-0.25963 0.18776t-0.307 0.05826q-0.33933-0.0022-0.572-0.24495-0.23094-0.24269-0.2285-0.61131 0.0017-0.25149 0.12189-0.4574 0.12022-0.20591 0.32934-0.30961 0.20913-0.10542 0.52435-0.10333 0.37895 0.0025 0.60718 0.13494 0.22824 0.1307 0.36243 0.41582 0.13593 0.2834 0.13285 0.74848-0.0045 0.68384-0.2943 1.0006-0.28976 0.31504-0.79962 0.31166-0.30144-2e-3 -0.47496-0.07205-0.1735-0.07177-0.28802-0.20689-0.11452-0.13512-0.17519-0.33706zm1.2993-1.118q0.0014-0.20498-0.10123-0.32107-0.10258-0.11782-0.25071-0.1188-0.13952-9.24e-4 -0.23323 0.10353-0.09199 0.10447-0.09338 0.31461-0.0014 0.21187 0.09259 0.32446 0.09572 0.1126 0.23869 0.11355 0.14814 9.8e-4 0.24704-0.10689 0.0989-0.10787 0.10024-0.3094z"/>
<path d="m43.07 19.07 0.70259 0.01723-0.01183 0.48217-0.70259-0.01723zm-0.01706 0.6957 0.70259 0.01723-0.0435 1.7737q-0.0083 0.33924-0.06172 0.47922-0.05168 0.14002-0.18643 0.2246-0.13475 0.08457-0.381 0.07853-0.2032-5e-3 -0.50308-0.07264l0.11754-0.50714q0.08396 0.01929 0.12356 0.02026 0.08955 0.0022 0.13756-0.05866 0.04797-0.05913 0.05245-0.24166z"/>
<path d="m46.214 21.7-0.65406-0.02566 0.01162-0.29605q-0.15346 0.17671-0.30625 0.24829-0.15106 0.07165-0.36794 0.06314-0.28917-0.011351-0.44765-0.18996-0.1567-0.18026-0.14258-0.53999l0.04565-1.1635 0.70398 0.02762-0.03944 1.0052q-0.0068 0.17212 0.0541 0.24691 0.06085 0.07479 0.17617 0.07932 0.12565 0.0049 0.20861-0.08835 0.08468-0.09321 0.09447-0.34279l0.03451-0.87954 0.70054 0.02749z"/>
<path d="m46.947 19.213 0.69983 0.04172-0.0284 0.4763-0.69983-0.04172zm-0.04142 0.69467 0.69983 0.04172-0.10887 1.8261-0.69983-0.04172z"/>
<path d="m48.249 19.983 0.64995 0.06141-0.02803 0.29668q0.16294-0.16801 0.31943-0.23108 0.15665-0.06479 0.37101-0.04454 0.28982 0.02738 0.43637 0.21598 0.14843 0.18705 0.1144 0.54718l-0.10937 1.1576-0.7014-0.06627 0.09462-1.0015q0.0162-0.17149-0.04061-0.2478-0.05665-0.07802-0.17154-0.08888-0.1269-0.01199-0.21486 0.07659t-0.11145 0.33724l-0.08263 0.8746-0.69796-0.065935z"/>
</g>
<g fill="#e62e6c" stop-color="#000000" stroke-width="1px" aria-label="Mar 20 juin">
<path d="m27.394 30.473 1.0266-0.0086 0.40898 1.5332 0.38164-1.5397 1.0232-0.0085 0.02105 2.5252-0.63732 0.0053-0.01606-1.9257-0.4783 1.9299-0.57703 0.0048-0.50869-1.9216 0.01605 1.9257-0.63904 0.0053z" stop-color="#000000"/>
<path d="m31.475 31.741-0.66994-0.07183q0.03821-0.17563 0.10901-0.27541 0.07253-0.1015 0.20702-0.17533 0.09656-0.05323 0.26542-0.08221 0.16886-0.02898 0.36523-0.02863 0.31522 5.65e-4 0.50636 0.03708 0.19114 0.03479 0.31841 0.14699 0.08943 0.07768 0.14085 0.22074 0.05142 0.14134 0.05119 0.27053l-0.0014 0.80787q-2.31e-4 0.12919 0.01514 0.20329 0.0171 0.07238 0.07201 0.18616l-0.65801-0.0012q-0.03949-0.0707-0.05148-0.10689-0.01199-0.03792-0.02391-0.11718-0.13804 0.13239-0.27422 0.18899-0.18617 0.07546-0.43249 0.07502-0.32728-5.87e-4 -0.49754-0.15248-0.16858-0.15186-0.16818-0.37406 3.73e-4 -0.20843 0.12292-0.34257 0.12254-0.13414 0.45166-0.19901 0.3946-0.07853 0.51179-0.10933 0.11719-0.03252 0.2482-0.08396 2.32e-4 -0.12919-0.05307-0.18096-0.05331-0.05177-0.18766-0.05201-0.17225-3.09e-4 -0.25848 0.05466-0.06726 0.04294-0.10881 0.16172zm0.6074 0.36971q-0.14479 0.05142-0.30161 0.09075-0.2137 0.05646-0.27064 0.11148-0.05867 0.05674-0.0588 0.12908-1.48e-4 0.08268 0.0566 0.13618 0.05847 0.05178 0.17044 0.05198 0.11713 2.1e-4 0.21714-0.05645 0.10173-0.05666 0.14322-0.13755 0.04321-0.08261 0.04345-0.21352z" stop-color="#000000"/>
<path d="m33.343 31.154 0.65627 0.0048-0.0022 0.29972q0.09615-0.19396 0.19658-0.26558 0.10216-0.07333 0.2503-0.07226 0.15502 0.0011 0.33863 0.09892l-0.22066 0.49795q-0.12364-0.05258-0.19599-0.0531-0.1378-1e-3 -0.21441 0.11214-0.10968 0.1594-0.11287 0.59864l-0.0044 0.61321-0.7045-0.0051z" stop-color="#000000"/>
<path d="m38.587 33.046-2.1047-0.03253q0.04099-0.31118 0.22779-0.58221 0.18855-0.27273 0.69897-0.63868 0.31184-0.22431 0.39979-0.34182 0.08795-0.11751 0.0896-0.2243 0.0018-0.1154-0.08308-0.19768-0.08312-0.08398-0.21229-0.08597-0.13434-0.0021-0.22176 0.08099-0.0857 0.08309-0.11828 0.29621l-0.70184-0.0677q0.04592-0.2956 0.1587-0.45924 0.11281-0.16536 0.31396-0.25011 0.2029-0.08645 0.5577-0.08096 0.3703 0.0057 0.57396 0.09328 0.20538 0.08759 0.31978 0.26508 0.11615 0.17579 0.1128 0.39281-0.0036 0.23079-0.14288 0.43882-0.13759 0.20805-0.498 0.454-0.21411 0.14312-0.28735 0.20057-0.07152 0.05747-0.16944 0.15071l1.0954 0.01693z" stop-color="#000000"/>
<path d="m39.05 31.781q0.01497-0.71987 0.27928-1.0021 0.26603-0.28219 0.79646-0.27116 0.25488 0.0053 0.41716 0.07242 0.16232 0.0654 0.26353 0.16916 0.10125 0.10204 0.15748 0.21519 0.05798 0.11147 0.09107 0.26033 0.06473 0.2839 0.05836 0.59045-0.01429 0.68715-0.25341 1.0009-0.23912 0.31377-0.80744 0.30195-0.3186-0.0066-0.51282-0.11232-0.19421-0.10569-0.31585-0.30463-0.08837-0.14139-0.13502-0.38357-0.04489-0.24386-0.0388-0.53663zm0.69572 0.01619q-0.01003 0.48221 0.07067 0.66135 0.08246 0.17745 0.24434 0.18082 0.10678 0.0022 0.18581-0.07022 0.0808-0.07413 0.12033-0.23526 0.04125-0.1611 0.04838-0.50381 0.01046-0.50287-0.07207-0.67688-0.08077-0.17569-0.25126-0.17924-0.17394-0.0036-0.25513 0.17215-0.08115 0.17405-0.09107 0.65109z" stop-color="#000000"/>
<path d="m43.251 30.627 0.7025 0.02041-0.01401 0.48211-0.7025-0.02041zm-0.02021 0.69561 0.7025 0.02041-0.05153 1.7735q-0.0099 0.3392-0.06389 0.47894-0.05231 0.13979-0.18744 0.22375-0.13513 0.08396-0.38135 0.07681-0.20318-0.0059-0.50274-0.07492l0.11984-0.50661q0.08387 0.01967 0.12347 0.02082 0.08953 0.0026 0.13782-0.05803 0.04824-0.05891 0.05354-0.24142z" stop-color="#000000"/>
<path d="m46.386 33.255-0.65417-0.02274 0.01029-0.2961q-0.15267 0.17739-0.30514 0.24965-0.15074 0.07232-0.36765 0.06478-0.28921-0.01006-0.44849-0.18795-0.1575-0.17956-0.14499-0.53935l0.04046-1.1637 0.7041 0.02448-0.03495 1.0054q-6e-3 0.17215 0.0552 0.24667 0.06118 0.07452 0.17652 0.07853 0.12567 0.0044 0.20821-0.08928 0.08426-0.09359 0.09294-0.34321l0.03059-0.87969 0.70065 0.02436z" stop-color="#000000"/>
<path d="m47.083 30.756 0.70045 0.0295-0.02008 0.47672-0.70046-0.0295zm-0.02929 0.69529 0.70045 0.0295-0.07698 1.8277-0.70045-0.0295z" stop-color="#000000"/>
<path d="m48.364 31.505 0.65188 0.0354-0.01616 0.29756q0.1561-0.17438 0.30995-0.24366 0.15394-0.07099 0.36894-0.05932 0.29068 0.01579 0.44465 0.19838 0.15578 0.18097 0.13616 0.54217l-0.06305 1.161-0.70348-0.0382 0.05455-1.0045q0.0093-0.172-0.05047-0.24598-0.05972-0.0757-0.17496-0.08196-0.12728-0.0069-0.21163 0.08511-0.08435 0.09202-0.0979 0.34142l-0.04764 0.8772-0.70004-0.03802z" stop-color="#000000"/>
</g>
</g>
</svg>
