<svg xmlns="http://www.w3.org/2000/svg" xml:space="preserve" width="152.5mm" height="60mm" viewBox="0 0 152.5 60"><path d="M47.5 22.5H200v60H47.5Z" style="overflow:visible;fill:#dedbe3;stroke-width:.264583px;stop-color:#000" transform="translate(-47.5 -22.5)"/><g aria-label="mg" style="font-size:4.5861px;line-height:1.2;font-family:&quot;Segoe Print QD&quot;;-inkscape-font-specification:&quot;Segoe Print QD&quot;;text-align:center;letter-spacing:.264583px;word-spacing:.529167px;text-anchor:middle;overflow:visible;stroke-width:.264583px;stop-color:#000"><path d="M115.55 7.229q-.208.004-.89 1.234-.232.414-.27.452-.038.036-.14.065-.101.029-.169.029-.15 0-.15-.585 0-.329.141-1.19.059-.35.059-.5 0-.148.132-.148.248 0 .248.358 0 .168-.083.659-.096.56-.098.68.139-.134.407-.589.381-.622.56-.788.182-.168.374-.168.146 0 .23.195.088.195.106.93.004.183.034.273.029.09.042.09.106 0 .457-.717.188-.379.365-.576.18-.197.396-.197.182 0 .265.188.083.186.118.553.034.372.103.681.072.309.26.396.128.06.128.141 0 .079-.108.162-.107.083-.197.083-.179 0-.32-.22-.141-.22-.213-.95-.031-.293-.06-.416-.03-.123-.092-.123-.094 0-.224.18-.128.178-.414.727-.224.428-.34.57-.115.142-.222.142-.097 0-.173-.076-.076-.079-.096-.186-.02-.11-.043-.535-.033-.708-.123-.824zM120.421 8.19q-.027-.02-.15.125-.204.24-.522.425-.315.186-.586.186-.202 0-.316-.125-.114-.128-.114-.352 0-.347.262-.772.262-.428.732-.746.472-.318.826-.318.186 0 .327.107l.058.045q.04.03.077.119.035.087.035.14 0 .035-.024.104-.137.372-.186.616-.05.244-.108.822-.053.52-.116.799-.063.28-.226.542-.164.262-.392.392-.229.132-.47.132-.42 0-.827-.289t-.407-.463q0-.11.083-.11.04 0 .24.132.526.351.946.351.368 0 .558-.391.193-.392.262-1.172.016-.176.038-.3zm-.004-1.23q-.19 0-.477.197-.284.197-.553.578-.269.38-.269.638 0 .087.054.139.056.05.123.05.2 0 .52-.207.322-.206.553-.57.233-.368.233-.576 0-.249-.184-.249z"/></g><g aria-label="cg" style="font-size:4.5861px;line-height:1.2;font-family:&quot;Segoe Print QD&quot;;-inkscape-font-specification:&quot;Segoe Print QD&quot;;text-align:center;letter-spacing:.264583px;word-spacing:.529167px;text-anchor:middle;overflow:visible;stroke-width:.264583px;stop-color:#000"><path d="M105.666 9.128q-.336 0-.518-.193-.179-.193-.179-.54 0-.584.464-1.231.463-.65.862-.65.181 0 .311.197.132.195.132.415 0 .132-.058.228-.056.094-.114.094-.13 0-.184-.262-.06-.282-.174-.282-.233 0-.551.553-.318.553-.318.934 0 .38.432.38.33 0 .775-.308.156-.11.23-.11.076 0 .076.087 0 .17-.4.43-.401.258-.786.258zM109.226 8.19q-.026-.02-.15.125-.203.24-.521.425-.316.186-.587.186-.202 0-.316-.125-.114-.128-.114-.352 0-.347.262-.772.262-.428.732-.746.473-.318.827-.318.185 0 .327.107.033.027.058.045.04.03.076.119.036.087.036.14 0 .035-.025.104-.137.372-.186.616-.05.244-.107.822-.054.52-.117.799-.062.28-.226.542-.163.262-.392.392-.228.132-.47.132-.419 0-.826-.289-.408-.289-.408-.463 0-.11.083-.11.04 0 .24.132.526.351.947.351.367 0 .557-.391.193-.392.262-1.172.016-.176.039-.3zm-.004-1.23q-.19 0-.476.197-.285.197-.554.578-.268.38-.268.638 0 .087.053.139.056.05.124.05.199 0 .52-.207.322-.206.552-.57.233-.368.233-.576 0-.249-.184-.249z"/></g><g aria-label="dg" style="font-size:4.5861px;line-height:1.2;font-family:&quot;Segoe Print QD&quot;;-inkscape-font-specification:&quot;Segoe Print QD&quot;;text-align:center;letter-spacing:.264583px;word-spacing:.529167px;text-anchor:middle;overflow:visible;stroke-width:.264583px;stop-color:#000"><path d="M96.306 8.073q-.3.481-.636.743-.336.26-.618.26-.217 0-.345-.166-.125-.168-.125-.445 0-.567.459-1.162.461-.596.994-.596.233 0 .432.2l.314-1.465q.033-.15.123-.202.092-.051.143-.051.157 0 .157.277 0 .05-.103.368-.163.492-.311 1.211-.146.717-.146 1.151 0 .448.195.448.125 0 .26-.083.056-.04.105-.04.072 0 .072.094 0 .114-.202.264-.2.15-.41.15-.369 0-.369-.712 0-.12.011-.244zm-.293-1.048q-.363 0-.72.493-.355.49-.355.906 0 .28.186.28.174 0 .423-.183.25-.184.515-.585.264-.403.264-.604 0-.099-.092-.202-.09-.105-.221-.105zM99.58 8.19q-.027-.02-.15.125-.204.24-.521.425-.316.186-.587.186-.202 0-.316-.125-.114-.128-.114-.352 0-.347.262-.772.262-.428.732-.746.473-.318.826-.318.186 0 .327.107l.059.045q.04.03.076.119.035.087.035.14 0 .035-.024.104-.137.372-.186.616-.05.244-.107.822-.054.52-.117.799-.063.28-.226.542-.164.262-.392.392-.228.132-.47.132-.419 0-.827-.289-.407-.289-.407-.463 0-.11.083-.11.04 0 .24.132.526.351.947.351.367 0 .557-.391.193-.392.262-1.172.016-.176.038-.3zm-.004-1.23q-.19 0-.477.197-.284.197-.553.578-.268.38-.268.638 0 .087.053.139.056.05.123.05.2 0 .52-.207.322-.206.553-.57.233-.368.233-.576 0-.249-.184-.249z"/></g><path d="M135.432 30.69q-.027-.02-.15.125-.204.24-.522.425-.316.186-.586.186-.202 0-.316-.125-.114-.128-.114-.352 0-.347.262-.772.262-.428.732-.746.472-.318.826-.318.186 0 .327.107l.058.045q.04.03.076.119.036.087.036.14 0 .035-.024.104-.137.372-.186.616-.05.244-.108.822-.054.52-.116.799-.063.28-.226.542-.164.262-.392.392-.229.132-.47.132-.42 0-.827-.289t-.407-.463q0-.11.083-.11.04 0 .24.132.525.351.946.351.368 0 .558-.391.193-.392.262-1.172.016-.176.038-.3zm-.004-1.23q-.19 0-.477.197-.284.197-.553.578-.269.38-.269.638 0 .087.054.139.056.05.123.05.2 0 .52-.207.322-.206.553-.57.233-.368.233-.576 0-.249-.184-.249z" aria-label="g" style="font-size:4.5861px;line-height:1.2;font-family:&quot;Segoe Print QD&quot;;-inkscape-font-specification:&quot;Segoe Print QD&quot;;text-align:center;letter-spacing:.264583px;word-spacing:.529167px;text-anchor:middle;overflow:visible;stroke-width:.264583px;stop-color:#000" transform="translate(-47.5 -22.5)"/><g aria-label="dag" style="font-size:4.5861px;line-height:1.2;font-family:&quot;Segoe Print QD&quot;;-inkscape-font-specification:&quot;Segoe Print QD&quot;;text-align:center;letter-spacing:.264583px;word-spacing:.529167px;text-anchor:middle;overflow:visible;stroke-width:.264583px;stop-color:#000"><path d="M74.828 8.073q-.3.481-.636.743-.336.26-.618.26-.217 0-.345-.166-.125-.168-.125-.445 0-.567.459-1.162.461-.596.994-.596.233 0 .432.2l.314-1.465q.033-.15.123-.202.092-.051.143-.051.157 0 .157.277 0 .05-.103.368-.164.492-.311 1.211-.146.717-.146 1.151 0 .448.195.448.125 0 .26-.083.056-.04.105-.04.072 0 .072.094 0 .114-.202.264-.2.15-.41.15-.37 0-.37-.712 0-.12.012-.244zm-.293-1.048q-.363 0-.72.493-.355.49-.355.906 0 .28.186.28.174 0 .423-.183.25-.184.515-.585.264-.403.264-.604 0-.099-.092-.202-.09-.105-.221-.105zM78.028 8.185q-.313.42-.62.631-.307.21-.562.21-.172 0-.298-.145-.125-.145-.125-.374 0-.589.526-1.267.526-.68 1.046-.68.188 0 .28.214.029.072.091.072.18 0 .18.139 0 .069-.023.19-.12.66-.12.932 0 .541.205.649.099.054.099.132 0 .07-.097.139-.096.072-.185.072-.173 0-.285-.238-.112-.237-.112-.676zm-.136-1.26q-.296 0-.688.555-.392.553-.392.918 0 .257.17.257.247 0 .684-.497.436-.497.436-.914 0-.32-.21-.32zM81.058 8.19q-.026-.02-.15.125-.203.24-.521.425-.316.186-.587.186-.202 0-.316-.125-.114-.128-.114-.352 0-.347.262-.772.262-.428.732-.746.473-.318.827-.318.185 0 .326.107l.059.045q.04.03.076.119.036.087.036.14 0 .035-.025.104-.137.372-.186.616-.05.244-.107.822-.054.52-.117.799-.063.28-.226.542t-.392.392q-.228.132-.47.132-.419 0-.826-.289-.408-.289-.408-.463 0-.11.083-.11.04 0 .24.132.526.351.947.351.367 0 .557-.391.193-.392.262-1.172.016-.176.038-.3zm-.004-1.23q-.19 0-.477.197-.284.197-.553.578-.268.38-.268.638 0 .087.053.139.056.05.123.05.2 0 .52-.207.322-.206.553-.57.233-.368.233-.576 0-.249-.184-.249z"/></g><g aria-label="hg" style="font-size:4.5861px;line-height:1.2;font-family:&quot;Segoe Print QD&quot;;-inkscape-font-specification:&quot;Segoe Print QD&quot;;text-align:center;letter-spacing:.264583px;word-spacing:.529167px;text-anchor:middle;overflow:visible;stroke-width:.264583px;stop-color:#000"><path d="M65.148 8.328q.833-1.538 1.373-1.538.143 0 .233.163.09.164.146.726.056.598.253.864.1.137.1.202 0 .058-.067.107-.067.05-.143.05-.175 0-.31-.195-.134-.197-.172-.69-.038-.466-.08-.61-.043-.142-.141-.142-.235 0-.948 1.229-.212.367-.313.481-.1.112-.184.112-.098 0-.165-.058-.068-.058-.068-.143 0-.063.036-.242.276-1.422.435-2.813.035-.324.114-.432.08-.107.134-.107.097 0 .175.078.078.078.078.217 0 .412-.201 1.131-.099.356-.209.905-.11.548-.11.678 0 .027.025.027zM69.5 8.19q-.027-.02-.15.125-.204.24-.522.425-.316.186-.587.186-.201 0-.316-.125-.114-.128-.114-.352 0-.347.262-.772.262-.428.733-.746.472-.318.826-.318.186 0 .327.107.033.027.058.045.04.03.076.119.036.087.036.14 0 .035-.025.104-.136.372-.186.616-.049.244-.107.822-.054.52-.117.799-.062.28-.226.542-.163.262-.392.392-.228.132-.47.132-.419 0-.826-.289-.408-.289-.408-.463 0-.11.083-.11.04 0 .24.132.526.351.947.351.367 0 .558-.391.192-.392.262-1.172.015-.176.038-.3zm-.004-1.23q-.19 0-.477.197-.285.197-.553.578-.27.38-.27.638 0 .087.055.139.056.05.123.05.2 0 .52-.207.322-.206.552-.57.233-.368.233-.576 0-.249-.183-.249z"/></g><g aria-label="kg" style="font-size:4.5861px;line-height:1.2;font-family:&quot;Segoe Print QD&quot;;-inkscape-font-specification:&quot;Segoe Print QD&quot;;text-align:center;letter-spacing:.264583px;word-spacing:.529167px;text-anchor:middle;overflow:visible;stroke-width:.264583px;stop-color:#000"><path d="M55.295 7.954q.03-.038.4-.36.352-.307.491-.446.518-.517.744-.517.174 0 .174.168 0 .19-.172.28-.224.114-.598.38-.374.265-.374.374 0 .045.264.336.265.29.457.428.193.137.374.137l.074-.003q.078-.004.078.07 0 .098-.123.199-.123.103-.324.103-.13 0-.265-.092-.132-.09-.472-.488-.271-.33-.338-.392-.067-.065-.112-.065-.025 0-.157.117-.132.116-.146.177-.01.06-.01.46v.106q0 .083-.08.148-.078.065-.17.065-.093 0-.147-.056-.054-.054-.054-.112 0-.08.06-.38.086-.433.157-1.158.166-1.714.256-1.937.09-.227.255-.227.058 0 .096.063.04.063.04.161 0 .18-.154.952-.154.775-.224 1.51zM59.42 8.19q-.027-.02-.15.125-.204.24-.522.425-.315.186-.586.186-.202 0-.316-.125-.114-.128-.114-.352 0-.347.262-.772.262-.428.732-.746.473-.318.826-.318.186 0 .327.107l.058.045q.04.03.077.119.035.087.035.14 0 .035-.024.104-.137.372-.186.616-.05.244-.108.822-.053.52-.116.799-.063.28-.226.542-.164.262-.392.392-.229.132-.47.132-.42 0-.827-.289t-.407-.463q0-.11.083-.11.04 0 .24.132.526.351.947.351.367 0 .557-.391.193-.392.262-1.172.016-.176.038-.3zm-.004-1.23q-.19 0-.477.197-.284.197-.553.578-.269.38-.269.638 0 .087.054.139.056.05.123.05.2 0 .52-.207.322-.206.553-.57.233-.368.233-.576 0-.249-.184-.249z"/></g><path d="M85.392 30.77q-.011-.005-.059.05-.313.346-.597.523-.285.175-.542.175-.206 0-.33-.173-.123-.174-.123-.443 0-.609.56-1.274.56-.667 1.131-.667.21 0 .269.241.02.072.087.083.208.05.208.229 0 .127-.105.548-.074.294-.226 1.102-.152.809-.164 1.2-.009.26-.015.352-.007.092-.079.146-.07.053-.168.053-.094 0-.147-.074-.054-.071-.054-.181 0-.07.072-.477.071-.405.154-.77.096-.441.128-.643zm.172-1.073q0-.349-.266-.349-.327 0-.757.537-.43.536-.43.984 0 .275.181.275.338 0 .804-.502.468-.503.468-.945z" aria-label="q" style="font-size:4.5861px;line-height:1.2;font-family:&quot;Segoe Print QD&quot;;-inkscape-font-specification:&quot;Segoe Print QD&quot;;text-align:center;letter-spacing:.264583px;word-spacing:.529167px;text-anchor:middle;overflow:visible;stroke-width:.264583px;stop-color:#000" transform="translate(-47.5 -22.5)"/><path d="M75.002 29.24q.23-.017.434-.042.202-.022.336-.022.17 0 .215.031.045.031.045.11 0 .181-.253.197-.325.02-.598.056-.273.036-.295.06-.02.023-.135.533-.114.508-.114.66 0 .247.065.33.065.08.195.08.192 0 .535-.288.132-.119.204-.119.096 0 .096.103 0 .161-.311.419-.31.255-.634.255-.542 0-.542-.638 0-.23.112-.715.11-.481.11-.577 0-.034-.054-.034l-.233.02q-.286 0-.286-.228 0-.13.132-.13h.461q.047 0 .083-.043.036-.042.105-.284.07-.244.123-.481.054-.236.21-.236.097 0 .15.068.055.067.055.125 0 .031-.081.32z" aria-label="t" style="font-size:4.5861px;line-height:1.2;font-family:&quot;Segoe Print QD&quot;;-inkscape-font-specification:&quot;Segoe Print QD&quot;;text-align:center;letter-spacing:.264583px;word-spacing:.529167px;text-anchor:middle;overflow:visible;stroke-width:.264583px;stop-color:#000" transform="translate(-47.5 -22.5)"/><path d="M170 25v25M160 25v25M150 25v25M140 25v25M130 25v25M120 25v25M110 25v25M100 25v25M90 25v25M80 25v25M70 25v25M70 25h100M70 35h100" style="font-variation-settings:normal;opacity:1;vector-effect:none;fill:none;fill-opacity:1;fill-rule:evenodd;stroke:#000;stroke-width:.3;stroke-linecap:butt;stroke-linejoin:miter;stroke-miterlimit:4;stroke-dasharray:none;stroke-dashoffset:0;stroke-opacity:1;-inkscape-stroke:none;stop-color:#000;stop-opacity:1" transform="translate(-47.5 -22.5)"/><g aria-label="3 kg" style="font-size:4.5861px;line-height:1.2;font-family:&quot;Segoe Print QD&quot;;-inkscape-font-specification:&quot;Segoe Print QD&quot;;text-align:end;letter-spacing:.264583px;word-spacing:.529167px;text-anchor:end;overflow:visible;stroke-width:.264583px;stop-color:#000"><path d="M11.445 36.13q-.164 0-.164-.097 0-.053.032-.118.03-.068.181-.197l.399-.34q.246-.211.54-.42-.124-.02-.66.045-.413.052-.58.052-.384 0-.384-.352 0-.07.045-.12.047-.055.114-.055.049 0 .12.052.09.063.14.08.051.018.15.018.159 0 .582-.04.557-.065.889-.065.275 0 .275.18 0 .127-.114.217-.112.09-.327.217-.284.17-.399.255-.112.083-.223.22.246-.018.371-.018.271 0 .466.069.195.067.291.177.099.11.15.177.052.067.052.242 0 .15-.22.486-.22.333-.725.53-.506.197-.988.197-.139 0-.4-.033-.26-.036-.32-.128t-.06-.186q0-.235.223-.235.009 0 .033.011l.155.065q.255.117.465.117.184 0 .56-.072.376-.074.632-.311.255-.24.255-.383 0-.244-.257-.323-.256-.08-.57-.08-.436 0-.73.166zM17.358 36.454q.029-.038.4-.36.352-.307.491-.446.517-.517.744-.517.174 0 .174.168 0 .19-.172.28-.224.114-.598.38-.374.265-.374.374 0 .045.264.336.264.29.457.428.193.137.374.137l.074-.003q.078-.004.078.07 0 .098-.123.199-.123.103-.325.103-.13 0-.264-.092-.132-.09-.472-.488-.271-.33-.338-.392-.068-.065-.112-.065-.025 0-.157.117-.132.116-.146.177-.011.06-.011.46v.106q0 .083-.078.148-.079.065-.17.065-.095 0-.148-.056-.054-.054-.054-.112 0-.08.06-.38.085-.433.157-1.159.166-1.713.255-1.937.09-.226.256-.226.058 0 .096.063.04.063.04.161 0 .18-.154.952-.155.775-.224 1.51zM21.483 36.69q-.027-.02-.15.125-.204.24-.522.425-.316.186-.586.186-.202 0-.316-.125-.114-.128-.114-.352 0-.347.262-.772.262-.428.732-.746.472-.318.826-.318.186 0 .327.107l.058.045q.04.03.076.119.036.087.036.14 0 .035-.024.104-.137.372-.186.616-.05.244-.108.822-.053.52-.116.799-.063.28-.226.542-.164.262-.392.392-.229.132-.47.132-.42 0-.827-.289t-.407-.463q0-.11.083-.11.04 0 .24.132.525.351.946.351.368 0 .558-.391.193-.392.262-1.172.016-.176.038-.3zm-.004-1.23q-.19 0-.477.197-.285.197-.554.578-.268.38-.268.638 0 .087.053.139.056.05.124.05.199 0 .52-.207.322-.206.552-.57.233-.368.233-.576 0-.249-.183-.249z"/></g><g aria-label="14,7 kg" style="font-size:4.5861px;line-height:1.2;font-family:&quot;Segoe Print QD&quot;;-inkscape-font-specification:&quot;Segoe Print QD&quot;;text-align:end;letter-spacing:.264583px;word-spacing:.529167px;text-anchor:end;overflow:visible;stroke-width:.264583px;stop-color:#000"><path d="m3.463 45.964.127-.945q-.13 0-.36.157-.41.268-.721.268-.1 0-.1-.14 0-.09.033-.12.035-.029.313-.147.278-.121.699-.372.42-.25.459-.25.072 0 .123.098.052.098.052.172 0 .063-.065.128-.22.958-.256 1.469-.035.508-.01.593l.055.34.01.133q0 .152-.256.152-.253 0-.206-.48l.103-1.056zM8.48 46.427q-.31-.112-.744-.087-.074.255-.074.477l.002.1v.093l.002.1q.002.088 0 .119-.002.03.058.103.059.072.059.099 0 .067-.074.147-.072.083-.14.083-.176 0-.234-.083-.058-.08-.058-.244 0-.087.017-.275.016-.182.02-.273.01-.218.054-.42-.053-.008-.159-.008-.477 0-.772.078-.323.088-.582.088-.108 0-.242-.153.1-.277 1.095-1.063.318-.249.515-.428.206-.19.459-.378.253-.189.298-.189.181 0 .181.092-.016.065-.128.466-.194.764-.246 1.115.146.056.529.056h.154q.128 0 .186.054.06.051.06.222 0 .051-.04.091t-.092.04q-.062 0-.105-.022zm-.814-1.5q-.083.083-.38.318-.249.197-.352.307-.24.253-.656.553 0 .034.04.034.088-.036.656-.074.32-.023.468-.065.018-.144.065-.323.16-.604.16-.75zM9.227 47.925q.417-.103.536-.293.118-.188.118-.269 0-.228-.062-.322-.03-.043-.03-.083 0-.033.03-.096.031-.063.062-.063.047 0 .148.036.1.034.119.06.018.025.058.166.043.141.043.242 0 .038-.086.235-.082.2-.228.31-.145.111-.273.136-.052.009-.096.024-.177.079-.29.079-.064 0-.064-.106 0-.04.015-.056zM13.467 44.549q.136 0 .136.134 0 .065-.018.092-.017.024-.123.152-.103.125-.181.215-.083.094-.26.363l-.183.273q.416-.005.698-.031.067.02.083.112.018.091-.022.165-.038.074-.106.054-.385-.02-.81-.004l-.085.138q-.056.09-.101.166-.043.074-.08.155-.2.414-.243.537-.04.12-.04.26 0 .103-.058.17-.058.065-.148.065-.096 0-.157-.096-.06-.099-.06-.202 0-.107.264-.64.047-.092.099-.182.051-.09.118-.197.068-.11.101-.168-.345.01-.703.045-.08-.027-.1-.132-.019-.108.028-.19.047-.086.13-.059.11.016.242.023.134.004.307.006l.257.005.074-.114q.287-.43.374-.522.099-.105.177-.208l-.042-.032q-1.028.06-1.933.06-.051 0-.092-.05-.038-.054-.038-.122 0-.069.058-.136.059-.067.124-.067.08 0 .378.018.296.02.573.02.509 0 .936-.047.28-.03.426-.03zM17.358 46.454q.029-.038.4-.36.352-.307.491-.446.517-.517.744-.517.174 0 .174.168 0 .19-.172.28-.224.114-.598.38-.374.265-.374.374 0 .045.264.336.264.29.457.428.193.137.374.137l.074-.003q.078-.004.078.07 0 .098-.123.199-.123.103-.325.103-.13 0-.264-.092-.132-.09-.472-.488-.271-.33-.338-.392-.068-.065-.112-.065-.025 0-.157.117-.132.116-.146.177-.011.06-.011.46v.106q0 .083-.078.148-.079.065-.17.065-.095 0-.148-.056-.054-.054-.054-.112 0-.08.06-.38.085-.433.157-1.159.166-1.713.255-1.937.09-.226.256-.226.058 0 .096.063.04.063.04.161 0 .18-.154.952-.155.775-.224 1.51zM21.483 46.69q-.027-.02-.15.125-.204.24-.522.425-.316.186-.586.186-.202 0-.316-.125-.114-.128-.114-.352 0-.347.262-.772.262-.428.732-.746.472-.318.826-.318.186 0 .327.107l.058.045q.04.03.076.119.036.087.036.14 0 .035-.024.104-.137.372-.186.616-.05.244-.108.822-.053.52-.116.799-.063.28-.226.542-.164.262-.392.392-.229.132-.47.132-.42 0-.827-.289t-.407-.463q0-.11.083-.11.04 0 .24.132.525.351.946.351.368 0 .558-.391.193-.392.262-1.172.016-.176.038-.3zm-.004-1.23q-.19 0-.477.197-.285.197-.554.578-.268.38-.268.638 0 .087.053.139.056.05.124.05.199 0 .52-.207.322-.206.552-.57.233-.368.233-.576 0-.249-.183-.249z"/></g><g aria-label="4,54 cg" style="font-size:4.5861px;line-height:1.2;font-family:&quot;Segoe Print QD&quot;;-inkscape-font-specification:&quot;Segoe Print QD&quot;;text-align:end;letter-spacing:.264583px;word-spacing:.529167px;text-anchor:end;overflow:visible;stroke-width:.264583px;stop-color:#000"><path d="M4.916 56.427q-.309-.112-.743-.087-.074.255-.074.477l.002.1v.093l.002.1q.002.088 0 .119-.002.03.058.103.059.072.059.099 0 .067-.074.147-.072.083-.14.083-.176 0-.234-.083-.058-.08-.058-.244 0-.087.017-.275.016-.182.02-.273.01-.218.054-.42-.053-.008-.159-.008-.477 0-.772.078-.323.088-.582.088-.108 0-.242-.153.1-.277 1.095-1.063.318-.249.515-.428.206-.19.459-.378.253-.189.298-.189.181 0 .181.092-.016.065-.128.466-.194.764-.246 1.115.146.056.529.056h.154q.128 0 .186.054.06.051.06.222 0 .051-.04.091t-.092.04q-.062 0-.105-.022zm-.813-1.5q-.083.083-.38.318-.249.197-.352.307-.24.253-.656.553 0 .034.04.034.088-.036.656-.074.32-.023.468-.065.018-.144.065-.323.16-.604.16-.75zM5.664 57.925q.417-.103.536-.293.118-.188.118-.269 0-.228-.062-.322-.03-.043-.03-.083 0-.033.03-.096t.062-.063q.047 0 .148.036.1.034.119.06.018.025.058.166.043.141.043.242 0 .038-.086.235-.082.2-.228.31-.146.111-.273.136-.052.009-.096.024-.177.079-.29.079-.064 0-.064-.106 0-.04.015-.056zM8.728 55.032q-.128.121-.302.381-.047.07-.076.11-.032.042-.043.06.125.076.486.128.461.067.685.152.226.085.325.249.1.16.1.44 0 .175-.16.393-.162.217-.538.412-.376.195-.833.195-.374 0-.643-.148-.266-.148-.266-.249 0-.215.27-.215.061 0 .13.056.25.175.572.175.342 0 .703-.204.363-.204.363-.39 0-.237-.177-.362-.175-.128-.547-.168l-.506-.056q-.212-.027-.329-.11-.116-.085-.116-.157 0-.076.083-.172l.194-.282q.365-.544.46-.574.096-.031 1.209-.067.197-.004.407-.065.166-.045.206-.045.139 0 .242.083.074.038.074.083 0 .065-.083.164-.083.098-.24.12-.154.023-.387.023l-.748-.022q-.329 0-.515.062zM13.709 56.427q-.31-.112-.744-.087-.074.255-.074.477l.003.1v.093l.002.1q.002.088 0 .119-.002.03.058.103.058.072.058.099 0 .067-.074.147-.071.083-.139.083-.176 0-.235-.083-.058-.08-.058-.244 0-.087.018-.275.016-.182.02-.273.01-.218.054-.42-.054-.008-.16-.008-.476 0-.772.078-.322.088-.582.088-.107 0-.242-.153.101-.277 1.095-1.063.318-.249.515-.428.206-.19.46-.378.252-.189.297-.189.182 0 .182.092-.016.065-.128.466-.195.764-.246 1.115.145.056.528.056h.155q.127 0 .185.054.06.051.06.222 0 .051-.04.091t-.091.04q-.063 0-.105-.022zm-.813-1.5q-.083.083-.38.318-.25.197-.352.307-.24.253-.657.553 0 .034.04.034.088-.036.657-.074.32-.023.468-.065.018-.144.065-.323.159-.604.159-.75zM17.922 57.628q-.336 0-.517-.193-.18-.193-.18-.54 0-.584.464-1.231.464-.65.862-.65.182 0 .312.197.132.195.132.415 0 .132-.058.228-.056.094-.115.094-.13 0-.183-.262-.06-.282-.175-.282-.233 0-.55.553-.319.553-.319.934 0 .38.432.38.33 0 .775-.308.157-.11.23-.11.077 0 .077.087 0 .17-.4.43-.402.258-.787.258zM21.483 56.69q-.027-.02-.15.125-.204.24-.522.425-.316.186-.586.186-.202 0-.316-.125-.114-.128-.114-.352 0-.347.262-.772.262-.428.732-.746.472-.318.826-.318.186 0 .327.107l.058.045q.04.03.076.119.036.087.036.14 0 .035-.024.104-.137.372-.186.616-.05.244-.108.822-.053.52-.116.799-.063.28-.226.542-.164.262-.392.392-.229.132-.47.132-.42 0-.827-.289t-.407-.463q0-.11.083-.11.04 0 .24.132.525.351.946.351.368 0 .558-.391.193-.392.262-1.172.016-.176.038-.3zm-.004-1.23q-.19 0-.477.197-.285.197-.554.578-.268.38-.268.638 0 .087.053.139.056.05.124.05.199 0 .52-.207.322-.206.552-.57.233-.368.233-.576 0-.249-.183-.249z"/></g><g aria-label="1 t" style="font-size:4.5861px;line-height:1.2;font-family:&quot;Segoe Print QD&quot;;-inkscape-font-specification:&quot;Segoe Print QD&quot;;text-align:end;letter-spacing:.264583px;word-spacing:.529167px;text-anchor:end;overflow:visible;stroke-width:.264583px;stop-color:#000"><path d="m65.38 35.964.127-.945q-.13 0-.36.157-.41.268-.721.268-.101 0-.101-.14 0-.09.033-.12.036-.029.314-.147.278-.121.699-.372.42-.25.459-.25.071 0 .123.098.051.098.051.172 0 .063-.065.128-.22.958-.255 1.469-.036.508-.011.593l.056.34.009.133q0 .152-.255.152-.254 0-.206-.48l.103-1.056zM71.295 35.24q.23-.017.434-.042.202-.022.336-.022.17 0 .215.031.045.031.045.11 0 .181-.253.197-.325.02-.598.056-.273.036-.296.06-.02.023-.134.533-.114.508-.114.66 0 .247.065.33.065.08.195.08.192 0 .535-.288.132-.119.204-.119.096 0 .096.103 0 .161-.311.419-.31.255-.634.255-.542 0-.542-.638 0-.23.112-.715.11-.481.11-.577 0-.034-.054-.034l-.233.02q-.287 0-.287-.228 0-.13.133-.13h.46q.048 0 .084-.043.035-.042.105-.284.07-.244.123-.481.054-.236.21-.236.097 0 .15.068.054.067.054.125 0 .031-.08.32z"/></g><g aria-label="32 q" style="font-size:4.5861px;line-height:1.2;font-family:&quot;Segoe Print QD&quot;;-inkscape-font-specification:&quot;Segoe Print QD&quot;;text-align:end;letter-spacing:.264583px;word-spacing:.529167px;text-anchor:end;overflow:visible;stroke-width:.264583px;stop-color:#000"><path d="M60.811 46.13q-.163 0-.163-.097 0-.053.03-.118.032-.068.182-.197l.399-.34q.246-.211.54-.42-.124-.02-.659.045-.414.052-.58.052-.385 0-.385-.352 0-.07.045-.12.047-.055.114-.055.05 0 .121.052.09.063.139.08.051.018.15.018.159 0 .582-.04.558-.065.89-.065.275 0 .275.18 0 .127-.115.217-.112.09-.327.217-.284.17-.398.255-.112.083-.224.22.246-.018.372-.018.27 0 .465.069.195.067.291.177.099.11.15.177.052.067.052.242 0 .15-.22.486-.219.333-.725.53t-.988.197q-.138 0-.4-.033-.26-.036-.32-.128-.059-.092-.059-.186 0-.235.222-.235.009 0 .034.011l.154.065q.255.117.466.117.183 0 .56-.072.376-.074.631-.311.255-.24.255-.383 0-.244-.257-.323-.255-.08-.569-.08-.437 0-.73.166zM64.58 46.931q.117-.009.354-.009.293 0 .974.043.186.009.237.006.054-.002.14-.035.091-.036.138-.036.038 0 .087.058.052.056.052.096 0 .146-.152.229-.153.08-.271.08h-.083q-.215 0-.316-.029-.311-.083-.775-.083-.396 0-.696.097-.3.096-.39.203-.1.121-.152.15-.05.032-.137.032-.174 0-.174-.155 0-.235.192-.414.193-.181.647-.412.267-.132.325-.181.058-.05.32-.29.264-.239.401-.411.137-.173.195-.307.06-.137.06-.25 0-.158-.185-.319-.186-.163-.345-.163-.137 0-.412.172-.276.17-.41.33-.087.102-.267.102-.042 0-.091-.096-.05-.096-.05-.155 0-.042.011-.058.012-.015.224-.168.215-.152.386-.262.172-.112.344-.17.173-.058.444-.058.23 0 .432.193.204.19.302.376.099.183.099.21 0 .307-.46.849-.456.542-.998.835zM71.445 46.77q-.011-.005-.058.05-.314.346-.598.523-.285.175-.542.175-.206 0-.33-.173-.122-.174-.122-.443 0-.609.56-1.274.56-.667 1.13-.667.21 0 .269.241.02.072.087.083.209.05.209.229 0 .127-.106.548-.074.294-.226 1.102-.152.808-.163 1.2-.01.26-.016.352-.007.092-.078.145-.07.054-.168.054-.094 0-.148-.074-.054-.071-.054-.181 0-.07.072-.477.072-.405.154-.77.097-.441.128-.643zm.172-1.073q0-.349-.266-.349-.327 0-.757.537-.43.536-.43.984 0 .275.181.275.339 0 .804-.502.468-.503.468-.945z"/></g><g aria-label="4,08 hg" style="font-size:4.5861px;line-height:1.2;font-family:&quot;Segoe Print QD&quot;;-inkscape-font-specification:&quot;Segoe Print QD&quot;;text-align:end;letter-spacing:.264583px;word-spacing:.529167px;text-anchor:end;overflow:visible;stroke-width:.264583px;stop-color:#000"><path d="M54.755 56.427q-.31-.112-.744-.087-.073.255-.073.477l.002.1v.093l.002.1q.002.088 0 .119-.002.03.058.103.058.072.058.099 0 .067-.074.147-.072.083-.139.083-.177 0-.235-.083-.058-.08-.058-.244 0-.087.018-.275.015-.182.02-.273.009-.218.054-.42-.054-.008-.16-.008-.476 0-.772.078-.322.088-.582.088-.108 0-.242-.153.1-.277 1.095-1.063.318-.249.515-.428.206-.19.46-.378.252-.189.297-.189.181 0 .181.092-.015.065-.127.466-.195.764-.246 1.115.145.056.528.056h.154q.128 0 .186.054.06.051.06.222 0 .051-.04.091t-.091.04q-.063 0-.105-.022zm-.813-1.5q-.083.083-.38.318-.25.197-.352.307-.24.253-.656.553 0 .034.04.034.087-.036.656-.074.32-.023.468-.065.018-.144.065-.323.159-.604.159-.75zM55.503 57.925q.417-.103.535-.293.119-.188.119-.269 0-.228-.063-.322-.029-.043-.029-.083 0-.033.03-.096t.062-.063q.047 0 .148.036.1.034.118.06.018.025.059.166.042.141.042.242 0 .038-.085.235-.083.2-.228.31-.146.111-.273.136-.052.009-.097.024-.177.079-.289.079-.064 0-.064-.106 0-.04.015-.056zM58.103 57.556q-.262 0-.434-.244-.17-.244-.213-.61-.054-.445.079-.982.134-.538.472-.883.34-.344.63-.344.212 0 .479.192.268.193.394.432.127.24.177.636.071.594-.42 1.198-.49.605-1.164.605zm.829-2.629q-.03.065-.11.065-.011 0-.067-.05-.058-.05-.1-.05-.2 0-.308.087-.107.085-.28.356-.17.27-.26.595-.089.323-.049.656.047.397.195.497.148.101.307.101.202 0 .477-.221.278-.222.493-.57.215-.349.188-.568-.014-.125-.063-.291-.05-.168-.094-.23-.042-.063-.154-.202-.112-.14-.175-.175zM62.175 56.078q.237.096.463.33.229.23.229.422 0 .202-.072.359-.07.154-.461.26-.392.103-.623.103-.175 0-.432-.061-.258-.063-.345-.17-.085-.11-.085-.298 0-.157.139-.34.139-.186.34-.318.251-.173.314-.222l-.119-.067q-.338-.18-.48-.35-.138-.172-.138-.32 0-.159.112-.295.114-.14.472-.334.09-.047.175-.099.197-.123.488-.123.094 0 .278.079.184.076.24.139.058.06.085.241.024.177.029.18.027-.034.058-.083.038-.063.051-.079.047.011.094.07.05.058.05.11 0 .055-.137.246-.136.19-.356.342-.304.215-.37.278zm-.23-.141q.537-.434.537-.643 0-.179-.112-.29-.112-.113-.292-.113-.201 0-.492.186t-.291.3q0 .197.486.466.105.058.163.094zm.568.911q0-.134-.188-.31-.188-.18-.403-.267-.683.479-.683.757 0 .094.125.147.128.054.233.054.502 0 .708-.103.208-.103.208-.23zM67.132 56.828q.833-1.538 1.372-1.538.144 0 .233.163.09.164.146.726.056.598.253.864.1.137.1.202 0 .058-.067.107-.067.05-.143.05-.175 0-.309-.195-.134-.197-.172-.69-.038-.466-.08-.61-.043-.142-.142-.142-.235 0-.947 1.229-.213.367-.314.481-.1.112-.183.112-.099 0-.166-.058t-.067-.143q0-.063.036-.242.275-1.422.434-2.813.036-.324.114-.432.08-.107.135-.107.096 0 .174.078.079.078.079.217 0 .412-.202 1.131-.098.356-.208.905-.11.548-.11.678 0 .027.025.027zM71.483 56.69q-.027-.02-.15.125-.204.24-.522.425-.316.186-.586.186-.202 0-.316-.125-.114-.128-.114-.352 0-.347.262-.772.262-.428.732-.746.472-.318.826-.318.186 0 .327.107l.058.045q.04.03.076.119.036.087.036.14 0 .035-.024.104-.137.372-.186.616-.05.244-.108.822-.053.52-.116.799-.063.28-.226.542-.164.262-.392.392-.229.132-.47.132-.42 0-.827-.289t-.407-.463q0-.11.083-.11.04 0 .24.132.525.351.946.351.368 0 .558-.391.193-.392.262-1.172.016-.176.038-.3zm-.004-1.23q-.19 0-.477.197-.284.197-.553.578-.269.38-.269.638 0 .087.054.139.056.05.123.05.2 0 .52-.207.322-.206.553-.57.233-.368.233-.576 0-.249-.184-.249z"/></g><g aria-label="1 mg" style="font-size:4.5861px;line-height:1.2;font-family:&quot;Segoe Print QD&quot;;-inkscape-font-specification:&quot;Segoe Print QD&quot;;text-align:end;letter-spacing:.264583px;word-spacing:.529167px;text-anchor:end;overflow:visible;stroke-width:.264583px;stop-color:#000"><path d="m114.917 35.964.128-.945q-.13 0-.36.157-.41.268-.721.268-.101 0-.101-.14 0-.09.033-.12.036-.029.314-.147.278-.121.699-.372.42-.25.459-.25.071 0 .123.098.051.098.051.172 0 .063-.065.128-.22.958-.255 1.469-.036.508-.011.593l.056.34.009.133q0 .152-.255.152-.254 0-.207-.48l.104-1.056zM121.612 35.729q-.208.004-.891 1.234-.23.414-.269.452-.038.036-.14.065-.102.029-.169.029-.15 0-.15-.585 0-.329.141-1.19.058-.35.058-.5 0-.148.133-.148.248 0 .248.358 0 .168-.083.659-.096.56-.098.68.139-.134.407-.589.381-.622.56-.788.182-.168.374-.168.146 0 .23.195.088.195.106.93.004.183.034.273.029.09.042.09.105 0 .457-.717.188-.379.365-.576.18-.197.396-.197.182 0 .265.188.082.186.118.553.034.372.103.681.072.309.26.396.128.06.128.141 0 .079-.108.162-.107.083-.197.083-.179 0-.32-.22-.141-.22-.213-.95-.031-.293-.06-.416-.03-.123-.092-.123-.094 0-.224.18-.128.178-.414.727-.224.428-.34.57-.115.142-.222.142-.097 0-.173-.076-.076-.079-.096-.186-.02-.11-.043-.535-.033-.708-.123-.824zM126.483 36.69q-.027-.02-.15.125-.204.24-.522.425-.316.186-.586.186-.202 0-.316-.125-.114-.128-.114-.352 0-.347.262-.772.262-.428.732-.746.472-.318.826-.318.186 0 .327.107l.058.045q.04.03.076.119.036.087.036.14 0 .035-.024.104-.137.372-.186.616-.05.244-.108.822-.053.52-.116.799-.063.28-.226.542-.164.262-.392.392-.229.132-.47.132-.42 0-.827-.289t-.407-.463q0-.11.082-.11.04 0 .24.132.526.351.947.351.368 0 .558-.391.192-.392.262-1.172.016-.176.038-.3zm-.004-1.23q-.19 0-.477.197-.284.197-.553.578-.269.38-.269.638 0 .087.054.139.056.05.123.05.2 0 .52-.207.322-.206.553-.57.233-.368.233-.576 0-.249-.184-.249z"/></g><g aria-label="1,03 t" style="font-size:4.5861px;line-height:1.2;font-family:&quot;Segoe Print QD&quot;;-inkscape-font-specification:&quot;Segoe Print QD&quot;;text-align:end;letter-spacing:.264583px;word-spacing:.529167px;text-anchor:end;overflow:visible;stroke-width:.264583px;stop-color:#000"><path d="m111.927 45.964.128-.945q-.13 0-.36.157-.41.268-.722.268-.1 0-.1-.14 0-.09.033-.12.036-.029.314-.147.277-.121.698-.372.421-.25.46-.25.071 0 .123.098.051.098.051.172 0 .063-.065.128-.22.958-.255 1.469-.036.508-.011.593l.056.34.009.133q0 .152-.256.152-.253 0-.206-.48.097-.978.103-1.056zM114.122 47.925q.417-.103.535-.293.12-.188.12-.269 0-.228-.064-.322-.029-.043-.029-.083 0-.033.03-.096t.062-.063q.047 0 .148.036.1.034.119.06.017.025.058.166.042.141.042.242 0 .038-.085.235-.083.2-.228.31-.146.111-.273.136-.052.009-.097.024-.177.079-.289.079-.064 0-.064-.106 0-.04.015-.056zM116.722 47.556q-.262 0-.434-.244-.17-.244-.213-.61-.053-.445.079-.982.134-.538.472-.883.34-.344.63-.344.212 0 .479.192.268.193.394.432.127.24.177.636.071.594-.42 1.198-.49.605-1.164.605zm.829-2.629q-.03.065-.11.065-.011 0-.067-.05-.058-.05-.1-.05-.2 0-.308.087-.107.085-.28.356-.17.27-.26.595-.089.323-.049.656.047.397.195.497.148.101.307.101.202 0 .477-.221.278-.222.493-.57.215-.349.188-.568-.014-.125-.063-.291-.05-.168-.094-.23-.043-.063-.155-.202-.111-.14-.174-.175zM119.905 46.13q-.164 0-.164-.097 0-.053.032-.118.031-.068.181-.197l.399-.34q.246-.211.54-.42-.124-.02-.659.045-.414.052-.58.052-.385 0-.385-.352 0-.07.045-.12.047-.055.114-.055.05 0 .12.052.09.063.14.08.051.018.15.018.159 0 .582-.04.557-.065.889-.065.275 0 .275.18 0 .127-.114.217-.112.09-.327.217-.284.17-.398.255-.112.083-.224.22.246-.018.371-.018.271 0 .466.069.195.067.291.177.099.11.15.177.052.067.052.242 0 .15-.22.486-.22.333-.725.53-.506.197-.988.197-.139 0-.4-.033-.26-.036-.32-.128-.059-.092-.059-.186 0-.235.222-.235.009 0 .033.011l.155.065q.255.117.466.117.183 0 .56-.072.376-.074.63-.311.256-.24.256-.383 0-.244-.257-.323-.256-.08-.57-.08-.436 0-.73.166zM126.295 45.24q.23-.017.434-.042.202-.022.336-.022.17 0 .215.03.045.032.045.11 0 .182-.253.198-.325.02-.598.056-.273.036-.296.06-.02.023-.134.533-.114.508-.114.66 0 .247.065.33.065.08.195.08.192 0 .535-.288.132-.119.204-.119.096 0 .096.103 0 .161-.311.419-.31.255-.634.255-.542 0-.542-.638 0-.23.112-.715.11-.481.11-.577 0-.034-.054-.034l-.233.02q-.287 0-.287-.228 0-.13.133-.13h.46q.048 0 .084-.043.036-.042.105-.284.07-.244.123-.481.054-.236.21-.236.097 0 .15.068.054.067.054.125 0 .031-.08.32z"/></g><g aria-label="93,7 dag" style="font-size:4.5861px;line-height:1.2;font-family:&quot;Segoe Print QD&quot;;-inkscape-font-specification:&quot;Segoe Print QD&quot;;text-align:end;letter-spacing:.264583px;word-spacing:.529167px;text-anchor:end;overflow:visible;stroke-width:.264583px;stop-color:#000"><path d="M106.53 55.032q0 .067-.054.193-.204.497-.372 1.11-.165.612-.165.816 0 .336-.153.336-.136 0-.188-.126-.049-.127-.049-.224 0-.125.24-.936l.044-.154-.04-.03q-.383.227-.58.292-.195.062-.49.062-.137 0-.32-.203-.184-.206-.184-.343 0-.141.042-.266.043-.126.146-.265.103-.14.343-.336.24-.194.358-.253.12-.058.358-.118.238-.063.367-.063.121 0 .218.043.098.04.24.172.14.13.172.143.033.014.067.15zm-.39.047q-.065-.192-.385-.192-.463 0-.813.331-.347.332-.347.535 0 .148.094.229.097.078.247.078.156 0 .374-.098.219-.099.394-.209.174-.112.221-.165.047-.054.09-.18.085-.262.125-.329zM108.393 56.13q-.163 0-.163-.097 0-.053.031-.118.032-.068.182-.197l.398-.34q.247-.211.54-.42-.123-.02-.658.045-.415.052-.58.052-.386 0-.386-.352 0-.07.045-.12.047-.055.114-.055.05 0 .121.052.09.063.14.08.05.018.15.018.158 0 .581-.04.558-.065.89-.065.275 0 .275.18 0 .127-.114.217-.112.09-.327.217-.285.17-.399.255-.112.083-.224.22.247-.018.372-.018.27 0 .466.069.195.067.29.177.1.11.15.177.052.067.052.242 0 .15-.22.486-.219.333-.725.53t-.987.197q-.139 0-.401-.033-.26-.036-.32-.128-.058-.092-.058-.186 0-.235.221-.235.01 0 .034.011l.154.065q.256.117.466.117.184 0 .56-.072.376-.074.632-.311.255-.24.255-.383 0-.244-.258-.323-.255-.08-.569-.08-.436 0-.73.166zM110.951 57.925q.417-.103.535-.293.119-.188.119-.269 0-.228-.063-.322-.029-.043-.029-.083 0-.033.03-.096t.062-.063q.047 0 .148.036.1.034.118.06.018.025.059.166.042.141.042.242 0 .038-.085.235-.083.2-.228.31-.146.111-.274.136-.051.009-.096.024-.177.079-.289.079-.065 0-.065-.106 0-.04.016-.056zM115.19 54.549q.137 0 .137.134 0 .065-.018.092-.018.024-.123.152-.103.125-.181.215-.083.094-.26.363l-.184.273q.417-.005.699-.031.067.02.083.112.018.091-.023.165-.038.074-.105.054-.385-.02-.81-.004l-.086.138q-.056.09-.1.166-.043.074-.081.155-.2.414-.242.537-.04.12-.04.26 0 .103-.058.17-.059.065-.148.065-.097 0-.157-.096-.06-.099-.06-.202 0-.107.264-.64.047-.092.098-.182.052-.09.119-.197.067-.11.1-.168-.344.01-.702.045-.081-.027-.101-.132-.018-.108.029-.19.047-.086.13-.059.11.016.242.023.134.004.306.006l.258.005.074-.114q.286-.43.374-.522.098-.105.177-.208l-.043-.032q-1.028.06-1.932.06-.052 0-.092-.05-.038-.054-.038-.122 0-.069.058-.136t.123-.067q.08 0 .379.018.295.02.573.02.508 0 .936-.047.28-.03.425-.03zM120.253 56.573q-.3.481-.636.743-.336.26-.618.26-.218 0-.345-.166-.126-.168-.126-.445 0-.567.46-1.162.46-.596.994-.596.232 0 .432.2l.313-1.465q.034-.15.123-.202.092-.051.144-.051.157 0 .157.277 0 .05-.103.368-.164.492-.312 1.211-.145.717-.145 1.151 0 .448.195.448.125 0 .26-.083.055-.04.105-.04.071 0 .071.094 0 .114-.201.264-.2.15-.41.15-.37 0-.37-.712 0-.12.012-.244zm-.294-1.048q-.363 0-.719.493-.356.49-.356.906 0 .28.186.28.175 0 .423-.183.251-.184.515-.585.265-.403.265-.604 0-.099-.092-.202-.09-.105-.222-.105zM123.453 56.685q-.314.42-.62.631-.307.21-.562.21-.173 0-.298-.145-.126-.145-.126-.374 0-.589.527-1.267.526-.68 1.045-.68.188 0 .28.214.03.072.092.072.18 0 .18.139 0 .069-.023.19-.121.66-.121.932 0 .541.206.649.098.054.098.132 0 .07-.096.139-.096.072-.186.072-.172 0-.284-.238-.112-.237-.112-.676zm-.137-1.26q-.295 0-.687.555-.392.553-.392.918 0 .257.17.257.246 0 .683-.497.437-.497.437-.914 0-.32-.21-.32zM126.483 56.69q-.027-.02-.15.125-.204.24-.522.425-.316.186-.586.186-.202 0-.316-.125-.114-.128-.114-.352 0-.347.262-.772.262-.428.732-.746.472-.318.826-.318.186 0 .327.107l.058.045q.04.03.076.119.036.087.036.14 0 .035-.024.104-.137.372-.186.616-.05.244-.108.822-.053.52-.116.799-.063.28-.226.542-.164.262-.392.392-.229.132-.47.132-.42 0-.827-.289t-.407-.463q0-.11.082-.11.04 0 .24.132.526.351.947.351.368 0 .558-.391.192-.392.262-1.172.016-.176.038-.3zm-.004-1.23q-.19 0-.477.197-.284.197-.553.578-.269.38-.269.638 0 .087.054.139.056.05.123.05.2 0 .52-.207.322-.206.553-.57.233-.368.233-.576 0-.249-.184-.249z"/></g><path d="M75.73 58.153q-.05 0-.137-.038-.096-.034-.14-.034-.034 0-.1.011-.067.014-.102.014-.07 0-.202-.014-.134-.013-.222-.013-.165 0-.436.031-.273.034-.446.034-.096 0-.141-.03-.045-.03-.045-.138 0-.065.038-.119.04-.056.235-.087.195-.034.316-.034.05 0 .141.011.123.01.421.002.298-.009.46-.044.013-.005.17-.003.158.003.26.079.102.074.102.179 0 .193-.172.193zm-.786 1.048h-.273l-.703.01q-.036 0-.101-.093-.065-.094-.065-.141 0-.068.152-.101.152-.036.271-.036l.562.013q.07 0 .164-.015.112-.02.262-.02.275 0 .499.053.224.054.224.186 0 .063-.036.126-.036.06-.072.06-.058 0-.21-.027-.186-.027-.285-.02-.098.005-.39.005zM75.73 68.153q-.05 0-.137-.038-.096-.034-.14-.034-.034 0-.1.011-.067.014-.102.014-.07 0-.202-.014-.134-.013-.222-.013-.165 0-.436.031-.273.034-.446.034-.096 0-.141-.03-.045-.03-.045-.138 0-.065.038-.119.04-.056.235-.087.195-.034.316-.034.05 0 .141.011.123.01.421.002.298-.009.46-.044.013-.005.17-.003.158.003.26.079.102.074.102.179 0 .193-.172.193zm-.786 1.048h-.273l-.703.01q-.036 0-.101-.093-.065-.094-.065-.141 0-.068.152-.101.152-.036.271-.036l.562.013q.07 0 .164-.015.112-.02.262-.02.275 0 .499.053.224.054.224.186 0 .063-.036.126-.036.06-.072.06-.058 0-.21-.027-.186-.027-.285-.02-.098.005-.39.005zM75.73 78.153q-.05 0-.137-.038-.096-.034-.14-.034-.034 0-.1.011-.067.014-.102.014-.07 0-.202-.014-.134-.013-.222-.013-.165 0-.436.031-.273.034-.446.034-.096 0-.141-.03-.045-.03-.045-.138 0-.065.038-.119.04-.056.235-.087.195-.034.316-.034.05 0 .141.011.123.01.421.002.298-.009.46-.044.013-.005.17-.003.158.003.26.079.102.074.102.179 0 .193-.172.193zm-.786 1.048h-.273l-.703.01q-.036 0-.101-.093-.065-.094-.065-.141 0-.068.152-.101.152-.036.271-.036l.562.013q.07 0 .164-.015.112-.02.262-.02.275 0 .499.053.224.054.224.186 0 .063-.036.126-.036.06-.072.06-.058 0-.21-.027-.186-.027-.285-.02-.098.005-.39.005zM125.73 58.153q-.05 0-.137-.038-.096-.034-.14-.034-.034 0-.1.011-.067.014-.102.014-.07 0-.202-.014-.134-.013-.222-.013-.165 0-.436.031-.273.034-.446.034-.096 0-.14-.03-.046-.03-.046-.138 0-.065.038-.119.04-.056.235-.087.195-.034.316-.034.05 0 .141.011.123.01.421.002.298-.009.46-.044.013-.005.17-.003.159.003.26.079.102.074.102.179 0 .193-.172.193zm-.786 1.048h-.273l-.703.01q-.036 0-.101-.093-.065-.094-.065-.141 0-.068.152-.101.152-.036.271-.036l.562.013q.07 0 .164-.015.112-.02.262-.02.275 0 .499.053.224.054.224.186 0 .063-.036.126-.036.06-.072.06-.058 0-.21-.027-.186-.027-.284-.02-.099.005-.39.005zM125.73 68.153q-.05 0-.137-.038-.096-.034-.14-.034-.034 0-.1.011-.067.014-.102.014-.07 0-.202-.014-.134-.013-.222-.013-.165 0-.436.031-.273.034-.446.034-.096 0-.14-.03-.046-.03-.046-.138 0-.065.038-.119.04-.056.235-.087.195-.034.316-.034.05 0 .141.011.123.01.421.002.298-.009.46-.044.013-.005.17-.003.159.003.26.079.102.074.102.179 0 .193-.172.193zm-.786 1.048h-.273l-.703.01q-.036 0-.101-.093-.065-.094-.065-.141 0-.068.152-.101.152-.036.271-.036l.562.013q.07 0 .164-.015.112-.02.262-.02.275 0 .499.053.224.054.224.186 0 .063-.036.126-.036.06-.072.06-.058 0-.21-.027-.186-.027-.284-.02-.099.005-.39.005zM125.73 78.153q-.05 0-.137-.038-.096-.034-.14-.034-.034 0-.1.011-.067.014-.102.014-.07 0-.202-.014-.134-.013-.222-.013-.165 0-.436.031-.273.034-.446.034-.096 0-.14-.03-.046-.03-.046-.138 0-.065.038-.119.04-.056.235-.087.195-.034.316-.034.05 0 .141.011.123.01.421.002.298-.009.46-.044.013-.005.17-.003.159.003.26.079.102.074.102.179 0 .193-.172.193zm-.786 1.048h-.273l-.703.01q-.036 0-.101-.093-.065-.094-.065-.141 0-.068.152-.101.152-.036.271-.036l.562.013q.07 0 .164-.015.112-.02.262-.02.275 0 .499.053.224.054.224.186 0 .063-.036.126-.036.06-.072.06-.058 0-.21-.027-.186-.027-.284-.02-.099.005-.39.005zM180.73 58.153q-.05 0-.137-.038-.096-.034-.14-.034-.034 0-.1.011-.067.014-.102.014-.07 0-.202-.014-.134-.013-.222-.013-.165 0-.436.031-.273.034-.446.034-.096 0-.14-.03-.046-.03-.046-.138 0-.065.038-.119.04-.056.235-.087.195-.034.316-.034.05 0 .141.011.123.01.421.002.298-.009.46-.044.013-.005.17-.003.159.003.26.079.102.074.102.179 0 .193-.172.193zm-.786 1.048h-.273l-.703.01q-.036 0-.101-.093-.065-.094-.065-.141 0-.068.152-.101.152-.036.271-.036l.562.013q.07 0 .164-.015.112-.02.262-.02.275 0 .499.053.224.054.224.186 0 .063-.036.126-.036.06-.072.06-.058 0-.21-.027-.186-.027-.284-.02-.099.005-.39.005zM180.73 68.153q-.05 0-.137-.038-.096-.034-.14-.034-.034 0-.1.011-.067.014-.102.014-.07 0-.202-.014-.134-.013-.222-.013-.165 0-.436.031-.273.034-.446.034-.096 0-.14-.03-.046-.03-.046-.138 0-.065.038-.119.04-.056.235-.087.195-.034.316-.034.05 0 .141.011.123.01.421.002.298-.009.46-.044.013-.005.17-.003.159.003.26.079.102.074.102.179 0 .193-.172.193zm-.786 1.048h-.273l-.703.01q-.036 0-.101-.093-.065-.094-.065-.141 0-.068.152-.101.152-.036.271-.036l.562.013q.07 0 .164-.015.112-.02.262-.02.275 0 .499.053.224.054.224.186 0 .063-.036.126-.036.06-.072.06-.058 0-.21-.027-.186-.027-.284-.02-.099.005-.39.005zM180.73 78.153q-.05 0-.137-.038-.096-.034-.14-.034-.034 0-.1.011-.067.014-.102.014-.07 0-.202-.014-.134-.013-.222-.013-.165 0-.436.031-.273.034-.446.034-.096 0-.14-.03-.046-.03-.046-.138 0-.065.038-.119.04-.056.235-.087.195-.034.316-.034.05 0 .141.011.123.01.421.002.298-.009.46-.044.013-.005.17-.003.159.003.26.079.102.074.102.179 0 .193-.172.193zm-.786 1.048h-.273l-.703.01q-.036 0-.101-.093-.065-.094-.065-.141 0-.068.152-.101.152-.036.271-.036l.562.013q.07 0 .164-.015.112-.02.262-.02.275 0 .499.053.224.054.224.186 0 .063-.036.126-.036.06-.072.06-.058 0-.21-.027-.186-.027-.284-.02-.099.005-.39.005z" aria-label="=" style="font-size:4.5861px;line-height:1.2;font-family:&quot;Segoe Print QD&quot;;-inkscape-font-specification:&quot;Segoe Print QD&quot;;text-align:center;letter-spacing:.264583px;word-spacing:.529167px;text-anchor:middle;overflow:visible;stroke-width:.264583px;stop-color:#000" transform="translate(-47.5 -22.5)"/><path d="M80.56 59.964q-.108 0-.143-.07-.036-.07-.036-.2 0-.122.147-.158.148-.035.238-.035.105 0 .105.053 0 .126-.096.27-.096.14-.215.14zm1.22.04q-.083 0-.154-.033-.072-.036-.072-.103 0-.2.09-.28.09-.083.186-.083.049 0 .091.056.043.054.043.103 0 .119-.043.23-.04.11-.14.11zm1.187-.022q-.09 0-.166-.074-.076-.074-.076-.166 0-.078.09-.154.092-.078.166-.078.078 0 .16.065.084.062.084.172 0 .098-.079.168-.078.067-.179.067zM80.56 69.964q-.108 0-.143-.07-.036-.07-.036-.2 0-.122.147-.158.148-.035.238-.035.105 0 .105.053 0 .126-.096.27-.096.14-.215.14zm1.22.04q-.083 0-.154-.033-.072-.036-.072-.103 0-.2.09-.28.09-.083.186-.083.049 0 .091.056.043.054.043.103 0 .119-.043.23-.04.11-.14.11zm1.187-.022q-.09 0-.166-.074-.076-.074-.076-.166 0-.078.09-.154.092-.078.166-.078.078 0 .16.065.084.062.084.172 0 .098-.079.168-.078.067-.179.067zM80.56 79.964q-.108 0-.143-.07-.036-.07-.036-.2 0-.122.147-.158.148-.035.238-.035.105 0 .105.053 0 .126-.096.27-.096.14-.215.14zm1.22.04q-.083 0-.154-.033-.072-.036-.072-.103 0-.2.09-.28.09-.083.186-.083.049 0 .091.056.043.054.043.103 0 .119-.043.23-.04.11-.14.11zm1.187-.022q-.09 0-.166-.074-.076-.074-.076-.166 0-.078.09-.154.092-.078.166-.078.078 0 .16.065.084.062.084.172 0 .098-.079.168-.078.067-.179.067zM130.56 59.964q-.108 0-.143-.07-.036-.07-.036-.2 0-.122.148-.158.147-.035.237-.035.105 0 .105.053 0 .126-.096.27-.096.14-.215.14zm1.22.04q-.083 0-.154-.033-.072-.036-.072-.103 0-.2.09-.28.09-.083.185-.083.05 0 .092.056.043.054.043.103 0 .119-.043.23-.04.11-.14.11zm1.187-.022q-.09 0-.166-.074-.076-.074-.076-.166 0-.078.09-.154.092-.078.166-.078.078 0 .16.065.084.062.084.172 0 .098-.079.168-.078.067-.179.067zM130.56 69.964q-.108 0-.143-.07-.036-.07-.036-.2 0-.122.148-.158.147-.035.237-.035.105 0 .105.053 0 .126-.096.27-.096.14-.215.14zm1.22.04q-.083 0-.154-.033-.072-.036-.072-.103 0-.2.09-.28.09-.083.185-.083.05 0 .092.056.043.054.043.103 0 .119-.043.23-.04.11-.14.11zm1.187-.022q-.09 0-.166-.074-.076-.074-.076-.166 0-.078.09-.154.092-.078.166-.078.078 0 .16.065.084.062.084.172 0 .098-.079.168-.078.067-.179.067zM130.56 79.964q-.108 0-.143-.07-.036-.07-.036-.2 0-.122.148-.158.147-.035.237-.035.105 0 .105.053 0 .126-.096.27-.096.14-.215.14zm1.22.04q-.083 0-.154-.033-.072-.036-.072-.103 0-.2.09-.28.09-.083.185-.083.05 0 .092.056.043.054.043.103 0 .119-.043.23-.04.11-.14.11zm1.187-.022q-.09 0-.166-.074-.076-.074-.076-.166 0-.078.09-.154.092-.078.166-.078.078 0 .16.065.084.062.084.172 0 .098-.079.168-.078.067-.179.067zM185.56 59.964q-.108 0-.143-.07-.036-.07-.036-.2 0-.122.148-.158.147-.035.237-.035.105 0 .105.053 0 .126-.096.27-.096.14-.215.14zm1.22.04q-.083 0-.154-.033-.072-.036-.072-.103 0-.2.09-.28.09-.083.185-.083.05 0 .092.056.043.054.043.103 0 .119-.043.23-.04.11-.14.11zm1.187-.022q-.09 0-.166-.074-.076-.074-.076-.166 0-.078.09-.154.092-.078.166-.078.078 0 .16.065.084.062.084.172 0 .098-.079.168-.078.067-.179.067zM185.56 69.964q-.108 0-.143-.07-.036-.07-.036-.2 0-.122.148-.158.147-.035.237-.035.105 0 .105.053 0 .126-.096.27-.096.14-.215.14zm1.22.04q-.083 0-.154-.033-.072-.036-.072-.103 0-.2.09-.28.09-.083.185-.083.05 0 .092.056.043.054.043.103 0 .119-.043.23-.04.11-.14.11zm1.187-.022q-.09 0-.166-.074-.076-.074-.076-.166 0-.078.09-.154.092-.078.166-.078.078 0 .16.065.084.062.084.172 0 .098-.079.168-.078.067-.179.067zM185.56 79.964q-.108 0-.143-.07-.036-.07-.036-.2 0-.122.148-.158.147-.035.237-.035.105 0 .105.053 0 .126-.096.27-.096.14-.215.14zm1.22.04q-.083 0-.154-.033-.072-.036-.072-.103 0-.2.09-.28.09-.083.185-.083.05 0 .092.056.043.054.043.103 0 .119-.043.23-.04.11-.14.11zm1.187-.022q-.09 0-.166-.074-.076-.074-.076-.166 0-.078.09-.154.092-.078.166-.078.078 0 .16.065.084.062.084.172 0 .098-.079.168-.078.067-.179.067z" aria-label="…" style="font-size:4.5861px;line-height:1.2;font-family:&quot;Segoe Print QD&quot;;-inkscape-font-specification:&quot;Segoe Print QD&quot;;letter-spacing:.264583px;word-spacing:.529167px;overflow:visible;stroke-width:.264583px;stop-color:#000" transform="translate(-47.5 -22.5)"/><g aria-label="cg" style="font-size:4.5861px;line-height:1.2;font-family:&quot;Segoe Print QD&quot;;-inkscape-font-specification:&quot;Segoe Print QD&quot;;letter-spacing:.264583px;word-spacing:.529167px;overflow:visible;stroke-width:.264583px;stop-color:#000"><path d="M88.41 57.628q-.337 0-.518-.193-.18-.193-.18-.54 0-.584.464-1.231.464-.65.862-.65.182 0 .312.197.132.195.132.415 0 .132-.058.228-.056.094-.115.094-.13 0-.183-.262-.06-.282-.175-.282-.233 0-.55.553-.319.553-.319.934 0 .38.432.38.33 0 .775-.308.157-.11.23-.11.077 0 .077.087 0 .17-.4.43-.402.258-.787.258zM91.97 56.69q-.027-.02-.15.125-.204.24-.522.425-.316.186-.586.186-.202 0-.316-.125-.114-.128-.114-.352 0-.347.262-.772.262-.428.732-.746.472-.318.826-.318.186 0 .327.107l.058.045q.04.03.076.119.036.087.036.14 0 .035-.024.104-.137.372-.186.616-.05.244-.108.822-.053.52-.116.799-.063.28-.226.542-.164.262-.392.392-.229.132-.47.132-.42 0-.827-.289t-.407-.463q0-.11.083-.11.04 0 .24.132.525.351.946.351.368 0 .558-.391.193-.392.262-1.172.016-.176.038-.3zm-.004-1.23q-.19 0-.477.197-.284.197-.553.578-.269.38-.269.638 0 .087.054.139.056.05.123.05.2 0 .52-.207.322-.206.553-.57.233-.368.233-.576 0-.249-.184-.249z"/></g><path d="M191.881 59.19q-.027-.02-.15.125-.204.24-.522.425-.316.186-.586.186-.202 0-.316-.125-.114-.128-.114-.352 0-.347.262-.772.262-.428.732-.746.472-.318.826-.318.186 0 .327.107l.058.045q.04.03.076.119.036.087.036.14 0 .035-.024.104-.137.372-.186.616-.05.244-.108.822-.053.52-.116.799-.063.28-.226.542-.164.262-.392.392-.229.132-.47.132-.42 0-.827-.289t-.407-.463q0-.11.083-.11.04 0 .24.132.525.351.946.351.368 0 .558-.391.193-.392.262-1.172.016-.176.038-.3zm-.004-1.23q-.19 0-.477.197-.284.197-.553.578-.269.38-.269.638 0 .087.054.139.056.05.123.05.2 0 .52-.207.322-.206.553-.57.233-.368.233-.576 0-.249-.184-.249zM191.881 69.19q-.027-.02-.15.125-.204.24-.522.425-.316.186-.586.186-.202 0-.316-.125-.114-.128-.114-.352 0-.347.262-.772.262-.428.732-.746.472-.318.826-.318.186 0 .327.107l.058.045q.04.03.076.119.036.087.036.14 0 .035-.024.104-.137.372-.186.616-.05.244-.108.822-.053.52-.116.799-.063.28-.226.542-.164.262-.392.392-.229.132-.47.132-.42 0-.827-.289t-.407-.463q0-.11.083-.11.04 0 .24.132.525.351.946.351.368 0 .558-.391.193-.392.262-1.172.016-.176.038-.3zm-.004-1.23q-.19 0-.477.197-.284.197-.553.578-.269.38-.269.638 0 .087.054.139.056.05.123.05.2 0 .52-.207.322-.206.553-.57.233-.368.233-.576 0-.249-.184-.249z" aria-label="g" style="font-size:4.5861px;line-height:1.2;font-family:&quot;Segoe Print QD&quot;;-inkscape-font-specification:&quot;Segoe Print QD&quot;;letter-spacing:.264583px;word-spacing:.529167px;overflow:visible;stroke-width:.264583px;stop-color:#000" transform="translate(-47.5 -22.5)"/><g aria-label="mg" style="font-size:4.5861px;line-height:1.2;font-family:&quot;Segoe Print QD&quot;;-inkscape-font-specification:&quot;Segoe Print QD&quot;;letter-spacing:.264583px;word-spacing:.529167px;overflow:visible;stroke-width:.264583px;stop-color:#000"><path d="M144.488 55.729q-.208.004-.89 1.234-.231.414-.27.452-.038.036-.14.065-.101.029-.168.029-.15 0-.15-.585 0-.329.14-1.19.059-.35.059-.5 0-.148.132-.148.248 0 .248.358 0 .168-.082.659-.097.56-.099.68.139-.134.408-.589.38-.622.56-.788.18-.168.373-.168.146 0 .231.195.087.195.105.93.004.183.034.273.029.09.042.09.106 0 .457-.717.188-.379.365-.576.18-.197.397-.197.181 0 .264.188.083.186.118.553.034.372.103.681.072.309.26.396.128.06.128.141 0 .079-.108.162-.107.083-.197.083-.179 0-.32-.22-.14-.22-.213-.95-.031-.293-.06-.416-.03-.123-.092-.123-.094 0-.224.18-.127.178-.414.727-.224.428-.34.57-.115.142-.222.142-.096 0-.173-.076-.076-.079-.096-.186-.02-.11-.042-.535-.034-.708-.124-.824zM149.36 56.69q-.028-.02-.15.125-.204.24-.522.425-.316.186-.587.186-.202 0-.316-.125-.114-.128-.114-.352 0-.347.262-.772.262-.428.732-.746.473-.318.826-.318.186 0 .327.107l.059.045q.04.03.076.119.035.087.035.14 0 .035-.024.104-.137.372-.186.616-.05.244-.107.822-.054.52-.117.799-.063.28-.226.542-.164.262-.392.392-.228.132-.47.132-.419 0-.827-.289-.407-.289-.407-.463 0-.11.083-.11.04 0 .24.132.526.351.947.351.367 0 .557-.391.193-.392.262-1.172.016-.176.038-.3zm-.005-1.23q-.19 0-.477.197-.284.197-.553.578-.268.38-.268.638 0 .087.053.139.056.05.123.05.2 0 .52-.207.322-.206.553-.57.233-.368.233-.576 0-.249-.184-.249z"/></g><g aria-label="dg" style="font-size:4.5861px;line-height:1.2;font-family:&quot;Segoe Print QD&quot;;-inkscape-font-specification:&quot;Segoe Print QD&quot;;letter-spacing:.264583px;word-spacing:.529167px;overflow:visible;stroke-width:.264583px;stop-color:#000"><path d="M39.403 36.573q-.3.481-.636.743-.335.26-.618.26-.217 0-.344-.166-.126-.168-.126-.445 0-.567.46-1.162.46-.596.993-.596.233 0 .433.2l.313-1.465q.034-.15.123-.202.092-.051.144-.051.156 0 .156.277 0 .05-.103.368-.163.492-.31 1.211-.146.717-.146 1.151 0 .448.194.448.126 0 .26-.083.056-.04.105-.04.072 0 .072.094 0 .114-.202.264-.199.15-.41.15-.369 0-.369-.712 0-.12.011-.244zm-.293-1.048q-.363 0-.719.493-.356.49-.356.906 0 .28.186.28.175 0 .423-.183.251-.184.515-.585.265-.403.265-.604 0-.099-.092-.202-.09-.105-.222-.105zM42.678 36.69q-.027-.02-.15.125-.204.24-.522.425-.316.186-.587.186-.201 0-.316-.125-.114-.128-.114-.352 0-.347.262-.772.262-.428.732-.746.473-.318.827-.318.186 0 .327.107.033.027.058.045.04.03.076.119.036.087.036.14 0 .035-.025.104-.136.372-.186.616-.049.244-.107.822-.054.52-.117.799-.062.28-.226.542-.163.262-.392.392-.228.132-.47.132-.419 0-.826-.289-.408-.289-.408-.463 0-.11.083-.11.04 0 .24.132.526.351.947.351.367 0 .558-.391.192-.392.262-1.172.015-.176.038-.3zm-.005-1.23q-.19 0-.477.197-.284.197-.553.578-.269.38-.269.638 0 .087.054.139.056.05.123.05.2 0 .52-.207.322-.206.553-.57.233-.368.233-.576 0-.249-.184-.249z"/></g><g aria-label="mg" style="font-size:4.5861px;line-height:1.2;font-family:&quot;Segoe Print QD&quot;;-inkscape-font-specification:&quot;Segoe Print QD&quot;;letter-spacing:.264583px;word-spacing:.529167px;overflow:visible;stroke-width:.264583px;stop-color:#000"><path d="M39.488 45.729q-.208.004-.89 1.234-.231.414-.27.452-.038.036-.14.065-.101.029-.168.029-.15 0-.15-.585 0-.329.14-1.19.059-.35.059-.5 0-.148.132-.148.248 0 .248.358 0 .168-.082.659-.097.56-.099.68.139-.134.408-.589.38-.622.56-.788.18-.168.373-.168.146 0 .231.195.087.195.105.93.005.183.034.273.029.09.042.09.106 0 .457-.717.188-.379.365-.576.18-.197.397-.197.181 0 .264.188.083.186.119.553.033.372.103.681.071.309.26.396.127.06.127.141 0 .079-.108.162-.107.083-.197.083-.179 0-.32-.22-.14-.22-.213-.95-.03-.293-.06-.416t-.092-.123q-.094 0-.224.18-.127.178-.414.727-.224.428-.34.57-.115.142-.222.142-.096 0-.172-.076-.077-.079-.097-.186-.02-.11-.042-.535-.034-.708-.124-.824zM44.36 46.69q-.028-.02-.15.125-.204.24-.522.425-.316.186-.587.186-.202 0-.316-.125-.114-.128-.114-.352 0-.347.262-.772.262-.428.732-.746.473-.318.826-.318.186 0 .327.107l.059.045q.04.03.076.119.036.087.036.14 0 .035-.025.104-.137.372-.186.616-.05.244-.107.822-.054.52-.117.799-.063.28-.226.542t-.392.392q-.228.132-.47.132-.419 0-.826-.289-.408-.289-.408-.463 0-.11.083-.11.04 0 .24.132.526.351.947.351.367 0 .557-.391.193-.392.262-1.172.016-.176.038-.3zm-.005-1.23q-.19 0-.477.197-.285.197-.553.578-.269.38-.269.638 0 .087.054.139.056.05.123.05.2 0 .52-.207.322-.206.553-.57.232-.368.232-.576 0-.249-.183-.249z"/></g><path d="M86.881 79.19q-.027-.02-.15.125-.204.24-.522.425-.316.186-.586.186-.202 0-.316-.125-.114-.128-.114-.352 0-.347.262-.772.262-.428.732-.746.472-.318.826-.318.186 0 .327.107l.058.045q.04.03.076.119.036.087.036.14 0 .035-.024.104-.137.372-.186.616-.05.244-.108.822-.053.52-.116.799-.063.28-.226.542-.164.262-.392.392-.229.132-.47.132-.42 0-.827-.289t-.407-.463q0-.11.083-.11.04 0 .24.132.525.351.946.351.368 0 .558-.391.193-.392.262-1.172.016-.176.038-.3zm-.004-1.23q-.19 0-.477.197-.285.197-.554.578-.268.38-.268.638 0 .087.053.139.056.05.124.05.199 0 .52-.207.322-.206.552-.57.233-.368.233-.576 0-.249-.183-.249zM136.881 59.19q-.027-.02-.15.125-.204.24-.522.425-.316.186-.586.186-.202 0-.316-.125-.114-.128-.114-.352 0-.347.262-.772.262-.428.732-.746.472-.318.826-.318.186 0 .327.107l.058.045q.04.03.076.119.036.087.036.14 0 .035-.024.104-.137.372-.186.616-.05.244-.108.822-.053.52-.116.799-.063.28-.226.542-.164.262-.392.392-.229.132-.47.132-.42 0-.827-.289t-.407-.463q0-.11.083-.11.04 0 .24.132.525.351.946.351.368 0 .558-.391.193-.392.262-1.172.016-.176.038-.3zm-.004-1.23q-.19 0-.477.197-.284.197-.553.578-.269.38-.269.638 0 .087.054.139.056.05.123.05.2 0 .52-.207.322-.206.553-.57.233-.368.233-.576 0-.249-.184-.249z" aria-label="g" style="font-size:4.5861px;line-height:1.2;font-family:&quot;Segoe Print QD&quot;;-inkscape-font-specification:&quot;Segoe Print QD&quot;;letter-spacing:.264583px;word-spacing:.529167px;overflow:visible;stroke-width:.264583px;stop-color:#000" transform="translate(-47.5 -22.5)"/><g aria-label="kg" style="font-size:4.5861px;line-height:1.2;font-family:&quot;Segoe Print QD&quot;;-inkscape-font-specification:&quot;Segoe Print QD&quot;;letter-spacing:.264583px;word-spacing:.529167px;overflow:visible;stroke-width:.264583px;stop-color:#000"><path d="M88.232 46.454q.03-.038.401-.36.352-.307.49-.446.518-.517.744-.517.175 0 .175.168 0 .19-.173.28-.224.114-.598.38-.374.265-.374.374 0 .045.265.336.264.29.456.428.193.137.374.137l.074-.003q.079-.004.079.07 0 .098-.124.199-.123.103-.324.103-.13 0-.264-.092-.133-.09-.473-.488-.27-.33-.338-.392-.067-.065-.112-.065-.025 0-.157.117-.132.116-.145.177-.012.06-.012.46v.106q0 .083-.078.148-.078.065-.17.065-.094 0-.148-.056-.054-.054-.054-.112 0-.08.06-.38.086-.433.158-1.158.165-1.714.255-1.937.09-.227.255-.227.058 0 .096.063.04.063.04.161 0 .18-.154.952-.154.775-.224 1.51zM92.357 46.69q-.026-.02-.15.125-.203.24-.521.425-.316.186-.587.186-.202 0-.316-.125-.114-.128-.114-.352 0-.347.262-.772.262-.428.732-.746.473-.318.827-.318.185 0 .326.107l.059.045q.04.03.076.119.036.087.036.14 0 .035-.025.104-.137.372-.186.616-.05.244-.107.822-.054.52-.117.799-.063.28-.226.542t-.392.392q-.228.132-.47.132-.419 0-.826-.289-.408-.289-.408-.463 0-.11.083-.11.04 0 .24.132.526.351.947.351.367 0 .557-.391.193-.392.262-1.172.016-.176.038-.3zm-.004-1.23q-.19 0-.477.197-.284.197-.553.578-.268.38-.268.638 0 .087.053.139.056.05.123.05.2 0 .52-.207.322-.206.553-.57.233-.368.233-.576 0-.249-.184-.249z"/></g><path d="M95 55v27.5M145 55v27.5" style="font-variation-settings:normal;opacity:1;vector-effect:none;fill:none;fill-opacity:1;fill-rule:evenodd;stroke:#000;stroke-width:.3;stroke-linecap:butt;stroke-linejoin:miter;stroke-miterlimit:4;stroke-dasharray:none;stroke-dashoffset:0;stroke-opacity:1;-inkscape-stroke:none;stop-color:#000;stop-opacity:1" transform="translate(-47.5 -22.5)"/></svg>