<?xml version="1.0" encoding="UTF-8"?>
<svg width="56.65mm" height="4.6264mm" version="1.1" viewBox="0 0 56.65 4.6264" xmlns="http://www.w3.org/2000/svg">
<g transform="translate(-47.905 -36.249)">
<g transform="scale(.26458)" stroke-width="1px" aria-label="xA = 10  et  yA = −4">
<path d="m182.32 142.9q0.64323-2.3105 2.5306-2.6068 0.95638-0.15234 1.5742 0.49088 0.6263 0.63477 0.87174 1.7773 0.38932-0.73632 0.82943-1.2611 0.44857-0.52474 0.85481-0.77865 0.41472-0.2539 0.73633-0.35546 0.32161-0.11003 0.60937-0.11003 0.6517 0 1.1172 0.71094 0.48242 0.70247 0.48242 1.4896 0 0.47395-0.21159 0.82096-0.20312 0.33854-0.41471 0.33854-0.46549 0-0.66015-0.93945-0.21159-1.0156-0.62631-1.0156-0.83788 0-1.9805 1.9889-1.1426 1.9889-1.1426 3.36t1.5488 1.3711q1.1849 0 2.793-1.1172 0.55859-0.38932 0.82943-0.38932 0.27083 0 0.27083 0.31315 0 0.60937-1.4388 1.5404-1.4473 0.93099-2.8268 0.93099-1.2103 0-1.862-0.69401-0.54167-0.58399-0.6263-1.5827-0.25391 0.33854-0.38086 0.49088-0.55859 0.65169-1.0072 0.99024-0.45703 0.33854-0.82943 0.46549-0.37239 0.13542-0.7194 0.13542-0.70247 0-1.1426-0.42318-0.44011-0.42318-0.44011-0.99023 0-0.24545 0.16081-0.44857 0.15235-0.20312 0.47396-0.20312 0.33854 0 0.61784 0.30468 0.28776 0.29623 0.60937 0.29623 0.83789 0 2.319-2.0312 0.47395-0.74479 0.74479-1.5827 0.27083-0.84635 0.15234-1.6335t-0.77018-1.0664q-0.51628-0.22006-1.1003 0.46549-0.57552 0.67708-0.58398 1.2695-8e-3 0.347-0.0339 0.46549-0.0846 0.28776-0.29622 0.5332-0.22005 0.24545-0.50781 0.16927-0.86328-0.23697-0.52474-1.4896z"/>
<path d="m199.4 144.85q0.0495 0.0385 0.0495 0.26956 0 0.23656-0.0495 0.35758l0.0715 0.23106q0.18154 0.64915 0.35758 1.0672 0.22005 0.56113 0.4346 1.2048 0.48962 1.4798 1.0177 2.5361 0.53363 1.0507 0.97373 1.4798 0.27506 0.26956 0.34108 0.37408 0.0715 0.099 0.0715 0.23656 0 0.24206-0.16504 0.40709-0.15954 0.17054-0.38509 0.17054-0.70417 0-1.7054-2.217-0.4016-0.8747-0.48412-0.8747-0.26406 0-1.1388 0.15954-0.86921 0.15953-1.5899 0.37408-0.41259 0.12653-0.52262 0.12653-0.13753 0-0.28607-0.13753-0.0275-0.022-0.066-0.022-0.12103 0-0.52262 0.71516-0.66016 1.1828-0.8362 1.4138-0.17054 0.22555-0.37959 0.22555-0.14853 0-0.35758-0.17604-0.20905-0.17054-0.20905-0.35209 0-0.17604 0.19804-0.47311 0.19805-0.30257 0.80869-1.2103 1.0893-1.6119 1.8374-3.0257 1.1828-2.25 1.5019-2.6516 0.31907-0.4071 0.48961-0.4071 0.36309 0 0.54463 0.19805zm0.33558 4.3735q-0.19255-0.4401-0.56663-1.6119-0.4071-1.2488-0.51713-1.5184-0.30257 0.63815-0.93522 1.8099l-0.99573 1.887q0.11553-0.088 0.61064-0.14304 0.37959-0.0385 0.66016-0.099 1.5018-0.30257 1.7439-0.32458z" baseline-shift="sub"/>
<path d="m222.45 142.28q-0.1862 0-0.51628-0.14388-0.36393-0.12696-0.5332-0.12696-0.12695 0-0.3724 0.0423-0.2539 0.0508-0.38932 0.0508-0.26237 0-0.76171-0.0508-0.50782-0.0508-0.83789-0.0508-0.6263 0-1.6504 0.11849-1.0326 0.12695-1.6842 0.12695-0.36393 0-0.5332-0.11002-0.16928-0.11849-0.16928-0.52474 0-0.24544 0.14388-0.44857 0.15235-0.21159 0.88867-0.33008 0.73633-0.12695 1.1934-0.12695 0.1862 0 0.5332 0.0423 0.4655 0.0339 1.5912 8e-3 1.1256-0.0339 1.735-0.16927 0.0508-0.0169 0.64323-8e-3 0.60091 8e-3 0.98177 0.29622 0.38932 0.2793 0.38932 0.67708 0 0.72787-0.65169 0.72787zm-2.9707 3.9609h-1.0326l-2.6576 0.0423q-0.13541 0-0.38086-0.35546-0.24544-0.35547-0.24544-0.53321 0-0.2539 0.57552-0.38085 0.57552-0.13542 1.0241-0.13542l2.1243 0.0508q0.26237 0 0.61784-0.0592 0.42318-0.0762 0.99023-0.0762 1.041 0 1.8874 0.20313 0.84635 0.20312 0.84635 0.70247 0 0.23698-0.13542 0.47396-0.13541 0.22851-0.27083 0.22851-0.22005 0-0.79557-0.10156-0.70247-0.10156-1.0749-0.0762-0.37239 0.0169-1.4726 0.0169zm21.875-2.7845t0.48242-3.5716q-0.49088 0-1.3626 0.59245-1.5488 1.0156-2.7253 1.0156-0.38086 0-0.38086-0.5332 0-0.33854 0.12695-0.44857 0.13542-0.11003 1.1849-0.55859 1.0495-0.45703 2.6406-1.405 1.5911-0.94791 1.735-0.94791 0.27083 0 0.46549 0.37239 0.19467 0.3724 0.19467 0.65169 0 0.23698-0.24545 0.48243-0.82942 3.6224-0.96484 5.5521-0.13541 1.9212-0.0423 2.2428l0.21159 1.2865 0.0339 0.49935q0 0.57552-0.96485 0.57552-0.95637 0-0.77864-1.8112 0.36393-3.6986 0.38932-3.9948zm11.199 6.0176q-0.99023 0-1.6419-0.92252-0.64323-0.92252-0.80404-2.3021-0.20312-1.6842 0.29623-3.7155 0.50781-2.0312 1.7858-3.3346 1.2865-1.3034 2.3782-1.3034 0.80403 0 1.8112 0.72786 1.0156 0.72787 1.4896 1.6335 0.48243 0.9056 0.66862 2.4036 0.27084 2.2428-1.5827 4.528-1.8535 2.2852-4.401 2.2852zm3.1315-9.9362q-0.11003 0.24545-0.41472 0.24545-0.0423 0-0.2539-0.1862-0.22006-0.19466-0.38086-0.19466-0.75326 0-1.1595 0.33008-0.40625 0.32161-1.058 1.3457-0.64322 1.0241-0.98176 2.2513-0.33855 1.2188-0.1862 2.4798 0.17773 1.498 0.73632 1.8789 0.5586 0.38086 1.1595 0.38086 0.76171 0 1.8027-0.83789 1.0495-0.83789 1.862-2.1497 0.8125-1.3203 0.71094-2.1497-0.0508-0.47396-0.23698-1.1003-0.1862-0.63476-0.35547-0.87174-0.1608-0.23698-0.58398-0.76172t-0.66015-0.66016zm33.118 6.8555q0 0.86328-1.5319 2.082-1.5234 1.2188-3.1484 1.2188-1.3626 0-2.1074-0.80404-0.73633-0.80403-0.73633-2.2428 0-2.4206 1.6335-4.6042t3.5716-2.1836q0.63476 0 1.0326 0.41471 0.40625 0.41471 0.40625 0.9987 0 1.3034-1.278 2.4967-1.278 1.1934-3.4193 2.3444-0.4401 0.22852-0.4401 0.59245 0 0.70247 0.40625 1.1256t1.2018 0.42318q1.8197 0 3.7155-2.0143 0.27929-0.2793 0.42317-0.2793 0.27084 0 0.27084 0.43164zm-5.8822-1.3203q3.5885-2.1328 3.5885-3.4277 0-0.50781-0.45703-0.50781-0.77864 0-1.7604 1.1426-0.97331 1.1426-1.3711 2.793zm12.096-4.3502q0.87174-0.0677 1.6419-0.16081 0.76171-0.0846 1.2695-0.0846 0.64323 0 0.8125 0.11849 0.16927 0.11848 0.16927 0.41471 0 0.68554-0.95638 0.74479-1.2272 0.0762-2.2598 0.21159-1.0326 0.13541-1.1172 0.22851-0.0762 0.0846-0.50781 2.0143-0.43164 1.9212-0.43164 2.4967 0 0.93099 0.24544 1.2441 0.24544 0.30469 0.73633 0.30469 0.72786 0 2.0228-1.0918 0.49935-0.44857 0.77018-0.44857 0.36393 0 0.36393 0.38933 0 0.60937-1.1764 1.5827-1.168 0.96484-2.3952 0.96484-2.0482 0-2.0482-2.4121 0-0.87174 0.42318-2.6999 0.41471-1.8197 0.41471-2.1836 0-0.12695-0.20313-0.12695l-0.8802 0.0762q-1.0833 0-1.0833-0.86328 0-0.49089 0.49934-0.49089h1.7435q0.17773 0 0.31315-0.1608 0.13542-0.16081 0.39779-1.0749 0.26237-0.92253 0.46549-1.8197 0.20313-0.88867 0.79557-0.88867 0.36393 0 0.56706 0.25391 0.20312 0.2539 0.20312 0.47395 0 0.11849-0.30468 1.2103zm31.798 5.5521q-1.5573 1.3542-2.7422 1.972-1.1764 0.60938-1.8027 0.60938-0.83788 0-1.2864-0.69401-0.4401-0.70248-0.4401-1.6335 0-1.3034 0.52473-3.2161 0.53321-1.9212 0.78711-2.2767 0.26237-0.36393 0.82943-0.36393 0.23698 0 0.38932 0.27929 0.15234 0.2793 0.15234 0.63477 0 0.21159-0.19466 0.55013-0.45703 0.79557-0.48242 0.8802-0.0169 0.0846-0.32161 1.0241-0.30469 0.93099-0.30469 1.752 0 0.28776 0.13542 0.89713 0.14388 0.60938 0.58398 0.60938 0.46549 0 1.1426-0.2793 0.68554-0.28776 1.5404-0.93099 0.85481-0.64322 1.151-1.041 0.29622-0.39779 0.41471-0.9056 0.12695-0.50781 0.17773-2.2005 0.0508-1.6927 0.82096-1.6927 0.45704 0 0.59245 0.24544 0.13542 0.23698 0.13542 0.91406 0 0.5586-0.0762 1.3965-0.0931 1.0579-0.11849 1.5065-0.11849 2.3275-0.60938 4.6803-0.48242 2.3444-1.4134 3.9186-0.93098 1.5827-2.5644 1.5827-1.6588 0-2.9538-0.87174-1.2865-0.86328-1.2865-1.4642 0-0.2793 0.12695-0.55013 0.13542-0.27083 0.33854-0.27083 0.10157 0 0.22006 0.16081 1.1087 1.7012 3.487 1.7012 1.2272 0 2.0566-2.1582 0.83789-2.1497 0.92253-4.0371 0.0169-0.36393 0.0677-0.72786z"/>
<path d="m336 144.85q0.0495 0.0385 0.0495 0.26956 0 0.23656-0.0495 0.35758l0.0715 0.23106q0.18154 0.64915 0.35758 1.0672 0.22006 0.56113 0.43461 1.2048 0.48961 1.4798 1.0177 2.5361 0.53363 1.0507 0.97373 1.4798 0.27507 0.26956 0.34108 0.37408 0.0715 0.099 0.0715 0.23656 0 0.24206-0.16504 0.40709-0.15954 0.17054-0.38509 0.17054-0.70416 0-1.7054-2.217-0.40159-0.8747-0.48411-0.8747-0.26406 0-1.1388 0.15954-0.8692 0.15953-1.5899 0.37408-0.4126 0.12653-0.52263 0.12653-0.13753 0-0.28606-0.13753-0.0275-0.022-0.066-0.022-0.12103 0-0.52262 0.71516-0.66016 1.1828-0.8362 1.4138-0.17054 0.22555-0.37959 0.22555-0.14853 0-0.35758-0.17604-0.20905-0.17054-0.20905-0.35209 0-0.17604 0.19805-0.47311 0.19804-0.30257 0.80869-1.2103 1.0892-1.6119 1.8374-3.0257 1.1828-2.25 1.5018-2.6516 0.31908-0.4071 0.48962-0.4071 0.36308 0 0.54462 0.19805zm0.33558 4.3735q-0.19254-0.4401-0.56663-1.6119-0.4071-1.2488-0.51712-1.5184-0.30257 0.63815-0.93522 1.8099l-0.99574 1.887q0.11553-0.088 0.61065-0.14304 0.37959-0.0385 0.66015-0.099 1.5019-0.30257 1.7439-0.32458z" baseline-shift="sub"/>
<path d="m359.05 142.28q-0.1862 0-0.51627-0.14388-0.36393-0.12696-0.53321-0.12696-0.12695 0-0.37239 0.0423-0.25391 0.0508-0.38932 0.0508-0.26237 0-0.76172-0.0508-0.50781-0.0508-0.83789-0.0508-0.6263 0-1.6504 0.11849-1.0326 0.12695-1.6842 0.12695-0.36393 0-0.5332-0.11002-0.16927-0.11849-0.16927-0.52474 0-0.24544 0.14388-0.44857 0.15234-0.21159 0.88867-0.33008 0.73633-0.12695 1.1934-0.12695 0.18619 0 0.5332 0.0423 0.46549 0.0339 1.5911 8e-3 1.1256-0.0339 1.735-0.16927 0.0508-0.0169 0.64323-8e-3 0.60091 8e-3 0.98177 0.29622 0.38932 0.2793 0.38932 0.67708 0 0.72787-0.65169 0.72787zm-2.9707 3.9609h-1.0326l-2.6575 0.0423q-0.13542 0-0.38086-0.35546-0.24544-0.35547-0.24544-0.53321 0-0.2539 0.57552-0.38085 0.57552-0.13542 1.0241-0.13542l2.1244 0.0508q0.26237 0 0.61784-0.0592 0.42317-0.0762 0.99023-0.0762 1.041 0 1.8874 0.20313 0.84636 0.20312 0.84636 0.70247 0 0.23698-0.13542 0.47396-0.13542 0.22851-0.27083 0.22851-0.22005 0-0.79557-0.10156-0.70248-0.10156-1.0749-0.0762-0.3724 0.0169-1.4727 0.0169zm18.447-2.1667h0.34701q1.1256 0 2.1413-0.0339 0.96484-0.0339 1.5488-0.0846 0.86328-0.0846 1.2441-0.0846 1.3203 0 1.3203 0.67708 0 0.66016-0.6263 0.66016l-0.72786 0.0339-1.4388-0.0339q-0.16927 0-0.50781 0.0339t-0.51628 0.0339q-0.60937 0-1.3626 0.0592-0.75325 0.0592-1.1172 0.0592-0.22005 0-0.69401-0.0846t-0.66862-0.0846q-0.20312 0-0.36393-0.21158-0.16081-0.21159-0.16081-0.41472 0-0.0677 0.0846-0.22005 0.0931-0.15234 0.1608-0.22851 0.0677-0.0762 1.3372-0.0762zm19.747 1.1341q-1.168-0.42318-2.8099-0.33008-0.2793 0.96484-0.2793 1.8027l8e-3 0.38086v0.347l8e-3 0.38086q8e-3 0.33008 0 0.44857-8e-3 0.11002 0.22005 0.38932 0.22005 0.27083 0.22005 0.3724 0 0.2539-0.27929 0.55859-0.27084 0.31315-0.52474 0.31315-0.66862 0-0.88867-0.31315-0.22005-0.30469-0.22005-0.92253 0-0.33007 0.0677-1.041 0.0593-0.68554 0.0762-1.0326 0.0338-0.82096 0.20312-1.5827-0.20312-0.0339-0.60091-0.0339-1.8027 0-2.9199 0.29622-1.2187 0.33008-2.2005 0.33008-0.40625 0-0.91406-0.57552 0.38086-1.0495 4.1387-4.0202 1.2018-0.93945 1.9466-1.6165 0.77865-0.7194 1.735-1.4303 0.95638-0.71094 1.1256-0.71094 0.68555 0 0.68555 0.347-0.0593 0.24545-0.48242 1.7604-0.73633 2.8861-0.93099 4.2148 0.55013 0.21159 1.9974 0.21159h0.58398q0.48243 0 0.70248 0.20313 0.22851 0.19466 0.22851 0.83788 0 0.19467-0.15234 0.34701t-0.34701 0.15234q-0.23697 0-0.39778-0.0846zm-3.0723-5.6706q-0.31315 0.31316-1.4388 1.2018-0.93945 0.74479-1.3288 1.1595-0.9056 0.95638-2.4798 2.0905 0 0.12695 0.15235 0.12695 0.33007-0.13541 2.4798-0.27929 1.2103-0.0846 1.7689-0.24545 0.0677-0.54166 0.24544-1.2187 0.60091-2.2852 0.60091-2.8353z"/>
</g>
</g>
</svg>
