<?xml version="1.0" encoding="UTF-8" standalone="no"?>
<!-- Created with Inkscape (http://www.inkscape.org/) -->

<svg
 width="63.294758mm"
 height="30.580847mm"
 viewBox="0 0 63.294758 30.580847"
 version="1.1"
 id="svg8"
 inkscape:version="1.2.2 (1:1.2.2+202305151915+b0a8486541)"
 sodipodi:docname="planning-s22.svg"
 xmlns:inkscape="http://www.inkscape.org/namespaces/inkscape"
 xmlns:sodipodi="http://sodipodi.sourceforge.net/DTD/sodipodi-0.dtd"
 xmlns="http://www.w3.org/2000/svg"
 xmlns:svg="http://www.w3.org/2000/svg"
 xmlns:rdf="http://www.w3.org/1999/02/22-rdf-syntax-ns#"
 xmlns:cc="http://creativecommons.org/ns#"
 xmlns:dc="http://purl.org/dc/elements/1.1/">
<defs
 id="defs2" />
<sodipodi:namedview
 id="base"
 pagecolor="#ffffff"
 bordercolor="#666666"
 borderopacity="1.0"
 inkscape:pageopacity="0.0"
 inkscape:pageshadow="2"
 inkscape:zoom="1.8842183"
 inkscape:cx="132.15029"
 inkscape:cy="233.51859"
 inkscape:document-units="mm"
 inkscape:current-layer="layer1"
 showgrid="false"
 inkscape:snap-intersection-paths="true"
 showguides="false"
 inkscape:guide-bbox="true"
 inkscape:pagecheckerboard="0"
 inkscape:snap-to-guides="false"
 inkscape:snap-text-baseline="true"
 inkscape:snap-smooth-nodes="true"
 inkscape:object-paths="true"
 borderlayer="true"
 inkscape:showpageshadow="false"
 inkscape:deskcolor="#d1d1d1">
<inkscape:grid
 type="xygrid"
 id="grid815"
 spacingx="5"
 spacingy="5"
 empspacing="2"
 originx="-21.044565"
 originy="-14.877939" />
<sodipodi:guide
 position="-11.044566,-251.54121"
 orientation="1,0"
 id="guide817"
 inkscape:locked="false"
 inkscape:label=""
 inkscape:color="rgb(0,0,255)" />
<sodipodi:guide
 position="178.95543,-251.54121"
 orientation="1,0"
 id="guide819"
 inkscape:locked="false"
 inkscape:label=""
 inkscape:color="rgb(0,0,255)" />
<sodipodi:guide
 position="-21.044566,-241.54121"
 orientation="0,1"
 id="guide821"
 inkscape:locked="false"
 inkscape:label=""
 inkscape:color="rgb(0,0,255)" />
<sodipodi:guide
 position="-21.044566,35.458785"
 orientation="0,1"
 id="guide825"
 inkscape:locked="false"
 inkscape:label=""
 inkscape:color="rgb(0,0,255)" />
</sodipodi:namedview>
<metadata
 id="metadata5">
<rdf:RDF>
<cc:Work
 rdf:about="">
<dc:format>image/svg+xml</dc:format>
<dc:type
 rdf:resource="http://purl.org/dc/dcmitype/StillImage" />
</cc:Work>
</rdf:RDF>
</metadata>
<g
 inkscape:label="Calque 1"
 inkscape:groupmode="layer"
 id="layer1"
 transform="translate(-21.044566,-14.877939)">
<path
 id="rect643"
 style="overflow:visible;fill:#ffffff;fill-rule:evenodd;stroke-width:0.300001;stop-color:#000000"
 d="M 54.785362,17.296869 H 84.189323 V 42.39109 H 54.785362 Z" />
<path
 id="rect643-3"
 style="overflow:visible;fill:#ffffff;fill-rule:evenodd;stroke-width:0.300001;stop-color:#000000"
 d="M 21.194567,18.286751 H 52.835144 V 42.89109 H 21.194567 Z" />
<path
 id="rect643-3-6"
 style="overflow:visible;fill:#ffffff;fill-rule:evenodd;stroke-width:0.300001;stop-color:#000000"
 d="M 22.194567,17.286753 H 53.835144 V 41.891092 H 22.194567 Z" />
<path
 id="rect584"
 style="overflow:visible;fill:#ffffff;fill-rule:evenodd;stroke-width:0.300001;stop-color:#000000"
 d="M 54.785362,16.296867 H 83.189325 V 41.39109 H 54.785362 Z" />
<path
 style="font-variation-settings:normal;overflow:visible;opacity:1;vector-effect:none;fill:none;fill-opacity:1;fill-rule:evenodd;stroke:#b3b3b3;stroke-width:0.3;stroke-linecap:round;stroke-linejoin:round;stroke-miterlimit:4;stroke-dasharray:none;stroke-dashoffset:0;stroke-opacity:1;-inkscape-stroke:none;stop-color:#000000;stop-opacity:1"
 d="M 51.800442,42.891092 H 21.194566 v -24.63496"
 id="path9825"
 sodipodi:nodetypes="ccc" />
<path
 style="font-variation-settings:normal;overflow:visible;opacity:1;vector-effect:none;fill:none;fill-opacity:1;fill-rule:evenodd;stroke:#b3b3b3;stroke-width:0.3;stroke-linecap:round;stroke-linejoin:round;stroke-miterlimit:4;stroke-dasharray:none;stroke-dashoffset:0;stroke-opacity:1;-inkscape-stroke:none;stop-color:#000000;stop-opacity:1"
 d="m 84.189322,17.256132 v 25.13496 h -28.12199"
 id="path9754" />
<path
 style="font-variation-settings:normal;overflow:visible;opacity:1;vector-effect:none;fill:none;fill-opacity:1;fill-rule:evenodd;stroke:#b3b3b3;stroke-width:0.3;stroke-linecap:round;stroke-linejoin:round;stroke-miterlimit:4;stroke-dasharray:none;stroke-dashoffset:0;stroke-opacity:1;-inkscape-stroke:none;stop-color:#000000;stop-opacity:1"
 d="M 51.854002,41.891092 H 22.194566 v -24.63496"
 id="path9829"
 sodipodi:nodetypes="ccc" />
<path
 style="font-variation-settings:normal;overflow:visible;opacity:1;vector-effect:none;fill:none;fill-opacity:1;fill-rule:evenodd;stroke:#b3b3b3;stroke-width:0.3;stroke-linecap:round;stroke-linejoin:round;stroke-miterlimit:4;stroke-dasharray:none;stroke-dashoffset:0;stroke-opacity:1;-inkscape-stroke:none;stop-color:#000000;stop-opacity:1"
 d="m 83.189322,16.256132 v 25.13496 h -27.03411"
 id="rect9531" />
<path
 id="path7114"
 style="font-variation-settings:normal;overflow:visible;opacity:1;vector-effect:none;fill:#ffffff;fill-opacity:1;fill-rule:evenodd;stroke:#4d4d4d;stroke-width:0.3;stroke-linecap:butt;stroke-linejoin:miter;stroke-miterlimit:4;stroke-dasharray:none;stroke-dashoffset:0;stroke-opacity:1;-inkscape-stroke:none;stop-color:#000000;stop-opacity:1"
 d="m 23.194566,16.256142 c 2.521696,0 26.516346,-0.93945 29.654976,0.87264 c 2.7945,-2.7945 24.43287,-0.73325 29.32935,-2.05543 l 0.2093,23.74208 c -5.84707,3.37581 -22.09734,-0.0411 -29.53865,2.85135 c -0.76745,-0.52999 -22.08712,-1.02358 -29.502796,-0.62327 z"
 sodipodi:nodetypes="ccccccc" />
<path
 d="m 56.866712,21.476872 c 7.24956,-0.86322 21.46053,0.19028 25.31218,-0.84977"
 style="font-variation-settings:normal;overflow:visible;opacity:1;vector-effect:none;fill:none;fill-opacity:1;fill-rule:evenodd;stroke:none;stroke-width:0.3;stroke-linecap:butt;stroke-linejoin:miter;stroke-miterlimit:4;stroke-dasharray:none;stroke-dashoffset:0;stroke-opacity:1;-inkscape-stroke:none;stop-color:#000000;stop-opacity:1"
 id="path7116"
 sodipodi:nodetypes="cc" />
<path
 d="m 56.872542,26.476172 c 7.25135,-0.86196 21.45573,0.1907 25.30635,-0.84907"
 style="font-variation-settings:normal;overflow:visible;opacity:1;vector-effect:none;fill:none;fill-opacity:1;fill-rule:evenodd;stroke:none;stroke-width:0.3;stroke-linecap:butt;stroke-linejoin:miter;stroke-miterlimit:4;stroke-dasharray:none;stroke-dashoffset:0;stroke-opacity:1;-inkscape-stroke:none;stop-color:#000000;stop-opacity:1"
 id="path7118"
 sodipodi:nodetypes="cc" />
<path
 d="m 56.828192,32.813702 c 8.20509,-1.07051 20.6102,0.93963 25.56,-1.91814"
 style="font-variation-settings:normal;overflow:visible;opacity:1;vector-effect:none;fill:none;fill-opacity:1;fill-rule:evenodd;stroke:none;stroke-width:0.3;stroke-linecap:butt;stroke-linejoin:miter;stroke-miterlimit:4;stroke-dasharray:none;stroke-dashoffset:0;stroke-opacity:1;-inkscape-stroke:none;stop-color:#000000;stop-opacity:1"
 id="path7120"
 sodipodi:nodetypes="cc" />
<path
 d="m 56.882772,37.806632 c 8.20543,-1.05456 20.56658,0.94037 25.50542,-1.91107"
 style="font-variation-settings:normal;overflow:visible;opacity:1;vector-effect:none;fill:none;fill-opacity:1;fill-rule:evenodd;stroke:none;stroke-width:0.3;stroke-linecap:butt;stroke-linejoin:miter;stroke-miterlimit:4;stroke-dasharray:none;stroke-dashoffset:0;stroke-opacity:1;-inkscape-stroke:none;stop-color:#000000;stop-opacity:1"
 id="path7122"
 sodipodi:nodetypes="cc" />
<path
 d="m 27.169662,38.005952 c 9.14246,-0.14416 25.01952,0.28494 25.67988,0.74096"
 style="font-variation-settings:normal;overflow:visible;opacity:1;vector-effect:none;fill:none;fill-opacity:1;fill-rule:evenodd;stroke:none;stroke-width:0.3;stroke-linecap:butt;stroke-linejoin:miter;stroke-miterlimit:4;stroke-dasharray:none;stroke-dashoffset:0;stroke-opacity:1;-inkscape-stroke:none;stop-color:#000000;stop-opacity:1"
 id="path7124"
 sodipodi:nodetypes="cc" />
<path
 d="m 27.194562,26.701242 c 7.62152,-0.18305 23.18953,-0.47381 25.67532,0.96136"
 style="font-variation-settings:normal;overflow:visible;opacity:1;vector-effect:none;fill:none;fill-opacity:1;fill-rule:evenodd;stroke:none;stroke-width:0.3;stroke-linecap:butt;stroke-linejoin:miter;stroke-miterlimit:4;stroke-dasharray:none;stroke-dashoffset:0;stroke-opacity:1;-inkscape-stroke:none;stop-color:#000000;stop-opacity:1"
 id="path7128"
 sodipodi:nodetypes="cc" />
<path
 style="font-variation-settings:normal;opacity:1;vector-effect:none;fill:#ffffff;fill-opacity:1;fill-rule:evenodd;stroke:#4d4d4d;stroke-width:0.3;stroke-linecap:butt;stroke-linejoin:miter;stroke-miterlimit:4;stroke-dasharray:none;stroke-dashoffset:0;stroke-opacity:1;-inkscape-stroke:none;stop-color:#000000;stop-opacity:1"
 d="m 52.849542,17.468722 v 24.13104"
 id="path7138"
 sodipodi:nodetypes="cc" />
<g
 aria-label=" FÉRIÉ"
 id="text7158"
 style="font-weight:bold;font-size:4.23333px;line-height:4.0246px;font-family:'Courier New';-inkscape-font-specification:'Courier New Bold';letter-spacing:0.264583px;word-spacing:0.529167px;baseline-shift:baseline;opacity:1;vector-effect:none;fill:#333333;stroke-width:0.999999px;stop-color:#000000;stop-opacity:1">
<path
 d="m 31.481036,25.566663 l 0.01046,0.620028 l 0.43402,-0.0073 q 0.15294,-0.0026 0.21802,0.05628 q 0.06711,0.05675 0.06872,0.151825 q 0.0016,0.093 -0.06356,0.154055 q -0.06309,0.05895 -0.216035,0.06153 l -0.923842,0.01558 q -0.15294,0.0026 -0.220053,-0.05418 q -0.06508,-0.05886 -0.06668,-0.153927 q -0.0016,-0.093 0.06359,-0.151989 q 0.06513,-0.06105 0.215999,-0.0636 l 0.06614,-0.0011 l -0.02795,-1.657543 l -0.06614,0.0011 q -0.15294,0.0026 -0.220053,-0.05418 q -0.06508,-0.05886 -0.06668,-0.153927 q -0.0016,-0.09507 0.06149,-0.154021 q 0.06513,-0.06105 0.218066,-0.06363 l 1.99446,-0.03157 l 0.01091,0.646897 q 0.0025,0.150873 -0.05628,0.21802 q -0.05679,0.06505 -0.15186,0.06665 q -0.093,0.0016 -0.154021,-0.06149 q -0.05895,-0.06309 -0.06153,-0.216035 l -0.0038,-0.22321 l -1.080917,0.01823 l 0.01035,0.613829 l 0.372017,-0.0063 q -0.0028,-0.165341 0.02741,-0.213399 q 0.06236,-0.102352 0.180168,-0.104339 q 0.093,-0.0016 0.151989,0.06359 q 0.06102,0.06306 0.06359,0.215999 l 0.0082,0.487756 q 0.0026,0.15294 -0.05624,0.220087 q -0.05679,0.06505 -0.15186,0.06665 q -0.115739,0.002 -0.181516,-0.09824 q -0.0318,-0.04701 -0.03463,-0.214421 z"
 id="path462" />
<path
 d="m 34.151593,25.52521 l 0.0066,0.622149 l 1.08101,-0.0114 l -0.0024,-0.22943 q -0.0016,-0.152954 0.05559,-0.217639 q 0.05924,-0.06677 0.154323,-0.06778 q 0.09301,-9.81e-4 0.151584,0.06455 q 0.06062,0.06344 0.06223,0.216397 l 0.0069,0.653153 l -1.994598,0.02103 q -0.152954,0.0016 -0.219706,-0.05556 q -0.06471,-0.05927 -0.06571,-0.154345 q -9.8e-4,-0.09301 0.06455,-0.151584 q 0.06551,-0.06064 0.216396,-0.06223 l 0.06614,-6.97e-4 l -0.01748,-1.657686 l -0.06614,6.97e-4 q -0.152953,0.0016 -0.219706,-0.05556 q -0.06471,-0.05927 -0.06571,-0.154345 q -0.001,-0.09508 0.06246,-0.15363 q 0.06551,-0.06064 0.218464,-0.06225 l 1.901607,-0.01798 l 0.0068,0.644886 q 0.0016,0.150887 -0.05559,0.217639 q -0.0572,0.06469 -0.152278,0.06569 q -0.09508,0.001 -0.155696,-0.06244 q -0.05855,-0.06347 -0.06016,-0.216419 l -0.0023,-0.221162 l -0.987998,0.01042 l 0.0065,0.611815 l 0.372049,-0.0039 q -0.0017,-0.165355 0.02876,-0.213222 q 0.06301,-0.101955 0.180823,-0.103197 q 0.09301,-9.81e-4 0.151584,0.06455 q 0.06062,0.06344 0.06223,0.216397 l 0.0051,0.487798 q 0.0015,0.138485 -0.03111,0.186373 q -0.06512,0.09784 -0.176733,0.09902 q -0.117815,0.0012 -0.182958,-0.09936 q -0.03151,-0.04721 -0.03327,-0.214635 z m 0.729528,-2.174087 l -0.461073,0.383154 q -0.06969,0.05655 -0.117228,0.05705 q -0.05787,6.1e-4 -0.09963,-0.03823 q -0.03969,-0.03886 -0.0403,-0.09673 q -6.97e-4,-0.06614 0.08128,-0.133156 l 0.463141,-0.383175 q 0.06969,-0.05655 0.117227,-0.05705 q 0.05787,-6.1e-4 0.09756,0.03825 q 0.04175,0.03884 0.04234,0.09464 q 7.2e-4,0.06821 -0.08333,0.135244 z"
 id="path464" />
<path
 d="m 36.966444,25.591571 l 0.0013,0.533298 l 0.152962,-3.81e-4 q 0.152962,-3.81e-4 0.217189,0.0594 q 0.06629,0.05771 0.06653,0.152797 q 2.32e-4,0.09302 -0.06576,0.153126 q -0.06393,0.05804 -0.216896,0.05842 l -0.642852,0.0016 q -0.152961,3.81e-4 -0.219251,-0.05733 q -0.06423,-0.05978 -0.06447,-0.154869 q -2.32e-4,-0.09302 0.06577,-0.151059 q 0.066,-0.06011 0.216891,-0.06048 l 0.06614,-1.65e-4 l -0.0041,-1.657773 l -0.06615,1.64e-4 q -0.152962,3.81e-4 -0.219252,-0.05733 q -0.06423,-0.05979 -0.06446,-0.154869 q -2.37e-4,-0.09508 0.0637,-0.153121 q 0.066,-0.06011 0.218958,-0.06049 l 0.959116,-3.22e-4 q 0.44855,-0.0011 0.695085,0.221511 q 0.248597,0.220557 0.24939,0.538882 q 4.94e-4,0.198437 -0.114854,0.362022 q -0.115353,0.161518 -0.348616,0.28819 q 0.134652,0.117487 0.288072,0.301074 q 0.09538,0.117585 0.257231,0.367296 q 0.16123,-4.02e-4 0.212988,0.03254 q 0.09318,0.06385 0.09346,0.179602 q 2.32e-4,0.09302 -0.0637,0.153121 q -0.06394,0.05804 -0.216896,0.05842 l -0.241845,6.03e-4 q -0.516678,-0.794532 -0.856075,-0.954918 z m -0.0011,-0.423745 l 0.330728,-8.24e-4 q 0.183967,-4.58e-4 0.328522,-0.05663 q 0.194117,-0.0749 0.260057,-0.157745 q 0.06801,-0.08285 0.0678,-0.163467 q -2.98e-4,-0.119888 -0.128708,-0.220855 q -0.128414,-0.103033 -0.374393,-0.10242 l -0.485756,0.0012 z"
 id="path466" />
<path
 d="m 40.443108,24.47453 l -0.01332,1.657725 l 0.427867,0.0034 q 0.152957,0.0012 0.216552,0.06169 q 0.06568,0.05841 0.06491,0.153488 q -7.47e-4,0.09302 -0.06737,0.152426 q -0.06454,0.05736 -0.217499,0.05613 l -1.279466,-0.01028 q -0.152957,-0.0012 -0.218636,-0.05964 q -0.06359,-0.06046 -0.06283,-0.155539 q 7.47e-4,-0.09301 0.06529,-0.150375 q 0.06663,-0.05941 0.219583,-0.05818 l 0.427866,0.0034 l 0.01332,-1.657725 l -0.427867,-0.0034 q -0.152957,-0.0012 -0.218636,-0.05964 q -0.06359,-0.06046 -0.06283,-0.155539 q 7.65e-4,-0.09508 0.06531,-0.152443 q 0.06663,-0.05941 0.219583,-0.05818 l 1.279449,0.01235 q 0.152957,0.0012 0.216569,0.05962 q 0.06568,0.05841 0.06491,0.153489 q -7.65e-4,0.09508 -0.06739,0.154492 q -0.06454,0.05736 -0.217499,0.05613 z"
 id="path468" />
<path
 d="m 42.606813,25.53998 l -0.01405,0.622025 l 1.080794,0.02442 l 0.0052,-0.229385 q 0.0035,-0.152923 0.06276,-0.215678 q 0.06142,-0.06477 0.156484,-0.06263 q 0.09299,0.0021 0.149362,0.06954 q 0.05848,0.06542 0.05503,0.218339 l -0.01475,0.653023 l -1.9942,-0.04506 q -0.152923,-0.0035 -0.217744,-0.06281 q -0.06271,-0.06138 -0.06056,-0.156437 q 0.0021,-0.09299 0.06954,-0.149362 q 0.06748,-0.05843 0.21834,-0.05503 l 0.06613,0.0015 l 0.03745,-1.657355 l -0.06613,-0.0015 q -0.152923,-0.0035 -0.217745,-0.06281 q -0.06271,-0.06138 -0.06056,-0.156437 q 0.0021,-0.09506 0.06752,-0.151476 q 0.06748,-0.05843 0.220406,-0.05498 l 1.901159,0.04502 l -0.01457,0.644757 q -0.0034,0.150856 -0.06276,0.215678 q -0.05931,0.06275 -0.154371,0.06061 q -0.09506,-0.0021 -0.153542,-0.06756 q -0.05642,-0.06537 -0.05296,-0.218293 l 0.005,-0.221119 l -0.9878,-0.02232 l -0.01382,0.611693 l 0.371975,0.0084 q 0.0037,-0.165322 0.03581,-0.212152 q 0.06635,-0.09981 0.184142,-0.09715 q 0.09299,0.0021 0.149362,0.06954 q 0.05848,0.06542 0.05503,0.21834 l -0.01102,0.4877 q -0.0031,0.138458 -0.03727,0.185241 q -0.06832,0.09563 -0.179916,0.09311 q -0.117792,-0.0027 -0.179567,-0.105368 q -0.02992,-0.04823 -0.02614,-0.21562 z m 0.801148,-2.148726 l -0.473513,0.367669 q -0.07152,0.05421 -0.119053,0.05314 q -0.05786,-0.0013 -0.09831,-0.04151 q -0.03838,-0.04015 -0.03707,-0.09801 q 0.0015,-0.06613 0.08565,-0.13039 l 0.475579,-0.367623 q 0.07152,-0.05421 0.119053,-0.05314 q 0.05786,0.0013 0.09624,0.04146 q 0.04044,0.0402 0.03918,0.09599 q -0.0015,0.06819 -0.08776,0.13241 z"
 id="path470" />
</g>
<g
 aria-label=" ??:??"
 id="text7164"
 style="font-weight:bold;font-size:4.23333px;line-height:4.0246px;font-family:'Courier New';-inkscape-font-specification:'Courier New Bold';letter-spacing:0.264583px;word-spacing:0.529167px;baseline-shift:baseline;opacity:1;vector-effect:none;fill:#333333;stroke-width:0.999999px;stop-color:#000000;stop-opacity:1">
<path
 d="m 31.981894,37.000739 q -0.0126,0.119868 -0.07058,0.175581 q -0.0559,0.05365 -0.142717,0.0535 q -0.09302,-1.57e-4 -0.152854,-0.06434 q -0.05777,-0.06624 -0.05751,-0.219205 l 3.99e-4,-0.237711 q 0.502617,-0.191392 0.606144,-0.29457 q 0.103526,-0.103179 0.103707,-0.210666 q 2.54e-4,-0.150895 -0.121518,-0.260654 q -0.119705,-0.109755 -0.34088,-0.110127 q -0.233577,-3.93e-4 -0.450798,0.106729 l -1.04e-4,0.06201 q -2.54e-4,0.150895 -0.06031,0.21694 q -0.05799,0.06398 -0.153069,0.06382 q -0.09302,-1.56e-4 -0.152855,-0.06434 q -0.05777,-0.06418 -0.05751,-0.217138 l 5.73e-4,-0.341063 q 0.324785,-0.152417 0.504702,-0.201723 q 0.179917,-0.04931 0.372153,-0.04898 q 0.401008,6.74e-4 0.642464,0.232591 q 0.241456,0.231916 0.240868,0.581248 q -4.17e-4,0.248046 -0.147469,0.421432 q -0.144986,0.173389 -0.56284,0.356655 z m 0.08751,0.818702 q -1.63e-4,0.09715 -0.07055,0.159045 q -0.06831,0.05983 -0.229544,0.05956 q -0.16123,-2.71e-4 -0.231409,-0.06033 q -0.06811,-0.06213 -0.06795,-0.159278 q 1.63e-4,-0.09715 0.06848,-0.156981 q 0.06832,-0.0619 0.231614,-0.06162 q 0.16123,2.71e-4 0.229339,0.0624 q 0.07018,0.06006 0.07001,0.157214 z"
 id="path451" />
<path
 d="m 34.80043,37.017569 q -0.01346,0.119774 -0.07183,0.175071 q -0.05628,0.05325 -0.143097,0.05248 q -0.09301,-8.22e-4 -0.152389,-0.06543 q -0.05729,-0.06665 -0.05594,-0.219611 l 0.0021,-0.237702 q 0.503975,-0.187787 0.608237,-0.290222 q 0.104263,-0.102434 0.105213,-0.209917 q 0.0013,-0.150889 -0.119648,-0.261517 q -0.118916,-0.11061 -0.340082,-0.112566 q -0.233568,-0.0021 -0.451551,0.103498 l -5.48e-4,0.06201 q -0.0013,0.150889 -0.06186,0.216502 q -0.05844,0.06356 -0.153523,0.06272 q -0.09301,-8.23e-4 -0.152389,-0.06543 q -0.05731,-0.06459 -0.05596,-0.217544 l 0.003,-0.341051 q 0.325868,-0.150086 0.506133,-0.198103 q 0.180265,-0.04802 0.372494,-0.04632 q 0.400993,0.0035 0.640782,0.237186 q 0.239789,0.23364 0.2367,0.582959 q -0.0022,0.248037 -0.150484,0.420365 q -0.146224,0.172346 -0.56538,0.352615 z m 0.08164,0.819308 q -8.59e-4,0.09715 -0.07169,0.158535 q -0.06874,0.05934 -0.229964,0.05791 q -0.161224,-0.0014 -0.230971,-0.06199 q -0.06766,-0.06261 -0.0668,-0.15976 q 8.59e-4,-0.09715 0.0696,-0.156487 q 0.06876,-0.06141 0.232049,-0.05996 q 0.161224,0.0014 0.228886,0.06404 q 0.06975,0.06056 0.06889,0.157712 z"
 id="path453" />
<path
 d="m 37.728007,36.438381 q -0.0018,0.119876 -0.08776,0.199205 q -0.08595,0.07933 -0.234765,0.07709 q -0.148811,-0.0022 -0.232336,-0.08413 q -0.08353,-0.08188 -0.08172,-0.201758 q 0.0018,-0.119876 0.08776,-0.199205 q 0.08595,-0.07933 0.234765,-0.07709 q 0.148811,0.0022 0.232337,0.08413 q 0.08353,0.08188 0.08172,0.201758 z m -0.01676,1.386899 q -0.0018,0.119876 -0.08776,0.199205 q -0.08595,0.07933 -0.234765,0.07709 q -0.148811,-0.0022 -0.232336,-0.08412 q -0.08353,-0.08188 -0.08172,-0.201759 q 0.0018,-0.119875 0.08776,-0.199205 q 0.08595,-0.07933 0.234765,-0.07709 q 0.148811,0.0022 0.232336,0.08413 q 0.08353,0.08188 0.08172,0.201758 z"
 id="path455" />
<path
 d="m 40.431146,37.104935 q -0.01493,0.119601 -0.07397,0.174178 q -0.05693,0.05255 -0.143729,0.05072 q -0.093,-0.002 -0.151576,-0.06729 q -0.05647,-0.06735 -0.05324,-0.220281 l 0.005,-0.237658 q 0.50624,-0.181592 0.611751,-0.282741 q 0.105511,-0.101148 0.107779,-0.208611 q 0.0032,-0.150861 -0.116432,-0.262965 q -0.11755,-0.11206 -0.338676,-0.116728 q -0.233525,-0.0049 -0.452786,0.09795 l -0.0013,0.062 q -0.0032,0.150862 -0.06451,0.215728 q -0.05922,0.06284 -0.15428,0.06084 q -0.093,-0.002 -0.151576,-0.06729 q -0.05651,-0.06529 -0.05328,-0.218214 l 0.0072,-0.340988 q 0.327684,-0.146079 0.508525,-0.191882 q 0.180841,-0.0458 0.373034,-0.04174 q 0.40092,0.0085 0.637825,0.245026 q 0.236906,0.236563 0.229533,0.585818 q -0.0052,0.247991 -0.155628,0.418488 q -0.148327,0.17054 -0.569662,0.345654 z m 0.07159,0.820248 q -0.0021,0.09713 -0.07362,0.157644 q -0.06946,0.05849 -0.230657,0.05509 q -0.161194,-0.0034 -0.230193,-0.06482 q -0.06689,-0.06344 -0.06484,-0.160568 q 0.0021,-0.09713 0.07151,-0.155621 q 0.06951,-0.06056 0.232767,-0.05711 q 0.161194,0.0034 0.228083,0.06684 q 0.069,0.06141 0.06695,0.158545 z"
 id="path457" />
<path
 d="m 43.239272,37.174592 q -0.01572,0.1195 -0.07512,0.173685 q -0.05728,0.05217 -0.144062,0.04977 q -0.09298,-0.0026 -0.151127,-0.06829 q -0.05602,-0.06772 -0.05178,-0.220628 l 0.0066,-0.23762 q 0.507431,-0.178239 0.613609,-0.278688 q 0.106177,-0.100448 0.109157,-0.207893 q 0.0042,-0.150837 -0.11469,-0.26373 q -0.116806,-0.112835 -0.337896,-0.118966 q -0.233488,-0.0065 -0.453425,0.09495 l -0.0017,0.06199 q -0.0042,0.150837 -0.06594,0.215296 q -0.05963,0.06245 -0.15468,0.05981 q -0.09298,-0.0026 -0.151127,-0.06829 q -0.05608,-0.06566 -0.05184,-0.218561 l 0.0095,-0.340933 q 0.328643,-0.143908 0.509783,-0.188513 q 0.18114,-0.04461 0.373302,-0.03928 q 0.400855,0.01112 0.63619,0.249241 q 0.235335,0.238125 0.225652,0.587323 q -0.0069,0.247952 -0.158393,0.417449 q -0.149452,0.169555 -0.571936,0.341878 z m 0.06616,0.820704 q -0.0027,0.09711 -0.07466,0.157154 q -0.06985,0.05803 -0.231016,0.05356 q -0.161169,-0.0045 -0.22976,-0.06634 q -0.06647,-0.06388 -0.06377,-0.160993 q 0.0027,-0.09711 0.07254,-0.155145 q 0.0699,-0.0601 0.23314,-0.05557 q 0.161168,0.0045 0.227636,0.06835 q 0.06859,0.06187 0.0659,0.158984 z"
 id="path459" />
</g>
<g
 aria-label=" 13:30"
 id="text7176"
 style="font-weight:bold;font-size:4.23333px;line-height:4.0246px;font-family:'Courier New';-inkscape-font-specification:'Courier New Bold';letter-spacing:0.264583px;word-spacing:0.529167px;baseline-shift:baseline;opacity:1;vector-effect:none;fill:#333333;stroke-width:0.999999px;stop-color:#000000;stop-opacity:1">
<path
 d="m 61.591046,23.421627 l 0.07527,2.318015 l 0.427655,-0.01389 q 0.152882,-0.005 0.218872,0.05287 q 0.06799,0.0557 0.07107,0.150734 q 0.003,0.09297 -0.06115,0.155029 q -0.06217,0.05993 -0.215049,0.06489 l -1.278833,0.04153 q -0.152881,0.005 -0.220871,-0.05074 q -0.06599,-0.05783 -0.06908,-0.152868 q -0.003,-0.09297 0.05915,-0.152895 q 0.06417,-0.06206 0.217047,-0.06702 l 0.427655,-0.01389 l -0.05736,-1.766401 l -0.374851,0.111443 q -0.0901,0.02774 -0.135549,0.02922 q -0.08057,0.0026 -0.142566,-0.05948 q -0.05993,-0.06217 -0.06294,-0.155135 q -0.0028,-0.0847 0.03909,-0.133631 q 0.04178,-0.05099 0.178987,-0.09267 z"
 id="path440" />
<path
 d="m 64.853166,24.691707 q 0.189459,0.126142 0.284281,0.294638 q 0.0948,0.166429 0.09703,0.37519 q 0.0024,0.225296 -0.119559,0.418845 q -0.119919,0.19146 -0.352424,0.293167 q -0.232527,0.09964 -0.610776,0.103677 q -0.491932,0.0053 -0.741597,-0.145054 q -0.139412,-0.08533 -0.140691,-0.205215 q -9.71e-4,-0.09095 0.05831,-0.153593 q 0.06132,-0.06474 0.148135,-0.06566 q 0.05994,-6.4e-4 0.124458,0.04002 q 0.09161,0.06104 0.172438,0.08085 q 0.124326,0.02761 0.341354,0.0253 q 0.369982,-0.004 0.534322,-0.100794 q 0.164318,-0.09891 0.162442,-0.274601 q -0.0014,-0.130217 -0.09982,-0.249063 q -0.09638,-0.120934 -0.258308,-0.185355 q -0.09341,-0.03621 -0.314726,-0.04832 q -0.10548,-0.0051 -0.163972,-0.06233 q -0.05645,-0.05935 -0.05737,-0.146157 q -9.71e-4,-0.09095 0.06038,-0.153615 q 0.06135,-0.06267 0.156425,-0.06369 q 0.210828,-0.0023 0.225274,-0.0045 q 0.08259,-0.0092 0.164782,-0.05551 q 0.08219,-0.04636 0.13096,-0.125429 q 0.05081,-0.08116 0.04991,-0.165906 q -0.0014,-0.134351 -0.122354,-0.230218 q -0.118875,-0.09795 -0.356572,-0.09542 q -0.305907,0.0033 -0.465231,0.182743 q -0.04699,0.05218 -0.07577,0.06696 q -0.04316,0.0232 -0.0969,0.02377 q -0.08681,9.27e-4 -0.149481,-0.06042 q -0.06267,-0.06135 -0.06364,-0.152292 q -0.0015,-0.142618 0.187201,-0.278999 q 0.274874,-0.199316 0.690328,-0.203752 q 0.392718,-0.0042 0.632799,0.2165 q 0.240081,0.220691 0.243435,0.534866 q 0.0017,0.163288 -0.06701,0.306657 q -0.06877,0.141302 -0.208047,0.262685 z"
 id="path442" />
<path
 d="m 67.395472,24.509491 q -1.04e-4,0.119889 -0.08492,0.200431 q -0.08482,0.08054 -0.233647,0.08041 q -0.148828,-1.29e-4 -0.233507,-0.08082 q -0.08468,-0.08069 -0.08458,-0.200577 q 1.04e-4,-0.119889 0.08492,-0.200431 q 0.08482,-0.08054 0.233647,-0.08041 q 0.148827,1.29e-4 0.233507,0.08082 q 0.08468,0.08069 0.08458,0.200578 z m 0.0029,1.386997 q -1.03e-4,0.119889 -0.08492,0.200431 q -0.08482,0.08054 -0.233647,0.08041 q -0.148828,-1.29e-4 -0.233508,-0.08082 q -0.08468,-0.08069 -0.08458,-0.200578 q 1.03e-4,-0.119889 0.08492,-0.200431 q 0.08482,-0.08054 0.233647,-0.08041 q 0.148828,1.29e-4 0.233508,0.08082 q 0.08468,0.08069 0.08458,0.200578 z"
 id="path444" />
<path
 d="m 70.49486,24.700604 q 0.187454,0.129104 0.279616,0.299069 q 0.09217,0.167898 0.09112,0.376668 q -0.0011,0.225306 -0.126125,0.416915 q -0.122913,0.189552 -0.356988,0.287592 q -0.234063,0.09597 -0.61233,0.09407 q -0.491953,-0.0025 -0.739226,-0.156689 q -0.138053,-0.08751 -0.137449,-0.2074 q 4.58e-4,-0.09095 0.06072,-0.152659 q 0.06233,-0.06377 0.149149,-0.06333 q 0.05994,3.02e-4 0.123813,0.04197 q 0.09064,0.06247 0.171147,0.08355 q 0.123876,0.02956 0.340914,0.03066 q 0.369998,0.0019 0.53584,-0.09239 q 0.165851,-0.09632 0.166737,-0.272014 q 6.56e-4,-0.130223 -0.09589,-0.2506 q -0.09447,-0.122434 -0.255363,-0.189391 q -0.09283,-0.03768 -0.313929,-0.05326 q -0.105387,-0.0067 -0.162972,-0.0649 q -0.05551,-0.06022 -0.05507,-0.14704 q 4.58e-4,-0.09095 0.06278,-0.152648 q 0.06232,-0.0617 0.157407,-0.06122 q 0.210837,0.0011 0.225317,-9.32e-4 q 0.08272,-0.0079 0.165633,-0.05291 q 0.08291,-0.04506 0.132914,-0.123355 q 0.05208,-0.08035 0.05251,-0.165102 q 6.77e-4,-0.134357 -0.118721,-0.232111 q -0.117321,-0.09981 -0.355029,-0.101009 q -0.30592,-0.0015 -0.468044,0.175411 q -0.0478,0.05144 -0.07681,0.06576 q -0.04352,0.02252 -0.09727,0.02225 q -0.08682,-4.37e-4 -0.148513,-0.06276 q -0.0617,-0.06232 -0.06124,-0.153273 q 7.18e-4,-0.142625 0.191562,-0.276024 q 0.277971,-0.194972 0.693444,-0.192879 q 0.392736,0.002 0.629319,0.226416 q 0.236584,0.224437 0.235001,0.538625 q -8.23e-4,0.163296 -0.07182,0.305567 q -0.07099,0.140203 -0.212149,0.259383 z"
 id="path446" />
<path
 d="m 73.614044,24.554849 l -9.53e-4,0.465087 q -8.48e-4,0.41341 -0.241401,0.791189 q -0.238486,0.377783 -0.682902,0.376872 q -0.256315,-5.26e-4 -0.433852,-0.112511 q -0.175467,-0.114048 -0.334011,-0.416164 q -0.156473,-0.304178 -0.155778,-0.643175 l 9.54e-4,-0.465086 q 8.43e-4,-0.411343 0.239329,-0.789126 q 0.238491,-0.37985 0.682907,-0.378939 q 0.254247,5.21e-4 0.429718,0.112502 q 0.177537,0.111985 0.336077,0.416168 q 0.160612,0.30212 0.159912,0.643183 z m -0.425812,-8.73e-4 q 7.07e-4,-0.345197 -0.190999,-0.603973 q -0.109261,-0.142851 -0.307698,-0.143258 q -0.192236,-3.94e-4 -0.314514,0.156452 q -0.184455,0.237334 -0.185175,0.588733 l -9.53e-4,0.465086 q -7.12e-4,0.347265 0.193065,0.603977 q 0.107194,0.142847 0.307698,0.143258 q 0.190169,3.9e-4 0.312447,-0.156456 q 0.184455,-0.237334 0.185175,-0.588732 z"
 id="path448" />
</g>
<g
 aria-label="Ven 2 juin"
 id="text7182"
 style="font-size:3.52777px;line-height:3.35383px;font-family:'Arial Black';-inkscape-font-specification:'Arial Black, ';letter-spacing:0.132292px;word-spacing:0.264583px;baseline-shift:baseline;opacity:1;vector-effect:none;fill:#e62e6c;stroke-width:0.999999px;stop-color:#000000;stop-opacity:1">
<path
 d="m 56.605975,30.273259 l 0.813201,-0.07317 l 0.72901,1.75903 l 0.394717,-1.860141 l 0.789182,-0.07101 l -0.706991,2.599065 l -0.842366,0.07579 z"
 style="baseline-shift:baseline;vector-effect:none;stop-color:#000000;stop-opacity:1"
 id="path423" />
<path
 d="m 61.90762,31.732513 l -1.404759,0.04847 q 0.02476,0.168056 0.09991,0.248194 q 0.105669,0.11528 0.269213,0.109636 q 0.103291,-0.0036 0.194471,-0.05842 q 0.05568,-0.03467 0.118248,-0.11956 l 0.692527,0.03988 q -0.148875,0.280909 -0.368514,0.409138 q -0.219699,0.126507 -0.638028,0.140942 q -0.363241,0.01253 -0.57505,-0.08185 q -0.211868,-0.0961 -0.357252,-0.313427 q -0.143723,-0.219105 -0.154118,-0.520371 q -0.01479,-0.428658 0.249781,-0.703217 q 0.266295,-0.274619 0.750042,-0.291312 q 0.392507,-0.01354 0.623846,0.0974 q 0.231339,0.110943 0.357906,0.332364 q 0.126567,0.22142 0.139042,0.582939 z M 61.183328,31.42141 q -0.02767,-0.202427 -0.120217,-0.287135 q -0.09083,-0.08477 -0.235435,-0.07978 q -0.166987,0.0058 -0.262261,0.141764 q -0.06085,0.08483 -0.07242,0.24897 z"
 style="baseline-shift:baseline;vector-effect:none;stop-color:#000000;stop-opacity:1"
 id="path425" />
<path
 d="m 62.377794,30.640916 l 0.652836,-0.0035 l 0.0016,0.297996 q 0.145449,-0.183361 0.294898,-0.261667 q 0.149441,-0.08003 0.364756,-0.08117 q 0.291105,-0.0015 0.455665,0.17157 q 0.166272,0.171378 0.168184,0.533108 l 0.0061,1.1627 l -0.704511,0.0037 l -0.0053,-1.005952 q -9.11e-4,-0.172252 -0.06502,-0.242539 q -0.06412,-0.07201 -0.179525,-0.0714 q -0.127466,6.73e-4 -0.206192,0.09755 q -0.07873,0.09688 -0.07741,0.346646 l 0.0046,0.878485 l -0.701066,0.0037 z"
 style="baseline-shift:baseline;vector-effect:none;stop-color:#000000;stop-opacity:1"
 id="path427" />
<path
 d="m 68.43329,32.504846 l -2.104791,-0.02578 q 0.03999,-0.311314 0.225918,-0.582942 q 0.187673,-0.27333 0.696918,-0.640914 q 0.311118,-0.225306 0.398694,-0.343098 q 0.08758,-0.117792 0.08888,-0.224581 q 0.0014,-0.115402 -0.08372,-0.19741 q -0.08339,-0.08371 -0.212567,-0.08529 q -0.134348,-0.0016 -0.221502,0.0817 q -0.08543,0.08336 -0.117329,0.296586 l -0.702049,-0.06545 q 0.04497,-0.295749 0.157225,-0.459751 q 0.112281,-0.165724 0.313157,-0.251121 q 0.202619,-0.0871 0.557436,-0.08275 q 0.37032,0.0045 0.574253,0.09144 q 0.205657,0.08693 0.320629,0.26405 q 0.116717,0.175419 0.114059,0.392443 q -0.0028,0.230804 -0.14147,0.439272 q -0.136922,0.20849 -0.496541,0.455596 q -0.21365,0.143811 -0.286709,0.201487 q -0.07134,0.0577 -0.168951,0.151249 l 1.095456,0.01342 z"
 style="baseline-shift:baseline;vector-effect:none;stop-color:#000000;stop-opacity:1"
 id="path429" />
<path
 d="m 70.537997,29.999056 l 0.702797,0.0014 l -9.32e-4,0.482311 l -0.702796,-0.0014 z m -0.0013,0.695906 l 0.702797,0.0014 l -0.0034,1.774217 q -6.55e-4,0.33934 -0.05088,0.480492 q -0.0485,0.141155 -0.181309,0.228749 q -0.132806,0.08759 -0.379129,0.08712 q -0.20326,-3.92e-4 -0.504588,-0.06126 l 0.10606,-0.509669 q 0.08437,0.01739 0.12399,0.01747 q 0.08957,1.73e-4 0.1362,-0.06175 q 0.04663,-0.0602 0.04698,-0.242789 z"
 style="baseline-shift:baseline;vector-effect:none;stop-color:#000000;stop-opacity:1"
 id="path431" />
<path
 d="m 73.740954,32.498829 l -0.654485,0.01036 l -0.0047,-0.296241 q -0.143509,0.184884 -0.292125,0.26476 q -0.146894,0.07985 -0.363907,0.08328 q -0.289351,0.0046 -0.45742,-0.165037 q -0.166374,-0.171366 -0.172071,-0.531333 l -0.01842,-1.164294 l 0.704432,-0.01115 l 0.01592,1.005839 q 0.0027,0.172233 0.0676,0.243563 q 0.06487,0.07133 0.180267,0.0695 q 0.12573,-0.002 0.203431,-0.09969 q 0.07942,-0.09773 0.07547,-0.347469 l -0.01393,-0.88011 l 0.700988,-0.01109 z"
 style="baseline-shift:baseline;vector-effect:none;stop-color:#000000;stop-opacity:1"
 id="path433" />
<path
 d="m 74.215571,29.953045 l 0.700414,-0.03045 l 0.02073,0.476694 l -0.700413,0.03045 z m 0.03023,0.695251 l 0.700414,-0.03045 l 0.07946,1.827615 l -0.700414,0.03045 z"
 style="baseline-shift:baseline;vector-effect:none;stop-color:#000000;stop-opacity:1"
 id="path435" />
<path
 d="m 75.443837,30.603483 l 0.650296,-0.05762 l 0.0263,0.296837 q 0.129729,-0.1948 0.272164,-0.285239 q 0.142283,-0.09215 0.356761,-0.111158 q 0.289974,-0.02569 0.468332,0.133161 q 0.179922,0.156987 0.211849,0.51731 l 0.102622,1.158179 l -0.701771,0.06218 l -0.08879,-1.002039 q -0.0152,-0.171583 -0.08492,-0.236306 q -0.06987,-0.06644 -0.184831,-0.05625 q -0.126971,0.01125 -0.197385,0.11433 q -0.07041,0.103079 -0.04837,0.351873 l 0.07754,0.875069 l -0.698339,0.06188 z"
 style="baseline-shift:baseline;vector-effect:none;stop-color:#000000;stop-opacity:1"
 id="path437" />
</g>
<g
 aria-label=" 14:30"
 id="text7188"
 style="font-weight:bold;font-size:4.23333px;line-height:4.0246px;font-family:'Courier New';-inkscape-font-specification:'Courier New Bold';letter-spacing:0.264583px;word-spacing:0.529167px;baseline-shift:baseline;opacity:1;vector-effect:none;fill:#333333;stroke-width:0.999999px;stop-color:#000000;stop-opacity:1">
<path
 d="m 61.617862,34.744121 l 0.06001,2.31846 l 0.427737,-0.01107 q 0.152911,-0.004 0.218519,0.05431 q 0.06762,0.05615 0.07008,0.1512 q 0.0024,0.09299 -0.06217,0.154622 q -0.06256,0.05952 -0.215471,0.06347 l -1.279079,0.0331 q -0.152911,0.004 -0.220532,-0.05219 q -0.06561,-0.05827 -0.06807,-0.153319 q -0.0024,-0.09299 0.06015,-0.152503 q 0.06457,-0.06164 0.217483,-0.06559 l 0.427737,-0.01107 l -0.04573,-1.766741 l -0.375578,0.108973 q -0.09028,0.02715 -0.135738,0.02833 q -0.08059,0.0021 -0.142171,-0.06042 q -0.05952,-0.06256 -0.06192,-0.155546 q -0.0022,-0.08472 0.03997,-0.13337 q 0.04211,-0.05072 0.179594,-0.09149 z"
 id="path412" />
<path
 d="m 64.904013,34.790308 l -0.0027,1.657777 q 0.134358,2.15e-4 0.198341,0.06026 q 0.06399,0.05798 0.06384,0.150998 q -1.49e-4,0.09302 -0.06639,0.152856 q -0.06417,0.05984 -0.196466,0.05963 l -2.71e-4,0.169498 q 0.134358,2.15e-4 0.198341,0.06026 q 0.06398,0.06005 0.06383,0.153064 q -1.49e-4,0.09302 -0.06639,0.152856 q -0.06417,0.05777 -0.217133,0.05753 l -0.568439,-9.11e-4 q -0.152962,-2.45e-4 -0.219015,-0.05823 q -0.06398,-0.06005 -0.06383,-0.155132 q 1.49e-4,-0.09302 0.06432,-0.150792 q 0.06624,-0.05984 0.219204,-0.05959 l 0.165364,2.65e-4 l 2.72e-4,-0.169498 l -1.151349,-0.0018 l 5.67e-4,-0.353466 l 1.017692,-1.726429 z m -0.426402,1.657098 l 0.0017,-1.041795 l -0.615584,1.040811 z"
 id="path414" />
<path
 d="m 67.422396,35.898443 q -0.0014,0.11988 -0.08714,0.199477 q -0.08571,0.0796 -0.234525,0.07782 q -0.148817,-0.0018 -0.232596,-0.0834 q -0.08378,-0.08162 -0.08235,-0.201504 q 0.0014,-0.11988 0.08714,-0.199476 q 0.08571,-0.0796 0.234525,-0.07782 q 0.148817,0.0018 0.232597,0.0834 q 0.08378,0.08162 0.08235,0.201504 z m -0.01245,1.386944 q -0.0014,0.119881 -0.08714,0.199477 q -0.08571,0.0796 -0.234524,0.07782 q -0.148817,-0.0018 -0.232597,-0.0834 q -0.08378,-0.08162 -0.08235,-0.201503 q 0.0014,-0.119881 0.08714,-0.199477 q 0.08571,-0.0796 0.234525,-0.07782 q 0.148817,0.0018 0.232596,0.0834 q 0.08378,0.08162 0.08235,0.201503 z"
 id="path416" />
<path
 d="m 70.507168,36.108373 q 0.187193,0.129481 0.279013,0.299632 q 0.09183,0.168083 0.09036,0.37685 q -0.0016,0.225304 -0.126966,0.41666 q -0.123295,0.189304 -0.357567,0.286873 q -0.234256,0.0955 -0.612518,0.09283 q -0.491947,-0.0035 -0.738909,-0.158179 q -0.137876,-0.08779 -0.13703,-0.207677 q 6.41e-4,-0.09095 0.06102,-0.152536 q 0.06246,-0.06364 0.149276,-0.06303 q 0.05994,4.23e-4 0.123729,0.04221 q 0.09051,0.06265 0.170978,0.08389 q 0.123816,0.02981 0.340851,0.03134 q 0.369994,0.0026 0.536025,-0.09131 q 0.166046,-0.09598 0.167285,-0.271678 q 9.19e-4,-0.130221 -0.09538,-0.250793 q -0.09422,-0.122624 -0.254982,-0.189906 q -0.09275,-0.03786 -0.31382,-0.05389 q -0.105373,-0.0069 -0.162841,-0.06523 q -0.05539,-0.06034 -0.05477,-0.147151 q 6.42e-4,-0.09095 0.06309,-0.15252 q 0.06245,-0.06157 0.157529,-0.0609 q 0.210835,0.0015 0.225318,-4.78e-4 q 0.08274,-0.0077 0.16574,-0.05257 q 0.083,-0.04489 0.133163,-0.123087 q 0.05224,-0.08025 0.05284,-0.164996 q 9.48e-4,-0.134355 -0.118253,-0.23235 q -0.117119,-0.100047 -0.354825,-0.101725 q -0.305916,-0.0022 -0.468397,0.174467 q -0.04791,0.05134 -0.07695,0.0656 q -0.04357,0.02243 -0.09731,0.02205 q -0.08681,-6.12e-4 -0.148387,-0.06306 q -0.06157,-0.06245 -0.06093,-0.153396 q 0.001,-0.142623 0.192119,-0.275637 q 0.278364,-0.194411 0.693831,-0.19148 q 0.392731,0.0028 0.628862,0.227685 q 0.23613,0.224913 0.233913,0.539098 q -0.0012,0.163293 -0.07244,0.305421 q -0.07127,0.14006 -0.212672,0.258955 z"
 id="path418" />
<path
 d="m 73.595807,35.928587 l 0.007,0.465036 q 0.0062,0.413365 -0.227897,0.795184 q -0.232021,0.381788 -0.676388,0.388442 q -0.256286,0.0038 -0.435705,-0.105109 q -0.177382,-0.111045 -0.341046,-0.410418 q -0.161628,-0.301471 -0.166704,-0.64043 l -0.007,-0.465035 q -0.0062,-0.411298 0.225862,-0.793086 q 0.23199,-0.383855 0.676357,-0.390509 q 0.254219,-0.0038 0.431571,0.105171 q 0.179418,0.108946 0.343113,0.410386 q 0.165731,0.299343 0.170838,0.640368 z m -0.425766,0.0064 q -0.0052,-0.345159 -0.201252,-0.600634 Q 72.857112,35.193358 72.658697,35.19633 q -0.192215,0.0029 -0.311806,0.161783 q -0.180388,0.240439 -0.175126,0.591799 l 0.007,0.465035 q 0.0052,0.347227 0.203319,0.600604 q 0.10961,0.141001 0.310092,0.137999 q 0.190148,-0.0028 0.309738,-0.161752 q 0.180388,-0.240439 0.175127,-0.591799 z"
 id="path420" />
</g>
<g
 aria-label="Jeu 1er juin"
 id="text7194"
 style="font-size:3.52777px;line-height:3.35383px;font-family:'Arial Black';-inkscape-font-specification:'Arial Black, ';letter-spacing:0.132292px;word-spacing:0.264583px;baseline-shift:baseline;opacity:1;vector-effect:none;fill:#e62e6c;stroke-width:0.999999px;stop-color:#000000;stop-opacity:1">
<path
 d="m 57.946218,18.831538 l 0.779085,-0.06785 l 0.11912,1.36769 q 0.03751,0.430728 -0.02013,0.662256 q -0.05593,0.231379 -0.273992,0.407716 q -0.21635,0.176188 -0.57672,0.207575 q -0.380962,0.03318 -0.599287,-0.05155 q -0.218326,-0.08473 -0.350489,-0.27206 Q 56.89321,20.896113 56.847209,20.606179 l 0.73423,-0.165963 q 0.01621,0.166307 0.05069,0.24457 q 0.03448,0.07826 0.104026,0.122349 q 0.04746,0.02872 0.129827,0.02154 q 0.13042,-0.01136 0.182112,-0.112689 q 0.05326,-0.103195 0.03323,-0.333146 z"
 style="baseline-shift:baseline;vector-effect:none;stop-color:#000000;stop-opacity:1"
 id="path391" />
<path
 d="M 61.548544,20.419243 L 60.144262,20.48 q 0.02623,0.167832 0.10208,0.24731 q 0.106673,0.114351 0.270162,0.107278 q 0.103256,-0.0045 0.193953,-0.06012 q 0.05538,-0.03515 0.117197,-0.120589 l 0.69285,0.03382 q -0.146413,0.2822 -0.364923,0.412345 q -0.218583,0.128423 -0.63677,0.146516 q -0.363117,0.01571 -0.575743,-0.07681 q -0.212701,-0.09425 -0.35998,-0.310291 q -0.145634,-0.217839 -0.158664,-0.519003 q -0.01854,-0.428512 0.243623,-0.705375 q 0.263883,-0.276937 0.747465,-0.297859 q 0.392373,-0.01698 0.624674,0.09194 q 0.232301,0.108916 0.360799,0.329221 q 0.128499,0.220305 0.144134,0.581701 z m -0.726985,-0.304757 q -0.02944,-0.202177 -0.122723,-0.286073 q -0.09157,-0.08397 -0.236124,-0.07772 q -0.16693,0.0072 -0.261011,0.144053 q -0.0601,0.08536 -0.07024,0.249593 z"
 style="baseline-shift:baseline;vector-effect:none;stop-color:#000000;stop-opacity:1"
 id="path393" />
<path
 d="m 63.962512,21.11387 l -0.65445,0.01236 L 63.30247,20.83 q -0.142944,0.18532 -0.291315,0.26565 q -0.14665,0.0803 -0.363651,0.08439 q -0.289336,0.0055 -0.457922,-0.163641 q -0.166896,-0.170858 -0.173691,-0.530805 l -0.02198,-1.164232 l 0.704395,-0.0133 l 0.01899,1.005786 q 0.0033,0.172224 0.06834,0.243355 q 0.06509,0.07113 0.180478,0.06895 q 0.125724,-0.0024 0.203126,-0.100315 q 0.07912,-0.09797 0.07441,-0.347697 l -0.01661,-0.880063 l 0.700951,-0.01323 z"
 style="baseline-shift:baseline;vector-effect:none;stop-color:#000000;stop-opacity:1"
 id="path395" />
<path
 d="m 67.620546,18.535071 l -0.0022,2.568312 l -0.709688,-6.11e-4 l 0.0014,-1.682925 q -0.172367,0.130765 -0.334356,0.211586 q -0.160266,0.08082 -0.403209,0.154682 l 4.95e-4,-0.57533 q 0.358389,-0.115102 0.55662,-0.27685 q 0.198232,-0.161749 0.310402,-0.399364 z"
 style="baseline-shift:baseline;vector-effect:none;stop-color:#000000;stop-opacity:1"
 id="path397" />
<path
 d="m 69.836949,19.220417 l -0.913627,-0.0043 q 0.0118,0.109784 0.05857,0.16375 q 0.06569,0.07757 0.172058,0.07807 q 0.06718,3.19e-4 0.127799,-0.03298 q 0.03705,-0.0211 0.07985,-0.07464 l 0.44878,0.04356 q -0.103857,0.178653 -0.249782,0.256338 q -0.14592,0.07656 -0.417993,0.07527 q -0.236244,-0.0011 -0.371407,-0.06782 q -0.135158,-0.06782 -0.224044,-0.21268 q -0.08776,-0.145973 -0.08683,-0.34191 q 0.0013,-0.278791 0.180164,-0.450371 q 0.179961,-0.171575 0.49458,-0.170082 q 0.255278,0.0012 0.402704,0.07917 q 0.147426,0.07796 0.223986,0.224996 q 0.07656,0.147039 0.07544,0.382164 z m -0.462496,-0.220529 q -0.01281,-0.132181 -0.07076,-0.189559 q -0.05683,-0.05737 -0.15088,-0.05782 q -0.108606,-5.15e-4 -0.173954,0.08539 q -0.04168,0.05355 -0.05338,0.159859 z"
 style="font-size:65%;baseline-shift:super"
 id="path399" />
<path
 d="m 70.188323,18.514905 l 0.426582,0.0022 l -0.001,0.194817 q 0.06224,-0.126197 0.127426,-0.172883 q 0.06631,-0.0478 0.162599,-0.0473 q 0.100768,5.26e-4 0.220242,0.06385 l -0.142771,0.323958 q -0.08044,-0.03401 -0.127464,-0.03426 q -0.08957,-4.68e-4 -0.139221,0.07317 q -0.07108,0.103758 -0.07257,0.389265 l -0.0021,0.398592 l -0.457932,-0.0024 z"
 style="font-size:65%;baseline-shift:super"
 id="path401" />
<path
 d="m 73.003912,18.601565 l 0.702798,2.86e-4 l -1.97e-4,0.482312 l -0.702798,-2.86e-4 z m -2.83e-4,0.695907 l 0.702797,2.86e-4 l -7.21e-4,1.774221 q -1.39e-4,0.339341 -0.05015,0.480569 q -0.04829,0.141229 -0.18096,0.229025 q -0.132672,0.08779 -0.378996,0.0877 q -0.20326,-8.2e-5 -0.50468,-0.06049 l 0.105282,-0.50983 q 0.0844,0.01726 0.124016,0.01728 q 0.08957,3.6e-5 0.136107,-0.06196 q 0.04653,-0.06027 0.04661,-0.242859 z"
 style="baseline-shift:baseline;vector-effect:none;stop-color:#000000;stop-opacity:1"
 id="path403" />
<path
 d="m 76.213466,21.111774 l -0.654541,0.0058 l -0.0026,-0.296266 q -0.144795,0.183878 -0.293964,0.262716 q -0.147447,0.07882 -0.364479,0.08074 q -0.289376,0.0026 -0.456258,-0.168224 q -0.165175,-0.172522 -0.168361,-0.53252 l -0.0103,-1.164394 l 0.704493,-0.0062 l 0.0089,1.005926 q 0.0015,0.172248 0.0659,0.244028 q 0.06437,0.07178 0.179778,0.07076 q 0.125741,-0.0011 0.204121,-0.09827 q 0.0801,-0.09718 0.07789,-0.346934 l -0.0078,-0.880185 l 0.701048,-0.0062 z"
 style="baseline-shift:baseline;vector-effect:none;stop-color:#000000;stop-opacity:1"
 id="path405" />
<path
 d="m 76.725052,18.574781 l 0.700858,-0.01746 l 0.01188,0.476997 l -0.700858,0.01746 z m 0.01733,0.695692 l 0.700858,-0.01746 l 0.04556,1.828775 l -0.700858,0.01746 z"
 style="baseline-shift:baseline;vector-effect:none;stop-color:#000000;stop-opacity:1"
 id="path407" />
<path
 d="m 77.960083,19.247348 l 0.65176,-0.03762 l 0.01717,0.297505 q 0.135651,-0.190724 0.280797,-0.276745 q 0.145046,-0.08774 0.360006,-0.10015 q 0.290626,-0.01677 0.464021,0.147482 q 0.175016,0.162439 0.195862,0.523572 l 0.067,1.160785 l -0.70335,0.0406 l -0.05797,-1.004294 q -0.0099,-0.171968 -0.07762,-0.238802 q -0.0678,-0.06855 -0.183016,-0.0619 q -0.127257,0.0073 -0.200803,0.108214 q -0.07355,0.100868 -0.05915,0.350222 l 0.05062,0.877037 l -0.69991,0.0404 z"
 style="baseline-shift:baseline;vector-effect:none;stop-color:#000000;stop-opacity:1"
 id="path409" />
</g>
<path
 d="m 27.194562,21.701242 c 7.62152,-0.18305 23.18953,-0.47381 25.67532,0.96136"
 style="font-variation-settings:normal;overflow:visible;opacity:1;vector-effect:none;fill:none;fill-opacity:1;fill-rule:evenodd;stroke:none;stroke-width:0.3;stroke-linecap:butt;stroke-linejoin:miter;stroke-miterlimit:4;stroke-dasharray:none;stroke-dashoffset:0;stroke-opacity:1;-inkscape-stroke:none;stop-color:#000000;stop-opacity:1"
 id="path7130"
 sodipodi:nodetypes="cc" />
<path
 style="font-variation-settings:normal;opacity:1;vector-effect:none;fill:#e62e6c;fill-opacity:1;fill-rule:evenodd;stroke:#8c113a;stroke-width:0.3;stroke-linecap:round;stroke-linejoin:round;stroke-miterlimit:4;stroke-dasharray:none;stroke-dashoffset:0;stroke-opacity:1;-inkscape-stroke:none;stop-color:#000000;stop-opacity:1"
 d="m 52.849542,17.128782 l -0.0156,27.91155 c 0.265415,-0.525715 0.987405,-1.226465 1.323774,-1.508532 l 1.097056,0.913872 l -0.23317,-28.22507 c -0.7327,0.19406 -1.47121,0.31532 -2.17206,0.90818 z"
 id="path7258"
 sodipodi:nodetypes="cccccc" />
<path
 d="m 27.169662,33.005952 c 9.14246,-0.14416 25.01952,0.28494 25.67988,0.74096"
 style="font-variation-settings:normal;overflow:visible;opacity:1;vector-effect:none;fill:none;fill-opacity:1;fill-rule:evenodd;stroke:none;stroke-width:0.3;stroke-linecap:butt;stroke-linejoin:miter;stroke-miterlimit:4;stroke-dasharray:none;stroke-dashoffset:0;stroke-opacity:1;-inkscape-stroke:none;stop-color:#000000;stop-opacity:1"
 id="path10150"
 sodipodi:nodetypes="cc" />
<g
 aria-label="Lun 29 mai"
 id="text7170"
 style="font-size:3.52777px;line-height:3.35383px;font-family:'Arial Black';-inkscape-font-specification:'Arial Black, ';letter-spacing:0.132292px;word-spacing:0.264583px;baseline-shift:baseline;opacity:1;vector-effect:none;fill:#e62e6c;stroke-width:0.999999px;stop-color:#000000;stop-opacity:1">
<path
 d="m 27.322116,19.171599 l 0.780113,-0.01766 l 0.04308,1.902924 l 1.217526,-0.02757 l 0.01407,0.621679 l -1.997639,0.04523 z"
 id="path374" />
<path
 d="m 31.807429,21.604309 l -0.654452,0.01224 l -0.0055,-0.296226 q -0.142976,0.185296 -0.291361,0.2656 q -0.146664,0.08027 -0.363666,0.08433 q -0.289337,0.0054 -0.457894,-0.163719 q -0.166867,-0.170886 -0.1736,-0.530835 l -0.02178,-1.164236 l 0.704397,-0.01318 l 0.01881,1.00579 q 0.0032,0.172224 0.0683,0.243367 q 0.06508,0.07114 0.180466,0.06898 q 0.125724,-0.0024 0.203143,-0.100279 q 0.07914,-0.09796 0.07447,-0.347685 l -0.01646,-0.880066 l 0.700953,-0.01311 z"
 id="path376" />
<path
 d="m 32.341935,19.765789 l 0.652784,-0.0089 l 0.004,0.297973 q 0.143925,-0.18456 0.29272,-0.264101 q 0.148773,-0.08126 0.364071,-0.08419 q 0.291083,-0.0039 0.457071,0.16779 q 0.167686,0.169994 0.172595,0.531695 l 0.01578,1.16261 l -0.704455,0.0096 l -0.01365,-1.005873 q -0.0023,-0.172238 -0.06702,-0.241991 q -0.06471,-0.07147 -0.18011,-0.06991 q -0.127457,0.0017 -0.205378,0.09926 q -0.07792,0.09753 -0.07453,0.347274 l 0.01192,0.878417 l -0.70101,0.0095 z"
 id="path378" />
<path
 d="m 38.418834,21.544961 l -2.104942,0.0053 q 0.03538,-0.311871 0.21728,-0.586217 q 0.183613,-0.276072 0.687371,-0.651141 q 0.307754,-0.229878 0.39358,-0.348951 q 0.08583,-0.119074 0.08556,-0.225871 q -2.92e-4,-0.11541 -0.08662,-0.196151 q -0.08461,-0.08247 -0.213804,-0.08214 q -0.134358,3.4e-4 -0.220271,0.08496 q -0.08419,0.08462 -0.112934,0.298287 l -0.702939,-0.05506 q 0.04059,-0.296382 0.150415,-0.462025 q 0.109819,-0.167365 0.309411,-0.25572 q 0.20131,-0.09008 0.556153,-0.09098 q 0.370346,-9.37e-4 0.575542,0.08295 q 0.206918,0.08388 0.324495,0.259284 q 0.119296,0.173675 0.119846,0.390715 q 5.84e-4,0.23082 -0.134965,0.441314 q -0.133826,0.21049 -0.489754,0.462883 q -0.211502,0.146953 -0.2837,0.205702 q -0.07048,0.05874 -0.166698,0.153729 l 1.095534,-0.0028 z"
 id="path380" />
<path
 d="m 38.887711,20.978583 l 0.698197,-0.08323 q 0.02659,0.146596 0.09165,0.207317 q 0.06506,0.06072 0.159793,0.06135 q 0.168806,0.0011 0.264673,-0.168783 q 0.06973,-0.125287 0.106874,-0.53157 q -0.126598,0.128355 -0.25963,0.187765 q -0.133032,0.05941 -0.307005,0.05826 q -0.339334,-0.0022 -0.571998,-0.244949 Q 38.83932,20.22205 38.84176,19.853433 q 0.0017,-0.251486 0.121887,-0.4574 q 0.120221,-0.205913 0.32934,-0.309606 q 0.209131,-0.105416 0.524349,-0.103329 q 0.378952,0.0025 0.607178,0.134936 q 0.228238,0.130705 0.362434,0.41582 q 0.135931,0.283403 0.132851,0.74848 q -0.0045,0.683835 -0.294295,1.000594 q -0.289757,0.315036 -0.799619,0.311661 q -0.301439,-0.002 -0.474956,-0.07205 q -0.173505,-0.07177 -0.288024,-0.206894 q -0.114518,-0.13512 -0.175194,-0.337064 z m 1.299338,-1.117965 q 0.0014,-0.204979 -0.101229,-0.321071 q -0.102575,-0.117815 -0.25071,-0.118795 q -0.139523,-9.24e-4 -0.233234,0.103533 q -0.09199,0.104468 -0.09338,0.314614 q -0.0014,0.211868 0.09259,0.324459 q 0.09572,0.112601 0.238687,0.113548 q 0.148135,9.8e-4 0.247037,-0.106887 q 0.0989,-0.107868 0.100235,-0.309401 z"
 id="path382" />
<path
 d="m 43.04717,19.756742 l 0.654198,0.02195 l -0.009,0.266844 q 0.146773,-0.162256 0.292032,-0.228046 q 0.146981,-0.06573 0.350127,-0.05892 q 0.21864,0.0073 0.343437,0.08908 q 0.124797,0.08175 0.200569,0.237681 Q 45.049858,19.911842 45.188,19.852707 q 0.1382,-0.06086 0.337902,-0.05415 q 0.29439,0.0099 0.453769,0.191025 q 0.159436,0.179424 0.146959,0.551285 l -0.03853,1.14829 l -0.702402,-0.02357 l 0.03495,-1.041553 q 0.0042,-0.123953 -0.04202,-0.185826 q -0.06741,-0.09705 -0.172423,-0.100579 q -0.123953,-0.0042 -0.202707,0.08282 q -0.07875,0.08698 -0.0854,0.284961 l -0.03166,0.943423 l -0.702402,-0.02357 l 0.03379,-1.007121 q 0.004,-0.120511 -0.0083,-0.164012 q -0.02007,-0.06961 -0.07377,-0.112781 q -0.05365,-0.04489 -0.127674,-0.04737 q -0.12051,-0.004 -0.201043,0.0846 q -0.08053,0.08864 -0.08752,0.296954 l -0.03131,0.933094 l -0.702403,-0.02357 z"
 id="path384" />
<path
 d="m 47.360276,20.527361 l -0.663875,-0.115115 q 0.04952,-0.172784 0.126643,-0.267763 q 0.07896,-0.09658 0.217953,-0.161536 q 0.09981,-0.04685 0.270191,-0.06482 q 0.170386,-0.01797 0.366319,-0.0049 q 0.314525,0.021 0.502893,0.06984 q 0.188482,0.04711 0.308206,0.167324 q 0.08421,0.08331 0.126244,0.229407 q 0.04215,0.144378 0.03354,0.273282 l -0.05383,0.806078 q -0.0086,0.128903 0.0019,0.203841 q 0.01237,0.07333 0.05979,0.190442 l -0.656549,-0.04384 q -0.03482,-0.07311 -0.04445,-0.110004 q -0.0095,-0.03862 -0.01626,-0.118479 q -0.146335,0.123159 -0.285901,0.170809 q -0.190671,0.06323 -0.436448,0.04682 Q 46.89012,21.776939 46.730068,21.614329 Q 46.571734,21.451834 46.58654,21.23012 q 0.01389,-0.207965 0.144869,-0.333876 q 0.130981,-0.12591 0.463617,-0.1693 q 0.398866,-0.05278 0.517804,-0.07591 q 0.119054,-0.02485 0.253119,-0.06769 q 0.0086,-0.128903 -0.04123,-0.184023 q -0.04984,-0.05512 -0.183897,-0.06407 q -0.171872,-0.01148 -0.26148,0.03778 q -0.0699,0.03849 -0.119068,0.154328 z m 0.582145,0.408321 q -0.147816,0.04192 -0.306859,0.07101 q -0.216908,0.04249 -0.277299,0.0937 q -0.06222,0.05282 -0.06704,0.125002 q -0.0055,0.0825 0.04765,0.139566 q 0.05499,0.05546 0.16671,0.06292 q 0.116873,0.0078 0.220346,-0.04226 q 0.105192,-0.04995 0.151835,-0.127971 q 0.04848,-0.07963 0.0572,-0.210251 z"
 id="path386" />
<path
 d="m 49.405918,19.391937 l 0.697265,0.073 l -0.04968,0.474551 l -0.697265,-0.073 z m -0.07246,0.692125 l 0.697265,0.073 l -0.190483,1.819398 l -0.697264,-0.073 z"
 id="path388" />
</g>
<g
 aria-label="Mar 30 mai"
 id="text7152"
 style="font-size:3.52777px;line-height:3.35383px;font-family:'Arial Black';-inkscape-font-specification:'Arial Black, ';letter-spacing:0.132292px;word-spacing:0.264583px;baseline-shift:baseline;opacity:1;vector-effect:none;fill:#e62e6c;stroke-width:0.999999px;stop-color:#000000;stop-opacity:1">
<path
 d="m 27.393924,30.473134 l 1.026601,-0.0086 l 0.408981,1.533153 l 0.381639,-1.539745 l 1.023155,-0.0085 l 0.02105,2.525162 l -0.637319,0.0053 l -0.01606,-1.925737 l -0.478298,1.929859 l -0.577032,0.0048 l -0.508686,-1.92163 l 0.01605,1.925738 l -0.639041,0.0053 z"
 style="baseline-shift:baseline;vector-effect:none;stop-color:#000000;stop-opacity:1"
 id="path357" />
<path
 d="m 31.474967,31.740784 l -0.669942,-0.07183 q 0.03821,-0.175631 0.109014,-0.275412 q 0.07253,-0.1015 0.20702,-0.175329 q 0.09656,-0.05323 0.265419,-0.08221 q 0.168862,-0.02898 0.365232,-0.02863 q 0.315225,5.65e-4 0.506362,0.03708 q 0.19114,0.03479 0.318408,0.146987 q 0.08943,0.07768 0.140853,0.220739 q 0.05142,0.141341 0.05119,0.270531 l -0.0014,0.807872 q -2.31e-4,0.129191 0.01514,0.203288 q 0.0171,0.07238 0.07201,0.186164 l -0.658011,-0.0012 q -0.03949,-0.0707 -0.05148,-0.106891 q -0.01199,-0.03792 -0.02391,-0.117176 q -0.138041,0.132389 -0.274224,0.188989 q -0.18617,0.07546 -0.432493,0.07502 q -0.327283,-5.87e-4 -0.497543,-0.152476 Q 30.74803,32.714443 30.748428,32.492235 q 3.73e-4,-0.208427 0.122915,-0.342566 q 0.122541,-0.13414 0.451664,-0.199006 q 0.394603,-0.07853 0.511792,-0.109326 q 0.117191,-0.03252 0.248197,-0.08396 q 2.32e-4,-0.129191 -0.05307,-0.180963 q -0.05331,-0.05177 -0.187664,-0.05201 q -0.172254,-3.09e-4 -0.25848,0.05466 q -0.06726,0.04294 -0.10881,0.161724 z m 0.607396,0.369714 q -0.144786,0.05142 -0.301608,0.09075 q -0.213697,0.05646 -0.27064,0.111481 q -0.05867,0.05674 -0.0588,0.129085 q -1.48e-4,0.08268 0.0566,0.136183 q 0.05847,0.05178 0.170439,0.05198 q 0.117133,2.1e-4 0.217142,-0.05645 q 0.101732,-0.05666 0.143218,-0.137547 q 0.04321,-0.08261 0.04345,-0.213518 z"
 style="baseline-shift:baseline;vector-effect:none;stop-color:#000000;stop-opacity:1"
 id="path359" />
<path
 d="m 33.343138,31.154445 l 0.656272,0.0048 l -0.0022,0.299715 q 0.09615,-0.193955 0.19658,-0.265575 q 0.102164,-0.07333 0.250299,-0.07226 q 0.155025,0.0011 0.338633,0.09892 l -0.22066,0.497949 q -0.123645,-0.05258 -0.19599,-0.0531 q -0.1378,-0.001 -0.214414,0.112135 q -0.10968,0.159405 -0.112867,0.598642 l -0.0044,0.613209 l -0.704502,-0.0051 z"
 style="baseline-shift:baseline;vector-effect:none;stop-color:#000000;stop-opacity:1"
 id="path361" />
<path
 d="m 37.242362,31.22975 l -0.661264,-0.129089 q 0.08757,-0.315632 0.324417,-0.480802 q 0.238569,-0.165142 0.669153,-0.158487 q 0.494311,0.0076 0.711923,0.195336 q 0.217611,0.187698 0.213299,0.466717 q -0.0025,0.163622 -0.09414,0.294858 q -0.09161,0.131235 -0.274001,0.228336 q 0.14584,0.03843 0.2226,0.08785 q 0.124533,0.07945 0.191456,0.207966 q 0.06867,0.126822 0.06596,0.302501 q -0.0034,0.220459 -0.121945,0.421912 q -0.118511,0.19973 -0.337229,0.306605 q -0.218691,0.105154 -0.571771,0.0997 q -0.344467,-0.0053 -0.543008,-0.08936 q -0.196817,-0.08401 -0.323597,-0.241018 q -0.125031,-0.158703 -0.190278,-0.395728 l 0.702429,-0.08217 q 0.03806,0.212486 0.122902,0.296489 q 0.08659,0.08231 0.22093,0.08438 q 0.141232,0.0022 0.235835,-0.09972 q 0.09633,-0.101876 0.09899,-0.27411 q 0.0027,-0.175679 -0.08708,-0.273541 q -0.08807,-0.09783 -0.243082,-0.10023 q -0.08267,-0.0013 -0.227987,0.03782 l 0.04392,-0.500641 q 0.05843,0.0095 0.09115,0.01002 q 0.137787,0.0021 0.230428,-0.0843 q 0.09436,-0.0864 0.09623,-0.206965 q 0.0018,-0.115397 -0.06605,-0.185355 q -0.06783,-0.06996 -0.188393,-0.07182 q -0.124008,-0.0019 -0.202685,0.07267 q -0.07865,0.07286 -0.109108,0.260171 z"
 style="baseline-shift:baseline;vector-effect:none;stop-color:#000000;stop-opacity:1"
 id="path363" />
<path
 d="m 39.050451,31.780823 q 0.01497,-0.719868 0.279279,-1.002098 q 0.26603,-0.282194 0.796459,-0.271161 q 0.254881,0.0053 0.417162,0.07242 q 0.162317,0.0654 0.263534,0.169158 q 0.101253,0.102035 0.157478,0.215194 q 0.05798,0.111473 0.09107,0.260332 q 0.06473,0.283904 0.05836,0.590451 q -0.01429,0.687146 -0.253411,1.000913 q -0.23912,0.313766 -0.807436,0.301946 q -0.318602,-0.0066 -0.512816,-0.112318 q -0.194214,-0.105692 -0.31585,-0.304634 q -0.08837,-0.141394 -0.135024,-0.383573 q -0.04489,-0.243865 -0.0388,-0.536634 z m 0.695721,0.01619 q -0.01003,0.482208 0.07067,0.661347 q 0.08246,0.177452 0.244339,0.180819 q 0.106775,0.0022 0.185813,-0.07022 q 0.0808,-0.07413 0.120328,-0.23526 q 0.04125,-0.161096 0.04838,-0.503808 q 0.01046,-0.502874 -0.07207,-0.676882 q -0.08077,-0.175694 -0.251264,-0.17924 q -0.173939,-0.0036 -0.255126,0.172154 q -0.08115,0.174049 -0.09107,0.651091 z"
 style="baseline-shift:baseline;vector-effect:none;stop-color:#000000;stop-opacity:1"
 id="path365" />
<path
 d="m 43.216962,31.318356 l 0.65422,0.0213 l -0.0087,0.266853 q 0.146612,-0.162401 0.291806,-0.228335 q 0.146916,-0.06588 0.350068,-0.05926 q 0.218648,0.0071 0.343525,0.08874 q 0.124878,0.08162 0.200805,0.237483 q 0.171107,-0.173667 0.309191,-0.232938 q 0.138139,-0.06099 0.337848,-0.05449 q 0.294399,0.0096 0.453957,0.190576 q 0.159614,0.179267 0.147504,0.551139 l -0.0374,1.148328 l -0.702426,-0.02287 l 0.03392,-1.041587 q 0.004,-0.123957 -0.04221,-0.185784 q -0.0675,-0.09699 -0.172522,-0.100409 q -0.123958,-0.004 -0.202625,0.08302 q -0.07867,0.08706 -0.08512,0.285045 l -0.03072,0.943454 l -0.702426,-0.02287 l 0.0328,-1.007154 q 0.0039,-0.120514 -0.0084,-0.164004 q -0.02014,-0.06959 -0.07388,-0.112707 q -0.05369,-0.04483 -0.127721,-0.04725 q -0.120514,-0.0039 -0.200959,0.0848 q -0.08045,0.08872 -0.08723,0.297041 l -0.03039,0.933124 l -0.702426,-0.02287 z"
 style="baseline-shift:baseline;vector-effect:none;stop-color:#000000;stop-opacity:1"
 id="path367" />
<path
 d="m 47.516142,32.063603 l -0.666255,-0.100428 q 0.04569,-0.173835 0.120699,-0.270495 q 0.07681,-0.0983 0.214333,-0.166309 q 0.09875,-0.04904 0.268694,-0.07077 q 0.169947,-0.02173 0.366122,-0.01297 q 0.314912,0.01405 0.504312,0.05872 q 0.189476,0.04294 0.311826,0.160478 q 0.08603,0.08143 0.131279,0.226563 q 0.04533,0.143412 0.03957,0.272475 l -0.03602,0.80707 q -0.0058,0.129062 0.0064,0.203749 q 0.01398,0.07304 0.06398,0.189075 l -0.657358,-0.02934 q -0.03643,-0.07232 -0.04686,-0.108995 q -0.01036,-0.0384 -0.01887,-0.118092 q -0.14358,0.126361 -0.28206,0.177081 q -0.189228,0.06742 -0.435307,0.05644 q -0.326958,-0.01459 -0.490563,-0.173626 q -0.161883,-0.158959 -0.151977,-0.380947 q 0.0093,-0.20822 0.137462,-0.336993 q 0.128169,-0.128772 0.459766,-0.179496 q 0.397602,-0.06157 0.516001,-0.08732 q 0.118476,-0.02747 0.251563,-0.07326 q 0.0058,-0.129063 -0.04528,-0.183068 q -0.05104,-0.05401 -0.185267,-0.06 q -0.172083,-0.0077 -0.260582,0.04355 q -0.06903,0.04002 -0.115631,0.15692 z m 0.591019,0.395366 q -0.146854,0.04517 -0.305216,0.07776 q -0.215917,0.04726 -0.275162,0.0998 q -0.06104,0.05418 -0.06427,0.126452 q -0.0037,0.0826 0.05072,0.13848 q 0.0562,0.05423 0.168058,0.05923 q 0.117017,0.0052 0.219359,-0.04711 q 0.104064,-0.05226 0.148973,-0.131293 q 0.04671,-0.08068 0.05254,-0.211463 z"
 style="baseline-shift:baseline;vector-effect:none;stop-color:#000000;stop-opacity:1"
 id="path369" />
<path
 d="m 49.467213,30.867112 l 0.699904,0.0405 l -0.02756,0.476347 l -0.699904,-0.0405 z m -0.0402,0.694746 l 0.699905,0.0405 l -0.105679,1.826287 l -0.699904,-0.0405 z"
 style="baseline-shift:baseline;vector-effect:none;stop-color:#000000;stop-opacity:1"
 id="path371" />
</g>
</g>
</svg>
