<?xml version="1.0" encoding="UTF-8" standalone="no"?>
<!-- Created with Inkscape (http://www.inkscape.org/) -->

<svg
 width="105.78406mm"
 height="12.945971mm"
 viewBox="0 0 105.78406 12.945971"
 version="1.1"
 id="svg1"
 inkscape:version="1.3 (1:1.3+202307231459+0e150ed6c4)"
 sodipodi:docname="formule.svg"
 xmlns:inkscape="http://www.inkscape.org/namespaces/inkscape"
 xmlns:sodipodi="http://sodipodi.sourceforge.net/DTD/sodipodi-0.dtd"
 xmlns="http://www.w3.org/2000/svg"
 xmlns:svg="http://www.w3.org/2000/svg">
<sodipodi:namedview
 id="namedview1"
 pagecolor="#ffffff"
 bordercolor="#666666"
 borderopacity="1.0"
 inkscape:showpageshadow="2"
 inkscape:pageopacity="0.0"
 inkscape:pagecheckerboard="0"
 inkscape:deskcolor="#d1d1d1"
 inkscape:document-units="mm"
 inkscape:zoom="1.7810788"
 inkscape:cx="214.47676"
 inkscape:cy="233.84704"
 inkscape:current-layer="layer1" />
<defs
 id="defs1" />
<g
 inkscape:label="Calque 1"
 inkscape:groupmode="layer"
 id="layer1"
 transform="translate(-52.107971,-17.78953)">
<path
 d="m 105.39282,98.875506 q 0.96485,0 1.54037,0.347004 q 0.58398,0.347005 0.58398,0.88021 q 0,0.46549 -0.35547,1.03255 q -0.347,0.55859 -0.67708,0.55859 q -0.22005,0 -0.36393,-0.347 q -0.23698,-0.55013 -0.51628,-0.76172 q -0.27929,-0.21159 -0.85481,-0.21159 q -1.47266,0 -3.30924,1.40495 q -1.836587,1.40494 -2.902991,3.2246 q -1.05794,1.81119 -1.05794,3.51236 q 0,1.98047 1.819657,1.98047 q 0.837894,0 1.929684,-0.41472 q 1.10026,-0.42317 2.3444,-1.26953 q 1.2526,-0.85481 1.51497,-1.49804 q 0.17773,-0.41471 0.30468,-1.03255 q -0.17773,0 -0.66015,0.0169 q -0.47396,0.0169 -0.74479,0.0339 q -0.27083,0.008 -0.72786,0.0423 q -0.44857,0.0339 -0.87175,0.0846 q -0.60091,0.0677 -0.8125,-0.70247 q -0.22005,-0.82096 0.28776,-0.95638 q 0.22852,-0.0592 0.88021,0.0254 q 1.26953,0.16081 1.98047,0.15235 q 0.71093,-0.0169 1.77734,-0.28776 q 0.38086,-0.10156 1.09179,-0.44857 q 0.15234,-0.0677 0.25391,-0.0931 q 0.28776,-0.0846 0.61783,0.0677 q 0.33008,0.14388 0.41472,0.45703 q 0.0931,0.35547 -0.0931,0.77018 q -0.17774,0.40625 -0.51628,0.49935 q -0.61783,0.12695 -1.20182,0.20312 q -0.0339,0.0931 -0.0762,0.1862 q -0.41471,0.98177 -0.61784,1.78581 q -0.20312,0.80403 -0.37239,1.86197 q -0.16081,1.05794 -0.16081,1.50651 q 0,0.39778 0.15234,1.17643 q 0.0254,0.16081 0.0254,0.27083 q 0,0.29622 -0.22852,0.57552 q -0.22005,0.2793 -0.55013,0.2793 q -0.36393,0 -0.7194,-0.28776 q -0.347,-0.2793 -0.347,-0.6263 q 0,-0.27084 0.38932,-2.42904 q 0.11849,-0.67708 0.16927,-1.05794 q -3.11458,2.44596 -5.628245,2.44596 q -1.421872,0 -2.259761,-0.83789 q -0.837889,-0.84635 -0.837889,-2.33593 q 0,-3.58007 3.055333,-6.67772 q 3.055332,-3.106114 6.330712,-3.106114 z m 22.67054,6.017564 q -0.1862,0 -0.51628,-0.14388 q -0.36393,-0.12695 -0.5332,-0.12695 q -0.12695,0 -0.37239,0.0423 q -0.25391,0.0508 -0.38932,0.0508 q -0.26237,0 -0.76172,-0.0508 q -0.50781,-0.0508 -0.83789,-0.0508 q -0.6263,0 -1.65039,0.11849 q -1.03255,0.12695 -1.68424,0.12695 q -0.36393,0 -0.5332,-0.11003 q -0.16927,-0.11849 -0.16927,-0.52474 q 0,-0.24544 0.14388,-0.44856 q 0.15234,-0.21159 0.88867,-0.33008 q 0.73632,-0.12695 1.19335,-0.12695 q 0.1862,0 0.53321,0.0423 q 0.46549,0.0339 1.59114,0.008 q 1.12565,-0.0339 1.73502,-0.16927 q 0.0508,-0.0169 0.64323,-0.008 q 0.60091,0.008 0.98177,0.29623 q 0.38932,0.27929 0.38932,0.67708 q 0,0.72786 -0.65169,0.72786 z m -2.9707,3.96093 h -1.03255 l -2.65754,0.0423 q -0.13542,0 -0.38086,-0.35547 q -0.24545,-0.35547 -0.24545,-0.5332 q 0,-0.25391 0.57552,-0.38086 q 0.57552,-0.13542 1.02409,-0.13542 l 2.12435,0.0508 q 0.26236,0 0.61783,-0.0592 q 0.42318,-0.0762 0.99024,-0.0762 q 1.04101,0 1.88736,0.20312 q 0.84635,0.20313 0.84635,0.70248 q 0,0.23698 -0.13541,0.47395 q -0.13542,0.22852 -0.27084,0.22852 q -0.22005,0 -0.79557,-0.10156 q -0.70247,-0.10157 -1.07486,-0.0762 q -0.3724,0.0169 -1.47266,0.0169 z m 22.01038,-6.30532 q -0.48242,0.45703 -1.14257,1.4388 q -0.17774,0.26236 -0.28776,0.41471 q -0.11849,0.1608 -0.16081,0.22851 q 0.47396,0.28776 1.83659,0.48242 q 1.74348,0.25391 2.58983,0.57552 q 0.85482,0.32162 1.22722,0.93946 q 0.38085,0.60937 0.38085,1.66731 q 0,0.66015 -0.60937,1.48112 q -0.60937,0.82096 -2.03125,1.55729 q -1.42187,0.73632 -3.14843,0.73632 q -1.41341,0 -2.42903,-0.55859 q -1.00716,-0.55859 -1.00716,-0.93945 q 0,-0.8125 1.02409,-0.8125 q 0.22851,0 0.49088,0.21159 q 0.93945,0.66015 2.1582,0.66015 q 1.29492,0 2.65755,-0.77018 q 1.37109,-0.77018 1.37109,-1.47265 q 0,-0.89714 -0.66862,-1.37109 q -0.66015,-0.48242 -2.0651,-0.63477 l -1.91276,-0.21159 q -0.80403,-0.10156 -1.24413,-0.41471 q -0.44011,-0.32161 -0.44011,-0.59244 q 0,-0.28776 0.31315,-0.6517 q 0.0677,-0.0931 0.73633,-1.0664 q 1.37955,-2.05664 1.73502,-2.16666 q 0.36393,-0.11849 4.57031,-0.25391 q 0.74479,-0.0169 1.54036,-0.24544 q 0.6263,-0.16927 0.77864,-0.16927 q 0.52474,0 0.91406,0.31315 q 0.2793,0.14388 0.2793,0.31315 q 0,0.24544 -0.31315,0.61784 q -0.31315,0.37239 -0.9056,0.45703 q -0.58398,0.0846 -1.46419,0.0846 l -2.82682,-0.0846 q -1.24413,0 -1.94661,0.23698 z m 12.81508,-2.77604 q 0,-0.135417 -0.19466,-0.135417 q -0.66015,0 -1.70117,0.516277 q -0.16081,0.0846 -0.23698,0.11002 q -0.0846,0.0339 -0.19466,0.16927 q -0.21159,0.26237 -0.31315,0.26237 q -0.46549,0 -0.46549,-0.77864 q 0,-0.507812 0.57552,-0.660155 q 0.15234,-0.03386 1.27799,-0.457031 q 0.84635,-0.321614 1.26953,-0.321614 q 0.38932,0 0.7194,0.296224 q 0.33854,0.296223 0.33854,0.710936 q 0,0.194661 -0.15234,0.68555 q -0.14388,0.48242 -0.26237,0.60937 q -1.21875,1.37955 -3.02148,3.65624 l 0.0169,0.0339 q 0.0169,0.0508 0.11003,0.0508 q 0.10156,0 0.57552,-0.14388 q 0.52474,-0.17774 2.30208,-0.44857 q 0.66015,-0.0931 0.9056,-0.15234 q 0.49088,-0.13542 0.75325,-0.13542 q 0.28776,0 0.48242,0.22852 q 0.19466,0.22851 0.19466,0.58398 q 0,0.23698 -0.22005,0.43164 q -0.22005,0.19466 -0.49088,0.19466 q -0.0846,0 -0.33854,-0.0677 q -0.26237,-0.0677 -0.35547,-0.0677 q -1.28646,0 -3.77474,0.79557 q -0.96484,0.31316 -1.30338,0.31316 q -0.29622,0 -0.52474,-0.16081 q -0.22005,-0.16081 -0.22005,-0.4655 q 0,-0.73632 3.27539,-4.10481 q 0.33854,-0.36393 0.66861,-0.86327 q 0.33008,-0.499353 0.30469,-0.68555 z m 23.90621,7.8203 q -0.17773,0.22851 -0.77864,0.22851 q -0.22006,0 -0.72787,-0.0592 q -0.57552,-0.0677 -0.82942,-0.0677 h -0.5586 q -0.24544,0 -0.4401,0.008 h -0.40625 q -0.20312,0 -0.43164,0.008 q -0.1862,0.36393 -0.1862,1.15104 q 0,0.96484 -0.0423,1.21028 q -0.0423,0.23698 -0.0169,0.67708 q 0.0254,0.43164 -0.46549,0.43164 q -0.36394,0 -0.48242,-0.13541 q -0.11003,-0.14388 -0.11003,-0.50782 q 0,-0.19466 0.14388,-1.32877 q 0.0677,-0.55013 0.13542,-1.49804 q -0.54167,-0.0508 -1.63346,-0.0508 q -0.1862,0 -0.49935,0.0846 q -0.33008,0.0762 -0.43164,0.0762 q -0.22852,0 -0.41472,-0.16927 q -0.17773,-0.17773 -0.17773,-0.40625 q 0,-0.16927 0.11849,-0.35547 q 0.12695,-0.19466 0.2793,-0.19466 q 0.29622,0 0.61783,0.0592 q 0.33008,0.0592 0.49089,0.0592 l 1.70117,-0.0846 q 0.10156,-0.32162 0.10156,-0.66016 q 0,-0.45703 -0.0677,-1.55729 q -0.0339,-0.45703 -0.0339,-0.7871 q 0,-0.28776 0.16927,-0.57552 q 0.17773,-0.28776 0.4401,-0.28776 q 0.13542,0 0.29622,0.27929 q 0.16927,0.2793 0.16927,0.43164 q 0,0.44011 -0.0762,1.17643 q -0.0762,0.73633 -0.0762,1.00716 q 0,0.43164 0.0508,0.86328 q 0.16927,0.0593 0.99023,0.0593 l 1.93815,-0.0339 q 0.78711,0 1.01563,0.16927 q 0.22851,0.16927 0.22851,0.77865 z m 12.26886,0.68554 v -0.27929 q 0,-1.24414 0.22852,-2.13281 q 0.23698,-0.89714 0.90559,-2.36133 q 0.9056,-1.95507 1.33724,-2.47981 q 0.19466,-0.24544 1.45573,-1.388017 q 0.77018,-0.702472 1.15104,-0.863279 q 0.38086,-0.169271 0.61783,-0.169271 q 0.36394,0 0.36394,0.440103 q 0,0.28776 -1.21875,1.455724 q -1.65039,1.54883 -2.66601,3.63086 q -1.01563,2.08202 -1.01563,3.62238 q 0,0.73633 0.41472,2.84375 q 0.0508,0.26237 0.0677,0.39778 q 0.27929,1.3711 0.66015,2.05664 q 0.38086,0.68555 1.21028,1.40495 q 0.9056,0.77864 0.9056,1.21874 q 0,0.49089 -0.82942,0.49089 q -0.50782,0 -1.19336,-0.77018 q -0.67708,-0.77018 -1.22721,-1.59115 q -0.54167,-0.81249 -0.85482,-2.68293 q -0.31315,-1.87891 -0.31315,-2.84375 z m 28.95894,-7.55793 q 0.51627,0 0.51627,0.50782 q 0,0.24544 -0.0677,0.347 q -0.0677,0.0931 -0.4655,0.57552 q -0.38932,0.47396 -0.68554,0.8125 q -0.31315,0.35547 -0.98177,1.37109 l -0.69401,1.03255 q 1.57421,-0.0169 2.64062,-0.11849 q 0.2539,0.0762 0.31315,0.42318 q 0.0677,0.347 -0.0846,0.6263 q -0.14388,0.27929 -0.39778,0.20312 q -1.45573,-0.0762 -3.0638,-0.0169 q -0.11002,0.18619 -0.32161,0.52473 q -0.21159,0.33854 -0.38086,0.6263 q -0.16081,0.2793 -0.30469,0.58399 q -0.75325,1.56575 -0.91406,2.03124 q -0.15234,0.45703 -0.15234,0.98177 q 0,0.38932 -0.22005,0.64323 q -0.22006,0.24544 -0.5586,0.24544 q -0.36393,0 -0.59244,-0.36393 q -0.22852,-0.37239 -0.22852,-0.76172 q 0,-0.40625 0.9987,-2.42056 q 0.17773,-0.34701 0.37239,-0.68555 q 0.19466,-0.33854 0.44857,-0.74479 q 0.25391,-0.41471 0.38086,-0.63476 q -1.30338,0.0339 -2.65755,0.16927 q -0.30469,-0.10157 -0.38086,-0.49935 q -0.0677,-0.40625 0.11003,-0.7194 q 0.17773,-0.32162 0.49088,-0.22005 q 0.41472,0.0592 0.91406,0.0846 q 0.50782,0.0169 1.15951,0.0254 q 0.66015,0.008 0.9733,0.0169 q 0.14388,-0.22852 0.2793,-0.43164 q 1.08333,-1.625 1.41341,-1.972 q 0.37239,-0.39779 0.66862,-0.78711 l -0.16081,-0.11849 q -3.88476,0.22852 -7.30402,0.22852 q -0.19466,0 -0.34701,-0.19466 q -0.14388,-0.20313 -0.14388,-0.45703 q 0,-0.26237 0.22005,-0.51628 q 0.22006,-0.25391 0.4655,-0.25391 q 0.30468,0 1.43033,0.0677 q 1.11719,0.0762 2.16667,0.0762 q 1.92122,0 3.53775,-0.17773 q 1.05794,-0.11003 1.60807,-0.11003 z m 14.31704,5.96679 h 0.347 q 1.12565,0 2.14128,-0.0339 q 0.96484,-0.0339 1.54882,-0.0846 q 0.86328,-0.0846 1.24414,-0.0846 q 1.32031,0 1.32031,0.67708 q 0,0.66015 -0.6263,0.66015 l -0.72787,0.0339 l -1.43879,-0.0339 q -0.16928,0 -0.50782,0.0339 q -0.33854,0.0339 -0.51627,0.0339 q -0.60938,0 -1.36263,0.0592 q -0.75325,0.0592 -1.11718,0.0592 q -0.22006,0 -0.69401,-0.0846 q -0.47396,-0.0846 -0.66862,-0.0846 q -0.20313,0 -0.36393,-0.21159 q -0.16081,-0.21159 -0.16081,-0.41471 q 0,-0.0677 0.0846,-0.22005 q 0.0931,-0.15235 0.16081,-0.22852 q 0.0677,-0.0762 1.33724,-0.0762 z m 22.5859,0.008 q -0.61784,0 -0.61784,-0.36393 q 0,-0.20312 0.11849,-0.44857 q 0.11849,-0.2539 0.68555,-0.74479 l 1.5065,-1.28645 q 0.93099,-0.79557 2.03971,-1.58268 q -0.46549,-0.0762 -2.48827,0.16927 q -1.56576,0.19466 -2.19206,0.19466 q -1.45572,0 -1.45572,-1.32877 q 0,-0.26237 0.16927,-0.45703 q 0.17773,-0.20313 0.43164,-0.20313 q 0.18619,0 0.45703,0.19466 q 0.33854,0.23698 0.52474,0.30469 q 0.19466,0.0677 0.56705,0.0677 q 0.60091,0 2.20052,-0.15234 q 2.10742,-0.24545 3.36002,-0.24545 q 1.04101,0 1.04101,0.67709 q 0,0.48242 -0.43164,0.82096 q -0.42317,0.33854 -1.23567,0.82096 q -1.07487,0.64323 -1.50651,0.96484 q -0.42318,0.31315 -0.84635,0.82943 q 0.93098,-0.0677 1.40494,-0.0677 q 1.02409,0 1.76042,0.26237 q 0.73632,0.2539 1.10025,0.66862 q 0.3724,0.41471 0.56706,0.66861 q 0.19466,0.25391 0.19466,0.91407 q 0,0.56705 -0.82942,1.83658 q -0.82943,1.26107 -2.74219,2.00586 q -1.91275,0.74479 -3.73241,0.74479 q -0.52474,0 -1.51497,-0.12696 q -0.98177,-0.13541 -1.21029,-0.48242 q -0.22005,-0.347 -0.22005,-0.70247 q 0,-0.88867 0.83789,-0.88867 q 0.0338,0 0.12695,0.0423 l 0.58399,0.24544 q 0.96484,0.4401 1.76041,0.4401 q 0.69401,0 2.11588,-0.27083 q 1.42187,-0.2793 2.38672,-1.17643 q 0.96484,-0.9056 0.96484,-1.44726 q 0,-0.92253 -0.97331,-1.21875 q -0.96484,-0.30469 -2.14973,-0.30469 q -1.65039,0 -2.75911,0.6263 z m 21.40099,9.47915 q -0.27929,0 -0.52474,-0.1862 q -0.23697,-0.17773 -0.23697,-0.37239 q 0,-0.16927 0.13541,-0.42318 q 0.14388,-0.2539 0.95638,-1.27799 q 0.57552,-0.69401 1.26953,-2.49674 q 0.70247,-1.80273 0.70247,-2.22591 q 0,-2.70832 -0.76172,-4.82421 q -0.76171,-2.11588 -1.3457,-3.05533 q -0.58398,-0.94791 -1.70116,-1.963537 q -0.10157,-0.101562 -0.10157,-0.347004 q 0,-0.126953 0.24544,-0.338541 q 0.24545,-0.211588 0.49935,-0.211588 q 0.3724,0 0.80404,0.482421 q 0.4401,0.473957 1.32877,1.836589 q 0.88867,1.35416 1.10872,2.10741 q 0.22005,0.7194 0.45703,1.40495 q 0.68555,1.99739 0.68555,4.26562 q 0,3.08072 -2.09049,5.77212 q -0.35547,0.47396 -0.50781,0.76172 q -0.26237,0.50781 -0.4655,0.79557 q -0.20312,0.29622 -0.45703,0.29622 z m 20.46156,-8.02342 q -0.0762,0.008 -0.64323,0.65169 q -0.57552,0.66016 -0.6263,0.69401 l -1.28646,1.37109 q -0.22851,0.24544 -0.40624,0.24544 q -0.16927,0 -0.3724,-0.20312 q -0.20312,-0.20313 -0.20312,-0.38932 q 0,-0.15235 0.15234,-0.33008 q 0.16081,-0.17773 0.8125,-0.73633 q 0.57552,-0.49935 0.78711,-0.83789 q 0.10156,-0.14388 0.56705,-0.60937 q 0.49089,-0.49088 0.49089,-0.56706 q 0,-0.11002 -1.06641,-1.13411 l -1.41341,-1.36263 q -0.16927,-0.22005 -0.16927,-0.41471 q 0,-0.2539 0.17774,-0.42318 q 0.17773,-0.16927 0.4401,-0.16927 q 0.11849,0 0.50781,0.2793 q 0.38932,0.2793 0.49935,0.44857 q 0.64323,0.95638 1.75195,2.11588 q 0.82096,-0.60938 1.66731,-1.72656 q 0.77865,-1.03255 1.26107,-1.03255 q 0.19466,0 0.36393,0.11849 q 0.17773,0.11002 0.17773,0.27929 q 0,0.32162 -0.12695,0.49935 q -0.11849,0.16927 -0.9056,0.85482 q -1.67577,1.4388 -1.67577,1.61653 q 0,0.0677 0.79557,0.86328 q 0.19466,0.1862 0.57552,0.69401 q 0.4401,0.57552 0.77864,0.91406 q 0.60938,0.49089 0.60938,0.80404 q 0,0.15234 -0.12696,0.36393 q -0.11849,0.20312 -0.27083,0.20312 q -0.32161,0 -0.54167,-0.13541 q -0.22005,-0.13542 -0.7194,-0.75326 q -0.30468,-0.38932 -0.49088,-0.56705 q -0.28776,-0.29623 -0.73633,-0.86328 q -0.4401,-0.57552 -0.63476,-0.76172 z m 20.37692,1.57422 q 0.4401,-0.0339 1.33723,-0.0339 q 1.10873,0 3.68164,0.16081 q 0.70247,0.0339 0.89713,0.0254 q 0.20313,-0.008 0.52474,-0.13542 q 0.347,-0.13541 0.52474,-0.13541 q 0.14388,0 0.33008,0.22005 q 0.19466,0.21159 0.19466,0.36393 q 0,0.55013 -0.57552,0.86328 q -0.57552,0.30469 -1.02409,0.30469 H 329.772 q -0.8125,0 -1.19336,-0.11003 q -1.17643,-0.31315 -2.92838,-0.31315 q -1.49804,0 -2.63215,0.36393 q -1.13411,0.36393 -1.47266,0.77018 q -0.38085,0.45703 -0.57552,0.56706 q -0.18619,0.11849 -0.51627,0.11849 q -0.66016,0 -0.66016,-0.58399 q 0,-0.88867 0.72787,-1.56575 q 0.72786,-0.68554 2.44596,-1.55729 q 1.00716,-0.49934 1.22721,-0.68554 q 0.22005,-0.1862 1.21028,-1.0918 q 0.9987,-0.90559 1.51497,-1.55729 q 0.51628,-0.65169 0.73633,-1.1595 q 0.22851,-0.51627 0.22851,-0.94791 q 0,-0.59245 -0.70247,-1.20182 q -0.70247,-0.61784 -1.30338,-0.61784 q -0.51628,0 -1.55729,0.65169 q -1.04101,0.64323 -1.54882,1.24414 q -0.33008,0.38932 -1.00716,0.38932 q -0.16081,0 -0.34701,-0.36393 q -0.1862,-0.36393 -0.1862,-0.58398 q 0,-0.16081 0.0423,-0.22006 q 0.0423,-0.0592 0.84635,-0.63476 q 0.8125,-0.57552 1.45573,-0.99023 q 0.65169,-0.42318 1.30338,-0.64323 q 0.65169,-0.22005 1.67578,-0.22005 q 0.87174,0 1.63346,0.72786 q 0.77018,0.7194 1.14258,1.42187 q 0.37239,0.69401 0.37239,0.79557 q 0,1.15951 -1.73502,3.20768 q -1.72656,2.04817 -3.77473,3.1569 z m 21.37562,-3.03841 h 0.347 q 1.12565,0 2.14127,-0.0339 q 0.96485,-0.0339 1.54883,-0.0846 q 0.86328,-0.0846 1.24414,-0.0846 q 1.32031,0 1.32031,0.67708 q 0,0.66015 -0.6263,0.66015 l -0.72787,0.0339 l -1.4388,-0.0339 q -0.16927,0 -0.50781,0.0339 q -0.33854,0.0339 -0.51627,0.0339 q -0.60938,0 -1.36263,0.0592 q -0.75325,0.0592 -1.11719,0.0592 q -0.22005,0 -0.694,-0.0846 q -0.47396,-0.0846 -0.66862,-0.0846 q -0.20313,0 -0.36393,-0.21159 q -0.16081,-0.21159 -0.16081,-0.41471 q 0,-0.0677 0.0846,-0.22005 q 0.0931,-0.15235 0.16081,-0.22852 q 0.0677,-0.0762 1.33724,-0.0762 z m 29.67835,1.13411 q -1.16797,-0.42317 -2.80989,-0.33008 q -0.2793,0.96485 -0.2793,1.80274 l 0.008,0.38085 v 0.34701 l 0.008,0.38086 q 0.008,0.33007 0,0.44856 q -0.008,0.11003 0.22005,0.38933 q 0.22005,0.27083 0.22005,0.37239 q 0,0.25391 -0.2793,0.55859 q -0.27083,0.31315 -0.52474,0.31315 q -0.66861,0 -0.88867,-0.31315 q -0.22005,-0.30468 -0.22005,-0.92252 q 0,-0.33008 0.0677,-1.04101 q 0.0593,-0.68555 0.0762,-1.03255 q 0.0339,-0.82097 0.20313,-1.58268 q -0.20313,-0.0339 -0.60091,-0.0339 q -1.80273,0 -2.91992,0.29623 q -1.21875,0.33007 -2.20052,0.33007 q -0.40625,0 -0.91406,-0.57552 q 0.38086,-1.04947 4.13867,-4.02017 q 1.20182,-0.93945 1.94661,-1.61653 q 0.77864,-0.7194 1.73502,-1.43034 q 0.95638,-0.710936 1.12565,-0.710936 q 0.68555,0 0.68555,0.347006 q -0.0593,0.24544 -0.48243,1.76041 q -0.73632,2.88606 -0.93098,4.21484 q 0.55013,0.21159 1.99739,0.21159 h 0.58398 q 0.48242,0 0.70247,0.20312 q 0.22852,0.19466 0.22852,0.83789 q 0,0.19466 -0.15234,0.347 q -0.15235,0.15235 -0.34701,0.15235 q -0.23698,0 -0.39778,-0.0846 z m -3.07226,-5.67056 q -0.31315,0.31315 -1.4388,1.20182 q -0.93945,0.74479 -1.32878,1.1595 q -0.90559,0.95638 -2.47981,2.09049 q 0,0.12696 0.15234,0.12696 q 0.33008,-0.13542 2.47982,-0.2793 q 1.21028,-0.0846 1.76887,-0.24544 q 0.0677,-0.54167 0.24545,-1.21875 q 0.60091,-2.28515 0.60091,-2.83528 z m 18.00712,3.27538 q -0.21159,0 -0.45703,-0.39778 q -0.23698,-0.39779 -0.23698,-0.66016 q 0,-0.11849 0.26237,-0.58398 q 0.27083,-0.47396 0.84635,-0.47396 q 0.0592,0 0.43164,0.22005 q 0.3724,0.21159 0.4401,0.34701 q 0.0677,0.12695 0.0677,0.47396 q 0,0.30468 -0.347,0.69401 q -0.34701,0.38085 -1.00716,0.38085 z m -0.0339,6.27994 q -0.49088,0 -0.66015,-0.24544 q -0.16081,-0.25391 -0.16081,-0.76172 q 0,-0.41471 0.0339,-0.61784 q 0.0338,-0.20312 0.33854,-0.42317 q 0.30468,-0.22852 0.51627,-0.22852 q 0.39779,0 0.75326,0.17774 q 0.35546,0.16927 0.35546,0.49934 q 0,0.70248 -0.5332,1.15104 q -0.52474,0.44857 -0.64323,0.44857 z m 24.7864,-3.88476 q -1.16796,-0.42317 -2.80989,-0.33008 q -0.27929,0.96485 -0.27929,1.80274 l 0.008,0.38085 v 0.34701 l 0.008,0.38086 q 0.008,0.33007 0,0.44856 q -0.008,0.11003 0.22006,0.38933 q 0.22005,0.27083 0.22005,0.37239 q 0,0.25391 -0.2793,0.55859 q -0.27083,0.31315 -0.52474,0.31315 q -0.66862,0 -0.88867,-0.31315 q -0.22005,-0.30468 -0.22005,-0.92252 q 0,-0.33008 0.0677,-1.04101 q 0.0592,-0.68555 0.0762,-1.03255 q 0.0339,-0.82097 0.20313,-1.58268 q -0.20313,-0.0339 -0.60091,-0.0339 q -1.80274,0 -2.91992,0.29623 q -1.21875,0.33007 -2.20052,0.33007 q -0.40625,0 -0.91406,-0.57552 q 0.38086,-1.04947 4.13867,-4.02017 q 1.20182,-0.93945 1.94661,-1.61653 q 0.77864,-0.7194 1.73502,-1.43034 q 0.95638,-0.710936 1.12565,-0.710936 q 0.68554,0 0.68554,0.347006 q -0.0592,0.24544 -0.48242,1.76041 q -0.73632,2.88606 -0.93099,4.21484 q 0.55013,0.21159 1.9974,0.21159 h 0.58398 q 0.48242,0 0.70247,0.20312 q 0.22852,0.19466 0.22852,0.83789 q 0,0.19466 -0.15235,0.347 q -0.15234,0.15235 -0.347,0.15235 q -0.23698,0 -0.39779,-0.0846 z m -3.07226,-5.67056 q -0.31315,0.31315 -1.43879,1.20182 q -0.93946,0.74479 -1.32878,1.1595 q -0.9056,0.95638 -2.47981,2.09049 q 0,0.12696 0.15234,0.12696 q 0.33008,-0.13542 2.47982,-0.2793 q 1.21028,-0.0846 1.76887,-0.24544 q 0.0677,-0.54167 0.24544,-1.21875 q 0.60091,-2.28515 0.60091,-2.83528 z"
 id="text4"
 style="font-size:17.3333px;line-height:1.6;font-family:'Segoe Print QD';-inkscape-font-specification:'Segoe Print QD';text-align:center;letter-spacing:0.999999px;word-spacing:2px;baseline-shift:baseline;text-anchor:middle;stroke-width:0.999999px"
 transform="matrix(0.26458333,0,0,0.26458333,37.287858,-8.2593151)"
 aria-label="G = 5² + ( 7 − 3 ) × 2 − 4 : 4" />
<path
 d="m 107.16595,98.934751 q 0.32161,0 0.56705,0.236978 q 0.24545,0.228515 0.24545,0.583984 q 0,0.600907 -0.3724,2.632157 q -0.45703,2.48828 -0.64323,5.30663 q -0.18619,2.80989 -0.18619,3.52083 q 0,0.38932 -0.35547,0.77018 q -0.34701,0.38086 -0.60938,0.38086 q -0.27929,0 -0.52474,-0.22852 q -0.24544,-0.22005 -0.24544,-0.55859 q 0,-0.30469 0.26237,-2.1582 q 0.22005,-1.56575 0.22005,-2.25976 q 0,-0.40625 -0.11849,-0.5586 q -0.11849,-0.15234 -0.39778,-0.15234 q -0.42318,0 -1.65885,0.0931 q -1.33724,0.11003 -1.66732,0.11003 q -0.347,0 -1.768874,0.11002 q -1.413408,0.11003 -1.565752,0.19466 q -0.14388,0.0762 -0.304687,1.11719 q -0.152343,1.03255 -0.186197,1.71809 q -0.04232,1.17643 -0.270833,1.94661 q -0.220052,0.76172 -0.57552,0.76172 q -0.245442,0 -0.609374,-0.38932 q -0.355468,-0.38086 -0.355468,-0.77018 q 0,-0.33854 0.203125,-1.1595 q 0.279296,-1.12565 0.668618,-4.02018 q 0.397786,-2.89452 0.685546,-6.01757 q 0.01693,-0.20312 0.228515,-0.414708 q 0.211588,-0.211588 0.448567,-0.211588 q 0.829425,0 0.829425,1.193356 q 0,0.70247 -0.304687,2.25976 q -0.270832,1.40495 -0.270832,2.03125 q 0,0.26237 0.16927,0.38086 q 0.169271,0.11849 0.804035,0.11849 q 1.388023,0 3.732413,-0.22006 q 2.35286,-0.22851 2.5306,-0.64322 q 0.18619,-0.42318 0.37239,-1.9043 q 0.19466,-1.48958 0.19466,-3.10611 q 0,-0.186198 0.26237,-0.440104 q 0.26237,-0.253905 0.56706,-0.253905 z m 21.18942,5.958319 q -0.1862,0 -0.51628,-0.14388 q -0.36393,-0.12695 -0.5332,-0.12695 q -0.12695,0 -0.3724,0.0423 q -0.2539,0.0508 -0.38932,0.0508 q -0.26237,0 -0.76172,-0.0508 q -0.50781,-0.0508 -0.83788,-0.0508 q -0.62631,0 -1.65039,0.11849 q -1.03255,0.12695 -1.68424,0.12695 q -0.36394,0 -0.53321,-0.11003 q -0.16927,-0.11849 -0.16927,-0.52474 q 0,-0.24544 0.14388,-0.44856 q 0.15235,-0.21159 0.88867,-0.33008 q 0.73633,-0.12695 1.19336,-0.12695 q 0.1862,0 0.5332,0.0423 q 0.4655,0.0339 1.59115,0.008 q 1.12564,-0.0339 1.73502,-0.16927 q 0.0508,-0.0169 0.64323,-0.008 q 0.60091,0.008 0.98176,0.29623 q 0.38933,0.27929 0.38933,0.67708 q 0,0.72786 -0.65169,0.72786 z m -2.9707,3.96093 h -1.03255 l -2.65755,0.0423 q -0.13542,0 -0.38086,-0.35547 q -0.24544,-0.35547 -0.24544,-0.5332 q 0,-0.25391 0.57552,-0.38086 q 0.57552,-0.13542 1.02409,-0.13542 l 2.12434,0.0508 q 0.26237,0 0.61784,-0.0592 q 0.42318,-0.0762 0.99023,-0.0762 q 1.04101,0 1.88737,0.20312 q 0.84635,0.20313 0.84635,0.70248 q 0,0.23698 -0.13542,0.47395 q -0.13541,0.22852 -0.27083,0.22852 q -0.22005,0 -0.79557,-0.10156 q -0.70247,-0.10157 -1.07487,-0.0762 q -0.37239,0.0169 -1.47265,0.0169 z m 16.66143,-0.57552 v -0.27929 q 0,-1.24414 0.22851,-2.13281 q 0.23698,-0.89714 0.9056,-2.36133 q 0.9056,-1.95507 1.33724,-2.47981 q 0.19466,-0.24544 1.45573,-1.388017 q 0.77018,-0.702472 1.15103,-0.863279 q 0.38086,-0.169271 0.61784,-0.169271 q 0.36393,0 0.36393,0.440103 q 0,0.28776 -1.21874,1.455724 q -1.65039,1.54883 -2.66601,3.63086 q -1.01563,2.08202 -1.01563,3.62238 q 0,0.73633 0.41472,2.84375 q 0.0508,0.26237 0.0677,0.39778 q 0.2793,1.3711 0.66016,2.05664 q 0.38086,0.68555 1.21028,1.40495 q 0.9056,0.77864 0.9056,1.21874 q 0,0.49089 -0.82943,0.49089 q -0.50781,0 -1.19335,-0.77018 q -0.67708,-0.77018 -1.22721,-1.59115 q -0.54167,-0.81249 -0.85482,-2.68293 q -0.31315,-1.87891 -0.31315,-2.84375 z m 23.11064,-2.20898 q 0,0 0.48242,-3.57161 q -0.49088,0 -1.36263,0.59245 q -1.54882,1.01562 -2.72525,1.01562 q -0.38086,0 -0.38086,-0.5332 q 0,-0.33854 0.12695,-0.44856 q 0.13542,-0.11003 1.1849,-0.5586 q 1.04947,-0.45703 2.64062,-1.40494 q 1.59114,-0.94792 1.73502,-0.94792 q 0.27083,0 0.46549,0.3724 q 0.19466,0.37239 0.19466,0.65169 q 0,0.23698 -0.24544,0.48242 q -0.82942,3.62239 -0.96484,5.55207 q -0.13542,1.92122 -0.0423,2.24284 l 0.21159,1.28645 l 0.0339,0.49935 q 0,0.57552 -0.96485,0.57552 q -0.95637,0 -0.77864,-1.81119 q 0.36393,-3.69856 0.38932,-3.99479 z m 11.19855,6.01757 q -0.99024,0 -1.64193,-0.92253 q -0.64323,-0.92252 -0.80403,-2.30207 q -0.20313,-1.68425 0.29622,-3.71549 q 0.50781,-2.03125 1.7858,-3.33463 q 1.28646,-1.30338 2.37825,-1.30338 q 0.80404,0 1.8112,0.72786 q 1.01562,0.72786 1.48958,1.63346 q 0.48242,0.9056 0.66862,2.40364 q 0.27083,2.24284 -1.58268,4.52799 q -1.85351,2.28515 -4.40103,2.28515 z m 3.1315,-9.93618 q -0.11003,0.24544 -0.41471,0.24544 q -0.0423,0 -0.25391,-0.1862 q -0.22005,-0.19466 -0.38086,-0.19466 q -0.75325,0 -1.1595,0.33008 q -0.40625,0.32162 -1.05794,1.3457 q -0.64323,1.02409 -0.98177,2.2513 q -0.33854,1.21875 -0.1862,2.47981 q 0.17774,1.49805 0.73633,1.8789 q 0.55859,0.38086 1.1595,0.38086 q 0.76172,0 1.80273,-0.83789 q 1.04948,-0.83788 1.86198,-2.14973 q 0.8125,-1.32031 0.71094,-2.14974 q -0.0508,-0.47395 -0.23698,-1.10025 q -0.1862,-0.63477 -0.35547,-0.87175 q -0.16081,-0.23698 -0.58398,-0.76171 q -0.42318,-0.52474 -0.66016,-0.66016 z m 17.19463,4.53645 h 0.34701 q 1.12564,0 2.14127,-0.0339 q 0.96484,-0.0339 1.54882,-0.0846 q 0.86328,-0.0846 1.24414,-0.0846 q 1.32031,0 1.32031,0.67708 q 0,0.66015 -0.6263,0.66015 l -0.72786,0.0339 l -1.4388,-0.0339 q -0.16927,0 -0.50781,0.0339 q -0.33854,0.0339 -0.51628,0.0339 q -0.60937,0 -1.36263,0.0592 q -0.75325,0.0592 -1.11718,0.0592 q -0.22005,0 -0.69401,-0.0846 q -0.47396,-0.0846 -0.66862,-0.0846 q -0.20312,0 -0.36393,-0.21159 q -0.16081,-0.21159 -0.16081,-0.41471 q 0,-0.0677 0.0846,-0.22005 q 0.0931,-0.15235 0.1608,-0.22852 q 0.0677,-0.0762 1.33724,-0.0762 z m 25.94592,-0.1862 q 0.89713,0.36393 1.75195,1.24414 q 0.86328,0.87174 0.86328,1.59961 q 0,0.76171 -0.27083,1.35416 q -0.26237,0.58398 -1.74349,0.98177 q -1.48112,0.38932 -2.35286,0.38932 q -0.66016,0 -1.63346,-0.22851 q -0.97331,-0.23698 -1.30338,-0.64323 q -0.32162,-0.41471 -0.32162,-1.12565 q 0,-0.59245 0.52474,-1.28646 q 0.52474,-0.70247 1.28646,-1.20182 q 0.94791,-0.65169 1.18489,-0.83789 l -0.44857,-0.2539 q -1.27799,-0.67708 -1.81119,-1.32031 q -0.52474,-0.65169 -0.52474,-1.21029 q 0,-0.60091 0.42318,-1.11718 q 0.43164,-0.52474 1.7858,-1.26107 q 0.33854,-0.17773 0.66016,-0.37239 q 0.74479,-0.4655 1.84504,-0.4655 q 0.35547,0 1.04948,0.29623 q 0.69401,0.28776 0.9056,0.52474 q 0.22005,0.22851 0.32161,0.91406 q 0.0931,0.66862 0.11003,0.67708 q 0.10156,-0.12695 0.22005,-0.31315 q 0.14388,-0.23698 0.19466,-0.29622 q 0.17774,0.0423 0.35547,0.26237 q 0.1862,0.22005 0.1862,0.41471 q 0,0.21159 -0.51628,0.93099 q -0.51627,0.7194 -1.3457,1.29492 q -1.15104,0.81249 -1.39648,1.04947 z m -0.87174,-0.5332 q 2.03124,-1.64192 2.03124,-2.42903 q 0,-0.67708 -0.42317,-1.10026 q -0.42318,-0.42318 -1.10026,-0.42318 q -0.76172,0 -1.86198,0.70248 q -1.10026,0.70247 -1.10026,1.13411 q 0,0.74479 1.83659,1.76041 q 0.39778,0.22005 0.61784,0.35547 z m 2.14973,3.44465 q 0,-0.50781 -0.71093,-1.17643 q -0.71094,-0.67708 -1.52344,-1.00715 q -2.58137,1.81119 -2.58137,2.86067 q 0,0.35546 0.47395,0.55859 q 0.48242,0.20312 0.88021,0.20312 q 1.89583,0 2.67447,-0.38932 q 0.78711,-0.38932 0.78711,-0.87174 z m 16.76299,6.76236 q -0.27929,0 -0.52474,-0.1862 q -0.23697,-0.17773 -0.23697,-0.37239 q 0,-0.16927 0.13541,-0.42318 q 0.14388,-0.2539 0.95638,-1.27799 q 0.57552,-0.69401 1.26953,-2.49674 q 0.70247,-1.80273 0.70247,-2.22591 q 0,-2.70832 -0.76172,-4.82421 q -0.76171,-2.11588 -1.3457,-3.05533 q -0.58398,-0.94791 -1.70116,-1.963537 q -0.10157,-0.101562 -0.10157,-0.347004 q 0,-0.126953 0.24545,-0.338541 q 0.24544,-0.211588 0.49934,-0.211588 q 0.3724,0 0.80404,0.482421 q 0.4401,0.473957 1.32877,1.836589 q 0.88867,1.35416 1.10872,2.10741 q 0.22006,0.7194 0.45703,1.40495 q 0.68555,1.99739 0.68555,4.26562 q 0,3.08072 -2.09049,5.77212 q -0.35547,0.47396 -0.50781,0.76172 q -0.26237,0.50781 -0.4655,0.79557 q -0.20312,0.29622 -0.45703,0.29622 z m 10.66535,-16.673143 q -0.0931,-0.03385 -0.43164,-0.03385 q -0.54166,0 -1.35416,0.465494 l -0.64323,0.347003 q -0.22005,0.11849 -0.51628,0.11849 q -0.17773,0 -0.33854,-0.22005 q -0.1608,-0.220053 -0.1608,-0.423177 q 0,-0.270833 0.30468,-0.43164 q 0.30469,-0.169271 1.32031,-0.406249 q 0.17774,-0.04232 0.29623,-0.0931 q 1.04101,-0.414713 1.73502,-0.414713 q 1.09179,0 1.09179,0.914061 q 0,0.677077 -0.77864,1.388017 q -0.74479,0.56706 -0.74479,0.67708 q 0,0.0339 0.0677,0.0339 q 0.10156,0 0.33854,-0.13542 q 0.24544,-0.14388 0.35547,-0.14388 q 0.41471,0 0.83789,0.34701 q 0.42317,0.347 0.42317,0.76171 q 0,0.59245 -0.82096,1.55729 q -0.82096,0.96484 -2.39518,1.54883 q -1.56575,0.57552 -2.45442,0.57552 q -0.17773,0 -0.32161,-0.1862 q -0.14388,-0.19466 -0.14388,-0.38932 q 0,-0.58399 0.24544,-0.74479 q 0.24544,-0.16081 0.77864,-0.16081 q 0.0592,0 0.15235,0.0254 q 0.0846,0.0339 0.12695,0.0339 q 0.33854,0 0.93099,-0.16927 l 0.36393,-0.0931 q 0.57552,-0.11848 1.48111,-0.7194 q 0.91407,-0.60091 0.91407,-1.03255 q 0,-0.29622 -0.57552,-0.29622 q -0.17774,0 -0.93946,0.11003 q -0.76171,0.11002 -0.96484,0.18619 q -0.20312,0.0846 -0.36393,0.0846 q -0.60937,0 -0.60937,-0.58398 q 0,-0.17774 0.21159,-0.43164 q 0.21158,-0.26237 0.39778,-0.26237 l 0.33008,0.0508 q 0.2793,0 1.14257,-0.63477 q 0.87175,-0.64322 0.87175,-1.083327 q 0,-0.110026 -0.16081,-0.135416 z m 15.95897,7.185533 h 0.347 q 1.12565,0 2.14127,-0.0339 q 0.96484,-0.0339 1.54883,-0.0846 q 0.86328,-0.0846 1.24413,-0.0846 q 1.32031,0 1.32031,0.67708 q 0,0.66015 -0.6263,0.66015 l -0.72786,0.0339 l -1.4388,-0.0339 q -0.16927,0 -0.50781,0.0339 q -0.33854,0.0339 -0.51628,0.0339 q -0.60937,0 -1.36262,0.0592 q -0.75326,0.0592 -1.11719,0.0592 q -0.22005,0 -0.69401,-0.0846 q -0.47395,-0.0846 -0.66862,-0.0846 q -0.20312,0 -0.36393,-0.21159 q -0.1608,-0.21159 -0.1608,-0.41471 q 0,-0.0677 0.0846,-0.22005 q 0.0931,-0.15235 0.16081,-0.22852 q 0.0677,-0.0762 1.33724,-0.0762 z m 23.16988,3.03841 q 0.4401,-0.0339 1.33723,-0.0339 q 1.10873,0 3.68164,0.16081 q 0.70247,0.0339 0.89713,0.0254 q 0.20313,-0.008 0.52474,-0.13542 q 0.347,-0.13541 0.52474,-0.13541 q 0.14388,0 0.33008,0.22005 q 0.19466,0.21159 0.19466,0.36393 q 0,0.55013 -0.57552,0.86328 q -0.57552,0.30469 -1.02409,0.30469 h -0.31315 q -0.8125,0 -1.19336,-0.11003 q -1.17643,-0.31315 -2.92838,-0.31315 q -1.49804,0 -2.63215,0.36393 q -1.13412,0.36393 -1.47266,0.77018 q -0.38085,0.45703 -0.57552,0.56706 q -0.18619,0.11849 -0.51627,0.11849 q -0.66016,0 -0.66016,-0.58399 q 0,-0.88867 0.72787,-1.56575 q 0.72786,-0.68554 2.44596,-1.55729 q 1.00716,-0.49934 1.22721,-0.68554 q 0.22005,-0.1862 1.21028,-1.0918 q 0.9987,-0.90559 1.51497,-1.55729 q 0.51628,-0.65169 0.73633,-1.1595 q 0.22851,-0.51627 0.22851,-0.94791 q 0,-0.59245 -0.70247,-1.20182 q -0.70247,-0.61784 -1.30338,-0.61784 q -0.51628,0 -1.55729,0.65169 q -1.04101,0.64323 -1.54883,1.24414 q -0.33007,0.38932 -1.00715,0.38932 q -0.16081,0 -0.34701,-0.36393 q -0.1862,-0.36393 -0.1862,-0.58398 q 0,-0.16081 0.0423,-0.22006 q 0.0423,-0.0592 0.84635,-0.63476 q 0.8125,-0.57552 1.45573,-0.99023 q 0.65169,-0.42318 1.30338,-0.64323 q 0.65169,-0.22005 1.67578,-0.22005 q 0.87174,0 1.63346,0.72786 q 0.77018,0.7194 1.14258,1.42187 q 0.37239,0.69401 0.37239,0.79557 q 0,1.15951 -1.73502,3.20768 q -1.72656,2.04817 -3.77473,3.1569 z m 24.04163,-1.57422 q -0.0762,0.008 -0.64323,0.65169 q -0.57552,0.66016 -0.6263,0.69401 l -1.28646,1.37109 q -0.22851,0.24544 -0.40625,0.24544 q -0.16927,0 -0.37239,-0.20312 q -0.20313,-0.20313 -0.20313,-0.38932 q 0,-0.15235 0.15235,-0.33008 q 0.1608,-0.17773 0.8125,-0.73633 q 0.57552,-0.49935 0.7871,-0.83789 q 0.10157,-0.14388 0.56706,-0.60937 q 0.49088,-0.49088 0.49088,-0.56706 q 0,-0.11002 -1.0664,-1.13411 l -1.41341,-1.36263 q -0.16927,-0.22005 -0.16927,-0.41471 q 0,-0.2539 0.17773,-0.42318 q 0.17774,-0.16927 0.44011,-0.16927 q 0.11849,0 0.50781,0.2793 q 0.38932,0.2793 0.49935,0.44857 q 0.64323,0.95638 1.75195,2.11588 q 0.82096,-0.60938 1.66731,-1.72656 q 0.77865,-1.03255 1.26107,-1.03255 q 0.19466,0 0.36393,0.11849 q 0.17773,0.11002 0.17773,0.27929 q 0,0.32162 -0.12695,0.49935 q -0.11849,0.16927 -0.9056,0.85482 q -1.67578,1.4388 -1.67578,1.61653 q 0,0.0677 0.79558,0.86328 q 0.19466,0.1862 0.57552,0.69401 q 0.4401,0.57552 0.77864,0.91406 q 0.60937,0.49089 0.60937,0.80404 q 0,0.15234 -0.12695,0.36393 q -0.11849,0.20312 -0.27083,0.20312 q -0.32162,0 -0.54167,-0.13541 q -0.22005,-0.13542 -0.7194,-0.75326 q -0.30468,-0.38932 -0.49088,-0.56705 q -0.28776,-0.29623 -0.73633,-0.86328 q -0.4401,-0.57552 -0.63476,-0.76172 z m 21.5872,-2.08203 q 0,0 0.48242,-3.57161 q -0.49088,0 -1.36263,0.59245 q -1.54882,1.01562 -2.72525,1.01562 q -0.38086,0 -0.38086,-0.5332 q 0,-0.33854 0.12695,-0.44856 q 0.13542,-0.11003 1.1849,-0.5586 q 1.04947,-0.45703 2.64062,-1.40494 q 1.59114,-0.94792 1.73502,-0.94792 q 0.27083,0 0.46549,0.3724 q 0.19466,0.37239 0.19466,0.65169 q 0,0.23698 -0.24544,0.48242 q -0.82942,3.62239 -0.96484,5.55207 q -0.13542,1.92122 -0.0423,2.24284 l 0.21159,1.28645 l 0.0339,0.49935 q 0,0.57552 -0.96484,0.57552 q -0.95638,0 -0.77864,-1.81119 q 0.36393,-3.69856 0.38932,-3.99479 z m 8.29556,7.41405 q 1.57421,-0.38932 2.02278,-1.10872 q 0.44857,-0.71094 0.44857,-1.01562 q 0,-0.86328 -0.23698,-1.21875 q -0.11003,-0.16081 -0.11003,-0.31315 q 0,-0.12696 0.11003,-0.36393 q 0.11849,-0.23698 0.23698,-0.23698 q 0.17773,0 0.55859,0.13541 q 0.38086,0.12696 0.44856,0.22852 q 0.0677,0.0931 0.22006,0.6263 q 0.1608,0.5332 0.1608,0.91406 q 0,0.14388 -0.32161,0.88867 q -0.31315,0.75325 -0.86328,1.16797 q -0.55013,0.42317 -1.03255,0.51627 q -0.19466,0.0339 -0.36393,0.0931 q -0.66862,0.29622 -1.0918,0.29622 q -0.24544,0 -0.24544,-0.39778 q 0,-0.15234 0.0593,-0.21159 z m 11.5794,-10.93487 q -0.48242,0.45703 -1.14257,1.4388 q -0.17774,0.26236 -0.28776,0.41471 q -0.11849,0.1608 -0.16081,0.22851 q 0.47396,0.28776 1.83659,0.48242 q 1.74348,0.25391 2.58983,0.57552 q 0.85482,0.32162 1.22722,0.93946 q 0.38085,0.60937 0.38085,1.66731 q 0,0.66015 -0.60937,1.48112 q -0.60937,0.82096 -2.03125,1.55729 q -1.42187,0.73632 -3.14843,0.73632 q -1.41341,0 -2.42903,-0.55859 q -1.00716,-0.55859 -1.00716,-0.93945 q 0,-0.8125 1.02409,-0.8125 q 0.22851,0 0.49088,0.21159 q 0.93945,0.66015 2.1582,0.66015 q 1.29492,0 2.65755,-0.77018 q 1.37109,-0.77018 1.37109,-1.47265 q 0,-0.89714 -0.66862,-1.37109 q -0.66015,-0.48242 -2.0651,-0.63477 l -1.91276,-0.21159 q -0.80403,-0.10156 -1.24413,-0.41471 q -0.44011,-0.32161 -0.44011,-0.59244 q 0,-0.28776 0.31315,-0.6517 q 0.0677,-0.0931 0.73633,-1.0664 q 1.37955,-2.05664 1.73502,-2.16666 q 0.36393,-0.11849 4.57031,-0.25391 q 0.74479,-0.0169 1.54036,-0.24544 q 0.6263,-0.16927 0.77864,-0.16927 q 0.52474,0 0.91406,0.31315 q 0.2793,0.14388 0.2793,0.31315 q 0,0.24544 -0.31315,0.61784 q -0.31315,0.37239 -0.9056,0.45703 q -0.58398,0.0846 -1.46419,0.0846 l -2.82682,-0.0846 q -1.24413,0 -1.94661,0.23698 z m 26.80073,5.04426 q -0.17774,0.22851 -0.77865,0.22851 q -0.22005,0 -0.72786,-0.0592 q -0.57552,-0.0677 -0.82942,-0.0677 h -0.5586 q -0.24544,0 -0.4401,0.008 h -0.40625 q -0.20312,0 -0.43164,0.008 q -0.1862,0.36393 -0.1862,1.15104 q 0,0.96484 -0.0423,1.21028 q -0.0423,0.23698 -0.0169,0.67708 q 0.0254,0.43164 -0.4655,0.43164 q -0.36393,0 -0.48242,-0.13541 q -0.11002,-0.14388 -0.11002,-0.50782 q 0,-0.19466 0.14388,-1.32877 q 0.0677,-0.55013 0.13541,-1.49804 q -0.54166,-0.0508 -1.63346,-0.0508 q -0.18619,0 -0.49934,0.0846 q -0.33008,0.0762 -0.43164,0.0762 q -0.22852,0 -0.41472,-0.16927 q -0.17773,-0.17773 -0.17773,-0.40625 q 0,-0.16927 0.11849,-0.35547 q 0.12695,-0.19466 0.27929,-0.19466 q 0.29623,0 0.61784,0.0592 q 0.33008,0.0592 0.49089,0.0592 l 1.70116,-0.0846 q 0.10157,-0.32162 0.10157,-0.66016 q 0,-0.45703 -0.0677,-1.55729 q -0.0339,-0.45703 -0.0339,-0.7871 q 0,-0.28776 0.16928,-0.57552 q 0.17773,-0.28776 0.4401,-0.28776 q 0.13541,0 0.29622,0.27929 q 0.16927,0.2793 0.16927,0.43164 q 0,0.44011 -0.0762,1.17643 q -0.0762,0.73633 -0.0762,1.00716 q 0,0.43164 0.0508,0.86328 q 0.16927,0.0593 0.99023,0.0593 l 1.93815,-0.0339 q 0.78711,0 1.01562,0.16927 q 0.22852,0.16927 0.22852,0.77865 z m 12.26887,0.68554 v -0.27929 q 0,-1.24414 0.22852,-2.13281 q 0.23698,-0.89714 0.9056,-2.36133 q 0.90559,-1.95507 1.33723,-2.47981 q 0.19466,-0.24544 1.45573,-1.388017 q 0.77018,-0.702472 1.15104,-0.863279 q 0.38086,-0.169271 0.61784,-0.169271 q 0.36393,0 0.36393,0.440103 q 0,0.28776 -1.21875,1.455724 q -1.65039,1.54883 -2.66601,3.63086 q -1.01562,2.08202 -1.01562,3.62238 q 0,0.73633 0.41471,2.84375 q 0.0508,0.26237 0.0677,0.39778 q 0.27929,1.3711 0.66015,2.05664 q 0.38086,0.68555 1.21029,1.40495 q 0.90559,0.77864 0.90559,1.21874 q 0,0.49089 -0.82942,0.49089 q -0.50781,0 -1.19336,-0.77018 q -0.67708,-0.77018 -1.22721,-1.59115 q -0.54166,-0.81249 -0.85482,-2.68293 q -0.31315,-1.87891 -0.31315,-2.84375 z m 28.4088,-0.45703 q -1.16797,-0.42317 -2.80989,-0.33008 q -0.2793,0.96485 -0.2793,1.80274 l 0.008,0.38085 v 0.34701 l 0.008,0.38086 q 0.008,0.33007 0,0.44856 q -0.008,0.11003 0.22005,0.38933 q 0.22005,0.27083 0.22005,0.37239 q 0,0.25391 -0.2793,0.55859 q -0.27083,0.31315 -0.52473,0.31315 q -0.66862,0 -0.88867,-0.31315 q -0.22006,-0.30468 -0.22006,-0.92252 q 0,-0.33008 0.0677,-1.04101 q 0.0593,-0.68555 0.0762,-1.03255 q 0.0339,-0.82097 0.20313,-1.58268 q -0.20313,-0.0339 -0.60091,-0.0339 q -1.80273,0 -2.91992,0.29623 q -1.21875,0.33007 -2.20051,0.33007 q -0.40625,0 -0.91406,-0.57552 q 0.38085,-1.04947 4.13866,-4.02017 q 1.20182,-0.93945 1.94661,-1.61653 q 0.77864,-0.7194 1.73502,-1.43034 q 0.95638,-0.710936 1.12565,-0.710936 q 0.68555,0 0.68555,0.347006 q -0.0592,0.24544 -0.48242,1.76041 q -0.73633,2.88606 -0.93099,4.21484 q 0.55013,0.21159 1.99739,0.21159 h 0.58398 q 0.48242,0 0.70248,0.20312 q 0.22851,0.19466 0.22851,0.83789 q 0,0.19466 -0.15234,0.347 q -0.15235,0.15235 -0.34701,0.15235 q -0.23698,0 -0.39778,-0.0846 z m -3.07226,-5.67056 q -0.31315,0.31315 -1.4388,1.20182 q -0.93945,0.74479 -1.32877,1.1595 q -0.9056,0.95638 -2.47982,2.09049 q 0,0.12696 0.15235,0.12696 q 0.33007,-0.13542 2.47981,-0.2793 q 1.21028,-0.0846 1.76888,-0.24544 q 0.0677,-0.54167 0.24544,-1.21875 q 0.60091,-2.28515 0.60091,-2.83528 z m 17.93944,4.53645 h 0.34701 q 1.12565,0 2.14127,-0.0339 q 0.96484,-0.0339 1.54882,-0.0846 q 0.86328,-0.0846 1.24414,-0.0846 q 1.32031,0 1.32031,0.67708 q 0,0.66015 -0.6263,0.66015 l -0.72786,0.0339 l -1.4388,-0.0339 q -0.16927,0 -0.50781,0.0339 q -0.33854,0.0339 -0.51628,0.0339 q -0.60937,0 -1.36263,0.0592 q -0.75325,0.0592 -1.11718,0.0592 q -0.22005,0 -0.69401,-0.0846 q -0.47396,-0.0846 -0.66862,-0.0846 q -0.20312,0 -0.36393,-0.21159 q -0.16081,-0.21159 -0.16081,-0.41471 q 0,-0.0677 0.0846,-0.22005 q 0.0931,-0.15235 0.1608,-0.22852 q 0.0677,-0.0762 1.33724,-0.0762 z m 29.67832,1.13411 q -1.16797,-0.42317 -2.80989,-0.33008 q -0.2793,0.96485 -0.2793,1.80274 l 0.008,0.38085 v 0.34701 l 0.008,0.38086 q 0.008,0.33007 0,0.44856 q -0.008,0.11003 0.22005,0.38933 q 0.22005,0.27083 0.22005,0.37239 q 0,0.25391 -0.27929,0.55859 q -0.27084,0.31315 -0.52474,0.31315 q -0.66862,0 -0.88867,-0.31315 q -0.22005,-0.30468 -0.22005,-0.92252 q 0,-0.33008 0.0677,-1.04101 q 0.0593,-0.68555 0.0762,-1.03255 q 0.0339,-0.82097 0.20312,-1.58268 q -0.20312,-0.0339 -0.60091,-0.0339 q -1.80273,0 -2.91992,0.29623 q -1.21874,0.33007 -2.20051,0.33007 q -0.40625,0 -0.91406,-0.57552 q 0.38086,-1.04947 4.13866,-4.02017 q 1.20182,-0.93945 1.94661,-1.61653 q 0.77865,-0.7194 1.73502,-1.43034 q 0.95638,-0.710936 1.12565,-0.710936 q 0.68555,0 0.68555,0.347006 q -0.0593,0.24544 -0.48242,1.76041 q -0.73633,2.88606 -0.93099,4.21484 q 0.55013,0.21159 1.99739,0.21159 h 0.58399 q 0.48242,0 0.70247,0.20312 q 0.22851,0.19466 0.22851,0.83789 q 0,0.19466 -0.15234,0.347 q -0.15234,0.15235 -0.34701,0.15235 q -0.23697,0 -0.39778,-0.0846 z m -3.07226,-5.67056 q -0.31315,0.31315 -1.4388,1.20182 q -0.93945,0.74479 -1.32877,1.1595 q -0.9056,0.95638 -2.47982,2.09049 q 0,0.12696 0.15235,0.12696 q 0.33007,-0.13542 2.47981,-0.2793 q 1.21028,-0.0846 1.76888,-0.24544 q 0.0677,-0.54167 0.24544,-1.21875 q 0.60091,-2.28515 0.60091,-2.83528 z m 17.38082,14.02406 q -0.2793,0 -0.52474,-0.1862 q -0.23698,-0.17773 -0.23698,-0.37239 q 0,-0.16927 0.13542,-0.42318 q 0.14388,-0.2539 0.95638,-1.27799 q 0.57552,-0.69401 1.26953,-2.49674 q 0.70247,-1.80273 0.70247,-2.22591 q 0,-2.70832 -0.76172,-4.82421 q -0.76172,-2.11588 -1.3457,-3.05533 q -0.58398,-0.94791 -1.70117,-1.963537 q -0.10156,-0.101562 -0.10156,-0.347004 q 0,-0.126953 0.24544,-0.338541 q 0.24544,-0.211588 0.49935,-0.211588 q 0.3724,0 0.80404,0.482421 q 0.4401,0.473957 1.32877,1.836589 q 0.88867,1.35416 1.10872,2.10741 q 0.22005,0.7194 0.45703,1.40495 q 0.68555,1.99739 0.68555,4.26562 q 0,3.08072 -2.09049,5.77212 q -0.35547,0.47396 -0.50782,0.76172 q -0.26236,0.50781 -0.46549,0.79557 q -0.20312,0.29622 -0.45703,0.29622 z m 10.58071,-16.40231 q 0,-0.135417 -0.19466,-0.135417 q -0.66015,0 -1.70117,0.516277 q -0.1608,0.0846 -0.23698,0.11002 q -0.0846,0.0339 -0.19466,0.16927 q -0.21158,0.26237 -0.31315,0.26237 q -0.46549,0 -0.46549,-0.77864 q 0,-0.507812 0.57552,-0.660155 q 0.15234,-0.03386 1.27799,-0.457031 q 0.84635,-0.321614 1.26953,-0.321614 q 0.38932,0 0.7194,0.296224 q 0.33854,0.296223 0.33854,0.710936 q 0,0.194661 -0.15234,0.68555 q -0.14388,0.48242 -0.26237,0.60937 q -1.21875,1.37955 -3.02148,3.65624 l 0.0169,0.0339 q 0.0169,0.0508 0.11002,0.0508 q 0.10156,0 0.57552,-0.14388 q 0.52474,-0.17774 2.30208,-0.44857 q 0.66016,-0.0931 0.9056,-0.15234 q 0.49088,-0.13542 0.75325,-0.13542 q 0.28776,0 0.48242,0.22852 q 0.19466,0.22851 0.19466,0.58398 q 0,0.23698 -0.22005,0.43164 q -0.22005,0.19466 -0.49088,0.19466 q -0.0846,0 -0.33854,-0.0677 q -0.26237,-0.0677 -0.35547,-0.0677 q -1.28646,0 -3.77473,0.79557 q -0.96485,0.31316 -1.30339,0.31316 q -0.29622,0 -0.52474,-0.16081 q -0.22005,-0.16081 -0.22005,-0.4655 q 0,-0.73632 3.27539,-4.10481 q 0.33854,-0.36393 0.66862,-0.86327 q 0.33007,-0.499353 0.30468,-0.68555 z"
 id="text5"
 style="font-size:17.3333px;line-height:1.6;font-family:'Segoe Print QD';-inkscape-font-specification:'Segoe Print QD';text-align:center;letter-spacing:0.999999px;word-spacing:2px;baseline-shift:baseline;text-anchor:middle;stroke-width:0.999999px"
 transform="matrix(0.26458333,0,0,0.26458333,26.696098,-0.00245454)"
 aria-label="H = ( 10 − 8 )³ − 2 × 1,5 + ( 4 − 4 )²" />
</g>
</svg>
