<?xml version="1.0" encoding="UTF-8" standalone="no"?>
<svg
 width="7.2199001cm"
 height="3.2369397cm"
 version="1.1"
 viewBox="0 0 72.199 32.369397"
 id="svg65"
 sodipodi:docname="seyes-1x.svg"
 inkscape:version="1.2.2 (1:1.2.2+202212051551+b0a8486541)"
 xml:space="preserve"
 xmlns:inkscape="http://www.inkscape.org/namespaces/inkscape"
 xmlns:sodipodi="http://sodipodi.sourceforge.net/DTD/sodipodi-0.dtd"
 xmlns="http://www.w3.org/2000/svg"
 xmlns:svg="http://www.w3.org/2000/svg"
 xmlns:rdf="http://www.w3.org/1999/02/22-rdf-syntax-ns#"
 xmlns:cc="http://creativecommons.org/ns#"
 xmlns:dc="http://purl.org/dc/elements/1.1/"><defs
 id="defs69" /><sodipodi:namedview
 id="namedview67"
 pagecolor="#ffffff"
 bordercolor="#666666"
 borderopacity="1.0"
 inkscape:showpageshadow="2"
 inkscape:pageopacity="0.0"
 inkscape:pagecheckerboard="0"
 inkscape:deskcolor="#d1d1d1"
 inkscape:document-units="cm"
 showgrid="false"
 inkscape:zoom="2.2092705"
 inkscape:cx="310.28342"
 inkscape:cy="154.57591"
 inkscape:current-layer="svg65" /><title
 id="title2"> Page réglure Séyès </title><desc
 id="desc4"> Page blanche A5 avec réglure Séyès </desc><metadata
 id="metadata1657"><rdf:RDF><cc:Work
 rdf:about=""><dc:title> Page réglure Séyès </dc:title></cc:Work></rdf:RDF></metadata><path
 id="line511"
 style="stroke:#c8c8de;stroke-width:0.398"
 d="m 0.0995,0.199 h 72"
 sodipodi:nodetypes="cc" /><path
 id="line680"
 style="stroke:#c8c8de;stroke-width:0.199"
 d="m 0.0995,2.197212 h 72"
 sodipodi:nodetypes="cc" /><path
 id="line1209"
 style="stroke:#c8c8de;stroke-width:0.199"
 d="m 0.0995,4.195424 h 72"
 sodipodi:nodetypes="cc" /><path
 id="line1213"
 style="stroke:#c8c8de;stroke-width:0.199"
 d="m 0.0995,6.193637 h 72"
 sodipodi:nodetypes="cc" /><path
 id="line690"
 style="stroke:#c8c8de;stroke-width:0.398"
 d="m 0.0995,8.191849 h 72"
 sodipodi:nodetypes="cc" /><path
 id="line360"
 style="stroke:#c8c8de;stroke-width:0.199"
 d="m 0.0995,10.190061 h 72"
 sodipodi:nodetypes="cc" /><path
 id="line1241"
 style="stroke:#c8c8de;stroke-width:0.199"
 d="m 0.0995,12.188274 h 72"
 sodipodi:nodetypes="cc" /><path
 id="line1245"
 style="stroke:#c8c8de;stroke-width:0.199"
 d="m 0.0995,14.186486 h 72"
 sodipodi:nodetypes="cc" /><path
 id="line370"
 style="stroke:#c8c8de;stroke-width:0.398"
 d="m 0.0995,16.184698 h 72"
 sodipodi:nodetypes="cc" /><path
 id="line754"
 style="stroke:#c8c8de;stroke-width:0.199"
 d="m 0.0995,18.18291 h 72"
 sodipodi:nodetypes="cc" /><path
 id="line1313"
 style="stroke:#c8c8de;stroke-width:0.199"
 d="m 0.0995,20.181123 h 72"
 sodipodi:nodetypes="cc" /><path
 id="line1317"
 style="stroke:#c8c8de;stroke-width:0.199"
 d="m 0.0995,22.179335 h 72"
 sodipodi:nodetypes="cc" /><path
 id="line764"
 style="stroke:#c8c8de;stroke-width:0.398"
 d="m 0.0995,24.177547 h 72"
 sodipodi:nodetypes="cc" /><path
 id="line475"
 style="stroke:#c8c8de;stroke-width:0.199"
 d="m 0.0995,26.17576 h 72"
 sodipodi:nodetypes="cc" /><path
 id="line1225"
 style="stroke:#c8c8de;stroke-width:0.199"
 d="m 0.0995,28.173972 h 72"
 sodipodi:nodetypes="cc" /><path
 id="line1229"
 style="stroke:#c8c8de;stroke-width:0.199"
 d="m 0.0995,30.172184 h 72"
 sodipodi:nodetypes="cc" /><path
 id="line485"
 style="stroke:#c8c8de;stroke-width:0.398"
 d="m 0.0995,32.170396 h 72"
 sodipodi:nodetypes="cc" /><path
 id="line43"
 style="stroke:#c8c8de;stroke-width:0.199"
 d="M 0.0995,0.199 V 32.170396"
 sodipodi:nodetypes="cc" /><path
 id="line832"
 style="stroke:#c8c8de;stroke-width:0.199"
 d="M 8.0995,0.199 V 32.170396"
 sodipodi:nodetypes="cc" /><path
 id="line519"
 style="stroke:#c8c8de;stroke-width:0.199"
 d="M 16.0995,0.199 V 32.170396"
 sodipodi:nodetypes="cc" /><path
 id="line694"
 style="stroke:#c8c8de;stroke-width:0.199"
 d="M 24.0995,0.199 V 32.170396"
 sodipodi:nodetypes="cc" /><path
 id="line382"
 style="stroke:#c8c8de;stroke-width:0.199"
 d="M 32.0995,0.199 V 32.170396"
 sodipodi:nodetypes="cc" /><path
 id="line840"
 style="stroke:#c8c8de;stroke-width:0.199"
 d="M 40.0995,0.199 V 32.170396"
 sodipodi:nodetypes="cc" /><path
 id="line493"
 style="stroke:#c8c8de;stroke-width:0.199"
 d="M 48.0995,0.199 V 32.170396"
 sodipodi:nodetypes="cc" /><path
 id="line836"
 style="stroke:#c8c8de;stroke-width:0.199"
 d="M 56.0995,0.199 V 32.170396"
 sodipodi:nodetypes="cc" /><path
 id="line304"
 style="stroke:#c8c8de;stroke-width:0.199"
 d="M 64.0995,0.199 V 32.170396"
 sodipodi:nodetypes="cc" /><path
 id="line800"
 style="stroke:#c8c8de;stroke-width:0.199"
 d="M 72.0995,0.199 V 32.170396"
 sodipodi:nodetypes="cc" /><g
 aria-label="1"
 id="text1836"
 style="font-size:5.64444px;line-height:9.23078px;font-family:'Segoe Print QD';-inkscape-font-specification:'Segoe Print QD';text-align:center;letter-spacing:0.264583px;word-spacing:0.529167px;text-anchor:middle;overflow:visible;fill:#0055d4;stroke-width:0.3;stop-color:#000000"><path
 d="m 20.364079,4.2940273 q 0,0 0.157097,-1.1630633 q -0.159853,0 -0.443728,0.1929252 q -0.504362,0.3307289 -0.887456,0.3307289 q -0.124024,0 -0.124024,-0.1736327 q 0,-0.110243 0.04134,-0.1460719 q 0.0441,-0.035829 0.385851,-0.1819009 Q 19.834913,3.0041845 20.353055,2.6955042 Q 20.871197,2.3868239 20.91805,2.3868239 q 0.08819,0 0.151584,0.1212673 q 0.06339,0.1212672 0.06339,0.2122177 q 0,0.07717 -0.07993,0.1570962 q -0.270095,1.1795998 -0.314193,1.8079848 q -0.0441,0.6256288 -0.01378,0.7303597 l 0.0689,0.4189233 l 0.01102,0.1626083 q 0,0.1874131 -0.314192,0.1874131 q -0.311437,0 -0.253559,-0.5897999 q 0.118511,-1.2044045 0.126779,-1.3008671 z"
 id="path1267" /></g><g
 aria-label="9"
 id="text1836-3"
 style="font-size:5.64444px;line-height:9.23078px;font-family:'Segoe Print QD';-inkscape-font-specification:'Segoe Print QD';text-align:center;letter-spacing:0.264583px;word-spacing:0.529167px;text-anchor:middle;overflow:visible;fill:#0055d4;stroke-width:0.3;stop-color:#000000"><path
 d="m 29.521636,3.1475004 q 0,0.082682 -0.06615,0.2370224 q -0.250803,0.6118485 -0.457509,1.3670129 q -0.203949,0.7524082 -0.203949,1.003211 q 0,0.4134111 -0.187413,0.4134111 q -0.168121,0 -0.231511,-0.1543401 q -0.06063,-0.1570963 -0.06063,-0.2756074 q 0,-0.1543402 0.2949,-1.1520391 l 0.05512,-0.1901691 l -0.04961,-0.035829 q -0.471289,0.2783635 -0.713823,0.3582897 q -0.239779,0.07717 -0.603581,0.07717 q -0.16812,0 -0.394118,-0.2508027 Q 26.677368,4.2912712 26.677368,4.1231507 q 0,-0.1736327 0.05236,-0.3279728 q 0.05237,-0.1543402 0.179145,-0.3252168 Q 27.035657,3.2963284 27.330557,3.05655 q 0.2949,-0.2397785 0.440972,-0.3114364 q 0.148828,-0.071658 0.440972,-0.146072 q 0.292144,-0.07717 0.451996,-0.07717 q 0.148828,0 0.267339,0.052366 q 0.121268,0.049609 0.2949,0.2122177 q 0.173633,0.1598523 0.212218,0.1763887 q 0.04134,0.016536 0.08268,0.184657 z M 29.042079,3.205378 Q 28.962153,2.9683556 28.568035,2.9683556 q -0.570508,0 -1.000455,0.407899 q -0.427192,0.407899 -0.427192,0.6587017 q 0,0.1819009 0.115755,0.2811196 q 0.118511,0.096463 0.303168,0.096463 q 0.192926,0 0.460265,-0.1212673 Q 28.289671,4.170004 28.504645,4.0349563 q 0.214974,-0.1378037 0.272851,-0.2039495 q 0.05788,-0.066146 0.110243,-0.2204859 Q 28.99247,3.2880602 29.042079,3.205378 Z"
 id="path1270" /></g><g
 aria-label="7"
 id="text1836-7"
 style="font-size:5.64444px;line-height:9.23078px;font-family:'Segoe Print QD';-inkscape-font-specification:'Segoe Print QD';text-align:center;letter-spacing:0.264583px;word-spacing:0.529167px;text-anchor:middle;overflow:visible;fill:#0055d4;stroke-width:0.3;stop-color:#000000"><path
 d="m 37.53753,2.5521884 q 0.16812,0 0.16812,0.1653644 q 0,0.079926 -0.02205,0.1129991 q -0.02205,0.030317 -0.151585,0.187413 Q 37.405238,3.1723051 37.308775,3.282548 q -0.101974,0.1157552 -0.319704,0.4464841 l -0.225998,0.3362411 q 0.51263,-0.00551 0.859895,-0.038585 q 0.08268,0.024805 0.101975,0.1378037 q 0.02205,0.1129991 -0.02756,0.2039495 q -0.04685,0.09095 -0.129536,0.066146 q -0.474044,-0.024805 -0.997698,-0.00551 q -0.03583,0.060634 -0.104731,0.1708766 q -0.0689,0.1102429 -0.124024,0.2039495 q -0.05236,0.09095 -0.09922,0.1901691 Q 35.996884,5.5039439 35.944519,5.655528 q -0.04961,0.148828 -0.04961,0.3197046 q 0,0.1267795 -0.07166,0.2094617 q -0.07166,0.079926 -0.1819,0.079926 q -0.118512,0 -0.192926,-0.1185112 Q 35.374011,6.024842 35.374011,5.8980626 q 0,-0.1322916 0.325217,-0.7882373 q 0.05788,-0.112999 0.121267,-0.223242 q 0.06339,-0.110243 0.146072,-0.2425345 q 0.08268,-0.1350477 0.124024,-0.2067056 q -0.424436,0.011024 -0.865408,0.055122 Q 35.125965,4.4593918 35.10116,4.3298563 Q 35.079111,4.1975647 35.136989,4.09559 q 0.05788,-0.1047309 0.159852,-0.071658 q 0.135048,0.019293 0.297656,0.027561 q 0.165365,0.00551 0.377582,0.00827 q 0.214974,0.00276 0.316949,0.00551 q 0.04685,-0.074414 0.09095,-0.1405598 Q 36.732756,3.3955471 36.840243,3.282548 q 0.121267,-0.1295354 0.21773,-0.2563149 l -0.05237,-0.038585 q -1.265038,0.074414 -2.378492,0.074414 q -0.06339,0 -0.112999,-0.06339 q -0.04685,-0.066146 -0.04685,-0.148828 q 0,-0.085438 0.07166,-0.1681205 q 0.07166,-0.082682 0.151584,-0.082682 q 0.09922,0 0.465776,0.022049 q 0.363802,0.024805 0.705555,0.024805 q 0.625629,0 1.15204,-0.057878 q 0.344509,-0.035829 0.523654,-0.035829 z"
 id="path1273" /></g><g
 aria-label="4"
 id="text1836-35"
 style="font-size:5.64444px;line-height:9.23078px;font-family:'Segoe Print QD';-inkscape-font-specification:'Segoe Print QD';text-align:center;letter-spacing:0.264583px;word-spacing:0.529167px;text-anchor:middle;overflow:visible;fill:#0055d4;stroke-width:0.3;stop-color:#000000"><path
 d="M 45.717317,4.8645347 Q 45.336979,4.726731 44.802301,4.7570478 q -0.09095,0.3141925 -0.09095,0.5870438 l 0.0028,0.1240234 v 0.112999 l 0.0028,0.1240234 q 0.0028,0.1074869 0,0.1460719 q -0.0028,0.035829 0.07166,0.1267794 q 0.07166,0.088194 0.07166,0.1212673 q 0,0.082682 -0.09095,0.1819009 q -0.08819,0.1019747 -0.170877,0.1019747 q -0.21773,0 -0.289388,-0.1019747 q -0.07166,-0.099219 -0.07166,-0.3004121 q 0,-0.1074869 0.02205,-0.3389971 q 0.01929,-0.2232421 0.02481,-0.3362411 q 0.01102,-0.2673392 0.06614,-0.5153859 q -0.06614,-0.011024 -0.195681,-0.011024 q -0.587044,0 -0.950845,0.096463 q -0.396875,0.1074869 -0.71658,0.1074869 q -0.132291,0 -0.297656,-0.1874131 Q 42.313566,4.4538796 43.537263,3.4864975 Q 43.928625,3.1805733 44.17116,2.9600874 Q 44.424718,2.725821 44.736155,2.4943108 q 0.311436,-0.2315102 0.366558,-0.2315102 q 0.223242,0 0.223242,0.112999 q -0.01929,0.079926 -0.157096,0.5732635 Q 44.92908,3.8888844 44.86569,4.3215881 q 0.179145,0.068902 0.650434,0.068902 h 0.190169 q 0.157096,0 0.228754,0.066146 q 0.07441,0.06339 0.07441,0.2728514 q 0,0.06339 -0.04961,0.112999 q -0.04961,0.049609 -0.112999,0.049609 q -0.07717,0 -0.129536,-0.027561 z M 44.716862,3.0179649 Q 44.614888,3.1199397 44.24833,3.4093275 Q 43.942405,3.651862 43.815626,3.7869096 q -0.2949,0.3114364 -0.80753,0.6807504 q 0,0.041341 0.04961,0.041341 q 0.107486,-0.044097 0.807529,-0.09095 q 0.394119,-0.027561 0.57602,-0.079926 q 0.02205,-0.1763887 0.07993,-0.3968747 q 0.195681,-0.7441401 0.195681,-0.9232849 z"
 id="path1276" /></g><g
 aria-label="0"
 id="text1836-9"
 style="font-size:5.64444px;line-height:9.23078px;font-family:'Segoe Print QD';-inkscape-font-specification:'Segoe Print QD';text-align:center;letter-spacing:0.264583px;word-spacing:0.529167px;text-anchor:middle;overflow:visible;fill:#0055d4;stroke-width:0.3;stop-color:#000000"><path
 d="m 51.527424,6.2535961 q -0.322461,0 -0.534678,-0.3004121 Q 50.783284,5.6527719 50.730918,5.2035318 q -0.06615,-0.5484587 0.09646,-1.2099166 Q 50.992746,3.3321574 51.408913,2.9077219 Q 51.827836,2.4832865 52.18337,2.4832865 q 0.261827,0 0.5898,0.2370224 q 0.330728,0.2370224 0.485069,0.5319223 q 0.157096,0.2949 0.21773,0.7827251 q 0.08819,0.7303597 -0.515386,1.4744998 q -0.603581,0.74414 -1.433159,0.74414 z m 1.019747,-3.2356312 q -0.03583,0.079926 -0.135047,0.079926 q -0.01378,0 -0.08268,-0.060634 q -0.07166,-0.06339 -0.124024,-0.06339 q -0.24529,0 -0.377582,0.1074869 q -0.132291,0.1047308 -0.344509,0.4382158 q -0.209462,0.333485 -0.319705,0.7331158 q -0.110243,0.3968747 -0.06063,0.8075298 q 0.05788,0.4878251 0.239778,0.6118485 q 0.181901,0.1240233 0.377582,0.1240233 q 0.248047,0 0.587044,-0.2728513 Q 52.649146,5.2503851 52.913729,4.8231936 Q 53.178312,4.393246 53.14524,4.1231507 Q 53.128703,3.9688105 53.06807,3.7648611 Q 53.007436,3.5581555 52.952314,3.4809854 q -0.05237,-0.07717 -0.190169,-0.2480467 Q 52.624342,3.0620621 52.547171,3.0179649 Z"
 id="path1279" /></g><g
 aria-label="3"
 id="text1836-2"
 style="font-size:5.64444px;line-height:9.23078px;font-family:'Segoe Print QD';-inkscape-font-specification:'Segoe Print QD';text-align:center;letter-spacing:0.264583px;word-spacing:0.529167px;text-anchor:middle;overflow:visible;fill:#0055d4;stroke-width:0.3;stop-color:#000000"><path
 d="m 59.373273,4.4979768 q -0.201194,0 -0.201194,-0.1185112 q 0,-0.066146 0.03859,-0.1460719 q 0.03858,-0.082682 0.223242,-0.2425346 L 59.924488,3.5719359 Q 60.227656,3.3128649 60.588701,3.05655 q -0.151584,-0.024805 -0.810285,0.055121 q -0.509874,0.06339 -0.713824,0.06339 q -0.474044,0 -0.474044,-0.4327037 q 0,-0.085438 0.05512,-0.148828 q 0.05788,-0.066146 0.14056,-0.066146 q 0.06063,0 0.148828,0.06339 q 0.110243,0.07717 0.170876,0.099219 q 0.06339,0.022049 0.184657,0.022049 q 0.195682,0 0.71658,-0.049609 q 0.686262,-0.079926 1.094161,-0.079926 q 0.338997,0 0.338997,0.2204859 q 0,0.1570963 -0.140559,0.2673392 q -0.137804,0.110243 -0.402387,0.2673392 Q 60.54736,3.5471312 60.406801,3.651862 q -0.137804,0.1019748 -0.275608,0.2700953 q 0.303168,-0.022049 0.457508,-0.022049 q 0.333485,0 0.573264,0.085438 q 0.239778,0.082682 0.35829,0.2177299 q 0.121267,0.1350476 0.184657,0.2177298 q 0.06339,0.082682 0.06339,0.2976561 q 0,0.1846569 -0.270095,0.5980681 Q 61.228111,5.727186 60.605238,5.9697205 Q 59.982365,6.212255 59.389809,6.212255 q -0.170876,0 -0.493337,-0.041341 Q 58.576767,6.1268167 58.502353,6.0138177 q -0.07166,-0.1129991 -0.07166,-0.2287542 q 0,-0.2893878 0.272852,-0.2893878 q 0.01102,0 0.04134,0.01378 l 0.190169,0.079926 q 0.314192,0.1433159 0.573263,0.1433159 q 0.225998,0 0.689019,-0.088194 q 0.46302,-0.09095 0.777213,-0.3830943 q 0.314192,-0.2949 0.314192,-0.4712887 q 0,-0.3004121 -0.316948,-0.3968747 q -0.314193,-0.099219 -0.700043,-0.099219 q -0.537435,0 -0.89848,0.2039495 z"
 id="path1282" /></g><g
 aria-label="8"
 id="text1836-0"
 style="font-size:5.64444px;line-height:9.23078px;font-family:'Segoe Print QD';-inkscape-font-specification:'Segoe Print QD';text-align:center;letter-spacing:0.264583px;word-spacing:0.529167px;text-anchor:middle;overflow:visible;fill:#0055d4;stroke-width:0.3;stop-color:#000000"><path
 d="m 20.873953,12.434587 q 0.292144,0.118511 0.570507,0.405143 q 0.28112,0.283876 0.28112,0.520898 q 0,0.248047 -0.08819,0.440972 q -0.08544,0.190169 -0.567752,0.319705 q -0.482313,0.126779 -0.766188,0.126779 q -0.214974,0 -0.531923,-0.07441 Q 19.454575,14.0965 19.347088,13.964208 Q 19.242357,13.829161 19.242357,13.59765 q 0,-0.192925 0.170877,-0.418923 q 0.170876,-0.228754 0.418923,-0.391362 q 0.30868,-0.212218 0.38585,-0.272852 l -0.146072,-0.08268 q -0.416167,-0.220486 -0.589799,-0.429948 q -0.170877,-0.212217 -0.170877,-0.394118 q 0,-0.195681 0.137804,-0.363802 q 0.140559,-0.170877 0.581531,-0.410655 q 0.110243,-0.05788 0.214974,-0.121267 q 0.242535,-0.151584 0.600824,-0.151584 q 0.115755,0 0.341754,0.09646 q 0.225998,0.09371 0.2949,0.170877 q 0.07166,0.07441 0.10473,0.297656 q 0.03032,0.21773 0.03583,0.220486 q 0.03307,-0.04134 0.07166,-0.101975 q 0.04685,-0.07717 0.06339,-0.09646 q 0.05788,0.01378 0.115755,0.08544 q 0.06063,0.07166 0.06063,0.135047 q 0,0.0689 -0.168121,0.303169 q -0.16812,0.234266 -0.438216,0.421679 q -0.374826,0.264583 -0.454752,0.341753 z m -0.283876,-0.173633 q 0.661458,-0.534678 0.661458,-0.790993 q 0,-0.220486 -0.137803,-0.35829 q -0.137804,-0.137803 -0.35829,-0.137803 q -0.248047,0 -0.606336,0.228754 q -0.35829,0.228754 -0.35829,0.369314 q 0,0.242534 0.598068,0.573263 q 0.129536,0.07166 0.201193,0.115755 z m 0.700043,1.121723 q 0,-0.165365 -0.23151,-0.383095 Q 20.8271,12.779096 20.562517,12.671609 q -0.840603,0.5898 -0.840603,0.931554 q 0,0.115755 0.15434,0.181901 q 0.157096,0.06615 0.286632,0.06615 q 0.617361,0 0.870919,-0.126779 q 0.256315,-0.12678 0.256315,-0.283876 z"
 id="path1285" /></g><g
 aria-label="+"
 id="text1836-0-6"
 style="font-size:5.64444px;line-height:9.23078px;font-family:'Segoe Print QD';-inkscape-font-specification:'Segoe Print QD';text-align:center;letter-spacing:0.264583px;word-spacing:0.529167px;text-anchor:middle;overflow:visible;fill:#0055d4;stroke-width:0.3;stop-color:#000000"><path
 d="m 13.459624,12.790121 q -0.05788,0.07441 -0.253559,0.07441 q -0.07166,0 -0.237022,-0.01929 q -0.187413,-0.02205 -0.270095,-0.02205 h -0.181901 q -0.07993,0 -0.143316,0.0028 h -0.132292 q -0.06615,0 -0.140559,0.0028 q -0.06063,0.118511 -0.06063,0.374826 q 0,0.314192 -0.01378,0.394118 q -0.01378,0.07717 -0.0055,0.220486 q 0.0083,0.14056 -0.151584,0.14056 q -0.118511,0 -0.157096,-0.0441 q -0.03583,-0.04685 -0.03583,-0.165364 q 0,-0.06339 0.04685,-0.432704 q 0.02205,-0.179145 0.0441,-0.487825 q -0.176389,-0.01654 -0.531923,-0.01654 q -0.06063,0 -0.162608,0.02756 q -0.107487,0.02481 -0.14056,0.02481 q -0.07441,0 -0.135048,-0.05512 q -0.05788,-0.05788 -0.05788,-0.132291 q 0,-0.05512 0.03859,-0.115755 q 0.04134,-0.06339 0.09095,-0.06339 q 0.09646,0 0.201194,0.01929 q 0.107487,0.01929 0.159852,0.01929 l 0.553971,-0.02756 q 0.03307,-0.104731 0.03307,-0.214974 q 0,-0.148828 -0.02205,-0.507117 q -0.01102,-0.148828 -0.01102,-0.256315 q 0,-0.09371 0.05512,-0.187413 q 0.05788,-0.09371 0.143316,-0.09371 q 0.0441,0 0.09646,0.09095 q 0.05512,0.09095 0.05512,0.140559 q 0,0.143316 -0.0248,0.383095 q -0.0248,0.239778 -0.0248,0.327973 q 0,0.140559 0.01654,0.281119 q 0.05512,0.01929 0.32246,0.01929 l 0.631141,-0.01103 q 0.256315,0 0.330729,0.05512 q 0.07441,0.05512 0.07441,0.253559 z"
 id="path1288" /></g><g
 aria-label="+"
 id="text1836-0-0"
 style="font-size:5.64444px;line-height:9.23078px;font-family:'Segoe Print QD';-inkscape-font-specification:'Segoe Print QD';text-align:center;letter-spacing:0.264583px;word-spacing:0.529167px;text-anchor:middle;overflow:visible;fill:#0055d4;stroke-width:0.3;stop-color:#000000"><path
 d="m 13.459624,20.790121 q -0.05788,0.07441 -0.253559,0.07441 q -0.07166,0 -0.237022,-0.01929 q -0.187413,-0.02205 -0.270095,-0.02205 h -0.181901 q -0.07993,0 -0.143316,0.0028 h -0.132292 q -0.06615,0 -0.140559,0.0028 q -0.06063,0.118511 -0.06063,0.374826 q 0,0.314192 -0.01378,0.394118 q -0.01378,0.07717 -0.0055,0.220486 q 0.0083,0.14056 -0.151584,0.14056 q -0.118511,0 -0.157096,-0.0441 q -0.03583,-0.04685 -0.03583,-0.165364 q 0,-0.06339 0.04685,-0.432704 q 0.02205,-0.179145 0.0441,-0.487825 q -0.176389,-0.01654 -0.531923,-0.01654 q -0.06063,0 -0.162608,0.02756 q -0.107487,0.02481 -0.14056,0.02481 q -0.07441,0 -0.135048,-0.05512 q -0.05788,-0.05788 -0.05788,-0.132291 q 0,-0.05512 0.03859,-0.115755 q 0.04134,-0.06339 0.09095,-0.06339 q 0.09646,0 0.201194,0.01929 q 0.107487,0.01929 0.159852,0.01929 l 0.553971,-0.02756 q 0.03307,-0.104731 0.03307,-0.214974 q 0,-0.148828 -0.02205,-0.507117 q -0.01102,-0.148828 -0.01102,-0.256315 q 0,-0.09371 0.05512,-0.187413 q 0.05788,-0.09371 0.143316,-0.09371 q 0.0441,0 0.09646,0.09095 q 0.05512,0.09095 0.05512,0.140559 q 0,0.143316 -0.0248,0.383095 q -0.0248,0.239778 -0.0248,0.327973 q 0,0.140559 0.01654,0.281119 q 0.05512,0.01929 0.32246,0.01929 l 0.631141,-0.01103 q 0.256315,0 0.330729,0.05512 q 0.07441,0.05512 0.07441,0.253559 z"
 id="path1291" /></g><g
 aria-label="7"
 id="text1836-36"
 style="font-size:5.64444px;line-height:9.23078px;font-family:'Segoe Print QD';-inkscape-font-specification:'Segoe Print QD';text-align:center;letter-spacing:0.264583px;word-spacing:0.529167px;text-anchor:middle;overflow:visible;fill:#0055d4;stroke-width:0.3;stop-color:#000000"><path
 d="m 29.797244,10.552188 q 0.16812,0 0.16812,0.165365 q 0,0.07993 -0.02205,0.112999 q -0.02205,0.03032 -0.151584,0.187413 q -0.12678,0.15434 -0.223242,0.264583 q -0.101975,0.115755 -0.319705,0.446484 l -0.225998,0.336241 q 0.51263,-0.0055 0.859895,-0.03858 q 0.08268,0.02481 0.101975,0.137804 q 0.02205,0.112999 -0.02756,0.203949 q -0.04685,0.09095 -0.129535,0.06615 q -0.474045,-0.02481 -0.997699,-0.0055 q -0.03583,0.06063 -0.104731,0.170877 q -0.0689,0.110243 -0.124023,0.203949 q -0.05237,0.09095 -0.09922,0.190169 q -0.245291,0.509874 -0.297656,0.661458 q -0.04961,0.148828 -0.04961,0.319705 q 0,0.126779 -0.07166,0.209461 q -0.07166,0.07993 -0.181901,0.07993 q -0.118512,0 -0.192926,-0.118511 q -0.07441,-0.121267 -0.07441,-0.248046 q 0,-0.132292 0.325217,-0.788238 q 0.05788,-0.112999 0.121267,-0.223242 q 0.06339,-0.110243 0.146072,-0.242534 q 0.08268,-0.135048 0.124024,-0.206706 q -0.424436,0.01102 -0.865408,0.05512 q -0.09922,-0.03307 -0.124023,-0.162609 q -0.02205,-0.132291 0.03583,-0.234266 q 0.05788,-0.104731 0.159852,-0.07166 q 0.135048,0.01929 0.297656,0.02756 q 0.165365,0.0055 0.377583,0.0083 q 0.214973,0.0028 0.316948,0.0055 q 0.04685,-0.07441 0.09095,-0.14056 q 0.352777,-0.529166 0.460264,-0.642165 q 0.121267,-0.129535 0.21773,-0.256315 l -0.05237,-0.03858 q -1.265038,0.07441 -2.378492,0.07441 q -0.06339,0 -0.112999,-0.06339 q -0.04685,-0.06614 -0.04685,-0.148828 q 0,-0.08544 0.07166,-0.16812 q 0.07166,-0.08268 0.151584,-0.08268 q 0.09922,0 0.465777,0.02205 q 0.363801,0.0248 0.705555,0.0248 q 0.625628,0 1.152039,-0.05788 q 0.344509,-0.03583 0.523654,-0.03583 z"
 id="path1294" /></g><g
 aria-label="7"
 id="text1836-6"
 style="font-size:5.64444px;line-height:9.23078px;font-family:'Segoe Print QD';-inkscape-font-specification:'Segoe Print QD';text-align:center;letter-spacing:0.264583px;word-spacing:0.529167px;text-anchor:middle;overflow:visible;fill:#0055d4;stroke-width:0.3;stop-color:#000000"><path
 d="m 37.53753,10.552188 q 0.16812,0 0.16812,0.165365 q 0,0.07993 -0.02205,0.112999 q -0.02205,0.03032 -0.151585,0.187413 q -0.126779,0.15434 -0.223242,0.264583 q -0.101974,0.115755 -0.319704,0.446484 l -0.225998,0.336241 q 0.51263,-0.0055 0.859895,-0.03858 q 0.08268,0.02481 0.101975,0.137804 q 0.02205,0.112999 -0.02756,0.203949 q -0.04685,0.09095 -0.129536,0.06615 q -0.474044,-0.02481 -0.997698,-0.0055 q -0.03583,0.06063 -0.104731,0.170877 q -0.0689,0.110243 -0.124024,0.203949 q -0.05236,0.09095 -0.09922,0.190169 q -0.245291,0.509874 -0.297656,0.661458 q -0.04961,0.148828 -0.04961,0.319705 q 0,0.126779 -0.07166,0.209461 q -0.07166,0.07993 -0.1819,0.07993 q -0.118512,0 -0.192926,-0.118511 q -0.07441,-0.121267 -0.07441,-0.248046 q 0,-0.132292 0.325217,-0.788238 q 0.05788,-0.112999 0.121267,-0.223242 q 0.06339,-0.110243 0.146072,-0.242534 q 0.08268,-0.135048 0.124024,-0.206706 q -0.424436,0.01102 -0.865408,0.05512 q -0.09922,-0.03307 -0.124023,-0.162609 q -0.02205,-0.132291 0.03583,-0.234266 q 0.05788,-0.104731 0.159852,-0.07166 q 0.135048,0.01929 0.297656,0.02756 q 0.165365,0.0055 0.377582,0.0083 q 0.214974,0.0028 0.316949,0.0055 q 0.04685,-0.07441 0.09095,-0.14056 q 0.352778,-0.529166 0.460265,-0.642165 q 0.121267,-0.129535 0.21773,-0.256315 l -0.05237,-0.03858 q -1.265038,0.07441 -2.378492,0.07441 q -0.06339,0 -0.112999,-0.06339 q -0.04685,-0.06614 -0.04685,-0.148828 q 0,-0.08544 0.07166,-0.16812 q 0.07166,-0.08268 0.151584,-0.08268 q 0.09922,0 0.465776,0.02205 q 0.363802,0.0248 0.705555,0.0248 q 0.625629,0 1.15204,-0.05788 q 0.344509,-0.03583 0.523654,-0.03583 z"
 id="path1297" /></g><g
 aria-label="7"
 id="text1836-61"
 style="font-size:5.64444px;line-height:9.23078px;font-family:'Segoe Print QD';-inkscape-font-specification:'Segoe Print QD';text-align:center;letter-spacing:0.264583px;word-spacing:0.529167px;text-anchor:middle;overflow:visible;fill:#0055d4;stroke-width:0.3;stop-color:#000000"><path
 d="m 45.896462,10.552188 q 0.168121,0 0.168121,0.165365 q 0,0.07993 -0.02205,0.112999 q -0.02205,0.03032 -0.151584,0.187413 q -0.126779,0.15434 -0.223242,0.264583 q -0.101975,0.115755 -0.319705,0.446484 l -0.225998,0.336241 q 0.51263,-0.0055 0.859895,-0.03858 q 0.08268,0.02481 0.101975,0.137804 q 0.02205,0.112999 -0.02756,0.203949 q -0.04685,0.09095 -0.129535,0.06615 q -0.474045,-0.02481 -0.997699,-0.0055 q -0.03583,0.06063 -0.104731,0.170877 q -0.0689,0.110243 -0.124023,0.203949 q -0.05237,0.09095 -0.09922,0.190169 q -0.24529,0.509874 -0.297656,0.661458 q -0.04961,0.148828 -0.04961,0.319705 q 0,0.126779 -0.07166,0.209461 q -0.07166,0.07993 -0.181901,0.07993 q -0.118511,0 -0.192925,-0.118511 q -0.07441,-0.121267 -0.07441,-0.248046 q 0,-0.132292 0.325217,-0.788238 q 0.05788,-0.112999 0.121267,-0.223242 q 0.06339,-0.110243 0.146072,-0.242534 q 0.08268,-0.135048 0.124023,-0.206706 q -0.424435,0.01102 -0.865407,0.05512 q -0.09922,-0.03307 -0.124024,-0.162609 q -0.02205,-0.132291 0.03583,-0.234266 q 0.05788,-0.104731 0.159853,-0.07166 q 0.135047,0.01929 0.297656,0.02756 q 0.165364,0.0055 0.377582,0.0083 q 0.214974,0.0028 0.316948,0.0055 q 0.04685,-0.07441 0.09095,-0.14056 q 0.352777,-0.529166 0.460264,-0.642165 q 0.121268,-0.129535 0.21773,-0.256315 l -0.05237,-0.03858 q -1.265038,0.07441 -2.378492,0.07441 q -0.06339,0 -0.112999,-0.06339 q -0.04685,-0.06614 -0.04685,-0.148828 q 0,-0.08544 0.07166,-0.16812 q 0.07166,-0.08268 0.151584,-0.08268 q 0.09922,0 0.465777,0.02205 q 0.363802,0.0248 0.705555,0.0248 q 0.625629,0 1.152039,-0.05788 q 0.344509,-0.03583 0.523654,-0.03583 z"
 id="path1300" /></g><g
 aria-label="6"
 id="text1836-79"
 style="font-size:5.64444px;line-height:9.23078px;font-family:'Segoe Print QD';-inkscape-font-specification:'Segoe Print QD';text-align:center;letter-spacing:0.264583px;word-spacing:0.529167px;text-anchor:middle;overflow:visible;fill:#0055d4;stroke-width:0.3;stop-color:#000000"><path
 d="m 52.695999,10.938039 q -0.09646,0 -0.135047,0.0248 q -0.361046,0.101975 -0.774457,0.620117 q -0.07441,0.09922 -0.256315,0.275608 q -0.198437,0.190169 -0.300412,0.338997 q -0.09922,0.146072 -0.190169,0.410655 q -0.0882,0.264583 -0.0882,0.493337 q 0,0.14056 0.05788,0.259071 q 0.05788,0.118511 0.355534,0.305924 q -0.05512,-0.432703 0.151584,-0.810286 q 0.206705,-0.380338 0.520898,-0.545702 q 0.314192,-0.168121 0.972894,-0.168121 q 0.316948,0 0.570507,0.220486 q 0.256315,0.21773 0.256315,0.523654 q 0,0.201194 -0.165364,0.42168 q -0.165365,0.220486 -0.542947,0.460264 q -0.377582,0.239779 -0.600824,0.325217 q -0.220486,0.08544 -0.80753,0.08544 q -0.305924,0 -0.545703,-0.104731 Q 50.937624,13.96972 50.717138,13.71065 q -0.21773,-0.259071 -0.21773,-0.471289 q 0,-0.474045 0.12678,-0.763433 q 0.126779,-0.292144 0.355533,-0.611848 q 0.231511,-0.322461 0.443728,-0.518142 q 0.07166,-0.06615 0.23151,-0.239779 q 0.300413,-0.330729 0.501606,-0.468532 q 0.203949,-0.137804 0.391363,-0.137804 q 0.09371,0 0.176388,0.06615 q 0.08268,0.06339 0.08268,0.159852 q 0,0.190169 -0.113,0.212218 z m 0.763433,1.835545 q -0.311436,-0.225998 -0.724847,-0.225998 q -0.981163,0 -1.044553,1.157551 q 0.09095,0.02756 0.245291,0.02756 l 0.270095,-0.01102 q 0.270096,0 0.760677,-0.338997 q 0.493337,-0.338997 0.493337,-0.609093 z"
 id="path1303" /></g><g
 aria-label="5"
 id="text1836-23"
 style="font-size:5.64444px;line-height:9.23078px;font-family:'Segoe Print QD';-inkscape-font-specification:'Segoe Print QD';text-align:center;letter-spacing:0.264583px;word-spacing:0.529167px;text-anchor:middle;overflow:visible;fill:#0055d4;stroke-width:0.3;stop-color:#000000"><path
 d="m 60.001658,11.1475 q -0.157097,0.148828 -0.37207,0.468533 q -0.05788,0.08544 -0.09371,0.135048 q -0.03859,0.05236 -0.05237,0.07441 q 0.15434,0.09371 0.598068,0.157096 q 0.567751,0.08268 0.843359,0.187413 q 0.278363,0.104731 0.39963,0.305924 q 0.124024,0.198438 0.124024,0.542947 q 0,0.214974 -0.198438,0.482313 q -0.198437,0.267339 -0.661458,0.507118 q -0.46302,0.239778 -1.025259,0.239778 q -0.460265,0 -0.790994,-0.181901 q -0.327972,-0.181901 -0.327972,-0.305924 q 0,-0.264583 0.333485,-0.264583 q 0.07441,0 0.159852,0.0689 q 0.305924,0.214973 0.702799,0.214973 q 0.421679,0 0.865407,-0.250802 q 0.446484,-0.250803 0.446484,-0.479557 q 0,-0.292144 -0.21773,-0.446484 Q 60.5198,12.445611 60.062291,12.396002 l -0.622873,-0.0689 q -0.261827,-0.03307 -0.405142,-0.135047 Q 58.89096,12.087322 58.89096,11.999127 q 0,-0.09371 0.101974,-0.212217 q 0.02205,-0.03032 0.239779,-0.347266 q 0.44924,-0.669726 0.564995,-0.705555 q 0.118511,-0.03859 1.48828,-0.08268 q 0.242535,-0.0055 0.501606,-0.07993 q 0.203949,-0.05512 0.253559,-0.05512 q 0.170876,0 0.297656,0.101975 q 0.09095,0.04685 0.09095,0.101975 q 0,0.07993 -0.101975,0.201193 q -0.101974,0.121268 -0.2949,0.148828 q -0.190169,0.02756 -0.4768,0.02756 l -0.920529,-0.02756 q -0.405143,0 -0.633897,0.07717 z"
 id="path1306" /></g><g
 aria-label="0"
 id="text1836-92"
 style="font-size:5.64444px;line-height:9.23078px;font-family:'Segoe Print QD';-inkscape-font-specification:'Segoe Print QD';text-align:center;letter-spacing:0.264583px;word-spacing:0.529167px;text-anchor:middle;overflow:visible;fill:#44aa00;stroke-width:0.3;stop-color:#000000"><path
 d="m 19.936888,22.253596 q -0.322461,0 -0.534679,-0.300412 q -0.209461,-0.300412 -0.261827,-0.749652 q -0.06614,-0.548459 0.09646,-1.209917 q 0.165364,-0.661458 0.581532,-1.085893 q 0.418923,-0.424435 0.774457,-0.424435 q 0.261827,0 0.589799,0.237022 q 0.330729,0.237022 0.48507,0.531922 q 0.157096,0.2949 0.217729,0.782725 q 0.08819,0.73036 -0.515386,1.4745 q -0.60358,0.74414 -1.433158,0.74414 z m 1.019747,-3.235631 q -0.03583,0.07993 -0.135047,0.07993 q -0.01378,0 -0.08268,-0.06063 q -0.07166,-0.06339 -0.124023,-0.06339 q -0.24529,0 -0.377582,0.107487 q -0.132292,0.10473 -0.344509,0.438215 q -0.209462,0.333485 -0.319705,0.733116 q -0.110243,0.396875 -0.06063,0.80753 q 0.05788,0.487825 0.239779,0.611848 q 0.181901,0.124024 0.377582,0.124024 q 0.248047,0 0.587044,-0.272852 q 0.341753,-0.272851 0.606336,-0.700042 q 0.264583,-0.429948 0.23151,-0.700043 q -0.01654,-0.15434 -0.07717,-0.35829 Q 21.4169,19.558155 21.361778,19.480985 q -0.05237,-0.07717 -0.190169,-0.248046 q -0.137804,-0.170877 -0.214974,-0.214974 z"
 id="path1309" /></g><g
 aria-label="1"
 id="text1836-97"
 style="font-size:5.64444px;line-height:9.23078px;font-family:'Segoe Print QD';-inkscape-font-specification:'Segoe Print QD';text-align:center;letter-spacing:0.264583px;word-spacing:0.529167px;text-anchor:middle;overflow:visible;fill:#0055d4;stroke-width:0.3;stop-color:#000000"><path
 d="m 27.892796,20.294027 q 0,0 0.157097,-1.163063 q -0.159853,0 -0.443728,0.192925 q -0.504362,0.330729 -0.887456,0.330729 q -0.124024,0 -0.124024,-0.173633 q 0,-0.110243 0.04134,-0.146072 q 0.0441,-0.03583 0.38585,-0.1819 q 0.341753,-0.148828 0.859895,-0.457509 q 0.518142,-0.30868 0.564995,-0.30868 q 0.08819,0 0.151584,0.121267 q 0.06339,0.121267 0.06339,0.212218 q 0,0.07717 -0.07993,0.157096 q -0.270095,1.1796 -0.314192,1.807985 q -0.0441,0.625629 -0.01378,0.73036 l 0.0689,0.418923 l 0.01102,0.162608 q 0,0.187413 -0.314192,0.187413 q -0.311437,0 -0.253559,-0.5898 q 0.118511,-1.204404 0.126779,-1.300867 z"
 id="path1312" /></g><g
 aria-label="1"
 id="text1836-612"
 style="font-size:5.64444px;line-height:9.23078px;font-family:'Segoe Print QD';-inkscape-font-specification:'Segoe Print QD';text-align:center;letter-spacing:0.264583px;word-spacing:0.529167px;text-anchor:middle;overflow:visible;fill:#0055d4;stroke-width:0.3;stop-color:#000000"><path
 d="m 35.633082,20.294027 q 0,0 0.157097,-1.163063 q -0.159853,0 -0.443728,0.192925 q -0.504362,0.330729 -0.887456,0.330729 q -0.124024,0 -0.124024,-0.173633 q 0,-0.110243 0.04134,-0.146072 q 0.0441,-0.03583 0.385851,-0.1819 q 0.341753,-0.148828 0.859895,-0.457509 q 0.518142,-0.30868 0.564995,-0.30868 q 0.08819,0 0.151584,0.121267 q 0.06339,0.121267 0.06339,0.212218 q 0,0.07717 -0.07993,0.157096 q -0.270095,1.1796 -0.314193,1.807985 q -0.0441,0.625629 -0.01378,0.73036 l 0.0689,0.418923 l 0.01102,0.162608 q 0,0.187413 -0.314192,0.187413 q -0.311437,0 -0.253559,-0.5898 q 0.118511,-1.204404 0.126779,-1.300867 z"
 id="path1315" /></g><g
 aria-label="3"
 id="text1836-1"
 style="font-size:5.64444px;line-height:9.23078px;font-family:'Segoe Print QD';-inkscape-font-specification:'Segoe Print QD';text-align:center;letter-spacing:0.264583px;word-spacing:0.529167px;text-anchor:middle;overflow:visible;fill:#0055d4;stroke-width:0.3;stop-color:#000000"><path
 d="m 43.407727,20.497977 q -0.201193,0 -0.201193,-0.118511 q 0,-0.06615 0.03859,-0.146072 q 0.03858,-0.08268 0.223242,-0.242535 l 0.490581,-0.418923 q 0.303168,-0.259071 0.664214,-0.515386 q -0.151584,-0.02481 -0.810286,0.05512 q -0.509874,0.06339 -0.713823,0.06339 q -0.474045,0 -0.474045,-0.432704 q 0,-0.08544 0.05512,-0.148828 q 0.05788,-0.06614 0.14056,-0.06614 q 0.06063,0 0.148828,0.06339 q 0.110243,0.07717 0.170877,0.09922 q 0.06339,0.02205 0.184657,0.02205 q 0.195681,0 0.716579,-0.04961 q 0.686263,-0.07993 1.094162,-0.07993 q 0.338997,0 0.338997,0.220486 q 0,0.157096 -0.14056,0.267339 q -0.137804,0.110243 -0.402387,0.26734 q -0.350021,0.209461 -0.490581,0.314192 q -0.137804,0.101975 -0.275608,0.270095 q 0.303169,-0.02205 0.457509,-0.02205 q 0.333485,0 0.573263,0.08544 q 0.239779,0.08268 0.35829,0.21773 q 0.121267,0.135048 0.184657,0.21773 q 0.06339,0.08268 0.06339,0.297656 q 0,0.184657 -0.270096,0.598068 q -0.270095,0.410655 -0.892968,0.653189 q -0.622873,0.242535 -1.215429,0.242535 q -0.170876,0 -0.493337,-0.04134 q -0.319704,-0.0441 -0.394118,-0.157096 q -0.07166,-0.112999 -0.07166,-0.228754 q 0,-0.289388 0.272851,-0.289388 q 0.01102,0 0.04134,0.01378 l 0.190169,0.07993 q 0.314193,0.143316 0.573264,0.143316 q 0.225998,0 0.689018,-0.08819 q 0.463021,-0.09095 0.777213,-0.383095 q 0.314193,-0.2949 0.314193,-0.471288 q 0,-0.300412 -0.316949,-0.396875 q -0.314192,-0.09922 -0.700043,-0.09922 q -0.537434,0 -0.89848,0.20395 z"
 id="path1318" /></g><g
 aria-label="4"
 id="text1836-78"
 style="font-size:5.64444px;line-height:9.23078px;font-family:'Segoe Print QD';-inkscape-font-specification:'Segoe Print QD';text-align:center;letter-spacing:0.264583px;word-spacing:0.529167px;text-anchor:middle;overflow:visible;fill:#0055d4;stroke-width:0.3;stop-color:#000000"><path
 d="M 53.679918,20.864535 Q 53.29958,20.726731 52.764901,20.757048 q -0.09095,0.314192 -0.09095,0.587044 l 0.0028,0.124023 v 0.112999 l 0.0028,0.124023 q 0.0028,0.107487 0,0.146072 q -0.0028,0.03583 0.07166,0.12678 q 0.07166,0.08819 0.07166,0.121267 q 0,0.08268 -0.09095,0.181901 q -0.08819,0.101975 -0.170876,0.101975 q -0.21773,0 -0.289388,-0.101975 q -0.07166,-0.09922 -0.07166,-0.300412 q 0,-0.107487 0.02205,-0.338997 q 0.01929,-0.223242 0.0248,-0.336241 q 0.01103,-0.26734 0.06615,-0.515386 q -0.06615,-0.01103 -0.195681,-0.01103 q -0.587044,0 -0.950846,0.09646 q -0.396874,0.107487 -0.716579,0.107487 q -0.132292,0 -0.297656,-0.187413 q 0.124023,-0.341753 1.34772,-1.309135 q 0.391363,-0.305925 0.633897,-0.526411 q 0.253559,-0.234266 0.564996,-0.465776 q 0.311436,-0.23151 0.366557,-0.23151 q 0.223242,0 0.223242,0.112999 q -0.01929,0.07993 -0.157096,0.573263 q -0.239778,0.939821 -0.303168,1.372525 q 0.179145,0.0689 0.650434,0.0689 h 0.190169 q 0.157096,0 0.228754,0.06615 q 0.07441,0.06339 0.07441,0.272851 q 0,0.06339 -0.04961,0.112999 q -0.04961,0.04961 -0.113,0.04961 q -0.07717,0 -0.129535,-0.02756 z m -1.000455,-1.84657 q -0.101975,0.101975 -0.468533,0.391362 q -0.305924,0.242535 -0.432703,0.377583 q -0.2949,0.311436 -0.80753,0.68075 q 0,0.04134 0.04961,0.04134 q 0.107487,-0.0441 0.80753,-0.09095 q 0.394119,-0.02756 0.57602,-0.07993 q 0.02205,-0.176389 0.07993,-0.396875 q 0.195681,-0.74414 0.195681,-0.923285 z"
 id="path1321" /></g><g
 aria-label="7"
 id="text1836-5"
 style="font-size:5.64444px;line-height:9.23078px;font-family:'Segoe Print QD';-inkscape-font-specification:'Segoe Print QD';text-align:center;letter-spacing:0.264583px;word-spacing:0.529167px;text-anchor:middle;overflow:visible;fill:#0055d4;stroke-width:0.3;stop-color:#000000"><path
 d="m 61.862008,18.552188 q 0.16812,0 0.16812,0.165365 q 0,0.07993 -0.02205,0.112999 q -0.02205,0.03032 -0.151584,0.187413 q -0.12678,0.15434 -0.223242,0.264583 q -0.101975,0.115755 -0.319705,0.446484 l -0.225998,0.336241 q 0.51263,-0.0055 0.859895,-0.03859 q 0.08268,0.02481 0.101975,0.137804 q 0.02205,0.112999 -0.02756,0.203949 q -0.04685,0.09095 -0.129535,0.06615 q -0.474045,-0.02481 -0.997699,-0.0055 q -0.03583,0.06063 -0.104731,0.170877 q -0.0689,0.110243 -0.124023,0.203949 q -0.05237,0.09095 -0.09922,0.190169 q -0.245291,0.509874 -0.297656,0.661458 q -0.04961,0.148828 -0.04961,0.319705 q 0,0.126779 -0.07166,0.209461 q -0.07166,0.07993 -0.181901,0.07993 q -0.118512,0 -0.192926,-0.118511 q -0.07441,-0.121267 -0.07441,-0.248046 q 0,-0.132292 0.325217,-0.788238 q 0.05788,-0.112999 0.121267,-0.223242 q 0.06339,-0.110243 0.146072,-0.242534 q 0.08268,-0.135048 0.124024,-0.206706 q -0.424436,0.01102 -0.865408,0.05512 q -0.09922,-0.03307 -0.124023,-0.162609 q -0.02205,-0.132291 0.03583,-0.234266 q 0.05788,-0.104731 0.159852,-0.07166 q 0.135048,0.01929 0.297656,0.02756 q 0.165365,0.0055 0.377583,0.0083 q 0.214973,0.0028 0.316948,0.0055 q 0.04685,-0.07441 0.09095,-0.14056 q 0.352777,-0.529166 0.460264,-0.642165 q 0.121267,-0.129535 0.21773,-0.256315 l -0.05237,-0.03859 q -1.265038,0.07441 -2.378492,0.07441 q -0.06339,0 -0.112999,-0.06339 q -0.04685,-0.06614 -0.04685,-0.148828 q 0,-0.08544 0.07166,-0.16812 q 0.07166,-0.08268 0.151584,-0.08268 q 0.09922,0 0.465777,0.02205 q 0.363801,0.02481 0.705555,0.02481 q 0.625628,0 1.152039,-0.05788 q 0.344509,-0.03583 0.523654,-0.03583 z"
 id="path1324" /></g><path
 style="font-variation-settings:normal;fill:none;fill-opacity:1;fill-rule:evenodd;stroke:#0055d4;stroke-width:0.5;stroke-linecap:butt;stroke-linejoin:miter;stroke-miterlimit:4;stroke-dasharray:none;stroke-dashoffset:0;stroke-opacity:1;stop-color:#000000"
 d="M 8.099499,24.184698 H 64.0995"
 id="path3587" /></svg>
