<?xml version="1.0" encoding="UTF-8"?>
<svg width="169.33mm" height="32.942mm" version="1.1" viewBox="0 0 169.33 32.942" xmlns="http://www.w3.org/2000/svg">
<defs>
<clipPath id="n">
<path transform="translate(-419.08 -317.6)" d="m0 500h500v-500h-500z"/>
</clipPath>
<clipPath id="m">
<path transform="translate(-405.69 -325.2)" d="m0 500h500v-500h-500z"/>
</clipPath>
<clipPath id="l">
<path transform="translate(-403.06 -316.76)" d="m0 500h500v-500h-500z"/>
</clipPath>
<clipPath id="k">
<path transform="translate(-405.41 -327.95)" d="m0 500h500v-500h-500z"/>
</clipPath>
<clipPath id="j">
<path transform="translate(-431.9 -345.7)" d="m0 500h500v-500h-500z"/>
</clipPath>
<clipPath id="i">
<path transform="translate(-427.45 -361.72)" d="m0 500h500v-500h-500z"/>
</clipPath>
<clipPath id="h">
<path transform="translate(-407.31 -353.61)" d="m0 500h500v-500h-500z"/>
</clipPath>
<clipPath id="g">
<path transform="translate(-424.95 -338.22)" d="m0 500h500v-500h-500z"/>
</clipPath>
<clipPath id="f">
<path transform="translate(-391.57 -375.1)" d="m0 500h500v-500h-500z"/>
</clipPath>
<clipPath id="e">
<path transform="translate(-395.82 -385.95)" d="m0 500h500v-500h-500z"/>
</clipPath>
<clipPath id="d">
<path transform="translate(-401.32 -375.3)" d="m0 500h500v-500h-500z"/>
</clipPath>
<clipPath id="c">
<path transform="translate(-459.23 -319.7)" d="m0 500h500v-500h-500z"/>
</clipPath>
<clipPath id="b">
<path transform="translate(-461.9 -331.53)" d="m0 500h500v-500h-500z"/>
</clipPath>
<clipPath id="a">
<path transform="translate(-448.73 -343.52)" d="m0 500h500v-500h-500z"/>
</clipPath>
<clipPath id="x">
<path transform="translate(-462.65 -182.37)" d="m0 500h500v-500h-500z"/>
</clipPath>
<clipPath id="w">
<path transform="translate(-457.98 -205.62)" d="m0 500h500v-500h-500z"/>
</clipPath>
<clipPath id="v">
<path transform="translate(-433.98 -220.78)" d="m0 500h500v-500h-500z"/>
</clipPath>
<clipPath id="u">
<path transform="translate(-388.92 -225.71)" d="m0 500h500v-500h-500z"/>
</clipPath>
<clipPath id="t">
<path transform="translate(-409.76 -221.88)" d="m0 500h500v-500h-500z"/>
</clipPath>
<clipPath id="s">
<path transform="translate(-470.79 -175.8)" d="m0 500h500v-500h-500z"/>
</clipPath>
<clipPath id="r">
<path transform="translate(-453.33 -189.24)" d="m0 500h500v-500h-500z"/>
</clipPath>
<clipPath id="q">
<path transform="translate(-432.98 -221.53)" d="m0 500h500v-500h-500z"/>
</clipPath>
<clipPath id="p">
<path transform="translate(-454.47 -233.34)" d="m0 500h500v-500h-500z"/>
</clipPath>
<clipPath id="o">
<path transform="translate(-445.81 -235.85)" d="m0 500h500v-500h-500z"/>
</clipPath>
<clipPath id="aa">
<path transform="translate(-433.9 -156.7)" d="m0 500h500v-500h-500z"/>
</clipPath>
<clipPath id="z">
<path transform="translate(-439.66 -164.06)" d="m0 500h500v-500h-500z"/>
</clipPath>
<clipPath id="y">
<path transform="translate(-440.73 -156.2)" d="m0 500h500v-500h-500z"/>
</clipPath>
</defs>
<g transform="translate(-47.499 -32.068)">
<path d="m94.579 39.531c-0.04829 0-0.10459 0.01585-0.16898 0.04806-0.0161 0.01073-0.08297 0.06464-0.20102 0.16123-0.11806 0.09122-0.27398 0.24373-0.46716 0.45837-0.3327-0.05367-0.68155-0.09359-1.0464-0.12041-0.3649-0.02682-0.74837-0.04031-1.1508-0.04031-0.49368 0-1.022 0.03753-1.5854 0.11265-0.55808 0.06976-1.1326 0.18525-1.7229 0.34623-0.5849 0.16099-1.1748 0.3674-1.7704 0.6196-0.59564 0.25221-1.1755 0.55534-1.7389 0.9095-0.55808 0.35416-1.0922 0.7675-1.602 1.2397-0.50978 0.46686-0.97361 0.99516-1.3922 1.5854-0.44002 0.62783-0.77301 1.2481-0.99839 1.8598-0.22001 0.60637-0.3297 1.1939-0.3297 1.7627 0 0.54734 0.10201 1.0434 0.30592 1.4888 0.20391 0.44002 0.48828 0.81583 0.85318 1.1271 0.3649 0.31124 0.79938 0.54989 1.3038 0.71624 0.50978 0.17172 1.0679 0.25786 1.6743 0.25786 0.5849 0 1.1941-0.10491 1.8273-0.31419 0.63857-0.21464 1.2583-0.54183 1.8593-0.98185 0.60637-0.44539 1.1751-1.0065 1.7064-1.6826 0.53661-0.67613 0.99805-1.4782 1.3844-2.4066 0.03223 0.0051 0.06685 0.0078 0.10439 0.0078h0.18552c0.29514 0 0.61704-0.01349 0.96583-0.04031 0.3488-0.02683 0.70822-0.07255 1.0785-0.13694 0.56344 0.07512 1.0759 0.19061 1.5374 0.34623 0.46148 0.15562 0.85605 0.34326 1.1834 0.56327 0.3327 0.22001 0.58773 0.46975 0.76481 0.74879 0.18245 0.27904 0.27337 0.58217 0.27337 0.9095 0 0.29513-0.08035 0.5877-0.24133 0.87747-0.16099 0.28441-0.41073 0.54182-0.74879 0.77256-0.3327 0.22538-0.759 0.40774-1.2795 0.54725s-1.1432 0.20929-1.8676 0.20929c-0.53125 0-1.0601-0.05339-1.5859-0.16071-0.52588-0.10732-1.0383-0.26563-1.5374-0.47491-0.04296-0.01611-0.08287-0.02429-0.12041-0.02429-0.07512 0-0.1449 0.02934-0.20929 0.08837-0.06439 0.05367-0.09663 0.12633-0.09663 0.21756 0 0.13417 0.06449 0.228 0.19327 0.28164 0.57954 0.24148 1.1507 0.41616 1.7141 0.52348 0.56881 0.10732 1.1193 0.16071 1.6505 0.16071 0.32734 0 0.67328-0.02403 1.0382-0.07235 0.3649-0.04293 0.72142-0.1156 1.0702-0.21756 0.3488-0.09659 0.68179-0.22266 0.99839-0.37827 0.32196-0.15562 0.60343-0.34616 0.84491-0.57154 0.24147-0.22538 0.43202-0.4857 0.57154-0.78083 0.14488-0.29514 0.21756-0.63052 0.21756-1.0061 0-0.10196-0.01106-0.22512-0.03256-0.37-0.0161-0.15025-0.05891-0.31145-0.12867-0.48318-0.06976-0.17171-0.16887-0.35117-0.29766-0.53898-0.12879-0.18786-0.30586-0.37022-0.53124-0.5473-0.22001-0.18245-0.49381-0.35713-0.82114-0.52348-0.32174-0.16623-0.71302-0.31414-1.1741-0.44287 0.3323-0.11798 0.64621-0.26255 0.94103-0.43408 0.3005-0.17708 0.5603-0.38349 0.78031-0.6196 0.22538-0.23611 0.40245-0.5099 0.53123-0.82114 0.12879-0.31123 0.19327-0.66247 0.19327-1.0542 0-0.7137-0.26031-1.3123-0.78083-1.7952-0.52051-0.48832-1.2716-0.85303-2.2536-1.0945 0.12878-0.12342 0.2308-0.22015 0.30592-0.2899 0.07513-0.07513 0.11266-0.16656 0.11266-0.27388 0-0.08049-0.02934-0.14208-0.08837-0.185-0.05903-0.04293-0.12641-0.06408-0.20154-0.06408zm83.396 0.65887c-0.0722 0.0023-0.13441 0.02948-0.18603 0.08113-0.0591 0.05903-0.0913 0.13118-0.0966 0.21704l-0.26561 9.1116c-5e-3 0.08586 0.0193 0.16143 0.0729 0.22583 0.059 0.05903 0.13118 0.08837 0.21704 0.08837h8e-3c0.0858 0 0.15562-0.02698 0.20929-0.08062 0.0591-0.05903 0.0913-0.1288 0.0966-0.20929l0.27337-9.1199c0-0.08586-0.0294-0.15801-0.0884-0.21704-0.0537-0.05933-0.12344-0.09157-0.20929-0.09664-0.0107-6.73e-4 -0.0212-8.5e-4 -0.0315-5.17e-4zm-86.431 0.4594c0.3166 0 0.61974 0.0082 0.9095 0.02429 0.28977 0.01611 0.57175 0.04256 0.84543 0.0801-0.28977 0.3971-0.5448 0.80514-0.76481 1.2237-0.22001 0.41319-0.42113 0.8342-0.60358 1.2635-0.18245 0.4293-0.34894 0.86429-0.49919 1.3043-0.15024 0.44002-0.29798 0.87979-0.44287 1.3198-0.26294 0.03757-0.45587 0.08618-0.57929 0.14521-0.12342 0.05366-0.185 0.14458-0.185 0.27337 0 0.12342 0.05049 0.21486 0.15244 0.27388 0.10196 0.05364 0.20158 0.0801 0.29817 0.0801-0.3649 0.83175-0.79171 1.5511-1.28 2.1575-0.48832 0.601-1.0032 1.1-1.5451 1.4971-0.54198 0.39173-1.0978 0.68428-1.6666 0.87747-0.56881 0.18781-1.1159 0.28164-1.6418 0.28164-0.52588 0-1.0061-0.06687-1.4407-0.20102-0.43466-0.13952-0.80756-0.33587-1.1188-0.58808-0.31124-0.25757-0.55279-0.57128-0.7245-0.94154-0.16635-0.37026-0.2496-0.78888-0.2496-1.2557 0-0.49905 0.10202-1.025 0.30592-1.5777 0.20392-0.55271 0.50705-1.1133 0.90951-1.6821 0.39709-0.55807 0.83686-1.0599 1.3198-1.5053 0.48295-0.44538 0.99011-0.83415 1.5214-1.1669 0.53661-0.33806 1.0866-0.62534 1.65-0.86145 0.56881-0.24148 1.1323-0.43731 1.6903-0.58756 0.55808-0.15025 1.1028-0.26045 1.634-0.33021 0.53125-0.06976 1.0331-0.10439 1.5053-0.10439zm2.4391 0.21704c0.9337 0.18782 1.6497 0.47799 2.1487 0.86971 0.49905 0.39173 0.74879 0.88779 0.74879 1.4888 0 0.29513-0.04811 0.55836-0.14469 0.7891-0.09123 0.23074-0.21729 0.44005-0.37827 0.62787-0.15562 0.18245-0.34088 0.34314-0.55552 0.48266-0.21464 0.13415-0.44272 0.25203-0.6842 0.35398-0.23611 0.09659-0.48057 0.17984-0.73277 0.2496-0.24684 0.06977-0.48787 0.12606-0.72399 0.16898v5.17e-4c-0.28441-0.03221-0.55053-0.05336-0.79737-0.06408-0.24684-0.01611-0.4744-0.02429-0.68368-0.02429h-0.23358c-0.09122 0-0.19033 0.0027-0.29766 0.0078 0.10196-0.41319 0.23041-0.84 0.38602-1.28 0.16098-0.44539 0.34096-0.88278 0.5395-1.3121 0.19855-0.43466 0.41553-0.85328 0.65164-1.2557 0.23611-0.40246 0.48876-0.77008 0.75706-1.1028zm30.121 5.8761c-0.13415 0-0.23858 0.05629-0.31368 0.16898-0.0751 0.10732-0.11265 0.24976-0.11265 0.42685 0 0.09122 8e-3 0.17974 0.0238 0.26562 0.0161 0.08586 0.043 0.19026 0.0806 0.31368-0.0429 0.22002-0.0992 0.43222-0.16898 0.63614-0.0599 0.1847-0.15259 0.39986-0.27751 0.64492-0.0143 0.01854-0.0269 0.03929-0.0377 0.06304-0.11268 0.25221-0.23875 0.50434-0.37827 0.75654-0.13952 0.25221-0.29783 0.48029-0.4749 0.6842-0.17709 0.20392-0.37292 0.37041-0.58756 0.49919-0.21465 0.12342-0.45382 0.185-0.71676 0.185-0.25757 0-0.47455-0.0452-0.65164-0.13643-0.17708-0.09659-0.32191-0.22317-0.4346-0.37879 0.20929-0.10196 0.40563-0.22273 0.58808-0.36225 0.18245-0.13952 0.33786-0.29202 0.46664-0.45837 0.13416-0.16635 0.23855-0.34632 0.31368-0.5395 0.0751-0.19318 0.11265-0.39959 0.11265-0.6196 0-0.17171-0.0293-0.32473-0.0884-0.45889-0.059-0.13416-0.13699-0.24674-0.23358-0.33796-0.0966-0.09657-0.20627-0.16924-0.32969-0.21756-0.11805-0.05364-0.23883-0.08062-0.36225-0.08062-0.20928 0-0.40273 0.04862-0.57981 0.14521-0.17172 0.09659-0.32183 0.23084-0.45062 0.40256-0.12342 0.17171-0.22015 0.37284-0.28991 0.60358-0.0198 0.07098-0.0359 0.14407-0.0496 0.21911-0.0287 0.02795-0.0523 0.06213-0.0708 0.10284-0.059 0.13952-0.15046 0.32188-0.27388 0.54725-0.11806 0.22538-0.25998 0.44816-0.42633 0.66818-0.16098 0.21464-0.33805 0.40229-0.53124 0.56327-0.19317 0.15562-0.39191 0.23358-0.59582 0.23358-0.11269 0-0.20413-0.02403-0.27389-0.07235-0.0698-0.05366-0.12318-0.12343-0.16071-0.20929-0.0375-0.09122-0.0645-0.19614-0.0806-0.31419-0.0107-0.11805-0.016-0.24121-0.016-0.37 0-0.10195 3e-3 -0.20925 8e-3 -0.32194 0.011-0.11806 0.0187-0.23355 0.0238-0.34623 0.011-0.11269 0.0192-0.2176 0.0243-0.31419 0.0107-0.10195 0.016-0.18759 0.016-0.25735 0-0.3005-0.0669-0.55263-0.20102-0.75654-0.13419-0.2039-0.3406-0.30591-0.61964-0.30591-0.13952 0-0.29015 0.04281-0.45114 0.12867-0.15561 0.08049-0.31102 0.21474-0.46663 0.40256-0.15562 0.19318-0.30573 0.3972-0.45062 0.61185-0.13952 0.21464-0.27378 0.43163-0.40256 0.65164-0.12879 0.21464-0.24957 0.42924-0.36225 0.64389-0.1127 0.20928-0.21181 0.40272-0.29766 0.57981h-5.2e-4c0.0161-0.15562 0.0325-0.34855 0.0486-0.57929 0.0214-0.23074 0.0426-0.46172 0.0641-0.69246 0.0215-0.23611 0.0379-0.456 0.0486-0.65991 0.0161-0.20391 0.0243-0.35454 0.0243-0.45114 0-0.12878-0.0135-0.25485-0.0403-0.37827-0.0215-0.12342-0.059-0.23601-0.11265-0.33796-0.0483-0.10196-0.11568-0.1823-0.20154-0.24133-0.0859-0.06439-0.19025-0.09663-0.31368-0.09663-0.20927 0-0.42149 0.13664-0.63613 0.41031-0.20928 0.26831-0.43446 0.68984-0.67593 1.264-5.4e-4 0.0014-1e-3 0.0027-2e-3 0.0041-0.0591 0.13902-0.14955 0.31985-0.27182 0.54312-0.11805 0.22538-0.25998 0.44816-0.42633 0.66818-0.16098 0.21464-0.33805 0.40229-0.53123 0.56327-0.19318 0.15562-0.39192 0.23358-0.59583 0.23358-0.11269 0-0.20412-0.02403-0.27389-0.07235-0.0697-0.05366-0.12313-0.12343-0.16073-0.20929-0.0375-0.09122-0.0645-0.19614-0.0806-0.31419-0.0107-0.11805-0.016-0.24121-0.016-0.37 0-0.10195 3e-3 -0.20925 8e-3 -0.32194 0.011-0.11806 0.0192-0.23355 0.0243-0.34623 0.011-0.11269 0.0187-0.2176 0.0238-0.31419 0.0107-0.10195 0.016-0.18759 0.016-0.25735 0-0.3005-0.0669-0.55263-0.20102-0.75654-0.13416-0.20392-0.34057-0.30592-0.6196-0.30592-0.13952 0-0.29015 0.04281-0.45114 0.12867-0.15561 0.08049-0.31102 0.21474-0.46664 0.40256-0.15561 0.19318-0.30573 0.3972-0.45061 0.61185-0.13952 0.21464-0.27378 0.43163-0.40256 0.65164-0.12879 0.21464-0.24957 0.42924-0.36226 0.64389-0.11269 0.20928-0.2118 0.40272-0.29765 0.57981 0.0161-0.15562 0.0319-0.34855 0.0481-0.57929 0.0214-0.23074 0.0431-0.46172 0.0646-0.69246 0.0215-0.23611 0.0374-0.456 0.0481-0.65991 0.0161-0.20391 0.0243-0.35454 0.0243-0.45114 0-0.12878-0.0135-0.25485-0.0403-0.37827-0.0215-0.12342-0.059-0.23601-0.11266-0.33796-0.0483-0.10196-0.11516-0.1823-0.20102-0.24133-0.0858-0.06439-0.19076-0.09663-0.31419-0.09663-0.20927 0-0.42098 0.13664-0.63562 0.41031-0.20928 0.26831-0.43497 0.68984-0.67644 1.264-5e-3 0.01398-9e-3 0.02742-0.0129 0.04082-0.0725 0.14031-0.14853 0.26629-0.22841 0.37724-0.0912 0.13415-0.19563 0.24384-0.31368 0.3297-0.11806 0.08586-0.24992 0.15034-0.39481 0.19327-0.14488 0.04293-0.30848 0.0646-0.49092 0.0646h-0.10439c-0.0322 0-0.0644-0.0027-0.0966-0.0078 0.0429-0.18781 0.0641-0.36727 0.0641-0.53898 0-0.32734-0.0293-0.60932-0.0884-0.84543-0.059-0.23611-0.13937-0.42904-0.24133-0.57929-0.0969-0.15025-0.20952-0.26046-0.3383-0.33021-0.12879-0.06976-0.26595-0.10439-0.41083-0.10439-0.24148 0-0.43731 0.09621-0.58756 0.28939-0.14489 0.19318-0.21704 0.44292-0.21704 0.74879 0 0.381 0.10149 0.72456 0.30541 1.0304 0.20391 0.30587 0.46423 0.54162 0.78083 0.70797-0.10732 0.22001-0.26273 0.40236-0.46664 0.54725-0.19855 0.13952-0.45067 0.20929-0.75654 0.20929-0.17172 0-0.32764-0.02934-0.46716-0.08837-0.13952-0.06439-0.26029-0.15003-0.36225-0.25735-0.10199-0.11261-0.17943-0.24448-0.23307-0.39473-0.05364-0.15562-0.08062-0.3216-0.08062-0.49868 0-0.19855 0.02698-0.37852 0.08062-0.5395 0.05366-0.16099 0.12053-0.30053 0.20102-0.41858 0.08585-0.11806 0.17729-0.21478 0.27388-0.2899 0.0966-0.08049 0.18751-0.14208 0.27337-0.185 0.0859-0.04293 0.15565-0.08575 0.20929-0.12867 0.059-0.04829 0.0889-0.11807 0.0889-0.20929 0-0.08047-0.0246-0.14496-0.0729-0.19327-0.0429-0.04831-0.1098-0.07235-0.20102-0.07235-0.0805 0-0.20127 0.04281-0.36225 0.12868-0.16099 0.08049-0.3222 0.20655-0.48318 0.37827-0.16099 0.16635-0.30291 0.37857-0.42633 0.63614-0.12342 0.25221-0.185 0.55005-0.185 0.89349 0 0.2683 0.04282 0.51514 0.12868 0.74052 0.08585 0.22001 0.20664 0.41056 0.36225 0.57154 0.15562 0.15562 0.33798 0.27639 0.54725 0.36225 0.20928 0.09122 0.44025 0.13643 0.69246 0.13643 0.21465 0 0.41287-0.02934 0.59532-0.08837 0.18244-0.05903 0.34604-0.13937 0.49092-0.24133 0.15026-0.10195 0.28212-0.22035 0.39481-0.3545 0.11269-0.13952 0.2089-0.28963 0.28939-0.45062 0.10196 0.02149 0.22034 0.03204 0.3545 0.03204 0.2522 0.0054 0.48028-0.02449 0.68419-0.08888 0.20391-0.0644 0.38627-0.15003 0.54726-0.25735 0.16635-0.11269 0.30828-0.24166 0.42633-0.38654 0.12342-0.15025 0.23072-0.30565 0.32194-0.46664 0.0214-0.04291 0.0431-0.08863 0.0646-0.13694 3e-3 -0.0081 5e-3 -0.01591 8e-3 -0.02377 0.19318-0.46685 0.35149-0.79165 0.47491-0.9741 0.1234-0.1878 0.20903-0.28982 0.25735-0.30592 0.0322 0.02683 0.0539 0.10241 0.0646 0.22583s0.016 0.25187 0.016 0.38602c0 0.10195-5e-3 0.22802-0.016 0.37827-0.0107 0.15025-0.0242 0.31436-0.0403 0.49144-0.0161 0.17172-0.0325 0.34588-0.0486 0.52297-0.0161 0.17708-0.032 0.34357-0.0481 0.49919-0.0161 0.15025-0.0296 0.2816-0.0403 0.39429-0.0107 0.10735-0.016 0.17951-0.016 0.21704 0 0.17172 0.0457 0.30597 0.13694 0.40256 0.0966 0.09122 0.22265 0.13694 0.37827 0.13694 0.11269 0 0.22237-0.04043 0.3297-0.12092 0.10732-0.07513 0.21462-0.22524 0.32194-0.45062 0.0537-0.11806 0.12633-0.26579 0.21756-0.44287 0.0966-0.18245 0.1986-0.37248 0.30592-0.57102 0.11269-0.19855 0.23057-0.39728 0.35399-0.59583 0.12878-0.20391 0.25246-0.38627 0.37052-0.54725 0.12342-0.16099 0.23839-0.28995 0.34571-0.38654 0.11269-0.10196 0.21231-0.15296 0.29817-0.15296 0.043 0 0.091 0.03224 0.1447 0.09663 0.0536 0.05903 0.0806 0.17452 0.0806 0.34623 0 0.10196-5e-3 0.20926-0.016 0.32194-5e-3 0.11269-0.0164 0.22528-0.0326 0.33796-0.0108 0.11269-0.0213 0.21999-0.032 0.32194-5e-3 0.10196-8e-3 0.1934-8e-3 0.27388 0 0.18782 0.0135 0.37546 0.0403 0.56327 0.0322 0.18245 0.0914 0.35133 0.17725 0.50695 0.0858 0.15025 0.20373 0.27393 0.35398 0.37052 0.15025 0.09122 0.34609 0.13694 0.58756 0.13694 0.21465 0 0.41867-0.05391 0.61185-0.16123 0.19855-0.10732 0.3809-0.24158 0.54726-0.40256 0.17171-0.16099 0.32763-0.33805 0.46715-0.53123 0.13952-0.19855 0.25978-0.38329 0.36174-0.555 0.10732-0.17708 0.19347-0.33301 0.25786-0.46716 0.0644-0.13416 0.10718-0.22269 0.12868-0.26562 4e-3 -0.0094 8e-3 -0.01851 0.0109-0.0279 0.18778-0.45149 0.34266-0.76751 0.46353-0.9462 0.12341-0.1878 0.20955-0.28982 0.25787-0.30592 0.0322 0.02683 0.0534 0.10241 0.0641 0.22583s0.016 0.25187 0.016 0.38602c0 0.10195-5e-3 0.22802-0.016 0.37827-0.0107 0.15025-0.0242 0.31436-0.0403 0.49144-0.0161 0.17172-0.0319 0.34588-0.0481 0.52297-0.0161 0.17708-0.0325 0.34357-0.0486 0.49919-0.0161 0.15025-0.0291 0.2816-0.0398 0.39429-0.0107 0.10735-0.016 0.17951-0.016 0.21704 0 0.17172 0.0452 0.30597 0.13642 0.40256 0.0966 0.09122 0.22265 0.13694 0.37828 0.13694 0.11268 0 0.2229-0.04043 0.33021-0.12092 0.10732-0.07513 0.21462-0.22524 0.32194-0.45062 0.0537-0.11806 0.12634-0.26579 0.21756-0.44287 0.0966-0.18245 0.19809-0.37248 0.30541-0.57102 0.11269-0.19855 0.23108-0.39728 0.3545-0.59583 0.12878-0.20391 0.25195-0.38627 0.37-0.54725 0.12342-0.16099 0.23891-0.28995 0.34623-0.38654 0.11269-0.10196 0.2118-0.15296 0.29766-0.15296 0.043 0 0.0916 0.03224 0.14521 0.09663 0.0536 0.05903 0.0801 0.17452 0.0801 0.34623 0 0.10196-5e-3 0.20926-0.016 0.32194-5e-3 0.11269-0.0159 0.22528-0.032 0.33796-0.0108 0.11269-0.0213 0.21999-0.032 0.32194-5e-3 0.10196-8e-3 0.1934-8e-3 0.27388 0 0.18782 0.0135 0.37546 0.0403 0.56327 0.0322 0.18245 0.0914 0.35133 0.17725 0.50695 0.0858 0.15025 0.20373 0.27393 0.35398 0.37052 0.15026 0.09122 0.34609 0.13694 0.58756 0.13694 0.21465 0 0.41867-0.05391 0.61185-0.16123 0.19855-0.10732 0.38091-0.24158 0.54726-0.40256 0.17171-0.16099 0.32712-0.33805 0.46664-0.53123 0.10701-0.15229 0.20343-0.29603 0.28835-0.43253 0.0126 0.05301 0.0263 0.10615 0.0419 0.15916 0.0805 0.27367 0.20417 0.52051 0.37052 0.74052 0.16635 0.21464 0.37805 0.38881 0.63562 0.52296 0.25757 0.13952 0.56361 0.20929 0.91777 0.20929 0.55271-0.01073 1.0464-0.22243 1.481-0.63562 0.44002-0.41319 0.84517-1.0276 1.2154-1.8433 0.01-0.0189 0.0171-0.03537 0.0222-0.05013 0.012-0.01982 0.0235-0.04053 0.0351-0.06253 0.059-0.11805 0.11006-0.23116 0.15296-0.33848 0.048-0.10689 0.0883-0.20274 0.12041-0.28835 0.0642 0.15508 0.13391 0.30464 0.20877 0.44907 0.0805 0.13952 0.15316 0.27667 0.21756 0.41083 0.0697 0.13414 0.12608 0.26789 0.16898 0.40204s0.0646 0.26841 0.0646 0.40256c0 0.0644-0.0135 0.14237-0.0403 0.23358-0.0215 0.08586-0.0591 0.16914-0.11265 0.2496-0.0537 0.07515-0.12636 0.13963-0.21756 0.19327-0.0859 0.05364-0.19317 0.0801-0.32195 0.0801-0.0644 0-0.12887-0.01055-0.19327-0.03204-0.059-0.02149-0.11241-0.04553-0.16071-0.07235-0.0429-0.03215-0.0805-0.05913-0.11265-0.08062-0.0324-0.02682-0.0513-0.04558-0.0563-0.05633-0.059-0.05906-0.13166-0.08837-0.21756-0.08837-0.0805 0-0.15264 0.03225-0.21704 0.09663-0.059 0.05903-0.0889 0.12883-0.0889 0.20929 0 0.05365 0.0164 0.10465 0.0486 0.15296 0.19319 0.28977 0.4009 0.40607 0.66456 0.46922 0.55162 0.13218 1.1934-0.15031 1.5012-0.75086 0.0912-0.20391 0.13642-0.41851 0.13642-0.64389 0-0.17171-0.0322-0.3435-0.0966-0.51521-0.059-0.17172-0.13646-0.35408-0.23306-0.54725-0.0966-0.19855-0.20679-0.41604-0.33021-0.65216-0.12342-0.23611-0.24658-0.507-0.37-0.81287 0.0268-0.12878 0.048-0.23606 0.0641-0.32194 0.0161-0.08585 0.0243-0.17147 0.0243-0.25735 0-0.15562-0.0375-0.28696-0.11266-0.39429-0.0698-0.10734-0.16648-0.16123-0.2899-0.16123zm47.706 0c-0.13415 0-0.23858 0.05629-0.31368 0.16898-0.0751 0.10732-0.11266 0.24976-0.11266 0.42685 0 0.09122 8e-3 0.17974 0.0238 0.26562 0.0161 0.08586 0.043 0.19026 0.0806 0.31368-0.0429 0.22002-0.0992 0.43222-0.16898 0.63614-0.0571 0.17605-0.14377 0.37941-0.25993 0.6103-0.0282 0.02527-0.0515 0.05747-0.0698 0.09767-0.11268 0.25221-0.23875 0.50434-0.37827 0.75654-0.13952 0.25221-0.29782 0.48029-0.4749 0.6842-0.17708 0.20392-0.37292 0.37041-0.58757 0.49919-0.21464 0.12342-0.45381 0.185-0.71675 0.185-0.25758 0-0.47456-0.0452-0.65164-0.13643-0.17708-0.09659-0.3219-0.22317-0.4346-0.37879 0.20913-0.10192 0.40524-0.22283 0.58757-0.36225 0.18245-0.13952 0.33785-0.29202 0.46663-0.45837 0.13415-0.16635 0.23855-0.34632 0.31368-0.5395 0.0751-0.19318 0.11265-0.39959 0.11265-0.6196 0-0.17171-0.0294-0.32473-0.0884-0.45889-0.059-0.13416-0.13647-0.24674-0.23306-0.33796-0.0966-0.09657-0.2068-0.16924-0.33022-0.21756-0.11805-0.05364-0.23883-0.08062-0.36225-0.08062-0.20928 0-0.40272 0.04862-0.57981 0.14521-0.17171 0.09659-0.32183 0.23084-0.45062 0.40256-0.12342 0.17171-0.21962 0.37284-0.28938 0.60358-0.0194 0.06935-0.0356 0.14071-0.0491 0.21394-0.0276 0.02426-0.0487 0.05498-0.0636 0.09198-0.0107 0.0322-0.0483 0.11255-0.11265 0.24133-0.059 0.12342-0.14467 0.27115-0.25735 0.44287-0.10733 0.16635-0.2392 0.34581-0.39481 0.53899-0.15562 0.18782-0.33507 0.3625-0.53898 0.52348-0.20391 0.16099-0.4296 0.29472-0.67645 0.40204-0.24685 0.10196-0.51484 0.15296-0.8046 0.15296-0.22538 0-0.42122-0.0452-0.58756-0.13643-0.16098-0.09122-0.29524-0.212-0.40256-0.36225-0.10732-0.15562-0.18766-0.33269-0.24133-0.53123-0.0537-0.19855-0.0806-0.40786-0.0806-0.62787 0-0.23074 0.0294-0.44824 0.0884-0.65216 0.0644-0.20927 0.14765-0.38925 0.2496-0.5395 0.10196-0.15562 0.21983-0.27878 0.35398-0.37 0.13952-0.09122 0.28435-0.13694 0.4346-0.13694 0.16099 0 0.29285 0.04572 0.39481 0.13694 0.10732 0.09122 0.16071 0.19324 0.16071 0.30592 0 0.08051-0.0106 0.14738-0.032 0.20102-0.0161 0.04832-0.0378 0.09114-0.0646 0.12867-0.0215 0.03219-0.0426 0.06443-0.0641 0.09663-0.0161 0.0322-0.0243 0.06973-0.0243 0.11266 0 0.08585 0.0265 0.15853 0.0801 0.21756 0.059 0.05903 0.13409 0.08837 0.22531 0.08837 0.059 0 0.11825-0.02115 0.17725-0.06408 0.059-0.04829 0.11003-0.10988 0.15296-0.185 0.0483-0.08049 0.0859-0.17193 0.11265-0.27388 0.0322-0.10196 0.0486-0.21216 0.0486-0.33021 0-0.12343-0.0298-0.24658-0.0889-0.37-0.0537-0.12342-0.13162-0.23601-0.23358-0.33796-0.0966-0.10196-0.21737-0.18282-0.36225-0.24185-0.14489-0.06439-0.30558-0.09663-0.48266-0.09663-0.23611 0-0.4589 0.0621-0.66818 0.18552-0.20928 0.11806-0.39453 0.28165-0.55552 0.49093-0.15562 0.20928-0.27878 0.45612-0.37 0.74052-0.0132 0.04026-0.0254 0.0808-0.0367 0.12196-4e-3 0.0022-8e-3 0.0043-0.0119 0.0067-0.0483 0.0322-0.0858 0.07792-0.11265 0.13694-0.059 0.13952-0.14995 0.32188-0.27337 0.54725-0.11805 0.22538-0.26049 0.44816-0.42685 0.66818-0.16098 0.21464-0.33805 0.40229-0.53123 0.56327-0.19319 0.15562-0.39192 0.23358-0.59583 0.23358-0.11269 0-0.20362-0.02403-0.27337-0.07235-0.0698-0.05366-0.1237-0.12343-0.16123-0.20929-0.0375-0.09122-0.064-0.19614-0.0801-0.31419-0.0107-0.11805-0.0165-0.24121-0.0165-0.37 0-0.10195 3e-3 -0.20925 8e-3 -0.32194 0.0108-0.11806 0.019-0.23355 0.0243-0.34623 0.0108-0.11269 0.019-0.2176 0.0243-0.31419 0.0107-0.10195 0.016-0.18759 0.016-0.25735 0-0.3005-0.0674-0.55263-0.20154-0.75654-0.13415-0.20392-0.34057-0.30592-0.6196-0.30592-0.13952 0-0.28963 0.04281-0.45062 0.12867-0.15561 0.08049-0.31153 0.21474-0.46715 0.40256-0.15562 0.19318-0.30574 0.3972-0.45062 0.61185-0.13952 0.21464-0.27377 0.43163-0.40256 0.65164-0.12878 0.21464-0.24956 0.42924-0.36225 0.64389-0.11269 0.20928-0.2118 0.40272-0.29766 0.57981h-5.1e-4c0.0161-0.15562 0.0324-0.34855 0.0486-0.57929 0.0215-0.23074 0.0427-0.46172 0.0641-0.69246 0.0215-0.23611 0.0378-0.456 0.0486-0.65991 0.0161-0.20391 0.0243-0.35454 0.0243-0.45114 0-0.12878-0.0135-0.25485-0.0403-0.37827-0.0215-0.12342-0.059-0.23601-0.11266-0.33796-0.0483-0.10196-0.11568-0.1823-0.20154-0.24133-0.0859-0.06439-0.19025-0.09663-0.31367-0.09663-0.20928 0-0.42149 0.13664-0.63614 0.41031-0.20927 0.26831-0.43445 0.68984-0.67593 1.264-0.0483 0.10196-0.10749 0.22273-0.17725 0.36225-0.0698 0.13952-0.15011 0.28435-0.24133 0.4346-0.0912 0.15025-0.19323 0.30037-0.30592 0.45062-0.10732 0.14489-0.2223 0.27676-0.34572 0.39481-0.11806 0.11269-0.24174 0.20361-0.37052 0.27337-0.12342 0.06976-0.24947 0.1049-0.37827 0.1049-0.19854 0-0.35395-0.06738-0.46664-0.20154-0.11272-0.13415-0.19886-0.29246-0.25786-0.47491-0.0536-0.18245-0.0883-0.3648-0.10439-0.54725-0.0161-0.18781-0.0272-0.33264-0.0326-0.4346-5e-3 -0.07513-0.0376-0.142-0.0966-0.20102-0.0537-0.05903-0.11763-0.08888-0.19275-0.08888-0.0805 0-0.15029 0.02698-0.20929 0.08062-0.059 0.04829-0.0942 0.10988-0.1049 0.185-0.0376 0.27904-0.10443 0.52059-0.20103 0.7245-0.0912 0.20391-0.19613 0.37279-0.31419 0.50694-0.11269 0.13415-0.23347 0.23378-0.36225 0.29817-0.12342 0.06439-0.2331 0.09663-0.3297 0.09663-0.13415 0-0.24726-0.02698-0.33848-0.08062-0.0912-0.05367-0.16337-0.12344-0.21704-0.20929-0.0537-0.08586-0.0912-0.17968-0.11265-0.28164-0.0214-0.10732-0.032-0.21224-0.032-0.31419 0-0.32734 0.051-0.6088 0.15296-0.84491 0.10732-0.24148 0.23867-0.44021 0.39429-0.59583 0.15562-0.16098 0.3274-0.27886 0.51522-0.35398 0.18781-0.07513 0.36488-0.11266 0.53123-0.11266 0.11269 0 0.2118 0.01349 0.29766 0.04031 0.0912 0.02143 0.16917 0.04789 0.23357 0.0801 0.0644 0.03219 0.11543 0.06443 0.15297 0.09663 0.0376 0.02682 0.0616 0.04561 0.0723 0.05633 0.059 0.05903 0.1317 0.08888 0.21756 0.08888 0.0805 0 0.15029-0.02986 0.20929-0.08888 0.059-0.06439 0.0884-0.13655 0.0884-0.21704 0-0.07512-0.0294-0.1478-0.0884-0.21756-5e-3 -0.0054-0.0352-0.02942-0.0889-0.07235-0.0537-0.04832-0.1311-0.09932-0.23306-0.15296-0.0966-0.05366-0.21499-0.10177-0.3545-0.14469-0.13953-0.04831-0.29254-0.07286-0.45889-0.07286-0.24684 0-0.50426 0.05391-0.77256 0.16123-0.26295 0.10732-0.5045 0.26801-0.72451 0.48266-0.17866 0.1743-0.33235 0.38435-0.46147 0.62942-0.0153 0.0065-0.0306 0.0138-0.0455 0.02274-0.0483 0.02686-0.0834 0.06728-0.10491 0.12092-0.0107 0.0322-0.0482 0.11255-0.11265 0.24133-0.059 0.12342-0.14466 0.27115-0.25735 0.44287-0.10732 0.16635-0.23868 0.34581-0.39429 0.53899-0.15563 0.18782-0.3356 0.3625-0.5395 0.52348-0.20392 0.16099-0.42908 0.29472-0.67593 0.40204-0.24684 0.10196-0.51535 0.15296-0.80512 0.15296-0.22538 0-0.42121-0.0452-0.58756-0.13643-0.16098-0.09122-0.29524-0.212-0.40256-0.36225-0.10732-0.15562-0.18766-0.33269-0.24133-0.53123-0.0537-0.19855-0.0806-0.40786-0.0806-0.62787 0-0.23074 0.0294-0.44824 0.0884-0.65216 0.0644-0.20927 0.14765-0.38925 0.2496-0.5395 0.10196-0.15562 0.22035-0.27878 0.3545-0.37 0.13952-0.09122 0.28435-0.13694 0.4346-0.13694 0.16099 0 0.29234 0.04572 0.39429 0.13694 0.10733 0.09122 0.16071 0.19324 0.16071 0.30592 0 0.08051-0.0106 0.14738-0.032 0.20102-0.0161 0.04832-0.0373 0.09114-0.0641 0.12867-0.0215 0.03219-0.0431 0.06443-0.0646 0.09663-0.0161 0.0322-0.0243 0.06973-0.0243 0.11266 0 0.08585 0.0269 0.15853 0.0806 0.21756 0.059 0.05903 0.13408 0.08837 0.22531 0.08837 0.059 0 0.11825-0.02115 0.17725-0.06408 0.059-0.04829 0.11003-0.10988 0.15296-0.185 0.0483-0.08049 0.0858-0.17193 0.11265-0.27388 0.0322-0.10196 0.0481-0.21216 0.0481-0.33021 0-0.12343-0.0294-0.24658-0.0884-0.37-0.0537-0.12342-0.13163-0.23601-0.23358-0.33796-0.0966-0.10196-0.21737-0.18282-0.36225-0.24185-0.14488-0.06439-0.30557-0.09663-0.48266-0.09663-0.23611 0-0.4589 0.0621-0.66818 0.18552-0.20928 0.11806-0.39453 0.28165-0.55552 0.49093-0.15561 0.20928-0.27878 0.45612-0.37 0.74052-0.0132 0.04026-0.0254 0.0808-0.0367 0.12196-4e-3 0.0022-8e-3 0.0043-0.0119 0.0067-0.0483 0.0322-0.0858 0.07792-0.11265 0.13694-0.0483 0.10196-0.1075 0.22273-0.17725 0.36225-0.0698 0.13952-0.15011 0.28435-0.24133 0.4346-0.0912 0.15025-0.19324 0.30037-0.30593 0.45062-0.10732 0.14489-0.2228 0.27676-0.34623 0.39481-0.11804 0.11269-0.24121 0.20361-0.37 0.27337-0.12342 0.06976-0.24949 0.1049-0.37827 0.1049-0.19855 0-0.35446-0.06738-0.46716-0.20154-0.11245-0.13412-0.19809-0.29242-0.25709-0.47487-0.0536-0.18245-0.0888-0.3648-0.1049-0.54725-0.0161-0.18781-0.0267-0.33264-0.032-0.4346-5e-3 -0.07513-0.0376-0.142-0.0966-0.20102-0.0537-0.05903-0.11816-0.08888-0.19328-0.08888-0.0805 0-0.15026 0.02698-0.20929 0.08062-0.059 0.04829-0.0937 0.10988-0.10438 0.185-0.0376 0.27904-0.10443 0.52059-0.20102 0.7245-0.0912 0.20391-0.19614 0.37279-0.3142 0.50694-0.11268 0.13415-0.23346 0.23378-0.36225 0.29817-0.12342 0.06439-0.23311 0.09663-0.32969 0.09663-0.13416 0-0.24726-0.02698-0.33848-0.08062-0.0913-0.05367-0.1634-0.12344-0.21704-0.20929-0.0536-0.08586-0.0912-0.17968-0.11266-0.28164-0.0214-0.10732-0.032-0.21224-0.032-0.31419 0-0.32734 0.0505-0.6088 0.15245-0.84491 0.10732-0.24148 0.23919-0.44021 0.3948-0.59583 0.15562-0.16098 0.32741-0.27886 0.51522-0.35398 0.18782-0.07513 0.36488-0.11266 0.53123-0.11266 0.11269 0 0.2118 0.01349 0.29766 0.04031 0.0912 0.02143 0.16918 0.04789 0.23358 0.0801 0.0644 0.03219 0.11542 0.06443 0.15296 0.09663 0.0376 0.02682 0.0616 0.04561 0.0724 0.05633 0.059 0.05903 0.13118 0.08888 0.21704 0.08888 0.0805 0 0.15029-0.02986 0.20929-0.08888 0.059-0.06439 0.0889-0.13655 0.0889-0.21704 0-0.07512-0.0299-0.1478-0.0889-0.21756-5e-3 -0.0054-0.0347-0.02942-0.0884-0.07235-0.0537-0.04832-0.13162-0.09932-0.23358-0.15296-0.0966-0.05366-0.21448-0.10177-0.354-0.14469-0.13952-0.04831-0.29253-0.07286-0.45888-0.07286-0.24684 0-0.50426 0.05391-0.77257 0.16123-0.26293 0.10732-0.50449 0.26801-0.7245 0.48266-0.179 0.17464-0.33323 0.38477-0.4625 0.63045-0.0179 0.0081-0.0353 0.01815-0.0522 0.02997-0.0483 0.0322-0.0834 0.0774-0.10491 0.13643 0 0.0053-0.0135 0.0323-0.0403 0.08061-0.0214 0.04832-0.0561 0.09932-0.10438 0.15296-0.0483 0.05366-0.10988 0.10177-0.18501 0.14469-0.0751 0.04293-0.16365 0.0646-0.26561 0.0646-0.18781 0-0.35431-0.04811-0.4992-0.14469-0.14488-0.0966-0.27384-0.21498-0.38654-0.3545-0.10731-0.14488-0.20113-0.30029-0.28162-0.46664-0.0751-0.16635-0.13963-0.31937-0.19327-0.45889-0.0483-0.14489-0.0829-0.26276-0.10439-0.35398-0.0215-0.09092-0.0326-0.13374-0.0326-0.12867-0.0161-0.07513-0.0536-0.13432-0.11265-0.17725-0.0537-0.04293-0.11529-0.06459-0.18505-0.06459-0.0912 0-0.16629 0.03224-0.22531 0.09663-0.0536 0.05903-0.0806 0.13408-0.0806 0.22531v0.16123c5e-3 0.04832 8e-3 0.09932 8e-3 0.15296 0 0.26294-0.027 0.52326-0.0806 0.78083-0.0483 0.25221-0.11516 0.49376-0.20102 0.7245-0.0805 0.22538-0.17193 0.43418-0.27389 0.62735-0.0966 0.19318-0.19279 0.35968-0.28939 0.49919-0.0912 0.13952-0.17976 0.24972-0.26561 0.33021-0.0805 0.08049-0.1426 0.12041-0.18552 0.12041-0.0644 0-0.14765-0.05339-0.2496-0.16071-0.0966-0.11269-0.19041-0.26571-0.28164-0.45889-0.0912-0.19318-0.16866-0.42364-0.23306-0.69195-0.0644-0.2683-0.0966-0.56086-0.0966-0.87747 0-0.26831 0.0212-0.46943 0.0641-0.60358 0.0433-0.13418 0.0673-0.20684 0.0724-0.21756 0.0215-0.03758 0.0326-0.0833 0.0326-0.13694 0-0.07513-0.027-0.142-0.0806-0.20102-0.0537-0.06439-0.12581-0.09663-0.21704-0.09663-0.059 0-0.11292 0.01349-0.16123 0.04031-0.0429 0.02681-0.0776 0.06434-0.10439 0.11265-0.0161 0.02683-0.0565 0.13123-0.12092 0.31368-0.059 0.18245-0.0884 0.45095-0.0884 0.80512 0 0.40246 0.051 0.77536 0.15296 1.1188 0.10196 0.34343 0.22802 0.64128 0.37827 0.89348 0.15562 0.24684 0.31631 0.43978 0.48266 0.57929 0.17172 0.13952 0.32764 0.20929 0.46716 0.20929 0.12342-0.01073 0.27063-0.08579 0.44235-0.22531 0.17171-0.13952 0.34111-0.33007 0.50746-0.57154 0.17172-0.24148 0.33241-0.52294 0.48266-0.84491 0.15025-0.32734 0.26574-0.67908 0.34623-1.0547h5.2e-4c0.0751 0.13416 0.16604 0.26841 0.27337 0.40256 0.10732 0.12878 0.22519 0.24666 0.35398 0.35398 0.13415 0.10196 0.28189 0.1881 0.44287 0.25787 0.16098 0.06439 0.33567 0.09663 0.52348 0.09663 0.16098 0 0.30581-0.02698 0.4346-0.08062 9e-3 -4e-3 0.0179-0.0082 0.0269-0.0124-2e-3 0.04907-3e-3 0.09879-3e-3 0.14934 0 0.20928 0.0293 0.40221 0.0884 0.57929 0.0644 0.17708 0.15292 0.333 0.26561 0.46716 0.11269 0.12879 0.24985 0.2308 0.41083 0.30592 0.16098 0.06976 0.34044 0.10439 0.53899 0.10439 0.25221 0 0.50434-0.08854 0.75654-0.26562 0.25221-0.18245 0.46971-0.42639 0.65216-0.73226 0.0966 0.3005 0.24961 0.54973 0.45889 0.74827 0.21464 0.19855 0.47735 0.29817 0.78858 0.29817 0.22001 0 0.42933-0.05101 0.62787-0.15296 0.19854-0.10732 0.3838-0.24157 0.55552-0.40256s0.32712-0.33806 0.46664-0.53123c0.094-0.13019 0.17934-0.25694 0.25631-0.37982 0.0213 0.1353 0.0512 0.26426 0.0899 0.38757 0.0859 0.27367 0.21193 0.51284 0.37827 0.71675 0.16635 0.19855 0.36747 0.35156 0.60358 0.45889 0.23611 0.11269 0.50752 0.16898 0.81339 0.16898 0.34343 0 0.66004-0.0563 0.94981-0.16898 0.29513-0.11269 0.56074-0.25513 0.79685-0.42685 0.23612-0.17708 0.44543-0.37002 0.62787-0.57929 0.0995-0.11411 0.19036-0.22606 0.27389-0.33538 0.0144 0.1115 0.0382 0.21782 0.0718 0.31884 0.0644 0.17708 0.15293 0.333 0.26561 0.46716 0.1127 0.12879 0.24985 0.2308 0.41083 0.30592 0.16099 0.06976 0.34044 0.10439 0.53899 0.10439 0.2522 0 0.50484-0.08854 0.75706-0.26562 0.2522-0.18245 0.46918-0.42639 0.65164-0.73226 0.0966 0.3005 0.2496 0.54973 0.45888 0.74827 0.21464 0.19855 0.47787 0.29817 0.7891 0.29817 0.22001 0 0.42881-0.05101 0.62735-0.15296 0.19855-0.10732 0.38381-0.24157 0.55552-0.40256 0.17172-0.16099 0.32765-0.33806 0.46716-0.53123 0.13953-0.19318 0.2603-0.37844 0.36225-0.55552 0.10732-0.17708 0.19295-0.33248 0.25735-0.46664 0.0697-0.13952 0.11548-0.23096 0.13694-0.27388 1e-3 -0.0035 2e-3 -0.0069 4e-3 -0.01033 0.19119-0.46115 0.34829-0.78271 0.47077-0.96377 0.12339-0.1878 0.20953-0.28982 0.25787-0.30592 0.0322 0.02683 0.0533 0.10241 0.0641 0.22583 0.0107 0.12342 0.0165 0.25187 0.0165 0.38602 0 0.10195-6e-3 0.22802-0.0165 0.37827-0.0107 0.15025-0.0237 0.31436-0.0398 0.49144-0.0161 0.17172-0.0324 0.34588-0.0486 0.52297-0.0161 0.17708-0.032 0.34357-0.0481 0.49919-0.0161 0.15025-0.0296 0.2816-0.0403 0.39429-0.0107 0.10735-0.016 0.17951-0.016 0.21704 0 0.17172 0.0457 0.30597 0.13695 0.40256 0.0966 0.09122 0.22265 0.13694 0.37827 0.13694 0.11269 0 0.22237-0.04043 0.32969-0.12092 0.10732-0.07513 0.21462-0.22524 0.32195-0.45062 0.0537-0.11806 0.12633-0.26579 0.21756-0.44287 0.0966-0.18245 0.1986-0.37248 0.30592-0.57102 0.11269-0.19855 0.23056-0.39728 0.35398-0.59583 0.1288-0.20391 0.25247-0.38627 0.37052-0.54725 0.12342-0.16099 0.23839-0.28995 0.34572-0.38654 0.11268-0.10196 0.21231-0.15296 0.29817-0.15296 0.0429 0 0.091 0.03224 0.1447 0.09663 0.0537 0.05903 0.0806 0.17452 0.0806 0.34623 0 0.10196-5e-3 0.20926-0.016 0.32194-5e-3 0.11269-0.0164 0.22528-0.0326 0.33796-0.0107 0.11269-0.0213 0.21999-0.032 0.32194-5e-3 0.10196-8e-3 0.1934-8e-3 0.27388 0 0.18782 0.013 0.37546 0.0398 0.56327 0.0322 0.18245 0.0914 0.35133 0.17726 0.50695 0.0859 0.15025 0.20373 0.27393 0.35398 0.37052 0.15025 0.09122 0.34609 0.13694 0.58756 0.13694 0.21465 0 0.41868-0.05391 0.61185-0.16123 0.19855-0.10732 0.38091-0.24158 0.54725-0.40256 0.17173-0.16099 0.32764-0.33805 0.46716-0.53123 0.0911-0.12971 0.17344-0.25278 0.24856-0.37104 0.0212 0.1351 0.0508 0.26391 0.0894 0.38706 0.0859 0.27367 0.21192 0.51284 0.37827 0.71675 0.16635 0.19855 0.36799 0.35156 0.6041 0.45889 0.23611 0.11269 0.507 0.16898 0.81287 0.16898 0.34343 0 0.66004-0.0563 0.94981-0.16898 0.29514-0.11269 0.56074-0.25513 0.79685-0.42685 0.23611-0.17708 0.44543-0.37002 0.62787-0.57929 0.18245-0.20928 0.33785-0.41092 0.46664-0.6041 8e-3 -0.01257 0.0166-0.02481 0.0248-0.03721 0.0139 0.06073 0.0297 0.12168 0.0476 0.18242 0.0805 0.27367 0.20416 0.52051 0.37052 0.74052 0.16634 0.21464 0.37804 0.38881 0.63562 0.52296 0.25758 0.13952 0.56361 0.20929 0.91777 0.20929 0.55271-0.01073 1.0464-0.22243 1.481-0.63562 0.43653-0.40991 0.83877-1.0182 1.2066-1.8242 0.0279-0.03851 0.0549-0.08215 0.0811-0.13178 0.059-0.11805 0.11007-0.23116 0.15297-0.33848 0.048-0.10689 0.0883-0.20274 0.1204-0.28835 0.0642 0.15508 0.13392 0.30464 0.20878 0.44907 0.0805 0.13952 0.15315 0.27667 0.21755 0.41083 0.0697 0.13414 0.12608 0.26789 0.16898 0.40204s0.0646 0.26841 0.0646 0.40256c0 0.0644-0.0135 0.14237-0.0403 0.23358-0.0215 0.08586-0.0591 0.16914-0.11265 0.2496-0.0537 0.07515-0.12636 0.13963-0.21756 0.19327-0.0859 0.05364-0.19316 0.0801-0.32194 0.0801-0.0644 0-0.12887-0.01055-0.19327-0.03204-0.059-0.02149-0.11242-0.04553-0.16072-0.07235-0.0429-0.03215-0.0805-0.05913-0.11265-0.08062-0.0324-0.02682-0.0513-0.04558-0.0563-0.05633-0.059-0.05906-0.13166-0.08837-0.21756-0.08837-0.0805 0-0.15264 0.03225-0.21704 0.09663-0.059 0.05903-0.0884 0.12883-0.0884 0.20929 0 0.05365 0.0159 0.10465 0.0481 0.15296 0.19319 0.28977 0.4009 0.40607 0.66456 0.46922 0.55162 0.13218 1.1934-0.15031 1.5012-0.75086 0.0912-0.20391 0.13643-0.41851 0.13643-0.64389 0-0.17171-0.0322-0.3435-0.0966-0.51521-0.059-0.17172-0.13646-0.35408-0.23306-0.54725-0.0966-0.19855-0.20679-0.41604-0.33021-0.65216-0.12342-0.23611-0.24658-0.507-0.37-0.81287 0.0268-0.12878 0.048-0.23606 0.0641-0.32194 0.0161-0.08585 0.0243-0.17147 0.0243-0.25735 0-0.15562-0.0376-0.28696-0.11265-0.39429-0.0698-0.10734-0.16648-0.16123-0.2899-0.16123zm-51.316 1.6583c9e-3 -3.15e-4 0.0178 0 0.0269 0 0.10733 0 0.20115 0.04281 0.28164 0.12867 0.0805 0.08049 0.12092 0.20127 0.12092 0.36225 0 0.14488-0.027 0.28971-0.0806 0.4346-0.0537 0.13952-0.12872 0.27377-0.22531 0.40256-0.0966 0.12878-0.21446 0.24666-0.35398 0.35398-0.13415 0.10732-0.28479 0.19586-0.45113 0.26562-0.0268-0.09659-0.0508-0.1986-0.0724-0.30592-0.0161-0.10732-0.0243-0.20934-0.0243-0.30592 0-0.15562 0.0135-0.31102 0.0403-0.46664 0.0322-0.16098 0.0808-0.30581 0.14521-0.4346 0.0644-0.12878 0.14712-0.2337 0.24908-0.31419 0.0956-0.07547 0.21033-0.11569 0.34365-0.12041zm47.691 0c9e-3 -3.15e-4 0.0178 0 0.0269 0 0.10733 0 0.20115 0.04281 0.28164 0.12867 0.0805 0.08049 0.12092 0.20127 0.12092 0.36225 0 0.14488-0.0269 0.28971-0.0806 0.4346-0.0537 0.13952-0.12873 0.27377-0.22531 0.40256-0.0966 0.12878-0.21446 0.24666-0.35399 0.35398-0.13403 0.10723-0.28444 0.19588-0.45061 0.26562-0.0269-0.09659-0.0514-0.1986-0.0729-0.30592-0.0161-0.10732-0.0238-0.20934-0.0238-0.30592 0-0.15562 0.013-0.31102 0.0398-0.46664 0.0322-0.16098 0.0808-0.30581 0.14521-0.4346 0.0644-0.12878 0.14764-0.2337 0.2496-0.31419 0.0956-0.07547 0.20981-0.11569 0.34313-0.12041zm-66.427 0.05633c0.0805 0 0.15025 0.03992 0.20929 0.12041 0.0591 0.07513 0.10716 0.17714 0.14469 0.30592 0.0429 0.12342 0.0751 0.26058 0.0966 0.41083 0.0215 0.15025 0.0326 0.29746 0.0326 0.44235 0 0.10732-8e-3 0.21753-0.0243 0.33021-0.11269-0.06976-0.2118-0.153-0.29765-0.2496-0.0805-0.10195-0.15027-0.20636-0.20929-0.31368-0.0537-0.11269-0.0941-0.2258-0.12093-0.33848-0.0268-0.11269-0.0403-0.21999-0.0403-0.32194 0-0.16097 0.027-0.26536 0.0806-0.31368 0.0537-0.04831 0.0965-0.07235 0.12868-0.07235zm75.894 2.6882c-0.12342 0-0.22783 0.04282-0.31368 0.12867-0.0805 0.0805-0.12092 0.1825-0.12092 0.30592s0.0404 0.22543 0.12092 0.30592c0.0858 0.08586 0.19026 0.12867 0.31368 0.12867s0.22543-0.04281 0.30592-0.12867c0.0859-0.08049 0.12919-0.1825 0.12919-0.30592s-0.0433-0.22543-0.12919-0.30592c-0.0805-0.08585-0.1825-0.12867-0.30592-0.12867z" fill="#302d2d" stop-color="#000000" style="-inkscape-stroke:none;font-variation-settings:normal"/>
<g transform="matrix(-1 0 0 1 76.327 15.868)">
<path transform="matrix(.35278 0 0 -.35278 10.933 42.258)" d="m0 0c-0.016 0.562-0.387 1.052-0.807 1.387-0.601 0.752-1.871 0.622-2.492 0-0.736-0.735-0.597-1.741 0-2.491 0.336-0.421 0.826-0.792 1.389-0.809 0.18-0.022 0.363-0.018 0.549 6e-3 0.025 2e-3 0.05 7e-3 0.076 0.011 0.058 9e-3 0.117 0.014 0.178 0.026-2e-3 4e-3 -2e-3 9e-3 -4e-3 0.013 0.511 0.14 0.963 0.517 1.07 1.054 0.055 0.275 0.074 0.542 0.041 0.803" clip-path="url(#n)" fill="#302d2d"/>
<path transform="matrix(.35278 0 0 -.35278 6.2092 39.576)" d="m0 0c-12.541 2.965-15.525 25.947-14.625 27.75 0.5 1 4.875-1.125 4.875-1.125s0.838 8.301 2.125 9.375c0.75 0.625 3.125-2.625 3.125-2.625s4.336 6 6.125 6c1.125 0 2.5-5.125 2.5-5.125s7.65 13.45 12.25 15.75c0.75 0.375 0.125-3.375 0.125-3.375s10.1 6.262 11.25 4.125c0.875-1.625-2-8.25-2-8.25s5.25 0.5 5.5-0.75c0.697-3.488-6.5-15.875-6.5-15.875s4.625 1 7.125-0.375c1.145-0.629-2.375-2.813-2.375-2.813s5.875-1.062 7-2.687-4-3.625-4-3.625 2.75 0 3.125-1.375-10.25-21-35.625-15" clip-path="url(#m)" fill="#f46437"/>
<g fill="#302d2d">
<path transform="matrix(.35278 0 0 -.35278 5.2817 42.553)" d="m0 0s0.03 0.205 0.087 0.588c0.052 0.384 0.128 0.945 0.225 1.66 0.213 1.446 0.522 3.515 1.075 5.962 0.255 1.228 0.588 2.545 0.943 3.937 0.358 1.393 0.79 2.846 1.251 4.344 0.509 1.483 0.973 3.038 1.58 4.57 0.29 0.771 0.582 1.547 0.875 2.327 0.325 0.768 0.651 1.538 0.978 2.308 0.636 1.549 1.381 3.048 2.104 4.528 0.688 1.497 1.517 2.894 2.257 4.276 0.718 1.397 1.578 2.65 2.325 3.877 0.386 0.607 0.742 1.209 1.119 1.77 0.39 0.553 0.767 1.087 1.128 1.6 0.728 1.021 1.371 1.974 2.003 2.774 0.641 0.792 1.199 1.482 1.659 2.051 0.919 1.136 1.444 1.785 1.444 1.785 0.092 0.113 0.258 0.131 0.371 0.039 0.11-0.089 0.13-0.25 0.045-0.363l-0.01-0.013s-0.5-0.663-1.375-1.823c-0.438-0.579-0.968-1.282-1.577-2.09-0.6-0.812-1.2-1.784-1.909-2.805-0.349-0.515-0.711-1.052-1.087-1.606-0.363-0.563-0.705-1.167-1.075-1.775-0.723-1.228-1.535-2.491-2.245-3.875-0.724-1.373-1.536-2.76-2.208-4.248-0.707-1.47-1.434-2.958-2.054-4.496-0.325-0.761-0.652-1.523-0.976-2.282-0.295-0.77-0.59-1.538-0.882-2.299-0.612-1.513-1.08-3.051-1.594-4.516-0.46-1.484-0.914-2.916-1.3-4.288-0.38-1.373-0.737-2.672-1.014-3.885-0.583-2.418-0.999-4.45-1.251-5.881-0.125-0.724-0.223-1.294-0.29-1.682-0.071-0.386-0.11-0.592-0.11-0.592-0.027-0.143-0.163-0.237-0.306-0.21-0.14 0.026-0.232 0.157-0.212 0.296z" clip-path="url(#l)"/>
<path transform="matrix(.35278 0 0 -.35278 6.1093 38.607)" d="m0 0c0.835-0.256 1.653-0.571 2.508-0.76 0.842-0.237 1.702-0.389 2.56-0.545 0.865-0.113 1.73-0.247 2.603-0.275 0.87-0.068 1.743-0.045 2.615-0.028 0.871 0.048 1.74 0.118 2.604 0.248 0.861 0.131 1.722 0.281 2.567 0.501 0.85 0.194 1.685 0.456 2.51 0.738 0.826 0.28 1.637 0.608 2.435 0.96 3.191 1.423 6.139 3.38 8.745 5.703 0.645 0.588 1.28 1.188 1.87 1.828 0.584 0.637 1.17 1.303 1.611 2.004l0.124 0.211c9e-3 0.023 0.035 0.014 0.046 0.063l0.011 0.082 3e-3 0.021 1e-3 0.01c-1e-3 0.026 0.018-0.179 8e-3 -0.091l-0.01 0.017c-0.012 0.078-0.168 0.231-0.304 0.347-0.303 0.246-0.682 0.454-1.061 0.646-0.765 0.382-1.586 0.703-2.399 0.983-0.188 0.064-0.288 0.268-0.224 0.456 0.028 0.078 0.079 0.142 0.145 0.184 1.014 0.661 2.022 1.351 2.999 2.068 0.488 0.358 0.969 0.727 1.432 1.108 0.455 0.382 0.923 0.786 1.248 1.21 0.17 0.291 0.177 0.145 0.064 0.297-0.147 0.141-0.431 0.278-0.683 0.395-0.531 0.235-1.104 0.424-1.677 0.601-1.155 0.345-2.339 0.636-3.52 0.888-0.212 0.045-0.347 0.253-0.302 0.463 0.028 0.129 0.116 0.229 0.228 0.278l9e-3 4e-3c0.386 0.164 0.788 0.371 1.134 0.605 0.173 0.118 0.334 0.246 0.464 0.38 0.123 0.128 0.205 0.29 0.208 0.345-0.01 0.01 0.026-0.028 0.011 0.027l-0.026 0.082-0.014 0.041-6e-3 0.02-4e-3 0.01-1e-3 5e-3c0.01-0.025-0.024 0.061 0.023-0.056 0.011-0.032-0.015 0.018-0.091 0.05-0.141 0.073-0.347 0.132-0.55 0.18-0.417 0.091-0.86 0.147-1.306 0.189-1.789 0.153-3.623 0.144-5.433 0.094-0.23-6e-3 -0.421 0.175-0.427 0.404-3e-3 0.098 0.028 0.189 0.083 0.262l0.018 0.023c0.297 0.394 0.632 0.752 0.898 1.178 0.284 0.408 0.559 0.824 0.806 1.262 0.517 0.857 0.974 1.757 1.41 2.665 0.866 1.822 1.615 3.705 2.261 5.619 0.317 0.958 0.616 1.923 0.858 2.896 0.127 0.487 0.234 0.974 0.322 1.461 0.09 0.479 0.136 1.002 0.151 1.332 9e-3 0.095-0.046 0.24-0.066 0.358 0.037-0.011-0.061 0.058-0.064 0.1-0.102 0.06-0.241 0.135-0.449 0.145-0.404 0.037-0.885-0.04-1.349-0.159-0.934-0.246-1.877-0.624-2.757-1.051-0.234-0.113-0.516-0.016-0.63 0.219-0.057 0.118-0.06 0.25-0.019 0.365 0.606 1.697 1.152 3.441 1.558 5.192 0.198 0.874 0.366 1.761 0.404 2.618 0.015 0.418-7e-3 0.857-0.122 1.145l-0.045 0.092c-0.013 0.019-0.012 0.01-9e-3 0.024 0.028 1e-3 -0.067 0.058-0.097 0.087l-0.034 0.026-9e-3 6e-3 -4e-3 4e-3c0.024-0.016-0.059 0.04 0.053-0.035l-8e-3 1e-3 -0.025 6e-3c-0.068 0.028-0.237 0.039-0.42 0-0.368-0.065-0.776-0.225-1.169-0.404-0.397-0.179-0.789-0.389-1.176-0.612-0.778-0.44-1.537-0.932-2.286-1.439-1.494-1.02-2.956-2.115-4.367-3.247l-5e-3 -4e-3c-0.206-0.166-0.509-0.132-0.675 0.074-0.047 0.059-0.079 0.129-0.095 0.198l-0.989 4.502 0.621-0.339c-0.353-0.155-0.713-0.344-1.04-0.619-0.334-0.254-0.647-0.557-0.947-0.873-0.601-0.634-1.146-1.338-1.662-2.064-1.027-1.46-1.938-3.016-2.796-4.599-1.703-3.174-3.216-6.471-4.577-9.807-0.086-0.216-0.329-0.321-0.545-0.235-0.104 0.041-0.185 0.124-0.228 0.218-0.533 1.189-1.098 2.376-1.698 3.534-0.3 0.579-0.611 1.152-0.938 1.709-0.169 0.273-0.331 0.557-0.514 0.814-0.168 0.256-0.381 0.535-0.545 0.713l-0.112 0.129c-0.049 0.045-0.133 0.09-0.198 0.135-0.021 0.017 0.014 0.018-0.081-0.012-0.171-0.091-0.392-0.321-0.573-0.561-0.37-0.491-0.693-1.054-0.994-1.624-0.599-1.145-1.128-2.349-1.607-3.554-0.079-0.197-0.301-0.294-0.498-0.216-0.075 0.029-0.135 0.08-0.176 0.141-0.736 1.082-1.529 2.154-2.405 3.107-0.22 0.236-0.449 0.463-0.685 0.665-0.232 0.199-0.497 0.378-0.7 0.437-0.173 0.041-0.149-0.021-0.307-0.313-0.125-0.261-0.214-0.58-0.302-0.885-0.327-1.256-0.535-2.571-0.722-3.881-0.185-1.311-0.34-2.632-0.469-3.949-0.017-0.189-0.184-0.329-0.373-0.312-0.032 3e-3 -0.068 0.012-0.098 0.023l-2.497 1.006 0.46 0.269c-0.034-0.646-0.146-1.285-0.118-1.938 1e-3 -0.651-6e-3 -1.303 0.062-1.955 0.04-0.652 0.1-1.303 0.204-1.951 0.079-0.651 0.179-1.298 0.317-1.94 0.119-0.645 0.246-1.289 0.418-1.923 0.159-0.636 0.305-1.277 0.511-1.9 0.201-0.625 0.358-1.265 0.599-1.875 0.233-0.614 0.435-1.24 0.691-1.844l0.785-1.804 0.892-1.752c0.324-0.569 0.672-1.122 1.007-1.685 0.346-0.555 0.756-1.066 1.13-1.601 0.378-0.533 0.848-0.989 1.267-1.488 0.425-0.496 0.95-0.885 1.419-1.334 0.486-0.43 1.046-0.737 1.563-1.114 0.561-0.325 1.188-0.572 1.779-0.862zm-0.2-0.487c-0.597 0.289-1.21 0.526-1.793 0.858-0.556 0.392-1.167 0.73-1.674 1.173-0.488 0.461-1.036 0.867-1.476 1.374-0.433 0.511-0.919 0.981-1.31 1.525-0.387 0.546-0.809 1.07-1.165 1.635-0.345 0.572-0.704 1.136-1.036 1.715l-0.917 1.78-0.807 1.83c-0.263 0.613-0.472 1.247-0.71 1.869-0.248 0.62-0.41 1.268-0.618 1.9-0.212 0.633-0.362 1.283-0.527 1.928-0.177 0.643-0.31 1.296-0.435 1.952-0.142 0.652-0.248 1.31-0.332 1.973-0.107 0.659-0.172 1.324-0.216 1.993-0.073 0.665-0.07 1.337-0.074 2.008-0.031 0.671 0.08 1.347 0.115 2.02 9e-3 0.176 0.158 0.311 0.334 0.302 0.035-2e-3 0.07-9e-3 0.1-0.021l0.027-0.011 2.502-0.994-0.471-0.289c0.124 1.334 0.274 2.659 0.454 3.985 0.184 1.326 0.384 2.648 0.722 3.972 0.096 0.333 0.181 0.661 0.34 1.004 0.068 0.173 0.164 0.336 0.372 0.563 0.042 0.028 0.047 0.042 0.119 0.082 0.08 0.042 0.189 0.086 0.261 0.093 0.149 0.023 0.277 6e-3 0.397-0.02 0.438-0.131 0.721-0.36 0.997-0.584 0.272-0.229 0.517-0.472 0.752-0.721 0.931-1.005 1.73-2.078 2.497-3.193l-0.674-0.075c0.487 1.241 1.012 2.453 1.627 3.643 0.31 0.593 0.639 1.18 1.058 1.742 0.221 0.277 0.438 0.562 0.845 0.791 0.191 0.118 0.602 0.17 0.851-0.015 0.13-0.07 0.288-0.2 0.444-0.363 0.286-0.301 0.465-0.556 0.663-0.844 0.199-0.28 0.366-0.568 0.544-0.853 0.342-0.575 0.662-1.158 0.97-1.745 0.615-1.176 1.188-2.364 1.737-3.573l-0.772-0.016c1.362 3.384 2.862 6.696 4.574 9.921 0.861 1.608 1.777 3.193 2.83 4.704 0.531 0.753 1.094 1.49 1.737 2.176 0.322 0.342 0.661 0.674 1.047 0.971 0.368 0.31 0.812 0.562 1.289 0.765 0.229 0.098 0.493-9e-3 0.591-0.239 0.011-0.024 0.018-0.049 0.024-0.075l6e-3 -0.025 1.011-4.498-0.775 0.268c1.436 1.163 2.899 2.27 4.419 3.319 0.763 0.521 1.538 1.029 2.35 1.492 0.406 0.231 0.821 0.452 1.259 0.648 0.439 0.194 0.888 0.379 1.421 0.473 0.262 0.044 0.569 0.074 0.931-0.055l0.134-0.056 0.033-0.015 0.075-0.051 0.033-0.026c0.053-0.048 0.07-0.04 0.158-0.139 0.07-0.078 0.148-0.173 0.194-0.252l0.105-0.216c0.214-0.571 0.201-1.07 0.19-1.559-0.049-0.973-0.231-1.889-0.439-2.796-0.43-1.81-0.987-3.56-1.617-5.302l-0.651 0.583c0.954 0.456 1.913 0.838 2.951 1.108 0.522 0.126 1.061 0.23 1.674 0.175 0.302-0.022 0.652-0.133 0.96-0.377 0.123-0.173 0.274-0.263 0.334-0.537 0.023-0.132 0.067-0.231 0.072-0.391 0.037-0.69-0.061-1.18-0.146-1.703-0.096-0.515-0.21-1.023-0.343-1.522-0.255-1.003-0.563-1.984-0.89-2.958-0.666-1.945-1.434-3.851-2.326-5.706-0.449-0.926-0.92-1.844-1.46-2.728-0.256-0.449-0.544-0.882-0.843-1.309-0.278-0.439-0.642-0.831-0.961-1.246l-0.326 0.689c1.847 0.041 3.68 0.044 5.539-0.123 0.465-0.046 0.931-0.105 1.408-0.211 0.241-0.061 0.48-0.12 0.747-0.258 0.128-0.07 0.29-0.163 0.423-0.39l3e-3 -5e-3 0.024-0.061 1e-3 -5e-3 4e-3 -0.01 6e-3 -0.021 0.039-0.123c0.019-0.053 0.029-0.21 0.024-0.313-0.048-0.404-0.246-0.633-0.427-0.84-0.189-0.195-0.39-0.349-0.595-0.489-0.415-0.275-0.831-0.487-1.286-0.678l-0.066 0.744c1.208-0.263 2.397-0.561 3.583-0.921 0.592-0.185 1.182-0.381 1.768-0.643 0.295-0.146 0.582-0.261 0.886-0.537 0.071-0.048 0.153-0.146 0.222-0.283 0.032-0.086 0.064-0.069 0.087-0.243-2e-3 -0.052 0.011-0.044-4e-3 -0.153-0.074-0.38-0.178-0.437-0.283-0.61-0.425-0.544-0.9-0.932-1.379-1.336-0.481-0.392-0.974-0.766-1.471-1.128-0.997-0.724-2.01-1.412-3.045-2.079l-0.081 0.64c0.853-0.297 1.677-0.624 2.49-1.033 0.405-0.208 0.805-0.425 1.188-0.736 0.184-0.177 0.394-0.316 0.52-0.667 0.109-0.388-0.167-0.721-0.252-0.891-0.504-0.79-1.098-1.449-1.705-2.109-0.61-0.654-1.26-1.264-1.92-1.862-2.67-2.357-5.678-4.335-8.94-5.772-0.816-0.355-1.644-0.686-2.49-0.969-0.843-0.284-1.697-0.547-2.566-0.742-0.865-0.221-1.745-0.371-2.626-0.501-0.883-0.128-1.772-0.196-2.662-0.241-0.892-0.014-1.785-0.033-2.673 0.041-0.892 0.032-1.775 0.173-2.657 0.292-0.876 0.163-1.751 0.323-2.609 0.568-0.869 0.197-1.701 0.52-2.551 0.785z" clip-path="url(#k)"/>
<path transform="matrix(.35278 0 0 -.35278 15.457 32.344)" d="m0 0c-3.758-1.431-7.53-2.819-11.309-4.189-3.789-1.341-7.565-2.718-11.367-4.022l-6e-3 -2e-3c-0.235-0.08-0.491 0.032-0.595 0.252-1.321 2.797-2.654 5.589-3.945 8.401-1.31 2.803-2.581 5.624-3.854 8.445-0.06 0.133 0 0.289 0.132 0.349 0.13 0.058 0.281 3e-3 0.344-0.122 1.394-2.763 2.789-5.524 4.146-8.305 1.376-2.771 2.709-5.563 4.056-8.349l-0.601 0.25c3.781 1.363 7.588 2.652 11.382 3.978 3.805 1.296 7.616 2.575 11.441 3.811 0.139 0.045 0.288-0.031 0.332-0.17 0.044-0.134-0.026-0.277-0.156-0.327" clip-path="url(#j)"/>
<path transform="matrix(.35278 0 0 -.35278 13.886 26.692)" d="m0 0c-0.823-0.552-1.652-1.095-2.493-1.618-0.842-0.521-1.673-1.061-2.527-1.561-1.693-1.025-3.4-2.029-5.124-3.003l-9e-3 -5e-3c-0.227-0.128-0.514-0.048-0.642 0.178-0.026 0.047-0.044 0.097-0.054 0.147-0.395 2.171-0.748 4.35-1.043 6.54-0.019 0.144 0.082 0.277 0.227 0.297 0.135 0.018 0.259-0.069 0.291-0.198 0.538-2.143 1.02-4.297 1.457-6.46l-0.705 0.32c1.692 1.026 3.403 2.022 5.126 2.997 0.854 0.5 1.732 0.96 2.599 1.44 0.867 0.476 1.747 0.933 2.631 1.381 0.13 0.066 0.289 0.014 0.355-0.116 0.061-0.121 0.02-0.266-0.089-0.339" clip-path="url(#i)"/>
<path transform="matrix(.35278 0 0 -.35278 6.7818 29.556)" d="m0 0s-0.083-0.434-0.265-1.064c-0.173-0.633-0.464-1.454-0.766-2.27-0.166-0.402-0.332-0.805-0.489-1.182-0.158-0.377-0.332-0.718-0.467-1.015-0.288-0.589-0.513-0.969-0.513-0.969-0.075-0.127-0.239-0.169-0.366-0.094-0.101 0.059-0.148 0.175-0.126 0.283 0 0 0.088 0.433 0.268 1.063 0.099 0.312 0.199 0.682 0.333 1.067 0.137 0.385 0.284 0.794 0.43 1.204 0.322 0.809 0.657 1.613 0.952 2.199 0.287 0.589 0.517 0.967 0.517 0.967 0.077 0.127 0.241 0.167 0.368 0.09 0.098-0.059 0.144-0.173 0.124-0.279" clip-path="url(#h)"/>
<path transform="matrix(.35278 0 0 -.35278 13.003 34.985)" d="m0 0s-0.379 0.102-0.92 0.309c-0.544 0.2-1.242 0.523-1.934 0.857-0.339 0.181-0.678 0.362-0.997 0.532-0.316 0.173-0.599 0.359-0.848 0.506-0.489 0.309-0.801 0.546-0.801 0.546-0.117 0.09-0.14 0.258-0.05 0.376 0.069 0.09 0.184 0.124 0.286 0.096 0 0 0.376-0.107 0.918-0.313 0.267-0.111 0.585-0.226 0.913-0.375 0.327-0.153 0.675-0.315 1.024-0.478 0.682-0.353 1.359-0.718 1.847-1.034 0.49-0.308 0.798-0.55 0.798-0.55 0.117-0.092 0.137-0.261 0.045-0.378-0.068-0.088-0.179-0.121-0.281-0.094" clip-path="url(#g)"/>
<path transform="matrix(.35278 0 0 -.35278 1.2269 21.975)" d="m0 0c-0.76 0-1.395-0.634-1.395-1.395 0-0.76 0.635-1.394 1.395-1.394s1.395 0.634 1.395 1.394c0 0.761-0.635 1.395-1.395 1.395" clip-path="url(#f)"/>
<path transform="matrix(.35278 0 0 -.35278 2.7262 18.145)" d="m0 0c-1.936 0-1.936-3 0-3 1.934 0 1.934 3 0 3" clip-path="url(#e)"/>
<path transform="matrix(.35278 0 0 -.35278 4.6665 21.903)" d="m0 0c-1.738 0-1.738-2.695 0-2.695s1.738 2.695 0 2.695" clip-path="url(#d)"/>
<path transform="matrix(.35278 0 0 -.35278 25.098 41.519)" d="m0 0c-1.391 0-1.391-2.156 0-2.156s1.391 2.156 0 2.156" clip-path="url(#c)"/>
<path transform="matrix(.35278 0 0 -.35278 26.039 37.343)" d="m0 0c-1.18 0-1.18-1.828 0-1.828 1.178 0 1.178 1.828 0 1.828" clip-path="url(#b)"/>
<path transform="matrix(.35278 0 0 -.35278 21.394 33.115)" d="m0 0c0.02 0.104 0.027 0.198-0.057 0.025 0.178 0.378 0.149 0.776 0.051 1.171-0.201 0.81-1.469 0.832-1.656 0-0.147-0.649 8e-3 -1.193 0.488-1.635 0.172-0.157 0.432-0.258 0.666-0.176 0.137 0.049 0.276 0.059 0.418 0.1 0.213 0.062 0.297 0.391 0.09 0.515" clip-path="url(#a)"/>
</g>
</g>
<g transform="translate(2.5921 2.2451)">
<path transform="matrix(.34278 -.083376 -.083376 -.34278 207.33 57.908)" d="m0 0c0.372 1.342 0.804 2.662 1.235 3.982 0.456 1.312 0.899 2.628 1.384 3.929l5e-3 0.013c0.091 0.244 0.358 0.371 0.604 0.291 1.16-0.382 2.332-0.729 3.482-1.14 1.157-0.393 2.31-0.801 3.45-1.245 0.136-0.053 0.203-0.206 0.151-0.343-0.049-0.124-0.181-0.19-0.307-0.161-1.192 0.278-2.373 0.593-3.55 0.921-1.183 0.311-2.345 0.687-3.517 1.026l0.608 0.303c-0.459-1.309-0.962-2.604-1.45-3.904-0.514-1.291-1.027-2.582-1.599-3.852-0.06-0.132-0.217-0.192-0.35-0.132-0.121 0.054-0.18 0.188-0.146 0.312" clip-path="url(#x)" fill="#302d2d"/>
<path transform="matrix(.34278 -.083376 -.083376 -.34278 203.79 50.33)" d="m0 0c-3.482-1.416-11.666-6.666-8.5-18.834 3.168-12.166 18.834-8 21.334-11.166s8.646 14.299 3.834 22c-5 8-11.334 10.166-16.668 8" clip-path="url(#w)" fill="#f6b63e"/>
<path transform="matrix(.34278 -.083376 -.083376 -.34278 194.3 47.132)" d="M 0,0 C -2.311,3.467 1.936,12.223 8.668,14 C 17.5,16.336 29.148,9.357 29,7.334 C 28.5,0.502 11.334,-17 0,0" clip-path="url(#v)" fill="#f6b63e"/>
<g fill="#302d2d">
<path transform="matrix(.34278 -.083376 -.083376 -.34278 178.45 49.199)" d="m0 0s1.547-0.129 4.229-0.475c2.684-0.352 6.515-0.896 11.063-1.823 2.277-0.447 4.729-1.003 7.314-1.624 2.583-0.636 5.294-1.354 8.075-2.188 2.779-0.836 5.637-1.752 8.497-2.815 2.868-1.037 5.734-2.221 8.561-3.495 2.8-1.334 5.579-2.719 8.205-4.283 0.658-0.388 1.313-0.776 1.965-1.16 0.634-0.414 1.264-0.827 1.891-1.238 1.27-0.795 2.453-1.687 3.624-2.553 1.198-0.831 2.251-1.812 3.344-2.69 1.079-0.895 2.032-1.889 3.015-2.794 0.945-0.945 1.793-1.934 2.651-2.854 0.808-0.963 1.533-1.944 2.258-2.858 1.338-1.913 2.494-3.72 3.317-5.434 0.219-0.42 0.431-0.827 0.637-1.22 0.193-0.398 0.334-0.804 0.495-1.182 0.307-0.759 0.59-1.459 0.846-2.089 0.462-1.28 0.707-2.326 0.929-3.018 0.205-0.699 0.314-1.072 0.314-1.072 0.041-0.14-0.039-0.285-0.178-0.326-0.138-0.04-0.282 0.037-0.325 0.173l-8e-3 0.026s-0.115 0.365-0.33 1.052c-0.232 0.678-0.492 1.704-0.968 2.955-0.263 0.616-0.554 1.297-0.871 2.041-0.164 0.368-0.31 0.763-0.507 1.151-0.209 0.383-0.426 0.778-0.648 1.189-0.838 1.668-2.015 3.416-3.331 5.294-0.719 0.894-1.436 1.852-2.238 2.794-0.85 0.9-1.69 1.868-2.625 2.793-0.975 0.884-1.918 1.858-2.989 2.734-1.084 0.858-2.125 1.819-3.315 2.633-1.161 0.846-2.334 1.719-3.594 2.499-0.622 0.401-1.248 0.805-1.877 1.211-0.647 0.376-1.297 0.755-1.95 1.135-2.607 1.532-5.37 2.885-8.15 4.19-2.807 1.25-5.634 2.466-8.477 3.507-2.831 1.075-5.666 2.003-8.424 2.853-2.76 0.847-5.453 1.58-8.019 2.23-2.569 0.635-5.007 1.205-7.271 1.666-4.526 0.932-8.321 1.603-10.989 1.987-2.668 0.396-4.197 0.553-4.197 0.553-0.144 0.015-0.25 0.144-0.235 0.289 0.015 0.143 0.143 0.248 0.286 0.236" clip-path="url(#u)"/>
<path transform="matrix(.34278 -.083376 -.083376 -.34278 185.91 48.776)" d="m0 0s0.785-0.082 2.166-0.172c1.379-0.106 3.355-0.179 5.725-0.272 1.185-0.017 2.469-0.074 3.828-0.063 1.358 2e-3 2.79-4e-3 4.27 0.037 1.482 0.013 3.01 0.087 4.563 0.171 1.554 0.05 3.122 0.241 4.697 0.35 1.571 0.138 3.135 0.354 4.678 0.525 1.529 0.261 3.043 0.479 4.493 0.759 1.436 0.335 2.847 0.583 4.155 0.925 1.301 0.37 2.531 0.72 3.667 1.044 1.11 0.401 2.127 0.768 3.029 1.094 0.225 0.081 0.444 0.16 0.656 0.236 0.202 0.094 0.397 0.185 0.585 0.272 0.376 0.176 0.721 0.337 1.033 0.483 1.249 0.582 1.963 0.914 1.963 0.914l0.025 0.011c0.132 0.062 0.288 4e-3 0.35-0.127 0.059-0.128 6e-3 -0.281-0.119-0.345 0 0-0.711-0.363-1.955-0.998-0.312-0.158-0.658-0.334-1.033-0.526-0.188-0.095-0.383-0.195-0.587-0.298-0.21-0.084-0.428-0.172-0.655-0.262-0.905-0.358-1.927-0.762-3.041-1.201-1.145-0.352-2.386-0.732-3.697-1.133-1.32-0.368-2.736-0.666-4.193-1.006-1.466-0.292-2.994-0.523-4.54-0.797-1.557-0.183-3.135-0.411-4.72-0.562-1.588-0.116-3.174-0.285-4.74-0.328-1.566-0.074-3.106-0.137-4.598-0.14-1.491-0.039-2.933-7e-3 -4.3 0.024-1.366 0.019-2.656 0.102-3.848 0.144-4.761 0.269-7.918 0.718-7.918 0.718-0.144 0.018-0.247 0.15-0.228 0.294 0.018 0.141 0.148 0.242 0.289 0.229" clip-path="url(#t)"/>
<path transform="matrix(.34278 -.083376 -.083376 -.34278 210.67 59.483)" d="m0 0c0.056 0.079 0.245 0.354 0.534 0.838 0.358 0.573 0.828 1.448 1.373 2.587 0.514 1.151 1.1 2.573 1.55 4.269 0.428 1.698 0.758 3.66 0.702 5.808-0.098 2.139-0.641 4.444-1.766 6.601-0.312 0.52-0.583 1.063-0.933 1.585-0.398 0.505-0.801 1.015-1.209 1.532-0.797 0.962-1.781 1.898-2.833 2.706-2.088 1.664-4.675 2.851-7.432 3.197-2.754 0.353-5.651-0.21-8.094-1.6-2.454-1.362-4.457-3.547-5.468-6.116-0.51-1.27-0.771-2.661-0.768-3.975 7e-3 -0.343 0.036-0.699 0.052-1.046l0.156-0.987 0.164-0.996 0.279-0.961c0.743-2.55 2.203-4.774 4.048-6.379 1.83-1.624 3.904-2.768 5.921-3.512 2.024-0.778 3.95-1.162 5.716-1.423 1.761-0.299 3.284-0.649 4.52-1.016 1.234-0.364 2.184-0.764 2.803-1.019 0.577-0.246 0.626-0.149 0.685-0.093m0.354-0.394-0.052-0.041c-0.018-0.013-0.04-0.031-0.066-0.051-0.038-0.025-0.117-0.059-0.193-0.084-0.312-0.078-0.6 0.043-0.923 0.161-0.645 0.258-1.551 0.629-2.767 0.975-1.214 0.346-2.717 0.676-4.461 0.954-0.871 0.135-1.813 0.267-2.807 0.491-0.981 0.233-2.006 0.515-3.046 0.903-2.084 0.746-4.247 1.903-6.184 3.587-1.953 1.662-3.533 4.007-4.346 6.697l-0.304 1.014-0.185 1.047-0.177 1.075c-0.02 0.35-0.052 0.693-0.063 1.053-0.021 1.499 0.247 2.956 0.784 4.355 1.073 2.785 3.193 5.192 5.844 6.643 2.643 1.469 5.758 2.038 8.693 1.633 2.94-0.398 5.661-1.691 7.822-3.448 1.102-0.869 2.073-1.803 2.943-2.872 0.403-0.519 0.8-1.034 1.194-1.542 0.359-0.546 0.66-1.142 0.983-1.7 1.172-2.297 1.705-4.703 1.787-6.933 0.036-2.233-0.326-4.251-0.782-5.989-0.48-1.735-1.092-3.18-1.627-4.35-1.124-2.321-2.011-3.521-2.011-3.521-0.015-0.02-0.036-0.041-0.056-0.057" clip-path="url(#s)"/>
<path transform="matrix(.34278 -.083376 -.083376 -.34278 203.56 56.331)" d="m0 0c0.716 1.575 1.481 3.123 2.252 4.669 0.778 1.543 1.575 3.074 2.373 4.605 0.099 0.193 0.311 0.291 0.513 0.261 1.692-0.27 3.387-0.513 5.076-0.806 1.689-0.286 3.377-0.582 5.057-0.925 0.144-0.03 0.236-0.169 0.207-0.312-0.028-0.133-0.151-0.221-0.283-0.21-1.709 0.156-3.41 0.361-5.11 0.574-1.701 0.207-3.395 0.465-5.092 0.695l0.513 0.26c-0.814-1.524-1.626-3.047-2.459-4.561-0.841-1.509-1.686-3.016-2.58-4.496-0.075-0.125-0.238-0.165-0.363-0.089-0.116 0.069-0.159 0.215-0.104 0.335" clip-path="url(#r)"/>
<path transform="matrix(.34278 -.083376 -.083376 -.34278 193.9 46.96)" d="m0 0s0.109-0.278 0.313-0.801c0.229-0.509 0.634-1.236 1.335-2.016 0.694-0.788 1.745-1.563 3.076-2.187 1.334-0.621 2.968-1.059 4.786-1.207 1.815-0.15 3.82-0.011 5.856 0.444 2.051 0.459 4.164 1.192 6.062 2.439 1.918 1.217 3.603 2.916 4.984 4.859 0.683 0.979 1.282 2.03 1.76 3.126 0.231 0.529 0.453 1.153 0.545 1.62 0.034 0.098 0.045 0.244 0.043 0.409l2e-3 0.057c9e-3 -0.096-4e-3 -0.028-2e-3 -0.051-6e-3 -1e-3 5e-3 -0.01-1e-3 2e-3 -0.031 0.04-0.041 0.074-0.082 0.122-0.141 0.195-0.365 0.402-0.575 0.597-1.809 1.556-3.961 2.828-6.109 3.897-2.167 1.051-4.406 1.885-6.641 2.333-1.115 0.216-2.239 0.331-3.309 0.301-0.262 0-0.535-0.02-0.814-0.05-0.283-0.016-0.515-0.072-0.791-0.118-0.524-0.098-1.05-0.162-1.544-0.327-2.009-0.534-3.777-1.484-5.154-2.657-1.383-1.171-2.374-2.547-3.009-3.871-0.633-1.328-0.936-2.595-1.03-3.645-0.075-1.061 3e-3 -1.862 0.107-2.422 0.128-0.568 0.197-0.87 0.197-0.87zm-0.509-0.137s-0.072 0.302-0.208 0.867c-0.117 0.579-0.219 1.488-0.149 2.593 0.086 1.113 0.388 2.452 1.04 3.862 0.652 1.404 1.679 2.868 3.123 4.122 1.437 1.256 3.292 2.281 5.397 2.867 0.519 0.18 1.069 0.255 1.618 0.364 0.263 0.048 0.569 0.116 0.84 0.134 0.272 0.033 0.552 0.057 0.851 0.064 1.168 0.046 2.334-0.061 3.505-0.274 2.336-0.438 4.648-1.27 6.885-2.321 2.222-1.09 4.424-2.299 6.373-3.996 0.24-0.23 0.476-0.445 0.701-0.753 0.056-0.072 0.114-0.18 0.167-0.27 0.028-0.057 0.055-0.144 0.075-0.218 0.01-0.059 0.021-0.027 0.024-0.163l-2e-3 -0.057c-1e-3 -0.149-9e-3 -0.31-0.054-0.514-0.151-0.749-0.379-1.288-0.639-1.891-0.523-1.163-1.164-2.252-1.89-3.268-1.467-2.017-3.251-3.773-5.279-5.029-2.017-1.291-4.23-2.025-6.337-2.47-2.129-0.45-4.191-0.569-6.081-0.392-1.889 0.176-3.592 0.652-4.989 1.322-1.395 0.673-2.5 1.509-3.233 2.361-0.743 0.843-1.168 1.63-1.408 2.18-0.212 0.564-0.325 0.865-0.325 0.865z" clip-path="url(#q)"/>
<path transform="matrix(.34278 -.083376 -.083376 -.34278 200.28 41.12)" d="m0 0c-0.627-1.573-1.311-3.12-1.994-4.666-0.703-1.537-1.402-3.075-2.132-4.601l-0.232 0.657c1.379-0.686 2.774-1.341 4.141-2.053 1.374-0.698 2.742-1.407 4.093-2.155 0.127-0.071 0.174-0.232 0.103-0.359-0.066-0.119-0.209-0.167-0.332-0.116-1.427 0.586-2.836 1.209-4.241 1.845-1.41 0.621-2.794 1.3-4.192 1.947-0.244 0.113-0.351 0.402-0.237 0.647l1e-3 1e-3 3e-3 8e-3c0.716 1.532 1.461 3.049 2.203 4.568 0.76 1.509 1.522 3.019 2.339 4.502 0.071 0.128 0.232 0.174 0.359 0.104 0.118-0.065 0.167-0.207 0.118-0.329" clip-path="url(#p)"/>
<path transform="matrix(.34278 -.083376 -.083376 -.34278 197.1 40.98)" d="m0 0c-0.849-2.346-1.738-4.674-2.648-6.993-0.935-2.31-1.841-4.632-2.815-6.925l-0.152 0.567c1.465-1.148 2.935-2.29 4.379-3.465 1.458-1.159 2.886-2.354 4.319-3.544 0.112-0.093 0.128-0.259 0.034-0.371-0.089-0.107-0.245-0.125-0.356-0.045-1.512 1.087-3.028 2.171-4.515 3.29-1.501 1.102-2.975 2.238-4.455 3.368-0.176 0.133-0.233 0.363-0.156 0.558l4e-3 0.01c0.916 2.318 1.899 4.607 2.853 6.908 0.98 2.292 1.979 4.576 3.02 6.841 0.06 0.133 0.217 0.191 0.349 0.13 0.126-0.058 0.185-0.202 0.139-0.329" clip-path="url(#o)"/>
</g>
</g>
<g fill="#302d2d">
<path transform="matrix(.35278 0 0 -.35278 196.34 57.931)" d="m0 0c-2.479 0-2.479-3.844 0-3.844s2.479 3.844 0 3.844" clip-path="url(#aa)"/>
<path transform="matrix(.35278 0 0 -.35278 198.38 55.335)" d="m0 0c-0.021 0.029-0.041 0.059-0.062 0.09-0.534 0.75-1.569 0.996-2.272 0.293-0.625-0.625-0.555-1.856 0.291-2.272 0.035-0.017 0.07-0.035 0.104-0.05 0.578-0.286 1.244-0.254 1.718 0.22 0.42 0.422 0.586 1.205 0.221 1.719" clip-path="url(#z)"/>
<path transform="matrix(.35278 0 0 -.35278 198.75 58.11)" d="m0 0c-1.18 0-1.18-1.828 0-1.828 1.178 0 1.178 1.828 0 1.828" clip-path="url(#y)"/>
</g>
</g>
</svg>
