<svg xmlns="http://www.w3.org/2000/svg" width="239.224" height="115.581" viewBox="0 0 63.295 30.581"><path d="M54.785 17.297H84.19V42.39H54.785ZM21.195 18.287h31.64V42.89h-31.64Z" style="overflow:visible;fill:#fff;fill-rule:evenodd;stroke-width:.300001;stop-color:#000" transform="translate(-21.045 -14.878)"/><path d="M22.195 17.287h31.64V41.89h-31.64ZM54.785 16.297H83.19V41.39H54.785Z" style="overflow:visible;fill:#fff;fill-rule:evenodd;stroke-width:.300001;stop-color:#000" transform="translate(-21.045 -14.878)"/><path d="M51.8 42.891H21.195V18.256M84.19 17.256v25.135H56.066" style="font-variation-settings:normal;overflow:visible;opacity:1;vector-effect:none;fill:none;fill-opacity:1;fill-rule:evenodd;stroke:#b3b3b3;stroke-width:.3;stroke-linecap:round;stroke-linejoin:round;stroke-miterlimit:4;stroke-dasharray:none;stroke-dashoffset:0;stroke-opacity:1;-inkscape-stroke:none;stop-color:#000;stop-opacity:1" transform="translate(-21.045 -14.878)"/><path d="M51.854 41.891h-29.66V17.256M83.19 16.256v25.135H56.154" style="font-variation-settings:normal;overflow:visible;opacity:1;vector-effect:none;fill:none;fill-opacity:1;fill-rule:evenodd;stroke:#b3b3b3;stroke-width:.3;stroke-linecap:round;stroke-linejoin:round;stroke-miterlimit:4;stroke-dasharray:none;stroke-dashoffset:0;stroke-opacity:1;-inkscape-stroke:none;stop-color:#000;stop-opacity:1" transform="translate(-21.045 -14.878)"/><path d="M23.195 16.256c2.521 0 26.516-.94 29.655.873 2.794-2.795 24.432-.733 29.329-2.056l.21 23.742c-5.848 3.376-22.098-.04-29.54 2.852-.767-.53-22.087-1.024-29.502-.623z" style="font-variation-settings:normal;overflow:visible;opacity:1;vector-effect:none;fill:#fff;fill-opacity:1;fill-rule:evenodd;stroke:#4d4d4d;stroke-width:.3;stroke-linecap:butt;stroke-linejoin:miter;stroke-miterlimit:4;stroke-dasharray:none;stroke-dashoffset:0;stroke-opacity:1;-inkscape-stroke:none;stop-color:#000;stop-opacity:1" transform="translate(-21.045 -14.878)"/><path d="M56.867 21.477c7.25-.863 21.46.19 25.312-.85M56.873 26.476c7.25-.862 21.455.19 25.306-.849M56.828 32.814c8.205-1.07 20.61.94 25.56-1.918M56.883 37.807c8.205-1.055 20.566.94 25.505-1.911M27.17 38.006c9.142-.144 25.02.285 25.68.74M27.195 26.701c7.621-.183 23.19-.474 25.675.962" style="font-variation-settings:normal;overflow:visible;opacity:1;vector-effect:none;fill:none;fill-opacity:1;fill-rule:evenodd;stroke:none;stroke-width:.3;stroke-linecap:butt;stroke-linejoin:miter;stroke-miterlimit:4;stroke-dasharray:none;stroke-dashoffset:0;stroke-opacity:1;-inkscape-stroke:none;stop-color:#000;stop-opacity:1" transform="translate(-21.045 -14.878)"/><path d="M52.85 17.469v24.13" style="font-variation-settings:normal;opacity:1;vector-effect:none;fill:#fff;fill-opacity:1;fill-rule:evenodd;stroke:#4d4d4d;stroke-width:.3;stroke-linecap:butt;stroke-linejoin:miter;stroke-miterlimit:4;stroke-dasharray:none;stroke-dashoffset:0;stroke-opacity:1;-inkscape-stroke:none;stop-color:#000;stop-opacity:1" transform="translate(-21.045 -14.878)"/><g aria-label="férié" style="font-weight:700;font-size:4.23333px;line-height:4.0246px;font-family:&quot;Courier New&quot;;-inkscape-font-specification:&quot;Courier New Bold&quot;;letter-spacing:.264583px;word-spacing:.529167px;baseline-shift:baseline;opacity:1;vector-effect:none;fill:#333;stroke-width:.999999px;stop-color:#000;stop-opacity:1"><path d="m10.717 10.275.017 1.029.604-.01q.153-.003.218.056.067.057.068.152.002.093-.063.154-.063.059-.216.061l-1.28.022q-.152.003-.22-.054-.065-.06-.066-.154-.002-.093.061-.152.065-.061.218-.064l.253-.004-.018-1.03-.202.004q-.153.003-.22-.054-.066-.059-.067-.154-.002-.093.061-.152.066-.061.218-.064l.203-.003-.003-.161q-.004-.277.2-.462.205-.188.6-.195.175-.003.405.027.232.027.297.084.067.056.069.147.002.097-.055.16-.057.061-.142.063-.04 0-.118-.013-.263-.047-.466-.044-.21.004-.29.07-.078.063-.076.156l.003.16.653-.01q.153-.003.218.056.067.057.069.152.001.093-.064.154-.063.059-.216.062zM14.609 10.954l-1.738.018q.068.165.236.264.17.1.458.097.236-.003.625-.108.16-.043.223-.044.085 0 .143.059.059.06.06.15 0 .083-.06.141-.083.078-.402.151-.32.072-.616.075-.508.005-.817-.279-.307-.284-.311-.703-.005-.447.32-.73.328-.284.758-.289.259-.002.475.086.218.089.324.193.15.152.25.376.068.156.07.363zm-.474-.419q-.099-.18-.257-.268-.158-.09-.375-.087-.215.002-.371.095-.156.09-.253.273zm-.314-1.402-.461.383q-.07.056-.118.057-.057 0-.1-.038-.039-.04-.04-.097 0-.066.082-.133l.463-.383q.07-.057.117-.057.058-.001.098.038.041.039.042.095 0 .068-.083.135zM16.269 9.793v.265q.267-.193.42-.258.154-.064.289-.065.206 0 .401.152.133.103.133.21 0 .092-.064.156-.062.062-.15.062-.079 0-.166-.078-.087-.078-.155-.078-.09 0-.267.112-.175.112-.44.336l.003.64.603-.002q.153 0 .217.059.067.058.067.153 0 .093-.066.153-.064.058-.217.058l-1.28.004q-.152 0-.219-.058-.064-.06-.064-.155 0-.093.064-.15.066-.06.219-.061h.252l-.003-1.03h-.153q-.153 0-.219-.057-.064-.06-.064-.155 0-.093.063-.151.066-.06.22-.06zM19.343 8.997l-.003.448-.505-.004.004-.448zm.052.804-.012 1.453.509.004q.153.002.216.062.066.058.065.154 0 .093-.067.152-.065.057-.218.056l-1.44-.011q-.153-.002-.22-.06-.063-.06-.062-.156 0-.093.065-.15.067-.06.22-.058l.508.004.009-1.03-.341-.002q-.151-.001-.217-.06-.066-.06-.065-.155 0-.093.065-.15.067-.06.22-.059zM23.053 11.018l-1.738-.039q.063.167.228.272.167.105.454.111.236.006.629-.087.162-.037.224-.036.084.002.141.063.056.061.054.152-.001.083-.065.14-.084.074-.406.137-.322.061-.617.054-.509-.011-.808-.305-.297-.294-.288-.714.01-.446.345-.718.337-.273.767-.264.258.006.471.102.215.096.318.204.145.156.237.383.063.159.058.365zm-.46-.434q-.092-.184-.247-.276-.155-.095-.372-.1-.215-.005-.374.083-.16.085-.263.265zm-.267-1.412-.474.368q-.071.054-.119.053-.058-.001-.098-.042-.038-.04-.037-.098.001-.066.085-.13l.476-.368q.072-.054.12-.053.057.001.095.042.04.04.04.096-.002.068-.088.132z"/></g><g aria-label="13:30" style="font-weight:700;font-size:4.23333px;line-height:4.0246px;font-family:&quot;Courier New&quot;;-inkscape-font-specification:&quot;Courier New Bold&quot;;letter-spacing:.264583px;word-spacing:.529167px;baseline-shift:baseline;opacity:1;vector-effect:none;fill:#333;stroke-width:.999999px;stop-color:#000;stop-opacity:1"><path d="m10.94 20.358-.004 2.319h.428q.153 0 .217.06.066.059.066.154 0 .093-.066.153-.064.057-.217.057l-1.28-.002q-.153 0-.219-.058-.064-.06-.064-.155 0-.093.065-.151.066-.06.219-.06l.428.001.003-1.767-.379.098q-.09.025-.136.025-.08 0-.14-.065-.058-.064-.058-.157 0-.084.043-.132.044-.05.182-.086zM14.148 21.705q.187.13.279.3.091.168.09.377-.003.225-.128.416-.124.19-.358.287-.235.095-.613.091-.492-.004-.739-.16-.137-.087-.136-.207 0-.091.061-.152.063-.064.15-.063.06 0 .123.042.09.063.17.084.125.03.342.032.37.004.536-.09.166-.096.168-.271 0-.13-.095-.251-.094-.123-.255-.19-.093-.039-.314-.055-.105-.007-.162-.066-.056-.06-.055-.147 0-.09.063-.152t.158-.06q.211.001.225-.001.083-.007.166-.052t.134-.123q.052-.08.053-.165.001-.134-.118-.233-.117-.1-.355-.102-.306-.003-.468.174-.048.051-.077.065-.044.023-.098.022-.087 0-.148-.063-.062-.063-.06-.154 0-.142.192-.275.279-.194.694-.19.393.003.629.228.235.226.232.54 0 .163-.073.305-.071.14-.213.259zM16.683 21.56q-.001.12-.087.2-.086.079-.235.077-.149-.002-.232-.084-.084-.082-.082-.202.002-.12.088-.2.086-.079.234-.076.15.002.233.084.083.082.081.201zm-.016 1.387q-.002.12-.088.2-.086.079-.235.077-.149-.003-.232-.084-.084-.082-.082-.202.002-.12.088-.2.086-.079.235-.077.148.003.232.085.083.081.082.201zM19.784 21.797q.186.132.275.304.09.169.085.378-.005.225-.133.415-.126.187-.361.281-.236.093-.614.085-.492-.01-.737-.169-.136-.09-.134-.21.002-.09.063-.151.064-.063.15-.061.06.001.124.044.09.064.17.086.123.032.34.036.37.008.537-.084.168-.093.171-.269.003-.13-.092-.252-.092-.124-.252-.193-.092-.04-.313-.059-.105-.008-.162-.067-.054-.061-.053-.148.002-.091.066-.152.063-.06.158-.058.21.004.225.002.083-.006.167-.05.083-.044.135-.121.053-.08.055-.164.003-.135-.115-.234-.116-.102-.353-.107-.306-.007-.471.168-.049.05-.078.064-.044.022-.098.021-.087-.002-.147-.065t-.059-.154q.003-.143.196-.273.281-.19.696-.182.393.008.626.236.233.229.226.543-.003.163-.076.304-.074.14-.217.256zM22.92 21.721l-.013.465q-.011.413-.262.785-.248.371-.692.36-.256-.008-.43-.125-.173-.118-.324-.424-.149-.308-.14-.647l.014-.465q.011-.411.26-.783.247-.373.692-.361.254.007.426.123.175.117.326.425.152.306.143.647zm-.426-.012q.01-.345-.175-.608-.106-.146-.304-.151-.192-.006-.318.148-.191.232-.2.584l-.014.465q-.01.347.178.608.103.146.304.152.19.005.316-.149.19-.232.2-.584z"/></g><g aria-label="14:30" style="font-weight:700;font-size:4.23333px;line-height:4.0246px;font-family:&quot;Courier New&quot;;-inkscape-font-specification:&quot;Courier New Bold&quot;;letter-spacing:.264583px;word-spacing:.529167px;baseline-shift:baseline;opacity:1;vector-effect:none;fill:#333;stroke-width:.999999px;stop-color:#000;stop-opacity:1"><path d="m40.546 8.544.076 2.318.427-.014q.153-.005.22.053.067.055.07.15.003.093-.06.155-.063.06-.216.065l-1.279.042q-.153.005-.22-.05-.067-.059-.07-.154-.003-.093.06-.153.064-.062.217-.067l.427-.014-.057-1.766-.375.111q-.09.028-.136.03-.08.002-.142-.06-.06-.062-.063-.155-.003-.085.039-.134.042-.05.179-.092zM43.812 8.555l.017 1.658q.135-.002.2.057.064.058.065.15.001.094-.064.154-.064.06-.196.062l.002.17q.134-.002.199.058.065.059.066.152 0 .093-.065.153-.063.059-.216.06l-.569.007q-.153.001-.22-.056-.064-.059-.065-.154-.001-.093.062-.152.066-.06.219-.062l.165-.002-.002-.17-1.151.013-.004-.353.997-1.74zm-.406 1.662-.011-1.042-.603 1.049zM46.35 9.632q0 .12-.084.2-.085.08-.234.08-.148 0-.233-.08-.085-.081-.085-.201 0-.12.085-.2.085-.081.234-.08.149 0 .233.08.085.08.085.2zm.004 1.387q0 .12-.085.2-.085.08-.234.08-.149 0-.233-.08-.085-.081-.085-.201 0-.12.085-.2.085-.081.234-.08.149 0 .233.08.085.08.085.2zM49.45 9.823q.188.129.28.299.092.168.091.376-.001.226-.126.417-.123.19-.357.288-.234.096-.612.094-.492-.003-.74-.157-.138-.087-.137-.207 0-.091.06-.153.063-.064.15-.063.06 0 .124.042.09.062.17.083.125.03.342.031.37.002.535-.092.166-.097.167-.272 0-.13-.096-.25-.094-.123-.255-.19-.093-.038-.314-.054-.105-.006-.163-.064-.055-.06-.055-.148 0-.09.063-.152.062-.062.157-.061l.226-.001q.082-.008.165-.053t.133-.124q.052-.08.053-.165 0-.134-.12-.232-.116-.1-.354-.1-.306-.002-.468.175-.048.051-.077.065-.044.023-.097.023-.087 0-.149-.063-.062-.062-.061-.153 0-.143.192-.276.277-.195.693-.193.393.002.63.226.236.225.234.539 0 .163-.072.305-.07.14-.212.26zM52.57 9.677l-.001.465q-.001.413-.242.791-.238.378-.683.377-.256 0-.434-.112-.175-.115-.334-.417-.156-.304-.155-.643v-.465q.001-.411.24-.789.238-.38.683-.379.254 0 .43.113.177.112.336.416.16.302.16.643zm-.426-.001q0-.345-.191-.604-.11-.143-.308-.143-.192 0-.315.156-.184.238-.185.589v.465q-.001.347.192.604.108.143.308.143.19 0 .313-.156.184-.237.185-.589z"/></g><g aria-label="Ven 5 mai" style="font-weight:900;font-size:3.88056px;line-height:3.68921px;font-family:&quot;DIN Pro&quot;;-inkscape-font-specification:&quot;DIN Pro Heavy&quot;;letter-spacing:.132292px;word-spacing:.264583px;baseline-shift:baseline;opacity:1;vector-effect:none;fill:#e62e6c;stroke-width:.999999px;stop-color:#000;stop-opacity:1"><path d="m60.223 29.753-.705.047-.355 1.57-.566-1.51-.701.046 1.091 2.698.504-.034zM62.381 31.63l-.007-.264c-.015-.574-.36-1-.965-.984-.547.014-.925.408-.907 1.09.023.9.559 1.054 1.02 1.042.389-.01.595-.132.803-.35l-.39-.371c-.11.115-.205.18-.426.185-.237.007-.373-.145-.377-.316zm-.64-.407-.62.016a.375.375 0 0 1 .03-.164c.037-.086.12-.166.272-.17.151-.004.239.072.28.156a.375.375 0 0 1 .039.162zM64.709 32.462l-.002-1.335c0-.22-.032-.419-.21-.597a.644.644 0 0 0-.47-.178.707.707 0 0 0-.485.195v-.17h-.621l.003 2.088h.636l-.002-1.25c0-.24.17-.288.256-.288.085 0 .256.046.257.287l.002 1.25zM68.32 31.56c.003-.26-.025-.508-.247-.736-.111-.114-.292-.198-.533-.2a.672.672 0 0 0-.374.103l.005-.426 1.106.013.007-.574-1.684-.02-.02 1.625.586.007c.028-.073.076-.197.263-.194.155.001.259.088.255.395-.002.163-.027.263-.086.32a.226.226 0 0 1-.179.068c-.163-.002-.24-.111-.256-.294l-.637-.008c.013.202.038.428.233.628.119.122.343.245.653.249.31.003.521-.11.643-.23.208-.202.261-.392.265-.726zM73.044 32.518l-.005-1.335c-.001-.22-.053-.418-.232-.596-.113-.112-.303-.177-.501-.177a.812.812 0 0 0-.59.224.634.634 0 0 0-.508-.219.707.707 0 0 0-.485.196v-.17l-.621.002.009 2.088.636-.003-.005-1.25c-.001-.24.17-.287.255-.287.085 0 .256.045.257.286l.005 1.25.637-.004-.006-1.25c0-.24.17-.287.255-.287.086 0 .257.045.258.286l.005 1.25zM75.271 32.437l-.053-1.353c-.02-.508-.352-.743-.95-.72-.352.015-.54.096-.744.317l.411.38c.097-.105.18-.154.324-.16.221-.009.317.057.324.247l.003.054-.411.017c-.508.02-.71.32-.698.633a.68.68 0 0 0 .202.482c.121.111.298.174.508.166a.576.576 0 0 0 .457-.209l.007.171zm-.667-.758c.005.109-.008.168-.057.216-.064.061-.121.079-.226.083-.155.006-.232-.065-.235-.162-.005-.104.066-.173.214-.179l.302-.012zM76.484 32.349l-.152-2-.635.048.153 2zm-.175-2.295-.037-.483-.634.048.037.484z" style="baseline-shift:baseline;vector-effect:none;stop-color:#000;stop-opacity:1" transform="translate(-21.045 -14.878)"/></g><g aria-label="15:30" style="font-weight:700;font-size:4.23333px;line-height:4.0246px;font-family:&quot;Courier New&quot;;-inkscape-font-specification:&quot;Courier New Bold&quot;;letter-spacing:.264583px;word-spacing:.529167px;baseline-shift:baseline;opacity:1;vector-effect:none;fill:#333;stroke-width:.999999px;stop-color:#000;stop-opacity:1"><path d="m40.573 19.866.06 2.319.428-.011q.153-.004.219.054.067.056.07.151.002.093-.063.155-.062.06-.215.063l-1.28.033q-.152.004-.22-.052-.065-.058-.068-.153-.002-.093.06-.153.065-.061.218-.065l.428-.011-.046-1.767-.376.109q-.09.027-.135.028-.08.002-.143-.06-.059-.063-.061-.156-.003-.085.04-.133.042-.05.18-.092zM42.881 20.335v.504q.235-.074.427-.074.39 0 .649.268.258.267.257.689 0 .434-.263.681-.261.246-.8.245-.476 0-.753-.181-.161-.104-.16-.238 0-.085.061-.147.065-.064.151-.063.073 0 .157.07.085.068.178.095.132.04.339.04.384 0 .525-.12.141-.125.141-.379 0-.25-.135-.393-.135-.143-.347-.143-.23 0-.524.148-.066.035-.115.035-.091 0-.153-.067-.06-.066-.06-.171l.002-1.224 1.296.002q.153 0 .217.06.066.058.066.154 0 .093-.066.152-.065.058-.218.058zM46.378 21.02q-.002.12-.087.2-.086.08-.235.078-.149-.002-.232-.084-.084-.081-.083-.201.002-.12.087-.2.086-.08.235-.077.149.001.232.083.084.082.083.202zm-.013 1.387q-.001.12-.087.2-.085.08-.234.078-.15-.002-.233-.084-.084-.081-.082-.201.001-.12.087-.2.086-.08.234-.077.15.001.233.083.084.082.082.201zM49.463 21.23q.187.13.279.3.091.168.09.377-.002.225-.127.417-.123.189-.358.286-.234.096-.612.093-.492-.003-.739-.158-.138-.088-.137-.208 0-.09.061-.152.062-.064.15-.063.06 0 .123.042.09.063.171.084.124.03.34.031.37.003.537-.091.166-.096.167-.272.001-.13-.095-.25-.094-.123-.255-.19-.093-.038-.314-.054-.105-.007-.163-.066-.055-.06-.055-.147.001-.09.063-.152.063-.062.158-.061h.225q.083-.008.166-.053t.133-.123q.052-.08.053-.165.001-.135-.118-.233-.117-.1-.355-.101-.306-.002-.468.174-.048.052-.077.066-.044.022-.098.022-.087 0-.148-.063-.062-.063-.061-.154.001-.142.192-.275.278-.195.694-.192.393.003.629.228t.234.539q-.001.163-.073.305-.071.14-.212.26zM52.551 21.05l.007.466q.006.413-.228.795-.232.382-.676.388-.256.004-.436-.105-.177-.11-.34-.41-.162-.302-.167-.64l-.007-.466q-.007-.411.225-.793.232-.384.677-.39.254-.004.431.105.18.109.343.41.166.3.171.64zm-.426.007q-.005-.345-.2-.6-.112-.142-.31-.139-.193.003-.313.162-.18.24-.175.592l.007.465q.005.347.204.6.11.142.31.139.19-.003.31-.162.18-.24.174-.592z"/></g><g aria-label="Jeu 4 mai" style="font-weight:900;font-size:3.88056px;line-height:3.68921px;font-family:&quot;DIN Pro&quot;;-inkscape-font-specification:&quot;DIN Pro Heavy&quot;;letter-spacing:.132292px;word-spacing:.264583px;baseline-shift:baseline;opacity:1;vector-effect:none;fill:#e62e6c;stroke-width:.999999px;stop-color:#000;stop-opacity:1"><path d="m59.815 20.285-.116-1.812-.678.043.115 1.797c.017.263-.126.39-.336.403-.15.01-.224-.04-.314-.12l-.417.47c.239.21.449.274.77.254.52-.034 1.018-.38.976-1.035zM62.239 20.305l-.009-.263c-.02-.574-.367-.998-.972-.977-.547.018-.922.415-.9 1.098.031.9.568 1.048 1.03 1.033.387-.013.593-.137.8-.357l-.394-.367c-.108.116-.203.181-.424.189-.237.008-.374-.143-.38-.314zm-.643-.401-.62.02a.374.374 0 0 1 .03-.163c.035-.087.118-.168.27-.173.15-.005.238.07.28.154.03.057.039.111.04.162zM64.554 21.109l-.03-2.088-.636.01.017 1.249c.004.24-.166.29-.252.29-.085.002-.256-.043-.26-.283l-.018-1.25-.636.01.02 1.334c.002.221.036.419.217.595.114.11.274.174.472.172a.707.707 0 0 0 .482-.201l.003.17zM68.244 20.74v-.606h-.205v-.365h-.605v.364h-.447l.919-1.792h-.699l-.918 1.79-.001.606 1.145.002v.364l.604.001.001-.365zM72.915 21.128l.005-1.335c.001-.222-.048-.42-.226-.599-.112-.113-.302-.18-.5-.18a.813.813 0 0 0-.59.218.634.634 0 0 0-.508-.223.707.707 0 0 0-.486.192v-.17l-.62-.003-.009 2.087.637.003.005-1.25c0-.24.172-.286.257-.286.085 0 .256.048.255.289l-.005 1.25.636.002.005-1.25c.001-.24.172-.286.258-.286.085 0 .256.048.255.288l-.006 1.25zM75.139 21.123l-.005-1.355c-.002-.508-.325-.755-.923-.753-.353.001-.543.076-.755.29l.397.394c.1-.101.186-.148.33-.148.22-.001.314.068.315.258v.055l-.412.001c-.508.002-.72.294-.72.608a.68.68 0 0 0 .185.489.696.696 0 0 0 .501.184.576.576 0 0 0 .465-.192v.171zm-.64-.782c0 .109-.014.167-.065.214-.066.058-.124.074-.228.074-.156 0-.23-.073-.23-.17 0-.104.073-.17.22-.171l.303-.001zM76.353 21.107l-.029-2.006-.636.01.028 2.005zm-.033-2.3-.007-.486-.636.01.006.484z" style="baseline-shift:baseline;vector-effect:none;stop-color:#000;stop-opacity:1" transform="translate(-21.045 -14.878)"/></g><path d="M27.195 21.701c7.621-.183 23.19-.474 25.675.962" style="font-variation-settings:normal;overflow:visible;opacity:1;vector-effect:none;fill:none;fill-opacity:1;fill-rule:evenodd;stroke:none;stroke-width:.3;stroke-linecap:butt;stroke-linejoin:miter;stroke-miterlimit:4;stroke-dasharray:none;stroke-dashoffset:0;stroke-opacity:1;-inkscape-stroke:none;stop-color:#000;stop-opacity:1" transform="translate(-21.045 -14.878)"/><path d="m52.85 17.129-.016 27.911c.265-.525.987-1.226 1.324-1.508l1.097.914-.233-28.225c-.733.194-1.472.315-2.172.908z" style="font-variation-settings:normal;opacity:1;vector-effect:none;fill:#e62e6c;fill-opacity:1;fill-rule:evenodd;stroke:#8c113a;stroke-width:.3;stroke-linecap:round;stroke-linejoin:round;stroke-miterlimit:4;stroke-dasharray:none;stroke-dashoffset:0;stroke-opacity:1;-inkscape-stroke:none;stop-color:#000;stop-opacity:1" transform="translate(-21.045 -14.878)"/><path d="M27.17 33.006c9.142-.144 25.02.285 25.68.74" style="font-variation-settings:normal;overflow:visible;opacity:1;vector-effect:none;fill:none;fill-opacity:1;fill-rule:evenodd;stroke:none;stroke-width:.3;stroke-linecap:butt;stroke-linejoin:miter;stroke-miterlimit:4;stroke-dasharray:none;stroke-dashoffset:0;stroke-opacity:1;-inkscape-stroke:none;stop-color:#000;stop-opacity:1" transform="translate(-21.045 -14.878)"/><g aria-label="Lun 1er mai" style="font-weight:900;font-size:3.88056px;line-height:3.68921px;font-family:&quot;DIN Pro&quot;;-inkscape-font-specification:&quot;DIN Pro Heavy&quot;;letter-spacing:.132292px;word-spacing:.264583px;baseline-shift:baseline;opacity:1;vector-effect:none;fill:#e62e6c;stroke-width:.999999px;stop-color:#000;stop-opacity:1"><path d="m29.24 21.654-.013-.605-1.16.026-.05-2.157-.678.016.063 2.762zM31.56 21.609l-.04-2.088-.637.012.024 1.25c.005.24-.165.29-.25.292-.086.001-.257-.042-.262-.283l-.024-1.249-.636.012.025 1.335c.005.221.04.418.221.593.115.11.275.174.473.17a.707.707 0 0 0 .481-.203l.004.17zM33.956 21.573l-.02-1.335c-.002-.221-.036-.418-.217-.594a.644.644 0 0 0-.472-.172.707.707 0 0 0-.482.2l-.003-.17-.62.009.029 2.087.636-.009-.017-1.25c-.004-.24.166-.289.252-.29.085-.001.256.043.26.284l.017 1.249zM37.15 21.548l-.013-2.763-.636.003-.587.515.003.68.587-.516.01 2.084z" style="baseline-shift:baseline;vector-effect:none;stop-color:#000;stop-opacity:1" transform="translate(-21.045 -14.878)"/><path d="M39.186 19.45v-.17c0-.374-.216-.657-.61-.658-.355 0-.608.25-.609.693 0 .585.345.694.645.695a.66.66 0 0 0 .528-.214l-.247-.247a.338.338 0 0 1-.28.113c-.154 0-.24-.102-.24-.213Zm-.409-.275h-.403c0-.033.005-.069.023-.106.025-.056.08-.106.179-.106.098 0 .154.05.179.106a.244.244 0 0 1 .022.106zM40.627 18.759a.403.403 0 0 0-.316-.129.47.47 0 0 0-.322.124l.001-.11-.403-.004-.01 1.357.414.003.005-.812c.001-.154.113-.186.168-.185.07 0 .108.03.148.071z" style="font-size:65%;baseline-shift:super" transform="translate(-21.045 -14.878)"/><path d="m45.173 21.652.036-1.334c.006-.221-.039-.42-.212-.604-.11-.115-.298-.186-.496-.192a.812.812 0 0 0-.595.205.634.634 0 0 0-.503-.235.707.707 0 0 0-.49.181l.005-.17-.62-.018-.058 2.087.637.018.034-1.25c.006-.24.178-.282.263-.28.086.003.255.054.249.295l-.034 1.249.636.017.034-1.249c.006-.24.178-.282.264-.28.085.002.254.053.248.294l-.034 1.249zM47.397 21.766l.072-1.352c.026-.508-.282-.773-.879-.805-.353-.018-.546.046-.77.247l.374.417c.106-.096.193-.138.337-.13.22.011.31.086.3.276l-.003.054-.41-.022c-.508-.026-.737.253-.753.567a.68.68 0 0 0 .156.498c.11.122.28.201.49.212.221.012.34-.044.475-.165l-.009.17zm-.594-.816c-.006.108-.024.166-.077.21-.069.054-.128.066-.233.06-.155-.007-.224-.085-.22-.182.006-.104.083-.166.23-.158l.303.015zM48.612 21.857l.155-2-.635-.05-.155 2zm.178-2.294.037-.484-.634-.049-.038.484z" style="baseline-shift:baseline;vector-effect:none;stop-color:#000;stop-opacity:1" transform="translate(-21.045 -14.878)"/></g><g aria-label="Mar 2 mai" style="font-weight:900;font-size:3.88056px;line-height:3.68921px;font-family:&quot;DIN Pro&quot;;-inkscape-font-specification:&quot;DIN Pro Heavy&quot;;letter-spacing:.132292px;word-spacing:.264583px;baseline-shift:baseline;opacity:1;vector-effect:none;fill:#e62e6c;stroke-width:.999999px;stop-color:#000;stop-opacity:1"><path d="m30.018 32.976-.024-2.763-.667.006-.61 1.224-.632-1.213-.667.006.024 2.763.679-.006-.012-1.324.398.68.435-.004.386-.686.011 1.323zM32.303 32.978l.001-1.354c0-.508-.321-.757-.919-.757-.353 0-.543.073-.757.286l.396.396c.1-.1.186-.147.33-.147.221 0 .314.07.314.26v.055h-.411c-.509-.001-.723.29-.723.604a.68.68 0 0 0 .182.49c.116.116.291.186.5.186a.576.576 0 0 0 .466-.19v.17zm-.636-.784c0 .109-.015.167-.066.213-.066.059-.124.074-.229.074-.155 0-.229-.074-.228-.171 0-.105.073-.17.22-.17h.304zM34.5 31.075a.62.62 0 0 0-.488-.198.724.724 0 0 0-.494.191l.001-.17-.62-.005-.014 2.088.636.004.008-1.25c.002-.236.173-.285.258-.285.109.001.167.048.229.11zM37.866 33.034l.008-.575-1.001-.014.67-.689c.224-.23.347-.383.35-.674.008-.52-.36-.84-.872-.847-.481-.007-.897.286-.905.83l.637.009c.003-.214.143-.266.26-.265.163.003.246.109.244.26-.001.116-.041.186-.144.293l-1.016 1.072-.008.575zM42.606 33.133l.03-1.335c.006-.22-.04-.42-.214-.602-.11-.116-.299-.186-.497-.19a.813.813 0 0 0-.595.207.634.634 0 0 0-.503-.233.707.707 0 0 0-.489.183l.004-.171-.62-.014-.05 2.087.637.014.029-1.249c.006-.24.177-.283.263-.28.085.001.255.052.25.292l-.03 1.25.636.014.03-1.249c.005-.24.177-.283.262-.281.085.002.255.052.25.293l-.03 1.25zM44.845 33.2l.042-1.353c.015-.508-.3-.766-.897-.784-.353-.011-.545.057-.765.264l.384.407c.104-.097.19-.141.334-.137.221.007.312.08.306.27l-.001.054-.412-.013c-.508-.015-.73.27-.74.583a.68.68 0 0 0 .168.495c.113.12.285.195.495.201a.576.576 0 0 0 .471-.176l-.005.17zm-.612-.802c-.003.108-.02.166-.072.211-.068.056-.127.07-.231.067-.156-.005-.227-.08-.224-.178.003-.104.079-.168.226-.164l.303.01zM46.063 33.244l.071-2.005-.636-.023-.071 2.005zm.082-2.3.017-.485-.636-.022-.017.484z" style="baseline-shift:baseline;vector-effect:none;stop-color:#000;stop-opacity:1" transform="translate(-21.045 -14.878)"/></g></svg>