<?xml version="1.0" encoding="UTF-8" standalone="no"?>
<svg
 width="6.4198999cm"
 height="2.4376547cm"
 version="1.1"
 viewBox="0 0 64.198998 24.376548"
 id="svg65"
 sodipodi:docname="seyes-1x.svg"
 inkscape:version="1.2.2 (1:1.2.2+202212051551+b0a8486541)"
 xml:space="preserve"
 xmlns:inkscape="http://www.inkscape.org/namespaces/inkscape"
 xmlns:sodipodi="http://sodipodi.sourceforge.net/DTD/sodipodi-0.dtd"
 xmlns="http://www.w3.org/2000/svg"
 xmlns:svg="http://www.w3.org/2000/svg"
 xmlns:rdf="http://www.w3.org/1999/02/22-rdf-syntax-ns#"
 xmlns:cc="http://creativecommons.org/ns#"
 xmlns:dc="http://purl.org/dc/elements/1.1/"><defs
 id="defs69" /><sodipodi:namedview
 id="namedview67"
 pagecolor="#ffffff"
 bordercolor="#666666"
 borderopacity="1.0"
 inkscape:showpageshadow="2"
 inkscape:pageopacity="0.0"
 inkscape:pagecheckerboard="0"
 inkscape:deskcolor="#d1d1d1"
 inkscape:document-units="cm"
 showgrid="false"
 inkscape:zoom="3.1813495"
 inkscape:cx="206.98763"
 inkscape:cy="121.17499"
 inkscape:current-layer="svg65" /><title
 id="title2"> Page réglure Séyès </title><desc
 id="desc4"> Page blanche A5 avec réglure Séyès </desc><metadata
 id="metadata1657"><rdf:RDF><cc:Work
 rdf:about=""><dc:title> Page réglure Séyès </dc:title></cc:Work></rdf:RDF></metadata><path
 id="line511"
 style="stroke:#c8c8de;stroke-width:0.398"
 d="m 0.0995,0.199 h 64"
 sodipodi:nodetypes="cc" /><path
 id="line680"
 style="stroke:#c8c8de;stroke-width:0.199"
 d="m 0.0995,2.197212 h 64"
 sodipodi:nodetypes="cc" /><path
 id="line1209"
 style="stroke:#c8c8de;stroke-width:0.199"
 d="m 0.0995,4.195424 h 64"
 sodipodi:nodetypes="cc" /><path
 id="line1213"
 style="stroke:#c8c8de;stroke-width:0.199"
 d="m 0.0995,6.193637 h 64"
 sodipodi:nodetypes="cc" /><path
 id="line690"
 style="stroke:#c8c8de;stroke-width:0.398"
 d="m 0.0995,8.191849 h 64"
 sodipodi:nodetypes="cc" /><path
 id="line360"
 style="stroke:#c8c8de;stroke-width:0.199"
 d="m 0.0995,10.190061 h 64"
 sodipodi:nodetypes="cc" /><path
 id="line1241"
 style="stroke:#c8c8de;stroke-width:0.199"
 d="m 0.0995,12.188274 h 64"
 sodipodi:nodetypes="cc" /><path
 id="line1245"
 style="stroke:#c8c8de;stroke-width:0.199"
 d="m 0.0995,14.186486 h 64"
 sodipodi:nodetypes="cc" /><path
 id="line370"
 style="stroke:#c8c8de;stroke-width:0.398"
 d="m 0.0995,16.184698 h 64"
 sodipodi:nodetypes="cc" /><path
 id="line754"
 style="stroke:#c8c8de;stroke-width:0.199"
 d="m 0.0995,18.18291 h 64"
 sodipodi:nodetypes="cc" /><path
 id="line1313"
 style="stroke:#c8c8de;stroke-width:0.199"
 d="m 0.0995,20.181123 h 64"
 sodipodi:nodetypes="cc" /><path
 id="line1317"
 style="stroke:#c8c8de;stroke-width:0.199"
 d="m 0.0995,22.179335 h 64"
 sodipodi:nodetypes="cc" /><path
 id="line764"
 style="stroke:#c8c8de;stroke-width:0.398"
 d="m 0.0995,24.177547 h 64"
 sodipodi:nodetypes="cc" /><path
 id="line832"
 style="stroke:#c8c8de;stroke-width:0.199"
 d="M 0.0995,0.199 V 24.177547"
 sodipodi:nodetypes="cc" /><path
 id="line519"
 style="stroke:#c8c8de;stroke-width:0.199"
 d="M 8.0995,0.199 V 24.177547"
 sodipodi:nodetypes="cc" /><path
 id="line694"
 style="stroke:#c8c8de;stroke-width:0.199"
 d="M 16.0995,0.199 V 24.177547"
 sodipodi:nodetypes="cc" /><path
 id="line382"
 style="stroke:#c8c8de;stroke-width:0.199"
 d="M 24.0995,0.199 V 24.177547"
 sodipodi:nodetypes="cc" /><path
 id="line840"
 style="stroke:#c8c8de;stroke-width:0.199"
 d="M 32.0995,0.199 V 24.177547"
 sodipodi:nodetypes="cc" /><path
 id="line493"
 style="stroke:#c8c8de;stroke-width:0.199"
 d="M 40.0995,0.199 V 24.177547"
 sodipodi:nodetypes="cc" /><path
 id="line836"
 style="stroke:#c8c8de;stroke-width:0.199"
 d="M 48.0995,0.199 V 24.177547"
 sodipodi:nodetypes="cc" /><path
 id="line304"
 style="stroke:#c8c8de;stroke-width:0.199"
 d="M 56.0995,0.199 V 24.177547"
 sodipodi:nodetypes="cc" /><path
 id="line800"
 style="stroke:#c8c8de;stroke-width:0.199"
 d="M 64.0995,0.199 V 24.177547"
 sodipodi:nodetypes="cc" /><g
 aria-label="4"
 id="text1836-7"
 style="font-size:5.64444px;line-height:9.23078px;font-family:'Segoe Print QD';-inkscape-font-specification:'Segoe Print QD';text-align:center;letter-spacing:0.264583px;word-spacing:0.529167px;text-anchor:middle;overflow:visible;fill:#0055d4;stroke-width:0.3;stop-color:#000000"><path
 d="M 29.358385,4.8645347 Q 28.978047,4.726731 28.443368,4.7570478 q -0.09095,0.3141925 -0.09095,0.5870438 l 0.0028,0.1240234 v 0.112999 l 0.0028,0.1240234 q 0.0028,0.1074869 0,0.1460719 q -0.0028,0.035829 0.07166,0.1267794 q 0.07166,0.088194 0.07166,0.1212673 q 0,0.082682 -0.09095,0.1819009 q -0.08819,0.1019747 -0.170876,0.1019747 q -0.21773,0 -0.289388,-0.1019747 q -0.07166,-0.099219 -0.07166,-0.3004121 q 0,-0.1074869 0.02205,-0.3389971 q 0.01929,-0.2232421 0.0248,-0.3362411 q 0.01102,-0.2673392 0.06615,-0.5153859 q -0.06615,-0.011024 -0.195681,-0.011024 q -0.587044,0 -0.950846,0.096463 Q 26.44797,4.9830459 26.128266,4.9830459 q -0.132292,0 -0.297656,-0.1874131 Q 25.954633,4.4538796 27.17833,3.4864975 Q 27.569693,3.1805733 27.812227,2.9600874 Q 28.065786,2.725821 28.377222,2.4943108 Q 28.688659,2.2628006 28.74378,2.2628006 q 0.223242,0 0.223242,0.112999 q -0.01929,0.079926 -0.157096,0.5732635 q -0.239778,0.9398213 -0.303168,1.372525 q 0.179145,0.068902 0.650433,0.068902 h 0.19017 q 0.157096,0 0.228754,0.066146 q 0.07441,0.06339 0.07441,0.2728514 q 0,0.06339 -0.04961,0.112999 q -0.04961,0.049609 -0.112999,0.049609 q -0.07717,0 -0.129535,-0.027561 z M 28.35793,3.0179649 Q 28.255955,3.1199397 27.889397,3.4093275 Q 27.583473,3.651862 27.456694,3.7869096 q -0.2949,0.3114364 -0.80753,0.6807504 q 0,0.041341 0.04961,0.041341 q 0.107487,-0.044097 0.80753,-0.09095 q 0.394118,-0.027561 0.576019,-0.079926 q 0.02205,-0.1763887 0.07993,-0.3968747 Q 28.35793,3.1971097 28.35793,3.0179649 Z"
 id="path1475" /></g><g
 aria-label="0"
 id="text1836-35"
 style="font-size:5.64444px;line-height:9.23078px;font-family:'Segoe Print QD';-inkscape-font-specification:'Segoe Print QD';text-align:center;letter-spacing:0.264583px;word-spacing:0.529167px;text-anchor:middle;overflow:visible;fill:#0055d4;stroke-width:0.3;stop-color:#000000"><path
 d="m 35.564823,6.2535961 q -0.32246,0 -0.534678,-0.3004121 Q 34.820683,5.6527719 34.768318,5.2035318 q -0.06615,-0.5484587 0.09646,-1.2099166 q 0.165365,-0.6614578 0.581532,-1.0858933 q 0.418923,-0.4244354 0.774457,-0.4244354 q 0.261827,0 0.5898,0.2370224 q 0.330729,0.2370224 0.485069,0.5319223 q 0.157096,0.2949 0.21773,0.7827251 q 0.08819,0.7303597 -0.515386,1.4744998 q -0.60358,0.74414 -1.433159,0.74414 z m 1.019748,-3.2356312 q -0.03583,0.079926 -0.135048,0.079926 q -0.01378,0 -0.08268,-0.060634 q -0.07166,-0.06339 -0.124023,-0.06339 q -0.245291,0 -0.377583,0.1074869 q -0.132291,0.1047308 -0.344509,0.4382158 q -0.209462,0.333485 -0.319705,0.7331158 q -0.110243,0.3968747 -0.06063,0.8075298 q 0.05788,0.4878251 0.239778,0.6118485 q 0.181901,0.1240233 0.377582,0.1240233 q 0.248047,0 0.587044,-0.2728513 Q 36.686546,5.2503851 36.951129,4.8231936 Q 37.215712,4.393246 37.182639,4.1231507 Q 37.166102,3.9688105 37.105469,3.7648611 Q 37.044835,3.5581555 36.989714,3.4809854 q -0.05237,-0.07717 -0.190169,-0.2480467 Q 36.661741,3.0620621 36.584571,3.0179649 Z"
 id="path1478" /></g><g
 aria-label="4"
 id="text1836-9"
 style="font-size:5.64444px;line-height:9.23078px;font-family:'Segoe Print QD';-inkscape-font-specification:'Segoe Print QD';text-align:center;letter-spacing:0.264583px;word-spacing:0.529167px;text-anchor:middle;overflow:visible;fill:#0055d4;stroke-width:0.3;stop-color:#000000"><path
 d="M 45.679918,4.8645347 Q 45.29958,4.726731 44.764901,4.7570478 q -0.09095,0.3141925 -0.09095,0.5870438 l 0.0028,0.1240234 v 0.112999 l 0.0028,0.1240234 q 0.0028,0.1074869 0,0.1460719 q -0.0028,0.035829 0.07166,0.1267794 q 0.07166,0.088194 0.07166,0.1212673 q 0,0.082682 -0.09095,0.1819009 q -0.08819,0.1019747 -0.170876,0.1019747 q -0.21773,0 -0.289388,-0.1019747 q -0.07166,-0.099219 -0.07166,-0.3004121 q 0,-0.1074869 0.02205,-0.3389971 q 0.01929,-0.2232421 0.0248,-0.3362411 q 0.01103,-0.2673392 0.06615,-0.5153859 q -0.06615,-0.011024 -0.195681,-0.011024 q -0.587044,0 -0.950846,0.096463 q -0.396874,0.1074869 -0.716579,0.1074869 q -0.132292,0 -0.297656,-0.1874131 q 0.124023,-0.3417532 1.34772,-1.3091353 Q 43.891226,3.1805733 44.13376,2.9600874 Q 44.387319,2.725821 44.698756,2.4943108 q 0.311436,-0.2315102 0.366557,-0.2315102 q 0.223242,0 0.223242,0.112999 q -0.01929,0.079926 -0.157096,0.5732635 q -0.239778,0.9398213 -0.303168,1.372525 q 0.179145,0.068902 0.650434,0.068902 h 0.190169 q 0.157096,0 0.228754,0.066146 q 0.07441,0.06339 0.07441,0.2728514 q 0,0.06339 -0.04961,0.112999 q -0.04961,0.049609 -0.113,0.049609 q -0.07717,0 -0.129535,-0.027561 z M 44.679463,3.0179649 Q 44.577488,3.1199397 44.21093,3.4093275 Q 43.905006,3.651862 43.778227,3.7869096 q -0.2949,0.3114364 -0.80753,0.6807504 q 0,0.041341 0.04961,0.041341 q 0.107487,-0.044097 0.80753,-0.09095 q 0.394119,-0.027561 0.57602,-0.079926 q 0.02205,-0.1763887 0.07993,-0.3968747 q 0.195681,-0.7441401 0.195681,-0.9232849 z"
 id="path1481" /></g><g
 aria-label="1"
 id="text1836-2"
 style="font-size:5.64444px;line-height:9.23078px;font-family:'Segoe Print QD';-inkscape-font-specification:'Segoe Print QD';text-align:center;letter-spacing:0.264583px;word-spacing:0.529167px;text-anchor:middle;overflow:visible;fill:#0055d4;stroke-width:0.3;stop-color:#000000"><path
 d="m 51.95756,4.2940273 q 0,0 0.157097,-1.1630633 q -0.159853,0 -0.443728,0.1929252 q -0.504362,0.3307289 -0.887456,0.3307289 q -0.124024,0 -0.124024,-0.1736327 q 0,-0.110243 0.04134,-0.1460719 q 0.0441,-0.035829 0.38585,-0.1819009 q 0.341753,-0.1488281 0.859895,-0.4575084 q 0.518142,-0.3086803 0.564995,-0.3086803 q 0.08819,0 0.151584,0.1212673 q 0.06339,0.1212672 0.06339,0.2122177 q 0,0.07717 -0.07993,0.1570962 q -0.270095,1.1795998 -0.314192,1.8079848 q -0.0441,0.6256288 -0.01378,0.7303597 l 0.0689,0.4189233 l 0.01102,0.1626083 q 0,0.1874131 -0.314192,0.1874131 q -0.311437,0 -0.253559,-0.5897999 Q 51.949292,4.3904899 51.95756,4.2940273 Z"
 id="path1484" /></g><g
 aria-label="−"
 id="text1836-0-6"
 style="font-size:5.64444px;line-height:9.23078px;font-family:'Segoe Print QD';-inkscape-font-specification:'Segoe Print QD';text-align:center;letter-spacing:0.264583px;word-spacing:0.529167px;text-anchor:middle;overflow:visible;fill:#0055d4;stroke-width:0.3;stop-color:#000000"><path
 d="m 11.677817,12.495221 h 0.112999 q 0.366558,0 0.697287,-0.01103 q 0.314192,-0.01102 0.504361,-0.02756 q 0.28112,-0.02756 0.405143,-0.02756 q 0.429948,0 0.429948,0.220486 q 0,0.214974 -0.20395,0.214974 l -0.237022,0.01102 l -0.468533,-0.01102 q -0.05512,0 -0.165364,0.01102 q -0.110243,0.01102 -0.168121,0.01102 q -0.198437,0 -0.443728,0.01929 q -0.24529,0.01929 -0.363801,0.01929 q -0.07166,0 -0.225999,-0.02756 q -0.15434,-0.02756 -0.217729,-0.02756 q -0.06615,0 -0.118512,-0.0689 q -0.05236,-0.0689 -0.05236,-0.135048 q 0,-0.02205 0.02756,-0.07166 q 0.03032,-0.04961 0.05236,-0.07441 q 0.02205,-0.0248 0.43546,-0.0248 z"
 id="path1487" /></g><g
 aria-label="9"
 id="text1836-6"
 style="font-size:5.64444px;line-height:9.23078px;font-family:'Segoe Print QD';-inkscape-font-specification:'Segoe Print QD';text-align:center;letter-spacing:0.264583px;word-spacing:0.529167px;text-anchor:middle;overflow:visible;fill:#0055d4;stroke-width:0.3;stop-color:#000000"><path
 d="m 29.261922,11.1475 q 0,0.08268 -0.06615,0.237023 q -0.250802,0.611848 -0.457508,1.367013 q -0.203949,0.752408 -0.203949,1.003211 q 0,0.413411 -0.187413,0.413411 q -0.168121,0 -0.231511,-0.15434 q -0.06063,-0.157097 -0.06063,-0.275608 q 0,-0.15434 0.2949,-1.152039 l 0.05512,-0.190169 l -0.04961,-0.03583 q -0.471289,0.278364 -0.713823,0.35829 q -0.239779,0.07717 -0.603581,0.07717 q -0.16812,0 -0.394118,-0.250803 q -0.225998,-0.253559 -0.225998,-0.421679 q 0,-0.173633 0.05237,-0.327973 q 0.05236,-0.15434 0.179145,-0.325217 q 0.126779,-0.173633 0.421679,-0.413411 q 0.2949,-0.239779 0.440972,-0.311436 q 0.148828,-0.07166 0.440972,-0.146072 q 0.292144,-0.07717 0.451996,-0.07717 q 0.148828,0 0.267339,0.05236 q 0.121268,0.04961 0.2949,0.212218 q 0.173633,0.159852 0.212218,0.176388 q 0.04134,0.01654 0.08268,0.184657 z m -0.479557,0.05788 q -0.07993,-0.237022 -0.474045,-0.237022 q -0.570507,0 -1.000454,0.407899 q -0.427192,0.407899 -0.427192,0.658701 q 0,0.181901 0.115755,0.28112 q 0.118511,0.09646 0.303168,0.09646 q 0.192925,0 0.460265,-0.121268 q 0.270095,-0.121267 0.485069,-0.256315 q 0.214974,-0.137803 0.272851,-0.203949 q 0.05788,-0.06615 0.110243,-0.220486 q 0.104731,-0.322461 0.15434,-0.405143 z"
 id="path1490" /></g><g
 aria-label="7"
 id="text1836-3"
 style="font-size:5.64444px;line-height:9.23078px;font-family:'Segoe Print QD';-inkscape-font-specification:'Segoe Print QD';text-align:center;letter-spacing:0.264583px;word-spacing:0.529167px;text-anchor:middle;overflow:visible;fill:#0055d4;stroke-width:0.3;stop-color:#000000"><path
 d="m 21.797244,2.5521884 q 0.16812,0 0.16812,0.1653644 q 0,0.079926 -0.02205,0.1129991 q -0.02205,0.030317 -0.151584,0.187413 Q 21.664952,3.1723051 21.56849,3.282548 q -0.101975,0.1157552 -0.319705,0.4464841 l -0.225998,0.3362411 q 0.51263,-0.00551 0.859895,-0.038585 q 0.08268,0.024805 0.101975,0.1378037 q 0.02205,0.1129991 -0.02756,0.2039495 q -0.04685,0.09095 -0.129535,0.066146 q -0.474045,-0.024805 -0.997699,-0.00551 q -0.03583,0.060634 -0.104731,0.1708766 q -0.0689,0.1102429 -0.124023,0.2039495 q -0.05237,0.09095 -0.09922,0.1901691 Q 20.256598,5.5039439 20.204233,5.655528 q -0.04961,0.148828 -0.04961,0.3197046 q 0,0.1267795 -0.07166,0.2094617 q -0.07166,0.079926 -0.181901,0.079926 q -0.118512,0 -0.192926,-0.1185112 Q 19.633725,6.024842 19.633725,5.8980626 q 0,-0.1322916 0.325217,-0.7882373 q 0.05788,-0.112999 0.121267,-0.223242 q 0.06339,-0.110243 0.146072,-0.2425345 q 0.08268,-0.1350477 0.124024,-0.2067056 q -0.424436,0.011024 -0.865408,0.055122 Q 19.385679,4.4593918 19.360874,4.3298563 Q 19.338825,4.1975647 19.396703,4.09559 q 0.05788,-0.1047309 0.159852,-0.071658 q 0.135048,0.019293 0.297656,0.027561 q 0.165365,0.00551 0.377583,0.00827 q 0.214973,0.00276 0.316948,0.00551 q 0.04685,-0.074414 0.09095,-0.1405598 Q 20.99247,3.3955471 21.099957,3.282548 q 0.121267,-0.1295354 0.21773,-0.2563149 l -0.05237,-0.038585 q -1.265038,0.074414 -2.378492,0.074414 q -0.06339,0 -0.112999,-0.06339 q -0.04685,-0.066146 -0.04685,-0.148828 q 0,-0.085438 0.07166,-0.1681205 q 0.07166,-0.082682 0.151584,-0.082682 q 0.09922,0 0.465777,0.022049 q 0.363801,0.024805 0.705555,0.024805 q 0.625628,0 1.152039,-0.057878 q 0.344509,-0.035829 0.523654,-0.035829 z"
 id="path1472" /></g><g
 aria-label="8"
 id="text1836-61"
 style="font-size:5.64444px;line-height:9.23078px;font-family:'Segoe Print QD';-inkscape-font-specification:'Segoe Print QD';text-align:center;letter-spacing:0.264583px;word-spacing:0.529167px;text-anchor:middle;overflow:visible;fill:#0055d4;stroke-width:0.3;stop-color:#000000"><path
 d="m 36.501889,12.434587 q 0.292143,0.118511 0.570507,0.405143 q 0.281119,0.283876 0.281119,0.520898 q 0,0.248047 -0.08819,0.440972 q -0.08544,0.190169 -0.567751,0.319705 q -0.482313,0.126779 -0.766189,0.126779 q -0.214974,0 -0.531922,-0.07441 Q 35.08251,14.0965 34.975023,13.964208 q -0.10473,-0.135047 -0.10473,-0.366558 q 0,-0.192925 0.170876,-0.418923 q 0.170877,-0.228754 0.418923,-0.391362 q 0.308681,-0.212218 0.385851,-0.272852 l -0.146072,-0.08268 q -0.416167,-0.220486 -0.5898,-0.429948 q -0.170877,-0.212217 -0.170877,-0.394118 q 0,-0.195681 0.137804,-0.363802 q 0.14056,-0.170877 0.581532,-0.410655 q 0.110243,-0.05788 0.214974,-0.121267 q 0.242534,-0.151584 0.600824,-0.151584 q 0.115755,0 0.341753,0.09646 q 0.225998,0.09371 0.2949,0.170877 q 0.07166,0.07441 0.104731,0.297656 q 0.03032,0.21773 0.03583,0.220486 q 0.03307,-0.04134 0.07166,-0.101975 q 0.04685,-0.07717 0.06339,-0.09646 q 0.05788,0.01378 0.115755,0.08544 q 0.06063,0.07166 0.06063,0.135047 q 0,0.0689 -0.16812,0.303169 q -0.168121,0.234266 -0.438216,0.421679 q -0.374826,0.264583 -0.454752,0.341753 z m -0.283876,-0.173633 q 0.661458,-0.534678 0.661458,-0.790993 q 0,-0.220486 -0.137804,-0.35829 q -0.137804,-0.137803 -0.35829,-0.137803 q -0.248046,0 -0.606336,0.228754 q -0.35829,0.228754 -0.35829,0.369314 q 0,0.242534 0.598068,0.573263 q 0.129536,0.07166 0.201194,0.115755 z m 0.700043,1.121723 q 0,-0.165365 -0.23151,-0.383095 q -0.231511,-0.220486 -0.496094,-0.327973 q -0.840603,0.5898 -0.840603,0.931554 q 0,0.115755 0.154341,0.181901 q 0.157096,0.06615 0.286631,0.06615 q 0.617361,0 0.87092,-0.126779 q 0.256315,-0.12678 0.256315,-0.283876 z"
 id="path1493" /></g><g
 aria-label="7"
 id="text1836-79"
 style="font-size:5.64444px;line-height:9.23078px;font-family:'Segoe Print QD';-inkscape-font-specification:'Segoe Print QD';text-align:center;letter-spacing:0.264583px;word-spacing:0.529167px;text-anchor:middle;overflow:visible;fill:#0055d4;stroke-width:0.3;stop-color:#000000"><path
 d="m 45.859063,10.552188 q 0.16812,0 0.16812,0.165365 q 0,0.07993 -0.02205,0.112999 q -0.02205,0.03032 -0.151584,0.187413 q -0.12678,0.15434 -0.223242,0.264583 q -0.101975,0.115755 -0.319705,0.446484 l -0.225998,0.336241 q 0.51263,-0.0055 0.859895,-0.03858 q 0.08268,0.02481 0.101975,0.137804 q 0.02205,0.112999 -0.02756,0.203949 q -0.04685,0.09095 -0.129535,0.06615 q -0.474045,-0.02481 -0.997699,-0.0055 q -0.03583,0.06063 -0.104731,0.170877 q -0.0689,0.110243 -0.124023,0.203949 q -0.05237,0.09095 -0.09922,0.190169 q -0.245291,0.509874 -0.297656,0.661458 q -0.04961,0.148828 -0.04961,0.319705 q 0,0.126779 -0.07166,0.209461 q -0.07166,0.07993 -0.181901,0.07993 q -0.118511,0 -0.192925,-0.118511 q -0.07441,-0.121267 -0.07441,-0.248046 q 0,-0.132292 0.325216,-0.788238 q 0.05788,-0.112999 0.121268,-0.223242 q 0.06339,-0.110243 0.146071,-0.242534 q 0.08268,-0.135048 0.124024,-0.206706 q -0.424436,0.01102 -0.865408,0.05512 q -0.09922,-0.03307 -0.124023,-0.162609 q -0.02205,-0.132291 0.03583,-0.234266 q 0.05788,-0.104731 0.159852,-0.07166 q 0.135048,0.01929 0.297656,0.02756 q 0.165365,0.0055 0.377583,0.0083 q 0.214973,0.0028 0.316948,0.0055 q 0.04685,-0.07441 0.09095,-0.14056 q 0.352777,-0.529166 0.460264,-0.642165 q 0.121267,-0.129535 0.21773,-0.256315 l -0.05237,-0.03858 q -1.265038,0.07441 -2.378492,0.07441 q -0.06339,0 -0.112999,-0.06339 q -0.04685,-0.06614 -0.04685,-0.148828 q 0,-0.08544 0.07166,-0.16812 q 0.07166,-0.08268 0.151584,-0.08268 q 0.09922,0 0.465777,0.02205 q 0.363801,0.0248 0.705555,0.0248 q 0.625629,0 1.152039,-0.05788 q 0.344509,-0.03583 0.523654,-0.03583 z"
 id="path1496" /></g><g
 aria-label="6"
 id="text1836-23"
 style="font-size:5.64444px;line-height:9.23078px;font-family:'Segoe Print QD';-inkscape-font-specification:'Segoe Print QD';text-align:center;letter-spacing:0.264583px;word-spacing:0.529167px;text-anchor:middle;overflow:visible;fill:#0055d4;stroke-width:0.3;stop-color:#000000"><path
 d="m 52.698944,10.938039 q -0.09646,0 -0.135047,0.0248 q -0.361046,0.101975 -0.774457,0.620117 q -0.07441,0.09922 -0.256315,0.275608 q -0.198437,0.190169 -0.300412,0.338997 q -0.09922,0.146072 -0.190169,0.410655 q -0.08819,0.264583 -0.08819,0.493337 q 0,0.14056 0.05788,0.259071 q 0.05788,0.118511 0.355534,0.305924 q -0.05512,-0.432703 0.151584,-0.810286 q 0.206705,-0.380338 0.520898,-0.545702 q 0.314192,-0.168121 0.972894,-0.168121 q 0.316948,0 0.570507,0.220486 q 0.256315,0.21773 0.256315,0.523654 q 0,0.201194 -0.165364,0.42168 q -0.165365,0.220486 -0.542947,0.460264 q -0.377582,0.239779 -0.600824,0.325217 q -0.220486,0.08544 -0.80753,0.08544 q -0.305924,0 -0.545703,-0.104731 Q 50.940569,13.96972 50.720083,13.71065 q -0.21773,-0.259071 -0.21773,-0.471289 q 0,-0.474045 0.12678,-0.763433 q 0.126779,-0.292144 0.355533,-0.611848 q 0.23151,-0.322461 0.443728,-0.518142 q 0.07166,-0.06615 0.23151,-0.239779 q 0.300413,-0.330729 0.501606,-0.468532 q 0.203949,-0.137804 0.391362,-0.137804 q 0.09371,0 0.176389,0.06615 q 0.08268,0.06339 0.08268,0.159852 q 0,0.190169 -0.112999,0.212218 z m 0.763433,1.835545 q -0.311436,-0.225998 -0.724848,-0.225998 q -0.981162,0 -1.044552,1.157551 q 0.09095,0.02756 0.245291,0.02756 l 0.270095,-0.01102 q 0.270095,0 0.760677,-0.338997 q 0.493337,-0.338997 0.493337,-0.609093 z"
 id="path1499" /></g><path
 style="font-variation-settings:normal;fill:none;fill-opacity:1;fill-rule:evenodd;stroke:#0055d4;stroke-width:0.5;stroke-linecap:butt;stroke-linejoin:miter;stroke-miterlimit:4;stroke-dasharray:none;stroke-dashoffset:0;stroke-opacity:1;stop-color:#000000"
 d="m 8.0995,16.184698 h 48"
 id="path3587"
 sodipodi:nodetypes="cc" /></svg>
