<svg xmlns="http://www.w3.org/2000/svg" xml:space="preserve" width="145mm" height="207.874" viewBox="0 0 145 55"><path d="M10 20h20v20H10Z" style="overflow:visible;fill:none;stroke:#000;stroke-width:.3;stop-color:#000" transform="translate(0 -10)"/><path d="M20 20v20M10 30h20" style="font-variation-settings:normal;opacity:1;vector-effect:none;fill:none;fill-opacity:1;fill-rule:evenodd;stroke:#000;stroke-width:.3;stroke-linecap:butt;stroke-linejoin:miter;stroke-miterlimit:4;stroke-dasharray:none;stroke-dashoffset:0;stroke-opacity:1;-inkscape-stroke:none;stop-color:#000;stop-opacity:1" transform="translate(0 -10)"/><path d="M45 20h20v20H45Z" style="overflow:visible;fill:none;stroke:#000;stroke-width:.3;stop-color:#000" transform="translate(0 -10)"/><path d="M55 20v20M45 30h20" style="font-variation-settings:normal;opacity:1;vector-effect:none;fill:none;fill-opacity:1;fill-rule:evenodd;stroke:#000;stroke-width:.3;stroke-linecap:butt;stroke-linejoin:miter;stroke-miterlimit:4;stroke-dasharray:none;stroke-dashoffset:0;stroke-opacity:1;-inkscape-stroke:none;stop-color:#000;stop-opacity:1" transform="translate(0 -10)"/><path d="M80 20h20v20H80Z" style="overflow:visible;fill:none;stroke:#000;stroke-width:.3;stop-color:#000" transform="translate(0 -10)"/><path d="M90 20v20M80 30h20" style="font-variation-settings:normal;opacity:1;vector-effect:none;fill:none;fill-opacity:1;fill-rule:evenodd;stroke:#000;stroke-width:.3;stroke-linecap:butt;stroke-linejoin:miter;stroke-miterlimit:4;stroke-dasharray:none;stroke-dashoffset:0;stroke-opacity:1;-inkscape-stroke:none;stop-color:#000;stop-opacity:1" transform="translate(0 -10)"/><path d="M115 20h20v20h-20z" style="overflow:visible;fill:none;stroke:#000;stroke-width:.3;stop-color:#000" transform="translate(0 -10)"/><path d="M125 20v20M115 30h20" style="font-variation-settings:normal;opacity:1;vector-effect:none;fill:none;fill-opacity:1;fill-rule:evenodd;stroke:#000;stroke-width:.3;stroke-linecap:butt;stroke-linejoin:miter;stroke-miterlimit:4;stroke-dasharray:none;stroke-dashoffset:0;stroke-opacity:1;-inkscape-stroke:none;stop-color:#000;stop-opacity:1" transform="translate(0 -10)"/><path d="M66.597 91.058q-.988-.358-2.377-.28-.237.817-.237 1.526l.007.322v.294l.008.322q.007.28 0 .38-.008.093.186.33.186.228.186.314 0 .215-.236.473-.23.265-.444.265-.566 0-.752-.265-.186-.258-.186-.78 0-.28.057-.882.05-.58.064-.873.029-.695.172-1.34-.172-.028-.508-.028-1.526 0-2.471.25-1.031.28-1.862.28-.344 0-.773-.487.322-.888 3.502-3.402 1.016-.795 1.647-1.368.659-.608 1.468-1.21.809-.602.952-.602.58 0 .58.294-.05.208-.408 1.49-.623 2.442-.788 3.566.466.18 1.69.18h.495q.408 0 .594.17.193.166.193.71 0 .165-.129.294-.128.128-.293.128-.2 0-.337-.071zm-2.6-4.798q-.264.265-1.217 1.017-.795.63-1.124.98-.766.81-2.099 1.77 0 .107.13.107.279-.115 2.098-.236 1.024-.072 1.496-.208.058-.458.208-1.031.509-1.934.509-2.4z" aria-label="4" style="font-size:14.6667px;line-height:1.2;font-family:&quot;Segoe Print QD&quot;;-inkscape-font-specification:&quot;Segoe Print QD&quot;;text-align:center;letter-spacing:0;word-spacing:2px;baseline-shift:baseline;text-anchor:middle;opacity:1;vector-effect:none;stroke-width:1.13386;stop-color:#000;stop-opacity:1" transform="matrix(.26458 0 0 .26458 -1.684 -8.5)"/><path d="M98.119 89.747q-.25.652-.394 1.368-.079.351-.315.473-.23.114-.659.114-.064 0-.114-.293-.043-.294-.043-.423 0-.501.565-1.604.065-.122.08-.172.5-.472 1.969-1.01.45-.164.873-.329.423-.172.638-.602.215-.43.215-.83 0-.237-.137-.817-.136-.58-.572-.745-.43-.171-.831-.171-.86 0-1.253.243-.394.244-.444.53-.058.33-.459.444-.215.043-.408.043-.401 0-.401-.437 0-.58.866-1.246.874-.666 1.44-.666.107 0 .988-.036.688-.028 1.125.25.436.273.809.696.38.422.38 1.647 0 1.074-.387 1.69-.387.616-.996.938-.609.315-2.535.945zm-.444 4.168q0 .366-.437.638-.43.272-.759.272-.337 0-.58-.215-.244-.208-.244-.544 0-.272.466-.573.1-.072.158-.122.15-.129.4-.129.165 0 .488.25.508 0 .508.423z" aria-label="?" style="font-size:14.6667px;line-height:1.2;font-family:&quot;Segoe Print QD&quot;;-inkscape-font-specification:&quot;Segoe Print QD&quot;;text-align:center;letter-spacing:0;word-spacing:2px;baseline-shift:baseline;text-anchor:middle;opacity:1;vector-effect:none;stroke-width:1.13386;stop-color:#000;stop-opacity:1" transform="matrix(.26458 0 0 .26458 -1.13 -8.5)"/><path d="M104.005 122.845q.437 0 .437.43 0 .207-.057.293-.058.079-.394.487-.33.401-.58.687-.265.301-.831 1.16l-.587.874q1.332-.014 2.234-.1.215.065.265.358.057.294-.072.53-.121.236-.336.172-1.232-.065-2.593-.014-.093.157-.272.444-.179.286-.322.53-.136.236-.258.494-.637 1.325-.773 1.718-.13.387-.13.831 0 .33-.185.544-.187.208-.473.208-.308 0-.501-.308-.194-.315-.194-.644 0-.344.845-2.048.15-.294.316-.58.164-.287.38-.63.214-.352.321-.538-1.103.029-2.248.143-.258-.086-.323-.422-.057-.344.093-.609.15-.272.416-.186.35.05.773.072.43.014.981.021.559.007.824.014.122-.193.236-.365.917-1.375 1.196-1.669.315-.336.566-.666l-.136-.1q-3.287.194-6.18.194-.165 0-.294-.165-.122-.172-.122-.387 0-.222.186-.437.187-.215.394-.215.258 0 1.21.058.946.064 1.834.064 1.626 0 2.993-.15.896-.093 1.361-.093z" aria-label="7" style="font-size:14.6667px;line-height:1.2;font-family:&quot;Segoe Print QD&quot;;-inkscape-font-specification:&quot;Segoe Print QD&quot;;text-align:center;letter-spacing:0;word-spacing:2px;baseline-shift:baseline;text-anchor:middle;opacity:1;vector-effect:none;stroke-width:1.13386;stop-color:#000;stop-opacity:1" transform="matrix(.26458 0 0 .26458 -1.458 -8.5)"/><g aria-label="10" style="font-size:14.6667px;line-height:1.2;font-family:&quot;Segoe Print QD&quot;;-inkscape-font-specification:&quot;Segoe Print QD&quot;;text-align:center;letter-spacing:0;word-spacing:2px;baseline-shift:baseline;text-anchor:middle;opacity:1;vector-effect:none;stroke-width:1.13386;stop-color:#000;stop-opacity:1"><path d="m13.59 25.2.109-.8q-.11 0-.305.133-.347.228-.61.228-.086 0-.086-.12 0-.076.029-.1.03-.025.265-.125.235-.103.591-.315.356-.212.388-.212.061 0 .105.083.043.084.043.146 0 .053-.055.108-.185.811-.216 1.243-.03.43-.01.502l.048.288.008.112q0 .129-.216.129-.214 0-.175-.405l.088-.895zM15.874 26.547q-.222 0-.368-.206-.144-.207-.18-.516-.045-.377.067-.831.113-.455.4-.747.287-.292.532-.292.18 0 .405.163.228.163.334.366.108.203.15.538.06.502-.355 1.014-.415.511-.985.511zm.7-2.224q-.024.055-.092.055-.01 0-.057-.042-.049-.043-.085-.043-.169 0-.26.073-.09.072-.236.302-.144.229-.22.504-.076.273-.042.555.04.335.165.42.125.086.26.086.17 0 .403-.188.235-.187.417-.481.182-.296.16-.481-.012-.106-.054-.247-.042-.142-.08-.195-.036-.053-.13-.17-.095-.118-.148-.148z"/></g><g aria-label="4,5" style="font-size:14.6667px;line-height:1.2;font-family:&quot;Segoe Print QD&quot;;-inkscape-font-specification:&quot;Segoe Print QD&quot;;text-align:center;letter-spacing:0;word-spacing:2px;baseline-shift:baseline;text-anchor:middle;opacity:1;vector-effect:none;stroke-width:1.13386;stop-color:#000;stop-opacity:1"><path d="M48.97 15.592q-.262-.094-.63-.074-.062.216-.062.404l.002.085v.078l.002.085q.002.074 0 .1-.002.025.049.088.05.06.05.083 0 .057-.063.125-.061.07-.118.07-.15 0-.199-.07-.049-.068-.049-.206 0-.074.015-.233.013-.154.017-.231.008-.184.046-.355-.046-.007-.135-.007-.403 0-.654.066-.272.074-.492.074-.091 0-.205-.129.085-.235.927-.9.269-.21.436-.362.174-.161.388-.32.214-.16.252-.16.153 0 .153.078-.013.055-.108.394-.164.647-.208.944.123.047.447.047h.13q.109 0 .158.046.051.044.051.188 0 .043-.034.077t-.077.034q-.054 0-.09-.019zm-.688-1.27q-.07.071-.322.27-.21.167-.298.26-.203.214-.555.468 0 .028.034.028.074-.03.555-.063.271-.019.396-.055.015-.12.055-.272.135-.512.135-.635zM49.379 16.86q.352-.087.453-.248.1-.16.1-.228 0-.193-.053-.272-.025-.036-.025-.07 0-.029.025-.082.027-.053.053-.053.04 0 .125.03.085.029.1.051.016.021.05.14.036.12.036.205 0 .032-.072.2-.07.168-.193.26-.124.095-.232.116-.043.008-.081.021-.15.066-.244.066-.055 0-.055-.089 0-.034.013-.047zM51.747 14.412q-.108.102-.255.322-.04.059-.065.093l-.036.051q.106.064.411.108.39.057.58.129.191.072.275.21.085.137.085.373 0 .148-.136.332-.137.184-.455.349-.318.165-.705.165-.316 0-.544-.125-.225-.126-.225-.21 0-.183.23-.183.05 0 .109.048.21.147.483.147.29 0 .595-.172.307-.172.307-.33 0-.2-.15-.307-.147-.108-.462-.142l-.428-.047q-.18-.023-.279-.093-.098-.072-.098-.133 0-.064.07-.145l.165-.24q.309-.46.388-.484.082-.027 1.023-.057.167-.004.345-.055.14-.038.175-.038.117 0 .204.07.063.032.063.07 0 .055-.07.139-.07.083-.203.102-.13.019-.328.019l-.633-.02q-.278 0-.436.054z"/></g><g aria-label="14" style="font-size:14.6667px;line-height:1.2;font-family:&quot;Segoe Print QD&quot;;-inkscape-font-specification:&quot;Segoe Print QD&quot;;text-align:center;letter-spacing:0;word-spacing:2px;baseline-shift:baseline;text-anchor:middle;opacity:1;vector-effect:none;stroke-width:1.13386;stop-color:#000;stop-opacity:1"><path d="m58.333 15.2.108-.8q-.11 0-.305.133-.347.228-.61.228-.086 0-.086-.12 0-.076.029-.1.03-.025.265-.125.235-.103.591-.315.357-.212.389-.212.06 0 .104.083.044.084.044.146 0 .053-.055.108-.186.811-.216 1.243-.03.43-.01.502l.048.288.007.112q0 .129-.216.129-.214 0-.174-.405l.087-.895zM62.354 15.592q-.262-.094-.63-.074-.062.216-.062.404l.002.085v.078l.002.085q.002.074 0 .1-.002.025.05.088.048.06.048.083 0 .057-.062.125-.06.07-.118.07-.15 0-.199-.07-.049-.068-.049-.206 0-.074.015-.233.014-.154.017-.231.008-.184.046-.355-.046-.007-.135-.007-.403 0-.653.066-.273.074-.493.074-.091 0-.205-.129.086-.235.927-.9.269-.21.436-.362.174-.161.388-.32.214-.16.252-.16.154 0 .154.078-.014.055-.108.394-.165.647-.209.944.123.047.447.047h.131q.108 0 .157.046.051.044.051.188 0 .043-.034.077t-.077.034q-.053 0-.09-.019zm-.688-1.27q-.07.071-.322.27-.21.167-.298.26-.202.214-.555.468 0 .028.034.028.074-.03.555-.063.271-.019.396-.055.016-.12.055-.272.135-.512.135-.635z"/></g><path d="M229.934 127.9q-.523 0-.523-.307 0-.172.1-.38.1-.215.58-.63l1.275-1.089q.788-.673 1.726-1.339-.394-.064-2.105.143-1.325.165-1.855.165-1.232 0-1.232-1.124 0-.222.143-.387.15-.172.366-.172.157 0 .386.165.287.2.444.258.165.057.48.057.509 0 1.862-.129 1.783-.208 2.843-.208.881 0 .881.573 0 .409-.365.695-.358.286-1.046.695-.91.544-1.274.816-.358.265-.717.702.788-.057 1.19-.057.866 0 1.489.222.623.214.93.565.316.351.48.566.165.215.165.774 0 .48-.701 1.554-.702 1.067-2.32 1.697-1.62.63-3.159.63-.444 0-1.282-.107-.83-.115-1.024-.409-.186-.293-.186-.594 0-.752.709-.752.028 0 .107.036l.494.208q.817.372 1.49.372.587 0 1.79-.23 1.203-.236 2.02-.995.816-.766.816-1.224 0-.78-.823-1.032-.817-.257-1.82-.257-1.396 0-2.334.53z" aria-label="3" style="font-size:14.6667px;line-height:1.2;font-family:&quot;Segoe Print QD&quot;;-inkscape-font-specification:&quot;Segoe Print QD&quot;;text-align:center;letter-spacing:0;word-spacing:2px;baseline-shift:baseline;text-anchor:middle;opacity:1;vector-effect:none;stroke-width:1.13386;stop-color:#000;stop-opacity:1" transform="matrix(.26458 0 0 .26458 -1.488 -8.5)"/><path d="M367.21 86.596q0 .215-.171.616-.652 1.59-1.189 3.552-.53 1.955-.53 2.607 0 1.074-.487 1.074-.437 0-.601-.4-.158-.409-.158-.717 0-.401.766-2.993l.144-.495-.13-.093q-1.224.724-1.854.931-.623.2-1.569.2-.436 0-1.024-.65-.587-.66-.587-1.097 0-.45.136-.852.136-.4.466-.845.33-.451 1.095-1.074.767-.623 1.146-.81.387-.186 1.146-.379.76-.2 1.175-.2.386 0 .694.136.315.129.766.551.452.415.552.458.107.043.215.48zm-1.245.15q-.208-.615-1.232-.615-1.483 0-2.6 1.06-1.11 1.06-1.11 1.711 0 .473.301.73.308.251.788.251.501 0 1.196-.315.702-.315 1.26-.666.559-.358.71-.53.15-.172.286-.573.272-.838.4-1.052z" aria-label="9" style="font-size:14.6667px;line-height:1.2;font-family:&quot;Segoe Print QD&quot;;-inkscape-font-specification:&quot;Segoe Print QD&quot;;text-align:center;letter-spacing:0;word-spacing:2px;baseline-shift:baseline;text-anchor:middle;opacity:1;vector-effect:none;stroke-width:1.13386;stop-color:#000;stop-opacity:1" transform="matrix(.26458 0 0 .26458 -1.288 -8.5)"/><g aria-label="1,5" style="font-size:14.6667px;line-height:1.2;font-family:&quot;Segoe Print QD&quot;;-inkscape-font-specification:&quot;Segoe Print QD&quot;;text-align:center;letter-spacing:0;word-spacing:2px;baseline-shift:baseline;text-anchor:middle;opacity:1;vector-effect:none;stroke-width:1.13386;stop-color:#000;stop-opacity:1"><path d="m92.764 25.2.108-.8q-.11 0-.305.133-.346.228-.61.228-.085 0-.085-.12 0-.076.028-.1.03-.025.266-.125.235-.103.59-.315.357-.212.39-.212.06 0 .104.083.043.084.043.146 0 .053-.055.108-.186.811-.216 1.243-.03.43-.01.502l.048.288.008.112q0 .129-.216.129-.214 0-.175-.405.082-.829.087-.895zM94.398 26.86q.352-.087.453-.248.1-.16.1-.228 0-.193-.053-.272-.025-.036-.025-.07 0-.029.025-.082.027-.053.053-.053.04 0 .125.03.085.029.1.051.016.021.05.14.036.12.036.205 0 .032-.072.2-.07.168-.193.26-.124.095-.232.116-.043.008-.081.021-.15.066-.245.066-.054 0-.054-.089 0-.034.013-.047zM96.766 24.412q-.108.102-.255.322-.04.059-.065.093l-.036.051q.106.064.411.108.39.057.58.129.191.072.275.21.085.137.085.373 0 .148-.136.332-.137.184-.455.349-.318.165-.705.165-.316 0-.544-.125-.225-.126-.225-.21 0-.183.229-.183.051 0 .11.048.21.147.483.147.29 0 .595-.172.307-.172.307-.33 0-.2-.15-.307-.147-.108-.462-.142l-.428-.047q-.18-.023-.279-.093-.098-.072-.098-.133 0-.064.07-.145l.165-.24q.309-.46.388-.484.082-.027 1.023-.057.167-.004.345-.055.14-.038.174-.038.118 0 .205.07.063.032.063.07 0 .055-.07.139-.07.083-.203.102-.131.019-.328.019l-.633-.02q-.278 0-.436.054z"/></g><g aria-label="3,2" style="font-size:14.6667px;line-height:1.2;font-family:&quot;Segoe Print QD&quot;;-inkscape-font-specification:&quot;Segoe Print QD&quot;;text-align:center;letter-spacing:0;word-spacing:2px;baseline-shift:baseline;text-anchor:middle;opacity:1;vector-effect:none;stroke-width:1.13386;stop-color:#000;stop-opacity:1"><path d="M82.315 25.34q-.138 0-.138-.081 0-.046.027-.1.026-.057.153-.167l.337-.288q.209-.178.457-.355-.104-.017-.557.038-.35.044-.49.044-.327 0-.327-.298 0-.058.038-.102.04-.045.097-.045.041 0 .102.043.076.053.118.068.043.016.127.016.134 0 .492-.035.472-.055.752-.055.234 0 .234.152 0 .108-.097.184-.095.076-.277.184-.24.144-.337.216-.095.07-.19.185.209-.015.315-.015.23 0 .394.059.165.057.246.15.084.092.127.15.044.056.044.204 0 .127-.186.411-.185.282-.614.45-.428.166-.835.166-.118 0-.34-.028-.22-.03-.27-.108-.05-.078-.05-.158 0-.199.188-.199.008 0 .028.01l.131.055q.216.098.394.098.156 0 .474-.06.318-.063.534-.264.216-.203.216-.324 0-.206-.218-.273-.216-.068-.48-.068-.37 0-.619.14zM84.256 26.86q.352-.087.453-.248.1-.16.1-.228 0-.193-.053-.272-.025-.036-.025-.07 0-.029.025-.082.026-.053.053-.053.04 0 .125.03.085.029.1.051.016.021.05.14.036.12.036.205 0 .032-.072.2-.07.168-.194.26-.123.095-.23.116-.044.008-.082.021-.15.066-.245.066-.055 0-.055-.089 0-.034.014-.047zM86.512 26.019q.099-.008.3-.008.248 0 .824.036.157.008.2.006.046-.002.118-.03.078-.03.118-.03.032 0 .074.048.043.048.043.082 0 .123-.129.193-.128.068-.229.068h-.07q-.182 0-.267-.024-.263-.07-.656-.07-.335 0-.589.081-.254.082-.33.173-.085.102-.129.127-.041.026-.115.026-.148 0-.148-.13 0-.2.163-.351.163-.154.548-.349.225-.112.274-.153.05-.042.271-.245.224-.203.34-.348.115-.146.164-.26.052-.116.052-.212 0-.133-.158-.27-.157-.138-.292-.138-.115 0-.348.146-.233.144-.347.279-.074.087-.225.087-.036 0-.078-.081-.042-.082-.042-.131 0-.036.01-.05.01-.013.19-.142.181-.128.325-.221.146-.095.292-.144.146-.05.375-.05.195 0 .366.163.172.161.256.319.083.155.083.178 0 .26-.389.718-.386.459-.845.707z"/></g><g aria-label="0,5" style="font-size:14.6667px;line-height:1.2;font-family:&quot;Segoe Print QD&quot;;-inkscape-font-specification:&quot;Segoe Print QD&quot;;text-align:center;letter-spacing:0;word-spacing:2px;baseline-shift:baseline;text-anchor:middle;opacity:1;vector-effect:none;stroke-width:1.13386;stop-color:#000;stop-opacity:1"><path d="M117.518 16.547q-.222 0-.367-.206-.144-.207-.18-.516-.046-.377.066-.831.114-.455.4-.747.288-.292.532-.292.18 0 .406.163.227.163.333.366.108.203.15.538.06.502-.355 1.014-.415.511-.985.511zm.701-2.224q-.024.055-.093.055-.01 0-.056-.042-.05-.043-.086-.043-.168 0-.26.073-.09.072-.236.302-.144.229-.22.504-.076.273-.042.555.04.335.165.42.125.086.26.086.17 0 .403-.188.235-.187.417-.481.182-.296.16-.481-.012-.106-.054-.247-.041-.142-.08-.195-.035-.053-.13-.17-.095-.118-.148-.148zM119.093 16.86q.352-.087.453-.248.1-.16.1-.228 0-.193-.053-.272-.025-.036-.025-.07 0-.029.025-.082.026-.053.053-.053.04 0 .125.03.085.029.1.051.016.021.05.14.036.12.036.205 0 .032-.072.2-.07.168-.194.26-.123.095-.23.116-.044.008-.082.021-.15.066-.245.066-.055 0-.055-.089 0-.034.014-.047zM121.461 14.412q-.108.102-.256.322l-.064.093q-.027.036-.036.051.106.064.411.108.39.057.58.129.191.072.275.21.085.137.085.373 0 .148-.136.332-.137.184-.455.349-.318.165-.705.165-.316 0-.544-.125-.225-.126-.225-.21 0-.183.229-.183.051 0 .11.048.21.147.483.147.29 0 .595-.172.307-.172.307-.33 0-.2-.15-.307-.148-.108-.462-.142l-.428-.047q-.18-.023-.279-.093-.098-.072-.098-.133 0-.064.07-.145l.165-.24q.308-.46.388-.484.082-.027 1.023-.057.167-.004.345-.055.14-.038.174-.038.118 0 .205.07.063.032.063.07 0 .055-.07.139-.07.083-.203.102-.131.019-.328.019l-.633-.02q-.278 0-.436.054z"/></g><g aria-label="16,1" style="font-size:14.6667px;line-height:1.2;font-family:&quot;Segoe Print QD&quot;;-inkscape-font-specification:&quot;Segoe Print QD&quot;;text-align:center;letter-spacing:0;word-spacing:2px;baseline-shift:baseline;text-anchor:middle;opacity:1;vector-effect:none;stroke-width:1.13386;stop-color:#000;stop-opacity:1"><path d="m126.395 15.2.108-.8q-.11 0-.306.133-.346.228-.61.228-.085 0-.085-.12 0-.076.028-.1.03-.025.266-.125.235-.103.59-.315.357-.212.39-.212.06 0 .104.083.043.084.043.146 0 .053-.055.108-.185.811-.216 1.243-.03.43-.01.502l.048.288.008.112q0 .129-.216.129-.214 0-.175-.405l.088-.895zM129.739 14.268q-.066 0-.093.017-.248.07-.532.426-.052.069-.177.19-.136.13-.206.233-.068.1-.13.282-.062.182-.062.34 0 .096.04.177.04.082.245.21-.038-.297.104-.556.142-.262.358-.375.216-.116.669-.116.218 0 .392.152.176.15.176.36 0 .138-.113.29-.114.151-.374.316t-.413.223q-.151.06-.555.06-.21 0-.375-.073-.163-.072-.315-.25-.15-.178-.15-.324 0-.326.088-.525.087-.2.244-.42.16-.222.305-.357.05-.045.16-.165.206-.227.344-.322.14-.094.27-.094.064 0 .12.045.058.044.058.11 0 .13-.078.146zm.525 1.262q-.214-.156-.499-.156-.674 0-.718.796.063.02.169.02l.186-.008q.185 0 .523-.233.339-.233.339-.42zM130.768 16.86q.352-.087.453-.248.1-.16.1-.228 0-.193-.053-.272-.025-.036-.025-.07 0-.029.025-.082.026-.053.053-.053.04 0 .125.03.085.029.1.051.016.021.05.14.036.12.036.205 0 .032-.072.2-.07.168-.193.26-.124.095-.232.116-.043.008-.081.021-.15.066-.245.066-.055 0-.055-.089 0-.034.014-.047zM133.106 15.2l.108-.8q-.11 0-.305.133-.347.228-.61.228-.086 0-.086-.12 0-.076.029-.1.03-.025.265-.125.235-.103.591-.315.357-.212.389-.212.06 0 .104.083.044.084.044.146 0 .053-.055.108-.186.811-.216 1.243-.03.43-.01.502l.048.288.007.112q0 .129-.216.129-.214 0-.174-.405l.087-.895z"/></g><g aria-label="7,2" style="font-size:14.6667px;line-height:1.2;font-family:&quot;Segoe Print QD&quot;;-inkscape-font-specification:&quot;Segoe Print QD&quot;;text-align:center;letter-spacing:0;word-spacing:2px;baseline-shift:baseline;text-anchor:middle;opacity:1;vector-effect:none;stroke-width:1.13386;stop-color:#000;stop-opacity:1"><path d="M119.121 24.003q.116 0 .116.113 0 .055-.015.078l-.105.129q-.087.106-.153.182-.07.08-.22.307l-.155.23q.352-.003.59-.026.058.017.071.095.015.078-.019.14-.032.063-.089.046-.326-.017-.686-.004l-.072.117-.085.14q-.036.063-.068.131-.169.351-.205.455-.034.103-.034.22 0 .087-.05.144-.049.055-.124.055-.082 0-.133-.082-.051-.083-.051-.17 0-.091.223-.542.04-.078.084-.153.043-.076.1-.167.057-.093.085-.142-.291.007-.595.038-.068-.023-.085-.112-.015-.091.025-.161.04-.072.11-.05.093.014.204.02l.26.005.218.004.062-.097q.243-.364.317-.441.083-.09.15-.176l-.037-.027q-.87.051-1.635.051-.043 0-.077-.043-.033-.046-.033-.103 0-.058.05-.115.049-.057.104-.057.068 0 .32.015.25.017.485.017.43 0 .792-.04.237-.024.36-.024zM119.16 26.86q.353-.087.454-.248.1-.16.1-.228 0-.193-.053-.272-.024-.036-.024-.07 0-.029.024-.082.027-.053.053-.053.04 0 .125.03.086.029.1.051.016.021.05.14.036.12.036.205 0 .032-.072.2-.07.168-.193.26-.123.095-.231.116-.044.008-.082.021-.15.066-.244.066-.055 0-.055-.089 0-.034.013-.047zM121.418 26.019q.098-.008.299-.008.248 0 .824.036.158.008.201.006.046-.002.118-.03.077-.03.117-.03.032 0 .074.048.044.048.044.082 0 .123-.13.193-.128.068-.229.068h-.07q-.182 0-.267-.024-.263-.07-.655-.07-.336 0-.59.081-.254.082-.33.173-.085.102-.128.127-.042.026-.116.026-.148 0-.148-.13 0-.2.163-.351.163-.154.548-.349.225-.112.275-.153.049-.042.27-.245.224-.203.34-.348.115-.146.165-.26.05-.116.05-.212 0-.133-.156-.27-.158-.138-.292-.138-.116 0-.349.146-.233.144-.347.279-.074.087-.225.087-.036 0-.078-.081-.042-.082-.042-.131 0-.036.01-.05.01-.013.19-.142.181-.128.325-.221.146-.095.292-.144.146-.05.375-.05.195 0 .366.163.172.161.256.319.083.155.083.178 0 .26-.388.718-.387.459-.845.707z"/></g><path d="M494.97 127.543q-.251.651-.394 1.367-.08.351-.316.473-.229.115-.658.115-.065 0-.115-.294-.043-.294-.043-.423 0-.5.566-1.604.064-.121.079-.172.5-.472 1.969-1.01.451-.164.874-.329.422-.172.637-.601.215-.43.215-.831 0-.236-.136-.816t-.573-.745q-.43-.172-.83-.172-.86 0-1.254.243-.394.244-.444.53-.057.33-.458.444-.215.043-.409.043-.4 0-.4-.437 0-.58.866-1.246.874-.666 1.44-.666.107 0 .988-.035.687-.029 1.124.25.437.272.81.695.379.422.379 1.647 0 1.074-.387 1.69-.387.616-.995.938-.61.315-2.536.946zm-.445 4.168q0 .365-.436.637-.43.272-.76.272-.336 0-.58-.215-.243-.207-.243-.544 0-.272.465-.573.1-.072.158-.122.15-.129.401-.129.165 0 .487.251.508 0 .508.423z" aria-label="?" style="font-size:14.6667px;line-height:1.2;font-family:&quot;Segoe Print QD&quot;;-inkscape-font-specification:&quot;Segoe Print QD&quot;;text-align:center;letter-spacing:0;word-spacing:2px;baseline-shift:baseline;text-anchor:middle;opacity:1;vector-effect:none;stroke-width:1.13386;stop-color:#000;stop-opacity:1" transform="matrix(.26458 0 0 .26458 -1.13 -8.5)"/><path d="M98.119 89.747q-.25.652-.394 1.368-.079.351-.315.473-.23.114-.659.114-.064 0-.114-.293-.043-.294-.043-.423 0-.501.565-1.604.065-.122.08-.172.5-.472 1.969-1.01.45-.164.873-.329.423-.172.638-.602.215-.43.215-.83 0-.237-.137-.817-.136-.58-.572-.745-.43-.171-.831-.171-.86 0-1.253.243-.394.244-.444.53-.058.33-.459.444-.215.043-.408.043-.401 0-.401-.437 0-.58.866-1.246.874-.666 1.44-.666.107 0 .988-.036.688-.028 1.125.25.436.273.809.696.38.422.38 1.647 0 1.074-.387 1.69-.387.616-.996.938-.609.315-2.535.945zm-.444 4.168q0 .366-.437.638-.43.272-.759.272-.337 0-.58-.215-.244-.208-.244-.544 0-.272.466-.573.1-.072.158-.122.15-.129.4-.129.165 0 .488.25.508 0 .508.423z" aria-label="?" style="font-size:14.6667px;line-height:1.2;font-family:&quot;Segoe Print QD&quot;;-inkscape-font-specification:&quot;Segoe Print QD&quot;;text-align:center;letter-spacing:0;word-spacing:2px;baseline-shift:baseline;text-anchor:middle;vector-effect:none;stroke-width:1.13386;stop-color:#000" transform="matrix(.26458 0 0 .26458 23.87 1.5)"/><path d="M98.119 89.747q-.25.652-.394 1.368-.079.351-.315.473-.23.114-.659.114-.064 0-.114-.293-.043-.294-.043-.423 0-.501.565-1.604.065-.122.08-.172.5-.472 1.969-1.01.45-.164.873-.329.423-.172.638-.602.215-.43.215-.83 0-.237-.137-.817-.136-.58-.572-.745-.43-.171-.831-.171-.86 0-1.253.243-.394.244-.444.53-.058.33-.459.444-.215.043-.408.043-.401 0-.401-.437 0-.58.866-1.246.874-.666 1.44-.666.107 0 .988-.036.688-.028 1.125.25.436.273.809.696.38.422.38 1.647 0 1.074-.387 1.69-.387.616-.996.938-.609.315-2.535.945zm-.444 4.168q0 .366-.437.638-.43.272-.759.272-.337 0-.58-.215-.244-.208-.244-.544 0-.272.466-.573.1-.072.158-.122.15-.129.4-.129.165 0 .488.25.508 0 .508.423z" aria-label="?" style="font-size:14.6667px;line-height:1.2;font-family:&quot;Segoe Print QD&quot;;-inkscape-font-specification:&quot;Segoe Print QD&quot;;text-align:center;letter-spacing:0;word-spacing:2px;baseline-shift:baseline;text-anchor:middle;vector-effect:none;stroke-width:1.13386;stop-color:#000" transform="matrix(.26458 0 0 .26458 58.87 -8.5)"/><path d="M5 15h30v45H5Z" style="overflow:visible;fill:none;stroke:#000;stroke-width:.3;stop-color:#000" transform="translate(0 -10)"/><path d="M42.095 183.374q-.296.77-.466 1.616-.093.415-.372.559-.271.135-.779.135-.076 0-.135-.347-.051-.347-.051-.5 0-.592.669-1.895.076-.144.093-.203.592-.559 2.327-1.194.533-.194 1.033-.389.5-.203.753-.71.254-.509.254-.983 0-.279-.16-.964-.162-.686-.678-.88-.508-.204-.982-.204-1.015 0-1.48.288-.466.288-.526.626-.067.39-.541.525-.254.05-.483.05-.474 0-.474-.515 0-.686 1.024-1.473 1.033-.787 1.702-.787.127 0 1.168-.043.812-.033 1.328.297.517.321.957.82.448.5.448 1.947 0 1.27-.457 1.998t-1.176 1.108q-.72.373-2.996 1.118zm-.525 4.925q0 .432-.516.754-.508.321-.897.321-.398 0-.686-.254-.288-.245-.288-.643 0-.322.55-.677.119-.085.187-.144.177-.152.474-.152.194 0 .575.296.601 0 .601.5z" aria-label="?" style="font-size:17.3333px;line-height:1.2;font-family:&quot;Segoe Print QD&quot;;-inkscape-font-specification:&quot;Segoe Print QD&quot;;letter-spacing:.999999px;word-spacing:2px;baseline-shift:baseline;opacity:1;vector-effect:none;stroke-width:1.13386;stop-color:#000;stop-opacity:1" transform="matrix(.26458 0 0 .26458 0 -8.472)"/><path d="M65.376 181.994q-.186 0-.516-.144-.364-.127-.533-.127-.127 0-.372.042-.254.051-.39.051-.262 0-.761-.05-.508-.051-.838-.051-.627 0-1.65.118-1.033.127-1.685.127-.364 0-.533-.11-.17-.118-.17-.525 0-.245.144-.448.153-.212.89-.33.735-.127 1.192-.127.187 0 .534.042.465.034 1.59.008 1.126-.034 1.736-.17.05-.016.643-.007.601.008.982.296.39.28.39.677 0 .728-.653.728zm-2.97 3.96h-1.033l-2.657.043q-.136 0-.381-.355-.246-.356-.246-.533 0-.254.576-.381.575-.136 1.024-.136l2.124.051q.263 0 .618-.06.423-.075.99-.075 1.041 0 1.888.203.846.203.846.702 0 .237-.135.474-.136.229-.271.229-.22 0-.796-.102-.702-.101-1.075-.076-.372.017-1.472.017z" aria-label="=" style="font-size:17.3333px;line-height:1.2;font-family:&quot;Segoe Print QD&quot;;-inkscape-font-specification:&quot;Segoe Print QD&quot;;letter-spacing:.999999px;word-spacing:2px;baseline-shift:baseline;opacity:1;vector-effect:none;stroke-width:1.13386;stop-color:#000;stop-opacity:1" transform="matrix(.26458 0 0 .26458 0 -8.472)"/><path d="M40 15h30v45H40Z" style="overflow:visible;fill:none;stroke:#000;stroke-width:.3;stop-color:#000" transform="translate(0 -10)"/><path d="M42.095 183.374q-.296.77-.466 1.616-.093.415-.372.559-.271.135-.779.135-.076 0-.135-.347-.051-.347-.051-.5 0-.592.669-1.895.076-.144.093-.203.592-.559 2.327-1.194.533-.194 1.033-.389.5-.203.753-.71.254-.509.254-.983 0-.279-.16-.964-.162-.686-.678-.88-.508-.204-.982-.204-1.015 0-1.48.288-.466.288-.526.626-.067.39-.541.525-.254.05-.483.05-.474 0-.474-.515 0-.686 1.024-1.473 1.033-.787 1.702-.787.127 0 1.168-.043.812-.033 1.328.297.517.321.957.82.448.5.448 1.947 0 1.27-.457 1.998t-1.176 1.108q-.72.373-2.996 1.118zm-.525 4.925q0 .432-.516.754-.508.321-.897.321-.398 0-.686-.254-.288-.245-.288-.643 0-.322.55-.677.119-.085.187-.144.177-.152.474-.152.194 0 .575.296.601 0 .601.5z" aria-label="?" style="font-size:17.3333px;line-height:1.2;font-family:&quot;Segoe Print QD&quot;;-inkscape-font-specification:&quot;Segoe Print QD&quot;;letter-spacing:.999999px;word-spacing:2px;baseline-shift:baseline;opacity:1;vector-effect:none;stroke-width:1.13386;stop-color:#000;stop-opacity:1" transform="matrix(.26458 0 0 .26458 35 -8.472)"/><path d="M65.376 181.994q-.186 0-.516-.144-.364-.127-.533-.127-.127 0-.372.042-.254.051-.39.051-.262 0-.761-.05-.508-.051-.838-.051-.627 0-1.65.118-1.033.127-1.685.127-.364 0-.533-.11-.17-.118-.17-.525 0-.245.144-.448.153-.212.89-.33.735-.127 1.192-.127.187 0 .534.042.465.034 1.59.008 1.126-.034 1.736-.17.05-.016.643-.007.601.008.982.296.39.28.39.677 0 .728-.653.728zm-2.97 3.96h-1.033l-2.657.043q-.136 0-.381-.355-.246-.356-.246-.533 0-.254.576-.381.575-.136 1.024-.136l2.124.051q.263 0 .618-.06.423-.075.99-.075 1.041 0 1.888.203.846.203.846.702 0 .237-.135.474-.136.229-.271.229-.22 0-.796-.102-.702-.101-1.075-.076-.372.017-1.472.017z" aria-label="=" style="font-size:17.3333px;line-height:1.2;font-family:&quot;Segoe Print QD&quot;;-inkscape-font-specification:&quot;Segoe Print QD&quot;;letter-spacing:.999999px;word-spacing:2px;baseline-shift:baseline;opacity:1;vector-effect:none;stroke-width:1.13386;stop-color:#000;stop-opacity:1" transform="matrix(.26458 0 0 .26458 35 -8.472)"/><path d="M75 15h30v45H75Z" style="overflow:visible;fill:none;stroke:#000;stroke-width:.3;stop-color:#000" transform="translate(0 -10)"/><path d="M42.095 183.374q-.296.77-.466 1.616-.093.415-.372.559-.271.135-.779.135-.076 0-.135-.347-.051-.347-.051-.5 0-.592.669-1.895.076-.144.093-.203.592-.559 2.327-1.194.533-.194 1.033-.389.5-.203.753-.71.254-.509.254-.983 0-.279-.16-.964-.162-.686-.678-.88-.508-.204-.982-.204-1.015 0-1.48.288-.466.288-.526.626-.067.39-.541.525-.254.05-.483.05-.474 0-.474-.515 0-.686 1.024-1.473 1.033-.787 1.702-.787.127 0 1.168-.043.812-.033 1.328.297.517.321.957.82.448.5.448 1.947 0 1.27-.457 1.998t-1.176 1.108q-.72.373-2.996 1.118zm-.525 4.925q0 .432-.516.754-.508.321-.897.321-.398 0-.686-.254-.288-.245-.288-.643 0-.322.55-.677.119-.085.187-.144.177-.152.474-.152.194 0 .575.296.601 0 .601.5z" aria-label="?" style="font-size:17.3333px;line-height:1.2;font-family:&quot;Segoe Print QD&quot;;-inkscape-font-specification:&quot;Segoe Print QD&quot;;letter-spacing:.999999px;word-spacing:2px;baseline-shift:baseline;opacity:1;vector-effect:none;stroke-width:1.13386;stop-color:#000;stop-opacity:1" transform="matrix(.26458 0 0 .26458 70 -8.472)"/><path d="M65.376 181.994q-.186 0-.516-.144-.364-.127-.533-.127-.127 0-.372.042-.254.051-.39.051-.262 0-.761-.05-.508-.051-.838-.051-.627 0-1.65.118-1.033.127-1.685.127-.364 0-.533-.11-.17-.118-.17-.525 0-.245.144-.448.153-.212.89-.33.735-.127 1.192-.127.187 0 .534.042.465.034 1.59.008 1.126-.034 1.736-.17.05-.016.643-.007.601.008.982.296.39.28.39.677 0 .728-.653.728zm-2.97 3.96h-1.033l-2.657.043q-.136 0-.381-.355-.246-.356-.246-.533 0-.254.576-.381.575-.136 1.024-.136l2.124.051q.263 0 .618-.06.423-.075.99-.075 1.041 0 1.888.203.846.203.846.702 0 .237-.135.474-.136.229-.271.229-.22 0-.796-.102-.702-.101-1.075-.076-.372.017-1.472.017z" aria-label="=" style="font-size:17.3333px;line-height:1.2;font-family:&quot;Segoe Print QD&quot;;-inkscape-font-specification:&quot;Segoe Print QD&quot;;letter-spacing:.999999px;word-spacing:2px;baseline-shift:baseline;opacity:1;vector-effect:none;stroke-width:1.13386;stop-color:#000;stop-opacity:1" transform="matrix(.26458 0 0 .26458 70 -8.472)"/><path d="M110 15h30v45h-30z" style="overflow:visible;fill:none;stroke:#000;stroke-width:.3;stop-color:#000" transform="translate(0 -10)"/><path d="M42.095 183.374q-.296.77-.466 1.616-.093.415-.372.559-.271.135-.779.135-.076 0-.135-.347-.051-.347-.051-.5 0-.592.669-1.895.076-.144.093-.203.592-.559 2.327-1.194.533-.194 1.033-.389.5-.203.753-.71.254-.509.254-.983 0-.279-.16-.964-.162-.686-.678-.88-.508-.204-.982-.204-1.015 0-1.48.288-.466.288-.526.626-.067.39-.541.525-.254.05-.483.05-.474 0-.474-.515 0-.686 1.024-1.473 1.033-.787 1.702-.787.127 0 1.168-.043.812-.033 1.328.297.517.321.957.82.448.5.448 1.947 0 1.27-.457 1.998t-1.176 1.108q-.72.373-2.996 1.118zm-.525 4.925q0 .432-.516.754-.508.321-.897.321-.398 0-.686-.254-.288-.245-.288-.643 0-.322.55-.677.119-.085.187-.144.177-.152.474-.152.194 0 .575.296.601 0 .601.5z" aria-label="?" style="font-size:17.3333px;line-height:1.2;font-family:&quot;Segoe Print QD&quot;;-inkscape-font-specification:&quot;Segoe Print QD&quot;;letter-spacing:.999999px;word-spacing:2px;baseline-shift:baseline;opacity:1;vector-effect:none;stroke-width:1.13386;stop-color:#000;stop-opacity:1" transform="matrix(.26458 0 0 .26458 105 -8.472)"/><path d="M65.376 181.994q-.186 0-.516-.144-.364-.127-.533-.127-.127 0-.372.042-.254.051-.39.051-.262 0-.761-.05-.508-.051-.838-.051-.627 0-1.65.118-1.033.127-1.685.127-.364 0-.533-.11-.17-.118-.17-.525 0-.245.144-.448.153-.212.89-.33.735-.127 1.192-.127.187 0 .534.042.465.034 1.59.008 1.126-.034 1.736-.17.05-.016.643-.007.601.008.982.296.39.28.39.677 0 .728-.653.728zm-2.97 3.96h-1.033l-2.657.043q-.136 0-.381-.355-.246-.356-.246-.533 0-.254.576-.381.575-.136 1.024-.136l2.124.051q.263 0 .618-.06.423-.075.99-.075 1.041 0 1.888.203.846.203.846.702 0 .237-.135.474-.136.229-.271.229-.22 0-.796-.102-.702-.101-1.075-.076-.372.017-1.472.017z" aria-label="=" style="font-size:17.3333px;line-height:1.2;font-family:&quot;Segoe Print QD&quot;;-inkscape-font-specification:&quot;Segoe Print QD&quot;;letter-spacing:.999999px;word-spacing:2px;baseline-shift:baseline;opacity:1;vector-effect:none;stroke-width:1.13386;stop-color:#000;stop-opacity:1" transform="matrix(.26458 0 0 .26458 105 -8.472)"/></svg>