<?xml version="1.0" encoding="UTF-8"?>
<svg width="63.295mm" height="30.581mm" version="1.1" viewBox="0 0 63.295 30.581" xmlns="http://www.w3.org/2000/svg">
<g transform="translate(-21.045 -14.878)">
<g fill="#fff" fill-rule="evenodd" stroke-width=".3">
<path d="m54.785 17.297h29.404v25.094h-29.404z" stop-color="#000000"/>
<path d="m21.195 18.287h31.641v24.604h-31.641z" stop-color="#000000"/>
<path d="m22.195 17.287h31.641v24.604h-31.641z" stop-color="#000000"/>
<path d="m54.785 16.297h28.404v25.094h-28.404z" stop-color="#000000"/>
</g>
<g fill="none" stroke="#b3b3b3" stroke-linecap="round" stroke-linejoin="round" stroke-width=".3">
<path d="m51.8 42.891h-30.606v-24.635" stop-color="#000000" style="-inkscape-stroke:none;font-variation-settings:normal"/>
<path d="m84.189 17.256v25.135h-28.122" stop-color="#000000" style="-inkscape-stroke:none;font-variation-settings:normal"/>
<path d="m51.854 41.891h-29.659v-24.635" stop-color="#000000" style="-inkscape-stroke:none;font-variation-settings:normal"/>
<path d="m83.189 16.256v25.135h-27.034" stop-color="#000000" style="-inkscape-stroke:none;font-variation-settings:normal"/>
</g>
<path d="m23.195 16.256c2.5217 0 26.516-0.93945 29.655 0.87264 2.7945-2.7945 24.433-0.73325 29.329-2.0554l0.2093 23.742c-5.8471 3.3758-22.097-0.0411-29.539 2.8514-0.76745-0.52999-22.087-1.0236-29.503-0.62327z" fill="#fff" fill-rule="evenodd" stop-color="#000000" stroke="#4d4d4d" stroke-width=".3" style="-inkscape-stroke:none;font-variation-settings:normal"/>
<g fill="none">
<path d="m56.867 21.477c7.2496-0.86322 21.461 0.19028 25.312-0.84977" stop-color="#000000" style="-inkscape-stroke:none;font-variation-settings:normal"/>
<path d="m56.873 26.476c7.2514-0.86196 21.456 0.1907 25.306-0.84907" stop-color="#000000" style="-inkscape-stroke:none;font-variation-settings:normal"/>
<path d="m56.828 32.814c8.2051-1.0705 20.61 0.93963 25.56-1.9181" stop-color="#000000" style="-inkscape-stroke:none;font-variation-settings:normal"/>
<path d="m56.883 37.807c8.2054-1.0546 20.567 0.94037 25.505-1.9111" stop-color="#000000" style="-inkscape-stroke:none;font-variation-settings:normal"/>
<path d="m27.17 38.006c9.1425-0.14416 25.02 0.28494 25.68 0.74096" stop-color="#000000" style="-inkscape-stroke:none;font-variation-settings:normal"/>
<path d="m27.195 26.701c7.6215-0.18305 23.19-0.47381 25.675 0.96136" stop-color="#000000" style="-inkscape-stroke:none;font-variation-settings:normal"/>
</g>
<path d="m52.85 17.469v24.131" fill="#fff" fill-rule="evenodd" stop-color="#000000" stroke="#4d4d4d" stroke-width=".3" style="-inkscape-stroke:none;font-variation-settings:normal"/>
<g fill="#333" stroke-width="1px">
<g stop-color="#000000" aria-label=" FÉRIÉ">
<path d="m31.481 25.567 0.01046 0.62003 0.43402-0.0073q0.15294-0.0026 0.21802 0.05628 0.06711 0.05675 0.06872 0.15182 0.0016 0.093-0.06356 0.15406-0.06309 0.05895-0.21604 0.06153l-0.92384 0.01558q-0.15294 0.0026-0.22005-0.05418-0.06508-0.05886-0.06668-0.15393-0.0016-0.093 0.06359-0.15199 0.06513-0.06105 0.216-0.0636l0.06614-0.0011-0.02795-1.6575-0.06614 0.0011q-0.15294 0.0026-0.22005-0.05418-0.06508-0.05886-0.06668-0.15393-0.0016-0.09507 0.06149-0.15402 0.06513-0.06105 0.21807-0.06363l1.9945-0.03157 0.01091 0.6469q0.0025 0.15087-0.05628 0.21802-0.05679 0.06505-0.15186 0.06665-0.093 0.0016-0.15402-0.06149-0.05895-0.06309-0.06153-0.21604l-0.0038-0.22321-1.0809 0.01823 0.01035 0.61383 0.37202-0.0063q-0.0028-0.16534 0.02741-0.2134 0.06236-0.10235 0.18017-0.10434 0.093-0.0016 0.15199 0.06359 0.06102 0.06306 0.06359 0.216l0.0082 0.48776q0.0026 0.15294-0.05624 0.22009-0.05679 0.06505-0.15186 0.06665-0.11574 2e-3 -0.18152-0.09824-0.0318-0.04701-0.03463-0.21442z"/>
<path d="m34.152 25.525 0.0066 0.62215 1.081-0.0114-0.0024-0.22943q-0.0016-0.15295 0.05559-0.21764 0.05924-0.06677 0.15432-0.06778 0.09301-9.81e-4 0.15158 0.06455 0.06062 0.06344 0.06223 0.2164l0.0069 0.65315-1.9946 0.02103q-0.15295 0.0016-0.21971-0.05556-0.06471-0.05927-0.06571-0.15434-9.8e-4 -0.09301 0.06455-0.15158 0.06551-0.06064 0.2164-0.06223l0.06614-6.97e-4 -0.01748-1.6577-0.06614 6.97e-4q-0.15295 0.0016-0.21971-0.05556-0.06471-0.05927-0.06571-0.15434-1e-3 -0.09508 0.06246-0.15363 0.06551-0.06064 0.21846-0.06225l1.9016-0.01798 0.0068 0.64489q0.0016 0.15089-0.05559 0.21764-0.0572 0.06469-0.15228 0.06569-0.09508 1e-3 -0.1557-0.06244-0.05855-0.06347-0.06016-0.21642l-0.0023-0.22116-0.988 0.01042 0.0065 0.61182 0.37205-0.0039q-0.0017-0.16536 0.02876-0.21322 0.06301-0.10196 0.18082-0.1032 0.09301-9.81e-4 0.15158 0.06455 0.06062 0.06344 0.06223 0.2164l0.0051 0.4878q0.0015 0.13848-0.03111 0.18637-0.06512 0.09784-0.17673 0.09902-0.11782 0.0012-0.18296-0.09936-0.03151-0.04721-0.03327-0.21464zm0.72953-2.1741-0.46107 0.38315q-0.06969 0.05655-0.11723 0.05705-0.05787 6.1e-4 -0.09963-0.03823-0.03969-0.03886-0.0403-0.09673-6.97e-4 -0.06614 0.08128-0.13316l0.46314-0.38318q0.06969-0.05655 0.11723-0.05705 0.05787-6.1e-4 0.09756 0.03825 0.04175 0.03884 0.04234 0.09464 7.2e-4 0.06821-0.08333 0.13524z"/>
<path d="m36.966 25.592 0.0013 0.5333 0.15296-3.81e-4q0.15296-3.81e-4 0.21719 0.0594 0.06629 0.05771 0.06653 0.1528 2.32e-4 0.09302-0.06576 0.15313-0.06393 0.05804-0.2169 0.05842l-0.64285 0.0016q-0.15296 3.81e-4 -0.21925-0.05733-0.06423-0.05978-0.06447-0.15487-2.32e-4 -0.09302 0.06577-0.15106 0.066-0.06011 0.21689-0.06048l0.06614-1.65e-4 -0.0041-1.6578-0.06615 1.64e-4q-0.15296 3.81e-4 -0.21925-0.05733-0.06423-0.05979-0.06446-0.15487-2.37e-4 -0.09508 0.0637-0.15312 0.066-0.06011 0.21896-0.06049l0.95912-3.22e-4q0.44855-0.0011 0.69508 0.22151 0.2486 0.22056 0.24939 0.53888 4.94e-4 0.19844-0.11485 0.36202-0.11535 0.16152-0.34862 0.28819 0.13465 0.11749 0.28807 0.30107 0.09538 0.11758 0.25723 0.3673 0.16123-4.02e-4 0.21299 0.03254 0.09318 0.06385 0.09346 0.1796 2.32e-4 0.09302-0.0637 0.15312-0.06394 0.05804-0.2169 0.05842l-0.24184 6.03e-4q-0.51668-0.79453-0.85608-0.95492zm-0.0011-0.42374 0.33073-8.24e-4q0.18397-4.58e-4 0.32852-0.05663 0.19412-0.0749 0.26006-0.15774 0.06801-0.08285 0.0678-0.16347-2.98e-4 -0.11989-0.12871-0.22086-0.12841-0.10303-0.37439-0.10242l-0.48576 0.0012z"/>
<path d="m40.443 24.475-0.01332 1.6577 0.42787 0.0034q0.15296 0.0012 0.21655 0.06169 0.06568 0.05841 0.06491 0.15349-7.47e-4 0.09302-0.06737 0.15243-0.06454 0.05736-0.2175 0.05613l-1.2795-0.01028q-0.15296-0.0012-0.21864-0.05964-0.06359-0.06046-0.06283-0.15554 7.47e-4 -0.09301 0.06529-0.15038 0.06663-0.05941 0.21958-0.05818l0.42787 0.0034 0.01332-1.6577-0.42787-0.0034q-0.15296-0.0012-0.21864-0.05964-0.06359-0.06046-0.06283-0.15554 7.65e-4 -0.09508 0.06531-0.15244 0.06663-0.05941 0.21958-0.05818l1.2794 0.01235q0.15296 0.0012 0.21657 0.05962 0.06568 0.05841 0.06491 0.15349-7.65e-4 0.09508-0.06739 0.15449-0.06454 0.05736-0.2175 0.05613z"/>
<path d="m42.607 25.54-0.01405 0.62202 1.0808 0.02442 0.0052-0.22938q0.0035-0.15292 0.06276-0.21568 0.06142-0.06477 0.15648-0.06263 0.09299 0.0021 0.14936 0.06954 0.05848 0.06542 0.05503 0.21834l-0.01475 0.65302-1.9942-0.04506q-0.15292-0.0035-0.21774-0.06281-0.06271-0.06138-0.06056-0.15644 0.0021-0.09299 0.06954-0.14936 0.06748-0.05843 0.21834-0.05503l0.06613 0.0015 0.03745-1.6574-0.06613-0.0015q-0.15292-0.0035-0.21774-0.06281-0.06271-0.06138-0.06056-0.15644 0.0021-0.09506 0.06752-0.15148 0.06748-0.05843 0.22041-0.05498l1.9012 0.04502-0.01457 0.64476q-0.0034 0.15086-0.06276 0.21568-0.05931 0.06275-0.15437 0.06061-0.09506-0.0021-0.15354-0.06756-0.05642-0.06537-0.05296-0.21829l5e-3 -0.22112-0.9878-0.02232-0.01382 0.61169 0.37198 0.0084q0.0037-0.16532 0.03581-0.21215 0.06635-0.09981 0.18414-0.09715 0.09299 0.0021 0.14936 0.06954 0.05848 0.06542 0.05503 0.21834l-0.01102 0.4877q-0.0031 0.13846-0.03727 0.18524-0.06832 0.09563-0.17992 0.09311-0.11779-0.0027-0.17957-0.10537-0.02992-0.04823-0.02614-0.21562zm0.80115-2.1487-0.47351 0.36767q-0.07152 0.05421-0.11905 0.05314-0.05786-0.0013-0.09831-0.04151-0.03838-0.04015-0.03707-0.09801 0.0015-0.06613 0.08565-0.13039l0.47558-0.36762q0.07152-0.05421 0.11905-0.05314 0.05786 0.0013 0.09624 0.04146 0.04044 0.0402 0.03918 0.09599-0.0015 0.06819-0.08776 0.13241z"/>
</g>
<g stop-color="#000000" aria-label=" ??:??">
<path d="m31.982 37.001q-0.0126 0.11987-0.07058 0.17558-0.0559 0.05365-0.14272 0.0535-0.09302-1.57e-4 -0.15285-0.06434-0.05777-0.06624-0.05751-0.2192l3.99e-4 -0.23771q0.50262-0.19139 0.60614-0.29457 0.10353-0.10318 0.10371-0.21067 2.54e-4 -0.1509-0.12152-0.26065-0.1197-0.10976-0.34088-0.11013-0.23358-3.93e-4 -0.4508 0.10673l-1.04e-4 0.06201q-2.54e-4 0.1509-0.06031 0.21694-0.05799 0.06398-0.15307 0.06382-0.09302-1.56e-4 -0.15286-0.06434-0.05777-0.06418-0.05751-0.21714l5.73e-4 -0.34106q0.32478-0.15242 0.5047-0.20172 0.17992-0.04931 0.37215-0.04898 0.40101 6.74e-4 0.64246 0.23259 0.24146 0.23192 0.24087 0.58125-4.17e-4 0.24805-0.14747 0.42143-0.14499 0.17339-0.56284 0.35666zm0.08751 0.8187q-1.63e-4 0.09715-0.07055 0.15904-0.06831 0.05983-0.22954 0.05956-0.16123-2.71e-4 -0.23141-0.06033-0.06811-0.06213-0.06795-0.15928 1.63e-4 -0.09715 0.06848-0.15698 0.06832-0.0619 0.23161-0.06162 0.16123 2.71e-4 0.22934 0.0624 0.07018 0.06006 0.07001 0.15721z"/>
<path d="m34.8 37.018q-0.01346 0.11977-0.07183 0.17507-0.05628 0.05325-0.1431 0.05248-0.09301-8.22e-4 -0.15239-0.06543-0.05729-0.06665-0.05594-0.21961l0.0021-0.2377q0.50398-0.18779 0.60824-0.29022 0.10426-0.10243 0.10521-0.20992 0.0013-0.15089-0.11965-0.26152-0.11892-0.11061-0.34008-0.11257-0.23357-0.0021-0.45155 0.1035l-5.48e-4 0.06201q-0.0013 0.15089-0.06186 0.2165-0.05844 0.06356-0.15352 0.06272-0.09301-8.23e-4 -0.15239-0.06543-0.05731-0.06459-0.05596-0.21754l3e-3 -0.34105q0.32587-0.15009 0.50613-0.1981 0.18026-0.04802 0.37249-0.04632 0.40099 0.0035 0.64078 0.23719 0.23979 0.23364 0.2367 0.58296-0.0022 0.24804-0.15048 0.42036-0.14622 0.17235-0.56538 0.35262zm0.08164 0.81931q-8.59e-4 0.09715-0.07169 0.15854-0.06874 0.05934-0.22996 0.05791-0.16122-0.0014-0.23097-0.06199-0.06766-0.06261-0.0668-0.15976 8.59e-4 -0.09715 0.0696-0.15649 0.06876-0.06141 0.23205-0.05996 0.16122 0.0014 0.22889 0.06404 0.06975 0.06056 0.06889 0.15771z"/>
<path d="m37.728 36.438q-0.0018 0.11988-0.08776 0.1992-0.08595 0.07933-0.23476 0.07709-0.14881-0.0022-0.23234-0.08413-0.08353-0.08188-0.08172-0.20176 0.0018-0.11988 0.08776-0.1992 0.08595-0.07933 0.23476-0.07709 0.14881 0.0022 0.23234 0.08413 0.08353 0.08188 0.08172 0.20176zm-0.01676 1.3869q-0.0018 0.11988-0.08776 0.1992-0.08595 0.07933-0.23476 0.07709-0.14881-0.0022-0.23234-0.08412-0.08353-0.08188-0.08172-0.20176 0.0018-0.11988 0.08776-0.1992 0.08595-0.07933 0.23476-0.07709 0.14881 0.0022 0.23234 0.08413 0.08353 0.08188 0.08172 0.20176z"/>
<path d="m40.431 37.105q-0.01493 0.1196-0.07397 0.17418-0.05693 0.05255-0.14373 0.05072-0.093-2e-3 -0.15158-0.06729-0.05647-0.06735-0.05324-0.22028l5e-3 -0.23766q0.50624-0.18159 0.61175-0.28274 0.10551-0.10115 0.10778-0.20861 0.0032-0.15086-0.11643-0.26296-0.11755-0.11206-0.33868-0.11673-0.23352-0.0049-0.45279 0.09795l-0.0013 0.062q-0.0032 0.15086-0.06451 0.21573-0.05922 0.06284-0.15428 0.06084-0.093-2e-3 -0.15158-0.06729-0.05651-0.06529-0.05328-0.21821l0.0072-0.34099q0.32768-0.14608 0.50852-0.19188 0.18084-0.0458 0.37303-0.04174 0.40092 0.0085 0.63782 0.24503 0.23691 0.23656 0.22953 0.58582-0.0052 0.24799-0.15563 0.41849-0.14833 0.17054-0.56966 0.34565zm0.07159 0.82025q-0.0021 0.09713-0.07362 0.15764-0.06946 0.05849-0.23066 0.05509-0.16119-0.0034-0.23019-0.06482-0.06689-0.06344-0.06484-0.16057 0.0021-0.09713 0.07151-0.15562 0.06951-0.06056 0.23277-0.05711 0.16119 0.0034 0.22808 0.06684 0.069 0.06141 0.06695 0.15854z"/>
<path d="m43.239 37.175q-0.01572 0.1195-0.07512 0.17368-0.05728 0.05217-0.14406 0.04977-0.09298-0.0026-0.15113-0.06829-0.05602-0.06772-0.05178-0.22063l0.0066-0.23762q0.50743-0.17824 0.61361-0.27869 0.10618-0.10045 0.10916-0.20789 0.0042-0.15084-0.11469-0.26373-0.11681-0.11284-0.3379-0.11897-0.23349-0.0065-0.45342 0.09495l-0.0017 0.06199q-0.0042 0.15084-0.06594 0.2153-0.05963 0.06245-0.15468 0.05981-0.09298-0.0026-0.15113-0.06829-0.05608-0.06566-0.05184-0.21856l0.0095-0.34093q0.32864-0.14391 0.50978-0.18851 0.18114-0.04461 0.3733-0.03928 0.40086 0.01112 0.63619 0.24924 0.23534 0.23812 0.22565 0.58732-0.0069 0.24795-0.15839 0.41745-0.14945 0.16956-0.57194 0.34188zm0.06616 0.8207q-0.0027 0.09711-0.07466 0.15715-0.06985 0.05803-0.23102 0.05356-0.16117-0.0045-0.22976-0.06634-0.06647-0.06388-0.06377-0.16099 0.0027-0.09711 0.07254-0.15514 0.0699-0.0601 0.23314-0.05557 0.16117 0.0045 0.22764 0.06835 0.06859 0.06187 0.0659 0.15898z"/>
</g>
<g stop-color="#000000" aria-label=" ??:??">
<path d="m61.648 25.186q-0.0085 0.12023-0.06454 0.17789-0.05404 0.05553-0.14081 0.05834-0.09297 3e-3 -0.15496-0.05908-0.05999-0.06423-0.06496-0.21711l-0.0077-0.23759q0.49579-0.20844 0.59574-0.31509 0.09994-0.10665 0.09646-0.21408-0.0049-0.15082-0.13034-0.25635-0.12338-0.1056-0.34444-0.09843-0.23345 0.0076-0.44689 0.12206l2e-3 0.06198q0.0049 0.15082-0.05287 0.21887-0.05577 0.06592-0.1508 0.06901-0.09297 3e-3 -0.15496-0.05908-0.05993-0.06217-0.06489-0.21505l-0.01107-0.34088q0.31939-0.16341 0.49752-0.21883t0.37026-0.06166q0.4008-0.01302 0.65003 0.21052 0.24923 0.22354 0.26057 0.57269 0.0081 0.24792-0.133 0.42622-0.13898 0.17824-0.55034 0.37566zm0.1154 0.81524q0.0032 0.0971-0.06508 0.16136-0.06623 0.06213-0.22738 0.06736-0.16114 0.0052-0.23333-0.0524-0.07019-0.05976-0.07334-0.15686-0.0032-0.0971 0.06308-0.15923 0.06616-0.06419 0.22938-0.06949 0.16115-0.0052 0.23134 0.05453 0.07219 0.05763 0.07534 0.15473z"/>
<path d="m64.469 25.134q-0.01112 0.12002-0.0684 0.17644-0.05523 0.05434-0.14204 0.05526-0.09301 9.93e-4 -0.15364-0.06244-0.05858-0.06552-0.06021-0.21848l-0.0025-0.2377q0.50021-0.19759 0.60246-0.30204 0.10224-0.10445 0.1011-0.21193-0.0016-0.15089-0.12473-0.25913-0.12105-0.10827-0.34221-0.10591-0.23356 0.0025-0.44944 0.11229l6.62e-4 0.06201q0.0016 0.15089-0.05763 0.21767-0.05719 0.06469-0.15227 0.06571-0.09301 9.93e-4 -0.15364-0.06244-0.05856-0.06346-0.06019-0.21641l-0.0036-0.34104q0.32288-0.15642 0.50217-0.20794 0.17929-0.05153 0.37152-0.05358 0.40099-0.0043 0.64529 0.22463 0.2443 0.22892 0.24803 0.57823 0.0026 0.24803-0.14225 0.42322-0.14283 0.17517-0.55839 0.36358zm0.09762 0.81756q1e-3 0.09715-0.06858 0.1599-0.06757 0.06067-0.22879 0.06239-0.16122 0.0017-0.23214-0.05747-0.06887-0.06128-0.06991-0.15843-1e-3 -0.09715 0.06653-0.15782 0.06755-0.06274 0.23084-0.06448 0.16122-0.0017 0.23009 0.05956 0.07092 0.05919 0.07195 0.15634z"/>
<path d="m67.395 24.509q-1.04e-4 0.11989-0.08492 0.20043-0.08482 0.08054-0.23365 0.08041-0.14883-1.29e-4 -0.23351-0.08082-0.08468-0.08069-0.08458-0.20058 1.04e-4 -0.11989 0.08492-0.20043 0.08482-0.08054 0.23365-0.08041 0.14883 1.29e-4 0.23351 0.08082 0.08468 0.08069 0.08458 0.20058zm0.0029 1.387q-1.03e-4 0.11989-0.08492 0.20043-0.08482 0.08054-0.23365 0.08041-0.14883-1.29e-4 -0.23351-0.08082-0.08468-0.08069-0.08458-0.20058 1.03e-4 -0.11989 0.08492-0.20043 0.08482-0.08054 0.23365-0.08041 0.14883 1.29e-4 0.23351 0.08082 0.08468 0.08069 0.08458 0.20058z"/>
<path d="m70.104 25.137q-0.01301 0.11982-0.07116 0.17534-0.05608 0.05346-0.1429 0.05302-0.09302-4.69e-4 -0.15264-0.06485-0.05754-0.06644-0.05677-0.2194l0.0012-0.23771q0.50326-0.1897 0.60713-0.29253 0.10387-0.10283 0.10441-0.21032 7.6e-4 -0.15089-0.12064-0.26106-0.11934-0.11015-0.34052-0.11127-0.23357-0.0012-0.45115 0.10522l-3.12e-4 0.06201q-7.6e-4 0.15089-0.06104 0.21674-0.0582 0.06379-0.15328 0.06331-0.09302-4.68e-4 -0.15264-0.06485-0.05755-0.06437-0.05678-0.21733l0.0017-0.34106q0.3253-0.15132 0.50538-0.20003 0.18008-0.0487 0.37232-0.04773 0.401 2e-3 0.64168 0.23475 0.24068 0.23272 0.23892 0.58205-0.0012 0.24804-0.14888 0.42094-0.14557 0.1729-0.56403 0.35476zm0.08476 0.81899q-4.9e-4 0.09715-0.07108 0.15881-0.06851 0.0596-0.22974 0.05879-0.16123-8.13e-4 -0.2312-0.06111-0.0679-0.06235-0.06741-0.1595 4.9e-4 -0.09715 0.069-0.15675 0.06852-0.06167 0.23182-0.06085 0.16123 8.13e-4 0.22913 0.06317 0.06998 0.0603 0.06949 0.15745z"/>
<path d="m72.904 25.149q-0.01265 0.11986-0.07064 0.17556-0.05592 0.05363-0.14274 0.05345-0.09302-1.91e-4 -0.15283-0.06439-0.05774-0.06626-0.05743-0.21923l4.87e-4 -0.23771q0.50269-0.19121 0.60625-0.29435 0.10356-0.10314 0.10378-0.21063 3.09e-4 -0.15089-0.12142-0.2607-0.11966-0.1098-0.34084-0.11025-0.23358-4.79e-4 -0.45084 0.10656l-1.27e-4 0.06201q-3.1e-4 0.15089-0.06039 0.21692-0.05801 0.06396-0.15309 0.06377-0.09302-1.91e-4 -0.15283-0.06439-0.05775-0.0642-0.05743-0.21716l6.99e-4 -0.34106q0.32484-0.1523 0.50478-0.20154 0.17994-0.04924 0.37217-0.04885 0.40101 8.22e-4 0.64238 0.23283 0.24137 0.23201 0.24066 0.58134-5.09e-4 0.24805-0.14763 0.42138-0.14505 0.17334-0.56297 0.35645zm0.08721 0.81874q-2e-4 0.09715-0.07061 0.15902-0.06834 0.0598-0.22957 0.05947-0.16123-3.31e-4 -0.23139-0.06042-0.06809-0.06215-0.06789-0.1593 1.99e-4 -0.09715 0.06853-0.15696 0.06834-0.06187 0.23164-0.06154 0.16123 3.31e-4 0.22932 0.06248 0.07016 0.06009 0.06996 0.15724z"/>
</g>
</g>
<g stroke-width="1px">
<g fill="#e62e6c" stop-color="#000000" aria-label="Ven 2 juin">
<path d="m56.606 30.273 0.8132-0.07317 0.72901 1.759 0.39472-1.8601 0.78918-0.07101-0.70699 2.5991-0.84237 0.07579z" stop-color="#000000"/>
<path d="m61.908 31.733-1.4048 0.04847q0.02476 0.16806 0.09991 0.24819 0.10567 0.11528 0.26921 0.10964 0.10329-0.0036 0.19447-0.05842 0.05568-0.03467 0.11825-0.11956l0.69253 0.03988q-0.14888 0.28091-0.36851 0.40914-0.2197 0.12651-0.63803 0.14094-0.36324 0.01253-0.57505-0.08185-0.21187-0.0961-0.35725-0.31343-0.14372-0.2191-0.15412-0.52037-0.01479-0.42866 0.24978-0.70322 0.2663-0.27462 0.75004-0.29131 0.39251-0.01354 0.62385 0.0974 0.23134 0.11094 0.35791 0.33236 0.12657 0.22142 0.13904 0.58294zm-0.72429-0.3111q-0.02767-0.20243-0.12022-0.28714-0.09083-0.08477-0.23544-0.07978-0.16699 0.0058-0.26226 0.14176-0.06085 0.08483-0.07242 0.24897z" stop-color="#000000"/>
<path d="m62.378 30.641 0.65284-0.0035 0.0016 0.298q0.14545-0.18336 0.2949-0.26167 0.14944-0.08003 0.36476-0.08117 0.2911-0.0015 0.45566 0.17157 0.16627 0.17138 0.16818 0.53311l0.0061 1.1627-0.70451 0.0037-0.0053-1.006q-9.11e-4 -0.17225-0.06502-0.24254-0.06412-0.07201-0.17952-0.0714-0.12747 6.73e-4 -0.20619 0.09755-0.07873 0.09688-0.07741 0.34665l0.0046 0.87848-0.70107 0.0037z" stop-color="#000000"/>
<path d="m68.433 32.505-2.1048-0.02578q0.03999-0.31131 0.22592-0.58294 0.18767-0.27333 0.69692-0.64091 0.31112-0.22531 0.39869-0.3431 0.08758-0.11779 0.08888-0.22458 0.0014-0.1154-0.08372-0.19741-0.08339-0.08371-0.21257-0.08529-0.13435-0.0016-0.2215 0.0817-0.08543 0.08336-0.11733 0.29659l-0.70205-0.06545q0.04497-0.29575 0.15722-0.45975 0.11228-0.16572 0.31316-0.25112 0.20262-0.0871 0.55744-0.08275 0.37032 0.0045 0.57425 0.09144 0.20566 0.08693 0.32063 0.26405 0.11672 0.17542 0.11406 0.39244-0.0028 0.2308-0.14147 0.43927-0.13692 0.20849-0.49654 0.4556-0.21365 0.14381-0.28671 0.20149-0.07134 0.0577-0.16895 0.15125l1.0955 0.01342z" stop-color="#000000"/>
<path d="m70.538 29.999 0.7028 0.0014-9.32e-4 0.48231-0.7028-0.0014zm-0.0013 0.69591 0.7028 0.0014-0.0034 1.7742q-6.55e-4 0.33934-0.05088 0.48049-0.0485 0.14116-0.18131 0.22875-0.13281 0.08759-0.37913 0.08712-0.20326-3.92e-4 -0.50459-0.06126l0.10606-0.50967q0.08437 0.01739 0.12399 0.01747 0.08957 1.73e-4 0.1362-0.06175 0.04663-0.0602 0.04698-0.24279z" stop-color="#000000"/>
<path d="m73.741 32.499-0.65448 0.01036-0.0047-0.29624q-0.14351 0.18488-0.29212 0.26476-0.14689 0.07985-0.36391 0.08328-0.28935 0.0046-0.45742-0.16504-0.16637-0.17137-0.17207-0.53133l-0.01842-1.1643 0.70443-0.01115 0.01592 1.0058q0.0027 0.17223 0.0676 0.24356 0.06487 0.07133 0.18027 0.0695 0.12573-2e-3 0.20343-0.09969 0.07942-0.09773 0.07547-0.34747l-0.01393-0.88011 0.70099-0.01109z" stop-color="#000000"/>
<path d="m74.216 29.953 0.70041-0.03045 0.02073 0.47669-0.70041 0.03045zm0.03023 0.69525 0.70041-0.03045 0.07946 1.8276-0.70041 0.03045z" stop-color="#000000"/>
<path d="m75.444 30.603 0.6503-0.05762 0.0263 0.29684q0.12973-0.1948 0.27216-0.28524 0.14228-0.09215 0.35676-0.11116 0.28997-0.02569 0.46833 0.13316 0.17992 0.15699 0.21185 0.51731l0.10262 1.1582-0.70177 0.06218-0.08879-1.002q-0.0152-0.17158-0.08492-0.23631-0.06987-0.06644-0.18483-0.05625-0.12697 0.01125-0.19738 0.11433-0.07041 0.10308-0.04837 0.35187l0.07754 0.87507-0.69834 0.06188z" stop-color="#000000"/>
</g>
<g fill="#333" stop-color="#000000" aria-label=" ??:??">
<path d="m61.664 36.509q-0.0093 0.12017-0.06571 0.17746-0.0544 0.05517-0.14119 0.05742-0.09299 0.0024-0.15457-0.0601-0.05957-0.06463-0.06353-0.21754l-0.0062-0.23763q0.49715-0.20517 0.5978-0.31116t0.09786-0.21344q-0.0039-0.15084-0.12865-0.25721-0.12263-0.10642-0.34373-0.1007-0.2335 6e-3 -0.44769 0.11911l0.0016 0.06199q0.0039 0.15084-0.05431 0.21852-0.0562 0.06556-0.15125 0.06802-0.09299 0.0024-0.15457-0.0601-0.05952-0.06256-0.06347-0.21547l-0.0088-0.34095q0.32046-0.16131 0.49895-0.21555 0.17849-0.05425 0.37066-0.05922 0.40088-0.01038 0.64863 0.2148 0.24776 0.22518 0.25679 0.57439 0.0064 0.24796-0.1358 0.42534-0.14015 0.17732-0.5528 0.37203zm0.11003 0.81598q0.0025 0.09712-0.06614 0.16093-0.06664 0.06169-0.22782 0.06586-0.16118 0.0042-0.23298-0.05393-0.06979-0.06023-0.07231-0.15734-0.0025-0.09712 0.06412-0.15881 0.06659-0.06376 0.22983-0.06798 0.16118-0.0042 0.23097 0.05606 0.07181 0.05811 0.07432 0.15522z"/>
<path d="m64.496 36.487q-0.01259 0.11987-0.07056 0.17559-0.0559 0.05365-0.14271 0.05352-0.09302-1.49e-4 -0.15286-0.06432-0.05777-0.06624-0.05753-0.2192l3.81e-4 -0.23771q0.5026-0.19143 0.60612-0.29462 0.10352-0.10319 0.10369-0.21067 2.42e-4 -0.1509-0.12154-0.26064-0.11971-0.10975-0.34089-0.1101-0.23358-3.75e-4 -0.45079 0.10676l-1e-4 0.06201q-2.42e-4 0.1509-0.06029 0.21694-0.05798 0.06399-0.15306 0.06383-0.09302-1.49e-4 -0.15286-0.06432-0.05777-0.06417-0.05753-0.21713l5.47e-4 -0.34106q0.32477-0.15244 0.50468-0.20176 0.17991-0.04932 0.37215-0.04901 0.40101 6.43e-4 0.64248 0.23254 0.24147 0.2319 0.24091 0.58123-3.97e-4 0.24805-0.14744 0.42144-0.14497 0.1734-0.56281 0.3567zm0.08757 0.8187q-1.56e-4 0.09715-0.07054 0.15905-0.06831 0.05984-0.22954 0.05958-0.16123-2.58e-4 -0.23141-0.06031-0.06811-0.06212-0.06796-0.15927 1.56e-4 -0.09715 0.06846-0.15699 0.06831-0.0619 0.23161-0.06164 0.16123 2.58e-4 0.22934 0.06238 0.07018 0.06006 0.07003 0.15721z"/>
<path d="m67.422 35.898q-0.0014 0.11988-0.08714 0.19948-0.08571 0.0796-0.23452 0.07782-0.14882-0.0018-0.2326-0.0834-0.08378-0.08162-0.08235-0.2015 0.0014-0.11988 0.08714-0.19948 0.08571-0.0796 0.23452-0.07782 0.14882 0.0018 0.2326 0.0834 0.08378 0.08162 0.08235 0.2015zm-0.01245 1.3869q-0.0014 0.11988-0.08714 0.19948-0.08571 0.0796-0.23452 0.07782-0.14882-0.0018-0.2326-0.0834-0.08378-0.08162-0.08235-0.2015 0.0014-0.11988 0.08714-0.19948 0.08571-0.0796 0.23452-0.07782 0.14882 0.0018 0.2326 0.0834 0.08378 0.08162 0.08235 0.2015z"/>
<path d="m70.115 36.544q-0.01325 0.1198-0.07152 0.1752-0.05619 0.05335-0.143 0.05274-0.09302-6.56e-4 -0.15251-0.06516-0.05741-0.06655-0.05633-0.21951l0.0017-0.2377q0.50364-0.18869 0.60772-0.29131 0.10408-0.10262 0.10484-0.2101 0.0011-0.15089-0.12012-0.2613-0.11911-0.1104-0.34028-0.11196-0.23357-0.0016-0.45136 0.1043l-4.38e-4 0.06201q-0.0011 0.15089-0.06147 0.21661-0.05833 0.06367-0.15341 0.063-0.09301-6.56e-4 -0.15251-0.06516-0.05742-0.06449-0.05634-0.21744l0.0024-0.34106q0.3256-0.15067 0.50578-0.19901 0.18018-0.04834 0.37241-0.04698 0.401 0.0028 0.6412 0.23604 0.24021 0.23321 0.23774 0.58253-0.0018 0.24804-0.14973 0.42063-0.14592 0.17261-0.56475 0.35362zm0.08311 0.81916q-6.85e-4 0.09715-0.0714 0.15866-0.06863 0.05946-0.22986 0.05832-0.16123-0.0011-0.23108-0.06158-0.06777-0.06249-0.06709-0.15964 6.85e-4 -0.09715 0.06932-0.15661 0.06865-0.06153 0.23194-0.06038 0.16123 0.0011 0.229 0.06363 0.06985 0.06044 0.06917 0.15759z"/>
<path d="m72.896 36.534q-0.01061 0.12006-0.06764 0.17673-0.055 0.05457-0.14181 0.05587-0.09301 0.0014-0.1539-0.06178-0.05886-0.06527-0.06115-0.21822l-0.0036-0.23768q0.49936-0.19974 0.60115-0.30462 0.10179-0.10489 0.10018-0.21236-0.0023-0.15088-0.12584-0.25859-0.12152-0.10775-0.34267-0.10444-0.23355 0.0035-0.44896 0.11422l9.28e-4 0.06201q0.0023 0.15088-0.05669 0.21791-0.05691 0.06494-0.15198 0.06636-0.09301 0.0014-0.1539-0.06178-0.05883-0.06321-0.06112-0.21615l-0.0051-0.34103q0.3222-0.1578 0.50127-0.2101 0.17907-0.0523 0.37128-0.05517 0.40096-6e-3 0.64625 0.22186 0.24528 0.22786 0.25052 0.57716 0.0037 0.24802-0.14043 0.42383-0.14208 0.17578-0.55682 0.36598zm0.10113 0.81713q0.0015 0.09714-0.06789 0.1602-0.06731 0.06096-0.22852 0.06337-0.16121 0.0024-0.23238-0.05647-0.06913-0.06098-0.07059-0.15812-0.0015-0.09714 0.06585-0.1581 0.06728-0.06303 0.23056-0.06547 0.16121-0.0024 0.23035 0.05857 0.07117 0.05888 0.07262 0.15603z"/>
</g>
<g fill="#e62e6c" stop-color="#000000" aria-label="Jeu 1er juin">
<path d="m57.946 18.832 0.77908-0.06785 0.11912 1.3677q0.03751 0.43073-0.02013 0.66226-0.05593 0.23138-0.27399 0.40772-0.21635 0.17619-0.57672 0.20758-0.38096 0.03318-0.59929-0.05155-0.21833-0.08473-0.35049-0.27206-0.1306-0.1892-0.1766-0.47914l0.73423-0.16596q0.01621 0.16631 0.05069 0.24457 0.03448 0.07826 0.10403 0.12235 0.04746 0.02872 0.12983 0.02154 0.13042-0.01136 0.18211-0.11269 0.05326-0.1032 0.03323-0.33315z" stop-color="#000000"/>
<path d="m61.549 20.419-1.4043 0.060757q0.02623 0.16783 0.10208 0.24731 0.10667 0.11435 0.27016 0.10728 0.10326-0.0045 0.19395-0.06012 0.05538-0.03515 0.1172-0.12059l0.69285 0.03382q-0.14641 0.2822-0.36492 0.41234-0.21858 0.12842-0.63677 0.14652-0.36312 0.01571-0.57574-0.07681-0.2127-0.09425-0.35998-0.31029-0.14563-0.21784-0.15866-0.519-0.01854-0.42851 0.24362-0.70538 0.26388-0.27694 0.74746-0.29786 0.39237-0.01698 0.62467 0.09194 0.2323 0.10892 0.3608 0.32922 0.1285 0.2203 0.14413 0.5817zm-0.72698-0.30476q-0.02944-0.20218-0.12272-0.28607-0.09157-0.08397-0.23612-0.07772-0.16693 0.0072-0.26101 0.14405-0.0601 0.08536-0.07024 0.24959z" stop-color="#000000"/>
<path d="m63.963 21.114-0.65445 0.01236-0.005592-0.29623q-0.14294 0.18532-0.29132 0.26565-0.14665 0.0803-0.36365 0.08439-0.28934 0.0055-0.45792-0.16364-0.1669-0.17086-0.17369-0.5308l-0.02198-1.1642 0.7044-0.0133 0.01899 1.0058q0.0033 0.17222 0.06834 0.24336 0.06509 0.07113 0.18048 0.06895 0.12572-0.0024 0.20313-0.10032 0.07912-0.09797 0.07441-0.3477l-0.01661-0.88006 0.70095-0.01323z" stop-color="#000000"/>
<path d="m67.621 18.535-0.0022 2.5683-0.70969-6.11e-4 0.0014-1.6829q-0.17237 0.13076-0.33436 0.21159-0.16027 0.08082-0.40321 0.15468l4.95e-4 -0.57533q0.35839-0.1151 0.55662-0.27685 0.19823-0.16175 0.3104-0.39936z" stop-color="#000000"/>
<path d="m69.837 19.22-0.91363-0.0043q0.0118 0.10978 0.05857 0.16375 0.06569 0.07757 0.17206 0.07807 0.06718 3.19e-4 0.1278-0.03298 0.03705-0.0211 0.07985-0.07464l0.44878 0.04356q-0.10386 0.17865-0.24978 0.25634-0.14592 0.07656-0.41799 0.07527-0.23624-0.0011-0.37141-0.06782-0.13516-0.06782-0.22404-0.21268-0.08776-0.14597-0.08683-0.34191 0.0013-0.27879 0.18016-0.45037 0.17996-0.17158 0.49458-0.17008 0.25528 0.0012 0.4027 0.07917 0.14743 0.07796 0.22399 0.225 0.07656 0.14704 0.07544 0.38216zm-0.4625-0.22053q-0.01281-0.13218-0.07076-0.18956-0.05683-0.05737-0.15088-0.05782-0.10861-5.15e-4 -0.17395 0.08539-0.04168 0.05355-0.05338 0.15986z" baseline-shift="super"/>
<path d="m70.188 18.515 0.42658 0.0022-1e-3 0.19482q0.06224-0.1262 0.12743-0.17288 0.06631-0.0478 0.1626-0.0473 0.10077 5.26e-4 0.22024 0.06385l-0.14277 0.32396q-0.08044-0.03401-0.12746-0.03426-0.08957-4.68e-4 -0.13922 0.07317-0.07108 0.10376-0.07257 0.38926l-0.0021 0.39859-0.45793-0.0024z" baseline-shift="super"/>
<path d="m73.004 18.602 0.7028 2.86e-4 -1.97e-4 0.48231-0.7028-2.86e-4zm-2.83e-4 0.69591 0.7028 2.86e-4 -7.21e-4 1.7742q-1.39e-4 0.33934-0.05015 0.48057-0.04829 0.14123-0.18096 0.22902-0.13267 0.08779-0.379 0.0877-0.20326-8.2e-5 -0.50468-0.06049l0.10528-0.50983q0.0844 0.01726 0.12402 0.01728 0.08957 3.6e-5 0.13611-0.06196 0.04653-0.06027 0.04661-0.24286z" stop-color="#000000"/>
<path d="m76.213 21.112-0.65454 0.0058-0.0026-0.29627q-0.1448 0.18388-0.29396 0.26272-0.14745 0.07882-0.36448 0.08074-0.28938 0.0026-0.45626-0.16822-0.16518-0.17252-0.16836-0.53252l-0.0103-1.1644 0.70449-0.0062 0.0089 1.0059q0.0015 0.17225 0.0659 0.24403 0.06437 0.07178 0.17978 0.07076 0.12574-0.0011 0.20412-0.09827 0.0801-0.09718 0.07789-0.34693l-0.0078-0.88018 0.70105-0.0062z" stop-color="#000000"/>
<path d="m76.725 18.575 0.70086-0.01746 0.01188 0.477-0.70086 0.01746zm0.01733 0.69569 0.70086-0.01746 0.04556 1.8288-0.70086 0.01746z" stop-color="#000000"/>
<path d="m77.96 19.247 0.65176-0.03762 0.01717 0.2975q0.13565-0.19072 0.2808-0.27674 0.14505-0.08774 0.36001-0.10015 0.29063-0.01677 0.46402 0.14748 0.17502 0.16244 0.19586 0.52357l0.067 1.1608-0.70335 0.0406-0.05797-1.0043q-0.0099-0.17197-0.07762-0.2388-0.0678-0.06855-0.18302-0.0619-0.12726 0.0073-0.2008 0.10821-0.07355 0.10087-0.05915 0.35022l0.05062 0.87704-0.69991 0.0404z" stop-color="#000000"/>
</g>
</g>
<path d="m27.195 21.701c7.6215-0.18305 23.19-0.47381 25.675 0.96136" fill="none" stop-color="#000000" style="-inkscape-stroke:none;font-variation-settings:normal"/>
<path d="m52.85 17.129-0.0156 27.912c0.26542-0.52572 0.9874-1.2265 1.3238-1.5085l1.0971 0.91387-0.23317-28.225c-0.7327 0.19406-1.4712 0.31532-2.1721 0.90818z" fill="#e62e6c" fill-rule="evenodd" stop-color="#000000" stroke="#8c113a" stroke-linecap="round" stroke-linejoin="round" stroke-width=".3" style="-inkscape-stroke:none;font-variation-settings:normal"/>
<path d="m27.17 33.006c9.1425-0.14416 25.02 0.28494 25.68 0.74096" fill="none" stop-color="#000000" style="-inkscape-stroke:none;font-variation-settings:normal"/>
<g fill="#e62e6c" stop-color="#000000" stroke-width="1px" aria-label="Lun 29 mai">
<path d="m27.322 19.172 0.78011-0.01766 0.04308 1.9029 1.2175-0.02757 0.01407 0.62168-1.9976 0.04523z"/>
<path d="m31.807 21.604-0.65445 0.01224-0.0055-0.29623q-0.14298 0.1853-0.29136 0.2656-0.14666 0.08027-0.36367 0.08433-0.28934 0.0054-0.45789-0.16372-0.16687-0.17089-0.1736-0.53084l-0.02178-1.1642 0.7044-0.01318 0.01881 1.0058q0.0032 0.17222 0.0683 0.24337 0.06508 0.07114 0.18047 0.06898 0.12572-0.0024 0.20314-0.10028 0.07914-0.09796 0.07447-0.34768l-0.01646-0.88007 0.70095-0.01311z"/>
<path d="m32.342 19.766 0.65278-0.0089 4e-3 0.29797q0.14392-0.18456 0.29272-0.2641 0.14877-0.08126 0.36407-0.08419 0.29108-0.0039 0.45707 0.16779 0.16769 0.16999 0.1726 0.5317l0.01578 1.1626-0.70446 0.0096-0.01365-1.0059q-0.0023-0.17224-0.06702-0.24199-0.06471-0.07147-0.18011-0.06991-0.12746 0.0017-0.20538 0.09926-0.07792 0.09753-0.07453 0.34727l0.01192 0.87842-0.70101 0.0095z"/>
<path d="m38.419 21.545-2.1049 0.0053q0.03538-0.31187 0.21728-0.58622 0.18361-0.27607 0.68737-0.65114 0.30775-0.22988 0.39358-0.34895 0.08583-0.11907 0.08556-0.22587-2.92e-4 -0.11541-0.08662-0.19615-0.08461-0.08247-0.2138-0.08214-0.13436 3.4e-4 -0.22027 0.08496-0.08419 0.08462-0.11293 0.29829l-0.70294-0.05506q0.04059-0.29638 0.15042-0.46202 0.10982-0.16736 0.30941-0.25572 0.20131-0.09008 0.55615-0.09098 0.37035-9.37e-4 0.57554 0.08295 0.20692 0.08388 0.3245 0.25928 0.1193 0.17368 0.11985 0.39072 5.84e-4 0.23082-0.13496 0.44131-0.13383 0.21049-0.48975 0.46288-0.2115 0.14695-0.2837 0.2057-0.07048 0.05874-0.1667 0.15373l1.0955-0.0028z"/>
<path d="m38.888 20.979 0.6982-0.08323q0.02659 0.1466 0.09165 0.20732 0.06506 0.06072 0.15979 0.06135 0.16881 0.0011 0.26467-0.16878 0.06973-0.12529 0.10687-0.53157-0.1266 0.12836-0.25963 0.18776t-0.307 0.05826q-0.33933-0.0022-0.572-0.24495-0.23094-0.24269-0.2285-0.61131 0.0017-0.25149 0.12189-0.4574 0.12022-0.20591 0.32934-0.30961 0.20913-0.10542 0.52435-0.10333 0.37895 0.0025 0.60718 0.13494 0.22824 0.1307 0.36243 0.41582 0.13593 0.2834 0.13285 0.74848-0.0045 0.68384-0.2943 1.0006-0.28976 0.31504-0.79962 0.31166-0.30144-2e-3 -0.47496-0.07205-0.1735-0.07177-0.28802-0.20689-0.11452-0.13512-0.17519-0.33706zm1.2993-1.118q0.0014-0.20498-0.10123-0.32107-0.10258-0.11782-0.25071-0.1188-0.13952-9.24e-4 -0.23323 0.10353-0.09199 0.10447-0.09338 0.31461-0.0014 0.21187 0.09259 0.32446 0.09572 0.1126 0.23869 0.11355 0.14814 9.8e-4 0.24704-0.10689 0.0989-0.10787 0.10024-0.3094z"/>
<path d="m43.047 19.757 0.6542 0.02195-9e-3 0.26684q0.14677-0.16226 0.29203-0.22805 0.14698-0.06573 0.35013-0.05892 0.21864 0.0073 0.34344 0.08908 0.1248 0.08175 0.20057 0.23768 0.17132-0.17349 0.30947-0.23262 0.1382-0.06086 0.3379-0.05415 0.29439 0.0099 0.45377 0.19102 0.15944 0.17942 0.14696 0.55128l-0.03853 1.1483-0.7024-0.02357 0.03495-1.0416q0.0042-0.12395-0.04202-0.18583-0.06741-0.09705-0.17242-0.10058-0.12395-0.0042-0.20271 0.08282-0.07875 0.08698-0.0854 0.28496l-0.03166 0.94342-0.7024-0.02357 0.03379-1.0071q4e-3 -0.12051-0.0083-0.16401-0.02007-0.06961-0.07377-0.11278-0.05365-0.04489-0.12767-0.04737-0.12051-4e-3 -0.20104 0.0846-0.08053 0.08864-0.08752 0.29695l-0.03131 0.93309-0.7024-0.02357z"/>
<path d="m47.36 20.527-0.66388-0.11512q0.04952-0.17278 0.12664-0.26776 0.07896-0.09658 0.21795-0.16154 0.09981-0.04685 0.27019-0.06482 0.17039-0.01797 0.36632-0.0049 0.31452 0.021 0.50289 0.06984 0.18848 0.04711 0.30821 0.16732 0.08421 0.08331 0.12624 0.22941 0.04215 0.14438 0.03354 0.27328l-0.05383 0.80608q-0.0086 0.1289 0.0019 0.20384 0.01237 0.07333 0.05979 0.19044l-0.65655-0.04384q-0.03482-0.07311-0.04445-0.11-0.0095-0.03862-0.01626-0.11848-0.14634 0.12316-0.2859 0.17081-0.19067 0.06323-0.43645 0.04682-0.32652-0.021808-0.48657-0.18442-0.15833-0.1625-0.14353-0.38421 0.01389-0.20796 0.14487-0.33388 0.13098-0.12591 0.46362-0.1693 0.39887-0.05278 0.5178-0.07591 0.11905-0.02485 0.25312-0.06769 0.0086-0.1289-0.04123-0.18402-0.04984-0.05512-0.1839-0.06407-0.17187-0.01148-0.26148 0.03778-0.0699 0.03849-0.11907 0.15433zm0.58214 0.40832q-0.14782 0.04192-0.30686 0.07101-0.21691 0.04249-0.2773 0.0937-0.06222 0.05282-0.06704 0.125-0.0055 0.0825 0.04765 0.13957 0.05499 0.05546 0.16671 0.06292 0.11687 0.0078 0.22035-0.04226 0.10519-0.04995 0.15184-0.12797 0.04848-0.07963 0.0572-0.21025z"/>
<path d="m49.406 19.392 0.69726 0.073-0.04968 0.47455-0.69726-0.073zm-0.07246 0.69212 0.69726 0.073-0.19048 1.8194-0.69726-0.073z"/>
</g>
<g fill="#e62e6c" stop-color="#000000" stroke-width="1px" aria-label="Mar 30 mai">
<path d="m27.394 30.473 1.0266-0.0086 0.40898 1.5332 0.38164-1.5397 1.0232-0.0085 0.02105 2.5252-0.63732 0.0053-0.01606-1.9257-0.4783 1.9299-0.57703 0.0048-0.50869-1.9216 0.01605 1.9257-0.63904 0.0053z" stop-color="#000000"/>
<path d="m31.475 31.741-0.66994-0.07183q0.03821-0.17563 0.10901-0.27541 0.07253-0.1015 0.20702-0.17533 0.09656-0.05323 0.26542-0.08221 0.16886-0.02898 0.36523-0.02863 0.31522 5.65e-4 0.50636 0.03708 0.19114 0.03479 0.31841 0.14699 0.08943 0.07768 0.14085 0.22074 0.05142 0.14134 0.05119 0.27053l-0.0014 0.80787q-2.31e-4 0.12919 0.01514 0.20329 0.0171 0.07238 0.07201 0.18616l-0.65801-0.0012q-0.03949-0.0707-0.05148-0.10689-0.01199-0.03792-0.02391-0.11718-0.13804 0.13239-0.27422 0.18899-0.18617 0.07546-0.43249 0.07502-0.32728-5.87e-4 -0.49754-0.15248-0.16858-0.15186-0.16818-0.37406 3.73e-4 -0.20843 0.12292-0.34257 0.12254-0.13414 0.45166-0.19901 0.3946-0.07853 0.51179-0.10933 0.11719-0.03252 0.2482-0.08396 2.32e-4 -0.12919-0.05307-0.18096-0.05331-0.05177-0.18766-0.05201-0.17225-3.09e-4 -0.25848 0.05466-0.06726 0.04294-0.10881 0.16172zm0.6074 0.36971q-0.14479 0.05142-0.30161 0.09075-0.2137 0.05646-0.27064 0.11148-0.05867 0.05674-0.0588 0.12908-1.48e-4 0.08268 0.0566 0.13618 0.05847 0.05178 0.17044 0.05198 0.11713 2.1e-4 0.21714-0.05645 0.10173-0.05666 0.14322-0.13755 0.04321-0.08261 0.04345-0.21352z" stop-color="#000000"/>
<path d="m33.343 31.154 0.65627 0.0048-0.0022 0.29972q0.09615-0.19396 0.19658-0.26558 0.10216-0.07333 0.2503-0.07226 0.15502 0.0011 0.33863 0.09892l-0.22066 0.49795q-0.12364-0.05258-0.19599-0.0531-0.1378-1e-3 -0.21441 0.11214-0.10968 0.1594-0.11287 0.59864l-0.0044 0.61321-0.7045-0.0051z" stop-color="#000000"/>
<path d="m37.242 31.23-0.66126-0.12909q0.08757-0.31563 0.32442-0.4808 0.23857-0.16514 0.66915-0.15849 0.49431 0.0076 0.71192 0.19534 0.21761 0.1877 0.2133 0.46672-0.0025 0.16362-0.09414 0.29486-0.09161 0.13124-0.274 0.22834 0.14584 0.03843 0.2226 0.08785 0.12453 0.07945 0.19146 0.20797 0.06867 0.12682 0.06596 0.3025-0.0034 0.22046-0.12194 0.42191-0.11851 0.19973-0.33723 0.3066-0.21869 0.10515-0.57177 0.0997-0.34447-0.0053-0.54301-0.08936-0.19682-0.08401-0.3236-0.24102-0.12503-0.1587-0.19028-0.39573l0.70243-0.08217q0.03806 0.21249 0.1229 0.29649 0.08659 0.08231 0.22093 0.08438 0.14123 0.0022 0.23584-0.09972 0.09633-0.10188 0.09899-0.27411 0.0027-0.17568-0.08708-0.27354-0.08807-0.09783-0.24308-0.10023-0.08267-0.0013-0.22799 0.03782l0.04392-0.50064q0.05843 0.0095 0.09115 0.01002 0.13779 0.0021 0.23043-0.0843 0.09436-0.0864 0.09623-0.20696 0.0018-0.1154-0.06605-0.18536-0.06783-0.06996-0.18839-0.07182-0.12401-0.0019-0.20268 0.07267-0.07865 0.07286-0.10911 0.26017z" stop-color="#000000"/>
<path d="m39.05 31.781q0.01497-0.71987 0.27928-1.0021 0.26603-0.28219 0.79646-0.27116 0.25488 0.0053 0.41716 0.07242 0.16232 0.0654 0.26353 0.16916 0.10125 0.10204 0.15748 0.21519 0.05798 0.11147 0.09107 0.26033 0.06473 0.2839 0.05836 0.59045-0.01429 0.68715-0.25341 1.0009-0.23912 0.31377-0.80744 0.30195-0.3186-0.0066-0.51282-0.11232-0.19421-0.10569-0.31585-0.30463-0.08837-0.14139-0.13502-0.38357-0.04489-0.24386-0.0388-0.53663zm0.69572 0.01619q-0.01003 0.48221 0.07067 0.66135 0.08246 0.17745 0.24434 0.18082 0.10678 0.0022 0.18581-0.07022 0.0808-0.07413 0.12033-0.23526 0.04125-0.1611 0.04838-0.50381 0.01046-0.50287-0.07207-0.67688-0.08077-0.17569-0.25126-0.17924-0.17394-0.0036-0.25513 0.17215-0.08115 0.17405-0.09107 0.65109z" stop-color="#000000"/>
<path d="m43.217 31.318 0.65422 0.0213-0.0087 0.26685q0.14661-0.1624 0.29181-0.22834 0.14692-0.06588 0.35007-0.05926 0.21865 0.0071 0.34352 0.08874 0.12488 0.08162 0.2008 0.23748 0.17111-0.17367 0.30919-0.23294 0.13814-0.06099 0.33785-0.05449 0.2944 0.0096 0.45396 0.19058 0.15961 0.17927 0.1475 0.55114l-0.0374 1.1483-0.70243-0.02287 0.03392-1.0416q4e-3 -0.12396-0.04221-0.18578-0.0675-0.09699-0.17252-0.10041-0.12396-4e-3 -0.20262 0.08302-0.07867 0.08706-0.08512 0.28504l-0.03072 0.94345-0.70243-0.02287 0.0328-1.0072q0.0039-0.12051-0.0084-0.164-0.02014-0.06959-0.07388-0.11271-0.05369-0.04483-0.12772-0.04725-0.12051-0.0039-0.20096 0.0848-0.08045 0.08872-0.08723 0.29704l-0.03039 0.93312-0.70243-0.02287z" stop-color="#000000"/>
<path d="m47.516 32.064-0.66626-0.10043q0.04569-0.17384 0.1207-0.2705 0.07681-0.0983 0.21433-0.16631 0.09875-0.04904 0.26869-0.07077 0.16995-0.02173 0.36612-0.01297 0.31491 0.01405 0.50431 0.05872 0.18948 0.04294 0.31183 0.16048 0.08603 0.08143 0.13128 0.22656 0.04533 0.14341 0.03957 0.27248l-0.03602 0.80707q-0.0058 0.12906 0.0064 0.20375 0.01398 0.07304 0.06398 0.18908l-0.65736-0.02934q-0.03643-0.07232-0.04686-0.109-0.01036-0.0384-0.01887-0.11809-0.14358 0.12636-0.28206 0.17708-0.18923 0.06742-0.43531 0.05644-0.32696-0.01459-0.49056-0.17363-0.16188-0.15896-0.15198-0.38095 0.0093-0.20822 0.13746-0.33699 0.12817-0.12877 0.45977-0.1795 0.3976-0.06157 0.516-0.08732 0.11848-0.02747 0.25156-0.07326 0.0058-0.12906-0.04528-0.18307-0.05104-0.05401-0.18527-0.06-0.17208-0.0077-0.26058 0.04355-0.06903 0.04002-0.11563 0.15692zm0.59102 0.39537q-0.14685 0.04517-0.30522 0.07776-0.21592 0.04726-0.27516 0.0998-0.06104 0.05418-0.06427 0.12645-0.0037 0.0826 0.05072 0.13848 0.0562 0.05423 0.16806 0.05923 0.11702 0.0052 0.21936-0.04711 0.10406-0.05226 0.14897-0.13129 0.04671-0.08068 0.05254-0.21146z" stop-color="#000000"/>
<path d="m49.467 30.867 0.6999 0.0405-0.02756 0.47635-0.6999-0.0405zm-0.0402 0.69475 0.6999 0.0405-0.10568 1.8263-0.6999-0.0405z" stop-color="#000000"/>
</g>
</g>
</svg>
