<?xml version="1.0" encoding="UTF-8"?>
<svg width="63.295mm" height="30.581mm" version="1.1" viewBox="0 0 63.295 30.581" xmlns="http://www.w3.org/2000/svg">
<g fill="#fff" fill-rule="evenodd">
<path d="m33.74 2.419h29.404v25.094h-29.404z" stop-color="#000000"/>
<path d="m0.15 3.409h31.641v24.604h-31.641z" stop-color="#000000"/>
<path d="m1.15 2.409h31.641v24.604h-31.641z" stop-color="#000000"/>
<path d="m33.74 1.419h28.404v25.094h-28.404z" stop-color="#000000"/>
</g>
<g fill="none" stroke="#b3b3b3" stroke-linecap="round" stroke-linejoin="round" stroke-width=".3">
<path d="m30.755 28.013h-30.606v-24.635" stop-color="#000000" style="-inkscape-stroke:none;font-variation-settings:normal"/>
<path d="m63.144 2.378v25.135h-28.122" stop-color="#000000" style="-inkscape-stroke:none;font-variation-settings:normal"/>
<path d="m30.809 27.013h-29.659v-24.635" stop-color="#000000" style="-inkscape-stroke:none;font-variation-settings:normal"/>
<path d="m62.144 1.378v25.135h-27.034" stop-color="#000000" style="-inkscape-stroke:none;font-variation-settings:normal"/>
</g>
<path d="m2.15 1.378c2.5217 0 26.516-0.93945 29.655 0.87264 2.7945-2.7945 24.433-0.73325 29.329-2.0554l0.2093 23.742c-5.8471 3.3758-22.097-0.0411-29.539 2.8514-0.76745-0.52999-22.087-1.0236-29.503-0.62327z" fill="#fff" fill-rule="evenodd" stop-color="#000000" stroke="#4d4d4d" stroke-width=".3" style="-inkscape-stroke:none;font-variation-settings:normal"/>
<g fill="none" stroke="#ff0" stroke-width=".3">
<path id="g" d="m35.822 6.599c7.2496-0.86322 21.461 0.19028 25.312-0.84977" stop-color="#000000" style="-inkscape-stroke:none;font-variation-settings:normal"/>
<path id="f" d="m35.828 11.598c7.2514-0.86196 21.456 0.1907 25.306-0.84907" stop-color="#000000" style="-inkscape-stroke:none;font-variation-settings:normal"/>
<path id="e" d="m35.783 17.936c8.2051-1.0705 20.61 0.93963 25.56-1.9181" stop-color="#000000" style="-inkscape-stroke:none;font-variation-settings:normal"/>
<path id="d" d="m35.838 22.929c8.2054-1.0546 20.567 0.94037 25.505-1.9111" stop-color="#000000" style="-inkscape-stroke:none;font-variation-settings:normal"/>
<path id="c" d="m6.125 23.128c9.1425-0.14416 25.02 0.28494 25.68 0.74096" stop-color="#000000" style="-inkscape-stroke:none;font-variation-settings:normal"/>
<path id="b" d="m6.15 11.823c7.6215-0.18305 23.19-0.47381 25.675 0.96136" stop-color="#000000" style="-inkscape-stroke:none;font-variation-settings:normal"/>
</g>
<path d="m31.805 2.591v24.131" fill="#fff" fill-rule="evenodd" stop-color="#000000" stroke="#4d4d4d" stroke-width=".3" style="-inkscape-stroke:none;font-variation-settings:normal"/>
<g fill="#333" stroke-width="1px">
<path d="m10.944 10.746q-0.01038 0.12008-0.06731 0.17686-0.0549 0.05468-0.1417 0.05614-0.093 0.0016-0.15402-0.06149-0.05898-0.06516-0.06156-0.2181l-4e-3 -0.23768q0.49898-0.20068 0.60057-0.30576 0.10159-0.10508 0.09978-0.21255-0.0025-0.15087-0.12633-0.25835-0.12172-0.10752-0.34286-0.10379-0.23354 0.0039-0.44874 0.11507l1e-3 0.062q0.0025 0.15087-0.05628 0.21802-0.05679 0.06505-0.15186 0.06665-0.093 0.0016-0.15402-0.06149-0.05895-0.06309-0.06153-0.21603l-0.0058-0.34101q0.3219-0.15841 0.50087-0.21105 0.17897-0.05263 0.37118-0.05588 0.40095-0.0068 0.64666 0.22064 0.24571 0.2274 0.2516 0.57668 0.0042 0.24801-0.13963 0.42409-0.14174 0.17605-0.55613 0.36703zm0.10267 0.81693q0.0016 0.09714-0.06759 0.16032-0.06719 0.06109-0.2284 0.0638-0.16121 0.0027-0.23249-0.05603-0.06925-0.06085-0.07089-0.15799-0.0016-0.09714 0.06555-0.15822 0.06716-0.06315 0.23043-0.06591 0.16121-0.0027 0.23046 0.05813 0.07128 0.05875 0.07292 0.15589z"/>
<path d="m13.759 10.708q-0.01114 0.12001-0.06842 0.17643-0.05524 0.05433-0.14205 0.05524-0.09301 9.81e-4 -0.15363-0.06246-0.05857-0.06553-0.06019-0.21848l-0.0025-0.2377q0.50024-0.19752 0.60249-0.30196 0.10226-0.10444 0.10113-0.21192-0.0016-0.15089-0.1247-0.25915-0.12104-0.10828-0.3422-0.10595-0.23356 0.0025-0.44946 0.11223l6.53e-4 0.06201q0.0016 0.15089-0.05765 0.21766-0.0572 0.06469-0.15228 0.06569-0.09301 9.81e-4 -0.15363-0.06246-0.05855-0.06346-0.06016-0.21642l-0.0036-0.34104q0.3229-0.15637 0.50219-0.20788 0.1793-0.0515 0.37152-0.05353 0.40098-0.0042 0.64526 0.22472 0.24427 0.22895 0.24795 0.57826 0.0026 0.24803-0.14231 0.4232-0.14285 0.17515-0.55843 0.3635zm0.09751 0.81757q1e-3 0.09715-0.0686 0.15989-0.06758 0.06066-0.2288 0.06236-0.16122 0.0017-0.23213-0.0575-0.06886-0.06129-0.06989-0.15843-1e-3 -0.09715 0.06655-0.15781 0.06755-0.06273 0.23084-0.06445 0.16122-0.0017 0.23008 0.05959 0.07091 0.0592 0.07193 0.15634z"/>
<path d="m16.677 10.075q2.98e-4 0.11989-0.08425 0.20071-0.08455 0.08083-0.23337 0.0812-0.14883 3.71e-4 -0.23378-0.08003-0.08495-0.0804-0.08525-0.20029-2.99e-4 -0.11989 0.08425-0.20071 0.08455-0.08083 0.23337-0.0812 0.14883-3.71e-4 0.23378 0.08003 0.08495 0.0804 0.08525 0.20029zm0.0076 1.387q2.99e-4 0.11989-0.08425 0.20071-0.08455 0.08083-0.23337 0.0812-0.14883 3.71e-4 -0.23378-0.08003-0.08495-0.0804-0.08525-0.20029-2.99e-4 -0.11989 0.08425-0.20071 0.08455-0.08083 0.23337-0.0812 0.14883-3.71e-4 0.23378 0.08003 0.08495 0.0804 0.08525 0.20029z"/>
<path d="m19.394 10.7q-0.01337 0.11978-0.07169 0.17513-0.05624 0.05329-0.14305 0.0526-0.09301-7.47e-4 -0.15244-0.0653-0.05734-0.06661-0.05611-0.21956l0.0019-0.2377q0.50382-0.18819 0.608-0.29071t0.10504-0.21q0.0012-0.15089-0.11986-0.26142-0.119-0.11051-0.34017-0.11229-0.23357-0.0019-0.45146 0.10386l-4.98e-4 0.06201q-0.0012 0.15089-0.06169 0.21655-0.05839 0.06361-0.15347 0.06285-0.09301-7.47e-4 -0.15244-0.06531-0.05736-0.06454-0.05613-0.2175l0.0027-0.34105q0.32574-0.15035 0.50597-0.19851 0.18023-0.04816 0.37245-0.04662 0.40099 0.0032 0.64097 0.23667 0.23998 0.23344 0.23717 0.58276-2e-3 0.24804-0.15014 0.42048-0.14608 0.17246-0.56509 0.35307zm0.0823 0.81924q-7.81e-4 0.09715-0.07156 0.15859-0.06869 0.05939-0.22992 0.0581-0.16122-0.0013-0.23102-0.0618-0.06771-0.06256-0.06693-0.1597 7.81e-4 -0.09715 0.06947-0.15654 0.06871-0.06146 0.232-0.06015 0.16122 0.0013 0.22894 0.06385 0.0698 0.06051 0.06902 0.15765z"/>
<path d="m22.212 10.745q-0.01511 0.11958-0.07423 0.17407-0.05701 0.05247-0.1438 0.05051-0.09299-0.0021-0.15148-0.06752-0.05637-0.06744-0.05291-0.22036l0.0054-0.23765q0.5065-0.18084 0.61216-0.28183 0.10566-0.10099 0.10809-0.20845 0.0034-0.15086-0.11604-0.26314-0.11742-0.11223-0.33854-0.11723-0.23352-0.0053-0.45293 0.09728l-0.0014 0.06199q-0.0034 0.15086-0.06483 0.21563-0.05931 0.06275-0.15437 0.06061-0.09299-0.0021-0.15148-0.06752-0.05641-0.06537-0.05296-0.21829l0.0077-0.34098q0.3279-0.14559 0.5088-0.19113 0.18091-0.04554 0.37309-0.04119 0.4009 0.0091 0.63746 0.24597 0.23655 0.23691 0.22866 0.58615-0.0056 0.24798-0.15625 0.41825-0.14858 0.17032-0.57017 0.34481zm0.07037 0.82035q-0.0022 0.09713-0.07386 0.15753-0.06955 0.05839-0.23074 0.05475-0.16119-0.0036-0.2301-0.06516-0.06679-0.06354-0.0646-0.16066 0.0022-0.09713 0.07174-0.15551 0.0696-0.06046 0.23285-0.05677 0.16119 0.0036 0.22798 0.06718 0.06891 0.06152 0.06671 0.15864z"/>
<path d="m10.937 22.123q-0.0126 0.11987-0.07057 0.17558-0.0559 0.05365-0.14272 0.0535-0.09302-1.56e-4 -0.15285-0.06433-0.05777-0.06624-0.05751-0.2192l3.99e-4 -0.23771q0.50261-0.19139 0.60614-0.29457 0.10353-0.10318 0.10371-0.21066 2.5e-4 -0.1509-0.12152-0.26065-0.1197-0.10976-0.34088-0.11013-0.23358-3.93e-4 -0.4508 0.10673l-1.04e-4 0.06201q-2.54e-4 0.15089-0.06031 0.21694-0.05798 0.06398-0.15307 0.06382-0.09302-1.57e-4 -0.15285-0.06434-0.05777-0.06417-0.05751-0.21714l5.73e-4 -0.34106q0.32478-0.15242 0.5047-0.20172 0.17992-0.04931 0.37215-0.04898 0.40101 6.74e-4 0.64246 0.23259t0.24087 0.58124q-4.17e-4 0.24804-0.14747 0.42143-0.14498 0.17339-0.56284 0.35665zm0.08751 0.8187q-1.64e-4 0.09715-0.07055 0.15904-0.06831 0.05983-0.22954 0.05956-0.16123-2.71e-4 -0.23141-0.06033-0.06811-0.06213-0.06794-0.15928 1.63e-4 -0.09715 0.06848-0.15698 0.06832-0.0619 0.23161-0.06162 0.16123 2.71e-4 0.22934 0.0624 0.07018 0.06006 0.07002 0.15721z"/>
<path d="m13.756 22.14q-0.01346 0.11978-0.07183 0.17507-0.05628 0.05325-0.1431 0.05248-0.09301-8.22e-4 -0.15239-0.06543-0.05729-0.06665-0.05594-0.21961l0.0021-0.2377q0.50397-0.18779 0.60823-0.29022 0.10426-0.10243 0.10521-0.20992 0.0013-0.15089-0.11965-0.26152-0.11892-0.11061-0.34008-0.11256-0.23357-0.0021-0.45155 0.1035l-5.49e-4 0.06201q-0.0013 0.15089-0.06186 0.2165-0.05844 0.06356-0.15352 0.06272-0.09301-8.22e-4 -0.15239-0.06543-0.05731-0.06459-0.05596-0.21754l3e-3 -0.34105q0.32587-0.15009 0.50613-0.1981 0.18026-0.04802 0.37249-0.04632 0.40099 0.0035 0.64078 0.23718 0.23979 0.23364 0.2367 0.58296-0.0022 0.24804-0.15048 0.42036-0.14622 0.17234-0.56538 0.35261zm0.08164 0.8193q-8.59e-4 0.09715-0.07168 0.15853-0.06874 0.05934-0.22996 0.05791-0.16122-0.0014-0.23097-0.06199-0.06766-0.06261-0.0668-0.15976 8.59e-4 -0.09715 0.0696-0.15649 0.06876-0.06141 0.23205-0.05996 0.16122 0.0014 0.22888 0.06404 0.06975 0.06056 0.06889 0.15771z"/>
<path d="m16.683 21.56q-0.0018 0.11988-0.08776 0.1992-0.08595 0.07933-0.23476 0.07709-0.14881-0.0022-0.23234-0.08412-0.08353-0.08188-0.08172-0.20176 0.0018-0.11988 0.08776-0.1992 0.08595-0.07933 0.23476-0.07709 0.14881 0.0022 0.23234 0.08412 0.08353 0.08188 0.08172 0.20176zm-0.01676 1.3869q-0.0018 0.11988-0.08776 0.1992-0.08595 0.07933-0.23476 0.07709-0.14881-0.0022-0.23234-0.08412-0.08353-0.08188-0.08172-0.20176 0.0018-0.11988 0.08776-0.1992 0.08595-0.07933 0.23476-0.07709 0.14881 0.0022 0.23234 0.08412 0.08353 0.08188 0.08172 0.20176z"/>
<path d="m19.386 22.227q-0.01493 0.1196-0.07397 0.17418-0.05693 0.05255-0.14373 0.05072-0.093-2e-3 -0.15157-0.06729-0.05647-0.06735-0.05324-0.22028l5e-3 -0.23766q0.50624-0.18159 0.61175-0.28274 0.10551-0.10115 0.10778-0.20861 0.0032-0.15086-0.11643-0.26296-0.11755-0.11206-0.33867-0.11673-0.23352-0.0049-0.45278 0.09795l-0.0013 0.062q-0.0032 0.15086-0.06451 0.21573-0.05922 0.06284-0.15428 0.06084-0.093-2e-3 -0.15158-0.06729-0.05651-0.06529-0.05328-0.21821l0.0072-0.34099q0.32768-0.14608 0.50852-0.19188 0.18084-0.0458 0.37303-0.04175 0.40092 0.0085 0.63782 0.24502 0.2369 0.23656 0.22953 0.58581-0.0052 0.24799-0.15563 0.41848-0.14832 0.17054-0.56966 0.34565zm0.07159 0.82024q-0.0021 0.09713-0.07362 0.15764-0.06946 0.05849-0.23066 0.05509-0.16119-0.0034-0.23019-0.06482-0.06689-0.06344-0.06484-0.16057 2e-3 -0.09713 0.07151-0.15562 0.06951-0.06056 0.23277-0.05711 0.16119 0.0034 0.22808 0.06684 0.069 0.06141 0.06695 0.15854z"/>
<path d="m22.195 22.297q-0.01572 0.1195-0.07512 0.17368-0.05728 0.05218-0.14406 0.04977-0.09298-0.0026-0.15113-0.06829-0.05602-0.06772-0.05178-0.22063l0.0066-0.23762q0.50743-0.17824 0.6136-0.27869t0.10916-0.20789q0.0042-0.15084-0.11469-0.26373-0.11681-0.11283-0.33789-0.11896-0.23349-0.0065-0.45342 0.09495l-0.0017 0.06199q-0.0042 0.15084-0.06594 0.2153-0.05963 0.06245-0.15468 0.05981-0.09298-0.0026-0.15113-0.06829-0.05608-0.06566-0.05184-0.21856l0.0095-0.34093q0.32864-0.14391 0.50978-0.18851 0.18114-0.0446 0.3733-0.03928 0.40085 0.01112 0.63618 0.24924 0.23533 0.23812 0.22565 0.58732-0.0069 0.24795-0.15839 0.41745-0.14945 0.16955-0.57193 0.34188zm0.06616 0.8207q-0.0027 0.09711-0.07466 0.15715-0.06985 0.05803-0.23102 0.05356-0.16117-0.0045-0.22976-0.06634-0.06647-0.06388-0.06377-0.16099 0.0027-0.09711 0.07254-0.15514 0.0699-0.0601 0.23314-0.05557 0.16117 0.0045 0.22763 0.06835 0.06859 0.06187 0.0659 0.15898z"/>
<path d="m40.604 10.308q-0.0085 0.12023-0.06454 0.17789-0.05404 0.05553-0.14081 0.05834-0.09297 3e-3 -0.15496-0.05908-0.05999-0.06423-0.06496-0.21711l-0.0077-0.23758q0.49579-0.20844 0.59573-0.31509 0.09994-0.10665 0.09646-0.21408-0.0049-0.15081-0.13034-0.25635-0.12338-0.1056-0.34444-0.09843-0.23345 0.0076-0.44689 0.12205l2e-3 0.06198q0.0049 0.15081-0.05287 0.21887-0.05577 0.06592-0.1508 0.06901-0.09297 3e-3 -0.15496-0.05908-0.05993-0.06217-0.06489-0.21505l-0.01107-0.34088q0.31939-0.16341 0.49752-0.21883 0.17813-0.05542 0.37026-0.06166 0.4008-0.01302 0.65002 0.21052 0.24923 0.22354 0.26057 0.57268 8e-3 0.24791-0.133 0.42622-0.13898 0.17824-0.55033 0.37566zm0.1154 0.81523q0.0032 0.0971-0.06508 0.16136-0.06623 0.06213-0.22738 0.06736-0.16114 0.0052-0.23333-0.0524-0.07019-0.05976-0.07334-0.15686-0.0032-0.0971 0.06308-0.15923 0.06616-0.06419 0.22937-0.06949 0.16114-0.0052 0.23133 0.05453 0.07219 0.05763 0.07534 0.15473z"/>
<path d="m43.425 10.256q-0.01112 0.12001-0.0684 0.17644-0.05523 0.05434-0.14204 0.05526-0.09301 9.93e-4 -0.15364-0.06244-0.05858-0.06552-0.06021-0.21848l-0.0025-0.2377q0.50021-0.19759 0.60245-0.30204 0.10224-0.10445 0.1011-0.21193-0.0016-0.15089-0.12473-0.25913-0.12105-0.10827-0.34221-0.1059-0.23356 0.0025-0.44944 0.11229l6.62e-4 0.06201q0.0016 0.15088-0.05762 0.21767-0.05719 0.06469-0.15227 0.06571-0.09301 9.93e-4 -0.15364-0.06244-0.05856-0.06346-0.06019-0.21641l-0.0036-0.34104q0.32287-0.15642 0.50217-0.20794 0.17929-0.05153 0.37152-0.05358 0.40098-0.0043 0.64528 0.22463 0.2443 0.22891 0.24803 0.57822 0.0026 0.24803-0.14225 0.42322-0.14283 0.17517-0.55839 0.36358zm0.09762 0.81755q1e-3 0.09715-0.06858 0.1599-0.06757 0.06067-0.22879 0.06239-0.16122 0.0017-0.23214-0.05747-0.06887-0.06128-0.06991-0.15842-1e-3 -0.09715 0.06653-0.15782 0.06755-0.06274 0.23083-0.06448 0.16122-0.0017 0.23009 0.05956 0.07091 0.05919 0.07195 0.15634z"/>
<path d="m46.351 9.6313q-1.04e-4 0.11989-0.08492 0.20043-0.08482 0.08054-0.23365 0.08041-0.14883-1.29e-4 -0.23351-0.08082-0.08468-0.08069-0.08458-0.20058 1.04e-4 -0.11989 0.08492-0.20043 0.08482-0.08054 0.23365-0.08041 0.14883 1.28e-4 0.2335 0.08082 0.08468 0.08069 0.08458 0.20058zm0.0029 1.387q-1.04e-4 0.11989-0.08492 0.20043-0.08482 0.08054-0.23364 0.08041-0.14883-1.28e-4 -0.23351-0.08082-0.08468-0.08069-0.08458-0.20058 1.03e-4 -0.11989 0.08492-0.20043 0.08482-0.08054 0.23364-0.08041 0.14883 1.29e-4 0.23351 0.08082 0.08468 0.08069 0.08458 0.20058z"/>
<path d="m49.059 10.259q-0.01301 0.11982-0.07116 0.17534-0.05608 0.05346-0.1429 0.05302-0.09302-4.68e-4 -0.15264-0.06485-0.05754-0.06644-0.05677-0.2194l0.0012-0.23771q0.50325-0.1897 0.60712-0.29253 0.10387-0.10283 0.10441-0.21032 7.6e-4 -0.15089-0.12064-0.26106-0.11934-0.11015-0.34051-0.11127-0.23357-0.0012-0.45115 0.10522l-3.13e-4 0.06201q-7.6e-4 0.15089-0.06104 0.21674-0.0582 0.06379-0.15328 0.06331-0.09302-4.68e-4 -0.15264-0.06485-0.05755-0.06437-0.05678-0.21733l0.0017-0.34106q0.32529-0.15132 0.50537-0.20003 0.18008-0.0487 0.37231-0.04773 0.401 2e-3 0.64168 0.23474 0.24067 0.23272 0.23891 0.58205-0.0012 0.24804-0.14888 0.42093-0.14556 0.1729-0.56403 0.35476zm0.08476 0.81899q-4.89e-4 0.09715-0.07108 0.15881-0.06851 0.0596-0.22974 0.05879-0.16123-8.13e-4 -0.2312-0.06111-0.0679-0.06235-0.06741-0.1595 4.89e-4 -0.09715 0.069-0.15675 0.06852-0.06167 0.23182-0.06084 0.16123 8.13e-4 0.22913 0.06317 0.06998 0.0603 0.06949 0.15745z"/>
<path d="m51.859 10.271q-0.01265 0.11986-0.07064 0.17555-0.05592 0.05363-0.14274 0.05345-0.09302-1.91e-4 -0.15283-0.06439-0.05774-0.06626-0.05743-0.21922l4.87e-4 -0.23771q0.50268-0.1912 0.60625-0.29434t0.10378-0.21063q3.1e-4 -0.15089-0.12142-0.2607-0.11966-0.1098-0.34083-0.11025-0.23358-4.79e-4 -0.45084 0.10656l-1.27e-4 0.06201q-3.09e-4 0.15089-0.06039 0.21692-0.05801 0.06396-0.15309 0.06377-0.09302-1.91e-4 -0.15283-0.06439-0.05774-0.0642-0.05743-0.21716l7e-4 -0.34106q0.32484-0.1523 0.50477-0.20154t0.37217-0.04885q0.40101 8.22e-4 0.64237 0.23283 0.24137 0.232 0.24065 0.58133-5.09e-4 0.24804-0.14762 0.42138-0.14505 0.17333-0.56297 0.35644zm0.0872 0.81873q-1.99e-4 0.09715-0.07061 0.15902-0.06834 0.0598-0.22956 0.05947-0.16123-3.31e-4 -0.23139-0.06042-0.06808-0.06215-0.06789-0.1593 1.99e-4 -0.09715 0.06853-0.15696 0.06834-0.06187 0.23164-0.06154 0.16123 3.3e-4 0.22931 0.06248 0.07016 0.06009 0.06996 0.15724z"/>
</g>
<g fill="#e62e6c" stroke-width="1px">
<path d="m35.561 15.396 0.81321-0.07317 0.72901 1.759 0.39472-1.8602 0.78919-0.07101-0.707 2.5991-0.84237 0.07579z" stop-color="#000000"/>
<path d="m40.862 16.855-1.4048 0.04847q0.02476 0.16806 0.09991 0.2482 0.10567 0.11528 0.26922 0.10964 0.10329-0.0036 0.19447-0.05842 0.05568-0.03467 0.11825-0.11956l0.69253 0.03988q-0.14888 0.28091-0.36852 0.40914-0.2197 0.12651-0.63803 0.14094-0.36324 0.01253-0.57505-0.08185-0.21187-0.0961-0.35726-0.31343-0.14372-0.21911-0.15412-0.52038-0.01479-0.42866 0.24978-0.70322 0.2663-0.27462 0.75005-0.29131 0.39251-0.01354 0.62385 0.0974 0.23134 0.11094 0.35791 0.33237 0.12657 0.22142 0.13904 0.58294zm-0.7243-0.31111q-0.02767-0.20243-0.12022-0.28714-0.09083-0.08477-0.23544-0.07978-0.16699 0.0058-0.26226 0.14176-0.06085 0.08483-0.07242 0.24897z" stop-color="#000000"/>
<path d="m41.333 15.763 0.65284-0.0035 0.0016 0.298q0.14545-0.18336 0.2949-0.26167 0.14944-0.08003 0.36476-0.08117 0.29111-0.0015 0.45567 0.17157 0.16627 0.17138 0.16819 0.53311l0.0061 1.1627-0.70452 0.0037-0.0053-1.006q-9.11e-4 -0.17225-0.06502-0.24254-0.06412-0.07201-0.17953-0.0714-0.12747 6.74e-4 -0.20619 0.09755-0.07873 0.09688-0.07741 0.34665l0.0046 0.87849-0.70107 0.0037z" stop-color="#000000"/>
<path d="m46.956 15.053-0.03145 2.5681-0.70964-0.0087 0.02061-1.6828q-0.17385 0.1288-0.33675 0.20777-0.16118 0.07899-0.40495 0.15008l7e-3 -0.57529q0.35968-0.11102 0.55974-0.2705 0.20006-0.15948 0.31493-0.39581z" stop-color="#000000"/>
<path d="m49.868 15.693-0.69823 0.08117q-0.02652-0.14661-0.09155-0.20736-0.0633-0.06074-0.15804-0.06141-0.17053-0.0012-0.26649 0.17037-0.06978 0.12353-0.1054 0.52981 0.12665-0.12657 0.25971-0.18592 0.13307-0.06107 0.30705-0.05983 0.33761 0.0024 0.56844 0.2452 0.23255 0.24282 0.22992 0.61316-0.0018 0.24976-0.1221 0.45562-0.1186 0.20587-0.3295 0.31117-0.20917 0.10359-0.52439 0.10136-0.37895-0.0027-0.60713-0.13351-0.22818-0.13082-0.36397-0.41429-0.13406-0.28518-0.13074-0.75198 0.0049-0.68384 0.29477-0.99874 0.28992-0.31662 0.79979-0.313 0.30144 0.0021 0.47491 0.074 0.17521 0.07015 0.28966 0.20532 0.11445 0.13518 0.1733 0.33886zm-1.2999 1.1156q-0.0015 0.20498 0.10106 0.32284 0.10253 0.11614 0.25239 0.11721 0.1378 9.79e-4 0.23156-0.10343 0.09376-0.10441 0.09524-0.31284 0.0015-0.21359-0.09415-0.32624-0.09567-0.11265-0.23864-0.11366-0.14641-1e-3 -0.24709 0.10677-0.09895 0.10782-0.10038 0.30936z" stop-color="#000000"/>
<path d="m51.916 15.109 0.70262-0.01597 0.01096 0.48219-0.70262 0.01597zm0.01581 0.69573 0.70262-0.01597 0.04032 1.7738q0.0077 0.33926-0.03902 0.4816-0.04501 0.14231-0.17562 0.23315-0.13061 0.09084-0.37687 0.09644-0.20321 0.0046-0.50595-0.04881l0.09346-0.51213q0.08478 0.0153 0.12438 0.0144 0.08955-2e-3 0.13464-0.06509 0.04513-0.06133 0.04098-0.24388z" stop-color="#000000"/>
<path d="m55.179 17.5-0.65355 0.03658-0.01656-0.29582q-0.13598 0.19049-0.28128 0.27626-0.14358 0.08567-0.36028 0.0978-0.28894 0.01617-0.46367-0.14657-0.17311-0.16456-0.19323-0.52401l-0.06508-1.1626 0.70342-0.03937 0.05622 1.0044q0.0096 0.17199 0.07731 0.24066 0.06768 0.06867 0.18291 0.06222 0.12555-7e-3 0.19927-0.10777 0.07544-0.10084 0.06148-0.35022l-0.04919-0.87885 0.69999-0.03918z" stop-color="#000000"/>
<path d="m55.496 14.932 0.6972-0.07365 0.05012 0.47451-0.6972 0.07364zm0.0731 0.69206 0.6972-0.07364 0.19216 1.8192-0.6972 0.07364z" stop-color="#000000"/>
<path d="m56.695 15.522 0.64142-0.12161 0.05551 0.29279q0.10984-0.20667 0.24264-0.31074 0.13248-0.10577 0.34403-0.14588 0.28602-0.05423 0.4792 0.08622 0.19456 0.13844 0.26194 0.49384l0.2166 1.1424-0.6922 0.13124-0.18739-0.98836q-0.03209-0.16924-0.10786-0.22676-0.0761-0.05921-0.18949-0.03771-0.12524 0.02375-0.18512 0.13328-0.05988 0.10954-0.01335 0.35494l0.16365 0.86313-0.68881 0.1306z" stop-color="#000000"/>
</g>
<g fill="#333" stroke-width="1px">
<path d="m40.619 21.631q-0.0093 0.12017-0.06571 0.17746-0.0544 0.05517-0.14119 0.05742-0.09299 0.0024-0.15457-0.0601-0.05957-0.06463-0.06353-0.21754l-0.0062-0.23763q0.49715-0.20517 0.59779-0.31116 0.10064-0.10599 0.09786-0.21344-0.0039-0.15084-0.12865-0.2572-0.12268-0.10641-0.34378-0.10069-0.2335 6e-3 -0.44768 0.11911l0.0016 0.06199q0.0039 0.15084-0.05431 0.21852-0.0562 0.06556-0.15125 0.06802-0.09299 0.0024-0.15457-0.0601-0.05952-0.06256-0.06347-0.21547l-0.0088-0.34095q0.32046-0.16131 0.49895-0.21555 0.17849-0.05425 0.37066-0.05922 0.40087-0.01038 0.64862 0.2148 0.24775 0.22517 0.25679 0.57439 0.0064 0.24796-0.1358 0.42533-0.14015 0.17732-0.55279 0.37203zm0.11003 0.81598q0.0025 0.09712-0.06614 0.16093-0.06664 0.06169-0.22781 0.06586-0.16118 0.0042-0.23298-0.05393-0.06979-0.06023-0.07231-0.15734-0.0025-0.09712 0.06412-0.15881 0.06659-0.06376 0.22983-0.06798 0.16118-0.0042 0.23097 0.05605 0.07181 0.05811 0.07432 0.15522z"/>
<path d="m43.451 21.609q-0.01259 0.11987-0.07056 0.17559-0.0559 0.05365-0.14271 0.05351-0.09302-1.49e-4 -0.15286-0.06432-0.05777-0.06624-0.05753-0.2192l3.81e-4 -0.23771q0.5026-0.19143 0.60612-0.29462 0.10352-0.10319 0.10369-0.21067 2.42e-4 -0.15089-0.12154-0.26064-0.11971-0.10974-0.34089-0.1101-0.23358-3.74e-4 -0.45079 0.10676l-9.9e-5 0.06201q-2.42e-4 0.15089-0.06029 0.21694-0.05798 0.06399-0.15306 0.06383-0.09302-1.49e-4 -0.15286-0.06432-0.05777-0.06417-0.05753-0.21713l5.46e-4 -0.34106q0.32477-0.15244 0.50468-0.20176 0.17991-0.04932 0.37215-0.04901 0.40101 6.42e-4 0.64248 0.23254 0.24147 0.2319 0.24091 0.58122-3.97e-4 0.24804-0.14744 0.42144-0.14497 0.1734-0.56281 0.3567zm0.08757 0.81869q-1.55e-4 0.09715-0.07053 0.15905-0.06831 0.05983-0.22954 0.05958-0.16123-2.58e-4 -0.23141-0.06032-0.06811-0.06212-0.06796-0.15927 1.56e-4 -0.09715 0.06846-0.15699 0.06831-0.0619 0.23161-0.06164 0.16123 2.58e-4 0.22934 0.06238 0.07018 0.06006 0.07003 0.15721z"/>
<path d="m46.378 21.021q-0.0014 0.11988-0.08714 0.19948-0.08571 0.0796-0.23452 0.07782-0.14882-0.0018-0.2326-0.0834-0.08378-0.08162-0.08235-0.2015 0.0014-0.11988 0.08714-0.19948 0.08571-0.0796 0.23452-0.07782 0.14882 0.0018 0.2326 0.0834 0.08378 0.08162 0.08234 0.2015zm-0.01245 1.3869q-0.0014 0.11988-0.08714 0.19948-0.08571 0.07959-0.23452 0.07782-0.14882-0.0018-0.2326-0.0834-0.08378-0.08162-0.08235-0.2015 0.0014-0.11988 0.08714-0.19948 0.08571-0.0796 0.23452-0.07782 0.14882 0.0018 0.2326 0.0834 0.08378 0.08162 0.08235 0.2015z"/>
<path d="m49.071 21.666q-0.01325 0.1198-0.07152 0.1752-0.05619 0.05335-0.143 0.05274-0.09302-6.56e-4 -0.1525-0.06516-0.05741-0.06655-0.05633-0.21951l0.0017-0.2377q0.50362-0.18869 0.60769-0.29131 0.10408-0.10262 0.10484-0.2101 0.0011-0.15089-0.12011-0.2613-0.11911-0.1104-0.34028-0.11196-0.23357-0.0016-0.45136 0.1043l-4.37e-4 0.06201q-0.0011 0.15089-0.06147 0.21661-0.05833 0.06367-0.15341 0.063-0.09301-6.57e-4 -0.1525-0.06516-0.05742-0.06448-0.05634-0.21744l0.0024-0.34105q0.3256-0.15067 0.50578-0.19901 0.18018-0.04834 0.37241-0.04698 0.401 0.0028 0.6412 0.23604 0.2402 0.23321 0.23774 0.58253-0.0018 0.24804-0.14973 0.42063-0.14591 0.17261-0.56474 0.35362zm0.08311 0.81916q-6.86e-4 0.09715-0.0714 0.15866-0.06863 0.05946-0.22986 0.05832-0.16122-0.0011-0.23108-0.06158-0.06777-0.06249-0.06709-0.15964 6.85e-4 -0.09715 0.06932-0.15661 0.06865-0.06153 0.23194-0.06038 0.16122 0.0011 0.229 0.06363 0.06985 0.06044 0.06917 0.15759z"/>
<path d="m51.851 21.657q-0.01061 0.12006-0.06764 0.17673-0.055 0.05457-0.1418 0.05587-0.09301 0.0014-0.1539-0.06178-0.05886-0.06527-0.06115-0.21822l-0.0036-0.23768q0.49936-0.19973 0.60115-0.30462 0.10179-0.10489 0.10018-0.21236-0.0023-0.15088-0.12584-0.25859-0.12152-0.10775-0.34266-0.10444-0.23355 0.0035-0.44896 0.11422l9.28e-4 0.062q0.0023 0.15088-0.05669 0.21791-0.05691 0.06494-0.15198 0.06636-0.09301 0.0014-0.1539-0.06178-0.05883-0.06321-0.06112-0.21615l-0.0051-0.34102q0.3222-0.1578 0.50127-0.2101 0.17907-0.0523 0.37128-0.05517 0.40096-6e-3 0.64624 0.22186 0.24528 0.22786 0.25051 0.57715 0.0037 0.24802-0.14043 0.42383-0.14208 0.17578-0.55682 0.36598zm0.10113 0.81713q0.0015 0.09714-0.06789 0.1602-0.06731 0.06096-0.22852 0.06337-0.16121 0.0024-0.23238-0.05647-0.06913-0.06098-0.07059-0.15812-0.0015-0.09714 0.06585-0.1581 0.06728-0.06302 0.23055-0.06547 0.16121-0.0024 0.23034 0.05857 0.07117 0.05888 0.07262 0.15602z"/>
</g>
<g fill="#e62e6c" stroke-width="1px">
<path d="m36.902 3.9536 0.77909-0.06785 0.11912 1.3677q0.03751 0.43073-0.02013 0.66226-0.05593 0.23138-0.274 0.40772-0.21635 0.17619-0.57672 0.20758-0.38097 0.03318-0.59929-0.05155t-0.35049-0.27206q-0.1306-0.1892-0.1766-0.47914l0.73424-0.16596q0.01621 0.16631 0.05069 0.24457 0.03448 0.07826 0.10403 0.12235 0.04746 0.02872 0.12983 0.02154 0.13042-0.01136 0.18211-0.11269 0.05326-0.1032 0.03323-0.33315z" stop-color="#000000"/>
<path d="m40.504 5.5414-1.4043 0.06076q0.02623 0.16783 0.10208 0.24731 0.10667 0.11435 0.27016 0.10728 0.10326-0.0045 0.19396-0.06012 0.05538-0.03515 0.1172-0.12059l0.69286 0.03382q-0.14642 0.2822-0.36493 0.41235-0.21859 0.12842-0.63678 0.14652-0.36312 0.01571-0.57575-0.07682-0.2127-0.094247-0.35998-0.31029-0.14564-0.21784-0.15866-0.51901-0.01854-0.42852 0.24362-0.70538 0.26389-0.27694 0.74747-0.29786 0.39238-0.01698 0.62468 0.09194 0.2323 0.10892 0.3608 0.32922 0.1285 0.22031 0.14414 0.58171zm-0.72699-0.30476q-0.02944-0.20218-0.12272-0.28608-0.09157-0.08397-0.23612-0.07772-0.16693 0.0072-0.26101 0.14405-0.0601 0.08536-0.07024 0.2496z" stop-color="#000000"/>
<path d="m42.918 6.236-0.65446 0.01235-0.0056-0.29623q-0.14294 0.18532-0.29132 0.26565-0.14665 0.0803-0.36365 0.08439-0.28934 0.0055-0.45793-0.16364-0.16689-0.17085-0.17368-0.5308l-0.02198-1.1642 0.7044-0.0133 0.01899 1.0058q0.0033 0.17222 0.06834 0.24336 0.06509 0.07113 0.18048 0.06895 0.12572-0.0024 0.20313-0.10032 0.07913-0.09797 0.07441-0.3477l-0.01661-0.88007 0.70096-0.01323z" stop-color="#000000"/>
<path d="m46.576 3.6572-0.0022 2.5683-0.70969-6.1e-4 0.0014-1.6829q-0.17237 0.13077-0.33436 0.21159-0.16027 0.08082-0.40321 0.15468l4.94e-4 -0.57533q0.35839-0.1151 0.55662-0.27685 0.19823-0.16175 0.3104-0.39937z" stop-color="#000000"/>
<path d="m47.769 3.7049 1.6657 0.0082-0.0028 0.55982-1.1283-0.0056-0.06216 0.37866q0.1174-0.05454 0.23123-0.08154 0.11555-0.02699 0.22751-0.02644 0.37896 0.0019 0.61382 0.23213 0.23486 0.23026 0.23314 0.57821-0.0012 0.2446-0.12462 0.46965-0.12169 0.22506-0.34621 0.34281-0.22279 0.11776-0.57075 0.11604-0.24977-0.0012-0.42868-0.04862-0.17718-0.04911-0.30247-0.14274-0.12356-0.09535-0.20048-0.21459-0.07693-0.11924-0.12773-0.29691l0.71007-0.07401q0.025 0.17066 0.1193 0.2607 0.09431 0.08832 0.22522 0.08896 0.14642 7.22e-4 0.2417-0.10905 0.09701-0.11149 0.0981-0.33197 0.0011-0.22565-0.09483-0.3312-0.09594-0.10555-0.25614-0.10634-0.10163-5.01e-4 -0.19662 0.04898-0.0708 0.03582-0.15567 0.13015l-0.5973-0.08908z" stop-color="#000000"/>
<path d="m51.633 3.723 0.7028 9.91e-4 -6.81e-4 0.48232-0.7028-9.91e-4zm-9.81e-4 0.69591 0.7028 9.91e-4 -0.0025 1.7742q-4.79e-4 0.33934-0.05063 0.48052-0.04843 0.14118-0.18119 0.22885-0.13276 0.08766-0.37909 0.08732-0.20326-2.87e-4 -0.50462-0.061l0.1058-0.50973q0.08438 0.01734 0.124 0.0174 0.08957 1.27e-4 0.13617-0.06182 0.04659-0.06022 0.04685-0.24282z" stop-color="#000000"/>
<path d="m54.84 6.2383-0.65456 0.0045-2e-3 -0.29627q-0.14516 0.18359-0.29449 0.26213-0.1476 0.07853-0.36464 0.08002-0.28938 2e-3 -0.45593-0.16914-0.16483-0.17285-0.1673-0.53286l-8e-3 -1.1644 0.70451-0.0048 0.0069 1.006q0.0012 0.17225 0.06541 0.24416 0.06423 0.07191 0.17964 0.07112 0.12574-8.62e-4 0.20432-0.09787 0.0803-0.09702 0.07859-0.34678l-6e-3 -0.88021 0.70106-0.0048z" stop-color="#000000"/>
<path d="m55.36 3.703 0.70092-0.01495 0.01018 0.47704-0.70092 0.01495zm0.01484 0.69576 0.70092-0.01495 0.03902 1.8289-0.70092 0.01495z" stop-color="#000000"/>
<path d="m56.607 4.3784 0.65202-0.03286 0.015 0.29762q0.13704-0.18973 0.28281-0.27469 0.14568-0.08668 0.36073-0.09752 0.29074-0.01465 0.46294 0.15087 0.17383 0.16371 0.19203 0.52499l0.05852 1.1613-0.70363 0.03546-0.05063-1.0047q-0.0087-0.17204-0.07588-0.23936-0.0673-0.06905-0.18256-0.06324-0.12731 0.0064-0.20159 0.10674-0.07428 0.10033-0.06171 0.34978l0.04422 0.87739-0.70019 0.03529z" stop-color="#000000"/>
</g>
<g stroke-width=".3">
<path id="a" d="m6.15 6.823c7.6215-0.18305 23.19-0.47381 25.675 0.96136" fill="none" stop-color="#000000" stroke="#ff0" style="-inkscape-stroke:none;font-variation-settings:normal"/>
<path d="m31.805 2.251-0.0156 27.912c0.26542-0.52572 0.9874-1.2265 1.3238-1.5085l1.0971 0.91387-0.23317-28.225c-0.7327 0.19406-1.4712 0.31532-2.1721 0.90818z" fill="#e62e6c" fill-rule="evenodd" stop-color="#000000" stroke="#8c113a" stroke-linecap="round" stroke-linejoin="round" style="-inkscape-stroke:none;font-variation-settings:normal"/>
<path id="h" d="m6.125 18.128c9.1425-0.14416 25.02 0.28494 25.68 0.74096" fill="none" stop-color="#000000" stroke="#ff0" style="-inkscape-stroke:none;font-variation-settings:normal"/>
</g>
<g fill="#e62e6c" stroke-width="1px">
<path d="m6.2776 4.2933 0.78012-0.01766 0.04308 1.9029 1.2175-0.02756 0.01407 0.62168-1.9977 0.04523z"/>
<path d="m10.763 6.7261-0.65446 0.01224-0.0055-0.29623q-0.14298 0.1853-0.29136 0.2656-0.14666 0.08027-0.36367 0.08433-0.28934 0.0054-0.4579-0.16372-0.16687-0.17089-0.1736-0.53084l-0.02178-1.1642 0.7044-0.01318 0.01881 1.0058q0.0032 0.17223 0.0683 0.24337 0.06508 0.07114 0.18047 0.06898 0.12572-0.0024 0.20314-0.10028 0.07914-0.09796 0.07447-0.34769l-0.01646-0.88007 0.70096-0.01311z"/>
<path d="m11.297 4.8875 0.65279-0.0089 4e-3 0.29798q0.14393-0.18456 0.29272-0.2641 0.14877-0.08126 0.36407-0.08419 0.29108-0.0039 0.45707 0.16779 0.16769 0.17 0.1726 0.5317l0.01578 1.1626-0.70446 0.0096-0.01365-1.0059q-0.0023-0.17224-0.06703-0.24199-0.06471-0.07148-0.18011-0.06991-0.12746 0.0017-0.20538 0.09926-0.07792 0.09753-0.07453 0.34728l0.01192 0.87842-0.70102 0.0095z"/>
<path d="m16.904 4.0996 0.0065 2.5683-0.70969 0.0018-0.0043-1.6829q-0.17192 0.13135-0.33364 0.21272-0.15999 0.08137-0.40268 0.15605l-0.0015-0.57533q0.358-0.11632 0.55568-0.27874 0.19768-0.16242 0.30905-0.40042z"/>
<path d="m19.862 6.6804-2.1049-0.01394q0.03824-0.31154 0.22264-0.58421 0.18613-0.27438 0.69331-0.64483 0.30985-0.22705 0.39676-0.34534 0.08691-0.11828 0.08762-0.22508 7.64e-4 -0.11541-0.08483-0.19694-0.08386-0.08324-0.21304-0.0841-0.13436-8.89e-4 -0.22104 0.08294-0.08496 0.08385-0.11566 0.29724l-0.70241-0.0615q0.0433-0.296 0.15464-0.46063 0.11135-0.16635 0.31174-0.25288 0.20213-0.08824 0.55697-0.08589 0.37034 0.0025 0.57476 0.08821 0.20614 0.08577 0.32211 0.26224 0.1177 0.17476 0.11626 0.3918-0.0015 0.23082-0.139 0.44006-0.13575 0.20926-0.49398 0.45839-0.21284 0.14501-0.28557 0.2031-0.07101 0.0581-0.1681 0.1522l1.0955 0.0073z"/>
<path d="m22.026 4.1921 0.70259 0.01723-0.01183 0.48217-0.70259-0.01723zm-0.01706 0.6957 0.70259 0.01723-0.0435 1.7737q-0.0083 0.33924-0.06172 0.47922-0.05168 0.14002-0.18643 0.2246-0.13475 0.08457-0.381 0.07853-0.2032-5e-3 -0.50308-0.07264l0.11755-0.50715q0.08396 0.01929 0.12356 0.02026 0.08955 0.0022 0.13756-0.05866 0.04797-0.05913 0.05245-0.24167z"/>
<path d="m25.17 6.8222-0.65407-0.02566 0.01162-0.29605q-0.15346 0.17671-0.30625 0.24829-0.15106 0.07165-0.36794 0.06314-0.28917-0.01135-0.44765-0.18995-0.1567-0.18026-0.14258-0.54l0.04565-1.1636 0.70398 0.02762-0.03944 1.0052q-0.0068 0.17212 0.0541 0.24691 0.06085 0.07479 0.17617 0.07932 0.12565 0.0049 0.20861-0.08835 0.08468-0.09322 0.09447-0.34279l0.03451-0.87955 0.70054 0.02749z"/>
<path d="m25.903 4.3346 0.69984 0.04172-0.0284 0.4763-0.69984-0.04172zm-0.04142 0.69468 0.69984 0.04172-0.10888 1.8261-0.69984-0.04173z"/>
<path d="m27.205 5.1051 0.64995 0.06141-0.02803 0.29668q0.16294-0.16801 0.31943-0.23108 0.15665-0.06479 0.37102-0.04453 0.28982 0.02738 0.43637 0.21598 0.14843 0.18705 0.1144 0.54718l-0.10938 1.1576-0.7014-0.06627 0.09463-1.0015q0.0162-0.17149-0.0406-0.2478-0.05665-0.07802-0.17155-0.08888-0.1269-0.01199-0.21486 0.07659t-0.11146 0.33724l-0.08264 0.87461-0.69797-0.06595z"/>
<path d="m6.3493 15.595 1.0266-0.0086 0.40898 1.5332 0.38164-1.5397 1.0232-0.0085 0.02105 2.5252-0.63732 0.0053-0.01606-1.9258-0.4783 1.9299-0.57704 0.0048-0.50869-1.9216 0.01605 1.9258-0.63905 0.0053z" stop-color="#000000"/>
<path d="m10.43 16.863-0.66995-0.07183q0.03821-0.17563 0.10902-0.27542 0.07253-0.1015 0.20702-0.17533 0.09656-0.05323 0.26542-0.08221 0.16886-0.02898 0.36523-0.02863 0.31523 5.65e-4 0.50637 0.03708 0.19114 0.03479 0.31841 0.14699 0.08943 0.07767 0.14086 0.22074 0.05142 0.14134 0.05119 0.27053l-0.0014 0.80788q-2.32e-4 0.12919 0.01514 0.20329 0.01709 0.07238 0.07201 0.18617l-0.65802-0.0012q-0.03949-0.07069-0.05148-0.10689-0.01199-0.03792-0.02391-0.11718-0.13804 0.13239-0.27423 0.18899-0.18617 0.07546-0.4325 0.07502-0.32729-5.87e-4 -0.49755-0.15248-0.16854-0.15189-0.16814-0.3741 3.74e-4 -0.20843 0.12292-0.34257t0.45167-0.19901q0.39461-0.07853 0.5118-0.10933 0.11719-0.03252 0.2482-0.08396 2.31e-4 -0.12919-0.05307-0.18096-0.05331-0.05177-0.18767-0.05201-0.17226-3.09e-4 -0.25848 0.05466-0.06726 0.04294-0.10881 0.16173zm0.6074 0.36972q-0.14479 0.05142-0.30161 0.09075-0.2137 0.05646-0.27064 0.11148-0.05867 0.05674-0.0588 0.12909-1.49e-4 0.08268 0.0566 0.13618 0.05847 0.05178 0.17044 0.05198 0.11713 2.1e-4 0.21714-0.05646 0.10173-0.05666 0.14322-0.13755 0.04321-0.08261 0.04345-0.21352z" stop-color="#000000"/>
<path d="m12.299 16.276 0.65628 0.0048-0.0022 0.29972q0.09615-0.19396 0.19658-0.26558 0.10217-0.07333 0.2503-0.07226 0.15503 0.0011 0.33864 0.09892l-0.22066 0.49795q-0.12365-0.05257-0.19599-0.0531-0.1378-1e-3 -0.21442 0.11214-0.10968 0.15941-0.11287 0.59865l-0.0045 0.61322-0.70451-0.0051z" stop-color="#000000"/>
<path d="m17.119 15.593-0.03969 2.568-0.70961-0.01097 0.02601-1.6827q-0.17426 0.12824-0.33741 0.20669-0.16143 0.07847-0.40543 0.14878l0.0089-0.57527q0.36003-0.10986 0.5606-0.2687 0.20057-0.15884 0.3162-0.3948z" stop-color="#000000"/>
<path d="m18.697 16.395-0.66057-0.13262q0.08925-0.31516 0.32698-0.47907 0.23945-0.16387 0.67-0.15491 0.49427 0.01028 0.71087 0.19914 0.21661 0.18886 0.2108 0.46785-0.0034 0.16361-0.09571 0.29435t-0.27522 0.22687q0.14563 0.03921 0.22213 0.08904 0.12411 0.08011 0.19034 0.20899 0.068 0.12719 0.06434 0.30285-0.0046 0.22044-0.1242 0.42126-0.11958 0.1991-0.33886 0.3048-0.21925 0.10398-0.5723 0.09664-0.34444-0.0072-0.54253-0.09226-0.19637-0.08506-0.32231-0.24274-0.12418-0.15937-0.18816-0.39674l0.70286-0.07842q0.03693 0.21269 0.12132 0.29714 0.08615 0.08277 0.22048 0.08556 0.14122 0.0029 0.23637-0.09846 0.09687-0.10136 0.10045-0.27358 0.0037-0.17566-0.08562-0.274-0.08755-0.0983-0.24254-0.10153-0.08266-0.0017-0.22819 0.0366l0.04659-0.5004q0.05837 0.0098 0.0911 0.01051 0.13778 0.0029 0.23088-0.08307 0.09483-0.0859 0.09733-0.20645 0.0024-0.11539-0.06506-0.18571t-0.18801-0.07283q-0.124-0.0026-0.20307 0.07158-0.07904 0.07244-0.1105 0.25959z" stop-color="#000000"/>
<path d="m22.207 15.749 0.70251 0.02041-0.01401 0.48211-0.70251-0.02041zm-0.02021 0.69562 0.70251 0.02041-0.05153 1.7735q-0.0099 0.3392-0.06389 0.47894-0.05231 0.13979-0.18745 0.22375-0.13513 0.08396-0.38135 0.07681-0.20318-0.0059-0.50275-0.07492l0.11984-0.50661q0.08387 0.01967 0.12347 0.02082 0.08954 0.0026 0.13783-0.05803 0.04824-0.05891 0.05354-0.24143z" stop-color="#000000"/>
<path d="m25.342 18.377-0.65418-0.022744 0.01029-0.2961q-0.15267 0.17739-0.30514 0.24966-0.15074 0.07232-0.36766 0.06478-0.28922-0.01006-0.4485-0.18795-0.1575-0.17956-0.14499-0.53936l0.04046-1.1637 0.7041 0.02448-0.03495 1.0054q-6e-3 0.17215 0.0552 0.24667 0.06118 0.07452 0.17652 0.07853 0.12567 0.0044 0.20821-0.08928 0.08426-0.09359 0.09294-0.34321l0.03058-0.8797 0.70066 0.02436z" stop-color="#000000"/>
<path d="m26.038 15.878 0.70046 0.0295-0.02008 0.47673-0.70046-0.0295zm-0.02929 0.6953 0.70046 0.0295-0.07698 1.8277-0.70046-0.0295z" stop-color="#000000"/>
<path d="m27.32 16.627 0.65189 0.0354-0.01616 0.29756q0.1561-0.17438 0.30995-0.24366 0.15394-0.07099 0.36894-0.05932 0.29068 0.01579 0.44465 0.19838 0.15578 0.18097 0.13616 0.54218l-0.06305 1.161-0.70349-0.03821 0.05455-1.0045q0.0093-0.172-0.05047-0.24598-0.05972-0.0757-0.17496-0.08196-0.12728-0.0069-0.21163 0.08511-0.08435 0.09202-0.0979 0.34143l-0.04764 0.87721-0.70005-0.03802z" stop-color="#000000"/>
</g>
</svg>
