<?xml version="1.0" encoding="UTF-8" standalone="no"?>
<!-- Created with Inkscape (http://www.inkscape.org/) -->

<svg
 width="13.844542mm"
 height="12.319476mm"
 viewBox="0 0 13.844542 12.319476"
 version="1.1"
 id="svg1041"
 xmlns="http://www.w3.org/2000/svg"
 xmlns:svg="http://www.w3.org/2000/svg">
<defs
 id="defs1038" />
<g
 id="layer1"
 transform="translate(-95.01417,-117.86509)">
<path
 id="circle798"
 style="display:inline;overflow:visible;vector-effect:none;fill:#eee54e;fill-rule:evenodd;stroke:#000000;stroke-width:0.1;marker:none;enable-background:accumulate"
 d="m 106.70583,125.35269 a 4.7818789,4.7818789 0 0 1 -4.78188,4.78188 a 4.7818789,4.7818789 0 0 1 -4.78188,-4.78188 a 4.7818789,4.7818789 0 0 1 4.78188,-4.78188 a 4.7818789,4.7818789 0 0 1 4.78188,4.78188 z" />
<path
 id="path800"
 d="m 101.92395,125.3527 h 4.78188"
 style="vector-effect:none;fill:none;fill-opacity:1;fill-rule:evenodd;stroke:#000000;stroke-width:0.1;stroke-linecap:round;stroke-linejoin:round;stroke-miterlimit:4;stroke-dasharray:none;stroke-dashoffset:0;stroke-opacity:1" />
<path
 style="vector-effect:none;fill:none;fill-opacity:1;fill-rule:evenodd;stroke:#000000;stroke-width:0.1;stroke-linecap:round;stroke-linejoin:round;stroke-miterlimit:4;stroke-dasharray:none;stroke-dashoffset:0;stroke-opacity:1"
 d="m 106.54289,124.11505 l -1.03895,0.27839"
 id="path802" />
<path
 id="path804"
 d="m 106.06518,122.96176 l -0.93149,0.5378"
 style="vector-effect:none;fill:none;fill-opacity:1;fill-rule:evenodd;stroke:#000000;stroke-width:0.1;stroke-linecap:round;stroke-linejoin:round;stroke-miterlimit:4;stroke-dasharray:none;stroke-dashoffset:0;stroke-opacity:1" />
<path
 style="vector-effect:none;fill:none;fill-opacity:1;fill-rule:evenodd;stroke:#000000;stroke-width:0.1;stroke-linecap:round;stroke-linejoin:round;stroke-miterlimit:4;stroke-dasharray:none;stroke-dashoffset:0;stroke-opacity:1"
 d="m 105.30525,121.9714 l -0.76056,0.76056"
 id="path806" />
<path
 id="path808"
 d="m 104.31489,121.21147 l -0.5378,0.93149"
 style="vector-effect:none;fill:none;fill-opacity:1;fill-rule:evenodd;stroke:#000000;stroke-width:0.1;stroke-linecap:round;stroke-linejoin:round;stroke-miterlimit:4;stroke-dasharray:none;stroke-dashoffset:0;stroke-opacity:1" />
<path
 style="vector-effect:none;fill:none;fill-opacity:1;fill-rule:evenodd;stroke:#000000;stroke-width:0.1;stroke-linecap:round;stroke-linejoin:round;stroke-miterlimit:4;stroke-dasharray:none;stroke-dashoffset:0;stroke-opacity:1"
 d="m 103.16159,120.73376 l -0.27838,1.03894"
 id="path810" />
<path
 style="vector-effect:none;fill:none;fill-opacity:1;fill-rule:evenodd;stroke:#000000;stroke-width:0.1;stroke-linecap:round;stroke-linejoin:round;stroke-miterlimit:4;stroke-dasharray:none;stroke-dashoffset:0;stroke-opacity:1"
 d="m 100.68631,120.73376 l 0.27839,1.03894"
 id="path812" />
<path
 id="path814"
 d="m 99.53301,121.21147 l 0.5378,0.93149"
 style="vector-effect:none;fill:none;fill-opacity:1;fill-rule:evenodd;stroke:#000000;stroke-width:0.1;stroke-linecap:round;stroke-linejoin:round;stroke-miterlimit:4;stroke-dasharray:none;stroke-dashoffset:0;stroke-opacity:1" />
<path
 style="vector-effect:none;fill:none;fill-opacity:1;fill-rule:evenodd;stroke:#000000;stroke-width:0.1;stroke-linecap:round;stroke-linejoin:round;stroke-miterlimit:4;stroke-dasharray:none;stroke-dashoffset:0;stroke-opacity:1"
 d="m 98.54265,121.9714 l 0.76056,0.76056"
 id="path816" />
<path
 id="path818"
 d="m 97.78272,122.96176 l 0.9315,0.5378"
 style="vector-effect:none;fill:none;fill-opacity:1;fill-rule:evenodd;stroke:#000000;stroke-width:0.1;stroke-linecap:round;stroke-linejoin:round;stroke-miterlimit:4;stroke-dasharray:none;stroke-dashoffset:0;stroke-opacity:1" />
<path
 style="vector-effect:none;fill:none;fill-opacity:1;fill-rule:evenodd;stroke:#000000;stroke-width:0.1;stroke-linecap:round;stroke-linejoin:round;stroke-miterlimit:4;stroke-dasharray:none;stroke-dashoffset:0;stroke-opacity:1"
 d="m 97.30501,124.11505 l 1.03895,0.27839"
 id="path820" />
<path
 style="vector-effect:none;fill:none;fill-opacity:1;fill-rule:evenodd;stroke:#000000;stroke-width:0.1;stroke-linecap:round;stroke-linejoin:round;stroke-miterlimit:4;stroke-dasharray:none;stroke-dashoffset:0;stroke-opacity:1"
 d="m 97.30501,126.59033 l 1.03895,-0.27838"
 id="path822" />
<path
 id="path824"
 d="m 97.78272,127.74363 l 0.9315,-0.5378"
 style="vector-effect:none;fill:none;fill-opacity:1;fill-rule:evenodd;stroke:#000000;stroke-width:0.1;stroke-linecap:round;stroke-linejoin:round;stroke-miterlimit:4;stroke-dasharray:none;stroke-dashoffset:0;stroke-opacity:1" />
<path
 style="vector-effect:none;fill:none;fill-opacity:1;fill-rule:evenodd;stroke:#000000;stroke-width:0.1;stroke-linecap:round;stroke-linejoin:round;stroke-miterlimit:4;stroke-dasharray:none;stroke-dashoffset:0;stroke-opacity:1"
 d="m 98.54265,128.73399 l 0.76057,-0.76056"
 id="path826" />
<path
 id="path828"
 d="m 99.53301,129.49392 l 0.5378,-0.9315"
 style="vector-effect:none;fill:none;fill-opacity:1;fill-rule:evenodd;stroke:#000000;stroke-width:0.1;stroke-linecap:round;stroke-linejoin:round;stroke-miterlimit:4;stroke-dasharray:none;stroke-dashoffset:0;stroke-opacity:1" />
<path
 style="vector-effect:none;fill:none;fill-opacity:1;fill-rule:evenodd;stroke:#000000;stroke-width:0.1;stroke-linecap:round;stroke-linejoin:round;stroke-miterlimit:4;stroke-dasharray:none;stroke-dashoffset:0;stroke-opacity:1"
 d="m 100.68631,129.97163 l 0.27839,-1.03895"
 id="path830" />
<path
 style="vector-effect:none;fill:none;fill-opacity:1;fill-rule:evenodd;stroke:#000000;stroke-width:0.1;stroke-linecap:round;stroke-linejoin:round;stroke-miterlimit:4;stroke-dasharray:none;stroke-dashoffset:0;stroke-opacity:1"
 d="m 103.16159,129.97163 l -0.27838,-1.03895"
 id="path832" />
<path
 id="path834"
 d="m 104.31489,129.49392 l -0.5378,-0.9315"
 style="vector-effect:none;fill:none;fill-opacity:1;fill-rule:evenodd;stroke:#000000;stroke-width:0.1;stroke-linecap:round;stroke-linejoin:round;stroke-miterlimit:4;stroke-dasharray:none;stroke-dashoffset:0;stroke-opacity:1" />
<path
 style="vector-effect:none;fill:none;fill-opacity:1;fill-rule:evenodd;stroke:#000000;stroke-width:0.1;stroke-linecap:round;stroke-linejoin:round;stroke-miterlimit:4;stroke-dasharray:none;stroke-dashoffset:0;stroke-opacity:1"
 d="m 105.30525,128.73399 l -0.76056,-0.76056"
 id="path836" />
<path
 id="path838"
 d="m 106.06518,127.74363 l -0.93149,-0.5378"
 style="vector-effect:none;fill:none;fill-opacity:1;fill-rule:evenodd;stroke:#000000;stroke-width:0.1;stroke-linecap:round;stroke-linejoin:round;stroke-miterlimit:4;stroke-dasharray:none;stroke-dashoffset:0;stroke-opacity:1" />
<path
 style="vector-effect:none;fill:none;fill-opacity:1;fill-rule:evenodd;stroke:#000000;stroke-width:0.1;stroke-linecap:round;stroke-linejoin:round;stroke-miterlimit:4;stroke-dasharray:none;stroke-dashoffset:0;stroke-opacity:1"
 d="m 106.54289,126.59034 l -1.03895,-0.27839"
 id="path840" />
<path
 style="vector-effect:none;fill:none;fill-opacity:1;fill-rule:evenodd;stroke:#000000;stroke-width:0.1;stroke-linecap:round;stroke-linejoin:round;stroke-miterlimit:4;stroke-dasharray:none;stroke-dashoffset:0;stroke-opacity:1"
 d="m 101.92395,120.57082 v 1.65848"
 id="path842" />
<path
 id="path844"
 d="m 97.14207,125.3527 h 1.65848"
 style="vector-effect:none;fill:none;fill-opacity:1;fill-rule:evenodd;stroke:#000000;stroke-width:0.1;stroke-linecap:round;stroke-linejoin:round;stroke-miterlimit:4;stroke-dasharray:none;stroke-dashoffset:0;stroke-opacity:1" />
<path
 style="vector-effect:none;fill:none;fill-opacity:1;fill-rule:evenodd;stroke:#000000;stroke-width:0.1;stroke-linecap:round;stroke-linejoin:round;stroke-miterlimit:4;stroke-dasharray:none;stroke-dashoffset:0;stroke-opacity:1"
 d="m 101.92395,130.13457 v -1.65848"
 id="path846" />
<path
 d="m 96.91639,122.05577 l -0.74765,0.002 c 0.0201,-0.15743 -0.0389,-0.33604 -0.23121,-0.43487 c -0.2289,-0.11761 -0.50432,-0.05 -0.64762,0.22888 l -0.27574,0.53665 l 1.36952,0.70368 l 0.13738,-0.26736 l -0.54627,-0.28069 l 0.0988,-0.19234 l 0.68364,0.0133 z m -1.11624,-0.16508 c 0.1058,0.0544 0.14128,0.16984 0.081,0.28717 l -0.12947,0.25198 l -0.36161,-0.1858 l 0.12947,-0.25198 c 0.0603,-0.11733 0.17483,-0.15573 0.28063,-0.10137 z"
 id="path860"
 style="font-weight:bold;font-size:2.16254px;line-height:1.2;font-family:'DIN Pro';-inkscape-font-specification:'DIN Pro Bold';letter-spacing:0.124762px;word-spacing:0.249524px;baseline-shift:baseline;fill:#ff6600;stroke-width:0.999999px" />
<path
 d="m 97.93841,120.86741 l -1.52165,-0.6095 l -0.15739,0.17548 l 0.77226,1.44502 l 0.20937,-0.23343 l -0.14076,-0.25116 l 0.36531,-0.4073 l 0.26349,0.11432 z m -0.71464,0.01 l -0.25557,0.28495 l -0.28701,-0.51886 z"
 id="path862"
 style="font-weight:bold;font-size:2.16254px;line-height:1.2;font-family:'DIN Pro';-inkscape-font-specification:'DIN Pro Bold';letter-spacing:0.124762px;word-spacing:0.249524px;baseline-shift:baseline;fill:#ff6600;stroke-width:0.999999px" />
<path
 d="m 98.52641,119.18001 c -0.14527,-0.21764 -0.42301,-0.29485 -0.68922,-0.11717 l -0.49643,0.33136 l 0.85481,1.28065 l 0.25002,-0.16688 l -0.32176,-0.48204 l 0.24642,-0.16448 c 0.2662,-0.17769 0.30143,-0.4638 0.15616,-0.68144 z m -0.25002,0.16688 c 0.0696,0.10432 0.0445,0.22249 -0.0688,0.29813 l -0.23382,0.15608 l -0.23412,-0.35074 l 0.23383,-0.15608 c 0.11332,-0.0756 0.23329,-0.0517 0.30292,0.0526 z"
 id="path864"
 style="font-weight:bold;font-size:2.16254px;line-height:1.2;font-family:'DIN Pro';-inkscape-font-specification:'DIN Pro Bold';letter-spacing:0.124762px;word-spacing:0.249524px;baseline-shift:baseline;fill:#ff6600;stroke-width:0.999999px" />
<path
 d="m 100.1496,118.53348 c -0.0875,-0.2466 -0.33786,-0.38952 -0.63949,-0.28249 l -0.56249,0.19961 l 0.51493,1.45107 l 0.28328,-0.10052 l -0.19382,-0.54619 l 0.27921,-0.0991 c 0.30163,-0.10704 0.40589,-0.3758 0.31838,-0.6224 z m -0.28328,0.10053 c 0.0419,0.1182 -0.0114,0.22662 -0.13977,0.27218 l -0.26494,0.094 l -0.14103,-0.39742 l 0.26495,-0.094 c 0.12839,-0.0456 0.23884,0.007 0.28079,0.12524 z"
 id="path866"
 style="font-weight:bold;font-size:2.16254px;line-height:1.2;font-family:'DIN Pro';-inkscape-font-specification:'DIN Pro Bold';letter-spacing:0.124762px;word-spacing:0.249524px;baseline-shift:baseline;fill:#ff6600;stroke-width:0.999999px" />
<path
 d="m 101.89272,118.59704 c -0.0263,-0.29293 -0.046,-0.46486 -0.21269,-0.60407 c -0.11266,-0.0941 -0.24711,-0.14067 -0.42373,-0.12483 c -0.17662,0.0158 -0.30279,0.0858 -0.3969,0.19845 c -0.13921,0.16665 -0.1259,0.33915 -0.0996,0.63208 c 0.0263,0.29293 0.0439,0.46505 0.21053,0.60425 c 0.11266,0.0941 0.24927,0.14049 0.42589,0.12464 c 0.17662,-0.0158 0.30063,-0.0856 0.39475,-0.19825 c 0.1392,-0.16665 0.12805,-0.33934 0.10178,-0.63227 z m -0.29939,0.0269 c 0.0263,0.29293 0.0133,0.36574 -0.0369,0.43538 c -0.0386,0.0534 -0.10231,0.0939 -0.18416,0.1012 c -0.0819,0.007 -0.15171,-0.0211 -0.20139,-0.0666 c -0.0618,-0.0596 -0.0854,-0.12912 -0.11168,-0.42205 c -0.0263,-0.29293 -0.0156,-0.36771 0.0346,-0.43735 c 0.0408,-0.0536 0.10466,-0.0919 0.18651,-0.0992 c 0.0819,-0.007 0.15152,0.019 0.19904,0.0646 c 0.0618,0.0596 0.0877,0.13109 0.11403,0.42401 z"
 id="path868"
 style="font-weight:bold;font-size:2.16254px;line-height:1.2;font-family:'DIN Pro';-inkscape-font-specification:'DIN Pro Bold';letter-spacing:0.124762px;word-spacing:0.249524px;baseline-shift:baseline;fill:#ff6600;stroke-width:0.999999px" />
<path
 d="m 103.54705,119.58007 l -0.22961,-0.71153 c 0.15609,-0.0287 0.30832,-0.13918 0.344,-0.35247 c 0.0425,-0.25382 -0.10566,-0.49566 -0.41493,-0.54739 l -0.59508,-0.0995 l -0.25402,1.51863 l 0.29647,0.0496 l 0.10133,-0.60574 l 0.21329,0.0357 l 0.19515,0.65533 z m -0.18209,-1.11359 c -0.0196,0.11731 -0.11885,0.18622 -0.24896,0.16446 l -0.27941,-0.0467 l 0.0671,-0.40099 l 0.27941,0.0467 c 0.13011,0.0218 0.20151,0.11922 0.18189,0.23653 z"
 id="path870"
 style="font-weight:bold;font-size:2.16254px;line-height:1.2;font-family:'DIN Pro';-inkscape-font-specification:'DIN Pro Bold';letter-spacing:0.124762px;word-spacing:0.249524px;baseline-shift:baseline;fill:#ff6600;stroke-width:0.999999px" />
<path
 d="m 105.28259,118.92396 l 0.10559,-0.24649 l -1.01578,-0.43513 l -0.10559,0.24649 l 0.36974,0.15838 l -0.5007,1.16885 l 0.27631,0.11836 l 0.5007,-1.16885 z"
 id="path872"
 style="font-weight:bold;font-size:2.16254px;line-height:1.2;font-family:'DIN Pro';-inkscape-font-specification:'DIN Pro Bold';letter-spacing:0.124762px;word-spacing:0.249524px;baseline-shift:baseline;fill:#ff6600;stroke-width:0.999999px" />
<path
 d="m 105.91529,120.89114 l 0.15995,-0.21522 l -0.57278,-0.42568 l 0.22316,-0.30028 l 0.48773,0.36247 l 0.15996,-0.21522 l -0.48773,-0.36248 l 0.21542,-0.28986 l 0.57278,0.42568 l 0.15995,-0.21522 l -0.81404,-0.60498 l -0.91844,1.23581 z"
 id="path874"
 style="font-weight:bold;font-size:2.16254px;line-height:1.2;font-family:'DIN Pro';-inkscape-font-specification:'DIN Pro Bold';letter-spacing:0.124762px;word-spacing:0.249524px;baseline-shift:baseline;fill:#ff6600;stroke-width:0.999999px" />
<path
 d="m 107.32777,121.71701 l 0.78787,-0.63526 l -0.18732,-0.23232 l -0.77945,0.62847 c -0.13804,0.1113 -0.28705,0.0953 -0.38885,-0.0309 c -0.1018,-0.12626 -0.0845,-0.27358 0.0536,-0.38489 l 0.77945,-0.62846 l -0.18867,-0.23401 l -0.78787,0.63526 c -0.25421,0.20496 -0.26342,0.53463 -0.0652,0.78041 c 0.19818,0.24579 0.5223,0.3067 0.7765,0.10173 z"
 id="path876"
 style="font-weight:bold;font-size:2.16254px;line-height:1.2;font-family:'DIN Pro';-inkscape-font-specification:'DIN Pro Bold';letter-spacing:0.124762px;word-spacing:0.249524px;baseline-shift:baseline;fill:#ff6600;stroke-width:0.999999px" />
<path
 d="m 107.62879,123.51259 l 0.46676,-0.58407 c 0.11006,0.11435 0.28619,0.18035 0.48376,0.0924 c 0.23511,-0.10463 0.3551,-0.36159 0.22761,-0.64807 l -0.24531,-0.55123 l -1.40672,0.62601 l 0.12221,0.27463 l 0.56111,-0.2497 l 0.0879,0.19757 l -0.4389,0.52433 z m 0.82831,-0.76627 c -0.10867,0.0484 -0.22089,0.004 -0.27453,-0.1169 l -0.11517,-0.25882 l 0.37143,-0.1653 l 0.11518,0.25883 c 0.0536,0.12052 0.0118,0.23383 -0.0969,0.28219 z"
 id="path878"
 style="font-weight:bold;font-size:2.16254px;line-height:1.2;font-family:'DIN Pro';-inkscape-font-specification:'DIN Pro Bold';letter-spacing:0.124762px;word-spacing:0.249524px;baseline-shift:baseline;fill:#ff6600;stroke-width:0.999999px" />
</g>
</svg>
