<?xml version="1.0" encoding="UTF-8" standalone="no"?>
<!-- Created with Inkscape (http://www.inkscape.org/) -->

<svg
 width="39.038647mm"
 height="27.391317mm"
 viewBox="0 0 39.038647 27.391317"
 version="1.1"
 id="svg1"
 inkscape:version="1.3.2 (1:1.3.2+202311252150+091e20ef0f)"
 sodipodi:docname="formule.svg"
 xmlns:inkscape="http://www.inkscape.org/namespaces/inkscape"
 xmlns:sodipodi="http://sodipodi.sourceforge.net/DTD/sodipodi-0.dtd"
 xmlns="http://www.w3.org/2000/svg"
 xmlns:svg="http://www.w3.org/2000/svg">
<sodipodi:namedview
 id="namedview1"
 pagecolor="#ffffff"
 bordercolor="#666666"
 borderopacity="1.0"
 inkscape:showpageshadow="2"
 inkscape:pageopacity="0.0"
 inkscape:pagecheckerboard="0"
 inkscape:deskcolor="#d1d1d1"
 inkscape:document-units="mm"
 inkscape:zoom="1.5278485"
 inkscape:cx="20.617228"
 inkscape:cy="80.178107"
 inkscape:current-layer="layer1" />
<defs
 id="defs1" />
<g
 inkscape:label="Calque 1"
 inkscape:groupmode="layer"
 id="layer1"
 transform="translate(-86.859688,-25.798626)">
<path
 d="m 176.00953,127.11896 q 0.4401,-0.0339 1.33723,-0.0339 q 1.10873,0 3.68164,0.16081 q 0.70247,0.0339 0.89713,0.0254 q 0.20313,-0.008 0.52474,-0.13542 q 0.34701,-0.13541 0.52474,-0.13541 q 0.14388,0 0.33008,0.22005 q 0.19466,0.21159 0.19466,0.36393 q 0,0.55013 -0.57552,0.86328 q -0.57552,0.30469 -1.02409,0.30469 h -0.31315 q -0.8125,0 -1.19336,-0.11003 q -1.17643,-0.31315 -2.92838,-0.31315 q -1.49804,0 -2.63215,0.36393 q -1.13411,0.36393 -1.47266,0.77018 q -0.38085,0.45703 -0.57552,0.56706 q -0.18619,0.11849 -0.51627,0.11849 q -0.66016,0 -0.66016,-0.58398 q 0,-0.88867 0.72787,-1.56576 q 0.72786,-0.68554 2.44596,-1.55729 q 1.00716,-0.49934 1.22721,-0.68554 q 0.22005,-0.1862 1.21028,-1.0918 q 0.9987,-0.90559 1.51497,-1.55728 q 0.51628,-0.6517 0.73633,-1.15951 q 0.22851,-0.51627 0.22851,-0.94791 q 0,-0.59245 -0.70247,-1.20182 q -0.70247,-0.61784 -1.30338,-0.61784 q -0.51628,0 -1.55729,0.65169 q -1.04101,0.64323 -1.54882,1.24414 q -0.33008,0.38932 -1.00716,0.38932 q -0.16081,0 -0.34701,-0.36393 q -0.1862,-0.36393 -0.1862,-0.58398 q 0,-0.16081 0.0423,-0.22005 q 0.0423,-0.0592 0.84635,-0.63477 q 0.8125,-0.57552 1.45573,-0.99023 q 0.65169,-0.42318 1.30338,-0.64323 q 0.65169,-0.22005 1.67578,-0.22005 q 0.87174,0 1.63346,0.72786 q 0.77018,0.7194 1.14258,1.42187 q 0.37239,0.69401 0.37239,0.79558 q 0,1.1595 -1.73502,3.20767 q -1.72656,2.04817 -3.77473,3.1569 z m 15.00713,-7.17707 q -0.48242,0.45703 -1.14257,1.4388 q -0.17774,0.26237 -0.28776,0.41471 q -0.11849,0.16081 -0.16081,0.22851 q 0.47396,0.28776 1.83658,0.48243 q 1.74349,0.2539 2.58984,0.57552 q 0.85482,0.32161 1.22721,0.93945 q 0.38086,0.60937 0.38086,1.66731 q 0,0.66016 -0.60937,1.48112 q -0.60938,0.82096 -2.03125,1.55729 q -1.42187,0.73632 -3.14843,0.73632 q -1.41341,0 -2.42903,-0.55859 q -1.00716,-0.55859 -1.00716,-0.93945 q 0,-0.8125 1.02409,-0.8125 q 0.22851,0 0.49088,0.21159 q 0.93945,0.66015 2.1582,0.66015 q 1.29492,0 2.65755,-0.77018 q 1.37109,-0.77018 1.37109,-1.47265 q 0,-0.89713 -0.66862,-1.37109 q -0.66016,-0.48242 -2.0651,-0.63477 l -1.91276,-0.21158 q -0.80403,-0.10157 -1.24414,-0.41472 q -0.4401,-0.32161 -0.4401,-0.59244 q 0,-0.28776 0.31315,-0.65169 q 0.0677,-0.0931 0.73633,-1.06641 q 1.37955,-2.05664 1.73502,-2.16666 q 0.36393,-0.11849 4.5703,-0.25391 q 0.74479,-0.0169 1.54037,-0.24544 q 0.6263,-0.16927 0.77864,-0.16927 q 0.52474,0 0.91406,0.31315 q 0.2793,0.14388 0.2793,0.31315 q 0,0.24544 -0.31315,0.61784 q -0.31315,0.37239 -0.9056,0.45703 q -0.58398,0.0846 -1.46419,0.0846 l -2.82682,-0.0846 q -1.24414,0 -1.94661,0.23698 z"
 id="text3"
 style="font-size:17.3333px;line-height:1.6;font-family:'Segoe Print QD';-inkscape-font-specification:'Segoe Print QD';letter-spacing:0.999999px;word-spacing:2px;baseline-shift:baseline;stroke-width:0.999999px"
 transform="matrix(0.26458333,0,0,0.26458333,44.898671,-1.3957683)"
 aria-label="25" />
<path
 style="font-variation-settings:normal;opacity:1;vector-effect:none;fill:none;fill-opacity:1;fill-rule:evenodd;stroke:#000000;stroke-width:0.3;stroke-linecap:butt;stroke-linejoin:miter;stroke-miterlimit:4;stroke-dasharray:none;stroke-dashoffset:0;stroke-opacity:1;-inkscape-stroke:none;stop-color:#000000;stop-opacity:1"
 d="M 107.22115,29.992063 V 50.539446"
 id="path3"
 sodipodi:nodetypes="cc" />
<path
 style="font-variation-settings:normal;opacity:1;vector-effect:none;fill:none;fill-opacity:1;fill-rule:evenodd;stroke:#000000;stroke-width:0.3;stroke-linecap:butt;stroke-linejoin:miter;stroke-miterlimit:4;stroke-dasharray:none;stroke-dashoffset:0;stroke-opacity:1;-inkscape-stroke:none;stop-color:#000000;stop-opacity:1"
 d="m 107.22115,36.285064 h 14.18627"
 id="path4" />
<path
 d="m 261.24849,114.66654 q 0,0.25391 -0.20313,0.72787 q -0.77018,1.8789 -1.40494,4.1979 q -0.6263,2.31055 -0.6263,3.08073 q 0,1.26953 -0.57552,1.26953 q -0.51628,0 -0.71094,-0.47396 q -0.1862,-0.48242 -0.1862,-0.84635 q 0,-0.47396 0.9056,-3.53776 l 0.16927,-0.58398 l -0.15234,-0.11003 q -1.44726,0.85482 -2.19205,1.10026 q -0.73633,0.23698 -1.85352,0.23698 q -0.51627,0 -1.21028,-0.77018 q -0.69401,-0.77864 -0.69401,-1.29492 q 0,-0.5332 0.16081,-1.00716 q 0.1608,-0.47396 0.55013,-0.9987 q 0.38932,-0.5332 1.29492,-1.26952 q 0.90559,-0.73633 1.35416,-0.95638 q 0.45703,-0.22005 1.35416,-0.44857 q 0.89714,-0.23698 1.38802,-0.23698 q 0.45703,0 0.82096,0.16081 q 0.3724,0.15234 0.9056,0.65169 q 0.5332,0.49089 0.65169,0.54167 q 0.12696,0.0508 0.25391,0.56705 z m -1.47266,0.17774 q -0.24544,-0.72787 -1.45572,-0.72787 q -1.75195,0 -3.07226,1.2526 q -1.31185,1.25261 -1.31185,2.02279 q 0,0.55859 0.35547,0.86328 q 0.36393,0.29622 0.93099,0.29622 q 0.59245,0 1.41341,-0.37239 q 0.82942,-0.3724 1.48958,-0.78711 q 0.66015,-0.42318 0.83789,-0.6263 q 0.17773,-0.20313 0.33854,-0.67709 q 0.32161,-0.99023 0.47395,-1.24413 z m 15.48956,-0.17774 q 0,0.25391 -0.20313,0.72787 q -0.77018,1.8789 -1.40494,4.1979 q -0.6263,2.31055 -0.6263,3.08073 q 0,1.26953 -0.57552,1.26953 q -0.51628,0 -0.71094,-0.47396 q -0.18619,-0.48242 -0.18619,-0.84635 q 0,-0.47396 0.90559,-3.53776 l 0.16927,-0.58398 l -0.15234,-0.11003 q -1.44726,0.85482 -2.19205,1.10026 q -0.73633,0.23698 -1.85352,0.23698 q -0.51627,0 -1.21028,-0.77018 q -0.69401,-0.77864 -0.69401,-1.29492 q 0,-0.5332 0.16081,-1.00716 q 0.16081,-0.47396 0.55013,-0.9987 q 0.38932,-0.5332 1.29492,-1.26952 q 0.90559,-0.73633 1.35416,-0.95638 q 0.45703,-0.22005 1.35416,-0.44857 q 0.89714,-0.23698 1.38802,-0.23698 q 0.45703,0 0.82096,0.16081 q 0.3724,0.15234 0.9056,0.65169 q 0.5332,0.49089 0.65169,0.54167 q 0.12696,0.0508 0.25391,0.56705 z m -1.47265,0.17774 q -0.24545,-0.72787 -1.45573,-0.72787 q -1.75195,0 -3.07226,1.2526 q -1.31185,1.25261 -1.31185,2.02279 q 0,0.55859 0.35547,0.86328 q 0.36393,0.29622 0.93099,0.29622 q 0.59245,0 1.41341,-0.37239 q 0.82942,-0.3724 1.48958,-0.78711 q 0.66015,-0.42318 0.83789,-0.6263 q 0.17773,-0.20313 0.33854,-0.67709 q 0.32161,-0.99023 0.47396,-1.24413 z"
 id="text4"
 style="font-size:17.3333px;line-height:1.6;font-family:'Segoe Print QD';-inkscape-font-specification:'Segoe Print QD';letter-spacing:0.999999px;word-spacing:2px;baseline-shift:baseline;stroke-width:0.999999px"
 transform="matrix(0.26458333,0,0,0.26458333,44.493458,0)"
 aria-label="99" />
</g>
</svg>
