<?xml version="1.0" encoding="UTF-8"?>
<svg width="63.295mm" height="30.581mm" version="1.1" viewBox="0 0 63.295 30.581" xmlns="http://www.w3.org/2000/svg">
<g transform="translate(-21.045 -14.878)">
<g fill="#fff" fill-rule="evenodd" stroke-width=".3">
<path d="m54.785 17.297h29.404v25.094h-29.404z" stop-color="#000000"/>
<path d="m21.195 18.287h31.641v24.604h-31.641z" stop-color="#000000"/>
<path d="m22.195 17.287h31.641v24.604h-31.641z" stop-color="#000000"/>
<path d="m54.785 16.297h28.404v25.094h-28.404z" stop-color="#000000"/>
</g>
<g fill="none" stroke="#b3b3b3" stroke-linecap="round" stroke-linejoin="round" stroke-width=".3">
<path d="m51.8 42.891h-30.606v-24.635" stop-color="#000000" style="-inkscape-stroke:none;font-variation-settings:normal"/>
<path d="m84.189 17.256v25.135h-28.122" stop-color="#000000" style="-inkscape-stroke:none;font-variation-settings:normal"/>
<path d="m51.854 41.891h-29.659v-24.635" stop-color="#000000" style="-inkscape-stroke:none;font-variation-settings:normal"/>
<path d="m83.189 16.256v25.135h-27.034" stop-color="#000000" style="-inkscape-stroke:none;font-variation-settings:normal"/>
</g>
<path d="m23.195 16.256c2.5217 0 26.516-0.93945 29.655 0.87264 2.7945-2.7945 24.433-0.73325 29.329-2.0554l0.2093 23.742c-5.8471 3.3758-22.097-0.0411-29.539 2.8514-0.76745-0.52999-22.087-1.0236-29.503-0.62327z" fill="#fff" fill-rule="evenodd" stop-color="#000000" stroke="#4d4d4d" stroke-width=".3" style="-inkscape-stroke:none;font-variation-settings:normal"/>
<g fill="none">
<path d="m56.867 21.477c7.2496-0.86322 21.461 0.19028 25.312-0.84977" stop-color="#000000" style="-inkscape-stroke:none;font-variation-settings:normal"/>
<path d="m56.873 26.476c7.2514-0.86196 21.456 0.1907 25.306-0.84907" stop-color="#000000" style="-inkscape-stroke:none;font-variation-settings:normal"/>
<path d="m56.828 32.814c8.2051-1.0705 20.61 0.93963 25.56-1.9181" stop-color="#000000" style="-inkscape-stroke:none;font-variation-settings:normal"/>
<path d="m56.883 37.807c8.2054-1.0546 20.567 0.94037 25.505-1.9111" stop-color="#000000" style="-inkscape-stroke:none;font-variation-settings:normal"/>
<path d="m27.17 38.006c9.1425-0.14416 25.02 0.28494 25.68 0.74096" stop-color="#000000" style="-inkscape-stroke:none;font-variation-settings:normal"/>
<path d="m27.195 26.701c7.6215-0.18305 23.19-0.47381 25.675 0.96136" stop-color="#000000" style="-inkscape-stroke:none;font-variation-settings:normal"/>
</g>
<path d="m52.85 17.469v24.131" fill="#fff" fill-rule="evenodd" stop-color="#000000" stroke="#4d4d4d" stroke-width=".3" style="-inkscape-stroke:none;font-variation-settings:normal"/>
<g fill="#333" stroke-width="1px">
<g stop-color="#000000" aria-label=" 16:30">
<path d="m31.959 23.859 0.03911 2.3189 0.42782-0.0072q0.15294-0.0026 0.21802 0.05628 0.06711 0.05675 0.06871 0.15182 0.0016 0.09301-0.06356 0.15406-0.06309 0.05895-0.21603 0.06153l-1.2793 0.02157q-0.15294 0.0026-0.22005-0.05418-0.06508-0.05886-0.06668-0.15393-0.0016-0.093 0.06152-0.15195 0.06513-0.06105 0.21807-0.06363l0.42782-0.0072-0.0298-1.7671-0.37654 0.10558q-0.09052 0.02633-0.13599 0.0271-0.0806 0.0014-0.14162-0.0617-0.05895-0.06309-0.06052-0.1561-0.0014-0.08474 0.04117-0.133 0.04257-0.05033 0.18041-0.08987z"/>
<path d="m34.185 25.124q0.1516-0.12976 0.28948-0.1891 0.13785-0.0614 0.29494-0.06306 0.33278-0.0035 0.58567 0.25842 0.25289 0.26193 0.2571 0.66085 0.0039 0.36998-0.22724 0.60188-0.2291 0.2298-0.62802 0.23401-0.33278 0.0035-0.54937-0.14924-0.2166-0.15275-0.32954-0.47404-0.11295-0.32129-0.11713-0.71814-5e-3 -0.4754 0.2087-0.79186 0.21369-0.31853 0.50537-0.49525 0.29168-0.17672 0.61825-0.18016 0.25837-0.0027 0.40205 0.09705 0.09373 0.06723 0.09484 0.17264 9.81e-4 0.09301-0.06035 0.15774-0.06135 0.06266-0.14817 0.06358-0.04961 5.23e-4 -0.14314-0.0481-0.05611-0.02835-0.10779-0.0278-0.20256 0.0021-0.41837 0.12017-0.21583 0.11597-0.37248 0.35535-0.1078 0.16651-0.1548 0.41507zm0.06892 0.65457q0.06876 0.24734 0.18133 0.3371 0.11464 0.08975 0.3234 0.08755t0.31922-0.11292q0.11253-0.11075 0.11054-0.29884-0.0023-0.21496-0.13399-0.35621-0.12965-0.14127-0.29088-0.13957-0.12815 0.0014-0.27357 0.12898-0.14336 0.12761-0.23606 0.35391z"/>
<path d="m37.721 24.953q2.98e-4 0.11989-0.08425 0.20072-0.08455 0.08083-0.23338 0.0812-0.14883 3.7e-4 -0.23378-0.08003t-0.08525-0.20029q-2.99e-4 -0.11989 0.08425-0.20072 0.08455-0.08083 0.23338-0.0812 0.14883-3.7e-4 0.23378 0.08003t0.08525 0.20029zm0.0076 1.387q2.99e-4 0.11989-0.08425 0.20072-0.08455 0.08083-0.23338 0.0812-0.14883 3.71e-4 -0.23378-0.08003-0.08495-0.0804-0.08525-0.20029-2.99e-4 -0.11989 0.08425-0.20072 0.08455-0.08083 0.23338-0.0812 0.14883-3.71e-4 0.23378 0.08003 0.08495 0.0804 0.08525 0.20029z"/>
<path d="m40.83 25.143q0.18707 0.12966 0.27872 0.2999 0.09167 0.16817 0.08999 0.37694-0.0018 0.2253-0.12738 0.41654-0.12348 0.18918-0.35785 0.28652-0.23435 0.09527-0.61261 0.09223-0.49194-4e-3 -0.73875-0.1589-0.13779-0.08793-0.13683-0.20781 7.31e-4 -0.09095 0.06117-0.15248 0.06253-0.06358 0.14934-0.06288 0.05994 4.82e-4 0.12369 0.04234 0.09045 0.06274 0.1709 0.08406 0.12379 0.02993 0.34082 0.03168 0.36999 3e-3 0.53611-0.09078 0.16614-0.09582 0.16755-0.27151 1e-3 -0.13022-0.09514-0.25089-0.0941-0.12272-0.2548-0.19016-0.09272-0.03795-0.31377-0.0542-0.10537-7e-3 -0.16278-0.06539-0.05533-0.06039-0.05463-0.1472 7.3e-4 -0.09095 0.06324-0.15246 0.06251-0.06151 0.15759-0.06075 0.21083 0.0017 0.22532-2.57e-4 0.08275-0.0076 0.16579-0.05241 0.08304-0.04481 0.13328-0.12296 0.05232-0.0802 0.053-0.16494 0.0011-0.13435-0.11802-0.23247-0.11702-0.10016-0.35472-0.10207-0.30591-0.0025-0.46857 0.17401-0.04796 0.05129-0.07701 0.06553-0.04359 0.02239-0.09733 0.02196-0.08681-6.97e-4 -0.14832-0.0632-0.06151-0.06251-0.06078-0.15346 0.0011-0.14262 0.19239-0.27545 0.27856-0.19414 0.69402-0.1908 0.39273 0.0032 0.62864 0.2283 0.23591 0.22514 0.23339 0.53933-0.0013 0.16329-0.07274 0.30535-0.07141 0.13999-0.21293 0.25875z"/>
<path d="m43.978 25.044-0.01051 0.46497q-0.0093 0.4133-0.2576 0.78606-0.2462 0.3728-0.6905 0.36277-0.25625-0.0058-0.43145-0.1214-0.17309-0.11763-0.32539-0.42294-0.15019-0.30733-0.14254-0.64624l0.0105-0.46497q0.0093-0.41124 0.25549-0.78404 0.24624-0.37487 0.69054-0.36483 0.25418 0.0057 0.42732 0.1213 0.1752 0.11561 0.32746 0.42298 0.15437 0.30536 0.14667 0.64633zm-0.4257-0.0096q0.0078-0.34511-0.17855-0.60777-0.1063-0.14506-0.30469-0.14955-0.19219-0.0043-0.31766 0.14996-0.18929 0.2335-0.19723 0.5848l-0.01051 0.46497q-0.0078 0.34718 0.18062 0.60782 0.10424 0.14502 0.30469 0.14955 0.19012 0.0043 0.3156-0.15001 0.18929-0.2335 0.19723-0.5848z"/>
</g>
<g stop-color="#000000" aria-label=" 13:30">
<path d="m31.985 35.235-0.0039 2.3192 0.42788 7.19e-4q0.15296 2.57e-4 0.21694 0.06031 0.06605 0.05799 0.06589 0.15307-1.56e-4 0.09302-0.0664 0.15285-0.06418 0.05777-0.21714 0.05751l-1.2795-0.0022q-0.15296-2.57e-4 -0.21901-0.05825-0.06398-0.06005-0.06382-0.15514 1.57e-4 -0.09302 0.06433-0.15079 0.06625-0.05983 0.21921-0.05958l0.42788 7.19e-4 3e-3 -1.7673-0.37844 0.09858q-0.09099 0.02465-0.13647 0.02457-0.08061-1.35e-4 -0.14045-0.06432-0.05777-0.06418-0.05761-0.15719 1.42e-4 -0.08475 0.04363-0.13222 0.04349-0.04954 0.18205-0.08651z"/>
<path d="m35.193 36.583q0.18696 0.12982 0.27848 0.30013 0.09153 0.16825 0.08969 0.37701-2e-3 0.2253-0.12771 0.41643-0.12363 0.18908-0.35808 0.28623-0.23443 0.09508-0.61268 0.09174-0.49194-0.0044-0.73862-0.1595-0.13772-0.08804-0.13666-0.20792 8.05e-4 -0.09095 0.0613-0.15243 0.06258-0.06353 0.14939-0.06276 0.05994 5.3e-4 0.12365 0.04244 0.0904 0.06281 0.17083 0.0842 0.12376 0.03003 0.3408 0.03195 0.36999 0.0033 0.53619-0.09035 0.16622-0.09569 0.16777-0.27138 0.0012-0.13022-0.09494-0.25096-0.094-0.12279-0.25464-0.19036-0.09269-0.03803-0.31372-0.05445-0.10536-0.0071-0.16272-0.06552-0.05528-0.06044-0.05451-0.14725 8.04e-4 -0.09095 0.06336-0.15241 0.06256-0.06146 0.15764-0.06062 0.21083 0.0019 0.22532-7.4e-5 0.08275-0.0075 0.16583-0.05228 0.08308-0.04474 0.13338-0.12285 0.05239-0.08015 0.05314-0.1649 0.0012-0.13435-0.11784-0.23256-0.11694-0.10026-0.35464-0.10236-0.30591-0.0027-0.46871 0.17363-0.048 0.05125-0.07706 0.06547-0.04361 0.02235-0.09735 0.02188-0.08681-7.67e-4 -0.14827-0.06333-0.06146-0.06256-0.06066-0.1535 0.0013-0.14262 0.19261-0.27529 0.27871-0.19391 0.69417-0.19024 0.39272 0.0035 0.62845 0.22881 0.23573 0.22534 0.23295 0.53952-0.0014 0.16329-0.07298 0.30529-0.07152 0.13993-0.21313 0.25857z"/>
<path d="m37.728 36.438q-0.0018 0.11988-0.08776 0.1992-0.08595 0.07933-0.23476 0.07709-0.14881-0.0022-0.23234-0.08413-0.08353-0.08188-0.08172-0.20176 0.0018-0.11988 0.08776-0.1992 0.08595-0.07933 0.23476-0.07709 0.14881 0.0022 0.23234 0.08413 0.08353 0.08188 0.08172 0.20176zm-0.01676 1.3869q-0.0018 0.11988-0.08776 0.1992-0.08595 0.07933-0.23476 0.07709-0.14881-0.0022-0.23234-0.08412-0.08353-0.08188-0.08172-0.20176 0.0018-0.11988 0.08776-0.1992 0.08595-0.07933 0.23476-0.07709 0.14881 0.0022 0.23234 0.08413 0.08353 0.08188 0.08172 0.20176z"/>
<path d="m40.829 36.675q0.18536 0.1321 0.27478 0.30352 0.08946 0.16936 0.08506 0.37808-0.0048 0.22526-0.13281 0.41484-0.12594 0.18755-0.36156 0.28182-0.23558 0.0922-0.61376 0.08422-0.49185-0.01038-0.73661-0.16855-0.13663-0.08972-0.1341-0.20958 0.0019-0.09093 0.06316-0.15166 0.06335-0.06275 0.15015-0.06092 0.05993 0.0013 0.12312 0.04395 0.08962 0.06392 0.16978 0.08628 0.12338 0.03155 0.34038 0.03613 0.36992 0.0078 0.53726-0.08376 0.16738-0.09364 0.17109-0.2693 0.0027-0.1302-0.09185-0.25211-0.09249-0.12394-0.25229-0.19347-0.09221-0.03916-0.31303-0.0583-0.10526-0.0084-0.16191-0.06751-0.05453-0.06111-0.0527-0.14791 0.0019-0.09093 0.06523-0.15162 0.06331-0.06069 0.15837-0.05868 0.21079 0.0045 0.2253 0.0027 0.08284-0.0065 0.16646-0.05024 0.08362-0.04372 0.13488-0.1212 0.05337-0.07951 0.05515-0.16424 0.0028-0.13433-0.11498-0.23399-0.1157-0.10168-0.35336-0.1067-0.30586-0.0065-0.4708 0.16787-0.04862 0.05066-0.07786 0.06452-0.04388 0.02182-0.09761 0.02068-0.0868-0.0018-0.14749-0.06514-0.06069-0.06331-0.05877-0.15424 3e-3 -0.1426 0.19597-0.27291 0.28107-0.19048 0.69645-0.18171 0.39265 0.0083 0.6256 0.2365 0.23295 0.22821 0.22632 0.54233-0.0034 0.16326-0.07672 0.30437-0.07323 0.13904-0.21629 0.25594z"/>
<path d="m43.965 36.599-0.01289 0.46491q-0.01146 0.41325-0.26163 0.78473-0.24811 0.37154-0.69235 0.35922-0.25622-0.0071-0.43082-0.12361-0.17248-0.11852-0.32322-0.4246-0.14861-0.3081-0.13922-0.64696l0.01289-0.46491q0.0114-0.41119 0.25951-0.78272 0.24816-0.3736 0.69241-0.36128 0.25415 7e-3 0.42669 0.1235 0.1746 0.11651 0.32528 0.42466 0.1528 0.30614 0.14335 0.64708zm-0.42565-0.0118q0.0096-0.34507-0.17543-0.60868-0.10556-0.14561-0.30392-0.15111-0.19216-0.0053-0.31843 0.14833-0.19049 0.23252-0.20023 0.58378l-0.01289 0.46491q-0.0096 0.34713 0.1775 0.60873 0.10349 0.14555 0.30392 0.15111 0.1901 0.0053 0.31636-0.14838 0.19049-0.23252 0.20023-0.58378z"/>
</g>
<g stop-color="#000000" aria-label=" 14:30">
<path d="m61.591 23.422 0.07527 2.318 0.42766-0.01389q0.15288-5e-3 0.21887 0.05287 0.06799 0.0557 0.07107 0.15073 3e-3 0.09297-0.06115 0.15503-0.06217 0.05993-0.21505 0.06489l-1.2788 0.04153q-0.15288 5e-3 -0.22087-0.05074-0.06599-0.05783-0.06908-0.15287-3e-3 -0.09297 0.05915-0.1529 0.06417-0.06206 0.21705-0.06702l0.42766-0.01389-0.05736-1.7664-0.37485 0.11144q-0.0901 0.02774-0.13555 0.02922-0.08057 0.0026-0.14257-0.05948-0.05993-0.06217-0.06294-0.15514-0.0028-0.0847 0.03909-0.13363 0.04178-0.05099 0.17899-0.09267z"/>
<path d="m64.856 23.433 0.0177 1.6577q0.13435-0.0014 0.19907 0.05782 0.06469 0.05719 0.06569 0.1502 9.93e-4 0.09301-0.06451 0.15366-0.06343 0.06062-0.19572 0.06204l0.0018 0.16949q0.13435-0.0014 0.19907 0.05782 0.06472 0.05926 0.06571 0.15227 9.93e-4 0.09301-0.06451 0.15366-0.06346 0.05856-0.21641 0.06019l-0.56841 0.0061q-0.15295 0.0016-0.21971-0.05553-0.06471-0.05926-0.06573-0.15434-9.93e-4 -0.09301 0.06246-0.15157 0.0655-0.06065 0.21846-0.06228l0.16536-0.0018-0.0018-0.16949-1.1513 0.01229-0.0038-0.35345 0.99642-1.7388zm-0.40602 1.6622-0.01112-1.0417-0.60276 1.0483z"/>
<path d="m67.395 24.509q-1.04e-4 0.11989-0.08492 0.20043-0.08482 0.08054-0.23365 0.08041-0.14883-1.29e-4 -0.23351-0.08082-0.08468-0.08069-0.08458-0.20058 1.04e-4 -0.11989 0.08492-0.20043 0.08482-0.08054 0.23365-0.08041 0.14883 1.29e-4 0.23351 0.08082 0.08468 0.08069 0.08458 0.20058zm0.0029 1.387q-1.03e-4 0.11989-0.08492 0.20043-0.08482 0.08054-0.23365 0.08041-0.14883-1.29e-4 -0.23351-0.08082-0.08468-0.08069-0.08458-0.20058 1.03e-4 -0.11989 0.08492-0.20043 0.08482-0.08054 0.23365-0.08041 0.14883 1.29e-4 0.23351 0.08082 0.08468 0.08069 0.08458 0.20058z"/>
<path d="m70.495 24.701q0.18745 0.1291 0.27962 0.29907 0.09217 0.1679 0.09112 0.37667-0.0011 0.22531-0.12612 0.41692-0.12291 0.18955-0.35699 0.28759-0.23406 0.09597-0.61233 0.09407-0.49195-0.0025-0.73923-0.15669-0.13805-0.08751-0.13745-0.2074 4.58e-4 -0.09095 0.06072-0.15266 0.06233-0.06377 0.14915-0.06333 0.05994 3.02e-4 0.12381 0.04197 0.09064 0.06247 0.17115 0.08355 0.12388 0.02956 0.34091 0.03066 0.37 0.0019 0.53584-0.09239 0.16585-0.09632 0.16674-0.27201 6.56e-4 -0.13022-0.09589-0.2506-0.09447-0.12243-0.25536-0.18939-0.09283-0.03768-0.31393-0.05326-0.10539-0.0067-0.16297-0.0649-0.05551-0.06022-0.05507-0.14704 4.58e-4 -0.09095 0.06278-0.15265 0.06232-0.0617 0.15741-0.06122 0.21084 0.0011 0.22532-9.32e-4 0.08272-0.0079 0.16563-0.05291 0.08291-0.04506 0.13291-0.12336 0.05208-0.08035 0.05251-0.1651 6.77e-4 -0.13436-0.11872-0.23211-0.11732-0.09981-0.35503-0.10101-0.30592-0.0015-0.46804 0.17541-0.0478 0.05144-0.07681 0.06576-0.04352 0.02252-0.09727 0.02225-0.08682-4.37e-4 -0.14851-0.06276-0.0617-0.06232-0.06124-0.15327 7.18e-4 -0.14262 0.19156-0.27602 0.27797-0.19497 0.69344-0.19288 0.39274 2e-3 0.62932 0.22642 0.23658 0.22444 0.235 0.53862-8.23e-4 0.1633-0.07182 0.30557-0.07099 0.1402-0.21215 0.25938z"/>
<path d="m73.614 24.555-9.53e-4 0.46509q-8.48e-4 0.41341-0.2414 0.79119-0.23849 0.37778-0.6829 0.37687-0.25632-5.26e-4 -0.43385-0.11251-0.17547-0.11405-0.33401-0.41616-0.15647-0.30418-0.15578-0.64318l9.54e-4 -0.46509q8.43e-4 -0.41134 0.23933-0.78913 0.23849-0.37985 0.68291-0.37894 0.25425 5.21e-4 0.42972 0.1125 0.17754 0.11198 0.33608 0.41617 0.16061 0.30212 0.15991 0.64318zm-0.42581-8.73e-4q7.07e-4 -0.3452-0.191-0.60397-0.10926-0.14285-0.3077-0.14326-0.19224-3.94e-4 -0.31451 0.15645-0.18446 0.23733-0.18518 0.58873l-9.53e-4 0.46509q-7.12e-4 0.34726 0.19306 0.60398 0.10719 0.14285 0.3077 0.14326 0.19017 3.9e-4 0.31245-0.15646 0.18446-0.23733 0.18518-0.58873z"/>
</g>
</g>
<g stroke-width="1px">
<g fill="#e62e6c" stop-color="#000000" aria-label="Ven 26 mai">
<path d="m56.606 30.273 0.8132-0.07317 0.72901 1.759 0.39472-1.8601 0.78918-0.07101-0.70699 2.5991-0.84237 0.07579z" stop-color="#000000"/>
<path d="m61.908 31.733-1.4048 0.04847q0.02476 0.16806 0.09991 0.24819 0.10567 0.11528 0.26921 0.10964 0.10329-0.0036 0.19447-0.05842 0.05568-0.03467 0.11825-0.11956l0.69253 0.03988q-0.14888 0.28091-0.36851 0.40914-0.2197 0.12651-0.63803 0.14094-0.36324 0.01253-0.57505-0.08185-0.21187-0.0961-0.35725-0.31343-0.14372-0.2191-0.15412-0.52037-0.01479-0.42866 0.24978-0.70322 0.2663-0.27462 0.75004-0.29131 0.39251-0.01354 0.62385 0.0974 0.23134 0.11094 0.35791 0.33236 0.12657 0.22142 0.13904 0.58294zm-0.72429-0.3111q-0.02767-0.20243-0.12022-0.28714-0.09083-0.08477-0.23544-0.07978-0.16699 0.0058-0.26226 0.14176-0.06085 0.08483-0.07242 0.24897z" stop-color="#000000"/>
<path d="m62.378 30.641 0.65284-0.0035 0.0016 0.298q0.14545-0.18336 0.2949-0.26167 0.14944-0.08003 0.36476-0.08117 0.2911-0.0015 0.45566 0.17157 0.16627 0.17138 0.16818 0.53311l0.0061 1.1627-0.70451 0.0037-0.0053-1.006q-9.11e-4 -0.17225-0.06502-0.24254-0.06412-0.07201-0.17952-0.0714-0.12747 6.73e-4 -0.20619 0.09755-0.07873 0.09688-0.07741 0.34665l0.0046 0.87848-0.70107 0.0037z" stop-color="#000000"/>
<path d="m68.433 32.505-2.1048-0.02578q0.03999-0.31131 0.22592-0.58294 0.18767-0.27333 0.69692-0.64091 0.31112-0.22531 0.39869-0.3431 0.08758-0.11779 0.08888-0.22458 0.0014-0.1154-0.08372-0.19741-0.08339-0.08371-0.21257-0.08529-0.13435-0.0016-0.2215 0.0817-0.08543 0.08336-0.11733 0.29659l-0.70205-0.06545q0.04497-0.29575 0.15722-0.45975 0.11228-0.16572 0.31316-0.25112 0.20262-0.0871 0.55744-0.08275 0.37032 0.0045 0.57425 0.09144 0.20566 0.08693 0.32063 0.26405 0.11672 0.17542 0.11406 0.39244-0.0028 0.2308-0.14147 0.43927-0.13692 0.20849-0.49654 0.4556-0.21365 0.14381-0.28671 0.20149-0.07134 0.0577-0.16895 0.15125l1.0955 0.01342z" stop-color="#000000"/>
<path d="m70.913 30.57-0.69822 0.08117q-0.02652-0.14661-0.09155-0.20736-0.0633-0.06074-0.15804-0.06141-0.17053-0.0012-0.26649 0.17037-0.06978 0.12353-0.1054 0.52981 0.12665-0.12657 0.25971-0.18592 0.13307-0.06107 0.30705-0.05983 0.33761 0.0024 0.56844 0.2452 0.23255 0.24281 0.22992 0.61315-0.0018 0.24976-0.12209 0.45562-0.1186 0.20587-0.3295 0.31117-0.20917 0.10359-0.52439 0.10135-0.37895-0.0027-0.60713-0.13351-0.22818-0.13081-0.36397-0.41428-0.13406-0.28518-0.13074-0.75198 0.0049-0.68383 0.29476-0.99873 0.28992-0.31662 0.79978-0.313 0.30144 0.0021 0.47491 0.074 0.17521 0.07015 0.28966 0.20532 0.11445 0.13518 0.1733 0.33886zm-1.2999 1.1156q-0.0015 0.20498 0.10106 0.32284 0.10253 0.11614 0.25239 0.11721 0.1378 9.78e-4 0.23156-0.10343 0.09376-0.10441 0.09524-0.31283 0.0015-0.21359-0.09415-0.32624-0.09567-0.11265-0.23863-0.11366-0.14641-1e-3 -0.24709 0.10677-0.09895 0.10782-0.10038 0.30935z" stop-color="#000000"/>
<path d="m72.92 30.705 0.65396-0.02815 0.01148 0.26675q0.13393-0.17301 0.27374-0.24971 0.14152-0.07678 0.3446-0.08552 0.21856-0.0094 0.34924 0.06255 0.13068 0.07196 0.21816 0.22164 0.15751-0.18609 0.29072-0.25562 0.13314-0.07125 0.33277-0.07984 0.29428-0.01267 0.46705 0.15576 0.17269 0.1667 0.18869 0.53843l0.04941 1.1479-0.70215 0.03022-0.04481-1.0412q-0.0053-0.12391-0.05611-0.18207-0.07463-0.09162-0.17961-0.0871-0.12391 0.0053-0.19578 0.09808-0.07187 0.09275-0.06335 0.29066l0.04059 0.94308-0.70215 0.03022-0.04333-1.0068q-0.0052-0.12047-0.0208-0.1629-0.02534-0.06788-0.08218-0.10681-0.05692-0.04065-0.13092-0.03747-0.12047 0.0052-0.19398 0.09973-0.07352 0.09454-0.06455 0.30278l0.04015 0.93276-0.70215 0.03022z" stop-color="#000000"/>
<path d="m77.131 31.045-0.67368 0.01191q0.01611-0.17902 0.07398-0.28682 0.05937-0.10972 0.18365-0.19967 0.0892-0.0648 0.25316-0.11452 0.16396-0.04972 0.35885-0.07375 0.31286-0.03857 0.50705-0.02607 0.19398 0.0108 0.33419 0.10632 0.09838 0.06597 0.16717 0.20154 0.06857 0.13386 0.08438 0.26208l0.09886 0.8018q0.01581 0.12822 0.04026 0.19984 0.02595 0.06969 0.09457 0.17578l-0.65307 0.08052q-0.04796-0.06524-0.06436-0.09967-0.0166-0.03614-0.03827-0.1133-0.12054 0.1485-0.24864 0.22157-0.17536 0.09799-0.41983 0.12813-0.32482 0.04005-0.51262-0.08953-0.18609-0.12979-0.21328-0.35032-0.02551-0.20686 0.07943-0.35518 0.10494-0.14832 0.42346-0.25354 0.3818-0.12691 0.49426-0.17202 0.11225-0.04682 0.23585-0.11412-0.01581-0.12822-0.07513-0.17297-0.05932-0.04475-0.19267-0.02831-0.17096 0.02108-0.24969 0.08633-0.06141 0.05096-0.08789 0.17398zm0.6486 0.29144q-0.13728 0.06899-0.28801 0.1275-0.20503 0.08255-0.2547 0.14422-0.05117 0.06358-0.04232 0.13539 0.01012 0.08206 0.07307 0.1281 0.06445 0.04412 0.17557 0.03042 0.11625-0.01433 0.20845-0.08298 0.09391-0.06885 0.12503-0.15426 0.03262-0.08733 0.0166-0.21726z" stop-color="#000000"/>
<path d="m78.606 29.532 0.68556-0.14668 0.09983 0.46658-0.68556 0.14668zm0.1456 0.68051 0.68556-0.14668 0.38275 1.7889-0.68556 0.14668z" stop-color="#000000"/>
</g>
<g fill="#333" stop-color="#000000" aria-label=" 15:30">
<path d="m61.618 34.744 0.06001 2.3185 0.42774-0.01107q0.15291-4e-3 0.21852 0.05431 0.06762 0.05615 0.07008 0.1512 0.0024 0.09299-0.06217 0.15462-0.06256 0.05952-0.21547 0.06347l-1.2791 0.0331q-0.15291 4e-3 -0.22053-0.05219-0.06561-0.05827-0.06807-0.15332-0.0024-0.09299 0.06015-0.1525 0.06457-0.06164 0.21748-0.06559l0.42774-0.01107-0.04573-1.7667-0.37558 0.10897q-0.09028 0.02715-0.13574 0.02833-0.08059 0.0021-0.14217-0.06042-0.05952-0.06256-0.06192-0.15555-0.0022-0.08472 0.03997-0.13337 0.04211-0.05072 0.17959-0.09149z"/>
<path d="m63.926 35.212-8.08e-4 0.50436q0.23576-0.07404 0.428-0.07373 0.39067 6.26e-4 0.64863 0.26769 0.25796 0.26706 0.25728 0.68874-6.96e-4 0.43408-0.26361 0.68171-0.26084 0.24556-0.80034 0.2447-0.47542-7.62e-4 -0.75212-0.18104-0.16106-0.10361-0.16085-0.23797 1.36e-4 -0.08475 0.06225-0.14666 0.06418-0.06398 0.151-0.06384 0.07235 1.16e-4 0.15698 0.07053 0.08464 0.06835 0.17761 0.09537 0.13223 0.03949 0.33893 0.03982 0.38447 6.16e-4 0.52523-0.12112 0.14076-0.1238 0.14116-0.37804 4.01e-4 -0.25011-0.1358-0.39296-0.13413-0.14284-0.34704-0.14318-0.22944-3.68e-4 -0.5232 0.14799-0.0662 0.03503-0.11581 0.03495-0.09095-1.46e-4 -0.15286-0.06639-0.05984-0.06624-0.05967-0.17166l2e-3 -1.2237 1.296 0.0021q0.15296 2.46e-4 0.21694 0.06029 0.06605 0.05798 0.0659 0.15307-1.49e-4 0.09302-0.06639 0.15286-0.06417 0.05777-0.21713 0.05753z"/>
<path d="m67.422 35.898q-0.0014 0.11988-0.08714 0.19948-0.08571 0.0796-0.23452 0.07782-0.14882-0.0018-0.2326-0.0834-0.08378-0.08162-0.08235-0.2015 0.0014-0.11988 0.08714-0.19948 0.08571-0.0796 0.23452-0.07782 0.14882 0.0018 0.2326 0.0834 0.08378 0.08162 0.08235 0.2015zm-0.01245 1.3869q-0.0014 0.11988-0.08714 0.19948-0.08571 0.0796-0.23452 0.07782-0.14882-0.0018-0.2326-0.0834-0.08378-0.08162-0.08235-0.2015 0.0014-0.11988 0.08714-0.19948 0.08571-0.0796 0.23452-0.07782 0.14882 0.0018 0.2326 0.0834 0.08378 0.08162 0.08235 0.2015z"/>
<path d="m70.507 36.108q0.18719 0.12948 0.27901 0.29963 0.09183 0.16808 0.09036 0.37685-0.0016 0.2253-0.12697 0.41666-0.1233 0.1893-0.35757 0.28687-0.23426 0.0955-0.61252 0.09283-0.49195-0.0035-0.73891-0.15818-0.13788-0.08779-0.13703-0.20768 6.41e-4 -0.09095 0.06102-0.15254 0.06246-0.06364 0.14928-0.06303 0.05994 4.23e-4 0.12373 0.04221 0.09051 0.06265 0.17098 0.08389 0.12382 0.02981 0.34085 0.03134 0.36999 0.0026 0.53602-0.09131 0.16605-0.09598 0.16728-0.27168 9.19e-4 -0.13022-0.09538-0.25079-0.09422-0.12262-0.25498-0.18991-0.09275-0.03786-0.31382-0.05389-0.10537-0.0069-0.16284-0.06523-0.05539-0.06034-0.05477-0.14715 6.42e-4 -0.09095 0.06309-0.15252 0.06245-0.06157 0.15753-0.0609 0.21084 0.0015 0.22532-4.78e-4 0.08274-0.0077 0.16574-0.05257 0.083-0.04489 0.13316-0.12309 0.05224-0.08025 0.05284-0.165 9.48e-4 -0.13436-0.11825-0.23235-0.11712-0.10005-0.35482-0.10172-0.30592-0.0022-0.4684 0.17447-0.04791 0.05134-0.07695 0.0656-0.04357 0.02243-0.09731 0.02205-0.08681-6.12e-4 -0.14839-0.06306-0.06157-0.06245-0.06093-0.1534 1e-3 -0.14262 0.19212-0.27564 0.27836-0.19441 0.69383-0.19148 0.39273 0.0028 0.62886 0.22768 0.23613 0.22491 0.23391 0.5391-0.0012 0.16329-0.07244 0.30542-0.07127 0.14006-0.21267 0.25896z"/>
<path d="m73.596 35.929 7e-3 0.46504q0.0062 0.41336-0.2279 0.79518-0.23202 0.38179-0.67639 0.38844-0.25629 0.0038-0.4357-0.10511-0.17738-0.11104-0.34105-0.41042-0.16163-0.30147-0.1667-0.64043l-7e-3 -0.46504q-0.0062-0.4113 0.22586-0.79309 0.23199-0.38386 0.67636-0.39051 0.25422-0.0038 0.43157 0.10517 0.17942 0.10895 0.34311 0.41039 0.16573 0.29934 0.17084 0.64037zm-0.42577 0.0064q-0.0052-0.34516-0.20125-0.60063-0.11168-0.141-0.31009-0.13802-0.19222 0.0029-0.31181 0.16178-0.18039 0.24044-0.17513 0.5918l7e-3 0.46504q0.0052 0.34723 0.20332 0.6006 0.10961 0.141 0.31009 0.138 0.19015-0.0028 0.30974-0.16175 0.18039-0.24044 0.17513-0.5918z"/>
</g>
<g fill="#e62e6c" stop-color="#000000" aria-label="Jeu 25 mai">
<path d="m57.946 18.832 0.77908-0.06785 0.11912 1.3677q0.03751 0.43073-0.02013 0.66226-0.05593 0.23138-0.27399 0.40772-0.21635 0.17619-0.57672 0.20758-0.38096 0.03318-0.59929-0.05155-0.21833-0.08473-0.35049-0.27206-0.1306-0.1892-0.1766-0.47914l0.73423-0.16596q0.01621 0.16631 0.05069 0.24457 0.03448 0.07826 0.10403 0.12235 0.04746 0.02872 0.12983 0.02154 0.13042-0.01136 0.18211-0.11269 0.05326-0.1032 0.03323-0.33315z" stop-color="#000000"/>
<path d="m61.549 20.419-1.4043 0.060757q0.02623 0.16783 0.10208 0.24731 0.10667 0.11435 0.27016 0.10728 0.10326-0.0045 0.19395-0.06012 0.05538-0.03515 0.1172-0.12059l0.69285 0.03382q-0.14641 0.2822-0.36492 0.41234-0.21858 0.12842-0.63677 0.14652-0.36312 0.01571-0.57574-0.07681-0.2127-0.09425-0.35998-0.31029-0.14563-0.21784-0.15866-0.519-0.01854-0.42851 0.24362-0.70538 0.26388-0.27694 0.74746-0.29786 0.39237-0.01698 0.62467 0.09194 0.2323 0.10892 0.3608 0.32922 0.1285 0.2203 0.14413 0.5817zm-0.72698-0.30476q-0.02944-0.20218-0.12272-0.28607-0.09157-0.08397-0.23612-0.07772-0.16693 0.0072-0.26101 0.14405-0.0601 0.08536-0.07024 0.24959z" stop-color="#000000"/>
<path d="m63.963 21.114-0.65445 0.01236-0.005592-0.29623q-0.14294 0.18532-0.29132 0.26565-0.14665 0.0803-0.36365 0.08439-0.28934 0.0055-0.45792-0.16364-0.1669-0.17086-0.17369-0.5308l-0.02198-1.1642 0.7044-0.0133 0.01899 1.0058q0.0033 0.17222 0.06834 0.24336 0.06509 0.07113 0.18048 0.06895 0.12572-0.0024 0.20313-0.10032 0.07912-0.09797 0.07441-0.3477l-0.01661-0.88006 0.70095-0.01323z" stop-color="#000000"/>
<path d="m68.082 21.104-2.1049-0.0018q0.03644-0.31175 0.21927-0.58548 0.18455-0.27545 0.68958-0.64881 0.30853-0.22883 0.39476-0.34762 0.08623-0.11878 0.08632-0.22558 9.9e-5 -0.11541-0.08596-0.19644-0.08433-0.08275-0.21352-0.08287-0.13436-1.15e-4 -0.22056 0.08421-0.08448 0.08433-0.11394 0.2979l-0.70275-0.05745q0.0416-0.29624 0.15198-0.46151 0.11039-0.16699 0.31028-0.25467 0.20162-0.0894 0.55646-0.08909 0.37035 3.18e-4 0.57526 0.0849 0.20663 0.08458 0.32362 0.26038 0.11871 0.17408 0.11852 0.39112-1.99e-4 0.23082-0.13646 0.44085-0.13454 0.21004-0.49132 0.46122-0.212 0.14623-0.2844 0.20474-0.07068 0.05851-0.16722 0.15316l1.0955 9.43e-4z" stop-color="#000000"/>
<path d="m68.813 18.583 1.6657 0.0082-0.0028 0.55982-1.1283-0.0056-0.06216 0.37866q0.1174-0.05454 0.23123-0.08154 0.11554-0.02699 0.22751-0.02644 0.37896 0.0019 0.61381 0.23213 0.23486 0.23026 0.23314 0.57821-0.0012 0.2446-0.12462 0.46964-0.12169 0.22506-0.3462 0.3428-0.22279 0.11776-0.57074 0.11604-0.24977-0.0012-0.42868-0.04862-0.17718-0.04911-0.30247-0.14274-0.12355-0.09535-0.20048-0.21459-0.07693-0.11924-0.12773-0.29691l0.71006-0.07401q0.025 0.17066 0.11929 0.2607 0.0943 0.08832 0.22522 0.08896 0.14641 7.22e-4 0.2417-0.10905 0.09701-0.11149 0.0981-0.33197 0.0011-0.22565-0.09483-0.3312-0.09594-0.10555-0.25614-0.10634-0.10163-5.01e-4 -0.19661 0.04899-0.0708 0.03582-0.15567 0.13015l-0.59729-0.08908z" stop-color="#000000"/>
<path d="m72.642 19.302 0.65456-0.0024 9.6e-4 0.26699q0.14065-0.16759 0.28336-0.23873 0.14444-0.07114 0.3477-0.07187 0.21876-7.86e-4 0.34651 0.07627 0.12775 0.07706 0.20926 0.23007 0.16472-0.17974 0.30057-0.24396 0.13584-0.06594 0.33566-0.06666 0.29455-0.0011 0.46055 0.17404 0.16599 0.17338 0.16732 0.54545l0.0041 1.1489-0.70279 0.0025-0.0037-1.0421q-4.46e-4 -0.12402-0.04889-0.18414-0.07096-0.09449-0.17604-0.09411-0.12402 4.46e-4 -0.19949 0.09029-0.07547 0.08984-0.07476 0.28794l0.0034 0.94395-0.70279 0.0025-0.0036-1.0077q-4.34e-4 -0.12058-0.01437-0.16359-0.02264-0.06882-0.07791-0.10996-0.05528-0.04287-0.12934-0.0426-0.12058 4.33e-4 -0.19776 0.09201-0.07719 0.09157-0.07644 0.3l0.0034 0.93361-0.70279 0.0025z" stop-color="#000000"/>
<path d="m76.909 19.86-0.67174-0.05243q0.03312-0.17666 0.10101-0.27845 0.06957-0.10355 0.20186-0.18124 0.09498-0.05599 0.26293-0.08985 0.16795-0.03385 0.36425-0.03918 0.31511-0.0085 0.50722 0.02243 0.19207 0.02925 0.32252 0.13772 0.09164 0.07506 0.14718 0.21657 0.05549 0.1398 0.05899 0.26894l0.02191 0.80758q0.0035 0.12914 0.02101 0.20276 0.01918 0.07185 0.07737 0.184l-0.65777 0.01784q-0.04152-0.06952-0.05455-0.10536-0.01308-0.03755-0.02728-0.11644-0.13416 0.13632-0.26865 0.19684-0.18391 0.08081-0.43014 0.08749-0.32716 0.0089-0.50174-0.13803-0.17286-0.14695-0.17888-0.36908-0.0057-0.20835 0.11296-0.34598 0.11861-0.13762 0.44572-0.21198 0.39217-0.08991 0.50842-0.12408 0.1162-0.03589 0.24567-0.0911-0.0035-0.12914-0.05828-0.17935-0.05478-0.05021-0.18909-0.04657-0.17219 0.0047-0.25679 0.06211-0.06599 0.04487-0.10409 0.1648zm0.61783 0.352q-0.14324 0.05558-0.29886 0.09944-0.21198 0.06262-0.2673 0.11926-0.057 0.05841-0.05504 0.13073 0.0022 0.08265 0.06051 0.13449 0.05995 0.05007 0.17187 0.04703 0.11709-0.0032 0.21542-0.06271 0.10005-0.05958 0.13918-0.14163 0.04081-0.08382 0.03726-0.21468z" stop-color="#000000"/>
<path d="m78.664 18.51 0.69985-0.04138 0.02816 0.47631-0.69985 0.04138zm0.04107 0.69469 0.69985-0.04138 0.10797 1.8262-0.69985 0.04138z" stop-color="#000000"/>
</g>
</g>
<path d="m27.195 21.701c7.6215-0.18305 23.19-0.47381 25.675 0.96136" fill="none" stop-color="#000000" style="-inkscape-stroke:none;font-variation-settings:normal"/>
<path d="m52.85 17.129-0.0156 27.912c0.26542-0.52572 0.9874-1.2265 1.3238-1.5085l1.0971 0.91387-0.23317-28.225c-0.7327 0.19406-1.4712 0.31532-2.1721 0.90818z" fill="#e62e6c" fill-rule="evenodd" stop-color="#000000" stroke="#8c113a" stroke-linecap="round" stroke-linejoin="round" stroke-width=".3" style="-inkscape-stroke:none;font-variation-settings:normal"/>
<path d="m27.17 33.006c9.1425-0.14416 25.02 0.28494 25.68 0.74096" fill="none" stop-color="#000000" style="-inkscape-stroke:none;font-variation-settings:normal"/>
<g fill="#e62e6c" stop-color="#000000" stroke-width="1px" aria-label="Lun 22 mai">
<path d="m27.322 19.172 0.78011-0.01766 0.04308 1.9029 1.2175-0.02757 0.01407 0.62168-1.9976 0.04523z"/>
<path d="m31.807 21.604-0.65445 0.01224-0.0055-0.29623q-0.14298 0.1853-0.29136 0.2656-0.14666 0.08027-0.36367 0.08433-0.28934 0.0054-0.45789-0.16372-0.16687-0.17089-0.1736-0.53084l-0.02178-1.1642 0.7044-0.01318 0.01881 1.0058q0.0032 0.17222 0.0683 0.24337 0.06508 0.07114 0.18047 0.06898 0.12572-0.0024 0.20314-0.10028 0.07914-0.09796 0.07447-0.34768l-0.01646-0.88007 0.70095-0.01311z"/>
<path d="m32.342 19.766 0.65278-0.0089 4e-3 0.29797q0.14392-0.18456 0.29272-0.2641 0.14877-0.08126 0.36407-0.08419 0.29108-0.0039 0.45707 0.16779 0.16769 0.16999 0.1726 0.5317l0.01578 1.1626-0.70446 0.0096-0.01365-1.0059q-0.0023-0.17224-0.06702-0.24199-0.06471-0.07147-0.18011-0.06991-0.12746 0.0017-0.20538 0.09926-0.07792 0.09753-0.07453 0.34727l0.01192 0.87842-0.70101 0.0095z"/>
<path d="m38.419 21.545-2.1049 0.0053q0.03538-0.31187 0.21728-0.58622 0.18361-0.27607 0.68737-0.65114 0.30775-0.22988 0.39358-0.34895 0.08583-0.11907 0.08556-0.22587-2.92e-4 -0.11541-0.08662-0.19615-0.08461-0.08247-0.2138-0.08214-0.13436 3.4e-4 -0.22027 0.08496-0.08419 0.08462-0.11293 0.29829l-0.70294-0.05506q0.04059-0.29638 0.15042-0.46202 0.10982-0.16736 0.30941-0.25572 0.20131-0.09008 0.55615-0.09098 0.37035-9.37e-4 0.57554 0.08295 0.20692 0.08388 0.3245 0.25928 0.1193 0.17368 0.11985 0.39072 5.84e-4 0.23082-0.13496 0.44131-0.13383 0.21049-0.48975 0.46288-0.2115 0.14695-0.2837 0.2057-0.07048 0.05874-0.1667 0.15373l1.0955-0.0028z"/>
<path d="m40.906 21.559-2.1049-0.01394q0.03824-0.31153 0.22264-0.5842 0.18613-0.27438 0.6933-0.64482 0.30985-0.22705 0.39676-0.34534 0.08691-0.11828 0.08762-0.22508 7.64e-4 -0.11541-0.08483-0.19694-0.08385-0.08324-0.21304-0.0841-0.13436-8.89e-4 -0.22104 0.08294-0.08496 0.08384-0.11566 0.29724l-0.70241-0.06149q0.0433-0.296 0.15464-0.46063 0.11135-0.16635 0.31174-0.25288 0.20213-0.08824 0.55696-0.08589 0.37034 0.0025 0.57476 0.08821 0.20614 0.08577 0.32211 0.26224 0.1177 0.17476 0.11626 0.3918-0.0015 0.23082-0.139 0.44006-0.13575 0.20926-0.49397 0.45838-0.21284 0.14501-0.28557 0.2031-0.07101 0.0581-0.1681 0.1522l1.0955 0.0073z"/>
<path d="m43.047 19.757 0.6542 0.02195-9e-3 0.26684q0.14677-0.16226 0.29203-0.22805 0.14698-0.06573 0.35013-0.05892 0.21864 0.0073 0.34344 0.08908 0.1248 0.08175 0.20057 0.23768 0.17132-0.17349 0.30947-0.23262 0.1382-0.06086 0.3379-0.05415 0.29439 0.0099 0.45377 0.19102 0.15944 0.17942 0.14696 0.55128l-0.03853 1.1483-0.7024-0.02357 0.03495-1.0416q0.0042-0.12395-0.04202-0.18583-0.06741-0.09705-0.17242-0.10058-0.12395-0.0042-0.20271 0.08282-0.07875 0.08698-0.0854 0.28496l-0.03166 0.94342-0.7024-0.02357 0.03379-1.0071q4e-3 -0.12051-0.0083-0.16401-0.02007-0.06961-0.07377-0.11278-0.05365-0.04489-0.12767-0.04737-0.12051-4e-3 -0.20104 0.0846-0.08053 0.08864-0.08752 0.29695l-0.03131 0.93309-0.7024-0.02357z"/>
<path d="m47.36 20.527-0.66388-0.11512q0.04952-0.17278 0.12664-0.26776 0.07896-0.09658 0.21795-0.16154 0.09981-0.04685 0.27019-0.06482 0.17039-0.01797 0.36632-0.0049 0.31452 0.021 0.50289 0.06984 0.18848 0.04711 0.30821 0.16732 0.08421 0.08331 0.12624 0.22941 0.04215 0.14438 0.03354 0.27328l-0.05383 0.80608q-0.0086 0.1289 0.0019 0.20384 0.01237 0.07333 0.05979 0.19044l-0.65655-0.04384q-0.03482-0.07311-0.04445-0.11-0.0095-0.03862-0.01626-0.11848-0.14634 0.12316-0.2859 0.17081-0.19067 0.06323-0.43645 0.04682-0.32652-0.021808-0.48657-0.18442-0.15833-0.1625-0.14353-0.38421 0.01389-0.20796 0.14487-0.33388 0.13098-0.12591 0.46362-0.1693 0.39887-0.05278 0.5178-0.07591 0.11905-0.02485 0.25312-0.06769 0.0086-0.1289-0.04123-0.18402-0.04984-0.05512-0.1839-0.06407-0.17187-0.01148-0.26148 0.03778-0.0699 0.03849-0.11907 0.15433zm0.58214 0.40832q-0.14782 0.04192-0.30686 0.07101-0.21691 0.04249-0.2773 0.0937-0.06222 0.05282-0.06704 0.125-0.0055 0.0825 0.04765 0.13957 0.05499 0.05546 0.16671 0.06292 0.11687 0.0078 0.22035-0.04226 0.10519-0.04995 0.15184-0.12797 0.04848-0.07963 0.0572-0.21025z"/>
<path d="m49.406 19.392 0.69726 0.073-0.04968 0.47455-0.69726-0.073zm-0.07246 0.69212 0.69726 0.073-0.19048 1.8194-0.69726-0.073z"/>
</g>
<g fill="#e62e6c" stop-color="#000000" stroke-width="1px" aria-label="Mar 23 mai">
<path d="m27.394 30.473 1.0266-0.0086 0.40898 1.5332 0.38164-1.5397 1.0232-0.0085 0.02105 2.5252-0.63732 0.0053-0.01606-1.9257-0.4783 1.9299-0.57703 0.0048-0.50869-1.9216 0.01605 1.9257-0.63904 0.0053z" stop-color="#000000"/>
<path d="m31.475 31.741-0.66994-0.07183q0.03821-0.17563 0.10901-0.27541 0.07253-0.1015 0.20702-0.17533 0.09656-0.05323 0.26542-0.08221 0.16886-0.02898 0.36523-0.02863 0.31522 5.65e-4 0.50636 0.03708 0.19114 0.03479 0.31841 0.14699 0.08943 0.07768 0.14085 0.22074 0.05142 0.14134 0.05119 0.27053l-0.0014 0.80787q-2.31e-4 0.12919 0.01514 0.20329 0.0171 0.07238 0.07201 0.18616l-0.65801-0.0012q-0.03949-0.0707-0.05148-0.10689-0.01199-0.03792-0.02391-0.11718-0.13804 0.13239-0.27422 0.18899-0.18617 0.07546-0.43249 0.07502-0.32728-5.87e-4 -0.49754-0.15248-0.16858-0.15186-0.16818-0.37406 3.73e-4 -0.20843 0.12292-0.34257 0.12254-0.13414 0.45166-0.19901 0.3946-0.07853 0.51179-0.10933 0.11719-0.03252 0.2482-0.08396 2.32e-4 -0.12919-0.05307-0.18096-0.05331-0.05177-0.18766-0.05201-0.17225-3.09e-4 -0.25848 0.05466-0.06726 0.04294-0.10881 0.16172zm0.6074 0.36971q-0.14479 0.05142-0.30161 0.09075-0.2137 0.05646-0.27064 0.11148-0.05867 0.05674-0.0588 0.12908-1.48e-4 0.08268 0.0566 0.13618 0.05847 0.05178 0.17044 0.05198 0.11713 2.1e-4 0.21714-0.05645 0.10173-0.05666 0.14322-0.13755 0.04321-0.08261 0.04345-0.21352z" stop-color="#000000"/>
<path d="m33.343 31.154 0.65627 0.0048-0.0022 0.29972q0.09615-0.19396 0.19658-0.26558 0.10216-0.07333 0.2503-0.07226 0.15502 0.0011 0.33863 0.09892l-0.22066 0.49795q-0.12364-0.05258-0.19599-0.0531-0.1378-1e-3 -0.21441 0.11214-0.10968 0.1594-0.11287 0.59864l-0.0044 0.61321-0.7045-0.0051z" stop-color="#000000"/>
<path d="m38.587 33.046-2.1047-0.03253q0.04099-0.31118 0.22779-0.58221 0.18855-0.27273 0.69897-0.63868 0.31184-0.22431 0.39979-0.34182 0.08795-0.11751 0.0896-0.2243 0.0018-0.1154-0.08308-0.19768-0.08312-0.08398-0.21229-0.08597-0.13434-0.0021-0.22176 0.08099-0.0857 0.08309-0.11828 0.29621l-0.70184-0.0677q0.04592-0.2956 0.1587-0.45924 0.11281-0.16536 0.31396-0.25011 0.2029-0.08645 0.5577-0.08096 0.3703 0.0057 0.57396 0.09328 0.20538 0.08759 0.31978 0.26508 0.11615 0.17579 0.1128 0.39281-0.0036 0.23079-0.14288 0.43882-0.13759 0.20805-0.498 0.454-0.21411 0.14312-0.28735 0.20057-0.07152 0.05747-0.16944 0.15071l1.0954 0.01693z" stop-color="#000000"/>
<path d="m39.742 31.273-0.66056-0.13262q0.08925-0.31516 0.32698-0.47906 0.23945-0.16387 0.66999-0.15491 0.49426 0.01028 0.71087 0.19914 0.2166 0.18886 0.2108 0.46785-0.0034 0.16361-0.09571 0.29435-0.09231 0.13074-0.27522 0.22687 0.14563 0.03921 0.22213 0.08904 0.12411 0.08011 0.19034 0.20899 0.06799 0.12719 0.06434 0.30285-0.0046 0.22044-0.1242 0.42125-0.11958 0.19909-0.33886 0.3048-0.21925 0.10398-0.5723 0.09664-0.34443-0.0072-0.54252-0.09226-0.19637-0.08506-0.32231-0.24274-0.12418-0.15937-0.18816-0.39674l0.70286-0.07842q0.03693 0.21269 0.12132 0.29714 0.08615 0.08277 0.22048 0.08556 0.14122 0.0029 0.23636-0.09846 0.09687-0.10136 0.10045-0.27358 0.0037-0.17566-0.08562-0.274-0.08755-0.0983-0.24254-0.10153-0.08266-0.0017-0.22819 0.0366l0.04659-0.5004q0.05837 0.0098 0.0911 0.01051 0.13777 0.0029 0.23088-0.08307 0.09482-0.0859 0.09733-0.20645 0.0024-0.11539-0.06505-0.18571-0.06746-0.07032-0.18801-0.07283-0.124-0.0026-0.20307 0.07158-0.07904 0.07244-0.1105 0.25958z" stop-color="#000000"/>
<path d="m43.217 31.318 0.65422 0.0213-0.0087 0.26685q0.14661-0.1624 0.29181-0.22834 0.14692-0.06588 0.35007-0.05926 0.21865 0.0071 0.34352 0.08874 0.12488 0.08162 0.2008 0.23748 0.17111-0.17367 0.30919-0.23294 0.13814-0.06099 0.33785-0.05449 0.2944 0.0096 0.45396 0.19058 0.15961 0.17927 0.1475 0.55114l-0.0374 1.1483-0.70243-0.02287 0.03392-1.0416q4e-3 -0.12396-0.04221-0.18578-0.0675-0.09699-0.17252-0.10041-0.12396-4e-3 -0.20262 0.08302-0.07867 0.08706-0.08512 0.28504l-0.03072 0.94345-0.70243-0.02287 0.0328-1.0072q0.0039-0.12051-0.0084-0.164-0.02014-0.06959-0.07388-0.11271-0.05369-0.04483-0.12772-0.04725-0.12051-0.0039-0.20096 0.0848-0.08045 0.08872-0.08723 0.29704l-0.03039 0.93312-0.70243-0.02287z" stop-color="#000000"/>
<path d="m47.516 32.064-0.66626-0.10043q0.04569-0.17384 0.1207-0.2705 0.07681-0.0983 0.21433-0.16631 0.09875-0.04904 0.26869-0.07077 0.16995-0.02173 0.36612-0.01297 0.31491 0.01405 0.50431 0.05872 0.18948 0.04294 0.31183 0.16048 0.08603 0.08143 0.13128 0.22656 0.04533 0.14341 0.03957 0.27248l-0.03602 0.80707q-0.0058 0.12906 0.0064 0.20375 0.01398 0.07304 0.06398 0.18908l-0.65736-0.02934q-0.03643-0.07232-0.04686-0.109-0.01036-0.0384-0.01887-0.11809-0.14358 0.12636-0.28206 0.17708-0.18923 0.06742-0.43531 0.05644-0.32696-0.01459-0.49056-0.17363-0.16188-0.15896-0.15198-0.38095 0.0093-0.20822 0.13746-0.33699 0.12817-0.12877 0.45977-0.1795 0.3976-0.06157 0.516-0.08732 0.11848-0.02747 0.25156-0.07326 0.0058-0.12906-0.04528-0.18307-0.05104-0.05401-0.18527-0.06-0.17208-0.0077-0.26058 0.04355-0.06903 0.04002-0.11563 0.15692zm0.59102 0.39537q-0.14685 0.04517-0.30522 0.07776-0.21592 0.04726-0.27516 0.0998-0.06104 0.05418-0.06427 0.12645-0.0037 0.0826 0.05072 0.13848 0.0562 0.05423 0.16806 0.05923 0.11702 0.0052 0.21936-0.04711 0.10406-0.05226 0.14897-0.13129 0.04671-0.08068 0.05254-0.21146z" stop-color="#000000"/>
<path d="m49.467 30.867 0.6999 0.0405-0.02756 0.47635-0.6999-0.0405zm-0.0402 0.69475 0.6999 0.0405-0.10568 1.8263-0.6999-0.0405z" stop-color="#000000"/>
</g>
</g>
</svg>
