<?xml version="1.0" encoding="UTF-8"?>
<svg width="77.125mm" height="9.565mm" version="1.1" viewBox="0 0 77.125 9.565" xmlns="http://www.w3.org/2000/svg">
<g transform="translate(-26.344 -55.784)">
<g transform="translate(-8.7674 30.559)">
<path transform="matrix(.9996 -.028418 -.16987 .98547 0 0)" d="m88.881 30.154h27.525v6.6976h-27.525z" fill="#d5e5ff" stroke-width=".26724px"/>
<path transform="matrix(.9996 -.028418 -.16987 .98547 0 0)" d="m42.069 28.439h21.307v6.5353h-21.307z" fill="#cfa" stroke-width=".26724px"/>
<g transform="scale(.26458)" stroke-width="1px" aria-label="A(119)  ou bien  xA = 119">
<path d="m152.51 105.94q0.0762 0.0592 0.0762 0.41471 0 0.36393-0.0762 0.55013l0.11003 0.35547q0.2793 0.99869 0.55013 1.6419 0.33854 0.86328 0.66862 1.8535 0.75325 2.2767 1.5658 3.9017 0.82096 1.6165 1.498 2.2767 0.42318 0.41471 0.52474 0.57552 0.11003 0.15234 0.11003 0.36393 0 0.37239-0.25391 0.6263-0.24544 0.26237-0.59244 0.26237-1.0833 0-2.6237-3.4108-0.61783-1.3457-0.74479-1.3457-0.40625 0-1.752 0.24544-1.3372 0.24544-2.446 0.57552-0.63476 0.19466-0.80403 0.19466-0.21159 0-0.4401-0.21159-0.0423-0.0339-0.10157-0.0339-0.18619 0-0.80403 1.1003-1.0156 1.8196-1.2865 2.1751-0.26237 0.34701-0.58398 0.34701-0.22852 0-0.55013-0.27084-0.32161-0.26236-0.32161-0.54166 0-0.27083 0.30468-0.72786 0.30469-0.4655 1.2441-1.862 1.6758-2.4798 2.8268-4.6549 1.8197-3.4616 2.3105-4.0794 0.49089-0.6263 0.75326-0.6263 0.55859 0 0.83788 0.30469zm0.51628 6.7285q-0.29622-0.67708-0.87174-2.4798-0.6263-1.9212-0.79558-2.3359-0.46549 0.98176-1.4388 2.7845l-1.5319 2.903q0.17773-0.13541 0.93945-0.22005 0.58398-0.0592 1.0156-0.15234 2.3105-0.46549 2.6829-0.49935zm6.3574 1.7858v-0.27929q0-1.2441 0.22852-2.1328 0.23697-0.89713 0.90559-2.3613 0.9056-1.9551 1.3372-2.4798 0.19466-0.24544 1.4557-1.388 0.77018-0.70248 1.151-0.86328 0.38085-0.16927 0.61783-0.16927 0.36393 0 0.36393 0.4401 0 0.28776-1.2187 1.4557-1.6504 1.5488-2.666 3.6308-1.0156 2.082-1.0156 3.6224 0 0.73632 0.41472 2.8437 0.0508 0.26237 0.0677 0.39779 0.2793 1.3711 0.66016 2.0566 0.38086 0.68555 1.2103 1.405 0.9056 0.77864 0.9056 1.2188 0 0.49088-0.82943 0.49088-0.50781 0-1.1934-0.77018-0.67708-0.77018-1.2272-1.5911-0.54167-0.8125-0.85482-2.6829-0.31315-1.8789-0.31315-2.8438zm13.179-2.209t0.48242-3.5716q-0.49088 0-1.3626 0.59244-1.5488 1.0156-2.7252 1.0156-0.38086 0-0.38086-0.53321 0-0.33854 0.12695-0.44856 0.13542-0.11003 1.1849-0.55859 1.0495-0.45704 2.6406-1.405 1.5911-0.94791 1.735-0.94791 0.27083 0 0.46549 0.37239 0.19466 0.3724 0.19466 0.65169 0 0.23698-0.24544 0.48242-0.82942 3.6224-0.96484 5.5521-0.13542 1.9212-0.0423 2.2428l0.21159 1.2865 0.0339 0.49934q0 0.57552-0.96485 0.57552-0.95637 0-0.77864-1.8112 0.36393-3.6986 0.38932-3.9948zm13.661 0t0.48242-3.5716q-0.49089 0-1.3626 0.59244-1.5488 1.0156-2.7253 1.0156-0.38085 0-0.38085-0.53321 0-0.33854 0.12695-0.44856 0.13541-0.11003 1.1849-0.55859 1.0495-0.45704 2.6406-1.405t1.735-0.94791q0.27084 0 0.4655 0.37239 0.19466 0.3724 0.19466 0.65169 0 0.23698-0.24544 0.48242-0.82943 3.6224-0.96484 5.5521-0.13542 1.9212-0.0423 2.2428l0.21159 1.2865 0.0339 0.49934q0 0.57552-0.96484 0.57552-0.95638 0-0.77865-1.8112 0.36394-3.6986 0.38933-3.9948zm18.841-3.5208q0 0.2539-0.20313 0.72786-0.77018 1.8789-1.4049 4.1979-0.6263 2.3105-0.6263 3.0807 0 1.2695-0.57552 1.2695-0.51628 0-0.71094-0.47396-0.1862-0.48242-0.1862-0.84635 0-0.47396 0.9056-3.5378l0.16927-0.58398-0.15234-0.11003q-1.4473 0.85482-2.1921 1.1003-0.73632 0.23698-1.8535 0.23698-0.51627 0-1.2103-0.77018-0.69401-0.77865-0.69401-1.2949 0-0.53321 0.16081-1.0072 0.1608-0.47396 0.55013-0.9987 0.38932-0.5332 1.2949-1.2695 0.9056-0.73632 1.3542-0.95638 0.45703-0.22005 1.3542-0.44856 0.89714-0.23698 1.388-0.23698 0.45703 0 0.82096 0.1608 0.3724 0.15235 0.9056 0.6517 0.5332 0.49088 0.65169 0.54166 0.12695 0.0508 0.25391 0.56706zm-1.4727 0.17773q-0.24544-0.72786-1.4557-0.72786-1.752 0-3.0723 1.2526-1.3118 1.2526-1.3118 2.0228 0 0.5586 0.35547 0.86328 0.36393 0.29623 0.93099 0.29623 0.59244 0 1.4134-0.3724 0.82942-0.37239 1.4896-0.78711 0.66015-0.42317 0.83789-0.6263 0.17773-0.20312 0.33854-0.67708 0.32161-0.99023 0.47395-1.2441zm6.3236 13.449q-0.2793 0-0.52474-0.18619-0.23698-0.17774-0.23698-0.3724 0-0.16927 0.13542-0.42318 0.14388-0.2539 0.95638-1.278 0.57552-0.69401 1.2695-2.4967 0.70248-1.8027 0.70248-2.2259 0-2.7083-0.76172-4.8242-0.76172-2.1159-1.3457-3.0553-0.58398-0.94791-1.7012-1.9635-0.10156-0.10157-0.10156-0.34701 0-0.12695 0.24544-0.33854t0.49935-0.21159q0.37239 0 0.80403 0.48242 0.44011 0.47396 1.3288 1.8366 0.88867 1.3542 1.1087 2.1074 0.22005 0.7194 0.45703 1.4049 0.68555 1.9974 0.68555 4.2656 0 3.0807-2.0905 5.7721-0.35546 0.47396-0.50781 0.76172-0.26237 0.50781-0.46549 0.79557-0.20313 0.29622-0.45703 0.29622z"/>
<path d="m235.84 113.55q0-2.4967 1.388-3.6986 1.1595-0.9987 2.8268-0.9987 1.8535 0 3.0299 1.2188 1.1764 1.2103 1.1764 3.3516 0 1.735-0.52474 2.7337-0.51627 0.99023-1.515 1.5404-0.99023 0.55013-2.1667 0.55013-1.8874 0-3.0553-1.2103-1.1595-1.2103-1.1595-3.487zm1.5658 0q0 1.7266 0.75325 2.5898 0.75326 0.85482 1.8958 0.85482 1.1341 0 1.8874-0.86328 0.75325-0.86328 0.75325-2.6322 0-1.6673-0.76172-2.5221-0.75325-0.86328-1.8789-0.86328-1.1426 0-1.8958 0.85482-0.75325 0.85481-0.75325 2.5814zm15.532 4.4941v-1.3203q-1.0495 1.5234-2.8522 1.5234-0.79557 0-1.4896-0.30469-0.68555-0.30469-1.0241-0.76172-0.33007-0.46549-0.46549-1.1341-0.0931-0.44857-0.0931-1.4219v-5.569h1.5234v4.985q0 1.1934 0.0931 1.6081 0.14388 0.60091 0.60938 0.94791 0.46549 0.33854 1.151 0.33854 0.68554 0 1.2864-0.347 0.60091-0.35547 0.84636-0.95638 0.2539-0.60938 0.2539-1.7604v-4.8158h1.5234v8.9883zm13.97 0h-1.4134v-12.408h1.5234v4.4264q0.96484-1.2103 2.4629-1.2103 0.82942 0 1.5658 0.33855 0.74479 0.33007 1.2188 0.93945 0.48242 0.60091 0.75325 1.4557 0.27083 0.85482 0.27083 1.8281 0 2.3106-1.1426 3.5716-1.1426 1.2611-2.7422 1.2611-1.5911 0-2.4967-1.3288zm-0.0169-4.5618q0 1.6165 0.4401 2.3359 0.7194 1.1764 1.9466 1.1764 0.9987 0 1.7266-0.86328 0.72786-0.87175 0.72786-2.5898 0-1.7604-0.70247-2.5983-0.69401-0.83789-1.6842-0.83789-0.9987 0-1.7266 0.87174-0.72786 0.86328-0.72786 2.5052zm9.2604-6.0937v-1.752h1.5234v1.752zm0 10.656v-8.9883h1.5234v8.9883zm10.995-2.8945 1.5742 0.19466q-0.3724 1.3796-1.3796 2.1413t-2.5729 0.76172q-1.972 0-3.1315-1.2103-1.151-1.2187-1.151-3.4108 0-2.2682 1.168-3.5208 1.168-1.2526 3.03-1.2526 1.8027 0 2.9453 1.2272 1.1426 1.2272 1.1426 3.4531 0 0.13542-8e-3 0.40625h-6.7031q0.0846 1.4811 0.83789 2.2682 0.75326 0.78711 1.8789 0.78711 0.83789 0 1.4303-0.44011 0.59245-0.4401 0.93945-1.4049zm-5.0019-2.4629h5.0189q-0.10156-1.1341-0.57552-1.7012-0.72786-0.8802-1.8874-0.8802-1.0495 0-1.7689 0.70247-0.71094 0.70247-0.78711 1.8789zm9.4889 5.3574v-8.9883h1.3711v1.278q0.99024-1.4811 2.8607-1.4811 0.81249 0 1.4896 0.29623 0.68554 0.28776 1.0241 0.76172 0.33854 0.47395 0.47396 1.1256 0.0846 0.42318 0.0846 1.4811v5.5267h-1.5234v-5.4674q0-0.93099-0.17773-1.388-0.17774-0.4655-0.63477-0.73633-0.44856-0.2793-1.0579-0.2793-0.9733 0-1.6842 0.61784-0.70247 0.61784-0.70247 2.3444v4.9088z"/>
<path d="m321.21 111.68q0.64323-2.3105 2.5306-2.6068 0.95638-0.15235 1.5742 0.49088 0.6263 0.63477 0.87174 1.7773 0.38932-0.73633 0.82943-1.2611 0.44856-0.52474 0.85481-0.77865 0.41472-0.2539 0.73633-0.35547 0.32161-0.11002 0.60937-0.11002 0.6517 0 1.1172 0.71093 0.48242 0.70248 0.48242 1.4896 0 0.47396-0.21159 0.82097-0.20312 0.33854-0.41471 0.33854-0.46549 0-0.66016-0.93945-0.21158-1.0156-0.6263-1.0156-0.83789 0-1.9805 1.9889-1.1426 1.9889-1.1426 3.36t1.5488 1.3711q1.1849 0 2.793-1.1172 0.55859-0.38933 0.82943-0.38933 0.27083 0 0.27083 0.31315 0 0.60938-1.4388 1.5404-1.4473 0.93098-2.8268 0.93098-1.2103 0-1.862-0.69401-0.54167-0.58398-0.6263-1.5827-0.25391 0.33854-0.38086 0.49088-0.5586 0.65169-1.0072 0.99023-0.45703 0.33854-0.82943 0.4655-0.37239 0.13541-0.7194 0.13541-0.70247 0-1.1426-0.42317-0.44011-0.42318-0.44011-0.99024 0-0.24544 0.16081-0.44856 0.15234-0.20313 0.47396-0.20313 0.33854 0 0.61784 0.30469 0.28776 0.29622 0.60937 0.29622 0.83789 0 2.319-2.0312 0.47395-0.74479 0.74479-1.5827 0.27083-0.84635 0.15234-1.6335t-0.77018-1.0664q-0.51628-0.22005-1.1003 0.4655-0.57552 0.67708-0.58398 1.2695-8e-3 0.347-0.0339 0.46549-0.0846 0.28776-0.29622 0.5332-0.22005 0.24544-0.50781 0.16927-0.86328-0.23698-0.52474-1.4896z"/>
<path d="m338.29 113.64q0.0495 0.0385 0.0495 0.26956 0 0.23655-0.0495 0.35758l0.0715 0.23106q0.18154 0.64915 0.35758 1.0672 0.22005 0.56113 0.4346 1.2048 0.48962 1.4798 1.0177 2.5361 0.53363 1.0507 0.97373 1.4798 0.27506 0.26957 0.34108 0.37409 0.0715 0.099 0.0715 0.23656 0 0.24205-0.16504 0.40709-0.15954 0.17054-0.38509 0.17054-0.70417 0-1.7054-2.217-0.4016-0.8747-0.48412-0.8747-0.26406 0-1.1388 0.15953-0.86921 0.15954-1.5899 0.37409-0.41259 0.12653-0.52262 0.12653-0.13753 0-0.28607-0.13753-0.0275-0.022-0.066-0.022-0.12103 0-0.52263 0.71517-0.66015 1.1828-0.83619 1.4138-0.17054 0.22556-0.37959 0.22556-0.14854 0-0.35758-0.17605-0.20905-0.17054-0.20905-0.35208 0-0.17604 0.19804-0.47311 0.19805-0.30257 0.80869-1.2103 1.0893-1.6119 1.8374-3.0257 1.1828-2.25 1.5019-2.6516 0.31907-0.40709 0.48961-0.40709 0.36309 0 0.54463 0.19805zm0.33558 4.3735q-0.19255-0.4401-0.56664-1.6119-0.40709-1.2488-0.51712-1.5184-0.30257 0.63815-0.93522 1.8099l-0.99573 1.8869q0.11553-0.088 0.61064-0.14303 0.37959-0.0385 0.66016-0.099 1.5018-0.30257 1.7439-0.32458z" baseline-shift="sub"/>
<path d="m361.34 111.07q-0.1862 0-0.51628-0.14388-0.36393-0.12695-0.5332-0.12695-0.12695 0-0.37239 0.0423-0.25391 0.0508-0.38933 0.0508-0.26237 0-0.76171-0.0508-0.50782-0.0508-0.83789-0.0508-0.6263 0-1.6504 0.11849-1.0326 0.12695-1.6842 0.12695-0.36393 0-0.5332-0.11003-0.16927-0.11848-0.16927-0.52473 0-0.24545 0.14388-0.44857 0.15234-0.21159 0.88867-0.33008 0.73632-0.12695 1.1934-0.12695 0.1862 0 0.53321 0.0423 0.46549 0.0339 1.5911 8e-3 1.1256-0.0339 1.735-0.16927 0.0508-0.0169 0.64323-8e-3 0.60091 8e-3 0.98177 0.29622 0.38932 0.2793 0.38932 0.67708 0 0.72786-0.65169 0.72786zm-2.9707 3.9609h-1.0326l-2.6576 0.0423q-0.13541 0-0.38085-0.35547-0.24545-0.35546-0.24545-0.5332 0-0.2539 0.57552-0.38086 0.57552-0.13541 1.0241-0.13541l2.1243 0.0508q0.26237 0 0.61784-0.0592 0.42318-0.0762 0.99023-0.0762 1.041 0 1.8874 0.20313 0.84635 0.20312 0.84635 0.70247 0 0.23698-0.13541 0.47396-0.13542 0.22851-0.27084 0.22851-0.22005 0-0.79557-0.10156-0.70247-0.10156-1.0749-0.0762-0.37239 0.0169-1.4726 0.0169zm21.875-2.7845t0.48242-3.5716q-0.49088 0-1.3626 0.59244-1.5488 1.0156-2.7252 1.0156-0.38086 0-0.38086-0.53321 0-0.33854 0.12695-0.44856 0.13542-0.11003 1.1849-0.55859 1.0495-0.45704 2.6406-1.405 1.5911-0.94791 1.735-0.94791 0.27083 0 0.46549 0.37239 0.19466 0.3724 0.19466 0.65169 0 0.23698-0.24544 0.48242-0.82942 3.6224-0.96484 5.5521-0.13542 1.9212-0.0423 2.2428l0.21159 1.2865 0.0339 0.49934q0 0.57552-0.96484 0.57552-0.95638 0-0.77864-1.8112 0.36393-3.6986 0.38932-3.9948zm13.661 0t0.48242-3.5716q-0.49089 0-1.3626 0.59244-1.5488 1.0156-2.7252 1.0156-0.38086 0-0.38086-0.53321 0-0.33854 0.12695-0.44856 0.13542-0.11003 1.1849-0.55859 1.0495-0.45704 2.6406-1.405 1.5912-0.94791 1.735-0.94791 0.27083 0 0.46549 0.37239 0.19466 0.3724 0.19466 0.65169 0 0.23698-0.24544 0.48242-0.82943 3.6224-0.96484 5.5521-0.13542 1.9212-0.0423 2.2428l0.21159 1.2865 0.0338 0.49934q0 0.57552-0.96484 0.57552-0.95638 0-0.77864-1.8112 0.36393-3.6986 0.38932-3.9948zm18.841-3.5208q0 0.2539-0.20312 0.72786-0.77018 1.8789-1.405 4.1979-0.6263 2.3105-0.6263 3.0807 0 1.2695-0.57552 1.2695-0.51627 0-0.71093-0.47396-0.1862-0.48242-0.1862-0.84635 0-0.47396 0.9056-3.5378l0.16927-0.58398-0.15235-0.11003q-1.4473 0.85482-2.192 1.1003-0.73633 0.23698-1.8535 0.23698-0.51628 0-1.2103-0.77018-0.694-0.77865-0.694-1.2949 0-0.53321 0.1608-1.0072 0.16081-0.47396 0.55013-0.9987 0.38932-0.5332 1.2949-1.2695 0.9056-0.73632 1.3542-0.95638 0.45704-0.22005 1.3542-0.44856 0.89713-0.23698 1.388-0.23698 0.45703 0 0.82096 0.1608 0.37239 0.15235 0.9056 0.6517 0.5332 0.49088 0.65169 0.54166 0.12695 0.0508 0.2539 0.56706zm-1.4726 0.17773q-0.24544-0.72786-1.4557-0.72786-1.752 0-3.0723 1.2526-1.3118 1.2526-1.3118 2.0228 0 0.5586 0.35547 0.86328 0.36393 0.29623 0.93098 0.29623 0.59245 0 1.4134-0.3724 0.82943-0.37239 1.4896-0.78711 0.66016-0.42317 0.83789-0.6263 0.17774-0.20312 0.33854-0.67708 0.32162-0.99023 0.47396-1.2441z"/>
</g>
</g>
</g>
</svg>
