<svg xmlns="http://www.w3.org/2000/svg" width="377.575" height="55.291" viewBox="0 0 99.9 14.629"><path d="M54.131 31.089a.388.388 0 0 0-.169.048c-.016.01-.083.064-.2.161a3.927 3.927 0 0 0-.468.458 12.183 12.183 0 0 0-1.046-.12c-.365-.027-.749-.04-1.151-.04-.494 0-1.022.037-1.586.112a12.4 12.4 0 0 0-1.723.347c-.584.16-1.174.367-1.77.62-.596.251-1.175.555-1.739.909-.558.354-1.092.767-1.602 1.24a9.92 9.92 0 0 0-1.392 1.585 8.203 8.203 0 0 0-.998 1.86 5.154 5.154 0 0 0-.33 1.762c0 .548.102 1.044.306 1.49.204.44.488.815.853 1.126.365.311.8.55 1.304.716.51.172 1.068.258 1.674.258.585 0 1.194-.105 1.827-.314a6.832 6.832 0 0 0 1.86-.982 8.85 8.85 0 0 0 1.706-1.682c.537-.676.998-1.479 1.385-2.407a.667.667 0 0 0 .104.008h.185c.296 0 .617-.014.966-.04.349-.027.708-.073 1.079-.137.563.075 1.076.19 1.537.346.462.156.856.343 1.183.563.333.22.588.47.765.749.183.279.274.582.274.91 0 .295-.08.587-.242.877-.16.284-.41.542-.748.773-.333.225-.76.407-1.28.547-.52.14-1.143.209-1.868.209-.53 0-1.06-.053-1.585-.16a8.213 8.213 0 0 1-1.538-.476.344.344 0 0 0-.12-.024.304.304 0 0 0-.21.089.269.269 0 0 0-.096.217c0 .134.064.228.193.282a8.682 8.682 0 0 0 3.365.684 7.92 7.92 0 0 0 1.038-.072 6.523 6.523 0 0 0 1.07-.218c.349-.097.682-.223.999-.378a3.39 3.39 0 0 0 .844-.572c.242-.225.432-.486.572-.78.145-.296.218-.631.218-1.007 0-.102-.012-.225-.033-.37a1.803 1.803 0 0 0-.129-.483 2.88 2.88 0 0 0-.297-.539 2.53 2.53 0 0 0-.532-.547 4.432 4.432 0 0 0-.82-.524 6.214 6.214 0 0 0-1.175-.443c.332-.118.646-.262.941-.434.3-.177.56-.383.78-.62.226-.235.403-.51.532-.82.129-.312.193-.663.193-1.055a2.35 2.35 0 0 0-.78-1.795c-.521-.488-1.272-.853-2.254-1.094.128-.124.23-.22.306-.29a.373.373 0 0 0 .112-.274c0-.08-.03-.142-.088-.185a.334.334 0 0 0-.202-.064zm83.397.659a.267.267 0 0 0-.186.08.324.324 0 0 0-.097.218l-.266 9.111a.313.313 0 0 0 .073.226.295.295 0 0 0 .217.089h.008a.283.283 0 0 0 .21-.081.317.317 0 0 0 .096-.21l.274-9.12a.295.295 0 0 0-.089-.216.294.294 0 0 0-.24-.097zm-86.431.459c.316 0 .62.008.91.024.29.016.571.043.845.08-.29.398-.545.806-.765 1.224-.22.413-.421.834-.604 1.264-.182.429-.349.864-.499 1.304-.15.44-.298.88-.443 1.32-.263.037-.456.086-.579.145-.123.054-.185.145-.185.273 0 .124.05.215.152.274.102.054.202.08.299.08-.365.832-.792 1.551-1.28 2.158a8.419 8.419 0 0 1-1.546 1.497 6.314 6.314 0 0 1-1.666.877 5.228 5.228 0 0 1-1.642.282 4.87 4.87 0 0 1-1.44-.201 3.414 3.414 0 0 1-1.12-.588 2.657 2.657 0 0 1-.724-.942 3.033 3.033 0 0 1-.25-1.255c0-.5.103-1.025.306-1.578a7.317 7.317 0 0 1 .91-1.682 9.647 9.647 0 0 1 1.32-1.505c.483-.446.99-.835 1.521-1.167a11.252 11.252 0 0 1 1.65-.862 12.929 12.929 0 0 1 3.324-.918c.532-.07 1.034-.104 1.506-.104zm2.439.217c.934.188 1.65.478 2.149.87.499.392.748.888.748 1.489 0 .295-.048.558-.144.789-.091.23-.218.44-.379.628a2.55 2.55 0 0 1-.555.482 4.84 4.84 0 0 1-.684.354 7.773 7.773 0 0 1-1.457.419c-.284-.032-.55-.053-.797-.064a10.55 10.55 0 0 0-.684-.024h-.234c-.09 0-.19.003-.297.008.102-.413.23-.84.386-1.28.16-.446.34-.883.54-1.312.198-.435.415-.854.65-1.256.237-.403.49-.77.758-1.103zM83.657 38.3a.356.356 0 0 0-.314.17.731.731 0 0 0-.112.426c0 .091.007.18.024.266.016.086.043.19.08.313a4.556 4.556 0 0 1-.446 1.281.319.319 0 0 0-.038.063 9.94 9.94 0 0 1-.378.757 3.97 3.97 0 0 1-.475.684c-.177.204-.373.37-.588.5a1.413 1.413 0 0 1-.717.184 1.41 1.41 0 0 1-.651-.136 1.292 1.292 0 0 1-.435-.379c.21-.102.406-.223.588-.362.183-.14.338-.292.467-.458.134-.167.238-.347.314-.54.075-.193.112-.4.112-.62 0-.171-.03-.324-.088-.458a1.027 1.027 0 0 0-.234-.338.955.955 0 0 0-.33-.218.868.868 0 0 0-.362-.08c-.209 0-.402.048-.58.145-.171.096-.321.23-.45.402a2.033 2.033 0 0 0-.34.823.335.335 0 0 0-.07.103 6.41 6.41 0 0 1-.274.547 4.81 4.81 0 0 1-.427.668 3.327 3.327 0 0 1-.53.563c-.194.156-.393.234-.597.234a.472.472 0 0 1-.274-.072.522.522 0 0 1-.16-.21 1.281 1.281 0 0 1-.08-.314 4.095 4.095 0 0 1-.017-.37c0-.102.003-.21.008-.322.01-.118.019-.233.024-.346.01-.113.019-.218.024-.314.01-.102.016-.188.016-.258 0-.3-.067-.552-.201-.756-.134-.204-.34-.306-.62-.306-.14 0-.29.043-.45.129-.156.08-.312.214-.467.402a9.008 9.008 0 0 0-.451.612c-.14.215-.274.432-.403.652-.128.214-.25.429-.362.644-.113.209-.212.402-.298.58.016-.156.032-.35.049-.58l.064-.692a17.4 17.4 0 0 0 .048-.66c.016-.204.024-.355.024-.451 0-.13-.013-.255-.04-.379a1.141 1.141 0 0 0-.112-.338.595.595 0 0 0-.202-.241.508.508 0 0 0-.314-.097c-.209 0-.421.137-.636.41-.21.269-.434.69-.676 1.265l-.001.004c-.06.139-.15.32-.272.543a4.81 4.81 0 0 1-.427.668 3.327 3.327 0 0 1-.53.563c-.194.156-.393.234-.597.234a.472.472 0 0 1-.273-.072.523.523 0 0 1-.161-.21 1.281 1.281 0 0 1-.08-.314 4.095 4.095 0 0 1-.017-.37c0-.102.003-.21.008-.322.011-.118.02-.233.024-.346.011-.113.019-.218.024-.314.01-.102.016-.188.016-.258 0-.3-.067-.552-.201-.756-.134-.204-.34-.306-.62-.306-.14 0-.29.043-.45.129-.156.08-.312.214-.467.402a9.008 9.008 0 0 0-.45.612c-.14.215-.275.432-.404.652-.128.214-.25.429-.362.644-.112.209-.212.402-.297.58.016-.156.032-.35.048-.58l.064-.692c.022-.237.038-.456.048-.66.016-.204.025-.355.025-.451 0-.13-.014-.255-.04-.379a1.14 1.14 0 0 0-.113-.338.594.594 0 0 0-.201-.241.51.51 0 0 0-.315-.097c-.209 0-.42.137-.635.41-.21.269-.435.69-.677 1.265a.428.428 0 0 0-.013.04c-.072.14-.148.267-.228.378a1.318 1.318 0 0 1-.314.33c-.118.085-.25.15-.394.193a1.727 1.727 0 0 1-.491.064h-.105a.617.617 0 0 1-.096-.008c.043-.187.064-.367.064-.538 0-.328-.03-.61-.089-.846a1.81 1.81 0 0 0-.241-.58.942.942 0 0 0-.338-.33.85.85 0 0 0-.41-.104.71.71 0 0 0-.588.29c-.145.193-.217.443-.217.748 0 .381.101.725.305 1.03.204.307.464.542.78.709-.106.22-.262.402-.466.547-.198.14-.45.21-.756.21-.172 0-.328-.03-.468-.09a1.17 1.17 0 0 1-.362-.256 1.164 1.164 0 0 1-.233-.395 1.519 1.519 0 0 1-.08-.499 1.7 1.7 0 0 1 .281-.958c.086-.118.177-.215.274-.29.097-.08.188-.142.273-.185.086-.043.156-.086.21-.128.059-.049.089-.119.089-.21a.262.262 0 0 0-.073-.193c-.043-.048-.11-.072-.201-.072-.08 0-.202.042-.363.128-.16.08-.322.207-.483.379a2.393 2.393 0 0 0-.426.636c-.123.252-.185.55-.185.893 0 .268.043.515.129.74.085.22.206.411.362.572.156.156.338.277.547.363.21.09.44.136.693.136.214 0 .412-.03.595-.088a1.82 1.82 0 0 0 .49-.242c.151-.102.283-.22.396-.354.112-.14.209-.29.289-.45.102.02.22.031.355.031a2.114 2.114 0 0 0 1.231-.346 1.97 1.97 0 0 0 .426-.387c.124-.15.231-.305.322-.466.022-.043.043-.089.065-.137l.008-.024c.193-.467.352-.792.475-.974.123-.188.21-.29.257-.306.033.027.054.102.065.226a4.464 4.464 0 0 1 0 .764c-.01.15-.024.314-.04.492l-.049.523a40.539 40.539 0 0 1-.088.893c-.011.107-.016.18-.016.217 0 .172.045.306.137.403a.528.528 0 0 0 .378.137c.113 0 .222-.04.33-.121.107-.075.214-.226.322-.451.053-.118.126-.266.217-.443l.306-.57c.113-.2.23-.398.354-.597.129-.204.253-.386.37-.547.124-.16.239-.29.346-.386.113-.102.213-.153.298-.153.043 0 .092.032.145.096.054.06.08.175.08.346 0 .102-.005.21-.015.322a3.606 3.606 0 0 1-.033.338c-.01.113-.021.22-.032.322a3.979 3.979 0 0 0 .033.837c.032.183.091.352.177.507.086.15.204.274.354.37.15.092.346.138.587.138.215 0 .42-.054.612-.161.199-.108.381-.242.548-.403a3.68 3.68 0 0 0 .467-.531 8.683 8.683 0 0 0 .62-1.022c.064-.135.106-.223.128-.266a.339.339 0 0 0 .01-.028c.189-.451.343-.767.464-.946.124-.188.21-.29.258-.306.032.027.054.102.064.226a4.464 4.464 0 0 1 0 .764c-.01.15-.024.314-.04.492l-.048.523c-.016.177-.033.343-.049.499l-.04.394c-.01.107-.015.18-.015.217 0 .172.045.306.136.403a.528.528 0 0 0 .378.137c.113 0 .223-.04.33-.121.108-.075.215-.226.322-.451.054-.118.127-.266.218-.443l.305-.57c.113-.2.231-.398.355-.597.129-.204.252-.386.37-.547.123-.16.239-.29.346-.386.113-.102.212-.153.298-.153.043 0 .091.032.145.096.054.06.08.175.08.346 0 .102-.005.21-.016.322a3.571 3.571 0 0 1-.032.338c-.01.113-.021.22-.032.322a3.979 3.979 0 0 0 .033.837c.032.183.09.352.177.507.086.15.203.274.354.37.15.092.346.138.587.138.215 0 .419-.054.612-.161.199-.108.381-.242.547-.403.172-.16.328-.338.467-.531.107-.152.203-.296.288-.433l.042.16c.08.273.204.52.37.74.167.215.379.389.636.523.258.14.564.21.918.21.553-.012 1.047-.223 1.481-.636.44-.414.845-1.028 1.216-1.844a.393.393 0 0 0 .022-.05l.035-.062c.059-.118.11-.232.153-.339.048-.107.088-.203.12-.288.065.155.134.304.21.449.08.14.152.277.217.41.07.135.126.269.169.403.043.134.064.268.064.402a.853.853 0 0 1-.04.234.8.8 0 0 1-.113.25.695.695 0 0 1-.217.193.597.597 0 0 1-.322.08.607.607 0 0 1-.193-.032 1.12 1.12 0 0 1-.161-.073 2.594 2.594 0 0 0-.113-.08.244.244 0 0 1-.056-.056.3.3 0 0 0-.435.008.287.287 0 0 0-.089.21c0 .053.017.104.049.152.193.29.4.406.664.47.552.131 1.194-.151 1.502-.752.09-.204.136-.418.136-.644 0-.171-.032-.343-.097-.515a4.505 4.505 0 0 0-.233-.547 25.509 25.509 0 0 0-.33-.652 9.178 9.178 0 0 1-.37-.813c.027-.129.048-.236.064-.322.016-.086.025-.171.025-.257a.67.67 0 0 0-.113-.395.328.328 0 0 0-.29-.16zm47.706 0a.356.356 0 0 0-.314.17.73.73 0 0 0-.113.426c0 .091.008.18.024.266.016.086.043.19.08.313a4.8 4.8 0 0 1-.168.636 4.44 4.44 0 0 1-.26.61.29.29 0 0 0-.07.098 9.937 9.937 0 0 1-.378.757 3.97 3.97 0 0 1-.475.684c-.177.204-.373.37-.588.5a1.413 1.413 0 0 1-.716.184 1.41 1.41 0 0 1-.652-.136 1.292 1.292 0 0 1-.435-.379c.21-.102.406-.223.588-.362.182-.14.338-.292.467-.458.134-.167.238-.347.313-.54.075-.193.113-.4.113-.62 0-.171-.03-.324-.089-.458a1.025 1.025 0 0 0-.233-.338.957.957 0 0 0-.33-.218.868.868 0 0 0-.362-.08c-.21 0-.403.048-.58.145-.172.096-.322.23-.45.402a2.032 2.032 0 0 0-.339.818.239.239 0 0 0-.064.092c-.01.032-.048.112-.112.241a3.913 3.913 0 0 1-.258.443c-.107.166-.239.346-.394.539a3.567 3.567 0 0 1-.54.523c-.203.161-.429.295-.676.402a2.086 2.086 0 0 1-.804.153c-.226 0-.422-.045-.588-.136a1.24 1.24 0 0 1-.403-.362 1.716 1.716 0 0 1-.24-.532 2.395 2.395 0 0 1-.081-.627c0-.231.029-.449.088-.653.064-.209.148-.389.25-.54a1.3 1.3 0 0 1 .354-.37.783.783 0 0 1 .434-.136.57.57 0 0 1 .395.137c.107.091.16.193.16.306a.546.546 0 0 1-.096.33l-.064.096a.312.312 0 0 0 .056.33.305.305 0 0 0 .402.025.656.656 0 0 0 .153-.185c.049-.08.086-.172.113-.274.032-.102.049-.212.049-.33a.85.85 0 0 0-.09-.37 1.093 1.093 0 0 0-.233-.338 1.023 1.023 0 0 0-.362-.242 1.175 1.175 0 0 0-.483-.097c-.236 0-.459.062-.668.186-.21.118-.395.281-.556.49a2.52 2.52 0 0 0-.406.863l-.012.007a.318.318 0 0 0-.113.137 6.37 6.37 0 0 1-.273.547c-.118.225-.26.448-.427.668a3.327 3.327 0 0 1-.531.563c-.193.156-.392.234-.596.234a.47.47 0 0 1-.273-.072.523.523 0 0 1-.162-.21 1.283 1.283 0 0 1-.08-.314 4.095 4.095 0 0 1-.016-.37c0-.102.003-.21.008-.322.01-.118.019-.233.024-.346a7.79 7.79 0 0 0 .024-.314c.011-.102.016-.188.016-.258 0-.3-.067-.552-.201-.756-.134-.204-.34-.306-.62-.306-.14 0-.29.043-.45.129-.156.08-.312.214-.468.402a9.004 9.004 0 0 0-.45.612c-.14.215-.274.432-.403.652-.129.214-.25.429-.362.644-.113.209-.212.402-.298.58.016-.156.032-.35.048-.58l.064-.692c.022-.237.038-.456.05-.66.015-.204.023-.355.023-.451 0-.13-.013-.255-.04-.379a1.14 1.14 0 0 0-.113-.338.595.595 0 0 0-.201-.241.508.508 0 0 0-.314-.097c-.21 0-.421.137-.636.41-.21.269-.434.69-.676 1.265-.048.102-.107.222-.177.362a6.092 6.092 0 0 1-.547.885 3.086 3.086 0 0 1-.346.395 1.734 1.734 0 0 1-.37.273.76.76 0 0 1-.379.105.577.577 0 0 1-.467-.201 1.398 1.398 0 0 1-.257-.475 2.815 2.815 0 0 1-.105-.547 14.575 14.575 0 0 1-.032-.435.308.308 0 0 0-.097-.201.252.252 0 0 0-.193-.089c-.08 0-.15.027-.209.08a.283.283 0 0 0-.105.186c-.037.279-.104.52-.2.724a1.995 1.995 0 0 1-.315.507 1.154 1.154 0 0 1-.362.298.729.729 0 0 1-.33.097.659.659 0 0 1-.339-.08.625.625 0 0 1-.217-.21.86.86 0 0 1-.112-.282 2.122 2.122 0 0 1 .121-1.16c.107-.24.238-.439.394-.595a1.48 1.48 0 0 1 .515-.354c.188-.075.365-.112.531-.112.113 0 .212.013.298.04.091.022.17.048.234.08a.756.756 0 0 1 .153.097.684.684 0 0 1 .072.056.296.296 0 0 0 .218.089c.08 0 .15-.03.209-.089a.313.313 0 0 0 .088-.217.334.334 0 0 0-.088-.217c-.005-.006-.035-.03-.09-.073a1.164 1.164 0 0 0-.232-.153 1.864 1.864 0 0 0-.355-.144 1.395 1.395 0 0 0-.459-.073c-.246 0-.504.054-.772.16a2.253 2.253 0 0 0-.725.484 2.496 2.496 0 0 0-.461.629.366.366 0 0 0-.046.023.233.233 0 0 0-.104.12c-.011.033-.049.113-.113.242a3.912 3.912 0 0 1-.257.443 6.41 6.41 0 0 1-.395.539 3.572 3.572 0 0 1-.54.523c-.203.161-.428.295-.675.402a2.089 2.089 0 0 1-.805.153c-.226 0-.422-.045-.588-.136a1.24 1.24 0 0 1-.402-.362 1.716 1.716 0 0 1-.242-.532 2.395 2.395 0 0 1-.08-.627c0-.231.029-.449.088-.653.064-.209.148-.389.25-.54.102-.155.22-.278.354-.37a.783.783 0 0 1 .435-.136c.16 0 .292.046.394.137.107.091.16.193.16.306a.546.546 0 0 1-.095.33l-.065.096a.312.312 0 0 0 .056.33.305.305 0 0 0 .403.025.656.656 0 0 0 .153-.185c.048-.08.086-.172.112-.274.033-.102.049-.212.049-.33a.85.85 0 0 0-.089-.37 1.093 1.093 0 0 0-.233-.338 1.023 1.023 0 0 0-.363-.242 1.175 1.175 0 0 0-.482-.097c-.236 0-.46.062-.668.186-.21.118-.395.281-.556.49a2.52 2.52 0 0 0-.407.863l-.012.007a.318.318 0 0 0-.112.137l-.177.362a6.092 6.092 0 0 1-.548.885 3.089 3.089 0 0 1-.346.395 1.73 1.73 0 0 1-.37.273.76.76 0 0 1-.378.105.578.578 0 0 1-.467-.201 1.4 1.4 0 0 1-.258-.475 2.817 2.817 0 0 1-.104-.547 13.86 13.86 0 0 1-.032-.435.308.308 0 0 0-.097-.201.253.253 0 0 0-.193-.089c-.08 0-.15.027-.21.08a.282.282 0 0 0-.104.186c-.038.279-.104.52-.201.724a1.995 1.995 0 0 1-.314.507 1.154 1.154 0 0 1-.362.298.73.73 0 0 1-.33.097.659.659 0 0 1-.339-.08.624.624 0 0 1-.217-.21.863.863 0 0 1-.112-.282 2.122 2.122 0 0 1 .12-1.16c.107-.24.24-.439.395-.595a1.48 1.48 0 0 1 .515-.354c.188-.075.365-.112.531-.112.113 0 .212.013.298.04.091.022.17.048.234.08a.756.756 0 0 1 .153.097.7.7 0 0 1 .072.056.295.295 0 0 0 .217.09c.08 0 .15-.03.21-.09a.313.313 0 0 0 .088-.217.335.335 0 0 0-.089-.217 2.022 2.022 0 0 0-.088-.073 1.17 1.17 0 0 0-.234-.153 1.858 1.858 0 0 0-.354-.144 1.394 1.394 0 0 0-.459-.073c-.246 0-.504.054-.772.16a2.254 2.254 0 0 0-.725.484 2.495 2.495 0 0 0-.462.63.322.322 0 0 0-.052.03.27.27 0 0 0-.105.136.47.47 0 0 1-.04.081.595.595 0 0 1-.105.153.739.739 0 0 1-.185.145.526.526 0 0 1-.266.064.88.88 0 0 1-.499-.144 1.727 1.727 0 0 1-.386-.355 2.914 2.914 0 0 1-.282-.467 8.763 8.763 0 0 1-.193-.458 4.267 4.267 0 0 1-.105-.354 1.497 1.497 0 0 0-.032-.13.285.285 0 0 0-.113-.176.288.288 0 0 0-.185-.065.292.292 0 0 0-.225.097.322.322 0 0 0-.08.225v.161c.004.049.007.1.007.153 0 .263-.027.523-.08.781a4.5 4.5 0 0 1-.202.725 4.8 4.8 0 0 1-.273.627c-.097.193-.193.36-.29.5-.091.139-.18.249-.265.33-.081.08-.143.12-.186.12-.064 0-.148-.054-.25-.161a2.062 2.062 0 0 1-.281-.459 3.757 3.757 0 0 1-.33-1.57c0-.268.021-.469.064-.603a5.27 5.27 0 0 1 .072-.217.272.272 0 0 0 .033-.137.29.29 0 0 0-.08-.201.268.268 0 0 0-.218-.097.327.327 0 0 0-.16.04.302.302 0 0 0-.105.113 3.003 3.003 0 0 0-.121.314c-.06.182-.089.45-.089.805 0 .402.051.775.153 1.119.102.343.228.64.379.893.155.247.316.44.482.58.172.139.328.209.468.209.123-.011.27-.086.442-.226s.341-.33.507-.571a5.39 5.39 0 0 0 .483-.845c.15-.327.266-.68.346-1.055.076.134.167.269.274.403.107.128.225.246.354.354.134.102.282.188.443.258.161.064.336.096.523.096.161 0 .306-.027.435-.08l.027-.013c-.002.05-.003.099-.003.15 0 .209.03.402.088.579.065.177.153.333.266.467.112.129.25.23.41.306.162.07.341.104.54.104.252 0 .504-.088.756-.265a2.41 2.41 0 0 0 .652-.733c.097.3.25.55.46.749.214.198.477.298.788.298.22 0 .43-.051.628-.153.198-.107.383-.242.555-.403.172-.16.327-.338.467-.53.094-.131.18-.258.256-.38.021.135.051.264.09.387.086.273.212.513.378.717.167.198.368.351.604.458.236.113.507.17.813.17.344 0 .66-.057.95-.17.295-.112.56-.255.797-.426a4.06 4.06 0 0 0 .628-.58c.1-.114.19-.226.274-.335.014.111.038.218.071.319.065.177.153.333.266.467.113.129.25.23.41.306.162.07.341.104.54.104.252 0 .505-.088.757-.265a2.41 2.41 0 0 0 .652-.733c.096.3.25.55.459.749.214.198.477.298.789.298.22 0 .428-.051.627-.153a2.66 2.66 0 0 0 .555-.403 3.68 3.68 0 0 0 .468-.53c.14-.194.26-.38.362-.556.107-.178.193-.333.257-.467l.137-.274a.043.043 0 0 1 .004-.01c.191-.461.348-.783.471-.964.123-.188.21-.29.258-.306.032.027.053.102.064.226a4.464 4.464 0 0 1 0 .764c-.01.15-.024.314-.04.492l-.048.523a40.702 40.702 0 0 1-.089.893c-.01.107-.016.18-.016.217 0 .172.046.306.137.403a.528.528 0 0 0 .378.137c.113 0 .223-.04.33-.121.107-.075.215-.226.322-.451.054-.118.126-.266.218-.443.096-.182.198-.372.305-.57.113-.2.231-.398.354-.597a9.58 9.58 0 0 1 .371-.547c.123-.16.238-.29.346-.386.112-.102.212-.153.298-.153.043 0 .09.032.145.096.053.06.08.175.08.346 0 .102-.005.21-.016.322a3.449 3.449 0 0 1-.032.338l-.032.322a3.98 3.98 0 0 0 .032.837c.032.183.09.352.177.507.086.15.203.274.354.37.15.092.346.138.587.138.215 0 .419-.054.612-.161a2.48 2.48 0 0 0 .547-.403c.172-.16.328-.338.467-.531.092-.13.174-.253.249-.371.021.135.05.264.09.387.085.273.211.513.378.717.166.198.368.351.604.458.236.113.507.17.813.17.343 0 .66-.057.95-.17.295-.112.56-.255.796-.426.236-.177.446-.37.628-.58.183-.209.338-.41.467-.604l.025-.037a2.286 2.286 0 0 0 .418.923c.166.215.378.389.635.523.258.14.564.21.918.21.553-.012 1.046-.223 1.481-.636.437-.41.839-1.019 1.207-1.825.028-.038.055-.082.08-.131.06-.118.111-.232.154-.339.048-.107.088-.203.12-.288.064.155.134.304.209.449.08.14.153.277.218.41.07.135.126.269.169.403.042.134.064.268.064.402a.853.853 0 0 1-.04.234.8.8 0 0 1-.113.25.696.696 0 0 1-.217.193.597.597 0 0 1-.322.08.607.607 0 0 1-.194-.032 1.12 1.12 0 0 1-.16-.073 2.635 2.635 0 0 0-.113-.08.243.243 0 0 1-.056-.056.3.3 0 0 0-.435.008.286.286 0 0 0-.088.21c0 .053.016.104.048.152.193.29.4.406.664.47.552.131 1.194-.151 1.502-.752a1.56 1.56 0 0 0 .136-.644c0-.171-.032-.343-.097-.515a4.5 4.5 0 0 0-.233-.547 25.54 25.54 0 0 0-.33-.652 9.178 9.178 0 0 1-.37-.813c.027-.129.048-.236.064-.322.016-.086.025-.171.025-.257a.67.67 0 0 0-.113-.395.328.328 0 0 0-.29-.16zM80.047 39.96h.027c.107 0 .201.042.281.128.081.08.121.201.121.362 0 .145-.027.29-.08.435-.054.14-.129.274-.226.403a1.842 1.842 0 0 1-.353.354 1.885 1.885 0 0 1-.452.265 4.307 4.307 0 0 1-.072-.306 2.065 2.065 0 0 1-.024-.306c0-.155.013-.31.04-.466.032-.161.08-.306.145-.435a.912.912 0 0 1 .25-.314.572.572 0 0 1 .343-.12zm47.691 0h.027c.107 0 .201.042.282.128.08.08.12.201.12.362 0 .145-.026.29-.08.435a1.67 1.67 0 0 1-.225.403 1.842 1.842 0 0 1-.354.354 1.885 1.885 0 0 1-.45.265 4.258 4.258 0 0 1-.074-.306 2.063 2.063 0 0 1-.024-.306c0-.155.013-.31.04-.466.032-.161.081-.306.145-.435a.913.913 0 0 1 .25-.314.57.57 0 0 1 .343-.12zm-66.427.056c.08 0 .15.04.21.12.059.075.107.177.144.306.043.124.075.26.097.411.021.15.032.297.032.442 0 .108-.008.218-.024.33a1.337 1.337 0 0 1-.298-.249 2.278 2.278 0 0 1-.209-.314 1.707 1.707 0 0 1-.12-.338 1.392 1.392 0 0 1-.041-.322c0-.161.027-.266.08-.314.054-.048.097-.072.13-.072zm75.894 2.688a.427.427 0 0 0-.435.435.426.426 0 0 0 .435.435.401.401 0 0 0 .306-.13.401.401 0 0 0 .129-.305.402.402 0 0 0-.13-.306.401.401 0 0 0-.305-.129z" style="font-size:17.3333px;line-height:28.3465px;font-family:Sacramento;-inkscape-font-specification:Sacramento;letter-spacing:0;word-spacing:2.22562px;baseline-shift:baseline;stroke-width:.264583px" transform="translate(-38.957 -30.089)"/></svg>