<?xml version="1.0" encoding="UTF-8"?>
<svg width="63.295mm" height="30.581mm" version="1.1" viewBox="0 0 63.295 30.581" xmlns="http://www.w3.org/2000/svg">
<g transform="translate(-21.045 -14.878)">
<g fill="#fff" fill-rule="evenodd" stroke-width=".3">
<path d="m54.785 17.297h29.404v25.094h-29.404z" stop-color="#000000"/>
<path d="m21.195 18.287h31.641v24.604h-31.641z" stop-color="#000000"/>
<path d="m22.195 17.287h31.641v24.604h-31.641z" stop-color="#000000"/>
<path d="m54.785 16.297h28.404v25.094h-28.404z" stop-color="#000000"/>
</g>
<g fill="none" stroke="#b3b3b3" stroke-linecap="round" stroke-linejoin="round" stroke-width=".3">
<path d="m51.8 42.891h-30.606v-24.635" stop-color="#000000" style="-inkscape-stroke:none;font-variation-settings:normal"/>
<path d="m84.189 17.256v25.135h-28.122" stop-color="#000000" style="-inkscape-stroke:none;font-variation-settings:normal"/>
<path d="m51.854 41.891h-29.659v-24.635" stop-color="#000000" style="-inkscape-stroke:none;font-variation-settings:normal"/>
<path d="m83.189 16.256v25.135h-27.034" stop-color="#000000" style="-inkscape-stroke:none;font-variation-settings:normal"/>
</g>
<path d="m23.195 16.256c2.5217 0 26.516-0.93945 29.655 0.87264 2.7945-2.7945 24.433-0.73325 29.329-2.0554l0.2093 23.742c-5.8471 3.3758-22.097-0.0411-29.539 2.8514-0.76745-0.52999-22.087-1.0236-29.503-0.62327z" fill="#fff" fill-rule="evenodd" stop-color="#000000" stroke="#4d4d4d" stroke-width=".3" style="-inkscape-stroke:none;font-variation-settings:normal"/>
<g fill="none">
<path d="m56.867 21.477c7.2496-0.86322 21.461 0.19028 25.312-0.84977" stop-color="#000000" style="-inkscape-stroke:none;font-variation-settings:normal"/>
<path d="m56.873 26.476c7.2514-0.86196 21.456 0.1907 25.306-0.84907" stop-color="#000000" style="-inkscape-stroke:none;font-variation-settings:normal"/>
<path d="m56.828 32.814c8.2051-1.0705 20.61 0.93963 25.56-1.9181" stop-color="#000000" style="-inkscape-stroke:none;font-variation-settings:normal"/>
<path d="m56.883 37.807c8.2054-1.0546 20.567 0.94037 25.505-1.9111" stop-color="#000000" style="-inkscape-stroke:none;font-variation-settings:normal"/>
<path d="m27.17 38.006c9.1425-0.14416 25.02 0.28494 25.68 0.74096" stop-color="#000000" style="-inkscape-stroke:none;font-variation-settings:normal"/>
<path d="m27.195 26.701c7.6215-0.18305 23.19-0.47381 25.675 0.96136" stop-color="#000000" style="-inkscape-stroke:none;font-variation-settings:normal"/>
</g>
<path d="m52.85 17.469v24.131" fill="#fff" fill-rule="evenodd" stop-color="#000000" stroke="#4d4d4d" stroke-width=".3" style="-inkscape-stroke:none;font-variation-settings:normal"/>
<g fill="#333" stroke-width="1px">
<g stop-color="#000000" aria-label=" 15:30">
<path d="m31.959 23.859 0.03911 2.3189 0.42782-0.0072q0.15294-0.0026 0.21802 0.05628 0.06711 0.05675 0.06871 0.15182 0.0016 0.09301-0.06356 0.15406-0.06309 0.05895-0.21603 0.06153l-1.2793 0.02157q-0.15294 0.0026-0.22005-0.05418-0.06508-0.05886-0.06668-0.15393-0.0016-0.093 0.06152-0.15195 0.06513-0.06105 0.21807-0.06363l0.42782-0.0072-0.0298-1.7671-0.37654 0.10558q-0.09052 0.02633-0.13599 0.0271-0.0806 0.0014-0.14162-0.0617-0.05895-0.06309-0.06052-0.1561-0.0014-0.08474 0.04117-0.133 0.04257-0.05033 0.18041-0.08987z"/>
<path d="m34.217 24.319 0.0053 0.50433q0.23485-0.0769 0.42707-0.07892 0.39065-0.0041 0.65183 0.25979 0.26118 0.26391 0.26562 0.68557 0.0046 0.43406-0.25531 0.68486-0.25784 0.24871-0.79731 0.2544-0.4754 5e-3 -0.75426-0.17189-0.16229-0.10165-0.16371-0.236-8.94e-4 -0.08474 0.06046-0.14741 0.0634-0.06475 0.15021-0.06567 0.07234-7.63e-4 0.15783 0.06862 0.08546 0.06732 0.17876 0.09321 0.1327 0.03788 0.33939 0.0357 0.38445-0.0041 0.52372-0.12748 0.13924-0.1255 0.13656-0.37973-0.0026-0.2501-0.14056-0.39128-0.13585-0.1412-0.34875-0.13896-0.22943 0.0024-0.52137 0.15433-0.06577 0.03583-0.11538 0.03636-0.09095 9.59e-4 -0.15365-0.06453-0.06064-0.06551-0.06175-0.17092l-0.0129-1.2236 1.296-0.01366q0.15295-0.0016 0.21766 0.05765 0.06675 0.05718 0.06775 0.15226 9.81e-4 0.09301-0.06453 0.15365-0.06347 0.05855-0.21642 0.06016z"/>
<path d="m37.721 24.953q2.98e-4 0.11989-0.08425 0.20072-0.08455 0.08083-0.23338 0.0812-0.14883 3.7e-4 -0.23378-0.08003t-0.08525-0.20029q-2.99e-4 -0.11989 0.08425-0.20072 0.08455-0.08083 0.23338-0.0812 0.14883-3.7e-4 0.23378 0.08003t0.08525 0.20029zm0.0076 1.387q2.99e-4 0.11989-0.08425 0.20072-0.08455 0.08083-0.23338 0.0812-0.14883 3.71e-4 -0.23378-0.08003-0.08495-0.0804-0.08525-0.20029-2.99e-4 -0.11989 0.08425-0.20072 0.08455-0.08083 0.23338-0.0812 0.14883-3.71e-4 0.23378 0.08003 0.08495 0.0804 0.08525 0.20029z"/>
<path d="m40.83 25.143q0.18707 0.12966 0.27872 0.2999 0.09167 0.16817 0.08999 0.37694-0.0018 0.2253-0.12738 0.41654-0.12348 0.18918-0.35785 0.28652-0.23435 0.09527-0.61261 0.09223-0.49194-4e-3 -0.73875-0.1589-0.13779-0.08793-0.13683-0.20781 7.31e-4 -0.09095 0.06117-0.15248 0.06253-0.06358 0.14934-0.06288 0.05994 4.82e-4 0.12369 0.04234 0.09045 0.06274 0.1709 0.08406 0.12379 0.02993 0.34082 0.03168 0.36999 3e-3 0.53611-0.09078 0.16614-0.09582 0.16755-0.27151 1e-3 -0.13022-0.09514-0.25089-0.0941-0.12272-0.2548-0.19016-0.09272-0.03795-0.31377-0.0542-0.10537-7e-3 -0.16278-0.06539-0.05533-0.06039-0.05463-0.1472 7.3e-4 -0.09095 0.06324-0.15246 0.06251-0.06151 0.15759-0.06075 0.21083 0.0017 0.22532-2.57e-4 0.08275-0.0076 0.16579-0.05241 0.08304-0.04481 0.13328-0.12296 0.05232-0.0802 0.053-0.16494 0.0011-0.13435-0.11802-0.23247-0.11702-0.10016-0.35472-0.10207-0.30591-0.0025-0.46857 0.17401-0.04796 0.05129-0.07701 0.06553-0.04359 0.02239-0.09733 0.02196-0.08681-6.97e-4 -0.14832-0.0632-0.06151-0.06251-0.06078-0.15346 0.0011-0.14262 0.19239-0.27545 0.27856-0.19414 0.69402-0.1908 0.39273 0.0032 0.62864 0.2283 0.23591 0.22514 0.23339 0.53933-0.0013 0.16329-0.07274 0.30535-0.07141 0.13999-0.21293 0.25875z"/>
<path d="m43.978 25.044-0.01051 0.46497q-0.0093 0.4133-0.2576 0.78606-0.2462 0.3728-0.6905 0.36277-0.25625-0.0058-0.43145-0.1214-0.17309-0.11763-0.32539-0.42294-0.15019-0.30733-0.14254-0.64624l0.0105-0.46497q0.0093-0.41124 0.25549-0.78404 0.24624-0.37487 0.69054-0.36483 0.25418 0.0057 0.42732 0.1213 0.1752 0.11561 0.32746 0.42298 0.15437 0.30536 0.14667 0.64633zm-0.4257-0.0096q0.0078-0.34511-0.17855-0.60777-0.1063-0.14506-0.30469-0.14955-0.19219-0.0043-0.31766 0.14996-0.18929 0.2335-0.19723 0.5848l-0.01051 0.46497q-0.0078 0.34718 0.18062 0.60782 0.10424 0.14502 0.30469 0.14955 0.19012 0.0043 0.3156-0.15001 0.18929-0.2335 0.19723-0.5848z"/>
</g>
<g stop-color="#000000" aria-label=" 16:30">
<path d="m31.985 35.235-0.0039 2.3192 0.42788 7.19e-4q0.15296 2.57e-4 0.21694 0.06031 0.06605 0.05799 0.06589 0.15307-1.56e-4 0.09302-0.0664 0.15285-0.06418 0.05777-0.21714 0.05751l-1.2795-0.0022q-0.15296-2.57e-4 -0.21901-0.05825-0.06398-0.06005-0.06382-0.15514 1.57e-4 -0.09302 0.06433-0.15079 0.06625-0.05983 0.21921-0.05958l0.42788 7.19e-4 3e-3 -1.7673-0.37844 0.09858q-0.09099 0.02465-0.13647 0.02457-0.08061-1.35e-4 -0.14045-0.06432-0.05777-0.06418-0.05761-0.15719 1.42e-4 -0.08475 0.04363-0.13222 0.04349-0.04954 0.18205-0.08651z"/>
<path d="m34.191 36.543q0.15409-0.1268 0.29309-0.18345 0.13902-0.05872 0.29611-0.05733 0.33278 0.0029 0.58055 0.26973 0.24776 0.26678 0.24424 0.66571-0.0033 0.36999-0.23887 0.59736-0.23351 0.22532-0.63244 0.22179-0.33278-0.0029-0.54638-0.15987-0.2136-0.15692-0.32029-0.48034t-0.10319-0.72028q0.0042-0.4754 0.22402-0.78766 0.21983-0.31433 0.51488-0.48536t0.62163-0.16814q0.25837 0.0023 0.4001 0.10483 0.09241 0.06903 0.09148 0.17445-8.23e-4 0.09301-0.0634 0.15654-0.06256 0.06146-0.14937 0.06069-0.04961-4.39e-4 -0.14218-0.05087-0.05555-0.02943-0.10723-0.02989-0.20256-0.0018-0.42062 0.11204-0.21804 0.11176-0.3793 0.34806-0.11101 0.16439-0.16281 0.41199zm0.05622 0.65578q0.06395 0.24862 0.17476 0.34056 0.11288 0.09195 0.32164 0.0938 0.20876 0.0018 0.32135-0.10672 0.11465-0.10854 0.11632-0.29664 0.0019-0.21497-0.12706-0.35874-0.12689-0.14375-0.28812-0.14518-0.12815-0.0011-0.27602 0.12366-0.1458 0.1248-0.24288 0.34926z"/>
<path d="m37.728 36.438q-0.0018 0.11988-0.08776 0.1992-0.08595 0.07933-0.23476 0.07709-0.14881-0.0022-0.23234-0.08413-0.08353-0.08188-0.08172-0.20176 0.0018-0.11988 0.08776-0.1992 0.08595-0.07933 0.23476-0.07709 0.14881 0.0022 0.23234 0.08413 0.08353 0.08188 0.08172 0.20176zm-0.01676 1.3869q-0.0018 0.11988-0.08776 0.1992-0.08595 0.07933-0.23476 0.07709-0.14881-0.0022-0.23234-0.08412-0.08353-0.08188-0.08172-0.20176 0.0018-0.11988 0.08776-0.1992 0.08595-0.07933 0.23476-0.07709 0.14881 0.0022 0.23234 0.08413 0.08353 0.08188 0.08172 0.20176z"/>
<path d="m40.829 36.675q0.18536 0.1321 0.27478 0.30352 0.08946 0.16936 0.08506 0.37808-0.0048 0.22526-0.13281 0.41484-0.12594 0.18755-0.36156 0.28182-0.23558 0.0922-0.61376 0.08422-0.49185-0.01038-0.73661-0.16855-0.13663-0.08972-0.1341-0.20958 0.0019-0.09093 0.06316-0.15166 0.06335-0.06275 0.15015-0.06092 0.05993 0.0013 0.12312 0.04395 0.08962 0.06392 0.16978 0.08628 0.12338 0.03155 0.34038 0.03613 0.36992 0.0078 0.53726-0.08376 0.16738-0.09364 0.17109-0.2693 0.0027-0.1302-0.09185-0.25211-0.09249-0.12394-0.25229-0.19347-0.09221-0.03916-0.31303-0.0583-0.10526-0.0084-0.16191-0.06751-0.05453-0.06111-0.0527-0.14791 0.0019-0.09093 0.06523-0.15162 0.06331-0.06069 0.15837-0.05868 0.21079 0.0045 0.2253 0.0027 0.08284-0.0065 0.16646-0.05024 0.08362-0.04372 0.13488-0.1212 0.05337-0.07951 0.05515-0.16424 0.0028-0.13433-0.11498-0.23399-0.1157-0.10168-0.35336-0.1067-0.30586-0.0065-0.4708 0.16787-0.04862 0.05066-0.07786 0.06452-0.04388 0.02182-0.09761 0.02068-0.0868-0.0018-0.14749-0.06514-0.06069-0.06331-0.05877-0.15424 3e-3 -0.1426 0.19597-0.27291 0.28107-0.19048 0.69645-0.18171 0.39265 0.0083 0.6256 0.2365 0.23295 0.22821 0.22632 0.54233-0.0034 0.16326-0.07672 0.30437-0.07323 0.13904-0.21629 0.25594z"/>
<path d="m43.965 36.599-0.01289 0.46491q-0.01146 0.41325-0.26163 0.78473-0.24811 0.37154-0.69235 0.35922-0.25622-0.0071-0.43082-0.12361-0.17248-0.11852-0.32322-0.4246-0.14861-0.3081-0.13922-0.64696l0.01289-0.46491q0.0114-0.41119 0.25951-0.78272 0.24816-0.3736 0.69241-0.36128 0.25415 7e-3 0.42669 0.1235 0.1746 0.11651 0.32528 0.42466 0.1528 0.30614 0.14335 0.64708zm-0.42565-0.0118q0.0096-0.34507-0.17543-0.60868-0.10556-0.14561-0.30392-0.15111-0.19216-0.0053-0.31843 0.14833-0.19049 0.23252-0.20023 0.58378l-0.01289 0.46491q-0.0096 0.34713 0.1775 0.60873 0.10349 0.14555 0.30392 0.15111 0.1901 0.0053 0.31636-0.14838 0.19049-0.23252 0.20023-0.58378z"/>
</g>
<g stop-color="#000000" aria-label=" 13:30">
<path d="m61.591 23.422 0.07527 2.318 0.42766-0.01389q0.15288-5e-3 0.21887 0.05287 0.06799 0.0557 0.07107 0.15073 3e-3 0.09297-0.06115 0.15503-0.06217 0.05993-0.21505 0.06489l-1.2788 0.04153q-0.15288 5e-3 -0.22087-0.05074-0.06599-0.05783-0.06908-0.15287-3e-3 -0.09297 0.05915-0.1529 0.06417-0.06206 0.21705-0.06702l0.42766-0.01389-0.05736-1.7664-0.37485 0.11144q-0.0901 0.02774-0.13555 0.02922-0.08057 0.0026-0.14257-0.05948-0.05993-0.06217-0.06294-0.15514-0.0028-0.0847 0.03909-0.13363 0.04178-0.05099 0.17899-0.09267z"/>
<path d="m64.853 24.692q0.18946 0.12614 0.28428 0.29464 0.0948 0.16643 0.09703 0.37519 0.0024 0.2253-0.11956 0.41884-0.11992 0.19146-0.35242 0.29317-0.23253 0.09964-0.61078 0.10368-0.49193 0.0053-0.7416-0.14505-0.13941-0.08533-0.14069-0.20522-9.71e-4 -0.09095 0.05831-0.15359 0.06132-0.06474 0.14814-0.06566 0.05994-6.4e-4 0.12446 0.04002 0.09161 0.06104 0.17244 0.08085 0.12433 0.02761 0.34135 0.0253 0.36998-4e-3 0.53432-0.10079 0.16432-0.09891 0.16244-0.2746-0.0014-0.13022-0.09982-0.24906-0.09638-0.12093-0.25831-0.18536-0.09341-0.03621-0.31473-0.04832-0.10548-0.0051-0.16397-0.06233-0.05645-0.05935-0.05737-0.14616-9.71e-4 -0.09095 0.06038-0.15362 0.06135-0.06267 0.15642-0.06369 0.21083-0.0023 0.22527-0.0045 0.08259-0.0092 0.16478-0.05551 0.08219-0.04636 0.13096-0.12543 0.05081-0.08116 0.04991-0.16591-0.0014-0.13435-0.12235-0.23022-0.11888-0.09795-0.35657-0.09542-0.30591 0.0033-0.46523 0.18274-0.04699 0.05218-0.07577 0.06696-0.04316 0.0232-0.0969 0.02377-0.08681 9.27e-4 -0.14948-0.06042-0.06267-0.06135-0.06364-0.15229-0.0015-0.14262 0.1872-0.279 0.27487-0.19932 0.69033-0.20375 0.39272-0.0042 0.6328 0.2165 0.24008 0.22069 0.24344 0.53487 0.0017 0.16329-0.06701 0.30666-0.06877 0.1413-0.20805 0.26268z"/>
<path d="m67.395 24.509q-1.04e-4 0.11989-0.08492 0.20043-0.08482 0.08054-0.23365 0.08041-0.14883-1.29e-4 -0.23351-0.08082-0.08468-0.08069-0.08458-0.20058 1.04e-4 -0.11989 0.08492-0.20043 0.08482-0.08054 0.23365-0.08041 0.14883 1.29e-4 0.23351 0.08082 0.08468 0.08069 0.08458 0.20058zm0.0029 1.387q-1.03e-4 0.11989-0.08492 0.20043-0.08482 0.08054-0.23365 0.08041-0.14883-1.29e-4 -0.23351-0.08082-0.08468-0.08069-0.08458-0.20058 1.03e-4 -0.11989 0.08492-0.20043 0.08482-0.08054 0.23365-0.08041 0.14883 1.29e-4 0.23351 0.08082 0.08468 0.08069 0.08458 0.20058z"/>
<path d="m70.495 24.701q0.18745 0.1291 0.27962 0.29907 0.09217 0.1679 0.09112 0.37667-0.0011 0.22531-0.12612 0.41692-0.12291 0.18955-0.35699 0.28759-0.23406 0.09597-0.61233 0.09407-0.49195-0.0025-0.73923-0.15669-0.13805-0.08751-0.13745-0.2074 4.58e-4 -0.09095 0.06072-0.15266 0.06233-0.06377 0.14915-0.06333 0.05994 3.02e-4 0.12381 0.04197 0.09064 0.06247 0.17115 0.08355 0.12388 0.02956 0.34091 0.03066 0.37 0.0019 0.53584-0.09239 0.16585-0.09632 0.16674-0.27201 6.56e-4 -0.13022-0.09589-0.2506-0.09447-0.12243-0.25536-0.18939-0.09283-0.03768-0.31393-0.05326-0.10539-0.0067-0.16297-0.0649-0.05551-0.06022-0.05507-0.14704 4.58e-4 -0.09095 0.06278-0.15265 0.06232-0.0617 0.15741-0.06122 0.21084 0.0011 0.22532-9.32e-4 0.08272-0.0079 0.16563-0.05291 0.08291-0.04506 0.13291-0.12336 0.05208-0.08035 0.05251-0.1651 6.77e-4 -0.13436-0.11872-0.23211-0.11732-0.09981-0.35503-0.10101-0.30592-0.0015-0.46804 0.17541-0.0478 0.05144-0.07681 0.06576-0.04352 0.02252-0.09727 0.02225-0.08682-4.37e-4 -0.14851-0.06276-0.0617-0.06232-0.06124-0.15327 7.18e-4 -0.14262 0.19156-0.27602 0.27797-0.19497 0.69344-0.19288 0.39274 2e-3 0.62932 0.22642 0.23658 0.22444 0.235 0.53862-8.23e-4 0.1633-0.07182 0.30557-0.07099 0.1402-0.21215 0.25938z"/>
<path d="m73.614 24.555-9.53e-4 0.46509q-8.48e-4 0.41341-0.2414 0.79119-0.23849 0.37778-0.6829 0.37687-0.25632-5.26e-4 -0.43385-0.11251-0.17547-0.11405-0.33401-0.41616-0.15647-0.30418-0.15578-0.64318l9.54e-4 -0.46509q8.43e-4 -0.41134 0.23933-0.78913 0.23849-0.37985 0.68291-0.37894 0.25425 5.21e-4 0.42972 0.1125 0.17754 0.11198 0.33608 0.41617 0.16061 0.30212 0.15991 0.64318zm-0.42581-8.73e-4q7.07e-4 -0.3452-0.191-0.60397-0.10926-0.14285-0.3077-0.14326-0.19224-3.94e-4 -0.31451 0.15645-0.18446 0.23733-0.18518 0.58873l-9.53e-4 0.46509q-7.12e-4 0.34726 0.19306 0.60398 0.10719 0.14285 0.3077 0.14326 0.19017 3.9e-4 0.31245-0.15646 0.18446-0.23733 0.18518-0.58873z"/>
</g>
</g>
<g stroke-width="1px">
<g fill="#e62e6c" stop-color="#000000" aria-label="Ven 9 juin">
<path d="m56.606 30.273 0.8132-0.07317 0.72901 1.759 0.39472-1.8601 0.78918-0.07101-0.70699 2.5991-0.84237 0.07579z" stop-color="#000000"/>
<path d="m61.908 31.733-1.4048 0.04847q0.02476 0.16806 0.09991 0.24819 0.10567 0.11528 0.26921 0.10964 0.10329-0.0036 0.19447-0.05842 0.05568-0.03467 0.11825-0.11956l0.69253 0.03988q-0.14888 0.28091-0.36851 0.40914-0.2197 0.12651-0.63803 0.14094-0.36324 0.01253-0.57505-0.08185-0.21187-0.0961-0.35725-0.31343-0.14372-0.2191-0.15412-0.52037-0.01479-0.42866 0.24978-0.70322 0.2663-0.27462 0.75004-0.29131 0.39251-0.01354 0.62385 0.0974 0.23134 0.11094 0.35791 0.33236 0.12657 0.22142 0.13904 0.58294zm-0.72429-0.3111q-0.02767-0.20243-0.12022-0.28714-0.09083-0.08477-0.23544-0.07978-0.16699 0.0058-0.26226 0.14176-0.06085 0.08483-0.07242 0.24897z" stop-color="#000000"/>
<path d="m62.378 30.641 0.65284-0.0035 0.0016 0.298q0.14545-0.18336 0.2949-0.26167 0.14944-0.08003 0.36476-0.08117 0.2911-0.0015 0.45566 0.17157 0.16627 0.17138 0.16818 0.53311l0.0061 1.1627-0.70451 0.0037-0.0053-1.006q-9.11e-4 -0.17225-0.06502-0.24254-0.06412-0.07201-0.17952-0.0714-0.12747 6.73e-4 -0.20619 0.09755-0.07873 0.09688-0.07741 0.34665l0.0046 0.87848-0.70107 0.0037z" stop-color="#000000"/>
<path d="m66.418 31.913 0.69865-0.0793q0.02577 0.14674 0.09048 0.20783 0.06471 0.06109 0.15945 0.06225 0.1688 0.0021 0.26562-0.16729 0.07044-0.12489 0.10986-0.53096-0.12732 0.12764-0.26068 0.1863-0.13336 0.05866-0.30733 0.05653-0.33932-0.0042-0.57061-0.24816-0.22957-0.24398-0.22506-0.61258 0.0031-0.25147 0.12446-0.45671 0.12138-0.20523 0.33108-0.30775 0.20972-0.10424 0.52492-0.10038 0.37893 0.0046 0.60641 0.13835 0.2275 0.13199 0.36009 0.41785 0.13433 0.28416 0.12864 0.74922-0.0084 0.6838-0.29992 0.99892-0.29152 0.3134-0.80136 0.30716-0.30142-0.0037-0.47454-0.07472-0.1731-0.07275-0.28686-0.20851-0.11376-0.13576-0.1733-0.33804zm1.3056-1.1106q0.0025-0.20497-0.09942-0.32164-0.10191-0.11839-0.25004-0.1202-0.13952-0.0017-0.23381 0.10222-0.09257 0.10395-0.09515 0.31408-0.0026 0.21186 0.09077 0.32497 0.09508 0.11314 0.23804 0.11489 0.14813 0.0018 0.24763-0.1055 0.09951-0.10731 0.10197-0.30883z" stop-color="#000000"/>
<path d="m70.538 29.999 0.7028 0.0014-9.32e-4 0.48231-0.7028-0.0014zm-0.0013 0.69591 0.7028 0.0014-0.0034 1.7742q-6.55e-4 0.33934-0.05088 0.48049-0.0485 0.14116-0.18131 0.22875-0.13281 0.08759-0.37913 0.08712-0.20326-3.92e-4 -0.50459-0.06126l0.10606-0.50967q0.08437 0.01739 0.12399 0.01747 0.08957 1.73e-4 0.1362-0.06175 0.04663-0.0602 0.04698-0.24279z" stop-color="#000000"/>
<path d="m73.741 32.499-0.65448 0.01036-0.0047-0.29624q-0.14351 0.18488-0.29212 0.26476-0.14689 0.07985-0.36391 0.08328-0.28935 0.0046-0.45742-0.16504-0.16637-0.17137-0.17207-0.53133l-0.01842-1.1643 0.70443-0.01115 0.01592 1.0058q0.0027 0.17223 0.0676 0.24356 0.06487 0.07133 0.18027 0.0695 0.12573-2e-3 0.20343-0.09969 0.07942-0.09773 0.07547-0.34747l-0.01393-0.88011 0.70099-0.01109z" stop-color="#000000"/>
<path d="m74.216 29.953 0.70041-0.03045 0.02073 0.47669-0.70041 0.03045zm0.03023 0.69525 0.70041-0.03045 0.07946 1.8276-0.70041 0.03045z" stop-color="#000000"/>
<path d="m75.444 30.603 0.6503-0.05762 0.0263 0.29684q0.12973-0.1948 0.27216-0.28524 0.14228-0.09215 0.35676-0.11116 0.28997-0.02569 0.46833 0.13316 0.17992 0.15699 0.21185 0.51731l0.10262 1.1582-0.70177 0.06218-0.08879-1.002q-0.0152-0.17158-0.08492-0.23631-0.06987-0.06644-0.18483-0.05625-0.12697 0.01125-0.19738 0.11433-0.07041 0.10308-0.04837 0.35187l0.07754 0.87507-0.69834 0.06188z" stop-color="#000000"/>
</g>
<g fill="#333" stop-color="#000000" aria-label=" 14:30">
<path d="m61.618 34.744 0.06001 2.3185 0.42774-0.01107q0.15291-4e-3 0.21852 0.05431 0.06762 0.05615 0.07008 0.1512 0.0024 0.09299-0.06217 0.15462-0.06256 0.05952-0.21547 0.06347l-1.2791 0.0331q-0.15291 4e-3 -0.22053-0.05219-0.06561-0.05827-0.06807-0.15332-0.0024-0.09299 0.06015-0.1525 0.06457-0.06164 0.21748-0.06559l0.42774-0.01107-0.04573-1.7667-0.37558 0.10897q-0.09028 0.02715-0.13574 0.02833-0.08059 0.0021-0.14217-0.06042-0.05952-0.06256-0.06192-0.15555-0.0022-0.08472 0.03997-0.13337 0.04211-0.05072 0.17959-0.09149z"/>
<path d="m64.904 34.79-0.0027 1.6578q0.13436 2.15e-4 0.19834 0.06026 0.06399 0.05798 0.06384 0.151-1.49e-4 0.09302-0.06639 0.15286-0.06417 0.05984-0.19647 0.05963l-2.71e-4 0.1695q0.13436 2.15e-4 0.19834 0.06026 0.06398 0.06005 0.06383 0.15306-1.49e-4 0.09302-0.06639 0.15286-0.06417 0.05777-0.21713 0.05753l-0.56844-9.11e-4q-0.15296-2.45e-4 -0.21902-0.05823-0.06398-0.06005-0.06383-0.15513 1.49e-4 -0.09302 0.06432-0.15079 0.06624-0.05984 0.2192-0.05959l0.16536 2.65e-4 2.72e-4 -0.1695-1.1513-0.0018 5.67e-4 -0.35347 1.0177-1.7264zm-0.4264 1.6571 0.0017-1.0418-0.61558 1.0408z"/>
<path d="m67.422 35.898q-0.0014 0.11988-0.08714 0.19948-0.08571 0.0796-0.23452 0.07782-0.14882-0.0018-0.2326-0.0834-0.08378-0.08162-0.08235-0.2015 0.0014-0.11988 0.08714-0.19948 0.08571-0.0796 0.23452-0.07782 0.14882 0.0018 0.2326 0.0834 0.08378 0.08162 0.08235 0.2015zm-0.01245 1.3869q-0.0014 0.11988-0.08714 0.19948-0.08571 0.0796-0.23452 0.07782-0.14882-0.0018-0.2326-0.0834-0.08378-0.08162-0.08235-0.2015 0.0014-0.11988 0.08714-0.19948 0.08571-0.0796 0.23452-0.07782 0.14882 0.0018 0.2326 0.0834 0.08378 0.08162 0.08235 0.2015z"/>
<path d="m70.507 36.108q0.18719 0.12948 0.27901 0.29963 0.09183 0.16808 0.09036 0.37685-0.0016 0.2253-0.12697 0.41666-0.1233 0.1893-0.35757 0.28687-0.23426 0.0955-0.61252 0.09283-0.49195-0.0035-0.73891-0.15818-0.13788-0.08779-0.13703-0.20768 6.41e-4 -0.09095 0.06102-0.15254 0.06246-0.06364 0.14928-0.06303 0.05994 4.23e-4 0.12373 0.04221 0.09051 0.06265 0.17098 0.08389 0.12382 0.02981 0.34085 0.03134 0.36999 0.0026 0.53602-0.09131 0.16605-0.09598 0.16728-0.27168 9.19e-4 -0.13022-0.09538-0.25079-0.09422-0.12262-0.25498-0.18991-0.09275-0.03786-0.31382-0.05389-0.10537-0.0069-0.16284-0.06523-0.05539-0.06034-0.05477-0.14715 6.42e-4 -0.09095 0.06309-0.15252 0.06245-0.06157 0.15753-0.0609 0.21084 0.0015 0.22532-4.78e-4 0.08274-0.0077 0.16574-0.05257 0.083-0.04489 0.13316-0.12309 0.05224-0.08025 0.05284-0.165 9.48e-4 -0.13436-0.11825-0.23235-0.11712-0.10005-0.35482-0.10172-0.30592-0.0022-0.4684 0.17447-0.04791 0.05134-0.07695 0.0656-0.04357 0.02243-0.09731 0.02205-0.08681-6.12e-4 -0.14839-0.06306-0.06157-0.06245-0.06093-0.1534 1e-3 -0.14262 0.19212-0.27564 0.27836-0.19441 0.69383-0.19148 0.39273 0.0028 0.62886 0.22768 0.23613 0.22491 0.23391 0.5391-0.0012 0.16329-0.07244 0.30542-0.07127 0.14006-0.21267 0.25896z"/>
<path d="m73.596 35.929 7e-3 0.46504q0.0062 0.41336-0.2279 0.79518-0.23202 0.38179-0.67639 0.38844-0.25629 0.0038-0.4357-0.10511-0.17738-0.11104-0.34105-0.41042-0.16163-0.30147-0.1667-0.64043l-7e-3 -0.46504q-0.0062-0.4113 0.22586-0.79309 0.23199-0.38386 0.67636-0.39051 0.25422-0.0038 0.43157 0.10517 0.17942 0.10895 0.34311 0.41039 0.16573 0.29934 0.17084 0.64037zm-0.42577 0.0064q-0.0052-0.34516-0.20125-0.60063-0.11168-0.141-0.31009-0.13802-0.19222 0.0029-0.31181 0.16178-0.18039 0.24044-0.17513 0.5918l7e-3 0.46504q0.0052 0.34723 0.20332 0.6006 0.10961 0.141 0.31009 0.138 0.19015-0.0028 0.30974-0.16175 0.18039-0.24044 0.17513-0.5918z"/>
</g>
<g fill="#e62e6c" stop-color="#000000" aria-label="Jeu 8 juin">
<path d="m57.946 18.832 0.77908-0.06785 0.11912 1.3677q0.03751 0.43073-0.02013 0.66226-0.05593 0.23138-0.27399 0.40772-0.21635 0.17619-0.57672 0.20758-0.38096 0.03318-0.59929-0.05155-0.21833-0.08473-0.35049-0.27206-0.1306-0.1892-0.1766-0.47914l0.73423-0.16596q0.01621 0.16631 0.05069 0.24457 0.03448 0.07826 0.10403 0.12235 0.04746 0.02872 0.12983 0.02154 0.13042-0.01136 0.18211-0.11269 0.05326-0.1032 0.03323-0.33315z" stop-color="#000000"/>
<path d="m61.549 20.419-1.4043 0.060757q0.02623 0.16783 0.10208 0.24731 0.10667 0.11435 0.27016 0.10728 0.10326-0.0045 0.19395-0.06012 0.05538-0.03515 0.1172-0.12059l0.69285 0.03382q-0.14641 0.2822-0.36492 0.41234-0.21858 0.12842-0.63677 0.14652-0.36312 0.01571-0.57574-0.07681-0.2127-0.09425-0.35998-0.31029-0.14563-0.21784-0.15866-0.519-0.01854-0.42851 0.24362-0.70538 0.26388-0.27694 0.74746-0.29786 0.39237-0.01698 0.62467 0.09194 0.2323 0.10892 0.3608 0.32922 0.1285 0.2203 0.14413 0.5817zm-0.72698-0.30476q-0.02944-0.20218-0.12272-0.28607-0.09157-0.08397-0.23612-0.07772-0.16693 0.0072-0.26101 0.14405-0.0601 0.08536-0.07024 0.24959z" stop-color="#000000"/>
<path d="m63.963 21.114-0.65445 0.01236-0.005592-0.29623q-0.14294 0.18532-0.29132 0.26565-0.14665 0.0803-0.36365 0.08439-0.28934 0.0055-0.45792-0.16364-0.1669-0.17086-0.17369-0.5308l-0.02198-1.1642 0.7044-0.0133 0.01899 1.0058q0.0033 0.17222 0.06834 0.24336 0.06509 0.07113 0.18048 0.06895 0.12572-0.0024 0.20313-0.10032 0.07912-0.09797 0.07441-0.3477l-0.01661-0.88006 0.70095-0.01323z" stop-color="#000000"/>
<path d="m66.452 19.745q-0.16529-0.08799-0.24099-0.19658-0.10322-0.14823-0.10306-0.34115 2.72e-4 -0.31695 0.29845-0.51823 0.23268-0.15483 0.61508-0.1545 0.50643 4.36e-4 0.74742 0.19357 0.24271 0.19313 0.24246 0.48597-1.47e-4 0.17053-0.09674 0.31859-0.07244 0.11018-0.22756 0.2134 0.2049 0.09836 0.30467 0.26037 0.10149 0.16201 0.10132 0.35838-1.63e-4 0.18948-0.08815 0.35477-0.08627 0.16357-0.21381 0.25303-0.12582 0.08947-0.31534 0.13064-0.1878 0.0429-0.40139 0.04272-0.40135-3.45e-4 -0.61314-0.09527-0.21179-0.09492-0.32188-0.27933-0.11008-0.18441-0.10989-0.41178 1.91e-4 -0.22221 0.10368-0.37543 0.10348-0.15494 0.31888-0.23916zm0.31565-0.49582q-1.12e-4 0.13091 0.08078 0.21194 0.08261 0.07931 0.2187 0.07943 0.12058 1.04e-4 0.19816-0.07907 0.07758-0.07917 0.07769-0.20492 1.12e-4 -0.13091-0.08078-0.21194-0.08089-0.08275-0.20663-0.08286-0.12747-1.09e-4 -0.2085 0.08078-0.07931 0.07917-0.07941 0.20664zm-0.03883 1.0869q-1.43e-4 0.16709 0.1014 0.27397 0.10154 0.10516 0.23245 0.10528 0.12574 1.08e-4 0.22574-0.1066 0.1-0.10843 0.10014-0.2738 1.44e-4 -0.16709-0.1014-0.27397-0.09982-0.10688-0.23245-0.107-0.13091-1.12e-4 -0.22919 0.10316-0.09655 0.10327-0.0967 0.27897z" stop-color="#000000"/>
<path d="m70.197 18.59 0.70279 0.0037-0.0025 0.48231-0.70279-0.0037zm-0.0036 0.6959 0.70279 0.0037-0.0093 1.7742q-0.0018 0.33934-0.05246 0.48032-0.04897 0.141-0.18206 0.22815-0.13309 0.08716-0.37941 0.08587-0.20326-0.0011-0.50438-0.06292l0.10773-0.50932q0.08431 0.01767 0.12393 0.01787 0.08957 4.67e-4 0.1364-0.0613 0.04682-0.06005 0.04777-0.24263z" stop-color="#000000"/>
<path d="m73.392 21.128-0.65456-0.0018 8.02e-4 -0.29628q-0.14691 0.18219-0.29698 0.2593-0.14835 0.07711-0.36539 0.07653-0.28939-7.83e-4 -0.45428-0.17348-0.16317-0.17442-0.1622-0.53443l0.0032-1.1644 0.70452 0.0019-0.0027 1.006q-4.66e-4 0.17225 0.06307 0.24477 0.06354 0.07252 0.17895 0.07283 0.12574 3.4e-4 0.20524-0.09591 0.08122-0.09624 0.0819-0.34601l0.0024-0.88022 0.70107 0.0019z" stop-color="#000000"/>
<path d="m73.965 18.602 0.70107-0.0025 0.0017 0.47714-0.70107 0.0025zm0.0024 0.6959 0.70107-0.0025 0.0064 1.8293-0.70107 0.0025z" stop-color="#000000"/>
<path d="m75.226 19.295 0.65276-0.01062 0.0048 0.29796q0.14343-0.18495 0.29201-0.26489 0.14855-0.08166 0.36384-0.08517 0.29107-0.0047 0.45752 0.16656 0.16814 0.16954 0.17403 0.53123l0.01891 1.1626-0.70443 0.01146-0.01636-1.0058q-0.0028-0.17223-0.06767-0.24181-0.0649-0.0713-0.1803-0.06942-0.12745 0.0021-0.20511 0.09981-0.07766 0.09774-0.07359 0.34747l0.01429 0.87838-0.70098 0.0114z" stop-color="#000000"/>
</g>
</g>
<path d="m27.195 21.701c7.6215-0.18305 23.19-0.47381 25.675 0.96136" fill="none" stop-color="#000000" style="-inkscape-stroke:none;font-variation-settings:normal"/>
<path d="m52.85 17.129-0.0156 27.912c0.26542-0.52572 0.9874-1.2265 1.3238-1.5085l1.0971 0.91387-0.23317-28.225c-0.7327 0.19406-1.4712 0.31532-2.1721 0.90818z" fill="#e62e6c" fill-rule="evenodd" stop-color="#000000" stroke="#8c113a" stroke-linecap="round" stroke-linejoin="round" stroke-width=".3" style="-inkscape-stroke:none;font-variation-settings:normal"/>
<path d="m27.17 33.006c9.1425-0.14416 25.02 0.28494 25.68 0.74096" fill="none" stop-color="#000000" style="-inkscape-stroke:none;font-variation-settings:normal"/>
<g fill="#e62e6c" stop-color="#000000" stroke-width="1px" aria-label="Lun 5 juin">
<path d="m27.322 19.172 0.78011-0.01766 0.04308 1.9029 1.2175-0.02757 0.01407 0.62168-1.9976 0.04523z"/>
<path d="m31.807 21.604-0.65445 0.01224-0.0055-0.29623q-0.14298 0.1853-0.29136 0.2656-0.14666 0.08027-0.36367 0.08433-0.28934 0.0054-0.45789-0.16372-0.16687-0.17089-0.1736-0.53084l-0.02178-1.1642 0.7044-0.01318 0.01881 1.0058q0.0032 0.17222 0.0683 0.24337 0.06508 0.07114 0.18047 0.06898 0.12572-0.0024 0.20314-0.10028 0.07914-0.09796 0.07447-0.34768l-0.01646-0.88007 0.70095-0.01311z"/>
<path d="m32.342 19.766 0.65278-0.0089 4e-3 0.29797q0.14392-0.18456 0.29272-0.2641 0.14877-0.08126 0.36407-0.08419 0.29108-0.0039 0.45707 0.16779 0.16769 0.16999 0.1726 0.5317l0.01578 1.1626-0.70446 0.0096-0.01365-1.0059q-0.0023-0.17224-0.06702-0.24199-0.06471-0.07147-0.18011-0.06991-0.12746 0.0017-0.20538 0.09926-0.07792 0.09753-0.07453 0.34727l0.01192 0.87842-0.70101 0.0095z"/>
<path d="m36.643 19.024 1.6657-0.0042 0.0014 0.55982-1.1283 0.0029-0.05933 0.37911q0.11699-0.05542 0.23061-0.08327 0.11534-0.02785 0.22731-0.02814 0.37896-9.59e-4 0.61553 0.22754t0.23745 0.57645q6.19e-4 0.2446-0.12111 0.47056-0.12001 0.22596-0.34364 0.34538-0.22191 0.11942-0.56986 0.1203-0.24977 6.33e-4 -0.42903-0.04542-0.17754-0.04778-0.30352-0.14048-0.12426-0.09443-0.20208-0.21308-0.07782-0.11866-0.12994-0.29595l0.70949-0.07931q0.02627 0.17047 0.12124 0.2598 0.09496 0.08761 0.22587 0.08728 0.14642-3.7e-4 0.24088-0.11085 0.09618-0.11221 0.09562-0.33269-5.71e-4 -0.22565-0.0973-0.33048-0.09673-0.10483-0.25692-0.10442-0.10163 2.57e-4 -0.19624 0.05045-0.07053 0.03635-0.1547 0.1313l-0.59794-0.08461z"/>
<path d="m40.553 19.032 0.70276 0.0076-0.0052 0.48228-0.70276-0.0076zm-0.0076 0.69587 0.70276 0.0076-0.0193 1.7741q-0.0037 0.33932-0.05518 0.48002-0.04977 0.14072-0.18335 0.22712-0.13358 0.0864-0.37989 0.08372-0.20325-0.0022-0.50402-0.06578l0.11062-0.5087q0.08421 0.01814 0.12383 0.01857 0.08957 9.74e-4 0.13675-0.06053 0.04716-0.05978 0.04915-0.24236z"/>
<path d="m43.728 21.61-0.65442-0.01375 0.0062-0.29621q-0.15022 0.17947-0.30168 0.25382-0.14973 0.07439-0.36673 0.06983-0.28932-0.0061-0.45103-0.18177-0.15995-0.17738-0.15239-0.53731l0.02446-1.1642 0.70436 0.0148-0.02113 1.0057q-0.0036 0.17222 0.05858 0.24589 0.0622 0.07367 0.17758 0.07609 0.12572 0.0026 0.20696-0.09213 0.08297-0.09474 0.08822-0.34446l0.01849-0.88002 0.70092 0.01473z"/>
<path d="m44.397 19.106 0.70067 0.0238-0.0162 0.47687-0.70067-0.0238zm-0.02363 0.69551 0.70067 0.0238-0.06211 1.8283-0.70067-0.0238z"/>
<path d="m45.688 19.844 0.65194 0.03438-0.01569 0.29759q0.15583-0.17463 0.30956-0.24414 0.15383-0.07124 0.36884-0.0599 0.29071 0.01533 0.44496 0.19768 0.15606 0.18072 0.13701 0.54196l-0.06123 1.1611-0.70354-0.0371 0.05297-1.0046q0.0091-0.17202-0.05086-0.2459-0.05984-0.0756-0.17509-0.08168-0.12729-0.0067-0.2115 0.08544-0.08421 0.09216-0.09736 0.34158l-0.04626 0.87728-0.7001-0.03692z"/>
</g>
<g fill="#e62e6c" stop-color="#000000" stroke-width="1px" aria-label="Mar 6 juin">
<path d="m27.394 30.473 1.0266-0.0086 0.40898 1.5332 0.38164-1.5397 1.0232-0.0085 0.02105 2.5252-0.63732 0.0053-0.01606-1.9257-0.4783 1.9299-0.57703 0.0048-0.50869-1.9216 0.01605 1.9257-0.63904 0.0053z" stop-color="#000000"/>
<path d="m31.475 31.741-0.66994-0.07183q0.03821-0.17563 0.10901-0.27541 0.07253-0.1015 0.20702-0.17533 0.09656-0.05323 0.26542-0.08221 0.16886-0.02898 0.36523-0.02863 0.31522 5.65e-4 0.50636 0.03708 0.19114 0.03479 0.31841 0.14699 0.08943 0.07768 0.14085 0.22074 0.05142 0.14134 0.05119 0.27053l-0.0014 0.80787q-2.31e-4 0.12919 0.01514 0.20329 0.0171 0.07238 0.07201 0.18616l-0.65801-0.0012q-0.03949-0.0707-0.05148-0.10689-0.01199-0.03792-0.02391-0.11718-0.13804 0.13239-0.27422 0.18899-0.18617 0.07546-0.43249 0.07502-0.32728-5.87e-4 -0.49754-0.15248-0.16858-0.15186-0.16818-0.37406 3.73e-4 -0.20843 0.12292-0.34257 0.12254-0.13414 0.45166-0.19901 0.3946-0.07853 0.51179-0.10933 0.11719-0.03252 0.2482-0.08396 2.32e-4 -0.12919-0.05307-0.18096-0.05331-0.05177-0.18766-0.05201-0.17225-3.09e-4 -0.25848 0.05466-0.06726 0.04294-0.10881 0.16172zm0.6074 0.36971q-0.14479 0.05142-0.30161 0.09075-0.2137 0.05646-0.27064 0.11148-0.05867 0.05674-0.0588 0.12908-1.48e-4 0.08268 0.0566 0.13618 0.05847 0.05178 0.17044 0.05198 0.11713 2.1e-4 0.21714-0.05645 0.10173-0.05666 0.14322-0.13755 0.04321-0.08261 0.04345-0.21352z" stop-color="#000000"/>
<path d="m33.343 31.154 0.65627 0.0048-0.0022 0.29972q0.09615-0.19396 0.19658-0.26558 0.10216-0.07333 0.2503-0.07226 0.15502 0.0011 0.33863 0.09892l-0.22066 0.49795q-0.12364-0.05258-0.19599-0.0531-0.1378-1e-3 -0.21441 0.11214-0.10968 0.1594-0.11287 0.59864l-0.0044 0.61321-0.7045-0.0051z" stop-color="#000000"/>
<path d="m38.595 31.089-0.69888 0.07534q-0.02529-0.14682-0.08981-0.20812-0.06279-0.06127-0.15752-0.06273-0.17051-0.0026-0.2679 0.16814-0.07081 0.12294-0.10982 0.52891 0.1277-0.12551 0.26125-0.18374 0.13358-0.05995 0.30753-0.05727 0.33758 0.0052 0.56637 0.24994 0.23051 0.24475 0.22479 0.61505-0.0039 0.24974-0.1259 0.45458-0.12031 0.20487-0.33209 0.30841-0.21003 0.10184-0.52522 0.09697-0.37892-0.005856-0.60599-0.13857-0.22707-0.13272-0.3605-0.41731-0.13167-0.28629-0.12446-0.75304 0.01057-0.68377 0.3031-0.99623 0.29256-0.31419 0.80237-0.30631 0.30141 0.0047 0.47427 0.07796 0.17461 0.07161 0.28793 0.20773 0.11332 0.13613 0.17046 0.34029zm-1.3091 1.1047q-0.0032 0.20496 0.09836 0.32367 0.10156 0.11699 0.2514 0.11931 0.13779 0.0021 0.23242-0.1015 0.09463-0.10363 0.09785-0.31203 0.0033-0.21357-0.09142-0.32701t-0.23767-0.11565q-0.1464-0.0023-0.24797 0.1047-0.09985 0.10699-0.10296 0.3085z" stop-color="#000000"/>
<path d="m40.746 30.564 0.70261 0.01615-0.01108 0.48218-0.70261-0.01615zm-0.01599 0.69572 0.70261 0.01615-0.04077 1.7738q-0.0078 0.33925-0.06098 0.47932-0.05146 0.1401-0.18608 0.22488-0.13462 0.08478-0.38088 0.07912-0.20322-0.004673-0.5032-0.071873l0.11676-0.50732q0.08399 0.01916 0.12359 0.02007 0.08955 0.0021 0.13747-0.05887 0.04788-0.0592 0.05208-0.24174z" stop-color="#000000"/>
<path d="m43.896 33.171-0.65432-0.01803 0.0082-0.29616q-0.15139 0.17849-0.30333 0.25184-0.15022 0.0734-0.36718 0.06743-0.28928-8e-3 -0.44983-0.18472-0.15879-0.17842-0.14887-0.53829l0.03208-1.164 0.70425 0.01941-0.02772 1.0056q-0.0047 0.17219 0.05697 0.24626 0.06172 0.07408 0.17708 0.07726 0.1257 0.0035 0.20756-0.09078 0.08359-0.0942 0.09047-0.34387l0.02425-0.87989 0.70081 0.01932z" stop-color="#000000"/>
<path d="m44.565 30.666 0.7007 0.02299-0.01564 0.47689-0.7007-0.02298zm-0.02281 0.69553 0.7007 0.02298-0.05997 1.8284-0.7007-0.02298z" stop-color="#000000"/>
<path d="m45.833 31.403 0.65233 0.02589-0.01182 0.29777q0.15354-0.17664 0.30636-0.24815 0.15288-0.07323 0.36803-0.06469 0.29088 0.01154 0.4475 0.19187 0.1584 0.17868 0.14406 0.54013l-0.04611 1.1618-0.70397-0.02794 0.03989-1.0052q0.0068-0.17212-0.05405-0.24522-0.06081-0.07482-0.17614-0.07939-0.12737-0.0051-0.21037 0.08819-0.083 0.09324-0.0929 0.34282l-0.03484 0.87781-0.70052-0.0278z" stop-color="#000000"/>
</g>
</g>
</svg>
