<?xml version="1.0" encoding="UTF-8"?>
<svg width="63.295mm" height="30.581mm" version="1.1" viewBox="0 0 63.295 30.581" xmlns="http://www.w3.org/2000/svg">
<g transform="translate(-21.045 -14.878)">
<g fill="#fff" fill-rule="evenodd" stroke-width=".3">
<path d="m54.785 17.297h29.404v25.094h-29.404z" stop-color="#000000"/>
<path d="m21.195 18.287h31.641v24.604h-31.641z" stop-color="#000000"/>
<path d="m22.195 17.287h31.641v24.604h-31.641z" stop-color="#000000"/>
<path d="m54.785 16.297h28.404v25.094h-28.404z" stop-color="#000000"/>
</g>
<g fill="none" stroke="#b3b3b3" stroke-linecap="round" stroke-linejoin="round" stroke-width=".3">
<path d="m51.8 42.891h-30.606v-24.635" stop-color="#000000" style="-inkscape-stroke:none;font-variation-settings:normal"/>
<path d="m84.189 17.256v25.135h-28.122" stop-color="#000000" style="-inkscape-stroke:none;font-variation-settings:normal"/>
<path d="m51.854 41.891h-29.659v-24.635" stop-color="#000000" style="-inkscape-stroke:none;font-variation-settings:normal"/>
<path d="m83.189 16.256v25.135h-27.034" stop-color="#000000" style="-inkscape-stroke:none;font-variation-settings:normal"/>
</g>
<path d="m23.195 16.256c2.5217 0 26.516-0.93945 29.655 0.87264 2.7945-2.7945 24.433-0.73325 29.329-2.0554l0.2093 23.742c-5.8471 3.3758-22.097-0.0411-29.539 2.8514-0.76745-0.52999-22.087-1.0236-29.503-0.62327z" fill="#fff" fill-rule="evenodd" stop-color="#000000" stroke="#4d4d4d" stroke-width=".3" style="-inkscape-stroke:none;font-variation-settings:normal"/>
<g fill="none">
<path d="m56.867 21.477c7.2496-0.86322 21.461 0.19028 25.312-0.84977" stop-color="#000000" style="-inkscape-stroke:none;font-variation-settings:normal"/>
<path d="m56.873 26.476c7.2514-0.86196 21.456 0.1907 25.306-0.84907" stop-color="#000000" style="-inkscape-stroke:none;font-variation-settings:normal"/>
<path d="m56.828 32.814c8.2051-1.0705 20.61 0.93963 25.56-1.9181" stop-color="#000000" style="-inkscape-stroke:none;font-variation-settings:normal"/>
<path d="m56.883 37.807c8.2054-1.0546 20.567 0.94037 25.505-1.9111" stop-color="#000000" style="-inkscape-stroke:none;font-variation-settings:normal"/>
<path d="m27.17 38.006c9.1425-0.14416 25.02 0.28494 25.68 0.74096" stop-color="#000000" style="-inkscape-stroke:none;font-variation-settings:normal"/>
<path d="m27.195 26.701c7.6215-0.18305 23.19-0.47381 25.675 0.96136" stop-color="#000000" style="-inkscape-stroke:none;font-variation-settings:normal"/>
</g>
<path d="m52.85 17.469v24.131" fill="#fff" fill-rule="evenodd" stop-color="#000000" stroke="#4d4d4d" stroke-width=".3" style="-inkscape-stroke:none;font-variation-settings:normal"/>
<g fill="#333" stroke-width="1px">
<g stop-color="#000000" aria-label=" FÉRIÉ">
<path d="m31.481 25.567 0.01046 0.62003 0.43402-0.0073q0.15294-0.0026 0.21802 0.05628 0.06711 0.05675 0.06872 0.15182 0.0016 0.093-0.06356 0.15406-0.06309 0.05895-0.21604 0.06153l-0.92384 0.01558q-0.15294 0.0026-0.22005-0.05418-0.06508-0.05886-0.06668-0.15393-0.0016-0.093 0.06359-0.15199 0.06513-0.06105 0.216-0.0636l0.06614-0.0011-0.02795-1.6575-0.06614 0.0011q-0.15294 0.0026-0.22005-0.05418-0.06508-0.05886-0.06668-0.15393-0.0016-0.09507 0.06149-0.15402 0.06513-0.06105 0.21807-0.06363l1.9945-0.03157 0.01091 0.6469q0.0025 0.15087-0.05628 0.21802-0.05679 0.06505-0.15186 0.06665-0.093 0.0016-0.15402-0.06149-0.05895-0.06309-0.06153-0.21604l-0.0038-0.22321-1.0809 0.01823 0.01035 0.61383 0.37202-0.0063q-0.0028-0.16534 0.02741-0.2134 0.06236-0.10235 0.18017-0.10434 0.093-0.0016 0.15199 0.06359 0.06102 0.06306 0.06359 0.216l0.0082 0.48776q0.0026 0.15294-0.05624 0.22009-0.05679 0.06505-0.15186 0.06665-0.11574 2e-3 -0.18152-0.09824-0.0318-0.04701-0.03463-0.21442z"/>
<path d="m34.152 25.525 0.0066 0.62215 1.081-0.0114-0.0024-0.22943q-0.0016-0.15295 0.05559-0.21764 0.05924-0.06677 0.15432-0.06778 0.09301-9.81e-4 0.15158 0.06455 0.06062 0.06344 0.06223 0.2164l0.0069 0.65315-1.9946 0.02103q-0.15295 0.0016-0.21971-0.05556-0.06471-0.05927-0.06571-0.15434-9.8e-4 -0.09301 0.06455-0.15158 0.06551-0.06064 0.2164-0.06223l0.06614-6.97e-4 -0.01748-1.6577-0.06614 6.97e-4q-0.15295 0.0016-0.21971-0.05556-0.06471-0.05927-0.06571-0.15434-1e-3 -0.09508 0.06246-0.15363 0.06551-0.06064 0.21846-0.06225l1.9016-0.01798 0.0068 0.64489q0.0016 0.15089-0.05559 0.21764-0.0572 0.06469-0.15228 0.06569-0.09508 1e-3 -0.1557-0.06244-0.05855-0.06347-0.06016-0.21642l-0.0023-0.22116-0.988 0.01042 0.0065 0.61182 0.37205-0.0039q-0.0017-0.16536 0.02876-0.21322 0.06301-0.10196 0.18082-0.1032 0.09301-9.81e-4 0.15158 0.06455 0.06062 0.06344 0.06223 0.2164l0.0051 0.4878q0.0015 0.13848-0.03111 0.18637-0.06512 0.09784-0.17673 0.09902-0.11782 0.0012-0.18296-0.09936-0.03151-0.04721-0.03327-0.21464zm0.72953-2.1741-0.46107 0.38315q-0.06969 0.05655-0.11723 0.05705-0.05787 6.1e-4 -0.09963-0.03823-0.03969-0.03886-0.0403-0.09673-6.97e-4 -0.06614 0.08128-0.13316l0.46314-0.38318q0.06969-0.05655 0.11723-0.05705 0.05787-6.1e-4 0.09756 0.03825 0.04175 0.03884 0.04234 0.09464 7.2e-4 0.06821-0.08333 0.13524z"/>
<path d="m36.966 25.592 0.0013 0.5333 0.15296-3.81e-4q0.15296-3.81e-4 0.21719 0.0594 0.06629 0.05771 0.06653 0.1528 2.32e-4 0.09302-0.06576 0.15313-0.06393 0.05804-0.2169 0.05842l-0.64285 0.0016q-0.15296 3.81e-4 -0.21925-0.05733-0.06423-0.05978-0.06447-0.15487-2.32e-4 -0.09302 0.06577-0.15106 0.066-0.06011 0.21689-0.06048l0.06614-1.65e-4 -0.0041-1.6578-0.06615 1.64e-4q-0.15296 3.81e-4 -0.21925-0.05733-0.06423-0.05979-0.06446-0.15487-2.37e-4 -0.09508 0.0637-0.15312 0.066-0.06011 0.21896-0.06049l0.95912-3.22e-4q0.44855-0.0011 0.69508 0.22151 0.2486 0.22056 0.24939 0.53888 4.94e-4 0.19844-0.11485 0.36202-0.11535 0.16152-0.34862 0.28819 0.13465 0.11749 0.28807 0.30107 0.09538 0.11758 0.25723 0.3673 0.16123-4.02e-4 0.21299 0.03254 0.09318 0.06385 0.09346 0.1796 2.32e-4 0.09302-0.0637 0.15312-0.06394 0.05804-0.2169 0.05842l-0.24184 6.03e-4q-0.51668-0.79453-0.85608-0.95492zm-0.0011-0.42374 0.33073-8.24e-4q0.18397-4.58e-4 0.32852-0.05663 0.19412-0.0749 0.26006-0.15774 0.06801-0.08285 0.0678-0.16347-2.98e-4 -0.11989-0.12871-0.22086-0.12841-0.10303-0.37439-0.10242l-0.48576 0.0012z"/>
<path d="m40.443 24.475-0.01332 1.6577 0.42787 0.0034q0.15296 0.0012 0.21655 0.06169 0.06568 0.05841 0.06491 0.15349-7.47e-4 0.09302-0.06737 0.15243-0.06454 0.05736-0.2175 0.05613l-1.2795-0.01028q-0.15296-0.0012-0.21864-0.05964-0.06359-0.06046-0.06283-0.15554 7.47e-4 -0.09301 0.06529-0.15038 0.06663-0.05941 0.21958-0.05818l0.42787 0.0034 0.01332-1.6577-0.42787-0.0034q-0.15296-0.0012-0.21864-0.05964-0.06359-0.06046-0.06283-0.15554 7.65e-4 -0.09508 0.06531-0.15244 0.06663-0.05941 0.21958-0.05818l1.2794 0.01235q0.15296 0.0012 0.21657 0.05962 0.06568 0.05841 0.06491 0.15349-7.65e-4 0.09508-0.06739 0.15449-0.06454 0.05736-0.2175 0.05613z"/>
<path d="m42.607 25.54-0.01405 0.62202 1.0808 0.02442 0.0052-0.22938q0.0035-0.15292 0.06276-0.21568 0.06142-0.06477 0.15648-0.06263 0.09299 0.0021 0.14936 0.06954 0.05848 0.06542 0.05503 0.21834l-0.01475 0.65302-1.9942-0.04506q-0.15292-0.0035-0.21774-0.06281-0.06271-0.06138-0.06056-0.15644 0.0021-0.09299 0.06954-0.14936 0.06748-0.05843 0.21834-0.05503l0.06613 0.0015 0.03745-1.6574-0.06613-0.0015q-0.15292-0.0035-0.21774-0.06281-0.06271-0.06138-0.06056-0.15644 0.0021-0.09506 0.06752-0.15148 0.06748-0.05843 0.22041-0.05498l1.9012 0.04502-0.01457 0.64476q-0.0034 0.15086-0.06276 0.21568-0.05931 0.06275-0.15437 0.06061-0.09506-0.0021-0.15354-0.06756-0.05642-0.06537-0.05296-0.21829l5e-3 -0.22112-0.9878-0.02232-0.01382 0.61169 0.37198 0.0084q0.0037-0.16532 0.03581-0.21215 0.06635-0.09981 0.18414-0.09715 0.09299 0.0021 0.14936 0.06954 0.05848 0.06542 0.05503 0.21834l-0.01102 0.4877q-0.0031 0.13846-0.03727 0.18524-0.06832 0.09563-0.17992 0.09311-0.11779-0.0027-0.17957-0.10537-0.02992-0.04823-0.02614-0.21562zm0.80115-2.1487-0.47351 0.36767q-0.07152 0.05421-0.11905 0.05314-0.05786-0.0013-0.09831-0.04151-0.03838-0.04015-0.03707-0.09801 0.0015-0.06613 0.08565-0.13039l0.47558-0.36762q0.07152-0.05421 0.11905-0.05314 0.05786 0.0013 0.09624 0.04146 0.04044 0.0402 0.03918 0.09599-0.0015 0.06819-0.08776 0.13241z"/>
</g>
<g stop-color="#000000" aria-label=" 14:30">
<path d="m31.985 35.235-0.0039 2.3192 0.42788 7.19e-4q0.15296 2.57e-4 0.21694 0.06031 0.06605 0.05799 0.06589 0.15307-1.56e-4 0.09302-0.0664 0.15285-0.06418 0.05777-0.21714 0.05751l-1.2795-0.0022q-0.15296-2.57e-4 -0.21901-0.05825-0.06398-0.06005-0.06382-0.15514 1.57e-4 -0.09302 0.06433-0.15079 0.06625-0.05983 0.21921-0.05958l0.42788 7.19e-4 3e-3 -1.7673-0.37844 0.09858q-0.09099 0.02465-0.13647 0.02457-0.08061-1.35e-4 -0.14045-0.06432-0.05777-0.06418-0.05761-0.15719 1.42e-4 -0.08475 0.04363-0.13222 0.04349-0.04954 0.18205-0.08651z"/>
<path d="m35.221 35.324-0.01466 1.6577q0.13435 0.0012 0.1979 0.0617 0.06356 0.05844 0.06274 0.15146-8.22e-4 0.09301-0.0675 0.15237-0.06461 0.05938-0.19689 0.05821l-0.0015 0.16949q0.13435 0.0012 0.1979 0.0617 0.06355 0.06051 0.06272 0.15352-8.23e-4 0.09301-0.0675 0.15237-0.064572 0.057299-0.21753 0.055946l-0.56842-5e-3q-0.15296-0.0014-0.21859-0.05981-0.06355-0.06051-0.0627-0.15559 8.23e-4 -0.09301 0.06541-0.15032 0.06667-0.05936 0.21963-0.05801l0.16536 0.0015 0.0015-0.16949-1.1513-0.01018 0.0031-0.35345 1.0302-1.719zm-0.43839 1.654 0.0092-1.0418-0.6231 1.0363z"/>
<path d="m37.728 36.438q-0.0018 0.11988-0.08776 0.1992-0.08595 0.07933-0.23476 0.07709-0.14881-0.0022-0.23234-0.08413-0.08353-0.08188-0.08172-0.20176 0.0018-0.11988 0.08776-0.1992 0.08595-0.07933 0.23476-0.07709 0.14881 0.0022 0.23234 0.08413 0.08353 0.08188 0.08172 0.20176zm-0.01676 1.3869q-0.0018 0.11988-0.08776 0.1992-0.08595 0.07933-0.23476 0.07709-0.14881-0.0022-0.23234-0.08412-0.08353-0.08188-0.08172-0.20176 0.0018-0.11988 0.08776-0.1992 0.08595-0.07933 0.23476-0.07709 0.14881 0.0022 0.23234 0.08413 0.08353 0.08188 0.08172 0.20176z"/>
<path d="m40.829 36.675q0.18536 0.1321 0.27478 0.30352 0.08946 0.16936 0.08506 0.37808-0.0048 0.22526-0.13281 0.41484-0.12594 0.18755-0.36156 0.28182-0.23558 0.0922-0.61376 0.08422-0.49185-0.01038-0.73661-0.16855-0.13663-0.08972-0.1341-0.20958 0.0019-0.09093 0.06316-0.15166 0.06335-0.06275 0.15015-0.06092 0.05993 0.0013 0.12312 0.04395 0.08962 0.06392 0.16978 0.08628 0.12338 0.03155 0.34038 0.03613 0.36992 0.0078 0.53726-0.08376 0.16738-0.09364 0.17109-0.2693 0.0027-0.1302-0.09185-0.25211-0.09249-0.12394-0.25229-0.19347-0.09221-0.03916-0.31303-0.0583-0.10526-0.0084-0.16191-0.06751-0.05453-0.06111-0.0527-0.14791 0.0019-0.09093 0.06523-0.15162 0.06331-0.06069 0.15837-0.05868 0.21079 0.0045 0.2253 0.0027 0.08284-0.0065 0.16646-0.05024 0.08362-0.04372 0.13488-0.1212 0.05337-0.07951 0.05515-0.16424 0.0028-0.13433-0.11498-0.23399-0.1157-0.10168-0.35336-0.1067-0.30586-0.0065-0.4708 0.16787-0.04862 0.05066-0.07786 0.06452-0.04388 0.02182-0.09761 0.02068-0.0868-0.0018-0.14749-0.06514-0.06069-0.06331-0.05877-0.15424 3e-3 -0.1426 0.19597-0.27291 0.28107-0.19048 0.69645-0.18171 0.39265 0.0083 0.6256 0.2365 0.23295 0.22821 0.22632 0.54233-0.0034 0.16326-0.07672 0.30437-0.07323 0.13904-0.21629 0.25594z"/>
<path d="m43.965 36.599-0.01289 0.46491q-0.01146 0.41325-0.26163 0.78473-0.24811 0.37154-0.69235 0.35922-0.25622-0.0071-0.43082-0.12361-0.17248-0.11852-0.32322-0.4246-0.14861-0.3081-0.13922-0.64696l0.01289-0.46491q0.0114-0.41119 0.25951-0.78272 0.24816-0.3736 0.69241-0.36128 0.25415 7e-3 0.42669 0.1235 0.1746 0.11651 0.32528 0.42466 0.1528 0.30614 0.14335 0.64708zm-0.42565-0.0118q0.0096-0.34507-0.17543-0.60868-0.10556-0.14561-0.30392-0.15111-0.19216-0.0053-0.31843 0.14833-0.19049 0.23252-0.20023 0.58378l-0.01289 0.46491q-0.0096 0.34713 0.1775 0.60873 0.10349 0.14555 0.30392 0.15111 0.1901 0.0053 0.31636-0.14838 0.19049-0.23252 0.20023-0.58378z"/>
</g>
<g stop-color="#000000" aria-label=" 15:30">
<path d="m61.591 23.422 0.07527 2.318 0.42766-0.01389q0.15288-5e-3 0.21887 0.05287 0.06799 0.0557 0.07107 0.15073 3e-3 0.09297-0.06115 0.15503-0.06217 0.05993-0.21505 0.06489l-1.2788 0.04153q-0.15288 5e-3 -0.22087-0.05074-0.06599-0.05783-0.06908-0.15287-3e-3 -0.09297 0.05915-0.1529 0.06417-0.06206 0.21705-0.06702l0.42766-0.01389-0.05736-1.7664-0.37485 0.11144q-0.0901 0.02774-0.13555 0.02922-0.08057 0.0026-0.14257-0.05948-0.05993-0.06217-0.06294-0.15514-0.0028-0.0847 0.03909-0.13363 0.04178-0.05099 0.17899-0.09267z"/>
<path d="m63.883 23.867 0.0054 0.50433q0.23484-0.07692 0.42706-0.07898 0.39065-0.0042 0.65186 0.25971 0.26121 0.26388 0.26572 0.68553 0.0046 0.43406-0.25522 0.68489-0.25781 0.24875-0.79728 0.2545-0.4754 0.0051-0.75428-0.17179-0.16232-0.10163-0.16376-0.23598-9.05e-4 -0.08474 0.06044-0.14742 0.06339-0.06476 0.1502-0.06569 0.07234-7.73e-4 0.15784 0.0686 0.08547 0.0673 0.17877 0.09318 0.1327 0.03786 0.3394 0.03565 0.38445-0.0041 0.5237-0.12755 0.13923-0.12552 0.13651-0.37975-0.0027-0.2501-0.14061-0.39126-0.13587-0.14118-0.34877-0.13891-0.22943 0.0024-0.52135 0.1544-0.06577 0.03584-0.11537 0.03637-0.09095 9.71e-4 -0.15366-0.06451-0.06065-0.0655-0.06177-0.17092l-0.01306-1.2236 1.296-0.01384q0.15295-0.0016 0.21767 0.05762 0.06676 0.05717 0.06777 0.15225 9.93e-4 0.09301-0.06451 0.15366-0.06346 0.05856-0.21641 0.06019z"/>
<path d="m67.395 24.509q-1.04e-4 0.11989-0.08492 0.20043-0.08482 0.08054-0.23365 0.08041-0.14883-1.29e-4 -0.23351-0.08082-0.08468-0.08069-0.08458-0.20058 1.04e-4 -0.11989 0.08492-0.20043 0.08482-0.08054 0.23365-0.08041 0.14883 1.29e-4 0.23351 0.08082 0.08468 0.08069 0.08458 0.20058zm0.0029 1.387q-1.03e-4 0.11989-0.08492 0.20043-0.08482 0.08054-0.23365 0.08041-0.14883-1.29e-4 -0.23351-0.08082-0.08468-0.08069-0.08458-0.20058 1.03e-4 -0.11989 0.08492-0.20043 0.08482-0.08054 0.23365-0.08041 0.14883 1.29e-4 0.23351 0.08082 0.08468 0.08069 0.08458 0.20058z"/>
<path d="m70.495 24.701q0.18745 0.1291 0.27962 0.29907 0.09217 0.1679 0.09112 0.37667-0.0011 0.22531-0.12612 0.41692-0.12291 0.18955-0.35699 0.28759-0.23406 0.09597-0.61233 0.09407-0.49195-0.0025-0.73923-0.15669-0.13805-0.08751-0.13745-0.2074 4.58e-4 -0.09095 0.06072-0.15266 0.06233-0.06377 0.14915-0.06333 0.05994 3.02e-4 0.12381 0.04197 0.09064 0.06247 0.17115 0.08355 0.12388 0.02956 0.34091 0.03066 0.37 0.0019 0.53584-0.09239 0.16585-0.09632 0.16674-0.27201 6.56e-4 -0.13022-0.09589-0.2506-0.09447-0.12243-0.25536-0.18939-0.09283-0.03768-0.31393-0.05326-0.10539-0.0067-0.16297-0.0649-0.05551-0.06022-0.05507-0.14704 4.58e-4 -0.09095 0.06278-0.15265 0.06232-0.0617 0.15741-0.06122 0.21084 0.0011 0.22532-9.32e-4 0.08272-0.0079 0.16563-0.05291 0.08291-0.04506 0.13291-0.12336 0.05208-0.08035 0.05251-0.1651 6.77e-4 -0.13436-0.11872-0.23211-0.11732-0.09981-0.35503-0.10101-0.30592-0.0015-0.46804 0.17541-0.0478 0.05144-0.07681 0.06576-0.04352 0.02252-0.09727 0.02225-0.08682-4.37e-4 -0.14851-0.06276-0.0617-0.06232-0.06124-0.15327 7.18e-4 -0.14262 0.19156-0.27602 0.27797-0.19497 0.69344-0.19288 0.39274 2e-3 0.62932 0.22642 0.23658 0.22444 0.235 0.53862-8.23e-4 0.1633-0.07182 0.30557-0.07099 0.1402-0.21215 0.25938z"/>
<path d="m73.614 24.555-9.53e-4 0.46509q-8.48e-4 0.41341-0.2414 0.79119-0.23849 0.37778-0.6829 0.37687-0.25632-5.26e-4 -0.43385-0.11251-0.17547-0.11405-0.33401-0.41616-0.15647-0.30418-0.15578-0.64318l9.54e-4 -0.46509q8.43e-4 -0.41134 0.23933-0.78913 0.23849-0.37985 0.68291-0.37894 0.25425 5.21e-4 0.42972 0.1125 0.17754 0.11198 0.33608 0.41617 0.16061 0.30212 0.15991 0.64318zm-0.42581-8.73e-4q7.07e-4 -0.3452-0.191-0.60397-0.10926-0.14285-0.3077-0.14326-0.19224-3.94e-4 -0.31451 0.15645-0.18446 0.23733-0.18518 0.58873l-9.53e-4 0.46509q-7.12e-4 0.34726 0.19306 0.60398 0.10719 0.14285 0.3077 0.14326 0.19017 3.9e-4 0.31245-0.15646 0.18446-0.23733 0.18518-0.58873z"/>
</g>
</g>
<g stroke-width="1px">
<g fill="#e62e6c" stop-color="#000000" aria-label="Ven 12 mai">
<path d="m58.878 29.822-0.70295 0.06829-0.30642 1.5815-0.61283-1.4922-0.69909 0.06792 1.1748 2.6618 0.50211-0.04878z" stop-color="#000000"/>
<path d="m61.107 31.656-0.01192-0.26361c-0.02594-0.57374-0.37896-0.99284-0.9837-0.9655-0.5466 0.02471-0.91691 0.42602-0.88606 1.1083 0.04066 0.89937 0.57929 1.0421 1.0406 1.0212 0.38766-0.01753 0.59174-0.14329 0.79531-0.36614l-0.39708-0.36273c-0.10734 0.1175-0.20145 0.18391-0.42242 0.1939-0.23647 0.01069-0.37529-0.13841-0.383-0.30898zm-0.64711-0.39416-0.62026 0.02804c-0.0023-0.0504 3e-3 -0.10502 0.02753-0.1644 0.03491-0.08704 0.11669-0.16842 0.26788-0.17526 0.15119-0.0068 0.23998 0.06684 0.2826 0.15037 0.02976 0.05692 0.03997 0.11084 0.04225 0.16124z" stop-color="#000000"/>
<path d="m63.45 32.46-0.01721-1.3348c-0.0029-0.22117-0.03644-0.41866-0.21724-0.59486-0.11398-0.11108-0.27392-0.17499-0.47181-0.17244-0.16685 0.0022-0.35613 0.07057-0.48253 0.20026l-0.0022-0.17073-0.62084 8e-3 0.02691 2.0876 0.63636-0.0082-0.01611-1.2494c-0.0031-0.24058 0.16703-0.28934 0.2524-0.29044 0.08537-0.0011 0.2567 0.04326 0.2598 0.28384l0.01611 1.2494z" stop-color="#000000"/>
<path d="m66.638 32.482 0.02857-2.7628-0.63638-0.0066-0.59511 0.50611-7e-3 0.67906 0.59511-0.50611-0.02155 2.0838z" stop-color="#000000"/>
<path d="m69.337 32.516 0.0067-0.57428-1.0011-0.01169 0.6678-0.69075c0.2239-0.23024 0.346-0.38404 0.34939-0.67507 0.0061-0.51996-0.36277-0.83861-0.87497-0.84459-0.48116-0.0056-0.89596 0.28836-0.9023 0.8316l0.63637 0.0074c0.0025-0.21342 0.14282-0.26611 0.25922-0.26475 0.16297 0.0019 0.24712 0.10767 0.24535 0.259-0.0014 0.11641-0.04098 0.1858-0.14313 0.29327l-1.0138 1.0748-0.0067 0.57428z" stop-color="#000000"/>
<path d="m74.075 32.495-0.01934-1.3348c-0.0032-0.22117-0.05652-0.41832-0.23759-0.59423-0.11416-0.11089-0.30524-0.1741-0.50313-0.17123-0.24057 0.0035-0.40652 0.06799-0.58658 0.22972-0.13806-0.15324-0.30586-0.21678-0.51151-0.2138-0.16685 0.0024-0.35602 0.07114-0.48221 0.20104l-0.0025-0.17073-0.62082 9e-3 0.03025 2.0875 0.63634-0.0092-0.01811-1.2494c-0.0035-0.24057 0.16657-0.2896 0.25193-0.29084 0.08536-0.0012 0.25676 0.04285 0.26025 0.28342l0.01811 1.2494 0.63634-0.0092-0.01811-1.2494c-0.0035-0.24057 0.16657-0.2896 0.25193-0.29084 0.08536-0.0012 0.25676 0.04285 0.26025 0.28342l0.01811 1.2494z" stop-color="#000000"/>
<path d="m76.302 32.37-0.08141-1.3519c-0.03056-0.50743-0.36699-0.73598-0.96352-0.70006-0.35249 0.02123-0.53786 0.10626-0.73808 0.33213l0.41889 0.37131c0.09465-0.10678 0.17707-0.15839 0.32039-0.16702 0.22079-0.0133 0.31796 0.05083 0.32939 0.24063l0.0033 0.05423-0.4106 0.02473c-0.50743 0.03056-0.70298 0.3339-0.68409 0.64766 0.01166 0.19368 0.08414 0.36425 0.21145 0.4771 0.1232 0.10921 0.30171 0.16844 0.51088 0.15584 0.22079-0.0133 0.33327-0.08227 0.4534-0.2178l0.01026 0.17044zm-0.68238-0.7442c0.0065 0.10846-0.0055 0.1675-0.05302 0.21701-0.06235 0.06207-0.11952 0.08106-0.22411 0.08736-0.15494 0.0093-0.23297-0.05983-0.2388-0.15667-0.0063-0.10458 0.06333-0.17487 0.21053-0.18373l0.30214-0.0182z" stop-color="#000000"/>
<path d="m77.511 32.246-0.21334-1.9949-0.6328 0.06768 0.21334 1.9949zm-0.2447-2.2881-0.05158-0.48232-0.6328 0.06768 0.05158 0.48232z" stop-color="#000000"/>
</g>
<g fill="#333" stop-color="#000000" aria-label=" 13:30">
<path d="m61.618 34.744 0.06001 2.3185 0.42774-0.01107q0.15291-4e-3 0.21852 0.05431 0.06762 0.05615 0.07008 0.1512 0.0024 0.09299-0.06217 0.15462-0.06256 0.05952-0.21547 0.06347l-1.2791 0.0331q-0.15291 4e-3 -0.22053-0.05219-0.06561-0.05827-0.06807-0.15332-0.0024-0.09299 0.06015-0.1525 0.06457-0.06164 0.21748-0.06559l0.42774-0.01107-0.04573-1.7667-0.37558 0.10897q-0.09028 0.02715-0.13574 0.02833-0.08059 0.0021-0.14217-0.06042-0.05952-0.06256-0.06192-0.15555-0.0022-0.08472 0.03997-0.13337 0.04211-0.05072 0.17959-0.09149z"/>
<path d="m64.885 36.049q0.1879 0.12846 0.28064 0.29811 0.09275 0.16758 0.09241 0.37635-3.61e-4 0.22531-0.12469 0.41735-0.12226 0.18997-0.356 0.28882-0.23373 0.09678-0.612 0.09617-0.49196-7.88e-4 -0.73976-0.15415-0.13835-0.08704-0.13816-0.20693 1.46e-4 -0.09095 0.06019-0.15286 0.06211-0.06398 0.14893-0.06384 0.05994 9.6e-5 0.12396 0.04154 0.09085 0.06216 0.17143 0.08296 0.12398 0.02914 0.34102 0.02949 0.37 5.93e-4 0.53552-0.09423 0.16552-0.09689 0.1658-0.27259 2.13e-4 -0.13023-0.096746-0.25027-0.09489-0.12211-0.25601-0.18851-0.09296-0.03736-0.31411-0.05218-0.10541-0.0064-0.16319-0.06434-0.05571-0.06003-0.05557-0.14685 1.45e-4 -0.09095 0.06226-0.15286 0.06211-0.06191 0.1572-0.06176 0.21084 3.38e-4 0.22531-0.0017 0.0827-0.0081 0.16545-0.05348 0.08276-0.04534 0.13249-0.12381 0.05181-0.08053 0.05194-0.16528 2.15e-4 -0.13436-0.11952-0.2317-0.11766-0.09941-0.35537-0.09979-0.30592-4.9e-4 -0.46744 0.17702-0.04762 0.0516-0.07659 0.06602-0.04345 0.02267-0.09719 0.02258-0.08682-1.39e-4 -0.14873-0.06225-0.06191-0.06211-0.06177-0.15306 2.29e-4 -0.14263 0.19061-0.27668 0.2773-0.19593 0.69278-0.19526 0.39274 6.3e-4 0.63009 0.22425 0.23735 0.22362 0.23685 0.53782-2.61e-4 0.1633-0.07077 0.30581-0.0705 0.14045-0.21126 0.26011z"/>
<path d="m67.422 35.898q-0.0014 0.11988-0.08714 0.19948-0.08571 0.0796-0.23452 0.07782-0.14882-0.0018-0.2326-0.0834-0.08378-0.08162-0.08235-0.2015 0.0014-0.11988 0.08714-0.19948 0.08571-0.0796 0.23452-0.07782 0.14882 0.0018 0.2326 0.0834 0.08378 0.08162 0.08235 0.2015zm-0.01245 1.3869q-0.0014 0.11988-0.08714 0.19948-0.08571 0.0796-0.23452 0.07782-0.14882-0.0018-0.2326-0.0834-0.08378-0.08162-0.08235-0.2015 0.0014-0.11988 0.08714-0.19948 0.08571-0.0796 0.23452-0.07782 0.14882 0.0018 0.2326 0.0834 0.08378 0.08162 0.08235 0.2015z"/>
<path d="m70.507 36.108q0.18719 0.12948 0.27901 0.29963 0.09183 0.16808 0.09036 0.37685-0.0016 0.2253-0.12697 0.41666-0.1233 0.1893-0.35757 0.28687-0.23426 0.0955-0.61252 0.09283-0.49195-0.0035-0.73891-0.15818-0.13788-0.08779-0.13703-0.20768 6.41e-4 -0.09095 0.06102-0.15254 0.06246-0.06364 0.14928-0.06303 0.05994 4.23e-4 0.12373 0.04221 0.09051 0.06265 0.17098 0.08389 0.12382 0.02981 0.34085 0.03134 0.36999 0.0026 0.53602-0.09131 0.16605-0.09598 0.16728-0.27168 9.19e-4 -0.13022-0.09538-0.25079-0.09422-0.12262-0.25498-0.18991-0.09275-0.03786-0.31382-0.05389-0.10537-0.0069-0.16284-0.06523-0.05539-0.06034-0.05477-0.14715 6.42e-4 -0.09095 0.06309-0.15252 0.06245-0.06157 0.15753-0.0609 0.21084 0.0015 0.22532-4.78e-4 0.08274-0.0077 0.16574-0.05257 0.083-0.04489 0.13316-0.12309 0.05224-0.08025 0.05284-0.165 9.48e-4 -0.13436-0.11825-0.23235-0.11712-0.10005-0.35482-0.10172-0.30592-0.0022-0.4684 0.17447-0.04791 0.05134-0.07695 0.0656-0.04357 0.02243-0.09731 0.02205-0.08681-6.12e-4 -0.14839-0.06306-0.06157-0.06245-0.06093-0.1534 1e-3 -0.14262 0.19212-0.27564 0.27836-0.19441 0.69383-0.19148 0.39273 0.0028 0.62886 0.22768 0.23613 0.22491 0.23391 0.5391-0.0012 0.16329-0.07244 0.30542-0.07127 0.14006-0.21267 0.25896z"/>
<path d="m73.596 35.929 7e-3 0.46504q0.0062 0.41336-0.2279 0.79518-0.23202 0.38179-0.67639 0.38844-0.25629 0.0038-0.4357-0.10511-0.17738-0.11104-0.34105-0.41042-0.16163-0.30147-0.1667-0.64043l-7e-3 -0.46504q-0.0062-0.4113 0.22586-0.79309 0.23199-0.38386 0.67636-0.39051 0.25422-0.0038 0.43157 0.10517 0.17942 0.10895 0.34311 0.41039 0.16573 0.29934 0.17084 0.64037zm-0.42577 0.0064q-0.0052-0.34516-0.20125-0.60063-0.11168-0.141-0.31009-0.13802-0.19222 0.0029-0.31181 0.16178-0.18039 0.24044-0.17513 0.5918l7e-3 0.46504q0.0052 0.34723 0.20332 0.6006 0.10961 0.141 0.31009 0.138 0.19015-0.0028 0.30974-0.16175 0.18039-0.24044 0.17513-0.5918z"/>
</g>
<g fill="#e62e6c" stop-color="#000000" aria-label="Jeu 11 mai">
<path d="m58.53 20.362-0.16459-1.8086-0.6763 0.06155 0.16318 1.7932c0.02392 0.26279-0.11625 0.39245-0.32494 0.41144-0.15072 0.01372-0.2252-0.03406-0.31796-0.11134l-0.40434 0.48101c0.24454 0.20375 0.4564 0.2624 0.77716 0.23321 0.51786-0.04713 1.0072-0.40728 0.94779-1.0604z" stop-color="#000000"/>
<path d="m60.968 20.342-0.01294-0.26356c-0.02816-0.57363-0.38279-0.99137-0.98743-0.96169-0.5465 0.02683-0.91526 0.42956-0.88177 1.1117 0.04414 0.89921 0.58332 1.0398 1.0445 1.0172 0.38759-0.01902 0.59118-0.14558 0.79389-0.36921l-0.39848-0.36119c-0.10688 0.11792-0.20074 0.18469-0.42166 0.19553-0.23643 0.0116-0.37582-0.13696-0.38419-0.3075zm-0.64863-0.39165-0.62014 0.03044c-0.0025-0.05039 0.0026-0.10503 0.02689-0.1645 0.03457-0.08717 0.11604-0.16888 0.2672-0.1763 0.15116-0.0074 0.24023 0.06591 0.28318 0.14928 0.02999 0.05681 0.0404 0.11069 0.04287 0.16108z" stop-color="#000000"/>
<path d="m63.297 21.123-0.04903-2.0872-0.63624 0.01495 0.02935 1.2492c0.0057 0.24053-0.16395 0.29109-0.2493 0.2931-0.08535 2e-3 -0.25714-0.04054-0.26279-0.28107l-0.02935-1.2492-0.63624 0.01495 0.03135 1.3345c0.0052 0.22113 0.04088 0.41826 0.22353 0.59252 0.11515 0.10986 0.27576 0.17208 0.47361 0.16743 0.16682-0.0039 0.35536-0.07434 0.48038-0.20537l4e-3 0.1707z" stop-color="#000000"/>
<path d="m66.501 21.102-0.0069-2.763-0.63641 0.0016-0.58856 0.5137 0.0017 0.6791 0.58856-0.5137 0.0052 2.0839z" stop-color="#000000"/>
<path d="m68.794 21.108 0.0099-2.7629-0.63641-0.0023-0.59168 0.51011-0.0024 0.67909 0.59168-0.51011-0.0075 2.0838z" stop-color="#000000"/>
<path d="m73.943 21.129 0.0031-1.3349c5.19e-4 -0.22119-0.04946-0.41922-0.22755-0.59814-0.11227-0.1128-0.30226-0.17922-0.50017-0.17968-0.24059-5.65e-4 -0.4076 0.06113-0.59036 0.21981-0.13542-0.15554-0.30213-0.2219-0.5078-0.22238-0.16686-3.92e-4 -0.35717 0.06513-0.48552 0.19289l4.01e-4 -0.17074-0.62089-0.0015-0.0049 2.0877 0.63641 0.0015 0.0029-1.2495c5.65e-4 -0.24059 0.17142-0.28676 0.25679-0.28656 0.08537 2e-4 0.25601 0.04717 0.25544 0.28776l-0.0029 1.2495 0.63641 0.0015 0.0029-1.2495c5.65e-4 -0.24059 0.17142-0.28676 0.25679-0.28656 0.08537 2e-4 0.25601 0.04717 0.25544 0.28776l-0.0029 1.2495z" stop-color="#000000"/>
<path d="m76.181 21.112-0.01268-1.3543c-0.0048-0.50833-0.32916-0.75366-0.92674-0.74807-0.35312 0.0033-0.54256 0.07881-0.75399 0.29423l0.3995 0.3921c0.09994-0.10184 0.18488-0.1492 0.32845-0.15054 0.22118-0.0021 0.31497 0.0669 0.31675 0.25704l5.08e-4 0.05432-0.41132 0.0038c-0.50833 0.0048-0.71903 0.29778-0.71609 0.6121 0.0018 0.19402 0.06554 0.36806 0.18696 0.48722 0.1175 0.11532 0.29277 0.18354 0.50231 0.18157 0.22118-0.0021 0.33701-0.06525 0.46387-0.1945l0.0016 0.17074zm-0.64372-0.77788c1e-3 0.10865-0.01396 0.167-0.06397 0.21404-0.06542 0.05882-0.12348 0.07489-0.22825 0.07587-0.15522 0.0015-0.22963-0.07158-0.23054-0.1686-9.81e-4 -0.10477 0.07213-0.17143 0.21958-0.17281l0.30267-0.0028z" stop-color="#000000"/>
<path d="m77.386 21.085-0.04832-2.0057-0.63623 0.01533 0.04832 2.0057zm-0.05543-2.3005-0.01168-0.48493-0.63623 0.01533 0.01168 0.48493z" stop-color="#000000"/>
</g>
</g>
<path d="m27.195 21.701c7.6215-0.18305 23.19-0.47381 25.675 0.96136" fill="none" stop-color="#000000" style="-inkscape-stroke:none;font-variation-settings:normal"/>
<path d="m52.85 17.129-0.0156 27.912c0.26542-0.52572 0.9874-1.2265 1.3238-1.5085l1.0971 0.91387-0.23317-28.225c-0.7327 0.19406-1.4712 0.31532-2.1721 0.90818z" fill="#e62e6c" fill-rule="evenodd" stop-color="#000000" stroke="#8c113a" stroke-linecap="round" stroke-linejoin="round" stroke-width=".3" style="-inkscape-stroke:none;font-variation-settings:normal"/>
<path d="m27.17 33.006c9.1425-0.14416 25.02 0.28494 25.68 0.74096" fill="none" stop-color="#000000" style="-inkscape-stroke:none;font-variation-settings:normal"/>
<g fill="#e62e6c" stop-color="#000000" stroke-width="1px" aria-label="Lun 8 mai">
<path d="m29.241 21.654-0.01375-0.60521-1.16 0.02636-0.04902-2.157-0.67892 0.01543 0.06277 2.7622z" stop-color="#000000"/>
<path d="m31.559 21.609-0.03972-2.0874-0.6363 0.01211 0.02377 1.2493c0.0046 0.24055-0.16525 0.29036-0.25061 0.29198-0.08536 0.0016-0.25696-0.04169-0.26153-0.28224l-0.02377-1.2493-0.6363 0.01211 0.0254 1.3347c0.0042 0.22115 0.03901 0.41843 0.22088 0.59351 0.11466 0.11038 0.27499 0.17331 0.47286 0.16954 0.16683-0.0032 0.35569-0.07275 0.48129-0.20322l0.0032 0.17071z" stop-color="#000000"/>
<path d="m33.956 21.573-0.01896-1.3348c-0.0031-0.22117-0.03699-0.41862-0.21802-0.59457-0.11412-0.11093-0.27415-0.17463-0.47204-0.17182-0.16685 0.0024-0.35604 0.07103-0.48227 0.2009l-0.0024-0.17073-0.62083 0.0088 0.02965 2.0875 0.63635-9e-3 -0.01774-1.2494c-0.0034-0.24057 0.16665-0.28956 0.25201-0.29077 0.08536-0.0012 0.25675 0.04293 0.26017 0.2835l0.01774 1.2494z" stop-color="#000000"/>
<path d="m37.578 20.719c-0.0017-0.34537-0.20815-0.50734-0.31334-0.5922 0.09662-0.08196 0.28207-0.24973 0.28061-0.54853-0.0026-0.52387-0.43085-0.81671-0.90427-0.8144-0.47342 0.0023-0.89884 0.29931-0.89629 0.82318 0.0015 0.2988 0.18854 0.46475 0.28594 0.54577-0.10436 0.08588-0.30923 0.24987-0.30755 0.59523 0.0028 0.57432 0.42324 0.84779 0.93159 0.84531 0.50835-0.0025 0.9261-0.28004 0.9233-0.85435zm-0.63648-0.01242c7.75e-4 0.1591-0.13052 0.29168-0.28962 0.29246-0.1591 7.75e-4 -0.29168-0.13052-0.29246-0.28962-7.76e-4 -0.1591 0.13052-0.29168 0.28962-0.29246 0.1591-7.75e-4 0.29168 0.13052 0.29246 0.28962zm-0.03256-1.1058c7.19e-4 0.14746-0.11513 0.26444-0.26259 0.26516-0.14746 7.19e-4 -0.26444-0.11513-0.26516-0.26259-7.19e-4 -0.14746 0.11513-0.26444 0.26259-0.26516 0.14746-7.19e-4 0.26444 0.11513 0.26516 0.26259z" stop-color="#000000"/>
<path d="m42.305 21.576 0.01454-1.3348c0.0024-0.22118-0.04588-0.41962-0.22243-0.60006-0.1113-0.11376-0.30072-0.18179-0.49861-0.18395-0.24058-0.0026-0.40811 0.05765-0.59222 0.21475-0.13412-0.15669-0.30026-0.22448-0.50591-0.22672-0.16685-0.0018-0.35771 0.06208-0.48716 0.18873l0.0019-0.17073-0.62085-0.0068-0.02275 2.0876 0.63637 0.0069 0.01361-1.2495c0.0026-0.24058 0.17386-0.28528 0.25923-0.28435 0.08537 9.3e-4 0.2556 0.04935 0.25297 0.28994l-0.01361 1.2495 0.63637 0.0069 0.01361-1.2495c0.0026-0.24058 0.17386-0.28528 0.25923-0.28435 0.08537 9.3e-4 0.25559 0.04935 0.25297 0.28994l-0.01361 1.2495z" stop-color="#000000"/>
<path d="m44.528 21.634 0.03645-1.3538c0.01368-0.50817-0.30161-0.7651-0.899-0.78118-0.353-0.0095-0.54507 0.05908-0.76416 0.26669l0.38502 0.40633c0.10357-0.09814 0.19017-0.1424 0.3337-0.13853 0.22111 6e-3 0.31233 0.07828 0.30722 0.26836l-0.0015 0.05431-0.41119-0.01107c-0.50817-0.01368-0.72935 0.27151-0.73781 0.58572-0.0052 0.19396 0.05215 0.37019 0.16916 0.49368 0.11324 0.11951 0.28592 0.19403 0.4954 0.19967 0.22111 6e-3 0.33916-0.05298 0.47062-0.17755l-0.0046 0.17068zm-0.61509-0.80072c-0.0029 0.10862-0.02001 0.16639-0.07169 0.21158-0.06751 0.05641-0.12612 0.07036-0.23085 0.06754-0.15517-0.0042-0.22689-0.07987-0.22428-0.17684 0.0028-0.10474 0.0783-0.1687 0.22571-0.16473l0.30257 0.0081z" stop-color="#000000"/>
<path d="m45.744 21.682 0.08124-2.0046-0.63589-0.02577-0.08124 2.0046zm0.09318-2.2993 0.01964-0.48467-0.63589-0.02577-0.01964 0.48467z" stop-color="#000000"/>
</g>
<g fill="#e62e6c" stop-color="#000000" stroke-width="1px" aria-label="Mar 9 mai">
<path d="m30.018 32.976-0.02407-2.7629-0.66743 0.0058-0.61025 1.2239-0.63148-1.213-0.66743 0.0058 0.02407 2.7629 0.67907-0.0059-0.01153-1.3232 0.39787 0.67954 0.43461-0.0038 0.38597-0.68637 0.01153 1.3232z" stop-color="#000000"/>
<path d="m32.303 32.978 0.0011-1.3543c4.3e-4 -0.50835-0.32145-0.75698-0.91905-0.75749-0.35313-2.98e-4 -0.54334 0.07327-0.75695 0.28652l0.39548 0.39615c0.10098-0.10081 0.18639-0.1473 0.32997-0.14718 0.22119 1.87e-4 0.31427 0.07012 0.3141 0.26026l-4.6e-5 0.05433-0.41134-3.48e-4c-0.50835-4.3e-4 -0.72203 0.29043-0.7223 0.60476-1.64e-4 0.19403 0.06178 0.36871 0.18197 0.4891 0.11632 0.11652 0.29088 0.18651 0.50044 0.18669 0.22119 1.87e-4 0.33766-0.0618 0.46583-0.18975l-1.45e-4 0.17074zm-0.63575-0.78441c-9.2e-5 0.10866-0.01566 0.16685-0.06615 0.21337-0.06602 0.05815-0.12424 0.07363-0.22902 0.07354-0.15522-1.32e-4 -0.22889-0.07393-0.22881-0.17094 8.8e-5 -0.10478 0.07388-0.17068 0.22134-0.17056l0.30268 2.56e-4z" stop-color="#000000"/>
<path d="m34.5 31.075c-0.14265-0.1445-0.28202-0.19585-0.48769-0.19718-0.21731-0.0014-0.40034 0.09832-0.49407 0.19085l0.0011-0.17074-0.62088-4e-3 -0.01346 2.0877 0.6364 0.0041 0.0081-1.2495c0.0015-0.23671 0.17259-0.28606 0.25796-0.2855 0.10865 7.01e-4 0.16656 0.04764 0.22825 0.11013z" stop-color="#000000"/>
<path d="m37.92 31.137c0.0083-0.58591-0.41035-0.89455-0.90702-0.90158-0.49666-7e-3 -0.92389 0.28963-0.93218 0.87554-0.0077 0.5471 0.38784 0.8399 0.72542 0.84468 0.04268 6.05e-4 0.10088 0.0014 0.15548-0.0172l-0.56244 1.0748 0.69843 0.0099 0.57108-1.1368c0.15971-0.31598 0.24782-0.50878 0.25123-0.74934zm-0.63635-9e-3c-0.0029 0.20565-0.1325 0.31248-0.2877 0.31028-0.15521-0.0022-0.28171-0.11266-0.2788-0.3183 0.0029-0.20565 0.1325-0.31248 0.2877-0.31028 0.15521 0.0022 0.28171 0.11266 0.2788 0.31831z" stop-color="#000000"/>
<path d="m42.606 33.133 0.03102-1.3346c0.0051-0.22113-0.04069-0.42016-0.215-0.60276-0.10989-0.11512-0.29845-0.18549-0.49631-0.19009-0.24053-0.0056-0.40879 0.0526-0.59483 0.20743-0.13218-0.15834-0.29746-0.22817-0.50308-0.23294-0.16682-0.0039-0.35845 0.05765-0.48945 0.1827l4e-3 -0.1707-0.62072-0.01443-0.04851 2.0872 0.63624 0.01479 0.02904-1.2492c0.0056-0.24053 0.17737-0.28312 0.26272-0.28113 0.08535 2e-3 0.25497 0.05251 0.24938 0.29304l-0.02904 1.2492 0.63624 0.01479 0.02904-1.2492c0.0056-0.24053 0.17737-0.28312 0.26272-0.28113 0.08535 2e-3 0.25497 0.05251 0.24938 0.29304l-0.02904 1.2492z" stop-color="#000000"/>
<path d="m44.845 33.201 0.04113-1.3537c0.01544-0.50812-0.29896-0.76614-0.89629-0.78429-0.35297-0.01072-0.54527 0.0572-0.76508 0.26405l0.38361 0.40766c0.10391-0.09778 0.19066-0.14174 0.33417-0.13738 0.22109 0.0067 0.31206 0.07936 0.30628 0.26942l-0.0017 0.0543-0.41115-0.01249c-0.50812-0.01544-0.73029 0.26899-0.73984 0.58317-0.0059 0.19394 0.05087 0.37037 0.16745 0.49426 0.11283 0.1199 0.28525 0.19502 0.4947 0.20138 0.22109 0.0067 0.33934-0.05181 0.47123-0.17592l-0.0052 0.17067zm-0.61231-0.80284c-0.0033 0.10861-0.02058 0.16632-0.07242 0.21133-0.06771 0.05618-0.12636 0.06992-0.23109 0.06674-0.15515-0.0047-0.22661-0.08065-0.22366-0.17762 0.0032-0.10473 0.07888-0.16843 0.22628-0.16395l0.30254 0.0092z" stop-color="#000000"/>
<path d="m46.063 33.244 0.07167-2.005-0.63601-0.02274-0.07167 2.005zm0.08221-2.2997 0.01733-0.48476-0.636-0.02274-0.01733 0.48476z" stop-color="#000000"/>
</g>
</g>
</svg>
