<?xml version="1.0" encoding="UTF-8"?>
<svg width="63.295mm" height="30.581mm" version="1.1" viewBox="0 0 63.295 30.581" xmlns="http://www.w3.org/2000/svg">
<g transform="translate(-21.045 -14.878)">
<g fill="#fff" fill-rule="evenodd" stroke-width=".3">
<path d="m54.785 17.297h29.404v25.094h-29.404z" stop-color="#000000"/>
<path d="m21.195 18.287h31.641v24.604h-31.641z" stop-color="#000000"/>
<path d="m22.195 17.287h31.641v24.604h-31.641z" stop-color="#000000"/>
<path d="m54.785 16.297h28.404v25.094h-28.404z" stop-color="#000000"/>
</g>
<g fill="none" stroke="#b3b3b3" stroke-linecap="round" stroke-linejoin="round" stroke-width=".3">
<path d="m51.8 42.891h-30.606v-24.635" stop-color="#000000" style="-inkscape-stroke:none;font-variation-settings:normal"/>
<path d="m84.189 17.256v25.135h-28.122" stop-color="#000000" style="-inkscape-stroke:none;font-variation-settings:normal"/>
<path d="m51.854 41.891h-29.659v-24.635" stop-color="#000000" style="-inkscape-stroke:none;font-variation-settings:normal"/>
<path d="m83.189 16.256v25.135h-27.034" stop-color="#000000" style="-inkscape-stroke:none;font-variation-settings:normal"/>
</g>
<path d="m23.195 16.256c2.5217 0 26.516-0.93945 29.655 0.87264 2.7945-2.7945 24.433-0.73325 29.329-2.0554l0.2093 23.742c-5.8471 3.3758-22.097-0.0411-29.539 2.8514-0.76745-0.52999-22.087-1.0236-29.503-0.62327z" fill="#fff" fill-rule="evenodd" stop-color="#000000" stroke="#4d4d4d" stroke-width=".3" style="-inkscape-stroke:none;font-variation-settings:normal"/>
<g fill="none">
<path d="m56.867 21.477c7.2496-0.86322 21.461 0.19028 25.312-0.84977" stop-color="#000000" style="-inkscape-stroke:none;font-variation-settings:normal"/>
<path d="m56.873 26.476c7.2514-0.86196 21.456 0.1907 25.306-0.84907" stop-color="#000000" style="-inkscape-stroke:none;font-variation-settings:normal"/>
<path d="m56.828 32.814c8.2051-1.0705 20.61 0.93963 25.56-1.9181" stop-color="#000000" style="-inkscape-stroke:none;font-variation-settings:normal"/>
<path d="m56.883 37.807c8.2054-1.0546 20.567 0.94037 25.505-1.9111" stop-color="#000000" style="-inkscape-stroke:none;font-variation-settings:normal"/>
<path d="m27.17 38.006c9.1425-0.14416 25.02 0.28494 25.68 0.74096" stop-color="#000000" style="-inkscape-stroke:none;font-variation-settings:normal"/>
<path d="m27.195 26.701c7.6215-0.18305 23.19-0.47381 25.675 0.96136" stop-color="#000000" style="-inkscape-stroke:none;font-variation-settings:normal"/>
</g>
<path d="m52.85 17.469v24.131" fill="#fff" fill-rule="evenodd" stop-color="#000000" stroke="#4d4d4d" stroke-width=".3" style="-inkscape-stroke:none;font-variation-settings:normal"/>
<g fill="#333" stroke-width="1px">
<g stop-color="#000000" aria-label=" 14:30">
<path d="m31.959 23.859 0.03911 2.3189 0.42782-0.0072q0.15294-0.0026 0.21802 0.05628 0.06711 0.05675 0.06871 0.15182 0.0016 0.09301-0.06356 0.15406-0.06309 0.05895-0.21603 0.06153l-1.2793 0.02157q-0.15294 0.0026-0.22005-0.05418-0.06508-0.05886-0.06668-0.15393-0.0016-0.093 0.06152-0.15195 0.06513-0.06105 0.21807-0.06363l0.42782-0.0072-0.0298-1.7671-0.37654 0.10558q-0.09052 0.02633-0.13599 0.0271-0.0806 0.0014-0.14162-0.0617-0.05895-0.06309-0.06052-0.1561-0.0014-0.08474 0.04117-0.133 0.04257-0.05033 0.18041-0.08987z"/>
<path d="m35.191 23.885 0.01748 1.6577q0.13435-0.0014 0.19906 0.05785 0.06469 0.0572 0.06567 0.15021 9.81e-4 0.09301-0.06453 0.15365-0.06344 0.06062-0.19573 0.06201l0.0018 0.16949q0.13435-0.0014 0.19906 0.05785 0.06471 0.05927 0.06569 0.15228 9.81e-4 0.09301-0.06453 0.15365-0.06346 0.05855-0.21642 0.06016l-0.56841 6e-3q-0.15295 0.0016-0.21971-0.05557-0.06471-0.05927-0.06571-0.15434-9.81e-4 -0.09301 0.06248-0.15156 0.06551-0.06064 0.21846-0.06225l0.16536-0.0017-0.0018-0.16949-1.1513 0.01214-0.0037-0.35345 0.99665-1.7387zm-0.40625 1.6622-0.01098-1.0417-0.6029 1.0482z"/>
<path d="m37.721 24.953q2.98e-4 0.11989-0.08425 0.20072-0.08455 0.08083-0.23338 0.0812-0.14883 3.7e-4 -0.23378-0.08003t-0.08525-0.20029q-2.99e-4 -0.11989 0.08425-0.20072 0.08455-0.08083 0.23338-0.0812 0.14883-3.7e-4 0.23378 0.08003t0.08525 0.20029zm0.0076 1.387q2.99e-4 0.11989-0.08425 0.20072-0.08455 0.08083-0.23338 0.0812-0.14883 3.71e-4 -0.23378-0.08003-0.08495-0.0804-0.08525-0.20029-2.99e-4 -0.11989 0.08425-0.20072 0.08455-0.08083 0.23338-0.0812 0.14883-3.71e-4 0.23378 0.08003 0.08495 0.0804 0.08525 0.20029z"/>
<path d="m40.83 25.143q0.18707 0.12966 0.27872 0.2999 0.09167 0.16817 0.08999 0.37694-0.0018 0.2253-0.12738 0.41654-0.12348 0.18918-0.35785 0.28652-0.23435 0.09527-0.61261 0.09223-0.49194-4e-3 -0.73875-0.1589-0.13779-0.08793-0.13683-0.20781 7.31e-4 -0.09095 0.06117-0.15248 0.06253-0.06358 0.14934-0.06288 0.05994 4.82e-4 0.12369 0.04234 0.09045 0.06274 0.1709 0.08406 0.12379 0.02993 0.34082 0.03168 0.36999 3e-3 0.53611-0.09078 0.16614-0.09582 0.16755-0.27151 1e-3 -0.13022-0.09514-0.25089-0.0941-0.12272-0.2548-0.19016-0.09272-0.03795-0.31377-0.0542-0.10537-7e-3 -0.16278-0.06539-0.05533-0.06039-0.05463-0.1472 7.3e-4 -0.09095 0.06324-0.15246 0.06251-0.06151 0.15759-0.06075 0.21083 0.0017 0.22532-2.57e-4 0.08275-0.0076 0.16579-0.05241 0.08304-0.04481 0.13328-0.12296 0.05232-0.0802 0.053-0.16494 0.0011-0.13435-0.11802-0.23247-0.11702-0.10016-0.35472-0.10207-0.30591-0.0025-0.46857 0.17401-0.04796 0.05129-0.07701 0.06553-0.04359 0.02239-0.09733 0.02196-0.08681-6.97e-4 -0.14832-0.0632-0.06151-0.06251-0.06078-0.15346 0.0011-0.14262 0.19239-0.27545 0.27856-0.19414 0.69402-0.1908 0.39273 0.0032 0.62864 0.2283 0.23591 0.22514 0.23339 0.53933-0.0013 0.16329-0.07274 0.30535-0.07141 0.13999-0.21293 0.25875z"/>
<path d="m43.978 25.044-0.01051 0.46497q-0.0093 0.4133-0.2576 0.78606-0.2462 0.3728-0.6905 0.36277-0.25625-0.0058-0.43145-0.1214-0.17309-0.11763-0.32539-0.42294-0.15019-0.30733-0.14254-0.64624l0.0105-0.46497q0.0093-0.41124 0.25549-0.78404 0.24624-0.37487 0.69054-0.36483 0.25418 0.0057 0.42732 0.1213 0.1752 0.11561 0.32746 0.42298 0.15437 0.30536 0.14667 0.64633zm-0.4257-0.0096q0.0078-0.34511-0.17855-0.60777-0.1063-0.14506-0.30469-0.14955-0.19219-0.0043-0.31766 0.14996-0.18929 0.2335-0.19723 0.5848l-0.01051 0.46497q-0.0078 0.34718 0.18062 0.60782 0.10424 0.14502 0.30469 0.14955 0.19012 0.0043 0.3156-0.15001 0.18929-0.2335 0.19723-0.5848z"/>
</g>
<g stop-color="#000000" aria-label=" 15:30">
<path d="m31.985 35.235-0.0039 2.3192 0.42788 7.19e-4q0.15296 2.57e-4 0.21694 0.06031 0.06605 0.05799 0.06589 0.15307-1.56e-4 0.09302-0.0664 0.15285-0.06418 0.05777-0.21714 0.05751l-1.2795-0.0022q-0.15296-2.57e-4 -0.21901-0.05825-0.06398-0.06005-0.06382-0.15514 1.57e-4 -0.09302 0.06433-0.15079 0.06625-0.05983 0.21921-0.05958l0.42788 7.19e-4 3e-3 -1.7673-0.37844 0.09858q-0.09099 0.02465-0.13647 0.02457-0.08061-1.35e-4 -0.14045-0.06432-0.05777-0.06418-0.05761-0.15719 1.42e-4 -0.08475 0.04363-0.13222 0.04349-0.04954 0.18205-0.08651z"/>
<path d="m34.239 35.739-0.0045 0.50434q0.23629-0.07233 0.42852-0.07063 0.39066 0.0035 0.64667 0.27238 0.25601 0.26892 0.25228 0.69059-0.0038 0.43406-0.26854 0.67978-0.26261 0.24367-0.80209 0.2389-0.4754-0.0042-0.75079-0.18648-0.16031-0.10477-0.15912-0.23913 7.5e-4 -0.08475 0.06331-0.14621 0.06464-0.06351 0.15146-0.06274 0.07234 6.39e-4 0.15647 0.07167 0.08414 0.06896 0.17692 0.09665 0.13194 0.04044 0.33864 0.04227 0.38446 0.0034 0.52609-0.11731 0.14165-0.12278 0.1439-0.37701 0.0022-0.2501-0.13295-0.39393-0.13309-0.14381-0.34599-0.14569-0.22943-2e-3 -0.52426 0.1442-0.06645 0.03455-0.11606 0.03411-0.09095-8.04e-4 -0.15237-0.0675-0.05936-0.06667-0.05843-0.17209l0.01082-1.2236 1.296 0.01146q0.15296 0.0014 0.2165 0.06186 0.06563 0.05846 0.06479 0.15354-8.22e-4 0.09301-0.0675 0.15237-0.06459 0.05731-0.21754 0.05596z"/>
<path d="m37.728 36.438q-0.0018 0.11988-0.08776 0.1992-0.08595 0.07933-0.23476 0.07709-0.14881-0.0022-0.23234-0.08413-0.08353-0.08188-0.08172-0.20176 0.0018-0.11988 0.08776-0.1992 0.08595-0.07933 0.23476-0.07709 0.14881 0.0022 0.23234 0.08413 0.08353 0.08188 0.08172 0.20176zm-0.01676 1.3869q-0.0018 0.11988-0.08776 0.1992-0.08595 0.07933-0.23476 0.07709-0.14881-0.0022-0.23234-0.08412-0.08353-0.08188-0.08172-0.20176 0.0018-0.11988 0.08776-0.1992 0.08595-0.07933 0.23476-0.07709 0.14881 0.0022 0.23234 0.08413 0.08353 0.08188 0.08172 0.20176z"/>
<path d="m40.829 36.675q0.18536 0.1321 0.27478 0.30352 0.08946 0.16936 0.08506 0.37808-0.0048 0.22526-0.13281 0.41484-0.12594 0.18755-0.36156 0.28182-0.23558 0.0922-0.61376 0.08422-0.49185-0.01038-0.73661-0.16855-0.13663-0.08972-0.1341-0.20958 0.0019-0.09093 0.06316-0.15166 0.06335-0.06275 0.15015-0.06092 0.05993 0.0013 0.12312 0.04395 0.08962 0.06392 0.16978 0.08628 0.12338 0.03155 0.34038 0.03613 0.36992 0.0078 0.53726-0.08376 0.16738-0.09364 0.17109-0.2693 0.0027-0.1302-0.09185-0.25211-0.09249-0.12394-0.25229-0.19347-0.09221-0.03916-0.31303-0.0583-0.10526-0.0084-0.16191-0.06751-0.05453-0.06111-0.0527-0.14791 0.0019-0.09093 0.06523-0.15162 0.06331-0.06069 0.15837-0.05868 0.21079 0.0045 0.2253 0.0027 0.08284-0.0065 0.16646-0.05024 0.08362-0.04372 0.13488-0.1212 0.05337-0.07951 0.05515-0.16424 0.0028-0.13433-0.11498-0.23399-0.1157-0.10168-0.35336-0.1067-0.30586-0.0065-0.4708 0.16787-0.04862 0.05066-0.07786 0.06452-0.04388 0.02182-0.09761 0.02068-0.0868-0.0018-0.14749-0.06514-0.06069-0.06331-0.05877-0.15424 3e-3 -0.1426 0.19597-0.27291 0.28107-0.19048 0.69645-0.18171 0.39265 0.0083 0.6256 0.2365 0.23295 0.22821 0.22632 0.54233-0.0034 0.16326-0.07672 0.30437-0.07323 0.13904-0.21629 0.25594z"/>
<path d="m43.965 36.599-0.01289 0.46491q-0.01146 0.41325-0.26163 0.78473-0.24811 0.37154-0.69235 0.35922-0.25622-0.0071-0.43082-0.12361-0.17248-0.11852-0.32322-0.4246-0.14861-0.3081-0.13922-0.64696l0.01289-0.46491q0.0114-0.41119 0.25951-0.78272 0.24816-0.3736 0.69241-0.36128 0.25415 7e-3 0.42669 0.1235 0.1746 0.11651 0.32528 0.42466 0.1528 0.30614 0.14335 0.64708zm-0.42565-0.0118q0.0096-0.34507-0.17543-0.60868-0.10556-0.14561-0.30392-0.15111-0.19216-0.0053-0.31843 0.14833-0.19049 0.23252-0.20023 0.58378l-0.01289 0.46491q-0.0096 0.34713 0.1775 0.60873 0.10349 0.14555 0.30392 0.15111 0.1901 0.0053 0.31636-0.14838 0.19049-0.23252 0.20023-0.58378z"/>
</g>
<g stop-color="#000000" aria-label=" FÉRIÉ">
<path d="m61.14 25.136 0.02013 0.61979 0.43385-0.01409q0.15288-5e-3 0.21887 0.05287 0.06799 0.0557 0.07108 0.15074 3e-3 0.09297-0.06115 0.15503-0.06217 0.05993-0.21505 0.06489l-0.92349 0.02999q-0.15288 5e-3 -0.22087-0.05074-0.06599-0.05783-0.06908-0.15287-3e-3 -0.09297 0.06121-0.15296 0.06417-0.06206 0.21498-0.06696l0.06611-0.0021-0.0538-1.6569-0.06611 0.0021q-0.15288 5e-3 -0.22087-0.05074-0.06599-0.05783-0.06908-0.15287-0.0031-0.09503 0.05908-0.15496 0.06416-0.06206 0.21705-0.06702l1.9937-0.06267 0.021 0.64665q0.0049 0.15082-0.05287 0.21887-0.05577 0.06592-0.1508 0.06901-0.09297 3e-3 -0.15496-0.05908-0.05993-0.06217-0.06489-0.21505l-0.0072-0.22312-1.0805 0.03508 0.01992 0.61359 0.37187-0.01208q-0.0054-0.16528 0.02408-0.2138 0.06076-0.10331 0.17852-0.10714 0.09297-3e-3 0.15296 0.06121 0.06199 0.0621 0.06696 0.21498l0.01583 0.48757q5e-3 0.15288-0.0528 0.22094-0.05577 0.06592-0.1508 0.06901-0.11569 0.0038-0.18303-0.0954-0.03253-0.04651-0.03797-0.21386z"/>
<path d="m63.817 25.073 0.0066 0.62215 1.081-0.01154-0.0024-0.22943q-0.0016-0.15295 0.05556-0.21765 0.05924-0.06678 0.15431-0.0678 0.09301-9.93e-4 0.15159 0.06453 0.06063 0.06344 0.06226 0.21639l7e-3 0.65315-1.9946 0.02129q-0.15295 0.0016-0.21971-0.05554-0.06471-0.05926-0.06573-0.15434-9.93e-4 -0.09301 0.06453-0.15159 0.0655-0.06065 0.21639-0.06226l0.06614-7.06e-4 -0.0177-1.6577-0.06614 7.06e-4q-0.15295 0.0016-0.21971-0.05554-0.06471-0.05926-0.06573-0.15434-1e-3 -0.09508 0.06244-0.15364 0.0655-0.06065 0.21846-0.06228l1.9016-0.01823 0.0069 0.64488q0.0016 0.15089-0.05556 0.21765-0.05719 0.06469-0.15227 0.06571-0.09508 1e-3 -0.1557-0.06242-0.05856-0.06346-0.06019-0.21641l-0.0024-0.22116-0.988 0.01055 0.0065 0.61181 0.37205-4e-3q-0.0018-0.16536 0.02873-0.21323 0.06299-0.10196 0.18081-0.10322 0.09301-9.93e-4 0.15159 0.06453 0.06063 0.06344 0.06226 0.21639l0.0052 0.4878q0.0015 0.13848-0.03108 0.18638-0.06511 0.09785-0.17672 0.09904-0.11782 0.0013-0.18297-0.09934-0.03151-0.04721-0.0333-0.21463zm0.72924-2.1742-0.46102 0.38322q-0.06968 0.05656-0.11722 0.05707-0.05787 6.17e-4 -0.09963-0.03821-0.03969-0.03885-0.04031-0.09673-7.06e-4 -0.06614 0.08127-0.13317l0.46309-0.38324q0.06968-0.05656 0.11722-0.05707 0.05787-6.18e-4 0.09757 0.03824 0.04176 0.03883 0.04235 0.09464 7.28e-4 0.06821-0.08331 0.13526z"/>
<path d="m66.638 25.145-4.62e-4 0.5333 0.15296 1.32e-4q0.15296 1.33e-4 0.21699 0.06013 0.0661 0.05794 0.06601 0.15302-8e-5 0.09302-0.06628 0.1529-0.06413 0.05782-0.21709 0.05769l-0.64285-5.57e-4q-0.15296-1.32e-4 -0.21906-0.05807-0.06403-0.06-0.06395-0.15508 8.1e-5 -0.09302 0.06628-0.15084 0.0662-0.05989 0.21709-0.05976l0.06615 5.7e-5 0.0014-1.6578-0.06615-5.7e-5q-0.15296-1.32e-4 -0.21906-0.05807-0.06403-0.06-0.06394-0.15508 8.2e-5 -0.09508 0.06421-0.15291 0.0662-0.05989 0.21916-0.05975l0.95911 0.0029q0.44855 3.88e-4 0.69434 0.22384 0.24786 0.22139 0.24758 0.53972-1.72e-4 0.19844-0.11607 0.36163-0.1159 0.16113-0.34958 0.28702 0.13426 0.11794 0.28706 0.30204 0.09498 0.1179 0.256 0.36816 0.16123 1.39e-4 0.21288 0.03326 0.09296 0.06416 0.09286 0.17991-8e-5 0.09302-0.06421 0.15291-0.06413 0.05782-0.21709 0.05769l-0.24185-2.1e-4q-0.51401-0.79626-0.85286-0.95778zm3.66e-4 -0.42375 0.33073 2.86e-4q0.18397 1.59e-4 0.32871-0.05553 0.19437-0.07425 0.26058-0.15687 0.06828-0.08262 0.06835-0.16324 1.04e-4 -0.11989-0.12797-0.22129-0.12806-0.10346-0.37404-0.10367l-0.48576-4.2e-4z"/>
<path d="m70.105 24.033-0.0084 1.6578 0.42788 0.0022q0.15296 7.71e-4 0.21674 0.06104 0.06585 0.05821 0.06538 0.15329-4.69e-4 0.09302-0.06692 0.15263-0.06437 0.05755-0.21733 0.05678l-1.2795-0.0064q-0.15296-7.7e-4 -0.21881-0.05898-0.06378-0.06027-0.0633-0.15535 4.69e-4 -0.09302 0.06484-0.15057 0.06645-0.05961 0.21941-0.05884l0.42788 0.0022 0.0084-1.6578-0.42788-0.0022q-0.15296-7.71e-4 -0.21881-0.05898-0.06378-0.06027-0.0633-0.15535 4.79e-4 -0.09508 0.06485-0.15264 0.06645-0.05961 0.21941-0.05884l1.2795 0.0085q0.15296 7.7e-4 0.21675 0.05897 0.06585 0.05821 0.06537 0.15329-4.79e-4 0.09508-0.06693 0.15469-0.06437 0.05755-0.21733 0.05678z"/>
<path d="m72.253 25.079-0.0013 0.62218 1.0811 0.0022 4.71e-4 -0.22944q3.13e-4 -0.15296 0.05832-0.21692 0.06008-0.06602 0.15516-0.06583 0.09302 1.91e-4 0.15076 0.06645 0.05981 0.0642 0.0595 0.21716l-0.0013 0.65319-1.9947-0.0041q-0.15296-3.14e-4 -0.21899-0.05833-0.06396-0.06008-0.06376-0.15516 1.91e-4 -0.09302 0.06646-0.15076 0.06627-0.05981 0.21716-0.0595l0.06614 1.36e-4 0.0034-1.6578-0.06615-1.36e-4q-0.15296-3.14e-4 -0.21899-0.05833-0.06396-0.06008-0.06376-0.15516 1.95e-4 -0.09508 0.06439-0.15283 0.06627-0.05981 0.21923-0.0595l1.9017 6e-3 -0.0013 0.64492q-3.1e-4 0.1509-0.05832 0.21692-0.05801 0.06396-0.15309 0.06377-0.09508-1.95e-4 -0.1549-0.0644-0.05775-0.0642-0.05743-0.21716l4.54e-4 -0.22117-0.98805-2e-3 -0.0013 0.61185 0.37207 7.63e-4q3.39e-4 -0.16536 0.03144-0.21284 0.06429-0.10116 0.18211-0.10091 0.09302 1.91e-4 0.15076 0.06645 0.05981 0.0642 0.0595 0.21716l-1e-3 0.48782q-2.84e-4 0.13849-0.03345 0.18597-0.06634 0.09702-0.17797 0.09679-0.11782-2.42e-4 -0.18169-0.10166-0.03091-0.04761-0.03056-0.21504zm0.75685-2.1647-0.46586 0.37732q-0.07039 0.05567-0.11794 0.05557-0.05788-1.19e-4 -0.09914-0.03948-0.03919-0.03935-0.03907-0.09723 1.35e-4 -0.06615 0.08295-0.13212l0.46793-0.37731q0.07039-0.05567 0.11794-0.05557 0.05788 1.19e-4 0.09707 0.03947 0.04126 0.03936 0.04115 0.09517-1.4e-4 0.06821-0.08502 0.13418z"/>
</g>
</g>
<g stroke-width="1px">
<g fill="#e62e6c" stop-color="#000000" aria-label="Ven 19 mai">
<path d="m56.606 30.273 0.8132-0.07317 0.72901 1.759 0.39472-1.8601 0.78918-0.07101-0.70699 2.5991-0.84237 0.07579z" stop-color="#000000"/>
<path d="m61.908 31.733-1.4048 0.04847q0.02476 0.16806 0.09991 0.24819 0.10567 0.11528 0.26921 0.10964 0.10329-0.0036 0.19447-0.05842 0.05568-0.03467 0.11825-0.11956l0.69253 0.03988q-0.14888 0.28091-0.36851 0.40914-0.2197 0.12651-0.63803 0.14094-0.36324 0.01253-0.57505-0.08185-0.21187-0.0961-0.35725-0.31343-0.14372-0.2191-0.15412-0.52037-0.01479-0.42866 0.24978-0.70322 0.2663-0.27462 0.75004-0.29131 0.39251-0.01354 0.62385 0.0974 0.23134 0.11094 0.35791 0.33236 0.12657 0.22142 0.13904 0.58294zm-0.72429-0.3111q-0.02767-0.20243-0.12022-0.28714-0.09083-0.08477-0.23544-0.07978-0.16699 0.0058-0.26226 0.14176-0.06085 0.08483-0.07242 0.24897z" stop-color="#000000"/>
<path d="m62.378 30.641 0.65284-0.0035 0.0016 0.298q0.14545-0.18336 0.2949-0.26167 0.14944-0.08003 0.36476-0.08117 0.2911-0.0015 0.45566 0.17157 0.16627 0.17138 0.16818 0.53311l0.0061 1.1627-0.70451 0.0037-0.0053-1.006q-9.11e-4 -0.17225-0.06502-0.24254-0.06412-0.07201-0.17952-0.0714-0.12747 6.73e-4 -0.20619 0.09755-0.07873 0.09688-0.07741 0.34665l0.0046 0.87848-0.70107 0.0037z" stop-color="#000000"/>
<path d="m68.001 29.931-0.03145 2.5681-0.70964-0.0087 0.02061-1.6828q-0.17384 0.12879-0.33674 0.20776-0.16118 0.07899-0.40494 0.15008l7e-3 -0.57529q0.35968-0.11102 0.55974-0.2705 0.20006-0.15948 0.31493-0.3958z" stop-color="#000000"/>
<path d="m68.903 31.946 0.69824-0.08289q0.02652 0.14661 0.09155 0.20736 0.06503 0.06075 0.15976 0.06142 0.1688 0.0012 0.26475-0.16866 0.06979-0.12525 0.10713-0.53152-0.12666 0.12829-0.25972 0.18764-0.13306 0.05935-0.30703 0.05811-0.33933-0.0024-0.57188-0.24522-0.23083-0.2428-0.22821-0.61142 0.0018-0.25148 0.12211-0.45734 0.12032-0.20586 0.32949-0.30945 0.20918-0.10532 0.5244-0.10308 0.37895 0.0027 0.60711 0.13523 0.22818 0.13082 0.36223 0.41599 0.13579 0.28347 0.13249 0.74854-0.0049 0.68383-0.29478 1.0005-0.28991 0.3149-0.79977 0.31128-0.30144-0.0021-0.47492-0.07228-0.17347-0.071854-0.28792-0.20703-0.11445-0.13518-0.17503-0.33715zm1.2999-1.1173q0.0015-0.20498-0.10107-0.32112-0.10252-0.11786-0.25065-0.11892-0.13952-9.91e-4 -0.23328 0.10342-0.09204 0.10442-0.09353 0.31457-0.0015 0.21187 0.09244 0.3245 0.09566 0.11265 0.23863 0.11366 0.14814 0.0011 0.24709-0.10677 0.09895-0.10782 0.10038-0.30935z" stop-color="#000000"/>
<path d="m72.92 30.705 0.65396-0.02815 0.01148 0.26675q0.13393-0.17301 0.27374-0.24971 0.14152-0.07678 0.3446-0.08552 0.21856-0.0094 0.34924 0.06255 0.13068 0.07196 0.21816 0.22164 0.15751-0.18609 0.29072-0.25562 0.13314-0.07125 0.33277-0.07984 0.29428-0.01267 0.46705 0.15576 0.17269 0.1667 0.18869 0.53843l0.04941 1.1479-0.70215 0.03022-0.04481-1.0412q-0.0053-0.12391-0.05611-0.18207-0.07463-0.09162-0.17961-0.0871-0.12391 0.0053-0.19578 0.09808-0.07187 0.09275-0.06335 0.29066l0.04059 0.94308-0.70215 0.03022-0.04333-1.0068q-0.0052-0.12047-0.0208-0.1629-0.02534-0.06788-0.08218-0.10681-0.05692-0.04065-0.13092-0.03747-0.12047 0.0052-0.19398 0.09973-0.07352 0.09454-0.06455 0.30278l0.04015 0.93276-0.70215 0.03022z" stop-color="#000000"/>
<path d="m77.131 31.045-0.67368 0.01191q0.01611-0.17902 0.07398-0.28682 0.05937-0.10972 0.18365-0.19967 0.0892-0.0648 0.25316-0.11452 0.16396-0.04972 0.35885-0.07375 0.31286-0.03857 0.50705-0.02607 0.19398 0.0108 0.33419 0.10632 0.09838 0.06597 0.16717 0.20154 0.06857 0.13386 0.08438 0.26208l0.09886 0.8018q0.01581 0.12822 0.04026 0.19984 0.02595 0.06969 0.09457 0.17578l-0.65307 0.08052q-0.04796-0.06524-0.06436-0.09967-0.0166-0.03614-0.03827-0.1133-0.12054 0.1485-0.24864 0.22157-0.17536 0.09799-0.41983 0.12813-0.32482 0.04005-0.51262-0.08953-0.18609-0.12979-0.21328-0.35032-0.02551-0.20686 0.07943-0.35518 0.10494-0.14832 0.42346-0.25354 0.3818-0.12691 0.49426-0.17202 0.11225-0.04682 0.23585-0.11412-0.01581-0.12822-0.07513-0.17297-0.05932-0.04475-0.19267-0.02831-0.17096 0.02108-0.24969 0.08633-0.06141 0.05096-0.08789 0.17398zm0.6486 0.29144q-0.13728 0.06899-0.28801 0.1275-0.20503 0.08255-0.2547 0.14422-0.05117 0.06358-0.04232 0.13539 0.01012 0.08206 0.07307 0.1281 0.06445 0.04412 0.17557 0.03042 0.11625-0.01433 0.20845-0.08298 0.09391-0.06885 0.12503-0.15426 0.03262-0.08733 0.0166-0.21726z" stop-color="#000000"/>
<path d="m78.606 29.532 0.68556-0.14668 0.09983 0.46658-0.68556 0.14668zm0.1456 0.68051 0.68556-0.14668 0.38275 1.7889-0.68556 0.14668z" stop-color="#000000"/>
</g>
<g fill="#333" stop-color="#000000" aria-label=" Pont">
<path d="m61.206 36.639 0.01129 0.436 0.42774-0.01107q0.15291-4e-3 0.21852 0.05431 0.06762 0.05615 0.07008 0.1512 0.0024 0.09299-0.06217 0.15462-0.06256 0.05952-0.21547 0.06347l-0.91746 0.02375q-0.15291 4e-3 -0.22053-0.05219-0.06561-0.05827-0.06807-0.15332-0.0024-0.09299 0.06222-0.15256 0.06457-0.06164 0.21542-0.06554l0.06612-0.0017-0.04289-1.6572-0.06612 0.0017q-0.15291 4e-3 -0.22053-0.05219-0.06561-0.05827-0.06807-0.15332-0.0025-0.09505 0.0601-0.15457 0.06457-0.06164 0.21748-0.06559l0.97538-0.02318q0.4298-0.01112 0.68593 0.21797 0.25814 0.22698 0.26686 0.56379 0.0048 0.18597-0.07563 0.35347-0.06085 0.12564-0.20854 0.25146-0.14568 0.1237-0.30112 0.18976-0.15343 0.06394-0.40966 0.07057zm-0.010963-0.4236 0.39261-0.01016q0.27689-0.0072 0.43486-0.13532 0.15998-0.13027 0.15543-0.30591-0.0039-0.14878-0.13899-0.25694-0.13307-0.10821-0.3769-0.1019l-0.48766 0.01262z"/>
<path d="m65.381 36.563q-3.91e-4 0.24391-0.13718 0.47314-0.13472 0.22716-0.40366 0.36316-0.26686 0.13393-0.55832 0.13346-0.28939-4.64e-4 -0.55376-0.13318-0.26437-0.13478-0.40249-0.36445-0.13812-0.22966-0.13772-0.47978 4.08e-4 -0.25425 0.14136-0.49793 0.14095-0.24575 0.4037-0.38589 0.26481-0.14014 0.55213-0.13968 0.28939 4.64e-4 0.55581 0.14558 0.26849 0.14306 0.40452 0.38719 0.13604 0.24206 0.13563 0.49838zm-0.42375 0.0014q3.28e-4 -0.20464-0.14616-0.37644-0.20013-0.23184-0.52673-0.23237-0.28732-4.61e-4 -0.47985 0.1832t-0.19292 0.4255q-3.18e-4 0.19844 0.19371 0.37238 0.19403 0.17188 0.47722 0.17233 0.28525 4.57e-4 0.47983-0.1708 0.19458-0.17332 0.1949-0.37382z"/>
<path d="m66.678 35.606-0.0017 0.14262q0.11693-0.09783 0.25601-0.14578 0.14114-0.04792 0.30443-0.04597 0.37618 0.0045 0.59248 0.24068 0.1714 0.1881 0.16779 0.48987l-0.0094 0.78749q0.13435 0.0016 0.19771 0.06231 0.06338 0.05864 0.06225 0.15372-0.0011 0.09301-0.06797 0.15216-0.06477 0.05711-0.21772 0.05528l-0.38238-0.0046q-0.15295-0.0018-0.2184-0.06049-0.06336-0.06071-0.06222-0.15578 0.0011-0.09301 0.06588-0.15012 0.06479-0.05917 0.19914-0.05757l0.0096-0.79989q0.0017-0.13848-0.07199-0.20345-0.09616-0.08384-0.29045-0.08616-0.14675-0.0018-0.25906 0.05478-0.11021 0.0545-0.2819 0.23642l-0.0094 0.78749q0.16328 2e-3 0.21045 0.03352 0.10054 0.06322 0.0991 0.1831-0.0011 0.09301-0.06797 0.15216-0.06477 0.05711-0.21772 0.05528l-0.48159-0.0058q-0.15295-0.0018-0.2184-0.06049-0.06336-0.06071-0.06222-0.15578 0.0014-0.11575 0.10136-0.17863 0.04998-0.03041 0.21326-0.02846l0.01231-1.0293q-0.13435-0.0016-0.19771-0.06231-0.06336-0.06071-0.06225-0.15372 0.0011-0.09301 0.06588-0.15012 0.06686-0.05915 0.21981-0.05732z"/>
<path d="m69.798 36.066-6e-3 0.84954q-9.63e-4 0.13642 0.05454 0.18022 0.08633 0.06882 0.30957 0.0704 0.32452 0.0023 0.60041-0.13426 0.1058-0.053 0.16574-0.05258 0.08268 5.84e-4 0.14219 0.06302 0.06157 0.06245 0.06095 0.15133-5.83e-4 0.08268-0.06715 0.14216-0.10197 0.09643-0.40227 0.177-0.29822 0.07851-0.50285 0.07707-0.3948-0.0028-0.59204-0.17368-0.19516-0.17295-0.1934-0.42099l0.0066-0.93222-0.15296-0.0011q-0.15296-0.0011-0.21869-0.05942-0.06365-0.06039-0.06298-0.15548 6.56e-4 -0.09302 0.06514-0.15044 0.06657-0.05948 0.21953-0.0584l0.15296 0.0011 0.0027-0.3824q0.0011-0.15296 0.05941-0.21663 0.06041-0.06572 0.15549-0.06505 0.09302 6.56e-4 0.15042 0.06721 0.05949 0.0645 0.05841 0.21746l-0.0027 0.3824 0.78339 0.0055q0.15296 0.0011 0.21661 0.06147 0.06574 0.05834 0.06507 0.15342-6.56e-4 0.09301-0.06722 0.15249-0.06449 0.05742-0.21744 0.05635z"/>
</g>
<g fill="#e62e6c" stop-color="#000000" aria-label="Jeu 18 mai">
<path d="m57.946 18.832 0.77908-0.06785 0.11912 1.3677q0.03751 0.43073-0.02013 0.66226-0.05593 0.23138-0.27399 0.40772-0.21635 0.17619-0.57672 0.20758-0.38096 0.03318-0.59929-0.05155-0.21833-0.08473-0.35049-0.27206-0.1306-0.1892-0.1766-0.47914l0.73423-0.16596q0.01621 0.16631 0.05069 0.24457 0.03448 0.07826 0.10403 0.12235 0.04746 0.02872 0.12983 0.02154 0.13042-0.01136 0.18211-0.11269 0.05326-0.1032 0.03323-0.33315z" stop-color="#000000"/>
<path d="m61.549 20.419-1.4043 0.060757q0.02623 0.16783 0.10208 0.24731 0.10667 0.11435 0.27016 0.10728 0.10326-0.0045 0.19395-0.06012 0.05538-0.03515 0.1172-0.12059l0.69285 0.03382q-0.14641 0.2822-0.36492 0.41234-0.21858 0.12842-0.63677 0.14652-0.36312 0.01571-0.57574-0.07681-0.2127-0.09425-0.35998-0.31029-0.14563-0.21784-0.15866-0.519-0.01854-0.42851 0.24362-0.70538 0.26388-0.27694 0.74746-0.29786 0.39237-0.01698 0.62467 0.09194 0.2323 0.10892 0.3608 0.32922 0.1285 0.2203 0.14413 0.5817zm-0.72698-0.30476q-0.02944-0.20218-0.12272-0.28607-0.09157-0.08397-0.23612-0.07772-0.16693 0.0072-0.26101 0.14405-0.0601 0.08536-0.07024 0.24959z" stop-color="#000000"/>
<path d="m63.963 21.114-0.65445 0.01236-0.005592-0.29623q-0.14294 0.18532-0.29132 0.26565-0.14665 0.0803-0.36365 0.08439-0.28934 0.0055-0.45792-0.16364-0.1669-0.17086-0.17369-0.5308l-0.02198-1.1642 0.7044-0.0133 0.01899 1.0058q0.0033 0.17222 0.06834 0.24336 0.06509 0.07113 0.18048 0.06895 0.12572-0.0024 0.20313-0.10032 0.07912-0.09797 0.07441-0.3477l-0.01661-0.88006 0.70095-0.01323z" stop-color="#000000"/>
<path d="m67.621 18.535-0.0022 2.5683-0.70969-6.11e-4 0.0014-1.6829q-0.17237 0.13076-0.33436 0.21159-0.16027 0.08082-0.40321 0.15468l4.95e-4 -0.57533q0.35839-0.1151 0.55662-0.27685 0.19823-0.16175 0.3104-0.39936z" stop-color="#000000"/>
<path d="m68.945 19.751q-0.16493-0.088664-0.24018-0.19756-0.10262-0.14865-0.10167-0.34157 0.0016-0.31694 0.30056-0.51701 0.2333-0.15388 0.6157-0.15199 0.50642 0.0025 0.74662 0.19661 0.24192 0.19412 0.24048 0.48695-8.41e-4 0.17053-0.09803 0.31819-0.07289 0.10988-0.22843 0.21247 0.2045 0.0992 0.3036 0.2616 0.10083 0.16242 0.09986 0.35879-9.35e-4 0.18948-0.0896 0.35441-0.08693 0.16322-0.21484 0.25216-0.12619 0.08895-0.31587 0.12936-0.18797 0.04214-0.40156 0.04108-0.40135-2e-3 -0.61275-0.09776-0.2114-0.09578-0.32074-0.28064-0.10933-0.18485-0.10821-0.41223 0.0011-0.22221 0.1052-0.375 0.10412-0.15452 0.31985-0.23786zm0.31767-0.49453q-6.46e-4 0.13091 0.07991 0.21227 0.08229 0.07964 0.21837 0.08031 0.12058 5.95e-4 0.19848-0.07826 0.0779-0.07885 0.07852-0.2046 6.46e-4 -0.13091-0.07991-0.21227-0.08055-0.08308-0.2063-0.0837-0.12747-6.29e-4 -0.20882 0.07993-0.07963 0.07885-0.08026 0.20631zm-0.04326 1.0867q-8.24e-4 0.16708 0.10028 0.27438 0.10111 0.10558 0.23202 0.10622 0.12574 6.2e-4 0.22618-0.10568 0.10044-0.10803 0.10126-0.27339 8.24e-4 -0.16708-0.10028-0.27438-0.09938-0.10729-0.23201-0.10794-0.13091-6.46e-4 -0.2296 0.10222-0.09697 0.10288-0.09784 0.27857z" stop-color="#000000"/>
<path d="m72.642 19.302 0.65456-0.0024 9.6e-4 0.26699q0.14065-0.16759 0.28336-0.23873 0.14444-0.07114 0.3477-0.07187 0.21876-7.86e-4 0.34651 0.07627 0.12775 0.07706 0.20926 0.23007 0.16472-0.17974 0.30057-0.24396 0.13584-0.06594 0.33566-0.06666 0.29455-0.0011 0.46055 0.17404 0.16599 0.17338 0.16732 0.54545l0.0041 1.1489-0.70279 0.0025-0.0037-1.0421q-4.46e-4 -0.12402-0.04889-0.18414-0.07096-0.09449-0.17604-0.09411-0.12402 4.46e-4 -0.19949 0.09029-0.07547 0.08984-0.07476 0.28794l0.0034 0.94395-0.70279 0.0025-0.0036-1.0077q-4.34e-4 -0.12058-0.01437-0.16359-0.02264-0.06882-0.07791-0.10996-0.05528-0.04287-0.12934-0.0426-0.12058 4.33e-4 -0.19776 0.09201-0.07719 0.09157-0.07644 0.3l0.0034 0.93361-0.70279 0.0025z" stop-color="#000000"/>
<path d="m76.909 19.86-0.67174-0.05243q0.03312-0.17666 0.10101-0.27845 0.06957-0.10355 0.20186-0.18124 0.09498-0.05599 0.26293-0.08985 0.16795-0.03385 0.36425-0.03918 0.31511-0.0085 0.50722 0.02243 0.19207 0.02925 0.32252 0.13772 0.09164 0.07506 0.14718 0.21657 0.05549 0.1398 0.05899 0.26894l0.02191 0.80758q0.0035 0.12914 0.02101 0.20276 0.01918 0.07185 0.07737 0.184l-0.65777 0.01784q-0.04152-0.06952-0.05455-0.10536-0.01308-0.03755-0.02728-0.11644-0.13416 0.13632-0.26865 0.19684-0.18391 0.08081-0.43014 0.08749-0.32716 0.0089-0.50174-0.13803-0.17286-0.14695-0.17888-0.36908-0.0057-0.20835 0.11296-0.34598 0.11861-0.13762 0.44572-0.21198 0.39217-0.08991 0.50842-0.12408 0.1162-0.03589 0.24567-0.0911-0.0035-0.12914-0.05828-0.17935-0.05478-0.05021-0.18909-0.04657-0.17219 0.0047-0.25679 0.06211-0.06599 0.04487-0.10409 0.1648zm0.61783 0.352q-0.14324 0.05558-0.29886 0.09944-0.21198 0.06262-0.2673 0.11926-0.057 0.05841-0.05504 0.13073 0.0022 0.08265 0.06051 0.13449 0.05995 0.05007 0.17187 0.04703 0.11709-0.0032 0.21542-0.06271 0.10005-0.05958 0.13918-0.14163 0.04081-0.08382 0.03726-0.21468z" stop-color="#000000"/>
<path d="m78.664 18.51 0.69985-0.04138 0.02816 0.47631-0.69985 0.04138zm0.04107 0.69469 0.69985-0.04138 0.10797 1.8262-0.69985 0.04138z" stop-color="#000000"/>
</g>
</g>
<path d="m27.195 21.701c7.6215-0.18305 23.19-0.47381 25.675 0.96136" fill="none" stop-color="#000000" style="-inkscape-stroke:none;font-variation-settings:normal"/>
<path d="m52.85 17.129-0.0156 27.912c0.26542-0.52572 0.9874-1.2265 1.3238-1.5085l1.0971 0.91387-0.23317-28.225c-0.7327 0.19406-1.4712 0.31532-2.1721 0.90818z" fill="#e62e6c" fill-rule="evenodd" stop-color="#000000" stroke="#8c113a" stroke-linecap="round" stroke-linejoin="round" stroke-width=".3" style="-inkscape-stroke:none;font-variation-settings:normal"/>
<path d="m27.17 33.006c9.1425-0.14416 25.02 0.28494 25.68 0.74096" fill="none" stop-color="#000000" style="-inkscape-stroke:none;font-variation-settings:normal"/>
<g fill="#e62e6c" stop-color="#000000" stroke-width="1px" aria-label="Lun 15 mai">
<path d="m27.322 19.172 0.78011-0.01766 0.04308 1.9029 1.2175-0.02757 0.01407 0.62168-1.9976 0.04523z"/>
<path d="m31.807 21.604-0.65445 0.01224-0.0055-0.29623q-0.14298 0.1853-0.29136 0.2656-0.14666 0.08027-0.36367 0.08433-0.28934 0.0054-0.45789-0.16372-0.16687-0.17089-0.1736-0.53084l-0.02178-1.1642 0.7044-0.01318 0.01881 1.0058q0.0032 0.17222 0.0683 0.24337 0.06508 0.07114 0.18047 0.06898 0.12572-0.0024 0.20314-0.10028 0.07914-0.09796 0.07447-0.34768l-0.01646-0.88007 0.70095-0.01311z"/>
<path d="m32.342 19.766 0.65278-0.0089 4e-3 0.29797q0.14392-0.18456 0.29272-0.2641 0.14877-0.08126 0.36407-0.08419 0.29108-0.0039 0.45707 0.16779 0.16769 0.16999 0.1726 0.5317l0.01578 1.1626-0.70446 0.0096-0.01365-1.0059q-0.0023-0.17224-0.06702-0.24199-0.06471-0.07147-0.18011-0.06991-0.12746 0.0017-0.20538 0.09926-0.07792 0.09753-0.07453 0.34727l0.01192 0.87842-0.70101 0.0095z"/>
<path d="m37.949 18.978 0.0065 2.5683-0.70969 0.0018-0.0043-1.6829q-0.17192 0.13135-0.33364 0.21272-0.15999 0.08136-0.40268 0.15605l-0.0015-0.57533q0.358-0.11632 0.55568-0.27874t0.30905-0.40041z"/>
<path d="m39.154 19.022 1.6657 0.01103-0.0037 0.55982-1.1282-0.0075-0.0628 0.37855q0.1175-0.05435 0.23136-0.08115 0.11559-0.0268 0.22755-0.02605 0.37895 0.0025 0.61342 0.23316 0.23447 0.23066 0.23216 0.5786-0.0016 0.2446-0.12541 0.46943-0.12207 0.22485-0.34678 0.34222-0.22299 0.11738-0.57094 0.11508-0.24976-0.0017-0.4286-0.04935-0.1771-0.0494-0.30223-0.14325-0.12339-0.09556-0.20012-0.21492-0.07672-0.11937-0.12723-0.29713l0.71019-0.07281q0.02471 0.1707 0.11885 0.2609 0.09416 0.08847 0.22507 0.08934 0.14641 9.69e-4 0.24188-0.10864 0.0972-0.11132 0.09866-0.3318 0.0015-0.22565-0.09427-0.33136-0.095768-0.10569-0.25596-0.10675-0.10163-6.73e-4 -0.1967 0.04865-0.07086 0.03571-0.15589 0.12988l-0.59714-0.09008z"/>
<path d="m43.047 19.757 0.6542 0.02195-9e-3 0.26684q0.14677-0.16226 0.29203-0.22805 0.14698-0.06573 0.35013-0.05892 0.21864 0.0073 0.34344 0.08908 0.1248 0.08175 0.20057 0.23768 0.17132-0.17349 0.30947-0.23262 0.1382-0.06086 0.3379-0.05415 0.29439 0.0099 0.45377 0.19102 0.15944 0.17942 0.14696 0.55128l-0.03853 1.1483-0.7024-0.02357 0.03495-1.0416q0.0042-0.12395-0.04202-0.18583-0.06741-0.09705-0.17242-0.10058-0.12395-0.0042-0.20271 0.08282-0.07875 0.08698-0.0854 0.28496l-0.03166 0.94342-0.7024-0.02357 0.03379-1.0071q4e-3 -0.12051-0.0083-0.16401-0.02007-0.06961-0.07377-0.11278-0.05365-0.04489-0.12767-0.04737-0.12051-4e-3 -0.20104 0.0846-0.08053 0.08864-0.08752 0.29695l-0.03131 0.93309-0.7024-0.02357z"/>
<path d="m47.36 20.527-0.66388-0.11512q0.04952-0.17278 0.12664-0.26776 0.07896-0.09658 0.21795-0.16154 0.09981-0.04685 0.27019-0.06482 0.17039-0.01797 0.36632-0.0049 0.31452 0.021 0.50289 0.06984 0.18848 0.04711 0.30821 0.16732 0.08421 0.08331 0.12624 0.22941 0.04215 0.14438 0.03354 0.27328l-0.05383 0.80608q-0.0086 0.1289 0.0019 0.20384 0.01237 0.07333 0.05979 0.19044l-0.65655-0.04384q-0.03482-0.07311-0.04445-0.11-0.0095-0.03862-0.01626-0.11848-0.14634 0.12316-0.2859 0.17081-0.19067 0.06323-0.43645 0.04682-0.32652-0.021808-0.48657-0.18442-0.15833-0.1625-0.14353-0.38421 0.01389-0.20796 0.14487-0.33388 0.13098-0.12591 0.46362-0.1693 0.39887-0.05278 0.5178-0.07591 0.11905-0.02485 0.25312-0.06769 0.0086-0.1289-0.04123-0.18402-0.04984-0.05512-0.1839-0.06407-0.17187-0.01148-0.26148 0.03778-0.0699 0.03849-0.11907 0.15433zm0.58214 0.40832q-0.14782 0.04192-0.30686 0.07101-0.21691 0.04249-0.2773 0.0937-0.06222 0.05282-0.06704 0.125-0.0055 0.0825 0.04765 0.13957 0.05499 0.05546 0.16671 0.06292 0.11687 0.0078 0.22035-0.04226 0.10519-0.04995 0.15184-0.12797 0.04848-0.07963 0.0572-0.21025z"/>
<path d="m49.406 19.392 0.69726 0.073-0.04968 0.47455-0.69726-0.073zm-0.07246 0.69212 0.69726 0.073-0.19048 1.8194-0.69726-0.073z"/>
</g>
<g fill="#e62e6c" stop-color="#000000" stroke-width="1px" aria-label="Mar 16 mai">
<path d="m27.394 30.473 1.0266-0.0086 0.40898 1.5332 0.38164-1.5397 1.0232-0.0085 0.02105 2.5252-0.63732 0.0053-0.01606-1.9257-0.4783 1.9299-0.57703 0.0048-0.50869-1.9216 0.01605 1.9257-0.63904 0.0053z" stop-color="#000000"/>
<path d="m31.475 31.741-0.66994-0.07183q0.03821-0.17563 0.10901-0.27541 0.07253-0.1015 0.20702-0.17533 0.09656-0.05323 0.26542-0.08221 0.16886-0.02898 0.36523-0.02863 0.31522 5.65e-4 0.50636 0.03708 0.19114 0.03479 0.31841 0.14699 0.08943 0.07768 0.14085 0.22074 0.05142 0.14134 0.05119 0.27053l-0.0014 0.80787q-2.31e-4 0.12919 0.01514 0.20329 0.0171 0.07238 0.07201 0.18616l-0.65801-0.0012q-0.03949-0.0707-0.05148-0.10689-0.01199-0.03792-0.02391-0.11718-0.13804 0.13239-0.27422 0.18899-0.18617 0.07546-0.43249 0.07502-0.32728-5.87e-4 -0.49754-0.15248-0.16858-0.15186-0.16818-0.37406 3.73e-4 -0.20843 0.12292-0.34257 0.12254-0.13414 0.45166-0.19901 0.3946-0.07853 0.51179-0.10933 0.11719-0.03252 0.2482-0.08396 2.32e-4 -0.12919-0.05307-0.18096-0.05331-0.05177-0.18766-0.05201-0.17225-3.09e-4 -0.25848 0.05466-0.06726 0.04294-0.10881 0.16172zm0.6074 0.36971q-0.14479 0.05142-0.30161 0.09075-0.2137 0.05646-0.27064 0.11148-0.05867 0.05674-0.0588 0.12908-1.48e-4 0.08268 0.0566 0.13618 0.05847 0.05178 0.17044 0.05198 0.11713 2.1e-4 0.21714-0.05645 0.10173-0.05666 0.14322-0.13755 0.04321-0.08261 0.04345-0.21352z" stop-color="#000000"/>
<path d="m33.343 31.154 0.65627 0.0048-0.0022 0.29972q0.09615-0.19396 0.19658-0.26558 0.10216-0.07333 0.2503-0.07226 0.15502 0.0011 0.33863 0.09892l-0.22066 0.49795q-0.12364-0.05258-0.19599-0.0531-0.1378-1e-3 -0.21441 0.11214-0.10968 0.1594-0.11287 0.59864l-0.0044 0.61321-0.7045-0.0051z" stop-color="#000000"/>
<path d="m38.164 30.47-0.03969 2.568-0.7096-0.01097 0.02601-1.6827q-0.17426 0.12824-0.33741 0.20668-0.16143 0.07847-0.40542 0.14878l0.0089-0.57526q0.36003-0.10986 0.5606-0.2687t0.3162-0.39479z" stop-color="#000000"/>
<path d="m41.095 31.139-0.69927 0.0716q-0.02451-0.14696-0.0887-0.2086-0.06247-0.0616-0.15719-0.06357-0.1705-0.0035-0.2688 0.1667-0.07147 0.12256-0.11264 0.52832 0.12837-0.12483 0.26223-0.18234 0.1339-0.05924 0.30784-0.05562 0.33754 7e-3 0.56502 0.25296 0.2292 0.24598 0.2215 0.61624-0.0052 0.24972-0.12832 0.4539-0.12141 0.20422-0.33373 0.30663-0.21057 0.10072-0.52572 0.09416-0.37888-0.0079-0.60524-0.14181-0.22636-0.13393-0.35826-0.41923-0.13014-0.28699-0.12043-0.7537 0.01422-0.6837 0.30841-0.9946 0.29423-0.31262 0.80399-0.30202 0.30138 0.0063 0.47385 0.0805 0.17423 0.07254 0.28682 0.20927 0.11259 0.13673 0.16864 0.3412zm-1.315 1.0977q-0.0043 0.20494 0.09663 0.3242 0.10093 0.11754 0.25076 0.12065 0.13777 0.0029 0.23296-0.10025 0.09518-0.10312 0.09952-0.3115 0.0044-0.21355-0.08967-0.3275-0.09411-0.11395-0.23705-0.11692-0.14638-3e-3 -0.24853 0.10338-0.10042 0.10646-0.10461 0.30795z" stop-color="#000000"/>
<path d="m43.217 31.318 0.65422 0.0213-0.0087 0.26685q0.14661-0.1624 0.29181-0.22834 0.14692-0.06588 0.35007-0.05926 0.21865 0.0071 0.34352 0.08874 0.12488 0.08162 0.2008 0.23748 0.17111-0.17367 0.30919-0.23294 0.13814-0.06099 0.33785-0.05449 0.2944 0.0096 0.45396 0.19058 0.15961 0.17927 0.1475 0.55114l-0.0374 1.1483-0.70243-0.02287 0.03392-1.0416q4e-3 -0.12396-0.04221-0.18578-0.0675-0.09699-0.17252-0.10041-0.12396-4e-3 -0.20262 0.08302-0.07867 0.08706-0.08512 0.28504l-0.03072 0.94345-0.70243-0.02287 0.0328-1.0072q0.0039-0.12051-0.0084-0.164-0.02014-0.06959-0.07388-0.11271-0.05369-0.04483-0.12772-0.04725-0.12051-0.0039-0.20096 0.0848-0.08045 0.08872-0.08723 0.29704l-0.03039 0.93312-0.70243-0.02287z" stop-color="#000000"/>
<path d="m47.516 32.064-0.66626-0.10043q0.04569-0.17384 0.1207-0.2705 0.07681-0.0983 0.21433-0.16631 0.09875-0.04904 0.26869-0.07077 0.16995-0.02173 0.36612-0.01297 0.31491 0.01405 0.50431 0.05872 0.18948 0.04294 0.31183 0.16048 0.08603 0.08143 0.13128 0.22656 0.04533 0.14341 0.03957 0.27248l-0.03602 0.80707q-0.0058 0.12906 0.0064 0.20375 0.01398 0.07304 0.06398 0.18908l-0.65736-0.02934q-0.03643-0.07232-0.04686-0.109-0.01036-0.0384-0.01887-0.11809-0.14358 0.12636-0.28206 0.17708-0.18923 0.06742-0.43531 0.05644-0.32696-0.01459-0.49056-0.17363-0.16188-0.15896-0.15198-0.38095 0.0093-0.20822 0.13746-0.33699 0.12817-0.12877 0.45977-0.1795 0.3976-0.06157 0.516-0.08732 0.11848-0.02747 0.25156-0.07326 0.0058-0.12906-0.04528-0.18307-0.05104-0.05401-0.18527-0.06-0.17208-0.0077-0.26058 0.04355-0.06903 0.04002-0.11563 0.15692zm0.59102 0.39537q-0.14685 0.04517-0.30522 0.07776-0.21592 0.04726-0.27516 0.0998-0.06104 0.05418-0.06427 0.12645-0.0037 0.0826 0.05072 0.13848 0.0562 0.05423 0.16806 0.05923 0.11702 0.0052 0.21936-0.04711 0.10406-0.05226 0.14897-0.13129 0.04671-0.08068 0.05254-0.21146z" stop-color="#000000"/>
<path d="m49.467 30.867 0.6999 0.0405-0.02756 0.47635-0.6999-0.0405zm-0.0402 0.69475 0.6999 0.0405-0.10568 1.8263-0.6999-0.0405z" stop-color="#000000"/>
</g>
</g>
</svg>
