<?xml version="1.0" encoding="UTF-8" standalone="no"?>
<svg
 xmlns:dc="http://purl.org/dc/elements/1.1/"
 xmlns:cc="http://creativecommons.org/ns#"
 xmlns:rdf="http://www.w3.org/1999/02/22-rdf-syntax-ns#"
 xmlns:svg="http://www.w3.org/2000/svg"
 xmlns="http://www.w3.org/2000/svg"
 xmlns:sodipodi="http://sodipodi.sourceforge.net/DTD/sodipodi-0.dtd"
 xmlns:inkscape="http://www.inkscape.org/namespaces/inkscape"
 version="1.1"
 viewBox="0 0 66.055246 24.7"
 id="Layer_1"
 sodipodi:docname="scratch3.svg"
 inkscape:version="0.92.5 (0.92.5+68)"
 width="66.055244"
 height="24.700001">
<sodipodi:namedview
 pagecolor="#ffffff"
 bordercolor="#666666"
 borderopacity="1"
 objecttolerance="10"
 gridtolerance="10"
 guidetolerance="10"
 inkscape:pageopacity="0"
 inkscape:pageshadow="2"
 inkscape:window-width="640"
 inkscape:window-height="480"
 id="namedview14"
 showgrid="false"
 inkscape:zoom="12.123887"
 inkscape:cx="30.701908"
 inkscape:cy="11.229446"
 inkscape:current-layer="Layer_1"
 fit-margin-top="0"
 fit-margin-left="0"
 fit-margin-right="0"
 fit-margin-bottom="0" />
<metadata
 id="metadata29">
<rdf:RDF>
<cc:Work
 rdf:about="">
<dc:format>image/svg+xml</dc:format>
<dc:type
 rdf:resource="http://purl.org/dc/dcmitype/StillImage" />
<dc:title></dc:title>
</cc:Work>
</rdf:RDF>
</metadata>
<defs
 id="defs27" />
<style
 id="style2">.st0{fill:#fff}.st1{fill:#f9a83a}</style>
<path
 inkscape:connector-curvature="0"
 d="m 60.144444,24.1 c -0.8,0.1 -1.3,0.1 -1.5,0.2 c -0.4,0.2 -1.3,0.4 -2.4,0.4 c -1.4,0 -2.7,-0.5 -3.8,-1.3 h -0.8 c -0.3,0 -0.5,0 -0.8,-0.1 c -1.1,0.4 -2.1,0.4 -2.7,0.4 h -0.2 c -1.4,0.1 -2.8,-0.2 -4,-0.8 c -0.6,0.2 -1.1,0.3 -1.7,0.3 l -3.7,0.1 c -1.7,0 -3.2,-0.6 -4.4,-1.7 c -0.5,0 -1,-0.1 -1.4,-0.2 c -0.6,0.7 -1.4,1.3 -2.4,1.8 c -1.9,0.9 -4,1 -6,0.2 c -0.2,-0.1 -0.5,-0.2 -0.7,-0.3 l -2.3,0.3 h -0.7 c -0.3,0.1 -0.5,0.3 -0.7,0.4 c -1.5,0.7 -2.9,0.7 -3.5,0.7 h -0.5 c -1.7,0 -3.4,-0.5 -4.7,-1.4 c -0.4,0.1 -0.9,0.2 -1.2999996,0.2 c -0.9,0.6 -2,1 -3.2,1.1 h -0.4 c -3.3,0 -5.99999996,-2.5 -6.29999996,-5.8 v -0.1 c 0,-0.5 -0.1,-1.6 0,-2.8 c 0,-0.6 0.1,-1.5 0.1,-1.7 c 0,-0.8 0.2,-1.6 0.5,-2.4 c -0.2,-0.8 -0.1,-1.6 0,-2.4 V 8.9 c 0.1,-0.7 0.3,-2.1 0.99999996,-3.5 c 1.3,-2.4 3.7,-3.9 6.4,-3.9 c 0.9,-0.5 1.8,-0.7 2.7999996,-0.7 h 0.3 c 2,0.1 3.8,1.1 4.9,2.7 c 0.9,-0.8 2,-1.3 3.2,-1.5 c 2.4,-0.3 4.4,-0.4 6.1,-0.1 c 0.9,-0.8 2.1,-1.4 3.3,-1.5 l 2.6,-0.4 h 0.8 c 1.5,0 3,0.6 4.2,1.6 h 0.2 l 3.8,-0.1 c 1.6,0 3,-0.1 3.3,-0.1 h 0.5 c 1.4,0 2.9,0.5 4,1.4 c 1.1,-0.8 2.4,-1.2 3.8,-1.2 h 1.3 c 1,-0.6 2.1,-1 3.3,-1 l 3.2,-0.1 h 0.1 c 3.4,0 6.2,2.8 6.3,6.2 c 0,1.6 -0.5,3 -1.5,4.2 v 2.9 c 0.9,1 1.4,2.3 1.5,3.7 c 0.2,3.4 -2.4,6.3 -5.9,6.6 z"
 class="st0"
 id="path4"
 style="fill:#ffffff" />
<path
 inkscape:connector-curvature="0"
 style="fill:#f9a83a"
 id="path8"
 class="st1"
 d="m 59.944444,20.5 c -1.3,0.1 -2.1,0.2 -2.3,0.3 l -0.1,0.1 c -0.3,0.1 -0.7,0.3 -1.2,0.3 c -0.6,0 -1.3,-0.2 -1.8,-0.7 c -0.2,-0.2 -0.4,-0.4 -0.5,-0.6 h -2.3 c -0.4,0 -0.8,-0.1 -1.1,-0.3 c -0.1,0.1 -0.3,0.1 -0.4,0.2 c -0.8,0.4 -1.5,0.4 -2,0.4 h -0.5 c -1.5,0 -2.7,-0.5 -3.5,-1.4 c -0.5,0.5 -1.2,0.8 -1.9,0.8 l -3.7,0.1 c -1.3,0 -2.5,-1 -2.7,-2.2 c -0.5,0.3 -1,0.5 -1.6,0.5 c -0.6,0 -1.2,-0.2 -1.7,-0.5 c -0.1,-0.1 -0.2,-0.2 -0.3,-0.2 c -0.3,0.2 -0.7,0.2 -1.1,0.2 h -0.3 c -0.4,1.2 -1.1,2 -2.2,2.5 c -0.5,0.2 -1.1,0.4 -1.6,0.4 c -0.5,0 -1.1,-0.1 -1.6,-0.3 c -0.5,-0.2 -0.9,-0.5 -1.2,-0.8 c -0.2,0.1 -0.4,0.1 -0.6,0.2 l -2.9,0.4 h -0.4 c -0.3,0 -0.5,0 -0.8,-0.1 c -0.4,0.4 -0.9,0.6 -1.3,0.8 c -0.8,0.4 -1.5,0.4 -2,0.4 h -0.5 c -1.8,0 -3.2,-0.8 -4,-1.9 c -0.8,0.5 -1.8,0.8 -2.6999996,0.8 h -0.6 c 0,0.1 -0.1,0.1 -0.1,0.2 c -0.5,0.5 -1.2,0.9 -1.9,0.9 h -0.2 c -1.4,0 -2.6,-1.1 -2.7,-2.6 v -0.1 c 0,-0.5 -0.1,-1.4 0,-2.4 c 0,-0.7 0.1,-1.8 0.1,-1.8 c 0,-0.7 0.3,-1.3 0.7,-1.8 c -0.4,-0.8 -0.5,-1.7 -0.3,-2.7 V 9.4 c 0.1,-0.6 0.2,-1.5 0.6,-2.4 c 0.7,-1.3 2,-2 3.5,-2 h 0.7 c 0.5,-0.4 1.0999996,-0.7 1.7999996,-0.7 c 1.5,0 2.7,1.3 2.7,2.8 v 1.1 c 0.5,-0.2 1.1,-0.3 1.7,-0.3 c 0.3,0 0.5,0 0.8,0.1 c 0.4,-0.5 1,-0.8 1.6,-0.9 c 0.1,-0.2 0.2,-0.3 0.3,-0.5 c 0.4,-0.6 1.1,-1 1.8,-1.1 c 0.6,-0.1 1.8,-0.2 3.2,-0.2 c 1.6,0 2.9,0.2 3.9,0.7 c 0.3,-1.1 1.1,-1.9 2.3,-2.1 l 2.6,-0.4 h 0.4 c 0.8,0 1.5,0.3 2,0.9 c 0.2,0.2 0.5,0.6 0.6,0.9 l 0.1,0.3 c 0.5,-0.3 1,-0.5 1.6,-0.5 l 3.9,-0.1 c 1.9,0 3.6,-0.1 3.6,-0.2 h 0.2 c 0.7,0 1.5,0.3 2,0.8 c 0.4,0.4 0.7,0.9 0.8,1.5 h 0.2 c 0.3,0 0.5,0 0.8,0.1 c 0.4,-0.5 1,-0.8 1.6,-0.9 c 0.5,-0.7 1.4,-1.3 2.4,-1.3 h 2.6 c 0.5,-0.6 1.2,-1 2.1,-1 h 3.2 c 1.5,0 2.7,1.2 2.8,2.7 c 0,1.1 -0.6,2.1 -1.5,2.5 v 6.1 c 0.8,0.4 1.4,1.3 1.5,2.3 c 0.1,1.5 -1.1,2.8 -2.6,2.9 z" />
<path
 inkscape:connector-curvature="0"
 style="fill:#f9a83a"
 id="path10"
 class="st1"
 d="m 32.244444,8.5 l -0.7,3.6 l 2,-0.3 z" />
<path
 style="fill:#ffffff"
 d="m 8.3444444,12 c -0.7,-0.1 -1.1,-0.6 -0.9,-2 V 9.8 c 0.2,-1.2 0.3,-1.5 0.9,-1.5 c 0.2,0 0.4,0.1 0.6,0.3 c 0.2,0.2 0.6,0.5 0.8,1.1 c 0.2,0.4 0.2,0.7 0.2999996,1 v 0.4 c 0,0.2 0.2,0.4 0.5,0.5 c 0.3,0.1 0.6,-0.2 0.7,-0.5 c 0,0 0.2,-3.8 0.2,-3.9 c 0,-0.3 -0.3,-0.6 -0.6,-0.6 c -0.3,0 -0.6,0.3 -0.6,0.6 V 8.3 C 9.7444444,7.8 9.1444444,7.3 8.4444444,7.3 c -1.9,-0.3 -2.1,1.4 -2.2,2.4 v 0.2 c -0.2,1.9 0.4,3.1 1.9,3.4 c 1.6,0.3 2.6999996,0.6 2.6999996,1.6 c 0,0.4 -0.2,0.8 -0.6,1.1 c -0.3999996,0.4 -0.9999996,0.5 -1.5999996,0.4 c -0.2,0 -0.3,-0.1 -0.5,-0.1 c -0.2,-0.1 -0.8,-0.4 -1,-0.8 c -0.1,-0.4 -0.2,-0.9 -0.2,-1.2 v -0.2 c 0,-0.3 -0.3,-0.6 -0.6,-0.6 c -0.3,0 -0.6,0.3 -0.6,0.6 c 0,0 0,1.2 -0.1,1.9 c -0.1,1.2 0,2.1 0,2.2 c 0,0.3 0.3,0.6 0.6,0.6 c 0.3,0 0.6,-0.3 0.6,-0.6 v -1.1 c 0.4,0.3 1,0.6 1.7,0.7 c 0.9,0.2 1.7999996,-0.1 2.4999996,-0.7 c 0.6,-0.5 1,-1.3 1,-2 c 0,-2.5 -2.4999996,-2.9 -3.6999996,-3.1"
 id="path895"
 inkscape:connector-curvature="0" />
<path
 style="fill:#ffffff"
 d="m 50.444444,13.8 c -0.3,0 -0.6,0.3 -0.6,0.6 v 0.8 c 0,0.3 -0.1,0.7 -0.2,0.8 c -0.1,0.2 -0.2,0.3 -0.4,0.5 c -0.1,0.1 -0.3,0.2 -0.5,0.3 c -0.2,0.1 -0.3,0.1 -0.7,0.1 h -0.4 c -1.6,0.1 -1.8,-1.2 -1.8,-1.5 v -2.6 c 0.1,-1 0.3,-1.7 0.7,-2 c 0.3,-0.2 0.7,-0.1 1.4,0.1 c 0.8,0.3 1.3,1.2 1.4,1.2 c 0.1,0.2 0.4,0.3 0.7,0.3 c 0.3,-0.1 0.4,-0.3 0.4,-0.6 V 9.1 c 0,-0.3 -0.3,-0.6 -0.6,-0.6 c -0.3,0 -0.6,0.3 -0.6,0.6 v 1.1 c -0.2,-0.2 -0.5,-0.3 -0.8,-0.5 c -0.3,-0.2 -1.5,-0.7 -2.4,-0.1 c -0.7,0.5 -1.2,1.4 -1.3,2.9 v 2.8 c 0.1,0.9 0.8,2.7 3,2.7 h 0.3 c 0.4,0 0.8,0 1.2,-0.2 c 0.3,-0.1 0.6,-0.3 0.9,-0.6 c 0.2,-0.2 0.3,-0.4 0.5,-0.7 c 0.2,-0.4 0.3,-1.1 0.4,-1.3 v -1 c 0,-0.2 -0.3,-0.4 -0.6,-0.4"
 id="path893"
 inkscape:connector-curvature="0" />
<path
 style="fill:#ffffff"
 d="m 60.344444,17.8 c 0,-0.3 -0.3,-0.6 -0.6,-0.6 c -0.2,0 -0.5,0 -0.8,0.1 c 0,-1 0,-3.1 -0.1,-9.9 h 0.9 c 0.3,0 0.6,-0.3 0.6,-0.6 c 0,-0.3 -0.3,-0.6 -0.6,-0.6 l -3.2,0.1 c -0.3,0 -0.6,0.3 -0.6,0.6 c 0,0.3 0.3,0.6 0.6,0.6 h 1 v 4.2 l -3.6,0.6 V 8.5 h 1 c 0.3,0 0.6,-0.3 0.6,-0.6 c 0,-0.3 -0.3,-0.6 -0.6,-0.6 h -3.2 c -0.3,0 -0.6,0.3 -0.6,0.6 c 0,0.3 0.3,0.6 0.6,0.6 h 1 v 8.1 h -1 c -0.3,0 -0.6,0.3 -0.6,0.6 c 0,0.3 0.3,0.6 0.6,0.6 l 3.3,0.1 c 0.3,0 0.6,-0.3 0.6,-0.6 c 0,-0.3 -0.3,-0.6 -0.6,-0.6 h -1 v -3.1 l 3.6,-0.6 v 4.6 c -0.8,0.2 -1.4,0.2 -1.7,0.6 c -0.2,0.2 -0.2,0.6 0.1,0.8 c 0.2,0.2 0.5,0.1 0.9,0 c 0.3,-0.2 1.5,-0.3 2.9,-0.4 c 0.3,-0.2 0.5,-0.5 0.5,-0.8"
 id="path12"
 inkscape:connector-curvature="0" />
<path
 inkscape:connector-curvature="0"
 style="fill:#ffffff"
 id="path14"
 class="st0"
 d="m 31.544444,12.1 l 0.7,-3.6 l 1.3,3.3 z m 5.3,1 c -0.2,0.1 -0.5,0.2 -1.1,0.5 l -0.8,-1.9 l -2.3,-5.5 c 0,-0.1 -0.1,-0.3 -0.2,-0.3 c -0.1,-0.1 -0.3,-0.2 -0.5,-0.2 l -2.6,0.3 c -0.3,0 -0.6,0.3 -0.5,0.7 c 0,0.3 0.3,0.6 0.7,0.5 c 0,0 1,-0.1 1.8,-0.2 c -0.2,1.1 -1.1,5.6 -1.4,7 l -1.8,-0.1 c -0.3,0 -0.6,0.2 -0.6,0.6 c 0,0.3 0.2,0.6 0.6,0.6 l 3,0.1 c 0.3,0 0.6,-0.2 0.6,-0.6 c 0,-0.3 -0.2,-0.6 -0.6,-0.6 l 0.1,-0.9 l 2.8,-0.5 l 0.6,1.5 c -0.5,0.3 -0.7,0.4 -1,0.7 c -0.2,0.3 -0.1,0.6 0.1,0.8 c 0.3,0.2 0.7,0.1 0.9,-0.1 c 0.3,-0.4 1.4,-0.9 2.5,-1.3 c 0.3,-0.1 0.5,-0.5 0.4,-0.8 c -0.1,-0.2 -0.4,-0.4 -0.7,-0.3" />
<path
 style="fill:#ffffff"
 d="m 44.044444,7 c 0,0 -1.8,0.1 -3.8,0.2 l -3.9,0.1 c -0.2,0 -0.3,0.1 -0.5,0.2 c -0.1,0.1 -0.2,0.3 -0.1,0.5 l 0.5,3 c 0,0.3 0.4,0.6 0.7,0.5 c 0.3,0 0.5,-0.3 0.5,-0.6 c 0,0 -0.2,-1.6 -0.4,-2.4 h 2.6 v 7.9 h -1.3 c -0.3,0 -0.6,0.3 -0.6,0.6 c 0,0.3 0.3,0.6 0.6,0.6 l 3.7,-0.1 c 0.3,0 0.6,-0.3 0.6,-0.6 c 0,-0.3 -0.3,-0.6 -0.6,-0.6 h -1.2 V 8.4 c 1,0 1.9,-0.1 2.5,-0.1 v 1.2 c 0,0.6 0.1,0.8 0.1,0.9 c 0.2,0.3 0.5,0.4 0.8,0.2 c 0.2,-0.1 0.3,-0.4 0.3,-0.6 c 0,0 0,-1.4 0.1,-2.2 c 0,-0.2 0,-0.3 -0.2,-0.5 c 0,-0.2 -0.2,-0.3 -0.4,-0.3"
 id="path832"
 inkscape:connector-curvature="0" />
<path
 style="fill:#ffffff"
 d="m 18.544444,14.4 c -0.3,0 -0.6,0.3 -0.6,0.6 v 0.9 c 0,0.2 -0.1,0.6 -0.2,0.8 c -0.1,0.2 -0.2,0.3 -0.4,0.5 c -0.1,0.1 -0.3,0.2 -0.5,0.3 c -0.2,0.1 -0.3,0.1 -0.7,0.1 h -0.4 c -1.6,0 -1.8,-1.2 -1.8,-1.5 v -2.6 c 0.1,-1 0.3,-1.7 0.7,-2 c 0.3,-0.2 0.7,-0.1 1.4,0.1 c 0.8,0.3 1.4,1.2 1.4,1.2 c 0.1,0.2 0.4,0.3 0.7,0.3 c 0.3,-0.1 0.4,-0.3 0.4,-0.6 V 9.8 c 0,-0.3 -0.3,-0.6 -0.6,-0.6 c -0.3,0 -0.6,0.3 -0.6,0.6 v 1.1 c -0.2,-0.2 -0.5,-0.4 -0.8,-0.5 c -0.4,-0.2 -1.5,-0.6 -2.5,-0.1 c -0.7,0.5 -1.2,1.4 -1.3,2.9 V 16 c 0.1,0.9 0.8,2.7 3.1,2.7 h 0.3 c 0.4,0 0.8,0 1.2,-0.2 c 0.3,-0.1 0.6,-0.3 0.9,-0.6 c 0.2,-0.2 0.3,-0.4 0.5,-0.7 c 0.2,-0.4 0.3,-1.1 0.4,-1.3 v -1 c 0,-0.2 -0.3,-0.5 -0.6,-0.5"
 id="path16"
 inkscape:connector-curvature="0" />
<path
 d="m 25.144444,10.3 c -0.1,0.1 -0.2,0.2 -0.4,0.3 c -0.1,0.1 -0.4,0.2 -0.5,0.2 l -0.3,0.1 c -0.4,0.2 -1,0.3 -1.6,0.4 V 8.4999998 c 1.6,0 3,0.1 3.3,0.6 v 0.2 c 0,0.2 -0.2,0.6 -0.5,1.0000002 m 3.5,5.4 c -0.3,-0.1 -0.7,0.1 -0.8,0.4 c -0.2,0.7 -0.4,0.7 -0.5,0.8 c -0.1,0.1 -0.3,0 -0.6,-0.1 c 0,0 -0.1,-0.2 -0.2,-0.3 c -0.1,-0.2 -0.2,-1 -0.2,-1.5 c 0,-1.8 -0.4,-2.8 -0.9,-3.3 c 0.3,-0.2 0.6,-0.5 0.6,-0.5 c 0.7,-1 0.9,-1.8000002 0.5,-2.5000002 c -1,-1.7 -5.3,-1.2 -6.7,-1 c -0.3,0 -0.6,0.4 -0.5,0.7 c 0,0.3 0.4,0.6 0.7,0.5 c 0.3,0 0.6,-0.1 0.9,-0.1 V 11.6 h -0.3 c -0.3,0 -0.6,0.3 -0.6,0.6 c 0,0.3 0.3,0.6 0.6,0.6 h 0.3 v 3.5 l -0.8,0.1 c -0.3,0 -0.6,0.4 -0.5,0.7 c 0,0.3 0.4,0.6 0.7,0.5 l 2.9,-0.4 c 0.3,0 0.6,-0.4 0.5,-0.7 c 0,-0.3 -0.4,-0.6 -0.7,-0.5 l -0.9,0.1 v -3.5 c 0.6,-0.1 1.1,-0.2 1.6,-0.4 h 0.2 c 0.2,0 0.4,0.1 0.5,0.3 c 0.2,0.3 0.4,0.9 0.5,2.4 c 0,0.3 0.1,1.5 0.3,2 c 0.1,0.2 0.4,0.7 0.9,0.9 c 0.4,0.1 0.9,0.3 1.5,0 c 0.5,-0.3 0.9,-0.6 1.1,-1.5 c 0.4,-0.2 0.2,-0.5 -0.1,-0.6"
 class="st0"
 id="path874"
 style="fill:#ffffff"
 inkscape:connector-curvature="0"
 sodipodi:nodetypes="cccccccscccsccsccccccccssscccccccccccsccccccc" />
</svg>
