<?xml version="1.0" encoding="UTF-8" standalone="no"?>
<!-- Created with Inkscape (http://www.inkscape.org/) -->

<svg
 width="80mm"
 height="30.000002mm"
 viewBox="0 0 80 30.000002"
 version="1.1"
 id="svg8"
 inkscape:version="1.2.2 (1:1.2.2+202212051551+b0a8486541)"
 sodipodi:docname="formule.svg"
 xmlns:inkscape="http://www.inkscape.org/namespaces/inkscape"
 xmlns:sodipodi="http://sodipodi.sourceforge.net/DTD/sodipodi-0.dtd"
 xmlns="http://www.w3.org/2000/svg"
 xmlns:svg="http://www.w3.org/2000/svg"
 xmlns:rdf="http://www.w3.org/1999/02/22-rdf-syntax-ns#"
 xmlns:cc="http://creativecommons.org/ns#"
 xmlns:dc="http://purl.org/dc/elements/1.1/">
<defs
 id="defs2" />
<sodipodi:namedview
 id="base"
 pagecolor="#ffffff"
 bordercolor="#666666"
 borderopacity="1.0"
 inkscape:pageopacity="0.0"
 inkscape:pageshadow="2"
 inkscape:zoom="1.3084848"
 inkscape:cx="188.38583"
 inkscape:cy="20.252432"
 inkscape:document-units="mm"
 inkscape:current-layer="layer1"
 showgrid="true"
 inkscape:snap-intersection-paths="true"
 showguides="true"
 inkscape:guide-bbox="true"
 inkscape:pagecheckerboard="0"
 inkscape:snap-to-guides="false"
 inkscape:snap-text-baseline="true"
 inkscape:snap-smooth-nodes="true"
 inkscape:object-paths="true"
 borderlayer="true"
 inkscape:showpageshadow="false"
 inkscape:deskcolor="#d1d1d1">
<inkscape:grid
 type="xygrid"
 id="grid815"
 spacingx="5"
 spacingy="5"
 empspacing="2"
 originx="-54.999995"
 originy="-25" />
<sodipodi:guide
 position="-44.999996,34.850002"
 orientation="1,0"
 id="guide817"
 inkscape:locked="false"
 inkscape:label=""
 inkscape:color="rgb(0,0,255)" />
<sodipodi:guide
 position="145,34.850002"
 orientation="1,0"
 id="guide819"
 inkscape:locked="false"
 inkscape:label=""
 inkscape:color="rgb(0,0,255)" />
<sodipodi:guide
 position="-54.999996,44.850002"
 orientation="0,1"
 id="guide821"
 inkscape:locked="false"
 inkscape:label=""
 inkscape:color="rgb(0,0,255)" />
<sodipodi:guide
 position="-54.999996,321.85"
 orientation="0,1"
 id="guide825"
 inkscape:locked="false"
 inkscape:label=""
 inkscape:color="rgb(0,0,255)" />
</sodipodi:namedview>
<metadata
 id="metadata5">
<rdf:RDF>
<cc:Work
 rdf:about="">
<dc:format>image/svg+xml</dc:format>
<dc:type
 rdf:resource="http://purl.org/dc/dcmitype/StillImage" />
</cc:Work>
</rdf:RDF>
</metadata>
<g
 inkscape:label="Calque 1"
 inkscape:groupmode="layer"
 id="layer1"
 transform="translate(-54.999996,-25)">
<g
 aria-label="mL"
 id="text97"
 style="font-size:4.5861px;line-height:1.2;font-family:'Segoe Print QD';-inkscape-font-specification:'Segoe Print QD';letter-spacing:0.264583px;word-spacing:0.529167px;text-anchor:middle;overflow:visible;fill:#0000ff;stroke-width:0.264583px;stop-color:#000000">
<path
 d="m 122.92382,34.728708 q -0.20826,0.0045 -0.89125,1.233858 q -0.23065,0.414272 -0.26872,0.45234 q -0.0381,0.03583 -0.14107,0.06494 q -0.10077,0.02911 -0.16795,0.02911 q -0.15003,0 -0.15003,-0.584459 q 0,-0.329178 0.14107,-1.191311 q 0.0582,-0.349332 0.0582,-0.499365 q 0,-0.147795 0.13211,-0.147795 q 0.24857,0 0.24857,0.358289 q 0,0.167948 -0.0829,0.658357 q -0.0963,0.559826 -0.0985,0.680749 q 0.13884,-0.134359 0.40756,-0.588938 q 0.38068,-0.622527 0.55982,-0.788236 q 0.18139,-0.167948 0.37397,-0.167948 q 0.14555,0 0.23065,0.19482 q 0.0873,0.19482 0.10524,0.929312 q 0.004,0.183623 0.0336,0.273196 q 0.0291,0.08957 0.0426,0.08957 q 0.10525,0 0.45682,-0.716578 q 0.1881,-0.378443 0.36501,-0.575502 q 0.17914,-0.197059 0.39635,-0.197059 q 0.18139,0 0.26424,0.188102 q 0.0829,0.185862 0.11868,0.553108 q 0.0336,0.371725 0.10301,0.68075 q 0.0717,0.309024 0.25976,0.396357 q 0.12764,0.06046 0.12764,0.141076 q 0,0.07838 -0.10748,0.16123 q -0.10749,0.08286 -0.19706,0.08286 q -0.17915,0 -0.32022,-0.219452 q -0.14108,-0.219452 -0.21274,-0.949466 q -0.0314,-0.29335 -0.0605,-0.416511 q -0.0291,-0.123162 -0.0918,-0.123162 q -0.094,0 -0.22393,0.179144 q -0.12764,0.179145 -0.41427,0.727775 q -0.22393,0.427708 -0.34038,0.571023 q -0.1142,0.141076 -0.22169,0.141076 q -0.0963,0 -0.17243,-0.07614 q -0.0761,-0.07838 -0.0963,-0.185862 q -0.0201,-0.109726 -0.0425,-0.535195 q -0.0336,-0.707621 -0.12316,-0.824065 z"
 id="path948" />
<path
 d="m 126.3391,35.868516 q 0,-0.04479 0.0672,-0.546391 q 0.0672,-0.503844 0.12764,-1.168918 q 0.0605,-0.667314 0.0761,-0.74569 q 0.0179,-0.07838 0.0717,-0.12764 q 0.056,-0.04926 0.17242,-0.04926 q 0.0739,0 0.13212,0.0627 q 0.0582,0.0627 0.0582,0.136598 q 0,0.09629 -0.0403,0.313502 q -0.0582,0.297828 -0.17019,1.209226 q -0.10973,0.911398 -0.10973,1.03232 q 0,0.07838 0.0224,0.107487 q 0.0246,0.02687 0.0896,0.02687 q 0.10525,0 0.49713,-0.06494 q 0.24184,-0.03807 0.91363,-0.0739 q 0.12092,-0.0045 0.29783,-0.0515 q 0.0336,-0.009 0.0493,-0.009 q 0.0851,0 0.13436,0.05598 q 0.0493,0.05598 0.0493,0.134359 q 0,0.12764 -0.0985,0.203777 q -0.0985,0.0739 -0.21945,0.0739 q -0.047,0 -0.18587,-0.01344 q -0.14107,-0.0112 -0.21049,-0.0112 q -0.73001,0 -1.40852,0.22841 q -0.11421,0.03807 -0.20602,0.03807 q -0.10077,0 -0.15675,-0.08733 q -0.0537,-0.08733 -0.0537,-0.170187 q 0,-0.04926 0.0425,-0.214974 q 0.047,-0.19482 0.0582,-0.28887 z"
 id="path950" />
</g>
<g
 aria-label="cL"
 id="text101"
 style="font-size:4.5861px;line-height:1.2;font-family:'Segoe Print QD';-inkscape-font-specification:'Segoe Print QD';letter-spacing:0.264583px;word-spacing:0.529167px;text-anchor:middle;overflow:visible;fill:#0000ff;stroke-width:0.264583px;stop-color:#000000">
<path
 d="m 113.03914,36.62764 q -0.3359,0 -0.51728,-0.19258 q -0.17914,-0.19258 -0.17914,-0.539673 q 0,-0.584459 0.46353,-1.231618 q 0.46354,-0.649399 0.86214,-0.649399 q 0.18138,0 0.31126,0.197059 q 0.13212,0.194819 0.13212,0.414271 q 0,0.132119 -0.0582,0.22841 q -0.056,0.09405 -0.11421,0.09405 q -0.12988,0 -0.18362,-0.261998 q -0.0605,-0.282153 -0.17467,-0.282153 q -0.23289,0 -0.55087,0.553109 q -0.31798,0.553108 -0.31798,0.933791 q 0,0.380682 0.43219,0.380682 q 0.32918,0 0.7748,-0.309025 q 0.15675,-0.109726 0.23065,-0.109726 q 0.0761,0 0.0761,0.08733 q 0,0.170188 -0.40083,0.429947 q -0.40084,0.25752 -0.786,0.25752 z"
 id="path953" />
<path
 d="m 115.14443,35.868516 q 0,-0.04479 0.0672,-0.546391 q 0.0672,-0.503844 0.12764,-1.168918 q 0.0605,-0.667314 0.0761,-0.74569 q 0.0179,-0.07838 0.0717,-0.12764 q 0.056,-0.04926 0.17242,-0.04926 q 0.0739,0 0.13212,0.0627 q 0.0582,0.0627 0.0582,0.136598 q 0,0.09629 -0.0403,0.313502 q -0.0582,0.297828 -0.17019,1.209226 q -0.10973,0.911398 -0.10973,1.03232 q 0,0.07838 0.0224,0.107487 q 0.0246,0.02687 0.0896,0.02687 q 0.10525,0 0.49713,-0.06494 q 0.24184,-0.03807 0.91363,-0.0739 q 0.12093,-0.0045 0.29783,-0.0515 q 0.0336,-0.009 0.0493,-0.009 q 0.0851,0 0.13435,0.05598 q 0.0493,0.05598 0.0493,0.134359 q 0,0.12764 -0.0985,0.203777 q -0.0985,0.0739 -0.21945,0.0739 q -0.047,0 -0.18587,-0.01344 q -0.14107,-0.0112 -0.21049,-0.0112 q -0.73001,0 -1.40852,0.22841 q -0.11421,0.03807 -0.20602,0.03807 q -0.10077,0 -0.15675,-0.08733 q -0.0537,-0.08733 -0.0537,-0.170187 q 0,-0.04926 0.0425,-0.214974 q 0.047,-0.19482 0.0582,-0.28887 z"
 id="path955" />
</g>
<g
 aria-label="dL"
 id="text105"
 style="font-size:4.5861px;line-height:1.2;font-family:'Segoe Print QD';-inkscape-font-specification:'Segoe Print QD';letter-spacing:0.264583px;word-spacing:0.529167px;text-anchor:middle;overflow:visible;fill:#0000ff;stroke-width:0.264583px;stop-color:#000000">
<path
 d="m 103.67958,35.572927 q -0.30007,0.481451 -0.63596,0.74345 q -0.3359,0.259759 -0.61805,0.259759 q -0.21721,0 -0.34485,-0.165708 q -0.1254,-0.167948 -0.1254,-0.445622 q 0,-0.566545 0.45905,-1.1622 q 0.4613,-0.595656 0.99426,-0.595656 q 0.23288,0 0.43218,0.199298 l 0.3135,-1.464506 q 0.0336,-0.150034 0.12317,-0.201538 q 0.0918,-0.0515 0.14331,-0.0515 q 0.15675,0 0.15675,0.277674 q 0,0.04926 -0.103,0.367246 q -0.16347,0.492648 -0.31127,1.211465 q -0.14555,0.716578 -0.14555,1.151004 q 0,0.447861 0.19482,0.447861 q 0.1254,0 0.25976,-0.08285 q 0.056,-0.04031 0.10524,-0.04031 q 0.0717,0 0.0717,0.09405 q 0,0.114205 -0.20154,0.264238 q -0.19929,0.150034 -0.40979,0.150034 q -0.36948,0 -0.36948,-0.7121 q 0,-0.120922 0.0112,-0.244084 z m -0.29335,-1.047996 q -0.36277,0 -0.71881,0.492648 q -0.35605,0.490408 -0.35605,0.906919 q 0,0.279914 0.18586,0.279914 q 0.17466,0 0.42323,-0.183624 q 0.2508,-0.183623 0.51504,-0.584459 q 0.26424,-0.403075 0.26424,-0.604612 q 0,-0.09853 -0.0918,-0.201538 q -0.0896,-0.105248 -0.22169,-0.105248 z"
 id="path958" />
<path
 d="m 105.49824,35.868516 q 0,-0.04479 0.0672,-0.546391 q 0.0672,-0.503844 0.12764,-1.168918 q 0.0605,-0.667314 0.0761,-0.74569 q 0.0179,-0.07838 0.0717,-0.12764 q 0.056,-0.04926 0.17242,-0.04926 q 0.0739,0 0.13212,0.0627 q 0.0582,0.0627 0.0582,0.136598 q 0,0.09629 -0.0403,0.313502 q -0.0582,0.297828 -0.17019,1.209226 q -0.10973,0.911398 -0.10973,1.03232 q 0,0.07838 0.0224,0.107487 q 0.0246,0.02687 0.0896,0.02687 q 0.10525,0 0.49713,-0.06494 q 0.24184,-0.03807 0.91363,-0.0739 q 0.12093,-0.0045 0.29783,-0.0515 q 0.0336,-0.009 0.0493,-0.009 q 0.0851,0 0.13435,0.05598 q 0.0493,0.05598 0.0493,0.134359 q 0,0.12764 -0.0985,0.203777 q -0.0985,0.0739 -0.21945,0.0739 q -0.047,0 -0.18587,-0.01344 q -0.14107,-0.0112 -0.21049,-0.0112 q -0.73001,0 -1.40852,0.22841 q -0.11421,0.03807 -0.20602,0.03807 q -0.10077,0 -0.15675,-0.08733 q -0.0538,-0.08733 -0.0538,-0.170187 q 0,-0.04926 0.0426,-0.214974 q 0.047,-0.19482 0.0582,-0.28887 z"
 id="path960" />
</g>
<g
 aria-label="L"
 id="text109"
 style="font-size:4.5861px;line-height:1.2;font-family:'Segoe Print QD';-inkscape-font-specification:'Segoe Print QD';letter-spacing:0.264583px;word-spacing:0.529167px;text-anchor:middle;overflow:visible;fill:#008000;stroke-width:0.264583px;stop-color:#000000">
<path
 d="m 93.849941,35.868516 q 0,-0.04479 0.06718,-0.546391 q 0.06718,-0.503844 0.12764,-1.168918 q 0.06046,-0.667314 0.07614,-0.74569 q 0.01791,-0.07838 0.07166,-0.12764 q 0.05598,-0.04926 0.172427,-0.04926 q 0.0739,0 0.132119,0.0627 q 0.05822,0.0627 0.05822,0.136598 q 0,0.09629 -0.04031,0.313502 q -0.05822,0.297828 -0.170187,1.209226 q -0.109726,0.911398 -0.109726,1.03232 q 0,0.07838 0.02239,0.107487 q 0.02463,0.02687 0.08957,0.02687 q 0.105248,0 0.497127,-0.06494 q 0.241845,-0.03807 0.913637,-0.0739 q 0.120922,-0.0045 0.297827,-0.0515 q 0.03359,-0.009 0.04927,-0.009 q 0.08509,0 0.134359,0.05598 q 0.04926,0.05598 0.04926,0.134359 q 0,0.12764 -0.09853,0.203777 q -0.09853,0.0739 -0.219452,0.0739 q -0.04703,0 -0.185863,-0.01344 q -0.141076,-0.0112 -0.210494,-0.0112 q -0.730014,0 -1.408524,0.22841 q -0.114205,0.03807 -0.206017,0.03807 q -0.100768,0 -0.156751,-0.08733 q -0.05374,-0.08733 -0.05374,-0.170187 q 0,-0.04926 0.04255,-0.214974 q 0.04703,-0.19482 0.05822,-0.28887 z"
 id="path963" />
</g>
<g
 aria-label="daL"
 id="text163"
 style="font-size:4.5861px;line-height:1.2;font-family:'Segoe Print QD';-inkscape-font-specification:'Segoe Print QD';letter-spacing:0.264583px;word-spacing:0.529167px;text-anchor:middle;overflow:visible;fill:#ff0000;stroke-width:0.264583px;stop-color:#000000">
<path
 d="m 82.201467,35.572927 q -0.300067,0.481451 -0.635963,0.74345 q -0.335896,0.259759 -0.618049,0.259759 q -0.217213,0 -0.344853,-0.165708 Q 80.477201,36.24248 80.477201,35.964806 q 0,-0.566545 0.459058,-1.1622 q 0.461297,-0.595656 0.994252,-0.595656 q 0.232888,0 0.432186,0.199298 L 82.6762,32.941742 q 0.03359,-0.150034 0.123162,-0.201538 q 0.09181,-0.0515 0.143315,-0.0515 q 0.156752,0 0.156752,0.277674 q 0,0.04926 -0.103008,0.367246 q -0.16347,0.492648 -0.311264,1.211465 q -0.145555,0.716578 -0.145555,1.151004 q 0,0.447861 0.19482,0.447861 q 0.125401,0 0.259759,-0.08285 q 0.05598,-0.04031 0.105248,-0.04031 q 0.07166,0 0.07166,0.09405 q 0,0.114205 -0.201538,0.264238 q -0.199298,0.150034 -0.409793,0.150034 q -0.369486,0 -0.369486,-0.7121 q 0,-0.120922 0.0112,-0.244084 z m -0.293349,-1.047996 q -0.362768,0 -0.718818,0.492648 q -0.35605,0.490408 -0.35605,0.906919 q 0,0.279914 0.185863,0.279914 q 0.174666,0 0.423229,-0.183624 q 0.250802,-0.183623 0.51504,-0.584459 q 0.264239,-0.403075 0.264239,-0.604612 q 0,-0.09853 -0.09181,-0.201538 q -0.08957,-0.105248 -0.221691,-0.105248 z"
 id="path966" />
<path
 d="m 85.401781,35.684892 q -0.313503,0.42099 -0.620288,0.631485 q -0.306785,0.210495 -0.562066,0.210495 q -0.172427,0 -0.297828,-0.145555 q -0.125401,-0.145555 -0.125401,-0.373964 q 0,-0.588938 0.526237,-1.267448 q 0.526237,-0.680749 1.045756,-0.680749 q 0.188102,0 0.279914,0.214973 q 0.02911,0.07166 0.09181,0.07166 q 0.179145,0 0.179145,0.138837 q 0,0.06942 -0.02239,0.190341 q -0.120923,0.660596 -0.120923,0.931552 q 0,0.541912 0.206016,0.649399 q 0.09853,0.05374 0.09853,0.132119 q 0,0.06942 -0.09629,0.138837 q -0.09629,0.07166 -0.185863,0.07166 q -0.172426,0 -0.284392,-0.237366 q -0.111965,-0.237367 -0.111965,-0.676271 z m -0.136598,-1.260729 q -0.295588,0 -0.687467,0.555348 q -0.391879,0.553109 -0.391879,0.918116 q 0,0.25752 0.170188,0.25752 q 0.246323,0 0.682988,-0.497126 q 0.436665,-0.497126 0.436665,-0.913637 q 0,-0.320221 -0.210495,-0.320221 z"
 id="path968" />
<path
 d="m 86.976358,35.868516 q 0,-0.04479 0.06718,-0.546391 q 0.06718,-0.503844 0.12764,-1.168918 q 0.06046,-0.667314 0.07614,-0.74569 q 0.01792,-0.07838 0.07166,-0.12764 q 0.05598,-0.04926 0.172427,-0.04926 q 0.0739,0 0.132119,0.0627 q 0.05822,0.0627 0.05822,0.136598 q 0,0.09629 -0.04031,0.313502 q -0.05822,0.297828 -0.170187,1.209226 q -0.109726,0.911398 -0.109726,1.03232 q 0,0.07838 0.02239,0.107487 q 0.02463,0.02687 0.08957,0.02687 q 0.105248,0 0.497126,-0.06494 q 0.241846,-0.03807 0.913638,-0.0739 q 0.120922,-0.0045 0.297827,-0.0515 q 0.03359,-0.009 0.04927,-0.009 q 0.08509,0 0.134359,0.05598 q 0.04926,0.05598 0.04926,0.134359 q 0,0.12764 -0.09853,0.203777 q -0.09853,0.0739 -0.219452,0.0739 q -0.04703,0 -0.185863,-0.01344 q -0.141076,-0.0112 -0.210495,-0.0112 q -0.730014,0 -1.408523,0.22841 q -0.114205,0.03807 -0.206017,0.03807 q -0.100768,0 -0.156751,-0.08733 q -0.05374,-0.08733 -0.05374,-0.170187 q 0,-0.04926 0.04255,-0.214974 q 0.04703,-0.19482 0.05822,-0.28887 z"
 id="path970" />
</g>
<g
 aria-label="hL"
 id="text167"
 style="font-size:4.5861px;line-height:1.2;font-family:'Segoe Print QD';-inkscape-font-specification:'Segoe Print QD';letter-spacing:0.264583px;word-spacing:0.529167px;text-anchor:middle;overflow:visible;fill:#ff0000;stroke-width:0.264583px;stop-color:#000000">
<path
 d="m 72.52186,35.828208 q 0.833022,-1.538404 1.372695,-1.538404 q 0.143316,0 0.232888,0.16347 q 0.08957,0.163469 0.145555,0.725535 q 0.05598,0.597895 0.253042,0.864372 q 0.100768,0.136598 0.100768,0.201538 q 0,0.05822 -0.06718,0.107487 q -0.06718,0.04926 -0.143315,0.04926 q -0.174666,0 -0.309025,-0.19482 q -0.134358,-0.197059 -0.172426,-0.689707 q -0.03807,-0.465775 -0.08062,-0.609091 q -0.04255,-0.143316 -0.141077,-0.143316 q -0.235127,0 -0.947226,1.22938 q -0.212735,0.367246 -0.313503,0.481451 q -0.100769,0.111965 -0.183624,0.111965 q -0.09853,0 -0.165708,-0.05822 q -0.06718,-0.05822 -0.06718,-0.143316 q 0,-0.0627 0.03583,-0.241845 q 0.275435,-1.42196 0.434426,-2.812569 q 0.03583,-0.324699 0.114205,-0.432186 q 0.08061,-0.107487 0.134358,-0.107487 q 0.09629,0 0.174666,0.07838 q 0.07838,0.07838 0.07838,0.217213 q 0,0.412032 -0.201538,1.130849 q -0.09853,0.35605 -0.208255,0.90468 q -0.109726,0.548631 -0.109726,0.67851 q 0,0.02687 0.02463,0.02687 z"
 id="path973" />
<path
 d="m 75.417628,35.868516 q 0,-0.04479 0.06718,-0.546391 q 0.06718,-0.503844 0.12764,-1.168918 q 0.06046,-0.667314 0.07614,-0.74569 q 0.01791,-0.07838 0.07166,-0.12764 q 0.05598,-0.04926 0.172427,-0.04926 q 0.0739,0 0.132119,0.0627 q 0.05822,0.0627 0.05822,0.136598 q 0,0.09629 -0.04031,0.313502 q -0.05822,0.297828 -0.170187,1.209226 q -0.109726,0.911398 -0.109726,1.03232 q 0,0.07838 0.02239,0.107487 q 0.02463,0.02687 0.08957,0.02687 q 0.105248,0 0.497127,-0.06494 q 0.241845,-0.03807 0.913637,-0.0739 q 0.120922,-0.0045 0.297827,-0.0515 q 0.03359,-0.009 0.04927,-0.009 q 0.08509,0 0.134359,0.05598 q 0.04926,0.05598 0.04926,0.134359 q 0,0.12764 -0.09853,0.203777 q -0.09853,0.0739 -0.219452,0.0739 q -0.04703,0 -0.185863,-0.01344 q -0.141076,-0.0112 -0.210494,-0.0112 q -0.730014,0 -1.408524,0.22841 q -0.114205,0.03807 -0.206017,0.03807 q -0.100768,0 -0.156751,-0.08733 q -0.05374,-0.08733 -0.05374,-0.170187 q 0,-0.04926 0.04255,-0.214974 q 0.04703,-0.19482 0.05822,-0.28887 z"
 id="path975" />
</g>
<g
 aria-label="kL"
 id="text171"
 style="font-size:4.5861px;line-height:1.2;font-family:'Segoe Print QD';-inkscape-font-specification:'Segoe Print QD';letter-spacing:0.264583px;word-spacing:0.529167px;text-anchor:middle;overflow:visible;fill:#ff0000;stroke-width:0.264583px;stop-color:#000000">
<path
 d="m 62.668535,35.454244 q 0.02911,-0.03807 0.400836,-0.360529 q 0.351571,-0.306785 0.490408,-0.445622 q 0.51728,-0.517279 0.74345,-0.517279 q 0.174666,0 0.174666,0.167948 q 0,0.190341 -0.172427,0.279913 q -0.223931,0.114205 -0.597895,0.380682 q -0.373964,0.264238 -0.373964,0.373964 q 0,0.04479 0.264238,0.335896 q 0.264238,0.288871 0.456819,0.427708 q 0.19258,0.136598 0.373964,0.136598 l 0.0739,-0.0022 q 0.07838,-0.0045 0.07838,0.06942 q 0,0.09853 -0.123162,0.199298 q -0.123162,0.103008 -0.3247,0.103008 q -0.129879,0 -0.264238,-0.09181 q -0.132119,-0.08957 -0.472494,-0.488169 Q 63.125353,35.69385 63.058174,35.631149 q -0.06718,-0.06494 -0.111965,-0.06494 q -0.02463,0 -0.156752,0.116444 q -0.132119,0.116444 -0.145555,0.176905 q -0.0112,0.06046 -0.0112,0.461297 v 0.105248 q 0,0.08285 -0.07838,0.147794 q -0.07838,0.06494 -0.170187,0.06494 q -0.09405,0 -0.147794,-0.05598 q -0.05374,-0.05374 -0.05374,-0.111965 q 0,-0.08062 0.06046,-0.380682 q 0.08509,-0.432186 0.156752,-1.157722 q 0.165709,-1.713069 0.255281,-1.937 q 0.08957,-0.22617 0.255281,-0.22617 q 0.05822,0 0.09629,0.0627 q 0.04031,0.0627 0.04031,0.16123 q 0,0.179144 -0.154513,0.951705 q -0.154512,0.7748 -0.22393,1.509293 z"
 id="path978" />
<path
 d="m 65.338133,35.868516 q 0,-0.04479 0.06718,-0.546391 q 0.06718,-0.503844 0.127641,-1.168918 q 0.06046,-0.667314 0.07614,-0.74569 q 0.01791,-0.07838 0.07166,-0.12764 q 0.05598,-0.04926 0.172426,-0.04926 q 0.0739,0 0.13212,0.0627 q 0.05822,0.0627 0.05822,0.136598 q 0,0.09629 -0.04031,0.313502 q -0.05822,0.297828 -0.170187,1.209226 q -0.109726,0.911398 -0.109726,1.03232 q 0,0.07838 0.02239,0.107487 q 0.02463,0.02687 0.08957,0.02687 q 0.105247,0 0.497126,-0.06494 q 0.241845,-0.03807 0.913637,-0.0739 q 0.120923,-0.0045 0.297828,-0.0515 q 0.03359,-0.009 0.04926,-0.009 q 0.08509,0 0.134358,0.05598 q 0.04926,0.05598 0.04926,0.134359 q 0,0.12764 -0.09853,0.203777 q -0.09853,0.0739 -0.219452,0.0739 q -0.04702,0 -0.185862,-0.01344 q -0.141076,-0.0112 -0.210495,-0.0112 q -0.730014,0 -1.408524,0.22841 q -0.114204,0.03807 -0.206016,0.03807 q -0.100769,0 -0.156752,-0.08733 q -0.05374,-0.08733 -0.05374,-0.170187 q 0,-0.04926 0.04255,-0.214974 q 0.04703,-0.19482 0.05822,-0.28887 z"
 id="path980" />
</g>
<path
 style="font-variation-settings:normal;opacity:1;vector-effect:none;fill:none;fill-opacity:1;fill-rule:evenodd;stroke:#000000;stroke-width:0.3;stroke-linecap:butt;stroke-linejoin:miter;stroke-miterlimit:4;stroke-dasharray:none;stroke-dashoffset:0;stroke-opacity:1;-inkscape-stroke:none;stop-color:#000000;stop-opacity:1"
 d="M 130,30 V 50"
 id="path337" />
<path
 style="font-variation-settings:normal;opacity:1;vector-effect:none;fill:none;fill-opacity:1;fill-rule:evenodd;stroke:#000000;stroke-width:0.3;stroke-linecap:butt;stroke-linejoin:miter;stroke-miterlimit:4;stroke-dasharray:none;stroke-dashoffset:0;stroke-opacity:1;-inkscape-stroke:none;stop-color:#000000;stop-opacity:1"
 d="M 120,30 V 50"
 id="path447" />
<path
 style="font-variation-settings:normal;opacity:1;vector-effect:none;fill:none;fill-opacity:1;fill-rule:evenodd;stroke:#000000;stroke-width:0.3;stroke-linecap:butt;stroke-linejoin:miter;stroke-miterlimit:4;stroke-dasharray:none;stroke-dashoffset:0;stroke-opacity:1;-inkscape-stroke:none;stop-color:#000000;stop-opacity:1"
 d="M 110,30 V 50"
 id="path449" />
<path
 style="font-variation-settings:normal;opacity:1;vector-effect:none;fill:none;fill-opacity:1;fill-rule:evenodd;stroke:#000000;stroke-width:0.3;stroke-linecap:butt;stroke-linejoin:miter;stroke-miterlimit:4;stroke-dasharray:none;stroke-dashoffset:0;stroke-opacity:1;-inkscape-stroke:none;stop-color:#000000;stop-opacity:1"
 d="M 100,30 V 50"
 id="path451" />
<path
 style="font-variation-settings:normal;opacity:1;vector-effect:none;fill:none;fill-opacity:1;fill-rule:evenodd;stroke:#000000;stroke-width:0.3;stroke-linecap:butt;stroke-linejoin:miter;stroke-miterlimit:4;stroke-dasharray:none;stroke-dashoffset:0;stroke-opacity:1;-inkscape-stroke:none;stop-color:#000000;stop-opacity:1"
 d="M 90,30 V 50"
 id="path453" />
<path
 style="font-variation-settings:normal;opacity:1;vector-effect:none;fill:none;fill-opacity:1;fill-rule:evenodd;stroke:#000000;stroke-width:0.3;stroke-linecap:butt;stroke-linejoin:miter;stroke-miterlimit:4;stroke-dasharray:none;stroke-dashoffset:0;stroke-opacity:1;-inkscape-stroke:none;stop-color:#000000;stop-opacity:1"
 d="M 80,30 V 50"
 id="path455" />
<path
 style="font-variation-settings:normal;opacity:1;vector-effect:none;fill:none;fill-opacity:1;fill-rule:evenodd;stroke:#000000;stroke-width:0.3;stroke-linecap:butt;stroke-linejoin:miter;stroke-miterlimit:4;stroke-dasharray:none;stroke-dashoffset:0;stroke-opacity:1;-inkscape-stroke:none;stop-color:#000000;stop-opacity:1"
 d="M 70,30 V 50"
 id="path457" />
<path
 style="font-variation-settings:normal;opacity:1;vector-effect:none;fill:none;fill-opacity:1;fill-rule:evenodd;stroke:#000000;stroke-width:0.3;stroke-linecap:butt;stroke-linejoin:miter;stroke-miterlimit:4;stroke-dasharray:none;stroke-dashoffset:0;stroke-opacity:1;-inkscape-stroke:none;stop-color:#000000;stop-opacity:1"
 d="M 60,30 V 50"
 id="path459" />
<path
 style="font-variation-settings:normal;opacity:1;vector-effect:none;fill:none;fill-opacity:1;fill-rule:evenodd;stroke:#000000;stroke-width:0.3;stroke-linecap:butt;stroke-linejoin:miter;stroke-miterlimit:4;stroke-dasharray:none;stroke-dashoffset:0;stroke-opacity:1;-inkscape-stroke:none;stop-color:#000000;stop-opacity:1"
 d="M 59.999998,30 H 130"
 id="path461" />
<path
 style="font-variation-settings:normal;opacity:1;vector-effect:none;fill:none;fill-opacity:1;fill-rule:evenodd;stroke:#000000;stroke-width:0.3;stroke-linecap:butt;stroke-linejoin:miter;stroke-miterlimit:4;stroke-dasharray:none;stroke-dashoffset:0;stroke-opacity:1;-inkscape-stroke:none;stop-color:#000000;stop-opacity:1"
 d="M 59.999998,40 H 130"
 id="path463" />
</g>
</svg>
