<?xml version="1.0" encoding="UTF-8" standalone="no"?>
<svg
 width="5.6198997cm"
 height="4.0398002cm"
 version="1.1"
 viewBox="0 0 56.198997 40.398001"
 id="svg65"
 sodipodi:docname="6pre20230117-x.svg"
 inkscape:version="1.2.2 (1:1.2.2+202212051551+b0a8486541)"
 xmlns:inkscape="http://www.inkscape.org/namespaces/inkscape"
 xmlns:sodipodi="http://sodipodi.sourceforge.net/DTD/sodipodi-0.dtd"
 xmlns="http://www.w3.org/2000/svg"
 xmlns:svg="http://www.w3.org/2000/svg"
 xmlns:rdf="http://www.w3.org/1999/02/22-rdf-syntax-ns#"
 xmlns:cc="http://creativecommons.org/ns#"
 xmlns:dc="http://purl.org/dc/elements/1.1/">
<defs
 id="defs69" />
<sodipodi:namedview
 id="namedview67"
 pagecolor="#ffffff"
 bordercolor="#666666"
 borderopacity="1.0"
 inkscape:showpageshadow="2"
 inkscape:pageopacity="0.0"
 inkscape:pagecheckerboard="0"
 inkscape:deskcolor="#d1d1d1"
 inkscape:document-units="cm"
 showgrid="false"
 inkscape:zoom="2.2092705"
 inkscape:cx="301.23066"
 inkscape:cy="186.26058"
 inkscape:current-layer="svg65" />
<title
 id="title2"> Page réglure Séyès </title>
<desc
 id="desc4"> Page blanche A5 avec réglure Séyès </desc>
<path
 id="line17"
 style="stroke:#c8c8de;stroke-width:0.398"
 d="m 0.0995,0.199 h 56"
 sodipodi:nodetypes="cc" />
<path
 id="line726"
 style="stroke:#c8c8de;stroke-width:0.199"
 d="m 0.0995,2.199 h 56"
 sodipodi:nodetypes="cc" />
<path
 id="line1289"
 style="stroke:#c8c8de;stroke-width:0.199"
 d="m 0.0995,4.199 h 56"
 sodipodi:nodetypes="cc" />
<path
 id="line1293"
 style="stroke:#c8c8de;stroke-width:0.199"
 d="m 0.0995,6.199 h 56"
 sodipodi:nodetypes="cc" />
<path
 id="line736"
 style="stroke:#c8c8de;stroke-width:0.398"
 d="m 0.0995,8.199 h 56"
 sodipodi:nodetypes="cc" />
<path
 id="line501"
 style="stroke:#c8c8de;stroke-width:0.199"
 d="m 0.0995,10.199 h 56"
 sodipodi:nodetypes="cc" />
<path
 id="line1249"
 style="stroke:#c8c8de;stroke-width:0.199"
 d="m 0.0995,12.199 h 56"
 sodipodi:nodetypes="cc" />
<path
 id="line1253"
 style="stroke:#c8c8de;stroke-width:0.199"
 d="m 0.0995,14.199 h 56"
 sodipodi:nodetypes="cc" />
<path
 id="line511"
 style="stroke:#c8c8de;stroke-width:0.398"
 d="m 0.0995,16.199 h 56"
 sodipodi:nodetypes="cc" />
<path
 id="line680"
 style="stroke:#c8c8de;stroke-width:0.199"
 d="m 0.0995,18.199 h 56"
 sodipodi:nodetypes="cc" />
<path
 id="line1209"
 style="stroke:#c8c8de;stroke-width:0.199"
 d="m 0.0995,20.199 h 56"
 sodipodi:nodetypes="cc" />
<path
 id="line1213"
 style="stroke:#c8c8de;stroke-width:0.199"
 d="m 0.0995,22.199 h 56"
 sodipodi:nodetypes="cc" />
<path
 id="line690"
 style="stroke:#c8c8de;stroke-width:0.398"
 d="m 0.0995,24.199 h 56"
 sodipodi:nodetypes="cc" />
<path
 id="line360"
 style="stroke:#c8c8de;stroke-width:0.199"
 d="m 0.0995,26.199 h 56"
 sodipodi:nodetypes="cc" />
<path
 id="line1241"
 style="stroke:#c8c8de;stroke-width:0.199"
 d="m 0.0995,28.199 h 56"
 sodipodi:nodetypes="cc" />
<path
 id="line1245"
 style="stroke:#c8c8de;stroke-width:0.199"
 d="m 0.0995,30.199 h 56"
 sodipodi:nodetypes="cc" />
<path
 id="line370"
 style="stroke:#c8c8de;stroke-width:0.398"
 d="m 0.0995,32.199 h 56"
 sodipodi:nodetypes="cc" />
<path
 id="line754"
 style="stroke:#c8c8de;stroke-width:0.199"
 d="m 0.0995,34.199 h 56"
 sodipodi:nodetypes="cc" />
<path
 id="line1313"
 style="stroke:#c8c8de;stroke-width:0.199"
 d="m 0.0995,36.199 h 56"
 sodipodi:nodetypes="cc" />
<path
 id="line1317"
 style="stroke:#c8c8de;stroke-width:0.199"
 d="m 0.0995,38.199 h 56"
 sodipodi:nodetypes="cc" />
<path
 id="line764"
 style="stroke:#c8c8de;stroke-width:0.398"
 d="m 0.0995,40.199 h 56"
 sodipodi:nodetypes="cc" />
<path
 id="line832"
 style="stroke:#c8c8de;stroke-width:0.199"
 d="m 0.0995,0.199 v 40"
 sodipodi:nodetypes="cc" />
<path
 id="line519"
 style="stroke:#c8c8de;stroke-width:0.199"
 d="m 8.0995,0.199 v 40"
 sodipodi:nodetypes="cc" />
<path
 id="line694"
 style="stroke:#c8c8de;stroke-width:0.199"
 d="m 16.0995,0.199 v 40"
 sodipodi:nodetypes="cc" />
<path
 id="line382"
 style="stroke:#c8c8de;stroke-width:0.199"
 d="m 24.0995,0.199 v 40"
 sodipodi:nodetypes="cc" />
<path
 id="line840"
 style="stroke:#c8c8de;stroke-width:0.199"
 d="m 32.0995,0.199 v 40"
 sodipodi:nodetypes="cc" />
<path
 id="line493"
 style="stroke:#c8c8de;stroke-width:0.199"
 d="m 40.0995,0.199 v 40"
 sodipodi:nodetypes="cc" />
<path
 id="line836"
 style="stroke:#c8c8de;stroke-width:0.199"
 d="m 48.0995,0.199 v 40"
 sodipodi:nodetypes="cc" />
<path
 id="line304"
 style="stroke:#c8c8de;stroke-width:0.199"
 d="m 56.0995,0.199 v 40"
 sodipodi:nodetypes="cc" />
<g
 id="g778"
 transform="translate(-51.9005,-25.801)">
<g
 aria-label="5"
 id="text270"
 style="font-size:5.64444px;line-height:7.50001px;font-family:'Segoe Print QD';-inkscape-font-specification:'Segoe Print QD';text-align:center;letter-spacing:0.264583px;word-spacing:0.529167px;text-anchor:middle;overflow:visible;fill:#0000ff;stroke-width:0.3;stroke-miterlimit:10;stop-color:#000000">
<path
 d="m 55.564539,28.962806 q -0.157096,0.148828 -0.37207,0.468533 q -0.05788,0.08544 -0.09371,0.135047 q -0.03859,0.05237 -0.05237,0.07441 q 0.15434,0.09371 0.598068,0.157097 q 0.567752,0.08268 0.843359,0.187413 q 0.278363,0.104731 0.399631,0.305924 q 0.124023,0.198437 0.124023,0.542947 q 0,0.214973 -0.198437,0.482313 q -0.198438,0.267339 -0.661458,0.507117 q -0.463021,0.239779 -1.02526,0.239779 q -0.460264,0 -0.790993,-0.181901 q -0.327973,-0.181901 -0.327973,-0.305924 q 0,-0.264584 0.333485,-0.264584 q 0.07441,0 0.159852,0.0689 q 0.305925,0.214974 0.702799,0.214974 q 0.42168,0 0.865408,-0.250803 q 0.446484,-0.250802 0.446484,-0.479557 q 0,-0.292143 -0.21773,-0.446484 q -0.214974,-0.157096 -0.672482,-0.206705 l -0.622873,-0.0689 q -0.261827,-0.03307 -0.405143,-0.135048 q -0.143316,-0.104731 -0.143316,-0.192925 q 0,-0.09371 0.101975,-0.212218 q 0.02205,-0.03032 0.239778,-0.347265 q 0.44924,-0.669726 0.564996,-0.705555 q 0.118511,-0.03859 1.48828,-0.08268 q 0.242534,-0.0055 0.501605,-0.07993 q 0.20395,-0.05512 0.253559,-0.05512 q 0.170877,0 0.297656,0.101975 q 0.09095,0.04685 0.09095,0.101975 q 0,0.07993 -0.101975,0.201193 q -0.101975,0.121267 -0.2949,0.148828 q -0.190169,0.02756 -0.476801,0.02756 l -0.920529,-0.02756 q -0.405143,0 -0.633897,0.07717 z"
 id="path951" />
</g>
<g
 aria-label="3"
 id="text380"
 style="font-size:5.64444px;line-height:7.50001px;font-family:'Segoe Print QD';-inkscape-font-specification:'Segoe Print QD';text-align:center;letter-spacing:0.264583px;word-spacing:0.529167px;text-anchor:middle;overflow:visible;fill:#0000ff;stroke-width:0.3;stroke-miterlimit:10;stop-color:#000000">
<path
 d="m 63.273774,30.313283 q -0.201193,0 -0.201193,-0.118512 q 0,-0.06614 0.03858,-0.146072 q 0.03859,-0.08268 0.223242,-0.242534 l 0.490581,-0.418923 q 0.303168,-0.259071 0.664214,-0.515386 q -0.151584,-0.02481 -0.810286,0.05512 q -0.509874,0.06339 -0.713823,0.06339 q -0.474045,0 -0.474045,-0.432704 q 0,-0.08544 0.05512,-0.148828 q 0.05788,-0.06615 0.14056,-0.06615 q 0.06063,0 0.148828,0.06339 q 0.110243,0.07717 0.170877,0.09922 q 0.06339,0.02205 0.184657,0.02205 q 0.195681,0 0.716579,-0.04961 q 0.686263,-0.07993 1.094162,-0.07993 q 0.338997,0 0.338997,0.220486 q 0,0.157096 -0.14056,0.267339 q -0.137804,0.110243 -0.402387,0.267339 q -0.350021,0.209462 -0.490581,0.314193 q -0.137804,0.101974 -0.275608,0.270095 q 0.303169,-0.02205 0.457509,-0.02205 q 0.333485,0 0.573263,0.08544 q 0.239779,0.08268 0.35829,0.21773 q 0.121267,0.135047 0.184657,0.217729 q 0.06339,0.08268 0.06339,0.297656 q 0,0.184657 -0.270096,0.598069 q -0.270095,0.410655 -0.892968,0.653189 q -0.622873,0.242535 -1.215429,0.242535 q -0.170876,0 -0.493337,-0.04134 q -0.319705,-0.0441 -0.394119,-0.157097 q -0.07166,-0.112999 -0.07166,-0.228754 q 0,-0.289388 0.272851,-0.289388 q 0.01102,0 0.04134,0.01378 l 0.190169,0.07993 q 0.314193,0.143316 0.573264,0.143316 q 0.225998,0 0.689018,-0.08819 q 0.463021,-0.09095 0.777213,-0.383094 q 0.314193,-0.2949 0.314193,-0.471289 q 0,-0.300412 -0.316949,-0.396874 q -0.314192,-0.09922 -0.700043,-0.09922 q -0.537434,0 -0.89848,0.20395 z"
 id="path954" />
</g>
<g
 aria-label="6"
 id="text384"
 style="font-size:5.64444px;line-height:7.50001px;font-family:'Segoe Print QD';-inkscape-font-specification:'Segoe Print QD';text-align:center;letter-spacing:0.264583px;word-spacing:0.529167px;text-anchor:middle;overflow:visible;fill:#0000ff;stroke-width:0.3;stroke-miterlimit:10;stop-color:#000000">
<path
 d="m 72.52779,28.753344 q -0.09646,0 -0.135047,0.02481 q -0.361046,0.101975 -0.774457,0.620117 q -0.07441,0.09922 -0.256315,0.275607 q -0.198437,0.190169 -0.300412,0.338997 q -0.09922,0.146072 -0.190169,0.410655 q -0.08819,0.264584 -0.08819,0.493338 q 0,0.14056 0.05788,0.259071 q 0.05788,0.118511 0.355534,0.305924 q -0.05512,-0.432704 0.151584,-0.810286 q 0.206705,-0.380338 0.520898,-0.545703 q 0.314192,-0.16812 0.972894,-0.16812 q 0.316948,0 0.570507,0.220486 q 0.256315,0.21773 0.256315,0.523654 q 0,0.201193 -0.165364,0.421679 q -0.165365,0.220486 -0.542947,0.460265 q -0.377582,0.239778 -0.600824,0.325217 q -0.220486,0.08544 -0.80753,0.08544 q -0.305924,0 -0.545703,-0.104731 q -0.237022,-0.104731 -0.457508,-0.363802 q -0.21773,-0.259071 -0.21773,-0.471288 q 0,-0.474045 0.12678,-0.763433 q 0.126779,-0.292144 0.355533,-0.611849 q 0.23151,-0.32246 0.443728,-0.518142 q 0.07166,-0.06614 0.23151,-0.239778 q 0.300412,-0.330729 0.501606,-0.468533 q 0.203949,-0.137803 0.391362,-0.137803 q 0.09371,0 0.176389,0.06615 q 0.08268,0.06339 0.08268,0.159853 q 0,0.190169 -0.112999,0.212217 z m 0.763433,1.835546 q -0.311436,-0.225998 -0.724848,-0.225998 q -0.981162,0 -1.044552,1.157551 q 0.09095,0.02756 0.245291,0.02756 l 0.270095,-0.01102 q 0.270095,0 0.760677,-0.338998 q 0.493337,-0.338997 0.493337,-0.609092 z"
 id="path957" />
</g>
<g
 aria-label="1"
 id="text388"
 style="font-size:5.64444px;line-height:7.50001px;font-family:'Segoe Print QD';-inkscape-font-specification:'Segoe Print QD';text-align:center;letter-spacing:0.264583px;word-spacing:0.529167px;text-anchor:middle;overflow:visible;fill:#0000ff;stroke-width:0.3;stroke-miterlimit:10;stop-color:#000000">
<path
 d="m 80.264586,30.109333 q 0,0 0.157097,-1.163063 q -0.159853,0 -0.443728,0.192925 q -0.504362,0.330729 -0.887456,0.330729 q -0.124024,0 -0.124024,-0.173633 q 0,-0.110243 0.04134,-0.146072 q 0.0441,-0.03583 0.385851,-0.181901 Q 79.73542,28.81949 80.253562,28.51081 q 0.518142,-0.30868 0.564995,-0.30868 q 0.08819,0 0.151584,0.121267 q 0.06339,0.121267 0.06339,0.212218 q 0,0.07717 -0.07993,0.157096 q -0.270095,1.1796 -0.314193,1.807985 q -0.0441,0.625628 -0.01378,0.730359 l 0.0689,0.418924 l 0.01102,0.162608 Q 80.705558,32 80.391366,32 q -0.311437,0 -0.253559,-0.5898 q 0.118511,-1.204404 0.126779,-1.300867 z"
 id="path960" />
</g>
<g
 aria-label="1"
 id="text392"
 style="font-size:5.64444px;line-height:7.50001px;font-family:'Segoe Print QD';-inkscape-font-specification:'Segoe Print QD';text-align:center;letter-spacing:0.264583px;word-spacing:0.529167px;text-anchor:middle;overflow:visible;fill:#0000ff;stroke-width:0.3;stroke-miterlimit:10;stop-color:#000000">
<path
 d="m 88.264586,30.109333 q 0,0 0.157097,-1.163063 q -0.159853,0 -0.443728,0.192925 q -0.504362,0.330729 -0.887456,0.330729 q -0.124024,0 -0.124024,-0.173633 q 0,-0.110243 0.04134,-0.146072 q 0.0441,-0.03583 0.385851,-0.181901 Q 87.73542,28.81949 88.253562,28.51081 q 0.518142,-0.30868 0.564995,-0.30868 q 0.08819,0 0.151584,0.121267 q 0.06339,0.121267 0.06339,0.212218 q 0,0.07717 -0.07993,0.157096 q -0.270095,1.1796 -0.314193,1.807985 q -0.0441,0.625628 -0.01378,0.730359 l 0.0689,0.418924 l 0.01102,0.162608 Q 88.705558,32 88.391366,32 q -0.311437,0 -0.253559,-0.5898 q 0.118511,-1.204404 0.126779,-1.300867 z"
 id="path963" />
</g>
<g
 aria-label="2"
 id="text396"
 style="font-size:5.64444px;line-height:7.50001px;font-family:'Segoe Print QD';-inkscape-font-specification:'Segoe Print QD';text-align:center;letter-spacing:0.264583px;word-spacing:0.529167px;text-anchor:middle;overflow:visible;fill:#0000ff;stroke-width:0.3;stroke-miterlimit:10;stop-color:#000000">
<path
 d="m 95.497016,31.299957 q 0.143316,-0.01102 0.43546,-0.01102 q 0.361046,0 1.198893,0.05236 q 0.228754,0.01103 0.292143,0.0083 q 0.06615,-0.0028 0.170877,-0.0441 q 0.112999,-0.0441 0.170877,-0.0441 q 0.04685,0 0.107487,0.07166 q 0.06339,0.0689 0.06339,0.118511 q 0,0.179145 -0.187413,0.28112 q -0.187413,0.09922 -0.333485,0.09922 h -0.101975 q -0.264583,0 -0.388606,-0.03583 q -0.383094,-0.101975 -0.953602,-0.101975 q -0.487825,0 -0.857139,0.118511 q -0.369314,0.118511 -0.479557,0.250803 q -0.124023,0.148828 -0.187413,0.184657 q -0.06063,0.03858 -0.16812,0.03858 q -0.214974,0 -0.214974,-0.190169 q 0,-0.289388 0.237022,-0.509874 q 0.237023,-0.223242 0.796506,-0.507118 q 0.327973,-0.162608 0.39963,-0.223242 q 0.07166,-0.06063 0.394119,-0.355533 q 0.325217,-0.2949 0.493337,-0.507118 q 0.168121,-0.212218 0.239779,-0.377582 q 0.07441,-0.168121 0.07441,-0.308681 q 0,-0.192925 -0.228754,-0.391362 q -0.228754,-0.201194 -0.424436,-0.201194 q -0.16812,0 -0.507117,0.212218 q -0.338998,0.209462 -0.504362,0.405143 q -0.107487,0.126779 -0.327973,0.126779 q -0.05237,0 -0.112999,-0.118511 q -0.06063,-0.118511 -0.06063,-0.190169 q 0,-0.05236 0.01378,-0.07166 q 0.01378,-0.01929 0.275607,-0.206705 q 0.264583,-0.187413 0.474045,-0.322461 q 0.212218,-0.137804 0.424436,-0.209462 q 0.212217,-0.07166 0.545702,-0.07166 q 0.283876,0 0.531923,0.237023 q 0.250802,0.234266 0.37207,0.46302 q 0.121267,0.225998 0.121267,0.259071 q 0,0.377582 -0.564995,1.044552 q -0.56224,0.66697 -1.22921,1.028016 z"
 id="path966" />
</g>
<g
 aria-label="9"
 id="text404"
 style="font-size:5.64444px;line-height:7.50001px;font-family:'Segoe Print QD';-inkscape-font-specification:'Segoe Print QD';text-align:center;letter-spacing:0.264583px;word-spacing:0.529167px;text-anchor:middle;overflow:visible;fill:#0000ff;stroke-width:0.3;stroke-miterlimit:10;stop-color:#000000">
<path
 d="m 65.486902,52.962806 q 0,0.08268 -0.06615,0.237023 q -0.250803,0.611848 -0.457509,1.367012 q -0.203949,0.752409 -0.203949,1.003211 q 0,0.413412 -0.187413,0.413412 q -0.168121,0 -0.23151,-0.154341 q -0.06063,-0.157096 -0.06063,-0.275607 q 0,-0.15434 0.2949,-1.152039 l 0.05512,-0.190169 l -0.04961,-0.03583 q -0.471289,0.278363 -0.713823,0.358289 q -0.239779,0.07717 -0.60358,0.07717 q -0.168121,0 -0.394119,-0.250803 q -0.225998,-0.253559 -0.225998,-0.42168 q 0,-0.173632 0.05237,-0.327972 q 0.05237,-0.154341 0.179145,-0.325217 q 0.12678,-0.173633 0.42168,-0.413411 q 0.294899,-0.239779 0.440971,-0.311437 q 0.148828,-0.07166 0.440972,-0.146072 q 0.292144,-0.07717 0.451996,-0.07717 q 0.148829,0 0.26734,0.05237 q 0.121267,0.04961 0.2949,0.212217 q 0.173632,0.159853 0.212217,0.176389 q 0.04134,0.01654 0.08268,0.184657 z m -0.479557,0.05788 Q 64.927419,52.783661 64.5333,52.783661 q -0.570507,0 -1.000455,0.407899 q -0.427192,0.407899 -0.427192,0.658702 q 0,0.181901 0.115756,0.28112 q 0.118511,0.09646 0.303168,0.09646 q 0.192925,0 0.460264,-0.121267 q 0.270095,-0.121267 0.485069,-0.256315 q 0.214974,-0.137804 0.272852,-0.203949 q 0.05788,-0.06615 0.110243,-0.220486 q 0.10473,-0.322461 0.15434,-0.405143 z"
 id="path969" />
</g>
<g
 aria-label="5"
 id="text408"
 style="font-size:5.64444px;line-height:7.50001px;font-family:'Segoe Print QD';-inkscape-font-specification:'Segoe Print QD';text-align:center;letter-spacing:0.264583px;word-spacing:0.529167px;text-anchor:middle;overflow:visible;fill:#0000ff;stroke-width:0.3;stroke-miterlimit:10;stop-color:#000000">
<path
 d="m 71.830504,52.962806 q -0.157097,0.148828 -0.37207,0.468533 q -0.05788,0.08544 -0.09371,0.135047 q -0.03858,0.05237 -0.05237,0.07441 q 0.15434,0.09371 0.598068,0.157097 q 0.567751,0.08268 0.843358,0.187413 q 0.278364,0.104731 0.399631,0.305924 q 0.124024,0.198437 0.124024,0.542947 q 0,0.214973 -0.198438,0.482313 q -0.198437,0.267339 -0.661458,0.507117 q -0.46302,0.239779 -1.025259,0.239779 q -0.460265,0 -0.790994,-0.181901 q -0.327972,-0.181901 -0.327972,-0.305924 q 0,-0.264584 0.333485,-0.264584 q 0.07441,0 0.159852,0.0689 q 0.305924,0.214974 0.702799,0.214974 q 0.421679,0 0.865407,-0.250803 q 0.446484,-0.250802 0.446484,-0.479557 q 0,-0.292143 -0.21773,-0.446484 q -0.214973,-0.157096 -0.672482,-0.206705 l -0.622873,-0.0689 q -0.261827,-0.03307 -0.405142,-0.135048 q -0.143316,-0.104731 -0.143316,-0.192925 q 0,-0.09371 0.101974,-0.212218 q 0.02205,-0.03032 0.239779,-0.347265 q 0.44924,-0.669726 0.564995,-0.705555 q 0.118511,-0.03858 1.48828,-0.08268 q 0.242535,-0.0055 0.501606,-0.07993 q 0.203949,-0.05512 0.253559,-0.05512 q 0.170876,0 0.297656,0.101975 q 0.09095,0.04685 0.09095,0.101975 q 0,0.07993 -0.101975,0.201193 q -0.101974,0.121267 -0.2949,0.148828 q -0.190169,0.02756 -0.4768,0.02756 l -0.920529,-0.02756 q -0.405143,0 -0.633897,0.07717 z"
 id="path972" />
</g>
<g
 aria-label="4"
 id="text412"
 style="font-size:5.64444px;line-height:7.50001px;font-family:'Segoe Print QD';-inkscape-font-specification:'Segoe Print QD';text-align:center;letter-spacing:0.264583px;word-spacing:0.529167px;text-anchor:middle;overflow:visible;fill:#0000ff;stroke-width:0.3;stroke-miterlimit:10;stop-color:#000000">
<path
 d="m 81.989889,54.67984 q -0.380338,-0.137803 -0.915017,-0.107486 q -0.09095,0.314192 -0.09095,0.587043 l 0.0028,0.124024 v 0.112999 l 0.0028,0.124023 q 0.0028,0.107487 0,0.146072 q -0.0028,0.03583 0.07166,0.126779 q 0.07166,0.08819 0.07166,0.121268 q 0,0.08268 -0.09095,0.181901 q -0.08819,0.101974 -0.170876,0.101974 q -0.21773,0 -0.289388,-0.101974 q -0.07166,-0.09922 -0.07166,-0.300412 q 0,-0.107487 0.02205,-0.338998 q 0.01929,-0.223242 0.0248,-0.336241 q 0.01103,-0.267339 0.06615,-0.515386 q -0.06615,-0.01102 -0.195681,-0.01102 q -0.587044,0 -0.950846,0.09646 q -0.396875,0.107487 -0.716579,0.107487 q -0.132292,0 -0.297656,-0.187413 q 0.124023,-0.341754 1.34772,-1.309136 q 0.391363,-0.305924 0.633897,-0.52641 q 0.253559,-0.234266 0.564995,-0.465776 q 0.311437,-0.231511 0.366558,-0.231511 q 0.223242,0 0.223242,0.112999 q -0.01929,0.07993 -0.157096,0.573264 q -0.239778,0.939821 -0.303168,1.372525 q 0.179145,0.0689 0.650433,0.0689 h 0.19017 q 0.157096,0 0.228754,0.06614 q 0.07441,0.06339 0.07441,0.272852 q 0,0.06339 -0.04961,0.112999 q -0.04961,0.04961 -0.112999,0.04961 q -0.07717,0 -0.129535,-0.02756 z m -1.000455,-1.846569 q -0.101975,0.101974 -0.468533,0.391362 q -0.305924,0.242535 -0.432703,0.377582 q -0.2949,0.311437 -0.80753,0.680751 q 0,0.04134 0.04961,0.04134 q 0.107487,-0.0441 0.80753,-0.09095 q 0.394119,-0.02756 0.576019,-0.07993 q 0.02205,-0.176389 0.07993,-0.396874 q 0.195681,-0.744141 0.195681,-0.923285 z"
 id="path975" />
</g>
<g
 aria-label="6"
 id="text416"
 style="font-size:5.64444px;line-height:7.50001px;font-family:'Segoe Print QD';-inkscape-font-specification:'Segoe Print QD';text-align:center;letter-spacing:0.264583px;word-spacing:0.529167px;text-anchor:middle;overflow:visible;fill:#0000ff;stroke-width:0.3;stroke-miterlimit:10;stop-color:#000000">
<path
 d="m 89.00597,52.753344 q -0.09646,0 -0.135047,0.02481 q -0.361046,0.101975 -0.774457,0.620117 q -0.07441,0.09922 -0.256315,0.275607 q -0.198437,0.190169 -0.300412,0.338997 q -0.09922,0.146072 -0.190169,0.410655 q -0.08819,0.264584 -0.08819,0.493338 q 0,0.14056 0.05788,0.259071 q 0.05788,0.118511 0.355533,0.305924 q -0.05512,-0.432704 0.151585,-0.810286 q 0.206705,-0.380338 0.520898,-0.545703 q 0.314192,-0.16812 0.972894,-0.16812 q 0.316948,0 0.570507,0.220486 q 0.256315,0.21773 0.256315,0.523654 q 0,0.201193 -0.165364,0.421679 q -0.165365,0.220486 -0.542947,0.460265 q -0.377582,0.239778 -0.600824,0.325217 q -0.220486,0.08544 -0.80753,0.08544 q -0.305924,0 -0.545703,-0.104731 q -0.237022,-0.104731 -0.457508,-0.363802 q -0.21773,-0.259071 -0.21773,-0.471288 q 0,-0.474045 0.12678,-0.763433 q 0.126779,-0.292144 0.355533,-0.611849 q 0.23151,-0.32246 0.443728,-0.518142 q 0.07166,-0.06614 0.23151,-0.239778 q 0.300412,-0.330729 0.501606,-0.468533 q 0.203949,-0.137803 0.391362,-0.137803 q 0.09371,0 0.176389,0.06614 q 0.08268,0.06339 0.08268,0.159853 q 0,0.190169 -0.112999,0.212217 z m 0.763433,1.835546 q -0.311436,-0.225998 -0.724848,-0.225998 q -0.981162,0 -1.044552,1.157551 q 0.09095,0.02756 0.245291,0.02756 l 0.270095,-0.01102 q 0.270095,0 0.760677,-0.338998 q 0.493337,-0.338997 0.493337,-0.609092 z"
 id="path978" />
</g>
<g
 aria-label="2"
 id="text420"
 style="font-size:5.64444px;line-height:7.50001px;font-family:'Segoe Print QD';-inkscape-font-specification:'Segoe Print QD';text-align:center;letter-spacing:0.264583px;word-spacing:0.529167px;text-anchor:middle;overflow:visible;fill:#0000ff;stroke-width:0.3;stroke-miterlimit:10;stop-color:#000000">
<path
 d="m 95.497016,55.299957 q 0.143316,-0.01102 0.43546,-0.01102 q 0.361046,0 1.198893,0.05237 q 0.228754,0.01102 0.292143,0.0083 q 0.06615,-0.0028 0.170877,-0.0441 q 0.112999,-0.0441 0.170877,-0.0441 q 0.04685,0 0.107487,0.07166 q 0.06339,0.0689 0.06339,0.118511 q 0,0.179145 -0.187413,0.28112 q -0.187413,0.09922 -0.333485,0.09922 h -0.101975 q -0.264583,0 -0.388606,-0.03583 q -0.383094,-0.101975 -0.953602,-0.101975 q -0.487825,0 -0.857139,0.118511 q -0.369314,0.118511 -0.479557,0.250803 q -0.124023,0.148828 -0.187413,0.184657 q -0.06063,0.03858 -0.16812,0.03858 q -0.214974,0 -0.214974,-0.190169 q 0,-0.289388 0.237022,-0.509874 q 0.237023,-0.223242 0.796506,-0.507118 q 0.327973,-0.162608 0.39963,-0.223242 q 0.07166,-0.06063 0.394119,-0.355533 q 0.325217,-0.2949 0.493337,-0.507118 q 0.168121,-0.212218 0.239779,-0.377582 q 0.07441,-0.168121 0.07441,-0.308681 q 0,-0.192925 -0.228754,-0.391362 q -0.228754,-0.201194 -0.424436,-0.201194 q -0.16812,0 -0.507117,0.212218 q -0.338998,0.209462 -0.504362,0.405143 q -0.107487,0.126779 -0.327973,0.126779 q -0.05237,0 -0.112999,-0.118511 q -0.06063,-0.118511 -0.06063,-0.190169 q 0,-0.05237 0.01378,-0.07166 q 0.01378,-0.01929 0.275607,-0.206705 q 0.264583,-0.187413 0.474045,-0.322461 q 0.212218,-0.137804 0.424436,-0.209462 q 0.212217,-0.07166 0.545702,-0.07166 q 0.283876,0 0.531923,0.237023 q 0.250802,0.234266 0.37207,0.46302 q 0.121267,0.225998 0.121267,0.259071 q 0,0.377582 -0.564995,1.044552 q -0.56224,0.66697 -1.22921,1.028016 z"
 id="path981" />
</g>
<path
 style="font-variation-settings:normal;opacity:1;vector-effect:none;fill:#000000;fill-opacity:1;fill-rule:evenodd;stroke:#0000ff;stroke-width:0.398;stroke-linecap:butt;stroke-linejoin:miter;stroke-miterlimit:4;stroke-dasharray:none;stroke-dashoffset:0;stroke-opacity:1;-inkscape-stroke:none;stop-color:#000000;stop-opacity:1"
 d="M 84.000001,26.000001 V 42.000002"
 id="path535" />
<path
 style="font-variation-settings:normal;opacity:1;vector-effect:none;fill:#000000;fill-opacity:1;fill-rule:evenodd;stroke:#0000ff;stroke-width:0.398;stroke-linecap:butt;stroke-linejoin:miter;stroke-miterlimit:4;stroke-dasharray:none;stroke-dashoffset:0;stroke-opacity:1;-inkscape-stroke:none;stop-color:#000000;stop-opacity:1"
 d="M 84.000003,34.000002 H 108"
 id="path561" />
<path
 style="font-variation-settings:normal;opacity:1;vector-effect:none;fill:#000000;fill-opacity:1;fill-rule:evenodd;stroke:#0000ff;stroke-width:0.398;stroke-linecap:butt;stroke-linejoin:miter;stroke-miterlimit:4;stroke-dasharray:none;stroke-dashoffset:0;stroke-opacity:1;-inkscape-stroke:none;stop-color:#000000;stop-opacity:1"
 d="M 84.000001,50 V 66.000001"
 id="path597"
 sodipodi:nodetypes="cc" />
<path
 style="font-variation-settings:normal;opacity:1;vector-effect:none;fill:#000000;fill-opacity:1;fill-rule:evenodd;stroke:#0000ff;stroke-width:0.398;stroke-linecap:butt;stroke-linejoin:miter;stroke-miterlimit:4;stroke-dasharray:none;stroke-dashoffset:0;stroke-opacity:1;-inkscape-stroke:none;stop-color:#000000;stop-opacity:1"
 d="M 84.000003,58.000001 H 100"
 id="path599"
 sodipodi:nodetypes="cc" />
</g>
<metadata
 id="metadata809">
<rdf:RDF>
<cc:Work
 rdf:about="">
<dc:title> Page réglure Séyès </dc:title>
</cc:Work>
</rdf:RDF>
</metadata>
</svg>
