<?xml version="1.0" encoding="UTF-8" standalone="no"?>
<!-- Created with Inkscape (http://www.inkscape.org/) -->

<svg
 width="114.897mm"
 height="7.6059999mm"
 viewBox="0 0 114.897 7.6059999"
 version="1.1"
 id="svg1"
 inkscape:version="1.3.2 (1:1.3.2+202311252150+091e20ef0f)"
 sodipodi:docname="formule.svg"
 xmlns:inkscape="http://www.inkscape.org/namespaces/inkscape"
 xmlns:sodipodi="http://sodipodi.sourceforge.net/DTD/sodipodi-0.dtd"
 xmlns="http://www.w3.org/2000/svg"
 xmlns:svg="http://www.w3.org/2000/svg">
<sodipodi:namedview
 id="namedview1"
 pagecolor="#ffffff"
 bordercolor="#666666"
 borderopacity="1.0"
 inkscape:showpageshadow="2"
 inkscape:pageopacity="0.0"
 inkscape:pagecheckerboard="0"
 inkscape:deskcolor="#d1d1d1"
 inkscape:document-units="mm"
 inkscape:zoom="1.8334182"
 inkscape:cx="258.26077"
 inkscape:cy="90.813979"
 inkscape:current-layer="layer1" />
<defs
 id="defs1" />
<g
 inkscape:label="Calque 1"
 inkscape:groupmode="layer"
 id="layer1"
 transform="translate(-27.960333,-85.324898)">
<path
 d="m 224.16716,1464.7831 h 0.34701 q 1.12564,0 2.14127,-0.034 q 0.96484,-0.034 1.54882,-0.085 q 0.86328,-0.085 1.24414,-0.085 q 1.32031,0 1.32031,0.6771 q 0,0.6602 -0.6263,0.6602 l -0.72786,0.034 l -1.4388,-0.034 q -0.16927,0 -0.50781,0.034 q -0.33855,0.034 -0.51628,0.034 q -0.60937,0 -1.36263,0.059 q -0.75325,0.059 -1.11718,0.059 q -0.22005,0 -0.69401,-0.085 q -0.47396,-0.085 -0.66862,-0.085 q -0.20312,0 -0.36393,-0.2116 q -0.16081,-0.2116 -0.16081,-0.4147 q 0,-0.068 0.0846,-0.2201 q 0.0931,-0.1523 0.1608,-0.2285 q 0.0677,-0.076 1.33724,-0.076 z m 29.67833,1.1341 q -1.16796,-0.4232 -2.80989,-0.3301 q -0.27929,0.9648 -0.27929,1.8027 l 0.008,0.3809 v 0.347 l 0.008,0.3808 q 0.008,0.3301 0,0.4486 q -0.008,0.11 0.22006,0.3893 q 0.22005,0.2709 0.22005,0.3724 q 0,0.2539 -0.2793,0.5586 q -0.27083,0.3132 -0.52474,0.3132 q -0.66862,0 -0.88867,-0.3132 q -0.22005,-0.3047 -0.22005,-0.9225 q 0,-0.3301 0.0677,-1.041 q 0.0592,-0.6856 0.0762,-1.0326 q 0.0339,-0.8209 0.20312,-1.5827 q -0.20312,-0.034 -0.60091,-0.034 q -1.80273,0 -2.91991,0.2962 q -1.21875,0.3301 -2.20052,0.3301 q -0.40625,0 -0.91406,-0.5755 q 0.38086,-1.0495 4.13866,-4.0202 q 1.20183,-0.9395 1.94662,-1.6165 q 0.77864,-0.7194 1.73502,-1.4304 q 0.95638,-0.7109 1.12565,-0.7109 q 0.68554,0 0.68554,0.347 q -0.0592,0.2454 -0.48242,1.7604 q -0.73632,2.8861 -0.93099,4.2148 q 0.55013,0.2116 1.9974,0.2116 h 0.58398 q 0.48242,0 0.70247,0.2032 q 0.22852,0.1946 0.22852,0.8379 q 0,0.1946 -0.15235,0.347 q -0.15234,0.1523 -0.347,0.1523 q -0.23698,0 -0.39779,-0.085 z m -3.07226,-5.6706 q -0.31315,0.3132 -1.4388,1.2018 q -0.93945,0.7448 -1.32877,1.1595 q -0.9056,0.9564 -2.47981,2.0905 q 0,0.127 0.15234,0.127 q 0.33008,-0.1354 2.47981,-0.2793 q 1.21029,-0.085 1.76888,-0.2455 q 0.0677,-0.5416 0.24544,-1.2187 q 0.60091,-2.2852 0.60091,-2.8353 z m 16.15362,6.1276 v -0.2793 q 0,-1.2441 0.22852,-2.1328 q 0.23698,-0.8971 0.9056,-2.3613 q 0.90559,-1.9551 1.33723,-2.4798 q 0.19467,-0.2455 1.45573,-1.3881 q 0.77018,-0.7024 1.15104,-0.8632 q 0.38086,-0.1693 0.61784,-0.1693 q 0.36393,0 0.36393,0.4401 q 0,0.2877 -1.21875,1.4557 q -1.65039,1.5488 -2.66601,3.6309 q -1.01562,2.082 -1.01562,3.6224 q 0,0.7363 0.41471,2.8437 q 0.0508,0.2624 0.0677,0.3978 q 0.27929,1.3711 0.66015,2.0566 q 0.38086,0.6856 1.21029,1.405 q 0.90559,0.7786 0.90559,1.2187 q 0,0.4909 -0.82942,0.4909 q -0.50781,0 -1.19336,-0.7702 q -0.67708,-0.7702 -1.22721,-1.5911 q -0.54166,-0.8125 -0.85481,-2.683 q -0.31316,-1.8789 -0.31316,-2.8437 z m 19.68291,-1.5911 h 0.34701 q 1.12565,0 2.14127,-0.034 q 0.96484,-0.034 1.54883,-0.085 q 0.86328,-0.085 1.24413,-0.085 q 1.32031,0 1.32031,0.6771 q 0,0.6602 -0.6263,0.6602 l -0.72786,0.034 l -1.4388,-0.034 q -0.16927,0 -0.50781,0.034 q -0.33854,0.034 -0.51628,0.034 q -0.60937,0 -1.36262,0.059 q -0.75326,0.059 -1.11719,0.059 q -0.22005,0 -0.69401,-0.085 q -0.47396,-0.085 -0.66862,-0.085 q -0.20312,0 -0.36393,-0.2116 q -0.1608,-0.2116 -0.1608,-0.4147 q 0,-0.068 0.0846,-0.2201 q 0.0931,-0.1523 0.16081,-0.2285 q 0.0677,-0.076 1.33723,-0.076 z m 22.5859,0.01 q -0.61783,0 -0.61783,-0.3639 q 0,-0.2031 0.11849,-0.4486 q 0.11848,-0.2539 0.68554,-0.7448 l 1.50651,-1.2864 q 0.93099,-0.7956 2.03971,-1.5827 q -0.4655,-0.076 -2.48828,0.1693 q -1.56575,0.1946 -2.19205,0.1946 q -1.45573,0 -1.45573,-1.3288 q 0,-0.2623 0.16927,-0.457 q 0.17774,-0.2031 0.43164,-0.2031 q 0.1862,0 0.45703,0.1947 q 0.33854,0.2369 0.52474,0.3046 q 0.19466,0.068 0.56706,0.068 q 0.60091,0 2.20051,-0.1523 q 2.10742,-0.2454 3.36002,-0.2454 q 1.04102,0 1.04102,0.677 q 0,0.4825 -0.43164,0.821 q -0.42318,0.3385 -1.23568,0.821 q -1.07486,0.6432 -1.5065,0.9648 q -0.42318,0.3132 -0.84636,0.8294 q 0.93099,-0.068 1.40495,-0.068 q 1.02408,0 1.76041,0.2624 q 0.73633,0.2539 1.10026,0.6686 q 0.37239,0.4147 0.56706,0.6686 q 0.19466,0.2539 0.19466,0.9141 q 0,0.5671 -0.82943,1.8366 q -0.82942,1.261 -2.74218,2.0058 q -1.91276,0.7448 -3.73242,0.7448 q -0.52473,0 -1.51497,-0.1269 q -0.98177,-0.1354 -1.21028,-0.4824 q -0.22005,-0.3471 -0.22005,-0.7025 q 0,-0.8887 0.83789,-0.8887 q 0.0339,0 0.12695,0.042 l 0.58398,0.2455 q 0.96484,0.4401 1.76042,0.4401 q 0.69401,0 2.11588,-0.2709 q 1.42187,-0.2793 2.38671,-1.1764 q 0.96484,-0.9056 0.96484,-1.4473 q 0,-0.9225 -0.9733,-1.2187 q -0.96484,-0.3047 -2.14974,-0.3047 q -1.65038,0 -2.75911,0.6263 z m 21.91729,-1.1849 q 0.64323,-2.3105 2.53059,-2.6067 q 0.95638,-0.1524 1.57422,0.4908 q 0.6263,0.6348 0.87174,1.7774 q 0.38932,-0.7363 0.82943,-1.2611 q 0.44856,-0.5247 0.85481,-0.7786 q 0.41472,-0.2539 0.73633,-0.3555 q 0.32161,-0.11 0.60937,-0.11 q 0.65169,0 1.11719,0.7109 q 0.48242,0.7025 0.48242,1.4896 q 0,0.4739 -0.21159,0.821 q -0.20312,0.3385 -0.41471,0.3385 q -0.46549,0 -0.66016,-0.9395 q -0.21158,-1.0156 -0.6263,-1.0156 q -0.83789,0 -1.98046,1.9889 q -1.14258,1.989 -1.14258,3.3601 q 0,1.3711 1.54883,1.3711 q 1.18489,0 2.79296,-1.1172 q 0.55859,-0.3893 0.82943,-0.3893 q 0.27083,0 0.27083,0.3131 q 0,0.6094 -1.4388,1.5404 q -1.44726,0.931 -2.82682,0.931 q -1.21028,0 -1.86197,-0.6941 q -0.54167,-0.5839 -0.6263,-1.5826 q -0.25391,0.3385 -0.38086,0.4908 q -0.5586,0.6517 -1.00716,0.9903 q -0.45703,0.3385 -0.82943,0.4655 q -0.37239,0.1354 -0.7194,0.1354 q -0.70247,0 -1.14257,-0.4232 q -0.44011,-0.4232 -0.44011,-0.9902 q 0,-0.2455 0.16081,-0.4486 q 0.15234,-0.2031 0.47396,-0.2031 q 0.33854,0 0.61784,0.3047 q 0.28775,0.2962 0.60937,0.2962 q 0.83789,0 2.319,-2.0312 q 0.47396,-0.7448 0.7448,-1.5827 q 0.27083,-0.8464 0.15234,-1.6335 q -0.11849,-0.7871 -0.77018,-1.0664 q -0.51628,-0.22 -1.10026,0.4655 q -0.57552,0.6771 -0.58398,1.2695 q -0.008,0.347 -0.0339,0.4655 q -0.0846,0.2878 -0.29622,0.5332 q -0.22005,0.2455 -0.50781,0.1693 q -0.86328,-0.237 -0.52474,-1.4896 z m 30.83783,2.082 q -0.17773,0.2286 -0.77864,0.2286 q -0.22005,0 -0.72786,-0.059 q -0.57552,-0.068 -0.82943,-0.068 h -0.55859 q -0.24545,0 -0.44011,0.01 h -0.40625 q -0.20312,0 -0.43164,0.01 q -0.18619,0.364 -0.18619,1.1511 q 0,0.9648 -0.0423,1.2103 q -0.0423,0.2369 -0.0169,0.677 q 0.0254,0.4317 -0.46549,0.4317 q -0.36393,0 -0.48242,-0.1354 q -0.11003,-0.1439 -0.11003,-0.5078 q 0,-0.1947 0.14388,-1.3288 q 0.0677,-0.5501 0.13542,-1.4981 q -0.54167,-0.051 -1.63346,-0.051 q -0.1862,0 -0.49935,0.085 q -0.33008,0.076 -0.43164,0.076 q -0.22852,0 -0.41471,-0.1693 q -0.17774,-0.1777 -0.17774,-0.4063 q 0,-0.1692 0.11849,-0.3554 q 0.12696,-0.1947 0.2793,-0.1947 q 0.29622,0 0.61784,0.059 q 0.33007,0.059 0.49088,0.059 l 1.70117,-0.085 q 0.10156,-0.3216 0.10156,-0.6602 q 0,-0.457 -0.0677,-1.5573 q -0.0339,-0.457 -0.0339,-0.7871 q 0,-0.2877 0.16927,-0.5755 q 0.17773,-0.2878 0.4401,-0.2878 q 0.13542,0 0.29623,0.2793 q 0.16927,0.2793 0.16927,0.4317 q 0,0.4401 -0.0762,1.1764 q -0.0762,0.7363 -0.0762,1.0072 q 0,0.4316 0.0508,0.8632 q 0.16928,0.059 0.99024,0.059 l 1.93814,-0.034 q 0.78711,0 1.01563,0.1693 q 0.22851,0.1693 0.22851,0.7786 z m 17.61781,-5.0442 q -0.48242,0.457 -1.14257,1.4388 q -0.17774,0.2624 -0.28776,0.4147 q -0.11849,0.1608 -0.16081,0.2285 q 0.47396,0.2878 1.83658,0.4824 q 1.74349,0.2539 2.58984,0.5756 q 0.85482,0.3216 1.22721,0.9394 q 0.38086,0.6094 0.38086,1.6673 q 0,0.6602 -0.60937,1.4811 q -0.60937,0.821 -2.03125,1.5573 q -1.42187,0.7364 -3.14843,0.7364 q -1.41341,0 -2.42903,-0.5586 q -1.00716,-0.5586 -1.00716,-0.9395 q 0,-0.8125 1.02409,-0.8125 q 0.22851,0 0.49088,0.2116 q 0.93945,0.6602 2.1582,0.6602 q 1.29492,0 2.65755,-0.7702 q 1.37109,-0.7702 1.37109,-1.4727 q 0,-0.8971 -0.66862,-1.3711 q -0.66016,-0.4824 -2.0651,-0.6347 l -1.91276,-0.2116 q -0.80403,-0.1016 -1.24414,-0.4147 q -0.4401,-0.3217 -0.4401,-0.5925 q 0,-0.2877 0.31315,-0.6517 q 0.0677,-0.093 0.73633,-1.0664 q 1.37955,-2.0566 1.73502,-2.1666 q 0.36393,-0.1185 4.5703,-0.2539 q 0.74479,-0.017 1.54037,-0.2455 q 0.6263,-0.1693 0.77864,-0.1693 q 0.52474,0 0.91406,0.3132 q 0.2793,0.1439 0.2793,0.3131 q 0,0.2455 -0.31315,0.6179 q -0.31315,0.3724 -0.9056,0.457 q -0.58398,0.085 -1.46419,0.085 l -2.82682,-0.085 q -1.24414,0 -1.94661,0.237 z m 19.47133,13.6263 q -0.2793,0 -0.52474,-0.1862 q -0.23698,-0.1778 -0.23698,-0.3724 q 0,-0.1693 0.13542,-0.4232 q 0.14388,-0.2539 0.95638,-1.278 q 0.57552,-0.694 1.26952,-2.4967 q 0.70248,-1.8028 0.70248,-2.2259 q 0,-2.7084 -0.76172,-4.8243 q -0.76172,-2.1158 -1.3457,-3.0553 q -0.58398,-0.9479 -1.70117,-1.9635 q -0.10156,-0.1016 -0.10156,-0.347 q 0,-0.127 0.24544,-0.3386 q 0.24544,-0.2116 0.49935,-0.2116 q 0.37239,0 0.80403,0.4825 q 0.44011,0.4739 1.32878,1.8365 q 0.88867,1.3542 1.10872,2.1075 q 0.22005,0.7194 0.45703,1.4049 q 0.68555,1.9974 0.68555,4.2656 q 0,3.0807 -2.0905,5.7722 q -0.35546,0.4739 -0.50781,0.7617 q -0.26237,0.5078 -0.46549,0.7955 q -0.20313,0.2963 -0.45703,0.2963 z m 17.79554,-9.4876 h 0.34701 q 1.12565,0 2.14127,-0.034 q 0.96484,-0.034 1.54883,-0.085 q 0.86328,-0.085 1.24413,-0.085 q 1.32031,0 1.32031,0.6771 q 0,0.6602 -0.6263,0.6602 l -0.72786,0.034 l -1.4388,-0.034 q -0.16927,0 -0.50781,0.034 q -0.33854,0.034 -0.51628,0.034 q -0.60937,0 -1.36262,0.059 q -0.75326,0.059 -1.11719,0.059 q -0.22005,0 -0.69401,-0.085 q -0.47395,-0.085 -0.66862,-0.085 q -0.20312,0 -0.36393,-0.2116 q -0.1608,-0.2116 -0.1608,-0.4147 q 0,-0.068 0.0846,-0.2201 q 0.0931,-0.1523 0.16081,-0.2285 q 0.0677,-0.076 1.33723,-0.076 z m 20.91013,-1.1765 q 0.64322,-2.3105 2.53059,-2.6067 q 0.95638,-0.1524 1.57422,0.4908 q 0.6263,0.6348 0.87174,1.7774 q 0.38932,-0.7363 0.82942,-1.2611 q 0.44857,-0.5247 0.85482,-0.7786 q 0.41471,-0.2539 0.73633,-0.3555 q 0.32161,-0.11 0.60937,-0.11 q 0.65169,0 1.11719,0.7109 q 0.48242,0.7025 0.48242,1.4896 q 0,0.4739 -0.21159,0.821 q -0.20313,0.3385 -0.41471,0.3385 q -0.4655,0 -0.66016,-0.9395 q -0.21159,-1.0156 -0.6263,-1.0156 q -0.83789,0 -1.98046,1.9889 q -1.14258,1.989 -1.14258,3.3601 q 0,1.3711 1.54882,1.3711 q 1.1849,0 2.79297,-1.1172 q 0.55859,-0.3893 0.82942,-0.3893 q 0.27084,0 0.27084,0.3131 q 0,0.6094 -1.4388,1.5404 q -1.44727,0.931 -2.82682,0.931 q -1.21028,0 -1.86198,-0.6941 q -0.54166,-0.5839 -0.6263,-1.5826 q -0.2539,0.3385 -0.38086,0.4908 q -0.55859,0.6517 -1.00716,0.9903 q -0.45703,0.3385 -0.82942,0.4655 q -0.3724,0.1354 -0.7194,0.1354 q -0.70247,0 -1.14258,-0.4232 q -0.4401,-0.4232 -0.4401,-0.9902 q 0,-0.2455 0.16081,-0.4486 q 0.15234,-0.2031 0.47395,-0.2031 q 0.33855,0 0.61784,0.3047 q 0.28776,0.2962 0.60938,0.2962 q 0.83788,0 2.319,-2.0312 q 0.47396,-0.7448 0.74479,-1.5827 q 0.27083,-0.8464 0.15235,-1.6335 q -0.11849,-0.7871 -0.77019,-1.0664 q -0.51627,-0.22 -1.10025,0.4655 q -0.57552,0.6771 -0.58399,1.2695 q -0.008,0.347 -0.0338,0.4655 q -0.0846,0.2878 -0.29622,0.5332 q -0.22006,0.2455 -0.50782,0.1693 q -0.86328,-0.237 -0.52473,-1.4896 z m 22.2812,2.7676 v -0.2793 q 0,-1.2441 0.22851,-2.1328 q 0.23698,-0.8971 0.9056,-2.3613 q 0.9056,-1.9551 1.33724,-2.4798 q 0.19466,-0.2455 1.45572,-1.3881 q 0.77018,-0.7024 1.15104,-0.8632 q 0.38086,-0.1693 0.61784,-0.1693 q 0.36393,0 0.36393,0.4401 q 0,0.2877 -1.21875,1.4557 q -1.65038,1.5488 -2.66601,3.6309 q -1.01562,2.082 -1.01562,3.6224 q 0,0.7363 0.41471,2.8437 q 0.0508,0.2624 0.0677,0.3978 q 0.2793,1.3711 0.66016,2.0566 q 0.38086,0.6856 1.21028,1.405 q 0.9056,0.7786 0.9056,1.2187 q 0,0.4909 -0.82943,0.4909 q -0.50781,0 -1.19335,-0.7702 q -0.67709,-0.7702 -1.22722,-1.5911 q -0.54166,-0.8125 -0.85481,-2.683 q -0.31315,-1.8789 -0.31315,-2.8437 z m 19.68291,-1.5911 h 0.34701 q 1.12565,0 2.14127,-0.034 q 0.96484,-0.034 1.54882,-0.085 q 0.86328,-0.085 1.24414,-0.085 q 1.32031,0 1.32031,0.6771 q 0,0.6602 -0.6263,0.6602 l -0.72786,0.034 l -1.4388,-0.034 q -0.16927,0 -0.50781,0.034 q -0.33854,0.034 -0.51628,0.034 q -0.60937,0 -1.36263,0.059 q -0.75325,0.059 -1.11718,0.059 q -0.22005,0 -0.69401,-0.085 q -0.47396,-0.085 -0.66862,-0.085 q -0.20312,0 -0.36393,-0.2116 q -0.16081,-0.2116 -0.16081,-0.4147 q 0,-0.068 0.0846,-0.2201 q 0.0931,-0.1523 0.16081,-0.2285 q 0.0677,-0.076 1.33723,-0.076 z m 22.58592,0.01 q -0.61784,0 -0.61784,-0.3639 q 0,-0.2031 0.11849,-0.4486 q 0.11849,-0.2539 0.68554,-0.7448 l 1.50651,-1.2864 q 0.93099,-0.7956 2.03971,-1.5827 q -0.46549,-0.076 -2.48828,0.1693 q -1.56575,0.1946 -2.19205,0.1946 q -1.45573,0 -1.45573,-1.3288 q 0,-0.2623 0.16928,-0.457 q 0.17773,-0.2031 0.43164,-0.2031 q 0.18619,0 0.45703,0.1947 q 0.33854,0.2369 0.52473,0.3046 q 0.19467,0.068 0.56706,0.068 q 0.60091,0 2.20052,-0.1523 q 2.10741,-0.2454 3.36002,-0.2454 q 1.04101,0 1.04101,0.677 q 0,0.4825 -0.43164,0.821 q -0.42318,0.3385 -1.23567,0.821 q -1.07487,0.6432 -1.50651,0.9648 q -0.42318,0.3132 -0.84635,0.8294 q 0.93098,-0.068 1.40494,-0.068 q 1.02409,0 1.76041,0.2624 q 0.73633,0.2539 1.10026,0.6686 q 0.3724,0.4147 0.56706,0.6686 q 0.19466,0.2539 0.19466,0.9141 q 0,0.5671 -0.82943,1.8366 q -0.82942,1.261 -2.74218,2.0058 q -1.91275,0.7448 -3.73241,0.7448 q -0.52474,0 -1.51497,-0.1269 q -0.98177,-0.1354 -1.21029,-0.4824 q -0.22005,-0.3471 -0.22005,-0.7025 q 0,-0.8887 0.83789,-0.8887 q 0.0338,0 0.12695,0.042 l 0.58399,0.2455 q 0.96484,0.4401 1.76041,0.4401 q 0.69401,0 2.11588,-0.2709 q 1.42187,-0.2793 2.38671,-1.1764 q 0.96485,-0.9056 0.96485,-1.4473 q 0,-0.9225 -0.97331,-1.2187 q -0.96484,-0.3047 -2.14973,-0.3047 q -1.65039,0 -2.75911,0.6263 z m 21.95958,-0.01 h 0.34701 q 1.12565,0 2.14127,-0.034 q 0.96484,-0.034 1.54883,-0.085 q 0.86327,-0.085 1.24413,-0.085 q 1.32031,0 1.32031,0.6771 q 0,0.6602 -0.6263,0.6602 l -0.72786,0.034 l -1.4388,-0.034 q -0.16927,0 -0.50781,0.034 q -0.33854,0.034 -0.51628,0.034 q -0.60937,0 -1.36262,0.059 q -0.75326,0.059 -1.11719,0.059 q -0.22005,0 -0.69401,-0.085 q -0.47396,-0.085 -0.66862,-0.085 q -0.20312,0 -0.36393,-0.2116 q -0.16081,-0.2116 -0.16081,-0.4147 q 0,-0.068 0.0846,-0.2201 q 0.0931,-0.1523 0.16081,-0.2285 q 0.0677,-0.076 1.33723,-0.076 z m 20.91014,-1.1765 q 0.64323,-2.3105 2.53059,-2.6067 q 0.95638,-0.1524 1.57422,0.4908 q 0.6263,0.6348 0.87174,1.7774 q 0.38932,-0.7363 0.82943,-1.2611 q 0.44856,-0.5247 0.85481,-0.7786 q 0.41472,-0.2539 0.73633,-0.3555 q 0.32161,-0.11 0.60937,-0.11 q 0.6517,0 1.11719,0.7109 q 0.48242,0.7025 0.48242,1.4896 q 0,0.4739 -0.21159,0.821 q -0.20312,0.3385 -0.41471,0.3385 q -0.46549,0 -0.66016,-0.9395 q -0.21158,-1.0156 -0.6263,-1.0156 q -0.83788,0 -1.98046,1.9889 q -1.14258,1.989 -1.14258,3.3601 q 0,1.3711 1.54883,1.3711 q 1.18489,0 2.79296,-1.1172 q 0.55859,-0.3893 0.82943,-0.3893 q 0.27083,0 0.27083,0.3131 q 0,0.6094 -1.4388,1.5404 q -1.44726,0.931 -2.82682,0.931 q -1.21028,0 -1.86197,-0.6941 q -0.54167,-0.5839 -0.6263,-1.5826 q -0.25391,0.3385 -0.38086,0.4908 q -0.55859,0.6517 -1.00716,0.9903 q -0.45703,0.3385 -0.82943,0.4655 q -0.37239,0.1354 -0.7194,0.1354 q -0.70247,0 -1.14257,-0.4232 q -0.44011,-0.4232 -0.44011,-0.9902 q 0,-0.2455 0.16081,-0.4486 q 0.15234,-0.2031 0.47396,-0.2031 q 0.33854,0 0.61784,0.3047 q 0.28776,0.2962 0.60937,0.2962 q 0.83789,0 2.31901,-2.0312 q 0.47395,-0.7448 0.74479,-1.5827 q 0.27083,-0.8464 0.15234,-1.6335 q -0.11849,-0.7871 -0.77018,-1.0664 q -0.51628,-0.22 -1.10026,0.4655 q -0.57552,0.6771 -0.58398,1.2695 q -0.008,0.347 -0.0339,0.4655 q -0.0846,0.2878 -0.29622,0.5332 q -0.22005,0.2455 -0.50781,0.1693 q -0.86328,-0.237 -0.52474,-1.4896 z m 23.50841,10.6641 q -0.27929,0 -0.52474,-0.1862 q -0.23697,-0.1778 -0.23697,-0.3724 q 0,-0.1693 0.13541,-0.4232 q 0.14388,-0.2539 0.95638,-1.278 q 0.57552,-0.694 1.26953,-2.4967 q 0.70247,-1.8028 0.70247,-2.2259 q 0,-2.7084 -0.76172,-4.8243 q -0.76171,-2.1158 -1.3457,-3.0553 q -0.58398,-0.9479 -1.70116,-1.9635 q -0.10157,-0.1016 -0.10157,-0.347 q 0,-0.127 0.24545,-0.3386 q 0.24544,-0.2116 0.49934,-0.2116 q 0.3724,0 0.80404,0.4825 q 0.4401,0.4739 1.32877,1.8365 q 0.88867,1.3542 1.10872,2.1075 q 0.22006,0.7194 0.45703,1.4049 q 0.68555,1.9974 0.68555,4.2656 q 0,3.0807 -2.09049,5.7722 q -0.35547,0.4739 -0.50781,0.7617 q -0.26237,0.5078 -0.4655,0.7955 q -0.20312,0.2963 -0.45703,0.2963 z"
 id="text1"
 style="font-size:17.3333px;line-height:1.6;font-family:'Segoe Print QD';-inkscape-font-specification:'Segoe Print QD';letter-spacing:0.999999px;word-spacing:2px;baseline-shift:baseline;stroke-width:0.809605px"
 transform="matrix(0.32680494,0,0,0.32680494,-44.460027,-389.77512)"
 aria-label="− 4 ( − 3 x + 5 ) − x ( − 3 − x )" />
</g>
</svg>
