<?xml version="1.0" encoding="UTF-8"?>
<svg width="63.295mm" height="30.581mm" version="1.1" viewBox="0 0 63.295 30.581" xmlns="http://www.w3.org/2000/svg">
<g transform="translate(-21.045 -14.878)">
<g fill="#fff" fill-rule="evenodd" stroke-width=".3">
<path d="m54.785 17.297h29.404v25.094h-29.404z" stop-color="#000000"/>
<path d="m21.195 18.287h31.641v24.604h-31.641z" stop-color="#000000"/>
<path d="m22.195 17.287h31.641v24.604h-31.641z" stop-color="#000000"/>
<path d="m54.785 16.297h28.404v25.094h-28.404z" stop-color="#000000"/>
</g>
<g fill="none" stroke="#b3b3b3" stroke-linecap="round" stroke-linejoin="round" stroke-width=".3">
<path d="m51.8 42.891h-30.606v-24.635" stop-color="#000000" style="-inkscape-stroke:none;font-variation-settings:normal"/>
<path d="m84.189 17.256v25.135h-28.122" stop-color="#000000" style="-inkscape-stroke:none;font-variation-settings:normal"/>
<path d="m51.854 41.891h-29.659v-24.635" stop-color="#000000" style="-inkscape-stroke:none;font-variation-settings:normal"/>
<path d="m83.189 16.256v25.135h-27.034" stop-color="#000000" style="-inkscape-stroke:none;font-variation-settings:normal"/>
</g>
<path d="m23.195 16.256c2.5217 0 26.516-0.93945 29.655 0.87264 2.7945-2.7945 24.433-0.73325 29.329-2.0554l0.2093 23.742c-5.8471 3.3758-22.097-0.0411-29.539 2.8514-0.76745-0.52999-22.087-1.0236-29.503-0.62327z" fill="#fff" fill-rule="evenodd" stop-color="#000000" stroke="#4d4d4d" stroke-width=".3" style="-inkscape-stroke:none;font-variation-settings:normal"/>
<g fill="none">
<path d="m56.867 21.477c7.2496-0.86322 21.461 0.19028 25.312-0.84977" stop-color="#000000" style="-inkscape-stroke:none;font-variation-settings:normal"/>
<path d="m56.873 26.476c7.2514-0.86196 21.456 0.1907 25.306-0.84907" stop-color="#000000" style="-inkscape-stroke:none;font-variation-settings:normal"/>
<path d="m56.828 32.814c8.2051-1.0705 20.61 0.93963 25.56-1.9181" stop-color="#000000" style="-inkscape-stroke:none;font-variation-settings:normal"/>
<path d="m56.883 37.807c8.2054-1.0546 20.567 0.94037 25.505-1.9111" stop-color="#000000" style="-inkscape-stroke:none;font-variation-settings:normal"/>
<path d="m27.17 38.006c9.1425-0.14416 25.02 0.28494 25.68 0.74096" stop-color="#000000" style="-inkscape-stroke:none;font-variation-settings:normal"/>
<path d="m27.195 26.701c7.6215-0.18305 23.19-0.47381 25.675 0.96136" stop-color="#000000" style="-inkscape-stroke:none;font-variation-settings:normal"/>
</g>
<path d="m52.85 17.469v24.131" fill="#fff" fill-rule="evenodd" stop-color="#000000" stroke="#4d4d4d" stroke-width=".3" style="-inkscape-stroke:none;font-variation-settings:normal"/>
<g fill="#333" stroke-width="1px">
<g stop-color="#000000" aria-label=" ??:??">
<path d="m31.989 25.624q-0.01038 0.12008-0.06731 0.17686-0.0549 0.05468-0.1417 0.05614-0.093 0.0016-0.15402-0.06149-0.05898-0.06516-0.06156-0.2181l-4e-3 -0.23768q0.49898-0.20068 0.60058-0.30576 0.1016-0.10508 0.09978-0.21255-0.0025-0.15087-0.12633-0.25836-0.12172-0.10752-0.34286-0.10379-0.23354 0.0039-0.44874 0.11507l1e-3 0.062q0.0025 0.15087-0.05628 0.21802-0.05679 0.06505-0.15186 0.06665-0.09301 0.0016-0.15402-0.06149-0.05895-0.06309-0.06153-0.21604l-0.0058-0.34102q0.3219-0.15841 0.50087-0.21105 0.17897-0.05263 0.37118-0.05588 0.40095-0.0068 0.64667 0.22064 0.24572 0.2274 0.2516 0.57668 0.0042 0.24801-0.13963 0.42409-0.14174 0.17605-0.55613 0.36703zm0.10267 0.81694q0.0016 0.09714-0.06759 0.16033-0.06719 0.06109-0.2284 0.06381-0.16121 0.0027-0.23249-0.05603-0.06925-0.06085-0.07089-0.15799-0.0016-0.09714 0.06555-0.15822 0.06716-0.06315 0.23043-0.06591 0.16121-0.0027 0.23046 0.05813 0.07128 0.05875 0.07292 0.15589z"/>
<path d="m34.803 25.587q-0.01114 0.12001-0.06842 0.17643-0.05524 0.05433-0.14205 0.05524-0.09301 9.81e-4 -0.15363-0.06246-0.05857-0.06553-0.06018-0.21849l-0.0025-0.2377q0.50024-0.19752 0.6025-0.30196 0.10226-0.10444 0.10112-0.21192-0.0016-0.15089-0.1247-0.25915-0.12104-0.10828-0.3422-0.10595-0.23356 0.0025-0.44946 0.11223l6.54e-4 0.06201q0.0016 0.15089-0.05765 0.21766-0.0572 0.06469-0.15228 0.06569-0.09301 9.81e-4 -0.15363-0.06246-0.05855-0.06347-0.06016-0.21642l-0.0036-0.34104q0.3229-0.15638 0.5022-0.20788 0.1793-0.0515 0.37153-0.05353 0.40099-0.0042 0.64526 0.22472 0.24427 0.22895 0.24796 0.57826 0.0026 0.24803-0.14231 0.4232-0.14286 0.17515-0.55844 0.36351zm0.09751 0.81757q1e-3 0.09715-0.0686 0.1599-0.06758 0.06066-0.2288 0.06236-0.16122 0.0017-0.23213-0.0575-0.06886-0.06129-0.06989-0.15844-1e-3 -0.09715 0.06655-0.15781 0.06756-0.06273 0.23084-0.06445 0.16122-0.0017 0.23008 0.05959 0.07091 0.0592 0.07193 0.15635z"/>
<path d="m37.721 24.953q2.98e-4 0.11989-0.08425 0.20072-0.08455 0.08083-0.23338 0.0812-0.14883 3.7e-4 -0.23378-0.08003t-0.08525-0.20029q-2.99e-4 -0.11989 0.08425-0.20072 0.08455-0.08083 0.23338-0.0812 0.14883-3.7e-4 0.23378 0.08003t0.08525 0.20029zm0.0076 1.387q2.99e-4 0.11989-0.08425 0.20072-0.08455 0.08083-0.23338 0.0812-0.14883 3.71e-4 -0.23378-0.08003-0.08495-0.0804-0.08525-0.20029-2.99e-4 -0.11989 0.08425-0.20072 0.08455-0.08083 0.23338-0.0812 0.14883-3.71e-4 0.23378 0.08003 0.08495 0.0804 0.08525 0.20029z"/>
<path d="m40.438 25.578q-0.01337 0.11979-0.07169 0.17513-0.05624 0.05329-0.14305 0.0526-0.09302-7.47e-4 -0.15244-0.06531-0.05735-0.06661-0.05612-0.21956l0.0019-0.2377q0.50382-0.18819 0.608-0.29071t0.10504-0.21q0.0012-0.15089-0.11986-0.26142-0.119-0.11051-0.34017-0.11229-0.23357-0.0019-0.45147 0.10386l-4.98e-4 0.06201q-0.0012 0.15089-0.06169 0.21655-0.05839 0.06361-0.15347 0.06285-0.09301-7.47e-4 -0.15244-0.06531-0.05736-0.06454-0.05613-0.2175l0.0027-0.34105q0.32575-0.15035 0.50597-0.19851 0.18023-0.04816 0.37246-0.04662 0.401 0.0032 0.64097 0.23667 0.23998 0.23345 0.23717 0.58277-2e-3 0.24804-0.15014 0.42049-0.14608 0.17246-0.5651 0.35307zm0.0823 0.81924q-7.81e-4 0.09715-0.07156 0.15859-0.06869 0.05939-0.22992 0.0581-0.16122-0.0013-0.23102-0.0618-0.06771-0.06256-0.06693-0.15971 7.8e-4 -0.09715 0.06947-0.15654 0.06871-0.06146 0.232-0.06015 0.16122 0.0013 0.22894 0.06385 0.0698 0.06051 0.06902 0.15766z"/>
<path d="m43.256 25.623q-0.01511 0.11958-0.07423 0.17407-0.05701 0.05247-0.1438 0.05051-0.09299-0.0021-0.15148-0.06752-0.05637-0.06744-0.05291-0.22036l0.0054-0.23765q0.50651-0.18084 0.61217-0.28183t0.10809-0.20845q0.0034-0.15086-0.11604-0.26314-0.11738-0.11223-0.3385-0.11723-0.23352-0.0053-0.45293 0.09728l-0.0014 0.062q-0.0034 0.15086-0.06483 0.21563-0.05931 0.06275-0.15437 0.06061-0.09299-0.0021-0.15148-0.06752-0.05642-0.06537-0.05296-0.21829l0.0077-0.34098q0.3279-0.14559 0.50881-0.19113 0.18091-0.04554 0.3731-0.04119 0.40091 0.0091 0.63746 0.24597 0.23656 0.23691 0.22866 0.58616-0.0056 0.24798-0.15625 0.41826-0.14858 0.17032-0.57017 0.34481zm0.07037 0.82035q-0.0022 0.09713-0.07386 0.15754-0.06955 0.05839-0.23074 0.05475-0.16119-0.0036-0.2301-0.06516-0.06679-0.06354-0.0646-0.16066 0.0022-0.09713 0.07174-0.15552 0.0696-0.06046 0.23285-0.05677 0.16119 0.0036 0.22798 0.06718 0.06891 0.06152 0.06671 0.15864z"/>
</g>
<g stop-color="#000000" aria-label=" ??:??">
<path d="m31.982 37.001q-0.0126 0.11987-0.07058 0.17558-0.0559 0.05365-0.14272 0.0535-0.09302-1.57e-4 -0.15285-0.06434-0.05777-0.06624-0.05751-0.2192l3.99e-4 -0.23771q0.50262-0.19139 0.60614-0.29457 0.10353-0.10318 0.10371-0.21067 2.54e-4 -0.1509-0.12152-0.26065-0.1197-0.10976-0.34088-0.11013-0.23358-3.93e-4 -0.4508 0.10673l-1.04e-4 0.06201q-2.54e-4 0.1509-0.06031 0.21694-0.05799 0.06398-0.15307 0.06382-0.09302-1.56e-4 -0.15286-0.06434-0.05777-0.06418-0.05751-0.21714l5.73e-4 -0.34106q0.32478-0.15242 0.5047-0.20172 0.17992-0.04931 0.37215-0.04898 0.40101 6.74e-4 0.64246 0.23259 0.24146 0.23192 0.24087 0.58125-4.17e-4 0.24805-0.14747 0.42143-0.14499 0.17339-0.56284 0.35666zm0.08751 0.8187q-1.63e-4 0.09715-0.07055 0.15904-0.06831 0.05983-0.22954 0.05956-0.16123-2.71e-4 -0.23141-0.06033-0.06811-0.06213-0.06795-0.15928 1.63e-4 -0.09715 0.06848-0.15698 0.06832-0.0619 0.23161-0.06162 0.16123 2.71e-4 0.22934 0.0624 0.07018 0.06006 0.07001 0.15721z"/>
<path d="m34.8 37.018q-0.01346 0.11977-0.07183 0.17507-0.05628 0.05325-0.1431 0.05248-0.09301-8.22e-4 -0.15239-0.06543-0.05729-0.06665-0.05594-0.21961l0.0021-0.2377q0.50398-0.18779 0.60824-0.29022 0.10426-0.10243 0.10521-0.20992 0.0013-0.15089-0.11965-0.26152-0.11892-0.11061-0.34008-0.11257-0.23357-0.0021-0.45155 0.1035l-5.48e-4 0.06201q-0.0013 0.15089-0.06186 0.2165-0.05844 0.06356-0.15352 0.06272-0.09301-8.23e-4 -0.15239-0.06543-0.05731-0.06459-0.05596-0.21754l3e-3 -0.34105q0.32587-0.15009 0.50613-0.1981 0.18026-0.04802 0.37249-0.04632 0.40099 0.0035 0.64078 0.23719 0.23979 0.23364 0.2367 0.58296-0.0022 0.24804-0.15048 0.42036-0.14622 0.17235-0.56538 0.35262zm0.08164 0.81931q-8.59e-4 0.09715-0.07169 0.15854-0.06874 0.05934-0.22996 0.05791-0.16122-0.0014-0.23097-0.06199-0.06766-0.06261-0.0668-0.15976 8.59e-4 -0.09715 0.0696-0.15649 0.06876-0.06141 0.23205-0.05996 0.16122 0.0014 0.22889 0.06404 0.06975 0.06056 0.06889 0.15771z"/>
<path d="m37.728 36.438q-0.0018 0.11988-0.08776 0.1992-0.08595 0.07933-0.23476 0.07709-0.14881-0.0022-0.23234-0.08413-0.08353-0.08188-0.08172-0.20176 0.0018-0.11988 0.08776-0.1992 0.08595-0.07933 0.23476-0.07709 0.14881 0.0022 0.23234 0.08413 0.08353 0.08188 0.08172 0.20176zm-0.01676 1.3869q-0.0018 0.11988-0.08776 0.1992-0.08595 0.07933-0.23476 0.07709-0.14881-0.0022-0.23234-0.08412-0.08353-0.08188-0.08172-0.20176 0.0018-0.11988 0.08776-0.1992 0.08595-0.07933 0.23476-0.07709 0.14881 0.0022 0.23234 0.08413 0.08353 0.08188 0.08172 0.20176z"/>
<path d="m40.431 37.105q-0.01493 0.1196-0.07397 0.17418-0.05693 0.05255-0.14373 0.05072-0.093-2e-3 -0.15158-0.06729-0.05647-0.06735-0.05324-0.22028l5e-3 -0.23766q0.50624-0.18159 0.61175-0.28274 0.10551-0.10115 0.10778-0.20861 0.0032-0.15086-0.11643-0.26296-0.11755-0.11206-0.33868-0.11673-0.23352-0.0049-0.45279 0.09795l-0.0013 0.062q-0.0032 0.15086-0.06451 0.21573-0.05922 0.06284-0.15428 0.06084-0.093-2e-3 -0.15158-0.06729-0.05651-0.06529-0.05328-0.21821l0.0072-0.34099q0.32768-0.14608 0.50852-0.19188 0.18084-0.0458 0.37303-0.04174 0.40092 0.0085 0.63782 0.24503 0.23691 0.23656 0.22953 0.58582-0.0052 0.24799-0.15563 0.41849-0.14833 0.17054-0.56966 0.34565zm0.07159 0.82025q-0.0021 0.09713-0.07362 0.15764-0.06946 0.05849-0.23066 0.05509-0.16119-0.0034-0.23019-0.06482-0.06689-0.06344-0.06484-0.16057 0.0021-0.09713 0.07151-0.15562 0.06951-0.06056 0.23277-0.05711 0.16119 0.0034 0.22808 0.06684 0.069 0.06141 0.06695 0.15854z"/>
<path d="m43.239 37.175q-0.01572 0.1195-0.07512 0.17368-0.05728 0.05217-0.14406 0.04977-0.09298-0.0026-0.15113-0.06829-0.05602-0.06772-0.05178-0.22063l0.0066-0.23762q0.50743-0.17824 0.61361-0.27869 0.10618-0.10045 0.10916-0.20789 0.0042-0.15084-0.11469-0.26373-0.11681-0.11284-0.3379-0.11897-0.23349-0.0065-0.45342 0.09495l-0.0017 0.06199q-0.0042 0.15084-0.06594 0.2153-0.05963 0.06245-0.15468 0.05981-0.09298-0.0026-0.15113-0.06829-0.05608-0.06566-0.05184-0.21856l0.0095-0.34093q0.32864-0.14391 0.50978-0.18851 0.18114-0.04461 0.3733-0.03928 0.40086 0.01112 0.63619 0.24924 0.23534 0.23812 0.22565 0.58732-0.0069 0.24795-0.15839 0.41745-0.14945 0.16956-0.57194 0.34188zm0.06616 0.8207q-0.0027 0.09711-0.07466 0.15715-0.06985 0.05803-0.23102 0.05356-0.16117-0.0045-0.22976-0.06634-0.06647-0.06388-0.06377-0.16099 0.0027-0.09711 0.07254-0.15514 0.0699-0.0601 0.23314-0.05557 0.16117 0.0045 0.22764 0.06835 0.06859 0.06187 0.0659 0.15898z"/>
</g>
<g stop-color="#000000" aria-label=" ??:??">
<path d="m61.648 25.186q-0.0085 0.12023-0.06454 0.17789-0.05404 0.05553-0.14081 0.05834-0.09297 3e-3 -0.15496-0.05908-0.05999-0.06423-0.06496-0.21711l-0.0077-0.23759q0.49579-0.20844 0.59574-0.31509 0.09994-0.10665 0.09646-0.21408-0.0049-0.15082-0.13034-0.25635-0.12338-0.1056-0.34444-0.09843-0.23345 0.0076-0.44689 0.12206l2e-3 0.06198q0.0049 0.15082-0.05287 0.21887-0.05577 0.06592-0.1508 0.06901-0.09297 3e-3 -0.15496-0.05908-0.05993-0.06217-0.06489-0.21505l-0.01107-0.34088q0.31939-0.16341 0.49752-0.21883t0.37026-0.06166q0.4008-0.01302 0.65003 0.21052 0.24923 0.22354 0.26057 0.57269 0.0081 0.24792-0.133 0.42622-0.13898 0.17824-0.55034 0.37566zm0.1154 0.81524q0.0032 0.0971-0.06508 0.16136-0.06623 0.06213-0.22738 0.06736-0.16114 0.0052-0.23333-0.0524-0.07019-0.05976-0.07334-0.15686-0.0032-0.0971 0.06308-0.15923 0.06616-0.06419 0.22938-0.06949 0.16115-0.0052 0.23134 0.05453 0.07219 0.05763 0.07534 0.15473z"/>
<path d="m64.469 25.134q-0.01112 0.12002-0.0684 0.17644-0.05523 0.05434-0.14204 0.05526-0.09301 9.93e-4 -0.15364-0.06244-0.05858-0.06552-0.06021-0.21848l-0.0025-0.2377q0.50021-0.19759 0.60246-0.30204 0.10224-0.10445 0.1011-0.21193-0.0016-0.15089-0.12473-0.25913-0.12105-0.10827-0.34221-0.10591-0.23356 0.0025-0.44944 0.11229l6.62e-4 0.06201q0.0016 0.15089-0.05763 0.21767-0.05719 0.06469-0.15227 0.06571-0.09301 9.93e-4 -0.15364-0.06244-0.05856-0.06346-0.06019-0.21641l-0.0036-0.34104q0.32288-0.15642 0.50217-0.20794 0.17929-0.05153 0.37152-0.05358 0.40099-0.0043 0.64529 0.22463 0.2443 0.22892 0.24803 0.57823 0.0026 0.24803-0.14225 0.42322-0.14283 0.17517-0.55839 0.36358zm0.09762 0.81756q1e-3 0.09715-0.06858 0.1599-0.06757 0.06067-0.22879 0.06239-0.16122 0.0017-0.23214-0.05747-0.06887-0.06128-0.06991-0.15843-1e-3 -0.09715 0.06653-0.15782 0.06755-0.06274 0.23084-0.06448 0.16122-0.0017 0.23009 0.05956 0.07092 0.05919 0.07195 0.15634z"/>
<path d="m67.395 24.509q-1.04e-4 0.11989-0.08492 0.20043-0.08482 0.08054-0.23365 0.08041-0.14883-1.29e-4 -0.23351-0.08082-0.08468-0.08069-0.08458-0.20058 1.04e-4 -0.11989 0.08492-0.20043 0.08482-0.08054 0.23365-0.08041 0.14883 1.29e-4 0.23351 0.08082 0.08468 0.08069 0.08458 0.20058zm0.0029 1.387q-1.03e-4 0.11989-0.08492 0.20043-0.08482 0.08054-0.23365 0.08041-0.14883-1.29e-4 -0.23351-0.08082-0.08468-0.08069-0.08458-0.20058 1.03e-4 -0.11989 0.08492-0.20043 0.08482-0.08054 0.23365-0.08041 0.14883 1.29e-4 0.23351 0.08082 0.08468 0.08069 0.08458 0.20058z"/>
<path d="m70.104 25.137q-0.01301 0.11982-0.07116 0.17534-0.05608 0.05346-0.1429 0.05302-0.09302-4.69e-4 -0.15264-0.06485-0.05754-0.06644-0.05677-0.2194l0.0012-0.23771q0.50326-0.1897 0.60713-0.29253 0.10387-0.10283 0.10441-0.21032 7.6e-4 -0.15089-0.12064-0.26106-0.11934-0.11015-0.34052-0.11127-0.23357-0.0012-0.45115 0.10522l-3.12e-4 0.06201q-7.6e-4 0.15089-0.06104 0.21674-0.0582 0.06379-0.15328 0.06331-0.09302-4.68e-4 -0.15264-0.06485-0.05755-0.06437-0.05678-0.21733l0.0017-0.34106q0.3253-0.15132 0.50538-0.20003 0.18008-0.0487 0.37232-0.04773 0.401 2e-3 0.64168 0.23475 0.24068 0.23272 0.23892 0.58205-0.0012 0.24804-0.14888 0.42094-0.14557 0.1729-0.56403 0.35476zm0.08476 0.81899q-4.9e-4 0.09715-0.07108 0.15881-0.06851 0.0596-0.22974 0.05879-0.16123-8.13e-4 -0.2312-0.06111-0.0679-0.06235-0.06741-0.1595 4.9e-4 -0.09715 0.069-0.15675 0.06852-0.06167 0.23182-0.06085 0.16123 8.13e-4 0.22913 0.06317 0.06998 0.0603 0.06949 0.15745z"/>
<path d="m72.904 25.149q-0.01265 0.11986-0.07064 0.17556-0.05592 0.05363-0.14274 0.05345-0.09302-1.91e-4 -0.15283-0.06439-0.05774-0.06626-0.05743-0.21923l4.87e-4 -0.23771q0.50269-0.19121 0.60625-0.29435 0.10356-0.10314 0.10378-0.21063 3.09e-4 -0.15089-0.12142-0.2607-0.11966-0.1098-0.34084-0.11025-0.23358-4.79e-4 -0.45084 0.10656l-1.27e-4 0.06201q-3.1e-4 0.15089-0.06039 0.21692-0.05801 0.06396-0.15309 0.06377-0.09302-1.91e-4 -0.15283-0.06439-0.05775-0.0642-0.05743-0.21716l6.99e-4 -0.34106q0.32484-0.1523 0.50478-0.20154 0.17994-0.04924 0.37217-0.04885 0.40101 8.22e-4 0.64238 0.23283 0.24137 0.23201 0.24066 0.58134-5.09e-4 0.24805-0.14763 0.42138-0.14505 0.17334-0.56297 0.35645zm0.08721 0.81874q-2e-4 0.09715-0.07061 0.15902-0.06834 0.0598-0.22957 0.05947-0.16123-3.31e-4 -0.23139-0.06042-0.06809-0.06215-0.06789-0.1593 1.99e-4 -0.09715 0.06853-0.15696 0.06834-0.06187 0.23164-0.06154 0.16123 3.31e-4 0.22932 0.06248 0.07016 0.06009 0.06996 0.15724z"/>
</g>
</g>
<g stroke-width="1px">
<g fill="#e62e6c" stop-color="#000000" aria-label="Ven 23 juin">
<path d="m56.606 30.273 0.8132-0.07317 0.72901 1.759 0.39472-1.8601 0.78918-0.07101-0.70699 2.5991-0.84237 0.07579z" stop-color="#000000"/>
<path d="m61.908 31.733-1.4048 0.04847q0.02476 0.16806 0.09991 0.24819 0.10567 0.11528 0.26921 0.10964 0.10329-0.0036 0.19447-0.05842 0.05568-0.03467 0.11825-0.11956l0.69253 0.03988q-0.14888 0.28091-0.36851 0.40914-0.2197 0.12651-0.63803 0.14094-0.36324 0.01253-0.57505-0.08185-0.21187-0.0961-0.35725-0.31343-0.14372-0.2191-0.15412-0.52037-0.01479-0.42866 0.24978-0.70322 0.2663-0.27462 0.75004-0.29131 0.39251-0.01354 0.62385 0.0974 0.23134 0.11094 0.35791 0.33236 0.12657 0.22142 0.13904 0.58294zm-0.72429-0.3111q-0.02767-0.20243-0.12022-0.28714-0.09083-0.08477-0.23544-0.07978-0.16699 0.0058-0.26226 0.14176-0.06085 0.08483-0.07242 0.24897z" stop-color="#000000"/>
<path d="m62.378 30.641 0.65284-0.0035 0.0016 0.298q0.14545-0.18336 0.2949-0.26167 0.14944-0.08003 0.36476-0.08117 0.2911-0.0015 0.45566 0.17157 0.16627 0.17138 0.16818 0.53311l0.0061 1.1627-0.70451 0.0037-0.0053-1.006q-9.11e-4 -0.17225-0.06502-0.24254-0.06412-0.07201-0.17952-0.0714-0.12747 6.73e-4 -0.20619 0.09755-0.07873 0.09688-0.07741 0.34665l0.0046 0.87848-0.70107 0.0037z" stop-color="#000000"/>
<path d="m68.433 32.505-2.1048-0.02578q0.03999-0.31131 0.22592-0.58294 0.18767-0.27333 0.69692-0.64091 0.31112-0.22531 0.39869-0.3431 0.08758-0.11779 0.08888-0.22458 0.0014-0.1154-0.08372-0.19741-0.08339-0.08371-0.21257-0.08529-0.13435-0.0016-0.2215 0.0817-0.08543 0.08336-0.11733 0.29659l-0.70205-0.06545q0.04497-0.29575 0.15722-0.45975 0.11228-0.16572 0.31316-0.25112 0.20262-0.0871 0.55744-0.08275 0.37032 0.0045 0.57425 0.09144 0.20566 0.08693 0.32063 0.26405 0.11672 0.17542 0.11406 0.39244-0.0028 0.2308-0.14147 0.43927-0.13692 0.20849-0.49654 0.4556-0.21365 0.14381-0.28671 0.20149-0.07134 0.0577-0.16895 0.15125l1.0955 0.01342z" stop-color="#000000"/>
<path d="m69.562 30.723-0.66232-0.12356q0.08493-0.31635 0.32039-0.48349 0.23718-0.16713 0.66781-0.16407 0.49436 0.0035 0.71353 0.18938 0.21917 0.18587 0.21719 0.46492-0.0012 0.16364-0.09167 0.29563-0.09051 0.132-0.27208 0.23062 0.14616 0.03721 0.22333 0.08599 0.12519 0.07841 0.19319 0.20636 0.06973 0.12624 0.06848 0.30194-0.0016 0.22048-0.11842 0.42292-0.11684 0.20071-0.33466 0.30941-0.2178 0.10698-0.57092 0.10447-0.3445-0.0024-0.54374-0.08482-0.19751-0.08236-0.3256-0.23831-0.12635-0.15765-0.19358-0.39412l0.70172-0.08804q0.03983 0.21216 0.12537 0.29545 0.08727 0.08158 0.22163 0.08254 0.14124 1e-3 0.23499-0.10169 0.09547-0.10268 0.09669-0.27493 0.0012-0.1757-0.08936-0.2728-0.08888-0.0971-0.24391-0.0982-0.08268-5.88e-4 -0.22766 0.03973l0.03973-0.50099q0.0585 9e-3 0.09123 0.0093 0.1378 9.79e-4 0.22972-0.08622 0.09364-0.08719 0.09449-0.20776 8.2e-4 -0.11541-0.06759-0.1848-0.06841-0.06939-0.18899-0.07025-0.12402-8.81e-4 -0.20207 0.07436-0.07804 0.07352-0.10693 0.26107z" stop-color="#000000"/>
<path d="m72.961 29.986 0.70262-0.01597 0.01096 0.48219-0.70262 0.01597zm0.01581 0.69573 0.70262-0.01597 0.04031 1.7738q0.0077 0.33925-0.03902 0.4816-0.04501 0.14231-0.17562 0.23315-0.1306 0.09084-0.37686 0.09644-0.20321 0.0046-0.50594-0.04881l0.09346-0.51213q0.08477 0.0153 0.12438 0.0144 0.08955-2e-3 0.13464-0.06509 0.04513-0.06133 0.04098-0.24387z" stop-color="#000000"/>
<path d="m76.224 32.378-0.65354 0.03658-0.01656-0.29581q-0.13598 0.19049-0.28128 0.27626-0.14358 0.08567-0.36028 0.0978-0.28894 0.01617-0.46367-0.14657-0.17311-0.16456-0.19323-0.52401l-0.06508-1.1626 0.70342-0.03937 0.05622 1.0044q0.0096 0.17198 0.07731 0.24066 0.06768 0.06867 0.18291 0.06222 0.12555-7e-3 0.19927-0.10777 0.07544-0.10084 0.06148-0.35022l-0.04919-0.87884 0.69998-0.03918z" stop-color="#000000"/>
<path d="m76.541 29.81 0.6972-0.07364 0.05012 0.4745-0.6972 0.07364zm0.0731 0.69206 0.6972-0.07364 0.19215 1.8192-0.6972 0.07364z" stop-color="#000000"/>
<path d="m77.74 30.4 0.64142-0.12161 0.05551 0.29278q0.10984-0.20667 0.24264-0.31074 0.13248-0.10576 0.34403-0.14587 0.28602-0.05423 0.4792 0.08622 0.19456 0.13844 0.26194 0.49384l0.21659 1.1424-0.69219 0.13124-0.18739-0.98836q-0.03209-0.16924-0.10786-0.22676-0.07609-0.05921-0.18949-0.03771-0.12524 0.02374-0.18512 0.13328-0.05988 0.10953-0.01336 0.35493l0.16364 0.86312-0.6888 0.13059z" stop-color="#000000"/>
</g>
<g fill="#333" stop-color="#000000" aria-label=" ??:??">
<path d="m61.664 36.509q-0.0093 0.12017-0.06571 0.17746-0.0544 0.05517-0.14119 0.05742-0.09299 0.0024-0.15457-0.0601-0.05957-0.06463-0.06353-0.21754l-0.0062-0.23763q0.49715-0.20517 0.5978-0.31116t0.09786-0.21344q-0.0039-0.15084-0.12865-0.25721-0.12263-0.10642-0.34373-0.1007-0.2335 6e-3 -0.44769 0.11911l0.0016 0.06199q0.0039 0.15084-0.05431 0.21852-0.0562 0.06556-0.15125 0.06802-0.09299 0.0024-0.15457-0.0601-0.05952-0.06256-0.06347-0.21547l-0.0088-0.34095q0.32046-0.16131 0.49895-0.21555 0.17849-0.05425 0.37066-0.05922 0.40088-0.01038 0.64863 0.2148 0.24776 0.22518 0.25679 0.57439 0.0064 0.24796-0.1358 0.42534-0.14015 0.17732-0.5528 0.37203zm0.11003 0.81598q0.0025 0.09712-0.06614 0.16093-0.06664 0.06169-0.22782 0.06586-0.16118 0.0042-0.23298-0.05393-0.06979-0.06023-0.07231-0.15734-0.0025-0.09712 0.06412-0.15881 0.06659-0.06376 0.22983-0.06798 0.16118-0.0042 0.23097 0.05606 0.07181 0.05811 0.07432 0.15522z"/>
<path d="m64.496 36.487q-0.01259 0.11987-0.07056 0.17559-0.0559 0.05365-0.14271 0.05352-0.09302-1.49e-4 -0.15286-0.06432-0.05777-0.06624-0.05753-0.2192l3.81e-4 -0.23771q0.5026-0.19143 0.60612-0.29462 0.10352-0.10319 0.10369-0.21067 2.42e-4 -0.1509-0.12154-0.26064-0.11971-0.10975-0.34089-0.1101-0.23358-3.75e-4 -0.45079 0.10676l-1e-4 0.06201q-2.42e-4 0.1509-0.06029 0.21694-0.05798 0.06399-0.15306 0.06383-0.09302-1.49e-4 -0.15286-0.06432-0.05777-0.06417-0.05753-0.21713l5.47e-4 -0.34106q0.32477-0.15244 0.50468-0.20176 0.17991-0.04932 0.37215-0.04901 0.40101 6.43e-4 0.64248 0.23254 0.24147 0.2319 0.24091 0.58123-3.97e-4 0.24805-0.14744 0.42144-0.14497 0.1734-0.56281 0.3567zm0.08757 0.8187q-1.56e-4 0.09715-0.07054 0.15905-0.06831 0.05984-0.22954 0.05958-0.16123-2.58e-4 -0.23141-0.06031-0.06811-0.06212-0.06796-0.15927 1.56e-4 -0.09715 0.06846-0.15699 0.06831-0.0619 0.23161-0.06164 0.16123 2.58e-4 0.22934 0.06238 0.07018 0.06006 0.07003 0.15721z"/>
<path d="m67.422 35.898q-0.0014 0.11988-0.08714 0.19948-0.08571 0.0796-0.23452 0.07782-0.14882-0.0018-0.2326-0.0834-0.08378-0.08162-0.08235-0.2015 0.0014-0.11988 0.08714-0.19948 0.08571-0.0796 0.23452-0.07782 0.14882 0.0018 0.2326 0.0834 0.08378 0.08162 0.08235 0.2015zm-0.01245 1.3869q-0.0014 0.11988-0.08714 0.19948-0.08571 0.0796-0.23452 0.07782-0.14882-0.0018-0.2326-0.0834-0.08378-0.08162-0.08235-0.2015 0.0014-0.11988 0.08714-0.19948 0.08571-0.0796 0.23452-0.07782 0.14882 0.0018 0.2326 0.0834 0.08378 0.08162 0.08235 0.2015z"/>
<path d="m70.115 36.544q-0.01325 0.1198-0.07152 0.1752-0.05619 0.05335-0.143 0.05274-0.09302-6.56e-4 -0.15251-0.06516-0.05741-0.06655-0.05633-0.21951l0.0017-0.2377q0.50364-0.18869 0.60772-0.29131 0.10408-0.10262 0.10484-0.2101 0.0011-0.15089-0.12012-0.2613-0.11911-0.1104-0.34028-0.11196-0.23357-0.0016-0.45136 0.1043l-4.38e-4 0.06201q-0.0011 0.15089-0.06147 0.21661-0.05833 0.06367-0.15341 0.063-0.09301-6.56e-4 -0.15251-0.06516-0.05742-0.06449-0.05634-0.21744l0.0024-0.34106q0.3256-0.15067 0.50578-0.19901 0.18018-0.04834 0.37241-0.04698 0.401 0.0028 0.6412 0.23604 0.24021 0.23321 0.23774 0.58253-0.0018 0.24804-0.14973 0.42063-0.14592 0.17261-0.56475 0.35362zm0.08311 0.81916q-6.85e-4 0.09715-0.0714 0.15866-0.06863 0.05946-0.22986 0.05832-0.16123-0.0011-0.23108-0.06158-0.06777-0.06249-0.06709-0.15964 6.85e-4 -0.09715 0.06932-0.15661 0.06865-0.06153 0.23194-0.06038 0.16123 0.0011 0.229 0.06363 0.06985 0.06044 0.06917 0.15759z"/>
<path d="m72.896 36.534q-0.01061 0.12006-0.06764 0.17673-0.055 0.05457-0.14181 0.05587-0.09301 0.0014-0.1539-0.06178-0.05886-0.06527-0.06115-0.21822l-0.0036-0.23768q0.49936-0.19974 0.60115-0.30462 0.10179-0.10489 0.10018-0.21236-0.0023-0.15088-0.12584-0.25859-0.12152-0.10775-0.34267-0.10444-0.23355 0.0035-0.44896 0.11422l9.28e-4 0.06201q0.0023 0.15088-0.05669 0.21791-0.05691 0.06494-0.15198 0.06636-0.09301 0.0014-0.1539-0.06178-0.05883-0.06321-0.06112-0.21615l-0.0051-0.34103q0.3222-0.1578 0.50127-0.2101 0.17907-0.0523 0.37128-0.05517 0.40096-6e-3 0.64625 0.22186 0.24528 0.22786 0.25052 0.57716 0.0037 0.24802-0.14043 0.42383-0.14208 0.17578-0.55682 0.36598zm0.10113 0.81713q0.0015 0.09714-0.06789 0.1602-0.06731 0.06096-0.22852 0.06337-0.16121 0.0024-0.23238-0.05647-0.06913-0.06098-0.07059-0.15812-0.0015-0.09714 0.06585-0.1581 0.06728-0.06303 0.23056-0.06547 0.16121-0.0024 0.23035 0.05857 0.07117 0.05888 0.07262 0.15603z"/>
</g>
<g fill="#e62e6c" stop-color="#000000" aria-label="Jeu 22 juin">
<path d="m57.946 18.832 0.77908-0.06785 0.11912 1.3677q0.03751 0.43073-0.02013 0.66226-0.05593 0.23138-0.27399 0.40772-0.21635 0.17619-0.57672 0.20758-0.38096 0.03318-0.59929-0.05155-0.21833-0.08473-0.35049-0.27206-0.1306-0.1892-0.1766-0.47914l0.73423-0.16596q0.01621 0.16631 0.05069 0.24457 0.03448 0.07826 0.10403 0.12235 0.04746 0.02872 0.12983 0.02154 0.13042-0.01136 0.18211-0.11269 0.05326-0.1032 0.03323-0.33315z" stop-color="#000000"/>
<path d="m61.549 20.419-1.4043 0.060757q0.02623 0.16783 0.10208 0.24731 0.10667 0.11435 0.27016 0.10728 0.10326-0.0045 0.19395-0.06012 0.05538-0.03515 0.1172-0.12059l0.69285 0.03382q-0.14641 0.2822-0.36492 0.41234-0.21858 0.12842-0.63677 0.14652-0.36312 0.01571-0.57574-0.07681-0.2127-0.09425-0.35998-0.31029-0.14563-0.21784-0.15866-0.519-0.01854-0.42851 0.24362-0.70538 0.26388-0.27694 0.74746-0.29786 0.39237-0.01698 0.62467 0.09194 0.2323 0.10892 0.3608 0.32922 0.1285 0.2203 0.14413 0.5817zm-0.72698-0.30476q-0.02944-0.20218-0.12272-0.28607-0.09157-0.08397-0.23612-0.07772-0.16693 0.0072-0.26101 0.14405-0.0601 0.08536-0.07024 0.24959z" stop-color="#000000"/>
<path d="m63.963 21.114-0.65445 0.01236-0.005592-0.29623q-0.14294 0.18532-0.29132 0.26565-0.14665 0.0803-0.36365 0.08439-0.28934 0.0055-0.45792-0.16364-0.1669-0.17086-0.17369-0.5308l-0.02198-1.1642 0.7044-0.0133 0.01899 1.0058q0.0033 0.17222 0.06834 0.24336 0.06509 0.07113 0.18048 0.06895 0.12572-0.0024 0.20313-0.10032 0.07912-0.09797 0.07441-0.3477l-0.01661-0.88006 0.70095-0.01323z" stop-color="#000000"/>
<path d="m68.082 21.104-2.1049-0.0018q0.03644-0.31175 0.21927-0.58548 0.18455-0.27545 0.68958-0.64881 0.30853-0.22883 0.39476-0.34762 0.08623-0.11878 0.08632-0.22558 9.9e-5 -0.11541-0.08596-0.19644-0.08433-0.08275-0.21352-0.08287-0.13436-1.15e-4 -0.22056 0.08421-0.08448 0.08433-0.11394 0.2979l-0.70275-0.05745q0.0416-0.29624 0.15198-0.46151 0.11039-0.16699 0.31028-0.25467 0.20162-0.0894 0.55646-0.08909 0.37035 3.18e-4 0.57526 0.0849 0.20663 0.08458 0.32362 0.26038 0.11871 0.17408 0.11852 0.39112-1.99e-4 0.23082-0.13646 0.44085-0.13454 0.21004-0.49132 0.46122-0.212 0.14623-0.2844 0.20474-0.07068 0.05851-0.16722 0.15316l1.0955 9.43e-4z" stop-color="#000000"/>
<path d="m70.57 21.117-2.1049-0.01038q0.03771-0.3116 0.22165-0.58458 0.18567-0.2747 0.69221-0.64599 0.30946-0.22757 0.39617-0.346 0.08671-0.11843 0.08724-0.22522 5.69e-4 -0.11541-0.08516-0.19679-0.084-0.0831-0.21318-0.08374-0.13436-6.62e-4 -0.2209 0.08332-0.08482 0.08399-0.11516 0.29744l-0.70251-0.06031q0.0428-0.29607 0.15386-0.46089 0.11107-0.16654 0.31131-0.2534 0.20198-0.08858 0.55682-0.08683 0.37034 0.0018 0.57491 0.08724 0.20629 0.08542 0.32255 0.2617 0.118 0.17456 0.11692 0.3916-0.0011 0.23082-0.13826 0.44029-0.13539 0.20949-0.49319 0.45922-0.21259 0.14537-0.28523 0.20358-0.07091 0.05822-0.16784 0.15248l1.0955 0.0054z" stop-color="#000000"/>
<path d="m72.677 18.601 0.7028 9.9e-4 -6.8e-4 0.48231-0.7028-9.91e-4zm-9.81e-4 0.69591 0.7028 9.91e-4 -0.0025 1.7742q-4.78e-4 0.33934-0.05063 0.48052-0.04843 0.14118-0.18119 0.22884-0.13276 0.08766-0.37908 0.08732-0.20326-2.86e-4 -0.50462-0.061l0.10579-0.50972q0.08438 0.01734 0.124 0.0174 0.08957 1.26e-4 0.13617-0.06182 0.04659-0.06022 0.04685-0.24281z" stop-color="#000000"/>
<path d="m75.885 21.116-0.65455 0.0045-2e-3 -0.29627q-0.14516 0.18359-0.29449 0.26213-0.1476 0.07853-0.36464 0.08001-0.28938 2e-3 -0.45592-0.16913-0.16483-0.17285-0.1673-0.53286l-8e-3 -1.1644 0.7045-0.0048 0.0069 1.0059q0.0012 0.17225 0.06541 0.24416 0.06423 0.07191 0.17964 0.07112 0.12574-8.62e-4 0.20432-0.09786 0.0803-0.09701 0.07859-0.34678l-6e-3 -0.8802 0.70106-0.0048z" stop-color="#000000"/>
<path d="m76.405 18.581 0.70092-0.01495 0.01018 0.47704-0.70092 0.01495zm0.01484 0.69575 0.70092-0.01495 0.03902 1.8289-0.70092 0.01495z" stop-color="#000000"/>
<path d="m77.652 19.256 0.65202-0.03286 0.015 0.29762q0.13704-0.18973 0.28281-0.27468 0.14568-0.08668 0.36073-0.09752 0.29074-0.01465 0.46293 0.15087 0.17382 0.16371 0.19203 0.52499l0.05852 1.1612-0.70363 0.03546-0.05063-1.0047q-0.0087-0.17204-0.07588-0.23936-0.0673-0.06905-0.18256-0.06324-0.12731 0.0064-0.20159 0.10674-0.07428 0.10033-0.06171 0.34978l0.04421 0.87738-0.70019 0.03528z" stop-color="#000000"/>
</g>
</g>
<path d="m27.195 21.701c7.6215-0.18305 23.19-0.47381 25.675 0.96136" fill="none" stop-color="#000000" style="-inkscape-stroke:none;font-variation-settings:normal"/>
<path d="m52.85 17.129-0.0156 27.912c0.26542-0.52572 0.9874-1.2265 1.3238-1.5085l1.0971 0.91387-0.23317-28.225c-0.7327 0.19406-1.4712 0.31532-2.1721 0.90818z" fill="#e62e6c" fill-rule="evenodd" stop-color="#000000" stroke="#8c113a" stroke-linecap="round" stroke-linejoin="round" stroke-width=".3" style="-inkscape-stroke:none;font-variation-settings:normal"/>
<path d="m27.17 33.006c9.1425-0.14416 25.02 0.28494 25.68 0.74096" fill="none" stop-color="#000000" style="-inkscape-stroke:none;font-variation-settings:normal"/>
<g fill="#e62e6c" stop-color="#000000" stroke-width="1px" aria-label="Lun 19 juin">
<path d="m27.322 19.172 0.78011-0.01766 0.04308 1.9029 1.2175-0.02757 0.01407 0.62168-1.9976 0.04523z"/>
<path d="m31.807 21.604-0.65445 0.01224-0.0055-0.29623q-0.14298 0.1853-0.29136 0.2656-0.14666 0.08027-0.36367 0.08433-0.28934 0.0054-0.45789-0.16372-0.16687-0.17089-0.1736-0.53084l-0.02178-1.1642 0.7044-0.01318 0.01881 1.0058q0.0032 0.17222 0.0683 0.24337 0.06508 0.07114 0.18047 0.06898 0.12572-0.0024 0.20314-0.10028 0.07914-0.09796 0.07447-0.34768l-0.01646-0.88007 0.70095-0.01311z"/>
<path d="m32.342 19.766 0.65278-0.0089 4e-3 0.29797q0.14392-0.18456 0.29272-0.2641 0.14877-0.08126 0.36407-0.08419 0.29108-0.0039 0.45707 0.16779 0.16769 0.16999 0.1726 0.5317l0.01578 1.1626-0.70446 0.0096-0.01365-1.0059q-0.0023-0.17224-0.06702-0.24199-0.06471-0.07147-0.18011-0.06991-0.12746 0.0017-0.20538 0.09926-0.07792 0.09753-0.07453 0.34727l0.01192 0.87842-0.70101 0.0095z"/>
<path d="m37.949 18.978 0.0065 2.5683-0.70969 0.0018-0.0043-1.6829q-0.17192 0.13135-0.33364 0.21272-0.15999 0.08136-0.40268 0.15605l-0.0015-0.57533q0.358-0.11632 0.55568-0.27874t0.30905-0.40041z"/>
<path d="m38.888 20.979 0.6982-0.08323q0.02659 0.1466 0.09165 0.20732 0.06506 0.06072 0.15979 0.06135 0.16881 0.0011 0.26467-0.16878 0.06973-0.12529 0.10687-0.53157-0.1266 0.12836-0.25963 0.18776t-0.307 0.05826q-0.33933-0.0022-0.572-0.24495-0.23094-0.24269-0.2285-0.61131 0.0017-0.25149 0.12189-0.4574 0.12022-0.20591 0.32934-0.30961 0.20913-0.10542 0.52435-0.10333 0.37895 0.0025 0.60718 0.13494 0.22824 0.1307 0.36243 0.41582 0.13593 0.2834 0.13285 0.74848-0.0045 0.68384-0.2943 1.0006-0.28976 0.31504-0.79962 0.31166-0.30144-2e-3 -0.47496-0.07205-0.1735-0.07177-0.28802-0.20689-0.11452-0.13512-0.17519-0.33706zm1.2993-1.118q0.0014-0.20498-0.10123-0.32107-0.10258-0.11782-0.25071-0.1188-0.13952-9.24e-4 -0.23323 0.10353-0.09199 0.10447-0.09338 0.31461-0.0014 0.21187 0.09259 0.32446 0.09572 0.1126 0.23869 0.11355 0.14814 9.8e-4 0.24704-0.10689 0.0989-0.10787 0.10024-0.3094z"/>
<path d="m43.07 19.07 0.70259 0.01723-0.01183 0.48217-0.70259-0.01723zm-0.01706 0.6957 0.70259 0.01723-0.0435 1.7737q-0.0083 0.33924-0.06172 0.47922-0.05168 0.14002-0.18643 0.2246-0.13475 0.08457-0.381 0.07853-0.2032-5e-3 -0.50308-0.07264l0.11754-0.50714q0.08396 0.01929 0.12356 0.02026 0.08955 0.0022 0.13756-0.05866 0.04797-0.05913 0.05245-0.24166z"/>
<path d="m46.214 21.7-0.65406-0.02566 0.01162-0.29605q-0.15346 0.17671-0.30625 0.24829-0.15106 0.07165-0.36794 0.06314-0.28917-0.011351-0.44765-0.18996-0.1567-0.18026-0.14258-0.53999l0.04565-1.1635 0.70398 0.02762-0.03944 1.0052q-0.0068 0.17212 0.0541 0.24691 0.06085 0.07479 0.17617 0.07932 0.12565 0.0049 0.20861-0.08835 0.08468-0.09321 0.09447-0.34279l0.03451-0.87954 0.70054 0.02749z"/>
<path d="m46.947 19.213 0.69983 0.04172-0.0284 0.4763-0.69983-0.04172zm-0.04142 0.69467 0.69983 0.04172-0.10887 1.8261-0.69983-0.04172z"/>
<path d="m48.249 19.983 0.64995 0.06141-0.02803 0.29668q0.16294-0.16801 0.31943-0.23108 0.15665-0.06479 0.37101-0.04454 0.28982 0.02738 0.43637 0.21598 0.14843 0.18705 0.1144 0.54718l-0.10937 1.1576-0.7014-0.06627 0.09462-1.0015q0.0162-0.17149-0.04061-0.2478-0.05665-0.07802-0.17154-0.08888-0.1269-0.01199-0.21486 0.07659t-0.11145 0.33724l-0.08263 0.8746-0.69796-0.065935z"/>
</g>
<g fill="#e62e6c" stop-color="#000000" stroke-width="1px" aria-label="Mar 20 juin">
<path d="m27.394 30.473 1.0266-0.0086 0.40898 1.5332 0.38164-1.5397 1.0232-0.0085 0.02105 2.5252-0.63732 0.0053-0.01606-1.9257-0.4783 1.9299-0.57703 0.0048-0.50869-1.9216 0.01605 1.9257-0.63904 0.0053z" stop-color="#000000"/>
<path d="m31.475 31.741-0.66994-0.07183q0.03821-0.17563 0.10901-0.27541 0.07253-0.1015 0.20702-0.17533 0.09656-0.05323 0.26542-0.08221 0.16886-0.02898 0.36523-0.02863 0.31522 5.65e-4 0.50636 0.03708 0.19114 0.03479 0.31841 0.14699 0.08943 0.07768 0.14085 0.22074 0.05142 0.14134 0.05119 0.27053l-0.0014 0.80787q-2.31e-4 0.12919 0.01514 0.20329 0.0171 0.07238 0.07201 0.18616l-0.65801-0.0012q-0.03949-0.0707-0.05148-0.10689-0.01199-0.03792-0.02391-0.11718-0.13804 0.13239-0.27422 0.18899-0.18617 0.07546-0.43249 0.07502-0.32728-5.87e-4 -0.49754-0.15248-0.16858-0.15186-0.16818-0.37406 3.73e-4 -0.20843 0.12292-0.34257 0.12254-0.13414 0.45166-0.19901 0.3946-0.07853 0.51179-0.10933 0.11719-0.03252 0.2482-0.08396 2.32e-4 -0.12919-0.05307-0.18096-0.05331-0.05177-0.18766-0.05201-0.17225-3.09e-4 -0.25848 0.05466-0.06726 0.04294-0.10881 0.16172zm0.6074 0.36971q-0.14479 0.05142-0.30161 0.09075-0.2137 0.05646-0.27064 0.11148-0.05867 0.05674-0.0588 0.12908-1.48e-4 0.08268 0.0566 0.13618 0.05847 0.05178 0.17044 0.05198 0.11713 2.1e-4 0.21714-0.05645 0.10173-0.05666 0.14322-0.13755 0.04321-0.08261 0.04345-0.21352z" stop-color="#000000"/>
<path d="m33.343 31.154 0.65627 0.0048-0.0022 0.29972q0.09615-0.19396 0.19658-0.26558 0.10216-0.07333 0.2503-0.07226 0.15502 0.0011 0.33863 0.09892l-0.22066 0.49795q-0.12364-0.05258-0.19599-0.0531-0.1378-1e-3 -0.21441 0.11214-0.10968 0.1594-0.11287 0.59864l-0.0044 0.61321-0.7045-0.0051z" stop-color="#000000"/>
<path d="m38.587 33.046-2.1047-0.03253q0.04099-0.31118 0.22779-0.58221 0.18855-0.27273 0.69897-0.63868 0.31184-0.22431 0.39979-0.34182 0.08795-0.11751 0.0896-0.2243 0.0018-0.1154-0.08308-0.19768-0.08312-0.08398-0.21229-0.08597-0.13434-0.0021-0.22176 0.08099-0.0857 0.08309-0.11828 0.29621l-0.70184-0.0677q0.04592-0.2956 0.1587-0.45924 0.11281-0.16536 0.31396-0.25011 0.2029-0.08645 0.5577-0.08096 0.3703 0.0057 0.57396 0.09328 0.20538 0.08759 0.31978 0.26508 0.11615 0.17579 0.1128 0.39281-0.0036 0.23079-0.14288 0.43882-0.13759 0.20805-0.498 0.454-0.21411 0.14312-0.28735 0.20057-0.07152 0.05747-0.16944 0.15071l1.0954 0.01693z" stop-color="#000000"/>
<path d="m39.05 31.781q0.01497-0.71987 0.27928-1.0021 0.26603-0.28219 0.79646-0.27116 0.25488 0.0053 0.41716 0.07242 0.16232 0.0654 0.26353 0.16916 0.10125 0.10204 0.15748 0.21519 0.05798 0.11147 0.09107 0.26033 0.06473 0.2839 0.05836 0.59045-0.01429 0.68715-0.25341 1.0009-0.23912 0.31377-0.80744 0.30195-0.3186-0.0066-0.51282-0.11232-0.19421-0.10569-0.31585-0.30463-0.08837-0.14139-0.13502-0.38357-0.04489-0.24386-0.0388-0.53663zm0.69572 0.01619q-0.01003 0.48221 0.07067 0.66135 0.08246 0.17745 0.24434 0.18082 0.10678 0.0022 0.18581-0.07022 0.0808-0.07413 0.12033-0.23526 0.04125-0.1611 0.04838-0.50381 0.01046-0.50287-0.07207-0.67688-0.08077-0.17569-0.25126-0.17924-0.17394-0.0036-0.25513 0.17215-0.08115 0.17405-0.09107 0.65109z" stop-color="#000000"/>
<path d="m43.251 30.627 0.7025 0.02041-0.01401 0.48211-0.7025-0.02041zm-0.02021 0.69561 0.7025 0.02041-0.05153 1.7735q-0.0099 0.3392-0.06389 0.47894-0.05231 0.13979-0.18744 0.22375-0.13513 0.08396-0.38135 0.07681-0.20318-0.0059-0.50274-0.07492l0.11984-0.50661q0.08387 0.01967 0.12347 0.02082 0.08953 0.0026 0.13782-0.05803 0.04824-0.05891 0.05354-0.24142z" stop-color="#000000"/>
<path d="m46.386 33.255-0.65417-0.02274 0.01029-0.2961q-0.15267 0.17739-0.30514 0.24965-0.15074 0.07232-0.36765 0.06478-0.28921-0.01006-0.44849-0.18795-0.1575-0.17956-0.14499-0.53935l0.04046-1.1637 0.7041 0.02448-0.03495 1.0054q-6e-3 0.17215 0.0552 0.24667 0.06118 0.07452 0.17652 0.07853 0.12567 0.0044 0.20821-0.08928 0.08426-0.09359 0.09294-0.34321l0.03059-0.87969 0.70065 0.02436z" stop-color="#000000"/>
<path d="m47.083 30.756 0.70045 0.0295-0.02008 0.47672-0.70046-0.0295zm-0.02929 0.69529 0.70045 0.0295-0.07698 1.8277-0.70045-0.0295z" stop-color="#000000"/>
<path d="m48.364 31.505 0.65188 0.0354-0.01616 0.29756q0.1561-0.17438 0.30995-0.24366 0.15394-0.07099 0.36894-0.05932 0.29068 0.01579 0.44465 0.19838 0.15578 0.18097 0.13616 0.54217l-0.06305 1.161-0.70348-0.0382 0.05455-1.0045q0.0093-0.172-0.05047-0.24598-0.05972-0.0757-0.17496-0.08196-0.12728-0.0069-0.21163 0.08511-0.08435 0.09202-0.0979 0.34142l-0.04764 0.8772-0.70004-0.03802z" stop-color="#000000"/>
</g>
</g>
</svg>
