<?xml version="1.0" encoding="UTF-8"?>
<svg width="80.3mm" height="66.075mm" version="1.1" viewBox="0 0 80.3 66.075" xmlns="http://www.w3.org/2000/svg">
<g transform="translate(2.65 -29.85)">
<g fill="#000000" letter-spacing=".11642px" word-spacing="0px">
<text x="15" y="22" font-family="'DIN Pro'" font-size="3.8806px" style="line-height:1.2" xml:space="preserve"/>
<g font-family="'Segoe Print QD'" font-size="4.5861px">
<text x="33.970589" y="151.16911" style="line-height:1.2" xml:space="preserve"/>
<text x="70" y="36.999996" style="line-height:1.2" xml:space="preserve"/>
<text x="112.78386" y="206.3463" style="line-height:1.2" xml:space="preserve"/>
</g>
</g>
<g stroke-width=".26458px">
<path d="m13.056 41.554q0.0045-0.12988-0.19034-0.67179-0.36949-1.0099-0.36949-1.4063 0-0.31574 0.2105-0.31574 0.20602 0 0.20602 0.28215 0 0.23065 0.01344 0.35605 0.01567 0.12316 0.10749 0.45458 0.09181 0.32918 0.20154 0.61133 0.05598 0.1478 0.08061 0.22617 0.04703-0.07166 0.12092-0.19706 0.39412-0.66284 0.62701-1.0211 0.23513-0.35829 0.38292-0.52176 0.1478-0.16347 0.21721-0.19482 0.06942-0.03359 0.14108-0.03359 0.08733 0 0.1366 0.0627 0.0515 0.0627 0.0515 0.14332 0 0.10525-0.18362 0.22841-0.17243 0.11644-0.50832 0.58446-0.3359 0.46802-0.72554 1.1936-0.1993 0.36725-0.30679 0.36725-0.09405 0-0.21273-0.1478zm3.0592-3.0253q-0.04703 0-0.07166-0.10077-9e-3 -0.03135-0.02463-0.06942-0.06046-0.14556-0.06046-0.25304 0-0.08957 0.10525-0.18138 0.10749-0.09405 0.23737-0.09405 0.06494 0 0.14556 0.0515 0.08062 0.04926 0.08062 0.09629 0 0.0739-0.05598 0.2508-0.05374 0.17691-0.17467 0.23961-0.11868 0.06046-0.18138 0.06046zm-0.29335 2.5013q0 0.17019 0.04702 0.38292 9e-3 0.04031 9e-3 0.06718 0 0.04031-0.0739 0.10301-0.0739 0.06494-0.15675 0.06494-0.21721 0-0.21721-0.3986 0-0.41203 0.17019-1.3033 0.05822-0.31126 0.05822-0.38292 0-0.14108 0.0515-0.23961 0.0515-0.10077 0.14556-0.10077 0.1142 0 0.17914 0.05598 0.06718 0.05374 0.06718 0.12092 0 0.06718-0.03135 0.17691-0.16795 0.59118-0.20826 0.84646-0.04031 0.25528-0.04031 0.60685zm2.0739-1.7623q0.23065-0.01791 0.43443-0.04255 0.20154-0.02239 0.3359-0.02239 0.17019 0 0.21497 0.03135 0.04479 0.03135 0.04479 0.10973 0 0.18138-0.25304 0.19706-0.3247 0.02015-0.5979 0.05598t-0.29559 0.06046q-0.02015 0.02239-0.13436 0.53296-0.1142 0.50832-0.1142 0.6606 0 0.24632 0.06494 0.32918 0.06494 0.08061 0.19482 0.08061 0.19258 0 0.5352-0.28887 0.13212-0.11868 0.20378-0.11868 0.09629 0 0.09629 0.10301 0 0.16123-0.31126 0.41875-0.30902 0.25528-0.63372 0.25528-0.54191 0-0.54191-0.6382 0-0.23065 0.11197-0.71434 0.10973-0.48145 0.10973-0.57774 0-0.03359-0.05374-0.03359l-0.23289 0.02015q-0.28663 0-0.28663-0.22841 0-0.12988 0.13212-0.12988h0.4613q0.04703 0 0.08286-0.04255t0.10525-0.28439q0.06942-0.24408 0.12316-0.48145 0.05374-0.23513 0.2105-0.23513 0.09629 0 0.15003 0.06718 0.05374 0.06718 0.05374 0.1254 0 0.03135-0.08062 0.32022zm3.4198 1.5003q0 0.22841-0.40532 0.55087-0.40308 0.32246-0.83302 0.32246-0.36053 0-0.55759-0.21273-0.19482-0.21274-0.19482-0.59342 0-0.64044 0.43219-1.2182 0.43219-0.57774 0.94499-0.57774 0.16795 0 0.2732 0.10973 0.10749 0.10973 0.10749 0.26424 0 0.34485-0.33814 0.6606t-0.90468 0.62029q-0.11644 0.06046-0.11644 0.15675 0 0.18586 0.10749 0.29783 0.10749 0.11196 0.31798 0.11196 0.48145 0 0.98306-0.53296 0.0739-0.0739 0.11197-0.0739 0.07166 0 0.07166 0.1142zm-1.5563-0.34933q0.94947-0.56431 0.94947-0.90692 0-0.13436-0.12092-0.13436-0.20602 0-0.46578 0.30231-0.25752 0.30231-0.36277 0.73897zm3.4153 0.59566q0-0.14556-0.35829-0.33142-0.45458-0.23289-0.61581-0.37173-0.15899-0.14108-0.15899-0.3135 0-0.44562 0.44562-0.73897 0.44786-0.29335 0.73002-0.29335 0.18138 0 0.262 0.0627 0.08286 0.0627 0.08286 0.21721 0 0.06942-0.06046 0.11868-0.05822 0.04926-0.09181 0.04926-0.02463 0-0.09629-0.03359-0.07166-0.03135-0.09405-0.03135-0.11196 0-0.45458 0.16347t-0.34262 0.36949q0 0.1254 0.12092 0.22841 0.12092 0.10077 0.43443 0.24856 0.25304 0.12092 0.40308 0.25976 0.15227 0.1366 0.15227 0.32246 0 0.34261-0.4725 0.53744-0.4725 0.19258-0.90244 0.19258-0.36277 0-0.36277-0.24632 0-0.08509 0.08061-0.1254 0.08285-0.04031 0.16571-0.04031 0.03359 0 0.12764 0.02239 0.09181 0.02239 0.12092 0.02239 0.24856 0 0.53296-0.08285t0.35157-0.20602zm2.2105 0q0-0.14556-0.35829-0.33142-0.45458-0.23289-0.61581-0.37173-0.15899-0.14108-0.15899-0.3135 0-0.44562 0.44562-0.73897 0.44786-0.29335 0.73002-0.29335 0.18138 0 0.262 0.0627 0.08285 0.0627 0.08285 0.21721 0 0.06942-0.06046 0.11868-0.05822 0.04926-0.09181 0.04926-0.02463 0-0.09629-0.03359-0.07166-0.03135-0.09405-0.03135-0.11197 0-0.45458 0.16347-0.34261 0.16347-0.34261 0.36949 0 0.1254 0.12092 0.22841 0.12092 0.10077 0.43443 0.24856 0.25304 0.12092 0.40308 0.25976 0.15227 0.1366 0.15227 0.32246 0 0.34261-0.47249 0.53744-0.4725 0.19258-0.90244 0.19258-0.36277 0-0.36277-0.24632 0-0.08509 0.08062-0.1254 0.08285-0.04031 0.16571-0.04031 0.03359 0 0.12764 0.02239 0.09181 0.02239 0.12092 0.02239 0.24856 0 0.53296-0.08285 0.28439-0.08285 0.35157-0.20602zm3.001-0.24632q0 0.22841-0.40532 0.55087-0.40308 0.32246-0.83302 0.32246-0.36053 0-0.55759-0.21273-0.19482-0.21274-0.19482-0.59342 0-0.64044 0.43219-1.2182 0.43219-0.57774 0.94499-0.57774 0.16795 0 0.2732 0.10973 0.10749 0.10973 0.10749 0.26424 0 0.34485-0.33814 0.6606t-0.90468 0.62029q-0.11644 0.06046-0.11644 0.15675 0 0.18586 0.10749 0.29783 0.10749 0.11196 0.31798 0.11196 0.48145 0 0.98306-0.53296 0.0739-0.0739 0.11196-0.0739 0.07166 0 0.07166 0.1142zm-1.5563-0.34933q0.94947-0.56431 0.94947-0.90692 0-0.13436-0.12092-0.13436-0.20602 0-0.46578 0.30231-0.25752 0.30231-0.36277 0.73897z" aria-label="vitesse"/>
<path d="m33.058 39.68q-0.04926 0-0.1366-0.03807-0.09629-0.03359-0.14108-0.03359-0.03359 0-0.09853 0.0112-0.06718 0.01344-0.10301 0.01344-0.06942 0-0.20154-0.01344-0.13436-0.01344-0.22169-0.01344-0.16571 0-0.43667 0.03135-0.2732 0.03359-0.44562 0.03359-0.09629 0-0.14108-0.02911-0.04479-0.03135-0.04479-0.13884 0-0.06494 0.03807-0.11868 0.04031-0.05598 0.23513-0.08733 0.19482-0.03359 0.31574-0.03359 0.04926 0 0.14108 0.0112 0.12316 9e-3 0.42099 0.0022 0.29783-9e-3 0.45906-0.04479 0.01344-0.0045 0.17019-0.0022 0.15899 0.0022 0.25976 0.07838 0.10301 0.0739 0.10301 0.17914 0 0.19258-0.17243 0.19258zm-0.786 1.048h-0.2732l-0.70314 0.0112q-0.03583 0-0.10077-0.09405-0.06494-0.09405-0.06494-0.14108 0-0.06718 0.15227-0.10077 0.15227-0.03583 0.27096-0.03583l0.56207 0.01344q0.06942 0 0.16347-0.01567 0.11197-0.02015 0.262-0.02015 0.27544 0 0.49937 0.05374t0.22393 0.18586q0 0.0627-0.03583 0.1254-0.03583 0.06046-0.07166 0.06046-0.05822 0-0.2105-0.02687-0.18586-0.02687-0.28439-0.02015-0.09853 0.0045-0.38964 0.0045z" aria-label="="/>
<path d="m41.353 37.573q-0.30007 0.48145-0.63596 0.74345-0.3359 0.25976-0.61805 0.25976-0.21721 0-0.34485-0.16571-0.1254-0.16795-0.1254-0.44562 0-0.56655 0.45906-1.1622 0.4613-0.59566 0.99426-0.59566 0.23289 0 0.43219 0.1993l0.3135-1.4645q0.03359-0.15003 0.12316-0.20154 0.09181-0.0515 0.14332-0.0515 0.15675 0 0.15675 0.27768 0 0.04926-0.10301 0.36725-0.16347 0.49265-0.31126 1.2115-0.14556 0.71658-0.14556 1.151 0 0.44786 0.19482 0.44786 0.1254 0 0.25976-0.08285 0.05598-0.04031 0.10525-0.04031 0.07166 0 0.07166 0.09405 0 0.1142-0.20154 0.26424-0.1993 0.15003-0.4098 0.15003-0.36949 0-0.36949-0.7121 0-0.12092 0.0112-0.24408zm-0.29335-1.048q-0.36277 0-0.71882 0.49265-0.35605 0.49041-0.35605 0.90692 0 0.27991 0.18586 0.27991 0.17467 0 0.42323-0.18362 0.2508-0.18362 0.51504-0.58446 0.26424-0.40308 0.26424-0.60462 0-0.09853-0.09181-0.20154-0.08957-0.10525-0.22169-0.10525zm2.7054-1.0234q-0.04702 0-0.07166-0.10077-9e-3 -0.03135-0.02463-0.06942-0.06046-0.14556-0.06046-0.25304 0-0.08957 0.10525-0.18138 0.10749-0.09405 0.23737-0.09405 0.06494 0 0.14556 0.0515 0.08062 0.04927 0.08062 0.09629 0 0.0739-0.05598 0.2508-0.05374 0.1769-0.17467 0.23961-0.11868 0.06046-0.18138 0.06046zm-0.29335 2.5013q0 0.17019 0.04703 0.38292 9e-3 0.04031 9e-3 0.06718 0 0.04031-0.0739 0.10301-0.0739 0.06494-0.15675 0.06494-0.21721 0-0.21721-0.3986 0-0.41203 0.17019-1.3033 0.05822-0.31126 0.05822-0.38292 0-0.14108 0.0515-0.23961 0.0515-0.10077 0.14556-0.10077 0.1142 0 0.17914 0.05598 0.06718 0.05374 0.06718 0.12092 0 0.06718-0.03135 0.1769-0.16795 0.59118-0.20826 0.84646-0.04031 0.25528-0.04031 0.60685zm2.2889-0.01568q0-0.14556-0.35829-0.33142-0.45458-0.23289-0.61581-0.37173-0.15899-0.14108-0.15899-0.3135 0-0.44562 0.44562-0.73897 0.44786-0.29335 0.73002-0.29335 0.18138 0 0.262 0.0627 0.08285 0.0627 0.08285 0.21721 0 0.06942-0.06046 0.11868-0.05822 0.04926-0.09181 0.04926-0.02463 0-0.09629-0.03359-0.07166-0.03135-0.09405-0.03135-0.11197 0-0.45458 0.16347-0.34261 0.16347-0.34261 0.36949 0 0.1254 0.12092 0.22841 0.12092 0.10077 0.43443 0.24856 0.25304 0.12092 0.40308 0.25976 0.15227 0.1366 0.15227 0.32246 0 0.34262-0.4725 0.53744-0.47249 0.19258-0.90244 0.19258-0.36277 0-0.36277-0.24632 0-0.08509 0.08062-0.1254 0.08285-0.04031 0.16571-0.04031 0.03359 0 0.12764 0.02239 0.09181 0.02239 0.12092 0.02239 0.24856 0 0.53296-0.08285 0.28439-0.08285 0.35157-0.20602zm1.9956-1.7467q0.23065-0.01791 0.43443-0.04255 0.20154-0.02239 0.3359-0.02239 0.17019 0 0.21497 0.03135 0.04479 0.03135 0.04479 0.10973 0 0.18138-0.25304 0.19706-0.3247 0.02015-0.5979 0.05598t-0.29559 0.06046q-0.02015 0.02239-0.13436 0.53296-0.1142 0.50832-0.1142 0.6606 0 0.24632 0.06494 0.32918 0.06494 0.08062 0.19482 0.08062 0.19258 0 0.5352-0.28887 0.13212-0.11868 0.20378-0.11868 0.09629 0 0.09629 0.10301 0 0.16123-0.31126 0.41875-0.30902 0.25528-0.63372 0.25528-0.54191 0-0.54191-0.6382 0-0.23065 0.11196-0.71434 0.10973-0.48145 0.10973-0.57774 0-0.03359-0.05374-0.03359l-0.23289 0.02015q-0.28663 0-0.28663-0.22841 0-0.12988 0.13212-0.12988h0.4613q0.04703 0 0.08285-0.04255 0.03583-0.04255 0.10525-0.28439 0.06942-0.24408 0.12316-0.48145 0.05374-0.23513 0.2105-0.23513 0.09629 0 0.15003 0.06718 0.05374 0.06718 0.05374 0.1254 0 0.03135-0.08062 0.32022zm3.0122 1.4444q-0.3135 0.42099-0.62029 0.63149-0.30679 0.2105-0.56207 0.2105-0.17243 0-0.29783-0.14556-0.1254-0.14555-0.1254-0.37396 0-0.58894 0.52624-1.2674 0.52624-0.68075 1.0458-0.68075 0.1881 0 0.27991 0.21497 0.02911 0.07166 0.09181 0.07166 0.17914 0 0.17914 0.13884 0 0.06942-0.02239 0.19034-0.12092 0.6606-0.12092 0.93155 0 0.54191 0.20602 0.6494 0.09853 0.05374 0.09853 0.13212 0 0.06942-0.09629 0.13884-0.09629 0.07166-0.18586 0.07166-0.17243 0-0.28439-0.23737-0.11197-0.23737-0.11197-0.67627zm-0.1366-1.2607q-0.29559 0-0.68747 0.55535-0.39188 0.55311-0.39188 0.91812 0 0.25752 0.17019 0.25752 0.24632 0 0.68299-0.49713 0.43666-0.49713 0.43666-0.91364 0-0.32022-0.2105-0.32022zm3.1085 0.35381q-0.11644 0-0.25528 0.15227-0.1366 0.15227-0.41875 0.68299-0.37172 0.7121-0.48145 0.81063-0.10749 0.09853-0.17914 0.09853-0.26424 0-0.26424-0.25528 0-0.10749 0.03583-0.30455 0.12316-0.67627 0.12316-1.4264 0-0.08509 0.07166-0.1881 0.0739-0.10525 0.13884-0.10525 0.11644 0 0.16571 0.07166 0.04926 0.07166 0.04926 0.28887 0 0.22617-0.13436 0.93155-0.04479 0.23289-0.04479 0.29559 0 0.03583 0.01792 0.03583 0.03359 0 0.31126-0.5352 0.27991-0.54415 0.49041-0.76584 0.2105-0.22169 0.46354-0.22169 0.20154 0 0.32694 0.18362 0.12764 0.18362 0.18586 0.66955 0.0627 0.55311 0.11197 0.68971 0.0515 0.13436 0.16123 0.13436 0.06942 0 0.17467-0.04926 0.01791-9e-3 0.02687-9e-3 0.09629 0 0.09629 0.11196 0 0.09853-0.13212 0.2105-0.13212 0.10973-0.31798 0.10973-0.19034 0-0.29559-0.15003-0.10301-0.15227-0.16347-0.80839-0.0627-0.65836-0.26424-0.65836zm2.3919 1.8497q-0.3359 0-0.51728-0.19258-0.17914-0.19258-0.17914-0.53968 0-0.58446 0.46354-1.2316 0.46354-0.6494 0.86214-0.6494 0.18138 0 0.31126 0.19706 0.13212 0.19482 0.13212 0.41427 0 0.13212-0.05822 0.22841-0.05598 0.09405-0.1142 0.09405-0.12988 0-0.18362-0.262-0.06046-0.28215-0.17467-0.28215-0.23289 0-0.55087 0.55311-0.31798 0.55311-0.31798 0.93379t0.43219 0.38068q0.32918 0 0.7748-0.30902 0.15675-0.10973 0.23065-0.10973 0.07614 0 0.07614 0.08733 0 0.17019-0.40084 0.42995-0.40084 0.25752-0.786 0.25752zm3.8945-0.88677q0 0.22841-0.40532 0.55087-0.40308 0.32246-0.83302 0.32246-0.36053 0-0.55759-0.21273-0.19482-0.21274-0.19482-0.59342 0-0.64044 0.43219-1.2182 0.43219-0.57774 0.94499-0.57774 0.16795 0 0.2732 0.10973 0.10749 0.10973 0.10749 0.26424 0 0.34485-0.33814 0.6606t-0.90468 0.62029q-0.11644 0.06046-0.11644 0.15675 0 0.18586 0.10749 0.29783 0.10749 0.11196 0.31798 0.11196 0.48145 0 0.98306-0.53296 0.0739-0.0739 0.11197-0.0739 0.07166 0 0.07166 0.1142zm-1.5563-0.34933q0.94947-0.56431 0.94947-0.90692 0-0.13436-0.12092-0.13436-0.20602 0-0.46578 0.30231-0.25752 0.30231-0.36277 0.73897z" aria-label="distance"/>
<path d="m43.445 42.741q0.23065-0.01791 0.43443-0.04255 0.20154-0.02239 0.3359-0.02239 0.17019 0 0.21497 0.03135 0.04479 0.03135 0.04479 0.10973 0 0.18138-0.25304 0.19706-0.3247 0.02015-0.5979 0.05598t-0.29559 0.06046q-0.02015 0.02239-0.13436 0.53296-0.1142 0.50832-0.1142 0.6606 0 0.24632 0.06494 0.32918 0.06494 0.08062 0.19482 0.08062 0.19258 0 0.5352-0.28887 0.13212-0.11868 0.20378-0.11868 0.09629 0 0.09629 0.10301 0 0.16123-0.31126 0.41875-0.30902 0.25528-0.63372 0.25528-0.54191 0-0.54191-0.6382 0-0.23065 0.11196-0.71434 0.10972-0.48145 0.10972-0.57774 0-0.03359-0.05374-0.03359l-0.23289 0.02015q-0.28663 0-0.28663-0.22841 0-0.12988 0.13212-0.12988h0.4613q0.04703 0 0.08285-0.04255 0.03583-0.04255 0.10525-0.28439 0.06942-0.24408 0.12316-0.48145 0.05374-0.23513 0.2105-0.23513 0.09629 0 0.15003 0.06718 0.05374 0.06718 0.05374 0.1254 0 0.03135-0.08062 0.32022zm3.4198 1.5003q0 0.22841-0.40532 0.55087-0.40308 0.32246-0.83302 0.32246-0.36053 0-0.55759-0.21273-0.19482-0.21274-0.19482-0.59342 0-0.64044 0.43219-1.2182 0.43219-0.57774 0.94499-0.57774 0.16795 0 0.2732 0.10973 0.10749 0.10973 0.10749 0.26424 0 0.34485-0.33814 0.6606t-0.90468 0.62029q-0.11644 0.06046-0.11644 0.15675 0 0.18586 0.10749 0.29783 0.10749 0.11196 0.31798 0.11196 0.48145 0 0.98306-0.53296 0.0739-0.0739 0.11197-0.0739 0.07166 0 0.07166 0.1142zm-1.5563-0.34933q0.94947-0.56431 0.94947-0.90692 0-0.13436-0.12092-0.13436-0.20602 0-0.46578 0.30231-0.25752 0.30231-0.36277 0.73897zm3.9796-0.66284q-0.20826 0.0045-0.89125 1.2339-0.23065 0.41427-0.26872 0.45234-0.03807 0.03583-0.14108 0.06494-0.10077 0.02911-0.16795 0.02911-0.15003 0-0.15003-0.58446 0-0.32918 0.14108-1.1913 0.05822-0.34933 0.05822-0.49937 0-0.14779 0.13212-0.14779 0.24856 0 0.24856 0.35829 0 0.16795-0.08285 0.65836-0.09629 0.55983-0.09853 0.68075 0.13884-0.13436 0.40755-0.58894 0.38068-0.62253 0.55983-0.78824 0.18138-0.16795 0.37396-0.16795 0.14556 0 0.23065 0.19482 0.08733 0.19482 0.10525 0.92931 0.0045 0.18362 0.03359 0.2732 0.02911 0.08957 0.04255 0.08957 0.10525 0 0.45682-0.71658 0.1881-0.37844 0.36501-0.5755 0.17914-0.19706 0.39636-0.19706 0.18138 0 0.26424 0.1881 0.08285 0.18586 0.11868 0.55311 0.03359 0.37172 0.10301 0.68075 0.07166 0.30902 0.25976 0.39636 0.12764 0.06046 0.12764 0.14108 0 0.07838-0.10749 0.16123-0.10749 0.08285-0.19706 0.08285-0.17914 0-0.32022-0.21945-0.14108-0.21945-0.21273-0.94947-0.03135-0.29335-0.06046-0.41651-0.02911-0.12316-0.09181-0.12316-0.09405 0-0.22393 0.17914-0.12764 0.17914-0.41427 0.72778-0.22393 0.42771-0.34038 0.57102-0.1142 0.14108-0.22169 0.14108-0.09629 0-0.17243-0.07614-0.07614-0.07838-0.09629-0.18586-0.02015-0.10973-0.04255-0.5352-0.033594-0.70761-0.12317-0.82406zm3.7198 1.5115q-0.10973 0.40308-0.20602 1.1309l-0.0627 0.42323q-0.01568 0.08957-0.08285 0.1769-0.06718 0.08957-0.12316 0.08957-0.06942 0-0.15899-0.07166-0.08733-0.06942-0.08733-0.11197 0-0.12316 0.05598-0.34038 0.4098-1.6549 0.4098-2.9066l-0.0022-0.1881q-0.0045-0.24184 0.08509-0.35157 0.08957-0.10973 0.20602-0.10973 0.05374 0 0.10301 0.08509 0.04926 0.08285 0.04926 0.23737 0 0.21721-0.04479 0.52624-0.05822 0.38964-0.06046 0.44786 0.33366-0.58222 0.70762-0.90916 0.37396-0.32694 0.69419-0.32694 0.22617 0 0.38068 0.17019 0.15675 0.16795 0.15675 0.41875 0 0.73002-0.55983 1.3257t-1.0905 0.59566q-0.13212 0-0.2105-0.06718-0.07614-0.06718-0.15899-0.24408zm1.3906-1.8026q-0.31574 0-0.78152 0.59118t-0.46578 0.92036q0 0.08062 0.09181 0.15675 0.09181 0.07614 0.23289 0.07614 0.32022 0 0.73673-0.47249 0.41651-0.47473 0.41651-0.93155 0-0.16347-0.06718-0.2508-0.06494-0.08957-0.16347-0.08957zm2.533 1.5496q0-0.14556-0.35829-0.33142-0.45458-0.23289-0.61581-0.37173-0.15899-0.14108-0.15899-0.3135 0-0.44562 0.44562-0.73897 0.44786-0.29335 0.73002-0.29335 0.18138 0 0.262 0.0627 0.08286 0.0627 0.08286 0.21721 0 0.06942-0.06046 0.11868-0.05822 0.04926-0.09181 0.04926-0.02463 0-0.09629-0.03359-0.07166-0.03135-0.09405-0.03135-0.11197 0-0.45458 0.16347-0.34262 0.16347-0.34262 0.36949 0 0.1254 0.12092 0.22841 0.12092 0.10077 0.43443 0.24856 0.25304 0.12092 0.40308 0.25976 0.15227 0.1366 0.15227 0.32246 0 0.34262-0.4725 0.53744-0.4725 0.19258-0.90244 0.19258-0.36277 0-0.36277-0.24632 0-0.08509 0.08062-0.1254 0.08286-0.04031 0.16571-0.04031 0.03359 0 0.12764 0.02239 0.09181 0.02239 0.12092 0.02239 0.24856 0 0.53296-0.08285 0.28439-0.08285 0.35157-0.20602z" aria-label="temps"/>
</g>
<path d="m37.329 40h25" color="#000000" fill="none" stroke="#000" stroke-linecap="round" stroke-linejoin="round" stroke-width=".35" style="paint-order:normal"/>
<path d="m10 30h55v20h-55z" fill="none" stop-color="#000000" stroke="#000" stroke-width=".3"/>
<path transform="matrix(.26458 0 0 .26458 -72.13 24.415)" d="m290.66 147.68q-1.1341 1.8197-2.4036 2.8099-1.2695 0.98177-2.3359 0.98177-0.82096 0-1.3034-0.6263-0.47396-0.63477-0.47396-1.6842 0-2.1413 1.735-4.3926 1.7435-2.2513 3.7578-2.2513 0.88021 0 1.6335 0.75325l1.1849-5.5351q0.12696-0.56706 0.4655-0.76172 0.347-0.19466 0.54166-0.19466 0.59245 0 0.59245 1.0495 0 0.1862-0.38932 1.388-0.61784 1.862-1.1764 4.5788-0.55013 2.7083-0.55013 4.3502 0 1.6927 0.73632 1.6927 0.47396 0 0.98177-0.31315 0.21159-0.15235 0.39779-0.15235 0.27083 0 0.27083 0.35547 0 0.43164-0.76172 0.9987-0.75325 0.56705-1.5488 0.56705-1.3965 0-1.3965-2.6914 0-0.45703 0.0423-0.92252zm-1.1087-3.9609q-1.3711 0-2.7168 1.862-1.3457 1.8535-1.3457 3.4277 0 1.0579 0.70247 1.0579 0.66016 0 1.5996-0.69401 0.94792-0.69401 1.9466-2.209 0.9987-1.5234 0.9987-2.2852 0-0.37239-0.34701-0.76172-0.33854-0.39778-0.83789-0.39778zm10.225-3.8678q-0.17773 0-0.27083-0.38086-0.0339-0.11849-0.0931-0.26237-0.22851-0.55013-0.22851-0.95638 0-0.33854 0.39778-0.68555 0.40625-0.35546 0.89714-0.35546 0.24544 0 0.55013 0.19466 0.30468 0.1862 0.30468 0.36393 0 0.2793-0.21158 0.94791-0.20313 0.66862-0.66016 0.9056-0.44857 0.22852-0.68555 0.22852zm-1.1087 9.4538q0 0.64323 0.17774 1.4473 0.0338 0.15234 0.0338 0.2539 0 0.15235-0.2793 0.38932-0.27929 0.24545-0.59244 0.24545-0.82096 0-0.82096-1.5065 0-1.5573 0.64322-4.9258 0.22006-1.1764 0.22006-1.4473 0-0.5332 0.19466-0.90559 0.19466-0.38086 0.55013-0.38086 0.43164 0 0.67708 0.21159 0.2539 0.20312 0.2539 0.45703 0 0.2539-0.11849 0.66862-0.63476 2.2344-0.7871 3.1992-0.15235 0.96484-0.15235 2.2936zm8.651-0.0592q0-0.55013-1.3542-1.2526-1.7181-0.88021-2.3275-1.405-0.60091-0.5332-0.60091-1.1849 0-1.6842 1.6842-2.793 1.6927-1.1087 2.7591-1.1087 0.68554 0 0.99023 0.23698 0.31315 0.23698 0.31315 0.82096 0 0.26237-0.22852 0.44857-0.22005 0.1862-0.347 0.1862-0.0931 0-0.36393-0.12695-0.27083-0.11849-0.35547-0.11849-0.42318 0-1.7181 0.61783-1.2949 0.61784-1.2949 1.3965 0 0.47395 0.45703 0.86328 0.45703 0.38085 1.6419 0.93945 0.95638 0.45703 1.5234 0.98177 0.57552 0.51627 0.57552 1.2187 0 1.2949-1.7858 2.0312-1.7858 0.72786-3.4108 0.72786-1.3711 0-1.3711-0.93099 0-0.32161 0.30468-0.47395 0.31316-0.15235 0.62631-0.15235 0.12695 0 0.48242 0.0846 0.347 0.0846 0.45703 0.0846 0.93945 0 2.0143-0.31315 1.0749-0.31315 1.3288-0.77864zm7.5423-6.6016q0.87175-0.0677 1.6419-0.16081 0.76171-0.0846 1.2695-0.0846 0.64323 0 0.8125 0.11849t0.16927 0.41471q0 0.68555-0.95637 0.74479-1.2272 0.0762-2.2598 0.21159-1.0326 0.13541-1.1172 0.22851-0.0762 0.0846-0.50781 2.0143-0.43164 1.9212-0.43164 2.4967 0 0.93099 0.24544 1.2441 0.24544 0.30469 0.73633 0.30469 0.72786 0 2.0228-1.0918 0.49935-0.44856 0.77018-0.44856 0.36393 0 0.36393 0.38932 0 0.60937-1.1764 1.5827-1.168 0.96484-2.3952 0.96484-2.0482 0-2.0482-2.4121 0-0.87174 0.42318-2.6999 0.41471-1.8197 0.41471-2.1836 0-0.12695-0.20312-0.12695l-0.88021 0.0762q-1.0833 0-1.0833-0.86328 0-0.49089 0.49935-0.49089h1.7435q0.17774 0 0.31315-0.1608 0.13542-0.16081 0.39779-1.0749 0.26237-0.92252 0.46549-1.8197 0.20313-0.88867 0.79557-0.88867 0.36393 0 0.56706 0.25391 0.20312 0.2539 0.20312 0.47396 0 0.11848-0.30468 1.2103zm11.385 5.459q-1.1849 1.5912-2.3444 2.3867t-2.1243 0.79557q-0.6517 0-1.1256-0.55013-0.47396-0.55013-0.47396-1.4134 0-2.2259 1.9889-4.7904 1.9889-2.5729 3.9525-2.5729 0.71094 0 1.0579 0.8125 0.11003 0.27084 0.34701 0.27084 0.67708 0 0.67708 0.52473 0 0.26237-0.0846 0.7194-0.45703 2.4967-0.45703 3.5208 0 2.0482 0.77864 2.4544 0.37239 0.20313 0.37239 0.49935 0 0.26237-0.36393 0.52474-0.36393 0.27083-0.70247 0.27083-0.65169 0-1.0749-0.89713-0.42317-0.89714-0.42317-2.556zm-0.51628-4.765q-1.1172 0-2.5983 2.099-1.4811 2.0905-1.4811 3.47 0 0.9733 0.64323 0.9733 0.93099 0 2.5814-1.8789 1.6504-1.8789 1.6504-3.4531 0-1.2103-0.79557-1.2103zm11.749 1.3372q-0.44011 0-0.96484 0.57552-0.51628 0.57552-1.5827 2.5814-1.405 2.6914-1.8197 3.0638-0.40625 0.37239-0.67708 0.37239-0.9987 0-0.9987-0.96484 0-0.40625 0.13542-1.151 0.46549-2.556 0.46549-5.3913 0-0.32161 0.27083-0.71093 0.2793-0.39779 0.52474-0.39779 0.44011 0 0.6263 0.27084 0.1862 0.27083 0.1862 1.0918 0 0.85482-0.50781 3.5208-0.16927 0.8802-0.16927 1.1172 0 0.13542 0.0677 0.13542 0.12695 0 1.1764-2.0228 1.0579-2.0566 1.8535-2.8945t1.752-0.83789q0.76172 0 1.2357 0.69401 0.48242 0.69401 0.70248 2.5306 0.23697 2.0905 0.42317 2.6068 0.19466 0.50781 0.60938 0.50781 0.26237 0 0.66015-0.1862 0.0677-0.0339 0.10156-0.0339 0.36393 0 0.36393 0.42318 0 0.37239-0.49934 0.79557-0.49935 0.41471-1.2018 0.41471-0.7194 0-1.1172-0.56706-0.38932-0.57552-0.61784-3.0553-0.23697-2.4883-0.99869-2.4883zm9.0403 6.9909q-1.2695 0-1.9551-0.72787-0.67708-0.72786-0.67708-2.0397 0-2.209 1.752-4.6549 1.752-2.4544 3.2585-2.4544 0.68554 0 1.1764 0.74479 0.49934 0.73633 0.49934 1.5658 0 0.49934-0.22005 0.86328-0.21159 0.35546-0.43164 0.35546-0.49088 0-0.69401-0.99023-0.22851-1.0664-0.66015-1.0664-0.88021 0-2.082 2.0905t-1.2018 3.5293 1.6335 1.4388q1.2441 0 2.9284-1.168 0.59245-0.41471 0.87174-0.41471 0.28776 0 0.28776 0.33008 0 0.64322-1.515 1.625-1.515 0.97331-2.9707 0.97331zm14.719-3.3516q0 0.86328-1.5319 2.082-1.5234 1.2188-3.1484 1.2188-1.3626 0-2.1074-0.80404-0.73632-0.80403-0.73632-2.2428 0-2.4206 1.6335-4.6042t3.5716-2.1836q0.63476 0 1.0326 0.41471 0.40624 0.41472 0.40624 0.9987 0 1.3034-1.278 2.4967t-3.4193 2.3444q-0.44011 0.22851-0.44011 0.59244 0 0.70247 0.40625 1.1256t1.2018 0.42318q1.8197 0 3.7155-2.0143 0.2793-0.2793 0.42318-0.2793 0.27083 0 0.27083 0.43164zm-5.8822-1.3203q3.5885-2.1328 3.5885-3.4277 0-0.50781-0.45703-0.50781-0.77865 0-1.7604 1.1426-0.9733 1.1426-1.3711 2.793zm26.141-2.793q-0.18619 0-0.51627-0.14388-0.36393-0.12695-0.5332-0.12695-0.12696 0-0.3724 0.0423-0.2539 0.0508-0.38932 0.0508-0.26237 0-0.76172-0.0508-0.50781-0.0508-0.83789-0.0508-0.6263 0-1.6504 0.11849-1.0326 0.12695-1.6842 0.12695-0.36393 0-0.5332-0.11002-0.16927-0.11849-0.16927-0.52474 0-0.24544 0.14388-0.44857 0.15234-0.21159 0.88867-0.33007 0.73633-0.12696 1.1934-0.12696 0.1862 0 0.5332 0.0423 0.46549 0.0339 1.5911 8e-3 1.1256-0.0339 1.735-0.16927 0.0508-0.0169 0.64322-8e-3 0.60091 8e-3 0.98177 0.29622 0.38932 0.2793 0.38932 0.67709 0 0.72786-0.65169 0.72786zm-2.9707 3.9609h-1.0326l-2.6576 0.0423q-0.13542 0-0.38086-0.35547t-0.24544-0.5332q0-0.25391 0.57552-0.38086 0.57552-0.13542 1.0241-0.13542l2.1244 0.0508q0.26237 0 0.61784-0.0592 0.42317-0.0762 0.99023-0.0762 1.041 0 1.8874 0.20312 0.84635 0.20312 0.84635 0.70247 0 0.23698-0.13542 0.47396-0.13541 0.22852-0.27083 0.22852-0.22005 0-0.79557-0.10157-0.70248-0.10156-1.0749-0.0762-0.3724 0.0169-1.4726 0.0169zm20.639-5.5182q0.87174-0.0677 1.6419-0.16081 0.76172-0.0846 1.2695-0.0846 0.64323 0 0.8125 0.11849t0.16927 0.41471q0 0.68555-0.95638 0.74479-1.2272 0.0762-2.2598 0.21159-1.0326 0.13541-1.1172 0.22851-0.0762 0.0846-0.50781 2.0143-0.43164 1.9212-0.43164 2.4967 0 0.93099 0.24544 1.2441 0.24544 0.30469 0.73632 0.30469 0.72787 0 2.0228-1.0918 0.49935-0.44856 0.77018-0.44856 0.36393 0 0.36393 0.38932 0 0.60937-1.1764 1.5827-1.168 0.96484-2.3952 0.96484-2.0482 0-2.0482-2.4121 0-0.87174 0.42318-2.6999 0.41471-1.8197 0.41471-2.1836 0-0.12695-0.20313-0.12695l-0.8802 0.0762q-1.0833 0-1.0833-0.86328 0-0.49089 0.49934-0.49089h1.7435q0.17773 0 0.31315-0.1608 0.13542-0.16081 0.39779-1.0749 0.26237-0.92252 0.46549-1.8197 0.20312-0.88867 0.79557-0.88867 0.36393 0 0.56706 0.25391 0.20312 0.2539 0.20312 0.47396 0 0.11848-0.30468 1.2103zm12.925 5.6706q0 0.86328-1.5319 2.082-1.5234 1.2188-3.1484 1.2188-1.3626 0-2.1074-0.80404-0.73633-0.80403-0.73633-2.2428 0-2.4206 1.6335-4.6042t3.5716-2.1836q0.63477 0 1.0326 0.41471 0.40625 0.41472 0.40625 0.9987 0 1.3034-1.278 2.4967t-3.4193 2.3444q-0.44011 0.22851-0.44011 0.59244 0 0.70247 0.40625 1.1256t1.2018 0.42318q1.8197 0 3.7155-2.0143 0.2793-0.2793 0.42318-0.2793 0.27083 0 0.27083 0.43164zm-5.8822-1.3203q3.5885-2.1328 3.5885-3.4277 0-0.50781-0.45703-0.50781-0.77864 0-1.7604 1.1426-0.97331 1.1426-1.3711 2.793zm15.041-2.5052q-0.78711 0.0169-3.3685 4.6634-0.87175 1.5658-1.0156 1.7096-0.14388 0.13542-0.5332 0.24544-0.38086 0.11003-0.63476 0.11003-0.56706 0-0.56706-2.209 0-1.2441 0.5332-4.5026 0.22005-1.3203 0.22005-1.8874 0-0.55859 0.49935-0.55859 0.93945 0 0.93945 1.3542 0 0.63476-0.31315 2.4883-0.36393 2.1159-0.37239 2.5729 0.52474-0.50781 1.5404-2.2259 1.4388-2.3529 2.1159-2.9792 0.68555-0.63476 1.4134-0.63476 0.55013 0 0.87174 0.73632 0.33008 0.73633 0.39779 3.5124 0.0169 0.694 0.12695 1.0326 0.11003 0.33854 0.16081 0.33854 0.39778 0 1.7266-2.7083 0.71093-1.4303 1.3796-2.1751 0.67708-0.74479 1.498-0.74479 0.68554 0 0.99869 0.71094 0.31315 0.70247 0.44857 2.0905 0.12695 1.4049 0.38932 2.5729 0.27083 1.168 0.98177 1.498 0.48242 0.22851 0.48242 0.5332 0 0.29622-0.40625 0.60937t-0.74479 0.31315q-0.67708 0-1.2103-0.82942-0.53321-0.82943-0.80404-3.5885-0.11849-1.1087-0.22851-1.5742-0.11003-0.4655-0.34701-0.4655-0.35547 0-0.84635 0.67708-0.48242 0.67709-1.5658 2.7506-0.84636 1.6165-1.2865 2.1582-0.43164 0.5332-0.83789 0.5332-0.36393 0-0.65169-0.28776-0.28776-0.29622-0.36393-0.70247-0.0762-0.41471-0.16081-2.0228-0.12695-2.6745-0.46549-3.1146zm14.059 5.7129q-0.41472 1.5234-0.77865 4.2741l-0.23698 1.5996q-0.0592 0.33855-0.31315 0.66862-0.2539 0.33854-0.46549 0.33854-0.26237 0-0.60091-0.27083-0.33008-0.26237-0.33008-0.42318 0-0.46549 0.21159-1.2864 1.5488-6.2546 1.5488-10.986l-8e-3 -0.71093q-0.0169-0.91406 0.32162-1.3288 0.33854-0.41471 0.77864-0.41471 0.20312 0 0.38932 0.32161 0.1862 0.31316 0.1862 0.89714 0 0.82096-0.16927 1.9889-0.22005 1.4726-0.22852 1.6927 1.2611-2.2005 2.6745-3.4362 1.4134-1.2357 2.6237-1.2357 0.85482 0 1.4388 0.64322 0.59245 0.63477 0.59245 1.5827 0 2.7591-2.1159 5.0104-2.1159 2.2513-4.1217 2.2513-0.49935 0-0.79557-0.25391-0.28776-0.2539-0.60091-0.92252zm5.2558-6.8131q-1.1934 0-2.9538 2.2344-1.7604 2.2344-1.7604 3.4785 0 0.30469 0.34701 0.59245 0.347 0.28776 0.8802 0.28776 1.2103 0 2.7845-1.7858 1.5742-1.7943 1.5742-3.5208 0-0.61784-0.25391-0.94792-0.24544-0.33854-0.61783-0.33854zm9.5735 5.8568q0-0.55013-1.3542-1.2526-1.7181-0.88021-2.3275-1.405-0.60091-0.5332-0.60091-1.1849 0-1.6842 1.6842-2.793 1.6927-1.1087 2.7591-1.1087 0.68555 0 0.99023 0.23698 0.31315 0.23698 0.31315 0.82096 0 0.26237-0.22851 0.44857-0.22005 0.1862-0.34701 0.1862-0.0931 0-0.36393-0.12695-0.27083-0.11849-0.35547-0.11849-0.42317 0-1.7181 0.61783-1.2949 0.61784-1.2949 1.3965 0 0.47395 0.45703 0.86328 0.45703 0.38085 1.6419 0.93945 0.95638 0.45703 1.5234 0.98177 0.57552 0.51627 0.57552 1.2187 0 1.2949-1.7858 2.0312-1.7858 0.72786-3.4108 0.72786-1.3711 0-1.3711-0.93099 0-0.32161 0.30469-0.47395 0.31315-0.15235 0.6263-0.15235 0.12695 0 0.48242 0.0846 0.34701 0.0846 0.45703 0.0846 0.93945 0 2.0143-0.31315t1.3288-0.77864zm17.948-1.7858q-0.0762 8e-3 -0.64323 0.65169-0.57552 0.66015-0.6263 0.69401l-1.2865 1.3711q-0.22851 0.24544-0.40625 0.24544-0.16927 0-0.37239-0.20313-0.20313-0.20312-0.20313-0.38932 0-0.15234 0.15235-0.33007 0.1608-0.17774 0.81249-0.73633 0.57552-0.49935 0.78711-0.83789 0.10156-0.14388 0.56706-0.60937 0.49088-0.49089 0.49088-0.56706 0-0.11003-1.0664-1.1341l-1.4134-1.3626q-0.16927-0.22005-0.16927-0.41471 0-0.25391 0.17773-0.42318 0.17774-0.16927 0.44011-0.16927 0.11849 0 0.50781 0.2793 0.38932 0.27929 0.49935 0.44856 0.64322 0.95638 1.752 2.1159 0.82096-0.60937 1.6673-1.7266 0.77864-1.0326 1.2611-1.0326 0.19466 0 0.36393 0.11848 0.17773 0.11003 0.17773 0.2793 0 0.32161-0.12695 0.49935-0.11849 0.16927-0.9056 0.85481-1.6758 1.4388-1.6758 1.6165 0 0.0677 0.79557 0.86328 0.19467 0.1862 0.57552 0.69401 0.44011 0.57552 0.77865 0.91406 0.60937 0.49088 0.60937 0.80403 0 0.15235-0.12695 0.36393-0.11849 0.20313-0.27083 0.20313-0.32162 0-0.54167-0.13542-0.22005-0.13541-0.7194-0.75325-0.30469-0.38932-0.49088-0.56706-0.28776-0.29622-0.73633-0.86328-0.4401-0.57552-0.63476-0.76171zm18.532 3.8255q0.0169-0.49089-0.7194-2.5391-1.3965-3.817-1.3965-5.3151 0-1.1934 0.79558-1.1934 0.77864 0 0.77864 1.0664 0 0.87175 0.0508 1.3457 0.0593 0.46549 0.40625 1.7181 0.347 1.2441 0.76172 2.3105 0.21159 0.5586 0.30468 0.85482 0.17774-0.27083 0.45703-0.74479 1.4896-2.5052 2.3698-3.8594 0.88867-1.3542 1.4473-1.972 0.5586-0.61784 0.82097-0.73633 0.26237-0.12695 0.5332-0.12695 0.33008 0 0.51627 0.23698 0.19466 0.23698 0.19466 0.54166 0 0.39779-0.694 0.86328-0.6517 0.44011-1.9212 2.209-1.2695 1.7689-2.7422 4.5111-0.75325 1.388-1.1595 1.388-0.35547 0-0.80403-0.55859zm11.562-11.434q-0.17774 0-0.27083-0.38086-0.0339-0.11849-0.0931-0.26237-0.22852-0.55013-0.22852-0.95638 0-0.33854 0.39779-0.68555 0.40625-0.35546 0.89713-0.35546 0.24544 0 0.55013 0.19466 0.30469 0.1862 0.30469 0.36393 0 0.2793-0.21159 0.94791-0.20313 0.66862-0.66016 0.9056-0.44856 0.22852-0.68554 0.22852zm-1.1087 9.4538q0 0.64323 0.17773 1.4473 0.0338 0.15234 0.0338 0.2539 0 0.15235-0.27929 0.38932-0.2793 0.24545-0.59245 0.24545-0.82096 0-0.82096-1.5065 0-1.5573 0.64323-4.9258 0.22005-1.1764 0.22005-1.4473 0-0.5332 0.19466-0.90559 0.19466-0.38086 0.55013-0.38086 0.43164 0 0.67708 0.21159 0.25391 0.20312 0.25391 0.45703 0 0.2539-0.11849 0.66862-0.63477 2.2344-0.78711 3.1992t-0.15234 2.2936zm7.8385-6.6608q0.87174-0.0677 1.6419-0.16081 0.76172-0.0846 1.2695-0.0846 0.64323 0 0.8125 0.11849t0.16927 0.41471q0 0.68555-0.95638 0.74479-1.2272 0.0762-2.2598 0.21159-1.0326 0.13541-1.1172 0.22851-0.0762 0.0846-0.50782 2.0143-0.43164 1.9212-0.43164 2.4967 0 0.93099 0.24545 1.2441 0.24544 0.30469 0.73632 0.30469 0.72787 0 2.0228-1.0918 0.49934-0.44856 0.77018-0.44856 0.36393 0 0.36393 0.38932 0 0.60937-1.1764 1.5827-1.168 0.96484-2.3952 0.96484-2.0482 0-2.0482-2.4121 0-0.87174 0.42317-2.6999 0.41472-1.8197 0.41472-2.1836 0-0.12695-0.20313-0.12695l-0.8802 0.0762q-1.0833 0-1.0833-0.86328 0-0.49089 0.49935-0.49089h1.7435q0.17773 0 0.31315-0.1608 0.13542-0.16081 0.39778-1.0749 0.26237-0.92252 0.4655-1.8197 0.20312-0.88867 0.79557-0.88867 0.36393 0 0.56706 0.25391 0.20312 0.2539 0.20312 0.47396 0 0.11848-0.30469 1.2103zm12.925 5.6706q0 0.86328-1.5319 2.082-1.5234 1.2188-3.1484 1.2188-1.3626 0-2.1074-0.80404-0.73633-0.80403-0.73633-2.2428 0-2.4206 1.6335-4.6042t3.5716-2.1836q0.63477 0 1.0326 0.41471 0.40625 0.41472 0.40625 0.9987 0 1.3034-1.278 2.4967t-3.4193 2.3444q-0.4401 0.22851-0.4401 0.59244 0 0.70247 0.40625 1.1256t1.2018 0.42318q1.8197 0 3.7155-2.0143 0.27929-0.2793 0.42317-0.2793 0.27084 0 0.27084 0.43164zm-5.8822-1.3203q3.5885-2.1328 3.5885-3.4277 0-0.50781-0.45703-0.50781-0.77864 0-1.7604 1.1426-0.97331 1.1426-1.3711 2.793zm12.908 2.2513q0-0.55013-1.3542-1.2526-1.7181-0.88021-2.3275-1.405-0.60091-0.5332-0.60091-1.1849 0-1.6842 1.6842-2.793 1.6927-1.1087 2.7591-1.1087 0.68554 0 0.99023 0.23698 0.31315 0.23698 0.31315 0.82096 0 0.26237-0.22852 0.44857-0.22005 0.1862-0.347 0.1862-0.0931 0-0.36393-0.12695-0.27084-0.11849-0.35547-0.11849-0.42318 0-1.7181 0.61783-1.2949 0.61784-1.2949 1.3965 0 0.47395 0.45703 0.86328 0.45704 0.38085 1.6419 0.93945 0.95638 0.45703 1.5234 0.98177 0.57552 0.51627 0.57552 1.2187 0 1.2949-1.7858 2.0312-1.7858 0.72786-3.4108 0.72786-1.3711 0-1.3711-0.93099 0-0.32161 0.30468-0.47395 0.31315-0.15235 0.62631-0.15235 0.12695 0 0.48242 0.0846 0.347 0.0846 0.45703 0.0846 0.93945 0 2.0143-0.31315 1.0749-0.31315 1.3288-0.77864zm8.3548 0q0-0.55013-1.3542-1.2526-1.7181-0.88021-2.3275-1.405-0.60091-0.5332-0.60091-1.1849 0-1.6842 1.6842-2.793 1.6927-1.1087 2.7591-1.1087 0.68554 0 0.99023 0.23698 0.31315 0.23698 0.31315 0.82096 0 0.26237-0.22851 0.44857-0.22006 0.1862-0.34701 0.1862-0.0931 0-0.36393-0.12695-0.27083-0.11849-0.35547-0.11849-0.42317 0-1.7181 0.61783-1.2949 0.61784-1.2949 1.3965 0 0.47395 0.45703 0.86328 0.45703 0.38085 1.6419 0.93945 0.95638 0.45703 1.5234 0.98177 0.57552 0.51627 0.57552 1.2187 0 1.2949-1.7858 2.0312-1.7858 0.72786-3.4108 0.72786-1.3711 0-1.3711-0.93099 0-0.32161 0.30469-0.47395 0.31315-0.15235 0.6263-0.15235 0.12695 0 0.48242 0.0846 0.347 0.0846 0.45703 0.0846 0.93945 0 2.0143-0.31315t1.3288-0.77864zm11.342-0.93099q0 0.86328-1.5319 2.082-1.5234 1.2188-3.1484 1.2188-1.3626 0-2.1074-0.80404-0.73633-0.80403-0.73633-2.2428 0-2.4206 1.6335-4.6042t3.5716-2.1836q0.63476 0 1.0326 0.41471 0.40625 0.41472 0.40625 0.9987 0 1.3034-1.278 2.4967-1.278 1.1934-3.4193 2.3444-0.4401 0.22851-0.4401 0.59244 0 0.70247 0.40625 1.1256t1.2018 0.42318q1.8196 0 3.7155-2.0143 0.2793-0.2793 0.42318-0.2793 0.27083 0 0.27083 0.43164zm-5.8822-1.3203q3.5885-2.1328 3.5885-3.4277 0-0.50781-0.45703-0.50781-0.77865 0-1.7604 1.1426-0.9733 1.1426-1.3711 2.793z" stroke-width="1px" aria-label="distance = temps × vitesse"/>
<path d="m-2.5 52.887h80v20h-80z" fill="none" stop-color="#000000" stroke="#000" stroke-width=".3"/>
<g stroke-width=".26458px">
<path d="m13.571 85.043q0.23065-0.01791 0.43443-0.04255 0.20154-0.02239 0.3359-0.02239 0.17019 0 0.21497 0.03135 0.04479 0.03135 0.04479 0.10973 0 0.18138-0.25304 0.19706-0.3247 0.02015-0.5979 0.05598t-0.29559 0.06046q-0.02015 0.02239-0.13436 0.53296-0.1142 0.50832-0.1142 0.6606 0 0.24632 0.06494 0.32918 0.06494 0.08061 0.19482 0.08061 0.19258 0 0.5352-0.28887 0.13212-0.11868 0.20378-0.11868 0.09629 0 0.09629 0.10301 0 0.16123-0.31126 0.41875-0.30902 0.25528-0.63372 0.25528-0.54191 0-0.54191-0.6382 0-0.23065 0.11196-0.71434 0.10973-0.48145 0.10973-0.57774 0-0.03359-0.05374-0.03359l-0.23289 0.02015q-0.28663 0-0.28663-0.22841 0-0.12988 0.13212-0.12988h0.4613q0.04702 0 0.08285-0.04255t0.10525-0.28439q0.06942-0.24408 0.12316-0.48145 0.05374-0.23513 0.2105-0.23513 0.09629 0 0.15003 0.06718 0.05374 0.06718 0.05374 0.1254 0 0.03135-0.08061 0.32022zm3.4198 1.5003q0 0.22841-0.40532 0.55087-0.40308 0.32246-0.83302 0.32246-0.36053 0-0.55759-0.21273-0.19482-0.21274-0.19482-0.59342 0-0.64044 0.43219-1.2182 0.43219-0.57774 0.94499-0.57774 0.16795 0 0.2732 0.10973 0.10749 0.10973 0.10749 0.26424 0 0.34485-0.33814 0.6606t-0.90468 0.62029q-0.11644 0.06046-0.11644 0.15675 0 0.18586 0.10749 0.29783 0.10749 0.11196 0.31798 0.11196 0.48145 0 0.98306-0.53296 0.0739-0.0739 0.11197-0.0739 0.07166 0 0.07166 0.1142zm-1.5563-0.34933q0.94947-0.56431 0.94947-0.90692 0-0.13436-0.12092-0.13436-0.20602 0-0.46578 0.30231-0.25752 0.30231-0.36277 0.73897zm3.9796-0.66284q-0.20826 0.0045-0.89125 1.2339-0.23065 0.41427-0.26872 0.45234-0.03807 0.03583-0.14108 0.06494-0.10077 0.02911-0.16795 0.02911-0.15003 0-0.15003-0.58446 0-0.32918 0.14108-1.1913 0.05822-0.34933 0.05822-0.49937 0-0.14779 0.13212-0.14779 0.24856 0 0.24856 0.35829 0 0.16795-0.08286 0.65836-0.09629 0.55983-0.09853 0.68075 0.13884-0.13436 0.40755-0.58894 0.38068-0.62253 0.55983-0.78824 0.18138-0.16795 0.37396-0.16795 0.14556 0 0.23065 0.19482 0.08733 0.19482 0.10525 0.92931 0.0045 0.18362 0.03359 0.2732 0.02911 0.08957 0.04255 0.08957 0.10525 0 0.45682-0.71658 0.1881-0.37844 0.36501-0.5755 0.17914-0.19706 0.39636-0.19706 0.18138 0 0.26424 0.1881 0.08285 0.18586 0.11868 0.55311 0.03359 0.37172 0.10301 0.68075 0.07166 0.30902 0.25976 0.39636 0.12764 0.06046 0.12764 0.14108 0 0.07838-0.10749 0.16123t-0.19706 0.08285q-0.17914 0-0.32022-0.21945-0.14107-0.21944-0.21273-0.94946-0.03135-0.29335-0.06046-0.41651-0.02911-0.12316-0.09181-0.12316-0.09405 0-0.22393 0.17914-0.12764 0.17914-0.41427 0.72778-0.22393 0.42771-0.34038 0.57102-0.1142 0.14108-0.22169 0.14108-0.09629 0-0.17243-0.07614-0.07614-0.07838-0.09629-0.18586-0.02015-0.10973-0.04255-0.5352-0.03359-0.70762-0.12316-0.82407zm3.7198 1.5115q-0.10973 0.40308-0.20602 1.1309l-0.0627 0.42323q-0.01568 0.08957-0.08286 0.17691-0.06718 0.08957-0.12316 0.08957-0.06942 0-0.15899-0.07166-0.08733-0.06942-0.08733-0.11197 0-0.12316 0.05598-0.34038 0.40979-1.6549 0.40979-2.9066l-0.0022-0.1881q-0.0045-0.24185 0.08509-0.35157 0.08957-0.10973 0.20602-0.10973 0.05374 0 0.10301 0.08509 0.04927 0.08285 0.04927 0.23737 0 0.21721-0.04479 0.52624-0.05822 0.38964-0.06046 0.44786 0.33366-0.58222 0.70762-0.90916 0.37396-0.32694 0.69419-0.32694 0.22617 0 0.38068 0.17019 0.15675 0.16795 0.15675 0.41875 0 0.73002-0.55983 1.3257t-1.0905 0.59566q-0.13212 0-0.2105-0.06718-0.07614-0.06718-0.15899-0.24408zm1.3906-1.8026q-0.31574 0-0.78152 0.59118-0.46578 0.59118-0.46578 0.92036 0 0.08061 0.09181 0.15675 0.09181 0.07614 0.23289 0.07614 0.32022 0 0.73673-0.4725 0.41651-0.47473 0.41651-0.93155 0-0.16347-0.06718-0.2508-0.06494-0.08957-0.16347-0.08957zm2.533 1.5496q0-0.14556-0.35829-0.33142-0.45458-0.23289-0.61581-0.37173-0.15899-0.14108-0.15899-0.3135 0-0.44562 0.44562-0.73897 0.44786-0.29335 0.73002-0.29335 0.18138 0 0.262 0.0627 0.08285 0.0627 0.08285 0.21721 0 0.06942-0.06046 0.11868-0.05822 0.04927-0.09181 0.04927-0.02463 0-0.09629-0.03359-0.07166-0.03135-0.09405-0.03135-0.11196 0-0.45458 0.16347t-0.34262 0.36949q0 0.1254 0.12092 0.22841 0.12092 0.10077 0.43443 0.24856 0.25304 0.12092 0.40308 0.25976 0.15227 0.1366 0.15227 0.32246 0 0.34261-0.4725 0.53744-0.4725 0.19258-0.90244 0.19258-0.36277 0-0.36277-0.24632 0-0.08509 0.08062-0.1254 0.08285-0.04031 0.16571-0.04031 0.03359 0 0.12764 0.02239 0.09181 0.02239 0.12092 0.02239 0.24856 0 0.53296-0.08285t0.35157-0.20602z" aria-label="temps"/>
<path d="m33.092 85.455q-0.04926 0-0.1366-0.03807-0.09629-0.03359-0.14108-0.03359-0.03359 0-0.09853 0.0112-0.06718 0.01344-0.10301 0.01344-0.06942 0-0.20154-0.01344-0.13436-0.01344-0.22169-0.01344-0.16571 0-0.43667 0.03135-0.2732 0.03359-0.44562 0.03359-0.09629 0-0.14108-0.02911-0.04479-0.03135-0.04479-0.13884 0-0.06494 0.03807-0.11868 0.04031-0.05598 0.23513-0.08733 0.19482-0.03359 0.31574-0.03359 0.04926 0 0.14108 0.0112 0.12316 9e-3 0.42099 0.0022 0.29783-9e-3 0.45906-0.04479 0.01344-0.0045 0.17019-0.0022 0.15899 0.0022 0.25976 0.07838 0.10301 0.0739 0.10301 0.17914 0 0.19258-0.17243 0.19258zm-0.786 1.048h-0.2732l-0.70314 0.0112q-0.03583 0-0.10077-0.09405-0.06494-0.09405-0.06494-0.14108 0-0.06718 0.15227-0.10077 0.15227-0.03583 0.27096-0.03583l0.56207 0.01344q0.06942 0 0.16347-0.01568 0.11196-0.02015 0.262-0.02015 0.27544 0 0.49937 0.05374t0.22393 0.18586q0 0.0627-0.03583 0.1254-0.03583 0.06046-0.07166 0.06046-0.05822 0-0.2105-0.02687-0.18586-0.02687-0.28439-0.02015-0.09853 0.0045-0.38964 0.0045z" aria-label="="/>
<path d="m41.386 83.348q-0.30007 0.48145-0.63596 0.74345-0.3359 0.25976-0.61805 0.25976-0.21721 0-0.34485-0.16571-0.1254-0.16795-0.1254-0.44562 0-0.56655 0.45906-1.1622 0.4613-0.59566 0.99425-0.59566 0.23289 0 0.43219 0.1993l0.3135-1.4645q0.03359-0.15003 0.12316-0.20154 0.09181-0.0515 0.14332-0.0515 0.15675 0 0.15675 0.27768 0 0.04927-0.10301 0.36725-0.16347 0.49265-0.31126 1.2115-0.14556 0.71658-0.14556 1.151 0 0.44786 0.19482 0.44786 0.1254 0 0.25976-0.08285 0.05598-0.04031 0.10525-0.04031 0.07166 0 0.07166 0.09405 0 0.1142-0.20154 0.26424-0.1993 0.15003-0.40979 0.15003-0.36949 0-0.36949-0.7121 0-0.12092 0.0112-0.24408zm-0.29335-1.048q-0.36277 0-0.71882 0.49265-0.35605 0.49041-0.35605 0.90692 0 0.27991 0.18586 0.27991 0.17467 0 0.42323-0.18362 0.2508-0.18362 0.51504-0.58446 0.26424-0.40308 0.26424-0.60461 0-0.09853-0.09181-0.20154-0.08957-0.10525-0.22169-0.10525zm2.7054-1.0234q-0.04703 0-0.07166-0.10077-9e-3 -0.03135-0.02463-0.06942-0.06046-0.14556-0.06046-0.25304 0-0.08957 0.10525-0.18138 0.10749-0.09405 0.23737-0.09405 0.06494 0 0.14556 0.0515 0.08062 0.04926 0.08062 0.09629 0 0.0739-0.05598 0.2508-0.05374 0.1769-0.17467 0.23961-0.11868 0.06046-0.18138 0.06046zm-0.29335 2.5013q0 0.17019 0.04702 0.38292 9e-3 0.04031 9e-3 0.06718 0 0.04031-0.0739 0.10301-0.0739 0.06494-0.15675 0.06494-0.21721 0-0.21721-0.3986 0-0.41203 0.17019-1.3033 0.05822-0.31126 0.05822-0.38292 0-0.14108 0.0515-0.23961 0.0515-0.10077 0.14556-0.10077 0.1142 0 0.17914 0.05598 0.06718 0.05374 0.06718 0.12092 0 0.06718-0.03135 0.17691-0.16795 0.59118-0.20826 0.84646-0.04031 0.25528-0.04031 0.60685zm2.2889-0.01568q0-0.14556-0.35829-0.33142-0.45458-0.23289-0.61581-0.37173-0.15899-0.14108-0.15899-0.3135 0-0.44562 0.44562-0.73897 0.44786-0.29335 0.73002-0.29335 0.18138 0 0.262 0.0627 0.08286 0.0627 0.08286 0.21721 0 0.06942-0.06046 0.11868-0.05822 0.04926-0.09181 0.04926-0.02463 0-0.09629-0.03359-0.07166-0.03135-0.09405-0.03135-0.11197 0-0.45458 0.16347-0.34262 0.16347-0.34262 0.36949 0 0.1254 0.12092 0.22841 0.12092 0.10077 0.43443 0.24856 0.25304 0.12092 0.40308 0.25976 0.15227 0.1366 0.15227 0.32246 0 0.34262-0.4725 0.53744-0.4725 0.19258-0.90244 0.19258-0.36277 0-0.36277-0.24632 0-0.08509 0.08062-0.1254 0.08285-0.04031 0.16571-0.04031 0.03359 0 0.12764 0.02239 0.09181 0.02239 0.12092 0.02239 0.24856 0 0.53296-0.08285 0.28439-0.08286 0.35157-0.20602zm1.9956-1.7467q0.23065-0.01791 0.43443-0.04255 0.20154-0.02239 0.3359-0.02239 0.17019 0 0.21497 0.03135 0.04479 0.03135 0.04479 0.10973 0 0.18138-0.25304 0.19706-0.3247 0.02015-0.5979 0.05598t-0.29559 0.06046q-0.02015 0.02239-0.13436 0.53296-0.1142 0.50832-0.1142 0.6606 0 0.24632 0.06494 0.32918 0.06494 0.08062 0.19482 0.08062 0.19258 0 0.5352-0.28887 0.13212-0.11868 0.20378-0.11868 0.09629 0 0.09629 0.10301 0 0.16123-0.31126 0.41875-0.30902 0.25528-0.63373 0.25528-0.54191 0-0.54191-0.6382 0-0.23065 0.11197-0.71434 0.10973-0.48145 0.10973-0.57774 0-0.03359-0.05374-0.03359l-0.23289 0.02015q-0.28663 0-0.28663-0.22841 0-0.12988 0.13212-0.12988h0.4613q0.04702 0 0.08285-0.04255t0.10525-0.28439q0.06942-0.24408 0.12316-0.48145 0.05374-0.23513 0.2105-0.23513 0.09629 0 0.15003 0.06718 0.05374 0.06718 0.05374 0.1254 0 0.03135-0.08062 0.32022zm3.0122 1.4444q-0.3135 0.42099-0.62029 0.63149t-0.56207 0.2105q-0.17243 0-0.29783-0.14556-0.1254-0.14556-0.1254-0.37396 0-0.58894 0.52624-1.2674 0.52624-0.68075 1.0458-0.68075 0.1881 0 0.27991 0.21497 0.02911 0.07166 0.09181 0.07166 0.17914 0 0.17914 0.13884 0 0.06942-0.02239 0.19034-0.12092 0.6606-0.12092 0.93155 0 0.54191 0.20602 0.6494 0.09853 0.05374 0.09853 0.13212 0 0.06942-0.09629 0.13884-0.09629 0.07166-0.18586 0.07166-0.17243 0-0.28439-0.23737-0.11197-0.23737-0.11197-0.67627zm-0.1366-1.2607q-0.29559 0-0.68747 0.55535-0.39188 0.55311-0.39188 0.91812 0 0.25752 0.17019 0.25752 0.24632 0 0.68299-0.49713 0.43667-0.49713 0.43667-0.91364 0-0.32022-0.2105-0.32022zm3.1085 0.35381q-0.11644 0-0.25528 0.15227-0.1366 0.15227-0.41875 0.68299-0.37173 0.7121-0.48145 0.81063-0.10749 0.09853-0.17914 0.09853-0.26424 0-0.26424-0.25528 0-0.10749 0.03583-0.30455 0.12316-0.67627 0.12316-1.4264 0-0.08509 0.07166-0.1881 0.0739-0.10525 0.13884-0.10525 0.11644 0 0.16571 0.07166 0.04926 0.07166 0.04926 0.28887 0 0.22617-0.13436 0.93155-0.04479 0.23289-0.04479 0.29559 0 0.03583 0.01792 0.03583 0.03359 0 0.31126-0.5352 0.27991-0.54415 0.49041-0.76584 0.2105-0.22169 0.46354-0.22169 0.20154 0 0.32694 0.18362 0.12764 0.18362 0.18586 0.66955 0.0627 0.55311 0.11197 0.68971 0.0515 0.13436 0.16123 0.13436 0.06942 0 0.17467-0.04927 0.01791-9e-3 0.02687-9e-3 0.09629 0 0.09629 0.11196 0 0.09853-0.13212 0.2105-0.13212 0.10973-0.31798 0.10973-0.19034 0-0.29559-0.15003-0.10301-0.15227-0.16347-0.80839-0.0627-0.65836-0.26424-0.65836zm2.3919 1.8497q-0.3359 0-0.51728-0.19258-0.17914-0.19258-0.17914-0.53967 0-0.58446 0.46354-1.2316 0.46354-0.6494 0.86214-0.6494 0.18138 0 0.31126 0.19706 0.13212 0.19482 0.13212 0.41427 0 0.13212-0.05822 0.22841-0.05598 0.09405-0.1142 0.09405-0.12988 0-0.18362-0.262-0.06046-0.28215-0.17467-0.28215-0.23289 0-0.55087 0.55311t-0.31798 0.93379 0.43219 0.38068q0.32918 0 0.7748-0.30902 0.15675-0.10973 0.23065-0.10973 0.07614 0 0.07614 0.08733 0 0.17019-0.40084 0.42995-0.40084 0.25752-0.786 0.25752zm3.8945-0.88677q0 0.22841-0.40532 0.55087-0.40308 0.32246-0.83302 0.32246-0.36053 0-0.55759-0.21273-0.19482-0.21274-0.19482-0.59342 0-0.64044 0.43219-1.2182 0.43219-0.57774 0.94499-0.57774 0.16795 0 0.2732 0.10973 0.10749 0.10973 0.10749 0.26424 0 0.34485-0.33814 0.6606t-0.90468 0.62029q-0.11644 0.06046-0.11644 0.15675 0 0.18586 0.10749 0.29783 0.10749 0.11196 0.31798 0.11196 0.48145 0 0.98306-0.53296 0.0739-0.0739 0.11197-0.0739 0.07166 0 0.07166 0.1142zm-1.5563-0.34933q0.94947-0.56431 0.94947-0.90692 0-0.13436-0.12092-0.13436-0.20602 0-0.46578 0.30231-0.25752 0.30231-0.36277 0.73897z" aria-label="distance"/>
<path d="m42.492 90.802q0.0045-0.12988-0.19034-0.67179-0.36949-1.0099-0.36949-1.4063 0-0.31574 0.2105-0.31574 0.20602 0 0.20602 0.28215 0 0.23065 0.01343 0.35605 0.01568 0.12316 0.10749 0.45458 0.09181 0.32918 0.20154 0.61133 0.05598 0.1478 0.08062 0.22617 0.04702-0.07166 0.12092-0.19706 0.39412-0.66284 0.62701-1.0211 0.23513-0.35829 0.38292-0.52176 0.1478-0.16347 0.21721-0.19482 0.06942-0.03359 0.14108-0.03359 0.08733 0 0.1366 0.0627 0.0515 0.0627 0.0515 0.14332 0 0.10525-0.18362 0.22841-0.17243 0.11644-0.50832 0.58446-0.3359 0.46802-0.72554 1.1936-0.1993 0.36725-0.30679 0.36725-0.09405 0-0.21274-0.1478zm3.0592-3.0253q-0.04702 0-0.07166-0.10077-9e-3 -0.03135-0.02463-0.06942-0.06046-0.14556-0.06046-0.25304 0-0.08957 0.10525-0.18138 0.10749-0.09405 0.23737-0.09405 0.06494 0 0.14556 0.0515 0.08061 0.04926 0.08061 0.09629 0 0.0739-0.05598 0.2508-0.05374 0.1769-0.17467 0.23961-0.11868 0.06046-0.18138 0.06046zm-0.29335 2.5013q0 0.17019 0.04703 0.38292 9e-3 0.04031 9e-3 0.06718 0 0.04031-0.0739 0.10301-0.0739 0.06494-0.15675 0.06494-0.21721 0-0.21721-0.3986 0-0.41203 0.17019-1.3033 0.05822-0.31126 0.05822-0.38292 0-0.14108 0.0515-0.23961 0.0515-0.10077 0.14556-0.10077 0.1142 0 0.17914 0.05598 0.06718 0.05374 0.06718 0.12092 0 0.06718-0.03135 0.17691-0.16795 0.59118-0.20826 0.84646-0.04031 0.25528-0.04031 0.60685zm2.0739-1.7623q0.23065-0.01791 0.43443-0.04255 0.20154-0.02239 0.3359-0.02239 0.17019 0 0.21497 0.03135 0.04479 0.03135 0.04479 0.10973 0 0.18138-0.25304 0.19706-0.3247 0.02015-0.5979 0.05598t-0.29559 0.06046q-0.02015 0.02239-0.13436 0.53296-0.1142 0.50832-0.1142 0.6606 0 0.24632 0.06494 0.32918 0.06494 0.08062 0.19482 0.08062 0.19258 0 0.5352-0.28887 0.13212-0.11868 0.20378-0.11868 0.09629 0 0.09629 0.10301 0 0.16123-0.31126 0.41875-0.30902 0.25528-0.63373 0.25528-0.54191 0-0.54191-0.6382 0-0.23065 0.11197-0.71434 0.10973-0.48145 0.10973-0.57774 0-0.03359-0.05374-0.03359l-0.23289 0.02015q-0.28663 0-0.28663-0.22841 0-0.12988 0.13212-0.12988h0.4613q0.04702 0 0.08285-0.04255t0.10525-0.28439q0.06942-0.24408 0.12316-0.48145 0.05374-0.23513 0.2105-0.23513 0.09629 0 0.15003 0.06718 0.05374 0.06718 0.05374 0.1254 0 0.03135-0.08062 0.32022zm3.4198 1.5003q0 0.22841-0.40532 0.55087-0.40308 0.32246-0.83302 0.32246-0.36053 0-0.55759-0.21273-0.19482-0.21274-0.19482-0.59342 0-0.64044 0.43219-1.2182 0.43219-0.57774 0.94499-0.57774 0.16795 0 0.2732 0.10973 0.10749 0.10973 0.10749 0.26424 0 0.34485-0.33814 0.6606t-0.90468 0.62029q-0.11644 0.06046-0.11644 0.15675 0 0.18586 0.10749 0.29783 0.10749 0.11196 0.31798 0.11196 0.48145 0 0.98306-0.53296 0.0739-0.0739 0.11196-0.0739 0.07166 0 0.07166 0.1142zm-1.5563-0.34933q0.94947-0.56431 0.94947-0.90692 0-0.13436-0.12092-0.13436-0.20602 0-0.46578 0.30231-0.25752 0.30231-0.36277 0.73897zm3.4153 0.59566q0-0.14556-0.35829-0.33142-0.45458-0.23289-0.61581-0.37173-0.15899-0.14108-0.15899-0.3135 0-0.44562 0.44562-0.73897 0.44786-0.29335 0.73002-0.29335 0.18138 0 0.262 0.0627 0.08285 0.0627 0.08285 0.21721 0 0.06942-0.06046 0.11868-0.05822 0.04926-0.09181 0.04926-0.02463 0-0.09629-0.03359-0.07166-0.03135-0.09405-0.03135-0.11197 0-0.45458 0.16347-0.34261 0.16347-0.34261 0.36949 0 0.1254 0.12092 0.22841 0.12092 0.10077 0.43443 0.24856 0.25304 0.12092 0.40308 0.25976 0.15227 0.1366 0.15227 0.32246 0 0.34262-0.47249 0.53744-0.4725 0.19258-0.90244 0.19258-0.36277 0-0.36277-0.24632 0-0.08509 0.08061-0.1254 0.08285-0.04031 0.16571-0.04031 0.03359 0 0.12764 0.02239 0.09181 0.02239 0.12092 0.02239 0.24856 0 0.53296-0.08285 0.28439-0.08286 0.35157-0.20602zm2.2105 0q0-0.14556-0.35829-0.33142-0.45458-0.23289-0.61581-0.37173-0.15899-0.14108-0.15899-0.3135 0-0.44562 0.44562-0.73897 0.44786-0.29335 0.73002-0.29335 0.18138 0 0.262 0.0627 0.08286 0.0627 0.08286 0.21721 0 0.06942-0.06046 0.11868-0.05822 0.04926-0.09181 0.04926-0.02463 0-0.09629-0.03359-0.07166-0.03135-0.09405-0.03135-0.11196 0-0.45458 0.16347t-0.34262 0.36949q0 0.1254 0.12092 0.22841 0.12092 0.10077 0.43443 0.24856 0.25304 0.12092 0.40308 0.25976 0.15227 0.1366 0.15227 0.32246 0 0.34262-0.4725 0.53744-0.4725 0.19258-0.90244 0.19258-0.36277 0-0.36277-0.24632 0-0.08509 0.08062-0.1254 0.08286-0.04031 0.16571-0.04031 0.03359 0 0.12764 0.02239 0.09181 0.02239 0.12092 0.02239 0.24856 0 0.53296-0.08285 0.28439-0.08286 0.35157-0.20602zm3.001-0.24632q0 0.22841-0.40532 0.55087-0.40308 0.32246-0.83302 0.32246-0.36053 0-0.55759-0.21273-0.19482-0.21274-0.19482-0.59342 0-0.64044 0.43219-1.2182 0.43219-0.57774 0.94499-0.57774 0.16795 0 0.2732 0.10973 0.10749 0.10973 0.10749 0.26424 0 0.34485-0.33814 0.6606t-0.90468 0.62029q-0.11644 0.06046-0.11644 0.15675 0 0.18586 0.10749 0.29783 0.10749 0.11196 0.31798 0.11196 0.48145 0 0.98306-0.53296 0.0739-0.0739 0.11197-0.0739 0.07166 0 0.07166 0.1142zm-1.5563-0.34933q0.94947-0.56431 0.94947-0.90692 0-0.13436-0.12092-0.13436-0.20602 0-0.46578 0.30231-0.25752 0.30231-0.36277 0.73897z" aria-label="vitesse"/>
</g>
<path d="m37.362 85.775h25" color="#000000" fill="none" stroke="#000" stroke-linecap="round" stroke-linejoin="round" stroke-width=".35" style="paint-order:normal"/>
<path d="m10 75.775h55v20h-55z" fill="none" stop-color="#000000" stroke="#000" stroke-width=".3"/>
<text x="30.000002" y="65" fill="#000000" font-family="'Segoe Print QD'" font-size="4.5861px" letter-spacing=".26458px" stop-color="#000000" stroke="#000000" stroke-width=".26458px" word-spacing=".52917px" style="-inkscape-stroke:none;line-height:4.35999px;text-decoration-color:#000000" xml:space="preserve"><tspan x="30.000002" y="65" stroke-width=".26458px"/></text>
</g>
</svg>
